%TF.GenerationSoftware,KiCad,Pcbnew,(5.1.9)-1*%
%TF.CreationDate,2021-01-04T01:20:58+08:00*%
%TF.ProjectId,akami,616b616d-692e-46b6-9963-61645f706362,rev?*%
%TF.SameCoordinates,Original*%
%TF.FileFunction,Legend,Top*%
%TF.FilePolarity,Positive*%
%FSLAX46Y46*%
G04 Gerber Fmt 4.6, Leading zero omitted, Abs format (unit mm)*
G04 Created by KiCad (PCBNEW (5.1.9)-1) date 2021-01-04 01:20:58*
%MOMM*%
%LPD*%
G01*
G04 APERTURE LIST*
%ADD10C,0.120000*%
%ADD11C,0.150000*%
%ADD12C,0.070000*%
G04 APERTURE END LIST*
D10*
X-650000Y6275000D02*
G75*
G03*
X-650000Y6275000I-50000J0D01*
G01*
X2850000Y6275000D02*
G75*
G03*
X2850000Y6275000I-50000J0D01*
G01*
D11*
X-304761Y5817857D02*
X304761Y5817857D01*
X0Y5513095D02*
X0Y6122619D01*
D10*
X2850000Y6600000D02*
G75*
G03*
X2850000Y6600000I-50000J0D01*
G01*
X-4675000Y6600000D02*
G75*
G03*
X-4675000Y6600000I-50000J0D01*
G01*
X3900000Y-1950000D02*
G75*
G03*
X3900000Y-1950000I-50000J0D01*
G01*
%TO.C,Y2*%
X4375000Y1025000D02*
X4375000Y-325000D01*
X6125000Y1025000D02*
X6125000Y-325000D01*
%TO.C,R2*%
X-5137258Y-1222500D02*
X-4662742Y-1222500D01*
X-5137258Y-177500D02*
X-4662742Y-177500D01*
%TO.C,R11*%
X5477500Y8287258D02*
X5477500Y7812742D01*
X6522500Y8287258D02*
X6522500Y7812742D01*
%TO.C,C16*%
X-5034420Y-9115000D02*
X-5315580Y-9115000D01*
X-5034420Y-10135000D02*
X-5315580Y-10135000D01*
%TO.C,C22*%
X4562164Y-9790000D02*
X4777836Y-9790000D01*
X4562164Y-10510000D02*
X4777836Y-10510000D01*
%TO.C,R4*%
X380000Y228641D02*
X380000Y-78641D01*
X-380000Y228641D02*
X-380000Y-78641D01*
%TO.C,R3*%
X2020000Y7323641D02*
X2020000Y7016359D01*
X1260000Y7323641D02*
X1260000Y7016359D01*
%TO.C,R10*%
X-2020000Y9103641D02*
X-2020000Y8796359D01*
X-1260000Y9103641D02*
X-1260000Y8796359D01*
%TO.C,Y1*%
X4250000Y-6775000D02*
X6550000Y-6775000D01*
X6550000Y-6775000D02*
X6550000Y-4075000D01*
%TO.C,U1*%
X3610000Y-1390000D02*
X3610000Y-1950000D01*
X-3610000Y-1390000D02*
X-3050000Y-1390000D01*
X-3610000Y-1390000D02*
X-3610000Y-1950000D01*
X-3610000Y-8610000D02*
X-3610000Y-8050000D01*
X-3610000Y-8610000D02*
X-3050000Y-8610000D01*
X3610000Y-8610000D02*
X3050000Y-8610000D01*
X3610000Y-8610000D02*
X3610000Y-8050000D01*
%TO.C,R9*%
X1260000Y9103641D02*
X1260000Y8796359D01*
X2020000Y9103641D02*
X2020000Y8796359D01*
%TO.C,R8*%
X3320000Y4503641D02*
X3320000Y4196359D01*
X4080000Y4503641D02*
X4080000Y4196359D01*
%TO.C,R7*%
X4080000Y2286359D02*
X4080000Y2593641D01*
X3320000Y2286359D02*
X3320000Y2593641D01*
%TO.C,R6*%
X-2020000Y7323641D02*
X-2020000Y7016359D01*
X-1260000Y7323641D02*
X-1260000Y7016359D01*
%TO.C,R5*%
X-4080000Y4503641D02*
X-4080000Y4196359D01*
X-3320000Y4503641D02*
X-3320000Y4196359D01*
%TO.C,L3*%
X-4840000Y-5200279D02*
X-4840000Y-4874721D01*
X-5860000Y-5200279D02*
X-5860000Y-4874721D01*
%TO.C,D3*%
X5535000Y3015000D02*
X5535000Y5300000D01*
X4065000Y3015000D02*
X5535000Y3015000D01*
X4065000Y5300000D02*
X4065000Y3015000D01*
%TO.C,D2*%
X850000Y9200000D02*
X850000Y6650000D01*
X-850000Y9200000D02*
X-850000Y6650000D01*
X850000Y9200000D02*
X-850000Y9200000D01*
%TO.C,D1*%
X-4065000Y3015000D02*
X-4065000Y5300000D01*
X-5535000Y3015000D02*
X-4065000Y3015000D01*
X-5535000Y5300000D02*
X-5535000Y3015000D01*
%TO.C,C21*%
X-4759420Y1510000D02*
X-5040580Y1510000D01*
X-4759420Y490000D02*
X-5040580Y490000D01*
%TO.C,C20*%
X1659420Y1510000D02*
X1940580Y1510000D01*
X1659420Y490000D02*
X1940580Y490000D01*
%TO.C,C19*%
X-360000Y1957836D02*
X-360000Y1742164D01*
X360000Y1957836D02*
X360000Y1742164D01*
%TO.C,C18*%
X5362836Y2290000D02*
X5147164Y2290000D01*
X5362836Y3010000D02*
X5147164Y3010000D01*
%TO.C,C17*%
X5357836Y-1590000D02*
X5142164Y-1590000D01*
X5357836Y-2310000D02*
X5142164Y-2310000D01*
%TO.C,C15*%
X-5372164Y-10615000D02*
X-5587836Y-10615000D01*
X-5372164Y-11335000D02*
X-5587836Y-11335000D01*
%TO.C,C14*%
X-6510000Y8190580D02*
X-6510000Y7909420D01*
X-5490000Y8190580D02*
X-5490000Y7909420D01*
%TO.C,C13*%
X-1940580Y490000D02*
X-1659420Y490000D01*
X-1940580Y1510000D02*
X-1659420Y1510000D01*
%TO.C,C12*%
X-660000Y-9292164D02*
X-660000Y-9507836D01*
X60000Y-9292164D02*
X60000Y-9507836D01*
%TO.C,C11*%
X6700000Y-8602164D02*
X6700000Y-8817836D01*
X5980000Y-8602164D02*
X5980000Y-8817836D01*
%TO.C,C10*%
X2912164Y-1360000D02*
X3127836Y-1360000D01*
X2912164Y-640000D02*
X3127836Y-640000D01*
%TO.C,C9*%
X1357836Y-8660000D02*
X1142164Y-8660000D01*
X1357836Y-9380000D02*
X1142164Y-9380000D01*
%TO.C,C8*%
X-3812836Y-11335000D02*
X-3597164Y-11335000D01*
X-3812836Y-10615000D02*
X-3597164Y-10615000D01*
%TO.C,C7*%
X5392164Y-4010000D02*
X5607836Y-4010000D01*
X5392164Y-3290000D02*
X5607836Y-3290000D01*
%TO.C,C6*%
X5607836Y-6840000D02*
X5392164Y-6840000D01*
X5607836Y-7560000D02*
X5392164Y-7560000D01*
%TO.C,C5*%
X4562164Y-11360000D02*
X4777836Y-11360000D01*
X4562164Y-10640000D02*
X4777836Y-10640000D01*
%TO.C,C4*%
X4612836Y-2440000D02*
X4397164Y-2440000D01*
X4612836Y-3160000D02*
X4397164Y-3160000D01*
%TO.C,C3*%
X-5012836Y-8535000D02*
X-4797164Y-8535000D01*
X-5012836Y-7815000D02*
X-4797164Y-7815000D01*
%TO.C,C2*%
X-2390000Y-442164D02*
X-2390000Y-657836D01*
X-1670000Y-442164D02*
X-1670000Y-657836D01*
%TO.C,C1*%
X-2284420Y-9115000D02*
X-2565580Y-9115000D01*
X-2284420Y-10135000D02*
X-2565580Y-10135000D01*
%TO.C,REF\u002A\u002A*%
D12*
X11800000Y13019047D02*
X12028571Y13019047D01*
X11914285Y12619047D02*
X11914285Y13019047D01*
X12238095Y13019047D02*
X12314285Y13019047D01*
X12352380Y13000000D01*
X12390476Y12961904D01*
X12409523Y12885714D01*
X12409523Y12752380D01*
X12390476Y12676190D01*
X12352380Y12638095D01*
X12314285Y12619047D01*
X12238095Y12619047D01*
X12200000Y12638095D01*
X12161904Y12676190D01*
X12142857Y12752380D01*
X12142857Y12885714D01*
X12161904Y12961904D01*
X12200000Y13000000D01*
X12238095Y13019047D01*
X12657142Y13019047D02*
X12733333Y13019047D01*
X12771428Y13000000D01*
X12809523Y12961904D01*
X12828571Y12885714D01*
X12828571Y12752380D01*
X12809523Y12676190D01*
X12771428Y12638095D01*
X12733333Y12619047D01*
X12657142Y12619047D01*
X12619047Y12638095D01*
X12580952Y12676190D01*
X12561904Y12752380D01*
X12561904Y12885714D01*
X12580952Y12961904D01*
X12619047Y13000000D01*
X12657142Y13019047D01*
X13190476Y12619047D02*
X13000000Y12619047D01*
X13000000Y13019047D01*
X13323809Y12619047D02*
X13323809Y13019047D01*
X13514285Y12619047D02*
X13514285Y13019047D01*
X13742857Y12619047D01*
X13742857Y13019047D01*
X14142857Y13000000D02*
X14104761Y13019047D01*
X14047619Y13019047D01*
X13990476Y13000000D01*
X13952380Y12961904D01*
X13933333Y12923809D01*
X13914285Y12847619D01*
X13914285Y12790476D01*
X13933333Y12714285D01*
X13952380Y12676190D01*
X13990476Y12638095D01*
X14047619Y12619047D01*
X14085714Y12619047D01*
X14142857Y12638095D01*
X14161904Y12657142D01*
X14161904Y12790476D01*
X14085714Y12790476D01*
X11800000Y-15980952D02*
X12028571Y-15980952D01*
X11914285Y-16380952D02*
X11914285Y-15980952D01*
X12238095Y-15980952D02*
X12314285Y-15980952D01*
X12352380Y-16000000D01*
X12390476Y-16038095D01*
X12409523Y-16114285D01*
X12409523Y-16247619D01*
X12390476Y-16323809D01*
X12352380Y-16361904D01*
X12314285Y-16380952D01*
X12238095Y-16380952D01*
X12200000Y-16361904D01*
X12161904Y-16323809D01*
X12142857Y-16247619D01*
X12142857Y-16114285D01*
X12161904Y-16038095D01*
X12200000Y-16000000D01*
X12238095Y-15980952D01*
X12657142Y-15980952D02*
X12733333Y-15980952D01*
X12771428Y-16000000D01*
X12809523Y-16038095D01*
X12828571Y-16114285D01*
X12828571Y-16247619D01*
X12809523Y-16323809D01*
X12771428Y-16361904D01*
X12733333Y-16380952D01*
X12657142Y-16380952D01*
X12619047Y-16361904D01*
X12580952Y-16323809D01*
X12561904Y-16247619D01*
X12561904Y-16114285D01*
X12580952Y-16038095D01*
X12619047Y-16000000D01*
X12657142Y-15980952D01*
X13190476Y-16380952D02*
X13000000Y-16380952D01*
X13000000Y-15980952D01*
X13323809Y-16380952D02*
X13323809Y-15980952D01*
X13514285Y-16380952D02*
X13514285Y-15980952D01*
X13742857Y-16380952D01*
X13742857Y-15980952D01*
X14142857Y-16000000D02*
X14104761Y-15980952D01*
X14047619Y-15980952D01*
X13990476Y-16000000D01*
X13952380Y-16038095D01*
X13933333Y-16076190D01*
X13914285Y-16152380D01*
X13914285Y-16209523D01*
X13933333Y-16285714D01*
X13952380Y-16323809D01*
X13990476Y-16361904D01*
X14047619Y-16380952D01*
X14085714Y-16380952D01*
X14142857Y-16361904D01*
X14161904Y-16342857D01*
X14161904Y-16209523D01*
X14085714Y-16209523D01*
X-14200000Y-15980952D02*
X-13971428Y-15980952D01*
X-14085714Y-16380952D02*
X-14085714Y-15980952D01*
X-13761904Y-15980952D02*
X-13685714Y-15980952D01*
X-13647619Y-16000000D01*
X-13609523Y-16038095D01*
X-13590476Y-16114285D01*
X-13590476Y-16247619D01*
X-13609523Y-16323809D01*
X-13647619Y-16361904D01*
X-13685714Y-16380952D01*
X-13761904Y-16380952D01*
X-13800000Y-16361904D01*
X-13838095Y-16323809D01*
X-13857142Y-16247619D01*
X-13857142Y-16114285D01*
X-13838095Y-16038095D01*
X-13800000Y-16000000D01*
X-13761904Y-15980952D01*
X-13342857Y-15980952D02*
X-13266666Y-15980952D01*
X-13228571Y-16000000D01*
X-13190476Y-16038095D01*
X-13171428Y-16114285D01*
X-13171428Y-16247619D01*
X-13190476Y-16323809D01*
X-13228571Y-16361904D01*
X-13266666Y-16380952D01*
X-13342857Y-16380952D01*
X-13380952Y-16361904D01*
X-13419047Y-16323809D01*
X-13438095Y-16247619D01*
X-13438095Y-16114285D01*
X-13419047Y-16038095D01*
X-13380952Y-16000000D01*
X-13342857Y-15980952D01*
X-12809523Y-16380952D02*
X-13000000Y-16380952D01*
X-13000000Y-15980952D01*
X-12676190Y-16380952D02*
X-12676190Y-15980952D01*
X-12485714Y-16380952D02*
X-12485714Y-15980952D01*
X-12257142Y-16380952D01*
X-12257142Y-15980952D01*
X-11857142Y-16000000D02*
X-11895238Y-15980952D01*
X-11952380Y-15980952D01*
X-12009523Y-16000000D01*
X-12047619Y-16038095D01*
X-12066666Y-16076190D01*
X-12085714Y-16152380D01*
X-12085714Y-16209523D01*
X-12066666Y-16285714D01*
X-12047619Y-16323809D01*
X-12009523Y-16361904D01*
X-11952380Y-16380952D01*
X-11914285Y-16380952D01*
X-11857142Y-16361904D01*
X-11838095Y-16342857D01*
X-11838095Y-16209523D01*
X-11914285Y-16209523D01*
X-14200000Y13019047D02*
X-13971428Y13019047D01*
X-14085714Y12619047D02*
X-14085714Y13019047D01*
X-13761904Y13019047D02*
X-13685714Y13019047D01*
X-13647619Y13000000D01*
X-13609523Y12961904D01*
X-13590476Y12885714D01*
X-13590476Y12752380D01*
X-13609523Y12676190D01*
X-13647619Y12638095D01*
X-13685714Y12619047D01*
X-13761904Y12619047D01*
X-13800000Y12638095D01*
X-13838095Y12676190D01*
X-13857142Y12752380D01*
X-13857142Y12885714D01*
X-13838095Y12961904D01*
X-13800000Y13000000D01*
X-13761904Y13019047D01*
X-13342857Y13019047D02*
X-13266666Y13019047D01*
X-13228571Y13000000D01*
X-13190476Y12961904D01*
X-13171428Y12885714D01*
X-13171428Y12752380D01*
X-13190476Y12676190D01*
X-13228571Y12638095D01*
X-13266666Y12619047D01*
X-13342857Y12619047D01*
X-13380952Y12638095D01*
X-13419047Y12676190D01*
X-13438095Y12752380D01*
X-13438095Y12885714D01*
X-13419047Y12961904D01*
X-13380952Y13000000D01*
X-13342857Y13019047D01*
X-12809523Y12619047D02*
X-13000000Y12619047D01*
X-13000000Y13019047D01*
X-12676190Y12619047D02*
X-12676190Y13019047D01*
X-12485714Y12619047D02*
X-12485714Y13019047D01*
X-12257142Y12619047D01*
X-12257142Y13019047D01*
X-11857142Y13000000D02*
X-11895238Y13019047D01*
X-11952380Y13019047D01*
X-12009523Y13000000D01*
X-12047619Y12961904D01*
X-12066666Y12923809D01*
X-12085714Y12847619D01*
X-12085714Y12790476D01*
X-12066666Y12714285D01*
X-12047619Y12676190D01*
X-12009523Y12638095D01*
X-11952380Y12619047D01*
X-11914285Y12619047D01*
X-11857142Y12638095D01*
X-11838095Y12657142D01*
X-11838095Y12790476D01*
X-11914285Y12790476D01*
%TD*%
M02*
