%TF.GenerationSoftware,KiCad,Pcbnew,(5.1.9)-1*%
%TF.CreationDate,2021-01-02T15:49:44+08:00*%
%TF.ProjectId,akami,616b616d-692e-46b6-9963-61645f706362,rev?*%
%TF.SameCoordinates,Original*%
%TF.FileFunction,Copper,L1,Top*%
%TF.FilePolarity,Positive*%
%FSLAX46Y46*%
G04 Gerber Fmt 4.6, Leading zero omitted, Abs format (unit mm)*
G04 Created by KiCad (PCBNEW (5.1.9)-1) date 2021-01-02 15:49:44*
%MOMM*%
%LPD*%
G01*
G04 APERTURE LIST*
%TA.AperFunction,WasherPad*%
%ADD10C,2.000000*%
%TD*%
%TA.AperFunction,ComponentPad*%
%ADD11C,1.524000*%
%TD*%
%TA.AperFunction,SMDPad,CuDef*%
%ADD12R,1.100000X0.600000*%
%TD*%
%TA.AperFunction,SMDPad,CuDef*%
%ADD13R,0.800000X0.900000*%
%TD*%
%TA.AperFunction,SMDPad,CuDef*%
%ADD14R,0.300000X0.800000*%
%TD*%
%TA.AperFunction,ComponentPad*%
%ADD15O,1.000000X2.200000*%
%TD*%
%TA.AperFunction,ComponentPad*%
%ADD16O,1.000000X1.800000*%
%TD*%
%TA.AperFunction,SMDPad,CuDef*%
%ADD17R,0.540000X0.800000*%
%TD*%
%TA.AperFunction,SMDPad,CuDef*%
%ADD18C,0.250000*%
%TD*%
%TA.AperFunction,SMDPad,CuDef*%
%ADD19R,4.000000X4.000000*%
%TD*%
%TA.AperFunction,SMDPad,CuDef*%
%ADD20R,0.650000X1.060000*%
%TD*%
%TA.AperFunction,SMDPad,CuDef*%
%ADD21R,0.450000X0.600000*%
%TD*%
%TA.AperFunction,ViaPad*%
%ADD22C,0.500000*%
%TD*%
%TA.AperFunction,ViaPad*%
%ADD23C,0.800000*%
%TD*%
%TA.AperFunction,Conductor*%
%ADD24C,0.200000*%
%TD*%
%TA.AperFunction,Conductor*%
%ADD25C,0.300000*%
%TD*%
%TA.AperFunction,Conductor*%
%ADD26C,0.150000*%
%TD*%
%TA.AperFunction,Conductor*%
%ADD27C,0.293300*%
%TD*%
%TA.AperFunction,Conductor*%
%ADD28C,0.261100*%
%TD*%
%TA.AperFunction,Conductor*%
%ADD29C,0.261112*%
%TD*%
%TA.AperFunction,Conductor*%
%ADD30C,0.500000*%
%TD*%
%TA.AperFunction,Conductor*%
%ADD31C,0.100000*%
%TD*%
G04 APERTURE END LIST*
D10*
%TO.P,REF\u002A\u002A,*%
%TO.N,*%
X13000000Y14500000D03*
%TD*%
%TO.P,REF\u002A\u002A,*%
%TO.N,*%
X13000000Y-14500000D03*
%TD*%
%TO.P,REF\u002A\u002A,*%
%TO.N,*%
X-13000000Y-14500000D03*
%TD*%
%TO.P,REF\u002A\u002A,*%
%TO.N,*%
X-13000000Y14500000D03*
%TD*%
%TO.P,R2,2*%
%TO.N,POWER_CTRL*%
%TA.AperFunction,SMDPad,CuDef*%
G36*
G01*
X5800000Y3875000D02*
X6350000Y3875000D01*
G75*
G02*
X6550000Y3675000I0J-200000D01*
G01*
X6550000Y3275000D01*
G75*
G02*
X6350000Y3075000I-200000J0D01*
G01*
X5800000Y3075000D01*
G75*
G02*
X5600000Y3275000I0J200000D01*
G01*
X5600000Y3675000D01*
G75*
G02*
X5800000Y3875000I200000J0D01*
G01*
G37*
%TD.AperFunction*%
%TO.P,R2,1*%
%TO.N,GND*%
%TA.AperFunction,SMDPad,CuDef*%
G36*
G01*
X5800000Y5525000D02*
X6350000Y5525000D01*
G75*
G02*
X6550000Y5325000I0J-200000D01*
G01*
X6550000Y4925000D01*
G75*
G02*
X6350000Y4725000I-200000J0D01*
G01*
X5800000Y4725000D01*
G75*
G02*
X5600000Y4925000I0J200000D01*
G01*
X5600000Y5325000D01*
G75*
G02*
X5800000Y5525000I200000J0D01*
G01*
G37*
%TD.AperFunction*%
%TD*%
%TO.P,R11,2*%
%TO.N,Net-(R11-Pad2)*%
%TA.AperFunction,SMDPad,CuDef*%
G36*
G01*
X5725000Y7625000D02*
X6275000Y7625000D01*
G75*
G02*
X6475000Y7425000I0J-200000D01*
G01*
X6475000Y7025000D01*
G75*
G02*
X6275000Y6825000I-200000J0D01*
G01*
X5725000Y6825000D01*
G75*
G02*
X5525000Y7025000I0J200000D01*
G01*
X5525000Y7425000D01*
G75*
G02*
X5725000Y7625000I200000J0D01*
G01*
G37*
%TD.AperFunction*%
%TO.P,R11,1*%
%TO.N,VBAT*%
%TA.AperFunction,SMDPad,CuDef*%
G36*
G01*
X5725000Y9275000D02*
X6275000Y9275000D01*
G75*
G02*
X6475000Y9075000I0J-200000D01*
G01*
X6475000Y8675000D01*
G75*
G02*
X6275000Y8475000I-200000J0D01*
G01*
X5725000Y8475000D01*
G75*
G02*
X5525000Y8675000I0J200000D01*
G01*
X5525000Y9075000D01*
G75*
G02*
X5725000Y9275000I200000J0D01*
G01*
G37*
%TD.AperFunction*%
%TD*%
%TO.P,C16,2*%
%TO.N,Net-(C15-Pad2)*%
%TA.AperFunction,SMDPad,CuDef*%
G36*
G01*
X-5500000Y-9375000D02*
X-5500000Y-9875000D01*
G75*
G02*
X-5725000Y-10100000I-225000J0D01*
G01*
X-6175000Y-10100000D01*
G75*
G02*
X-6400000Y-9875000I0J225000D01*
G01*
X-6400000Y-9375000D01*
G75*
G02*
X-6175000Y-9150000I225000J0D01*
G01*
X-5725000Y-9150000D01*
G75*
G02*
X-5500000Y-9375000I0J-225000D01*
G01*
G37*
%TD.AperFunction*%
%TO.P,C16,1*%
%TO.N,GND*%
%TA.AperFunction,SMDPad,CuDef*%
G36*
G01*
X-3950000Y-9375000D02*
X-3950000Y-9875000D01*
G75*
G02*
X-4175000Y-10100000I-225000J0D01*
G01*
X-4625000Y-10100000D01*
G75*
G02*
X-4850000Y-9875000I0J225000D01*
G01*
X-4850000Y-9375000D01*
G75*
G02*
X-4625000Y-9150000I225000J0D01*
G01*
X-4175000Y-9150000D01*
G75*
G02*
X-3950000Y-9375000I0J-225000D01*
G01*
G37*
%TD.AperFunction*%
%TD*%
D11*
%TO.P,U4,24*%
%TO.N,VBAT*%
X7620000Y12690000D03*
%TO.P,U4,23*%
%TO.N,GND*%
X7620000Y10150000D03*
%TO.P,U4,22*%
%TO.N,RESET*%
X7620000Y7610000D03*
%TO.P,U4,21*%
%TO.N,3V3_OUT*%
X7620000Y5070000D03*
%TO.P,U4,20*%
%TO.N,P0.31*%
X7620000Y2530000D03*
%TO.P,U4,19*%
%TO.N,P0.29*%
X7620000Y-10000D03*
%TO.P,U4,18*%
%TO.N,P0.02*%
X7620000Y-2550000D03*
%TO.P,U4,17*%
%TO.N,P1.15*%
X7620000Y-5090000D03*
%TO.P,U4,16*%
%TO.N,P1.13*%
X7620000Y-7630000D03*
%TO.P,U4,15*%
%TO.N,P1.11*%
X7620000Y-10170000D03*
%TO.P,U4,14*%
%TO.N,P0.10*%
X7620000Y-12710000D03*
%TO.P,U4,13*%
%TO.N,P0.09*%
X7620000Y-15250000D03*
%TO.P,U4,12*%
%TO.N,P1.06*%
X-7620000Y-15250000D03*
%TO.P,U4,11*%
%TO.N,P1.04*%
X-7620000Y-12710000D03*
%TO.P,U4,10*%
%TO.N,P0.11*%
X-7620000Y-10170000D03*
%TO.P,U4,9*%
%TO.N,P1.00*%
X-7620000Y-7630000D03*
%TO.P,U4,8*%
%TO.N,P0.24*%
X-7620000Y-5090000D03*
%TO.P,U4,7*%
%TO.N,P0.22*%
X-7620000Y-2550000D03*
%TO.P,U4,6*%
%TO.N,P0.20*%
X-7620000Y-10000D03*
%TO.P,U4,5*%
%TO.N,P0.17*%
X-7620000Y2530000D03*
%TO.P,U4,4*%
%TO.N,GND*%
X-7620000Y5070000D03*
%TO.P,U4,3*%
X-7620000Y7610000D03*
%TO.P,U4,2*%
%TO.N,P0.08*%
X-7620000Y10150000D03*
%TO.P,U4,1*%
%TO.N,P0.06*%
X-7620000Y12690000D03*
%TD*%
%TO.P,C22,2*%
%TO.N,Net-(C22-Pad2)*%
%TA.AperFunction,SMDPad,CuDef*%
G36*
G01*
X4870000Y-10320000D02*
X4870000Y-9980000D01*
G75*
G02*
X5010000Y-9840000I140000J0D01*
G01*
X5290000Y-9840000D01*
G75*
G02*
X5430000Y-9980000I0J-140000D01*
G01*
X5430000Y-10320000D01*
G75*
G02*
X5290000Y-10460000I-140000J0D01*
G01*
X5010000Y-10460000D01*
G75*
G02*
X4870000Y-10320000I0J140000D01*
G01*
G37*
%TD.AperFunction*%
%TO.P,C22,1*%
%TO.N,GND*%
%TA.AperFunction,SMDPad,CuDef*%
G36*
G01*
X3910000Y-10320000D02*
X3910000Y-9980000D01*
G75*
G02*
X4050000Y-9840000I140000J0D01*
G01*
X4330000Y-9840000D01*
G75*
G02*
X4470000Y-9980000I0J-140000D01*
G01*
X4470000Y-10320000D01*
G75*
G02*
X4330000Y-10460000I-140000J0D01*
G01*
X4050000Y-10460000D01*
G75*
G02*
X3910000Y-10320000I0J140000D01*
G01*
G37*
%TD.AperFunction*%
%TD*%
%TO.P,R4,2*%
%TO.N,GND*%
%TA.AperFunction,SMDPad,CuDef*%
G36*
G01*
X-525000Y320000D02*
X-895000Y320000D01*
G75*
G02*
X-1030000Y455000I0J135000D01*
G01*
X-1030000Y725000D01*
G75*
G02*
X-895000Y860000I135000J0D01*
G01*
X-525000Y860000D01*
G75*
G02*
X-390000Y725000I0J-135000D01*
G01*
X-390000Y455000D01*
G75*
G02*
X-525000Y320000I-135000J0D01*
G01*
G37*
%TD.AperFunction*%
%TO.P,R4,1*%
%TO.N,BAT_VOLT*%
%TA.AperFunction,SMDPad,CuDef*%
G36*
G01*
X-525000Y-700000D02*
X-895000Y-700000D01*
G75*
G02*
X-1030000Y-565000I0J135000D01*
G01*
X-1030000Y-295000D01*
G75*
G02*
X-895000Y-160000I135000J0D01*
G01*
X-525000Y-160000D01*
G75*
G02*
X-390000Y-295000I0J-135000D01*
G01*
X-390000Y-565000D01*
G75*
G02*
X-525000Y-700000I-135000J0D01*
G01*
G37*
%TD.AperFunction*%
%TD*%
%TO.P,R3,2*%
%TO.N,BAT_VOLT*%
%TA.AperFunction,SMDPad,CuDef*%
G36*
G01*
X1455000Y6930000D02*
X1825000Y6930000D01*
G75*
G02*
X1960000Y6795000I0J-135000D01*
G01*
X1960000Y6525000D01*
G75*
G02*
X1825000Y6390000I-135000J0D01*
G01*
X1455000Y6390000D01*
G75*
G02*
X1320000Y6525000I0J135000D01*
G01*
X1320000Y6795000D01*
G75*
G02*
X1455000Y6930000I135000J0D01*
G01*
G37*
%TD.AperFunction*%
%TO.P,R3,1*%
%TO.N,Net-(R11-Pad2)*%
%TA.AperFunction,SMDPad,CuDef*%
G36*
G01*
X1455000Y7950000D02*
X1825000Y7950000D01*
G75*
G02*
X1960000Y7815000I0J-135000D01*
G01*
X1960000Y7545000D01*
G75*
G02*
X1825000Y7410000I-135000J0D01*
G01*
X1455000Y7410000D01*
G75*
G02*
X1320000Y7545000I0J135000D01*
G01*
X1320000Y7815000D01*
G75*
G02*
X1455000Y7950000I135000J0D01*
G01*
G37*
%TD.AperFunction*%
%TD*%
%TO.P,R10,2*%
%TO.N,GND*%
%TA.AperFunction,SMDPad,CuDef*%
G36*
G01*
X-1825000Y8710000D02*
X-1455000Y8710000D01*
G75*
G02*
X-1320000Y8575000I0J-135000D01*
G01*
X-1320000Y8305000D01*
G75*
G02*
X-1455000Y8170000I-135000J0D01*
G01*
X-1825000Y8170000D01*
G75*
G02*
X-1960000Y8305000I0J135000D01*
G01*
X-1960000Y8575000D01*
G75*
G02*
X-1825000Y8710000I135000J0D01*
G01*
G37*
%TD.AperFunction*%
%TO.P,R10,1*%
%TO.N,Net-(J1-PadB5)*%
%TA.AperFunction,SMDPad,CuDef*%
G36*
G01*
X-1825000Y9730000D02*
X-1455000Y9730000D01*
G75*
G02*
X-1320000Y9595000I0J-135000D01*
G01*
X-1320000Y9325000D01*
G75*
G02*
X-1455000Y9190000I-135000J0D01*
G01*
X-1825000Y9190000D01*
G75*
G02*
X-1960000Y9325000I0J135000D01*
G01*
X-1960000Y9595000D01*
G75*
G02*
X-1825000Y9730000I135000J0D01*
G01*
G37*
%TD.AperFunction*%
%TD*%
D12*
%TO.P,Y2,2*%
%TO.N,Net-(C18-Pad2)*%
X5045000Y620000D03*
%TO.P,Y2,1*%
%TO.N,Net-(C17-Pad2)*%
X5045000Y-780000D03*
%TD*%
D13*
%TO.P,Y1,4*%
%TO.N,GND*%
X4850000Y-6125000D03*
%TO.P,Y1,3*%
%TO.N,Net-(C7-Pad1)*%
X4850000Y-4725000D03*
%TO.P,Y1,2*%
%TO.N,GND*%
X5950000Y-4725000D03*
%TO.P,Y1,1*%
%TO.N,Net-(C6-Pad1)*%
X5950000Y-6125000D03*
%TD*%
D14*
%TO.P,J1,B8*%
%TO.N,N/C*%
X1758300Y10573200D03*
%TO.P,J1,A8*%
X-1249700Y10573200D03*
D15*
%TO.P,J1,S1*%
%TO.N,Net-(J1-PadS1)*%
X-5575000Y15373200D03*
X5575600Y15373200D03*
D16*
X5575600Y11473200D03*
X-5575000Y11473200D03*
D17*
%TO.P,J1,A1*%
%TO.N,GND*%
X-3199700Y10573200D03*
X3200300Y10573200D03*
%TO.P,J1,A4*%
%TO.N,VBUS*%
X2400300Y10573200D03*
X-2399700Y10573200D03*
D14*
%TO.P,J1,B6*%
%TO.N,USB_D+*%
X-749700Y10573200D03*
%TO.P,J1,B7*%
%TO.N,USB_D-*%
X750300Y10573200D03*
%TO.P,J1,A7*%
X-249700Y10573200D03*
%TO.P,J1,A6*%
%TO.N,USB_D+*%
X250300Y10573200D03*
%TO.P,J1,A5*%
%TO.N,Net-(J1-PadA5)*%
X1250300Y10573200D03*
%TO.P,J1,B5*%
%TO.N,Net-(J1-PadB5)*%
X-1749700Y10573200D03*
%TD*%
D18*
%TO.P,U1,AC24*%
%TO.N,SWD*%
X-2750000Y-8250000D03*
%TO.P,U1,AA24*%
%TO.N,SWC*%
X-2250000Y-8250000D03*
%TO.P,U1,W24*%
%TO.N,Net-(U1-PadW24)*%
X-1750000Y-8250000D03*
%TO.P,U1,U24*%
%TO.N,P1.04*%
X-1250000Y-8250000D03*
%TO.P,U1,R24*%
%TO.N,P1.06*%
X-750000Y-8250000D03*
%TO.P,U1,N24*%
%TO.N,Net-(C12-Pad1)*%
X-250000Y-8250000D03*
%TO.P,U1,L24*%
%TO.N,P0.09*%
X250000Y-8250000D03*
%TO.P,U1,J24*%
%TO.N,P0.10*%
X750000Y-8250000D03*
%TO.P,U1,E24*%
%TO.N,Net-(C15-Pad2)*%
X1750000Y-8250000D03*
%TO.P,U1,Y23*%
%TO.N,Net-(U1-PadY23)*%
X-2000000Y-7750000D03*
%TO.P,U1,V23*%
%TO.N,Net-(U1-PadV23)*%
X-1500000Y-7750000D03*
%TO.P,U1,T23*%
%TO.N,Net-(U1-PadT23)*%
X-1000000Y-7750000D03*
%TO.P,U1,P23*%
%TO.N,Net-(U1-PadP23)*%
X-500000Y-7750000D03*
%TO.P,U1,H23*%
%TO.N,Net-(C9-Pad2)*%
X1000000Y-7750000D03*
%TO.P,U1,F23*%
%TO.N,VSS_PA*%
X1500000Y-7750000D03*
%TO.P,U1,A23*%
%TO.N,Net-(C7-Pad1)*%
X3250000Y-7750000D03*
%TO.P,U1,A22*%
%TO.N,VDD_NRF*%
X3250000Y-7250000D03*
%TO.P,U1,A20*%
%TO.N,P1.10*%
X3250000Y-6750000D03*
%TO.P,U1,A18*%
%TO.N,Net-(U1-PadA18)*%
X3250000Y-6250000D03*
%TO.P,U1,A16*%
%TO.N,P1.13*%
X3250000Y-5750000D03*
%TO.P,U1,A14*%
%TO.N,P1.15*%
X3250000Y-5250000D03*
%TO.P,U1,A12*%
%TO.N,P0.02*%
X3250000Y-4750000D03*
%TO.P,U1,A10*%
%TO.N,P0.29*%
X3250000Y-4250000D03*
%TO.P,U1,B19*%
%TO.N,P1.11*%
X2750000Y-6500000D03*
%TO.P,U1,B17*%
%TO.N,Net-(U1-PadB17)*%
X2750000Y-6000000D03*
%TO.P,U1,B15*%
%TO.N,Net-(U1-PadB15)*%
X2750000Y-5500000D03*
%TO.P,U1,B13*%
%TO.N,Net-(U1-PadB13)*%
X2750000Y-5000000D03*
%TO.P,U1,B11*%
%TO.N,Net-(U1-PadB11)*%
X2750000Y-4500000D03*
%TO.P,U1,B9*%
%TO.N,Net-(U1-PadB9)*%
X2750000Y-4000000D03*
%TO.P,U1,B7*%
%TO.N,GND*%
X2750000Y-3500000D03*
%TO.P,U1,B5*%
%TO.N,Net-(C15-Pad2)*%
X2750000Y-3000000D03*
%TO.P,U1,AC5*%
%TO.N,Net-(C13-Pad1)*%
X-2750000Y-3000000D03*
%TO.P,U1,AC9*%
%TO.N,RESET*%
X-2750000Y-4000000D03*
%TO.P,U1,AC11*%
X-2750000Y-4500000D03*
%TO.P,U1,AC13*%
X-2750000Y-5000000D03*
%TO.P,U1,AC15*%
%TO.N,Net-(U1-PadAC15)*%
X-2750000Y-5500000D03*
%TO.P,U1,AC17*%
%TO.N,Net-(U1-PadAC17)*%
X-2750000Y-6000000D03*
%TO.P,U1,AC19*%
%TO.N,Net-(U1-PadAC19)*%
X-2750000Y-6500000D03*
%TO.P,U1,AD22*%
%TO.N,P1.00*%
X-3250000Y-7250000D03*
%TO.P,U1,AD20*%
%TO.N,P0.24*%
X-3250000Y-6750000D03*
%TO.P,U1,AD18*%
%TO.N,P0.22*%
X-3250000Y-6250000D03*
%TO.P,U1,AD16*%
%TO.N,P0.20*%
X-3250000Y-5750000D03*
%TO.P,U1,AD14*%
%TO.N,VDD_NRF*%
X-3250000Y-5250000D03*
%TO.P,U1,AD12*%
%TO.N,P0.17*%
X-3250000Y-4750000D03*
%TO.P,U1,AD10*%
%TO.N,BLUE_LED*%
X-3250000Y-4250000D03*
%TO.P,U1,AD8*%
%TO.N,POWER_CTRL*%
X-3250000Y-3750000D03*
%TO.P,U1,AD6*%
%TO.N,USB_D+*%
X-3250000Y-3250000D03*
%TO.P,U1,AD4*%
%TO.N,USB_D-*%
X-3250000Y-2750000D03*
%TO.P,U1,B1*%
%TO.N,VDD_NRF*%
X2750000Y-1750000D03*
%TO.P,U1,D2*%
%TO.N,Net-(C17-Pad2)*%
X2000000Y-2250000D03*
%TO.P,U1,C1*%
%TO.N,Net-(C10-Pad1)*%
X2250000Y-1750000D03*
%TO.P,U1,F2*%
%TO.N,Net-(C18-Pad2)*%
X1500000Y-2250000D03*
%TO.P,U1,H2*%
%TO.N,Net-(U1-PadH2)*%
X1000000Y-2250000D03*
%TO.P,U1,K2*%
%TO.N,Net-(U1-PadK2)*%
X500000Y-2250000D03*
%TO.P,U1,M2*%
%TO.N,Net-(U1-PadM2)*%
X0Y-2250000D03*
%TO.P,U1,P2*%
%TO.N,Net-(U1-PadP2)*%
X-500000Y-2250000D03*
%TO.P,U1,T2*%
%TO.N,P0.11*%
X-1000000Y-2250000D03*
%TO.P,U1,G1*%
%TO.N,CHARGE_CTRL*%
X1250000Y-1750000D03*
%TO.P,U1,J1*%
%TO.N,BAT_VOLT*%
X750000Y-1750000D03*
%TO.P,U1,L1*%
%TO.N,P0.06*%
X250000Y-1750000D03*
%TO.P,U1,N1*%
%TO.N,P0.08*%
X-250000Y-1750000D03*
%TO.P,U1,R1*%
%TO.N,Net-(U1-PadR1)*%
X-750000Y-1750000D03*
%TO.P,U1,U1*%
%TO.N,Net-(U1-PadU1)*%
X-1250000Y-1750000D03*
%TO.P,U1,W1*%
%TO.N,VDD_NRF*%
X-1750000Y-1750000D03*
%TO.P,U1,Y2*%
X-2000000Y-2250000D03*
%TO.P,U1,AB2*%
%TO.N,Net-(U1-PadAB2)*%
X-2500000Y-2250000D03*
%TO.P,U1,AD2*%
%TO.N,VBUS*%
X-3250000Y-2250000D03*
%TO.P,U1,AD23*%
%TO.N,VDD_NRF*%
X-3250000Y-7750000D03*
%TO.P,U1,AC21*%
%TO.N,Net-(U1-PadAC21)*%
X-2750000Y-7000000D03*
%TO.P,U1,B3*%
%TO.N,Net-(L3-Pad2)*%
X2750000Y-2500000D03*
%TO.P,U1,A8*%
%TO.N,P0.31*%
X3250000Y-3750000D03*
%TO.P,U1,D23*%
%TO.N,Net-(C11-Pad1)*%
X2000000Y-7750000D03*
%TO.P,U1,B24*%
%TO.N,Net-(C6-Pad1)*%
X2750000Y-8250000D03*
D19*
%TO.P,U1,EP*%
%TO.N,GND*%
X0Y-5000000D03*
%TD*%
D20*
%TO.P,U3,5*%
%TO.N,VDD_NRF*%
X-800000Y3300000D03*
%TO.P,U3,4*%
%TO.N,Net-(U3-Pad4)*%
X-2700000Y3300000D03*
%TO.P,U3,3*%
%TO.N,Net-(C20-Pad2)*%
X-2700000Y5500000D03*
%TO.P,U3,2*%
%TO.N,GND*%
X-1750000Y5500000D03*
%TO.P,U3,1*%
%TO.N,Net-(C20-Pad2)*%
X-800000Y5500000D03*
%TD*%
%TO.P,U2,5*%
%TO.N,Net-(R7-Pad2)*%
X2700000Y3300000D03*
%TO.P,U2,4*%
%TO.N,VBUS*%
X800000Y3300000D03*
%TO.P,U2,3*%
%TO.N,VBAT*%
X800000Y5500000D03*
%TO.P,U2,2*%
%TO.N,GND*%
X1750000Y5500000D03*
%TO.P,U2,1*%
%TO.N,Net-(R8-Pad1)*%
X2700000Y5500000D03*
%TD*%
%TO.P,R9,2*%
%TO.N,GND*%
%TA.AperFunction,SMDPad,CuDef*%
G36*
G01*
X1455000Y8710000D02*
X1825000Y8710000D01*
G75*
G02*
X1960000Y8575000I0J-135000D01*
G01*
X1960000Y8305000D01*
G75*
G02*
X1825000Y8170000I-135000J0D01*
G01*
X1455000Y8170000D01*
G75*
G02*
X1320000Y8305000I0J135000D01*
G01*
X1320000Y8575000D01*
G75*
G02*
X1455000Y8710000I135000J0D01*
G01*
G37*
%TD.AperFunction*%
%TO.P,R9,1*%
%TO.N,Net-(J1-PadA5)*%
%TA.AperFunction,SMDPad,CuDef*%
G36*
G01*
X1455000Y9730000D02*
X1825000Y9730000D01*
G75*
G02*
X1960000Y9595000I0J-135000D01*
G01*
X1960000Y9325000D01*
G75*
G02*
X1825000Y9190000I-135000J0D01*
G01*
X1455000Y9190000D01*
G75*
G02*
X1320000Y9325000I0J135000D01*
G01*
X1320000Y9595000D01*
G75*
G02*
X1455000Y9730000I135000J0D01*
G01*
G37*
%TD.AperFunction*%
%TD*%
%TO.P,R8,2*%
%TO.N,Net-(D3-Pad1)*%
%TA.AperFunction,SMDPad,CuDef*%
G36*
G01*
X3515000Y4110000D02*
X3885000Y4110000D01*
G75*
G02*
X4020000Y3975000I0J-135000D01*
G01*
X4020000Y3705000D01*
G75*
G02*
X3885000Y3570000I-135000J0D01*
G01*
X3515000Y3570000D01*
G75*
G02*
X3380000Y3705000I0J135000D01*
G01*
X3380000Y3975000D01*
G75*
G02*
X3515000Y4110000I135000J0D01*
G01*
G37*
%TD.AperFunction*%
%TO.P,R8,1*%
%TO.N,Net-(R8-Pad1)*%
%TA.AperFunction,SMDPad,CuDef*%
G36*
G01*
X3515000Y5130000D02*
X3885000Y5130000D01*
G75*
G02*
X4020000Y4995000I0J-135000D01*
G01*
X4020000Y4725000D01*
G75*
G02*
X3885000Y4590000I-135000J0D01*
G01*
X3515000Y4590000D01*
G75*
G02*
X3380000Y4725000I0J135000D01*
G01*
X3380000Y4995000D01*
G75*
G02*
X3515000Y5130000I135000J0D01*
G01*
G37*
%TD.AperFunction*%
%TD*%
%TO.P,R7,2*%
%TO.N,Net-(R7-Pad2)*%
%TA.AperFunction,SMDPad,CuDef*%
G36*
G01*
X3835000Y2680000D02*
X3465000Y2680000D01*
G75*
G02*
X3330000Y2815000I0J135000D01*
G01*
X3330000Y3085000D01*
G75*
G02*
X3465000Y3220000I135000J0D01*
G01*
X3835000Y3220000D01*
G75*
G02*
X3970000Y3085000I0J-135000D01*
G01*
X3970000Y2815000D01*
G75*
G02*
X3835000Y2680000I-135000J0D01*
G01*
G37*
%TD.AperFunction*%
%TO.P,R7,1*%
%TO.N,CHARGE_CTRL*%
%TA.AperFunction,SMDPad,CuDef*%
G36*
G01*
X3835000Y1660000D02*
X3465000Y1660000D01*
G75*
G02*
X3330000Y1795000I0J135000D01*
G01*
X3330000Y2065000D01*
G75*
G02*
X3465000Y2200000I135000J0D01*
G01*
X3835000Y2200000D01*
G75*
G02*
X3970000Y2065000I0J-135000D01*
G01*
X3970000Y1795000D01*
G75*
G02*
X3835000Y1660000I-135000J0D01*
G01*
G37*
%TD.AperFunction*%
%TD*%
%TO.P,R6,2*%
%TO.N,GND*%
%TA.AperFunction,SMDPad,CuDef*%
G36*
G01*
X-1825000Y6930000D02*
X-1455000Y6930000D01*
G75*
G02*
X-1320000Y6795000I0J-135000D01*
G01*
X-1320000Y6525000D01*
G75*
G02*
X-1455000Y6390000I-135000J0D01*
G01*
X-1825000Y6390000D01*
G75*
G02*
X-1960000Y6525000I0J135000D01*
G01*
X-1960000Y6795000D01*
G75*
G02*
X-1825000Y6930000I135000J0D01*
G01*
G37*
%TD.AperFunction*%
%TO.P,R6,1*%
%TO.N,VBUS*%
%TA.AperFunction,SMDPad,CuDef*%
G36*
G01*
X-1825000Y7950000D02*
X-1455000Y7950000D01*
G75*
G02*
X-1320000Y7815000I0J-135000D01*
G01*
X-1320000Y7545000D01*
G75*
G02*
X-1455000Y7410000I-135000J0D01*
G01*
X-1825000Y7410000D01*
G75*
G02*
X-1960000Y7545000I0J135000D01*
G01*
X-1960000Y7815000D01*
G75*
G02*
X-1825000Y7950000I135000J0D01*
G01*
G37*
%TD.AperFunction*%
%TD*%
%TO.P,R5,2*%
%TO.N,Net-(D1-Pad1)*%
%TA.AperFunction,SMDPad,CuDef*%
G36*
G01*
X-3885000Y4110000D02*
X-3515000Y4110000D01*
G75*
G02*
X-3380000Y3975000I0J-135000D01*
G01*
X-3380000Y3705000D01*
G75*
G02*
X-3515000Y3570000I-135000J0D01*
G01*
X-3885000Y3570000D01*
G75*
G02*
X-4020000Y3705000I0J135000D01*
G01*
X-4020000Y3975000D01*
G75*
G02*
X-3885000Y4110000I135000J0D01*
G01*
G37*
%TD.AperFunction*%
%TO.P,R5,1*%
%TO.N,GND*%
%TA.AperFunction,SMDPad,CuDef*%
G36*
G01*
X-3885000Y5130000D02*
X-3515000Y5130000D01*
G75*
G02*
X-3380000Y4995000I0J-135000D01*
G01*
X-3380000Y4725000D01*
G75*
G02*
X-3515000Y4590000I-135000J0D01*
G01*
X-3885000Y4590000D01*
G75*
G02*
X-4020000Y4725000I0J135000D01*
G01*
X-4020000Y4995000D01*
G75*
G02*
X-3885000Y5130000I135000J0D01*
G01*
G37*
%TD.AperFunction*%
%TD*%
D13*
%TO.P,Q2,3*%
%TO.N,VBAT*%
X-3750000Y9400000D03*
%TO.P,Q2,2*%
%TO.N,Net-(C20-Pad2)*%
X-2800000Y7400000D03*
%TO.P,Q2,1*%
%TO.N,VBUS*%
X-4700000Y7400000D03*
%TD*%
%TO.P,Q1,3*%
%TO.N,3V3_OUT*%
X3750000Y9400000D03*
%TO.P,Q1,2*%
%TO.N,VDD_NRF*%
X4700000Y7400000D03*
%TO.P,Q1,1*%
%TO.N,POWER_CTRL*%
X2800000Y7400000D03*
%TD*%
%TO.P,L3,2*%
%TO.N,Net-(L3-Pad2)*%
%TA.AperFunction,SMDPad,CuDef*%
G36*
G01*
X-5093750Y-4687500D02*
X-5606250Y-4687500D01*
G75*
G02*
X-5825000Y-4468750I0J218750D01*
G01*
X-5825000Y-4031250D01*
G75*
G02*
X-5606250Y-3812500I218750J0D01*
G01*
X-5093750Y-3812500D01*
G75*
G02*
X-4875000Y-4031250I0J-218750D01*
G01*
X-4875000Y-4468750D01*
G75*
G02*
X-5093750Y-4687500I-218750J0D01*
G01*
G37*
%TD.AperFunction*%
%TO.P,L3,1*%
%TO.N,Net-(L2-Pad2)*%
%TA.AperFunction,SMDPad,CuDef*%
G36*
G01*
X-5093750Y-6262500D02*
X-5606250Y-6262500D01*
G75*
G02*
X-5825000Y-6043750I0J218750D01*
G01*
X-5825000Y-5606250D01*
G75*
G02*
X-5606250Y-5387500I218750J0D01*
G01*
X-5093750Y-5387500D01*
G75*
G02*
X-4875000Y-5606250I0J-218750D01*
G01*
X-4875000Y-6043750D01*
G75*
G02*
X-5093750Y-6262500I-218750J0D01*
G01*
G37*
%TD.AperFunction*%
%TD*%
%TO.P,L2,2*%
%TO.N,Net-(L2-Pad2)*%
%TA.AperFunction,SMDPad,CuDef*%
G36*
G01*
X-5575000Y-6702500D02*
X-5575000Y-7047500D01*
G75*
G02*
X-5722500Y-7195000I-147500J0D01*
G01*
X-6017500Y-7195000D01*
G75*
G02*
X-6165000Y-7047500I0J147500D01*
G01*
X-6165000Y-6702500D01*
G75*
G02*
X-6017500Y-6555000I147500J0D01*
G01*
X-5722500Y-6555000D01*
G75*
G02*
X-5575000Y-6702500I0J-147500D01*
G01*
G37*
%TD.AperFunction*%
%TO.P,L2,1*%
%TO.N,Net-(C15-Pad2)*%
%TA.AperFunction,SMDPad,CuDef*%
G36*
G01*
X-4605000Y-6702500D02*
X-4605000Y-7047500D01*
G75*
G02*
X-4752500Y-7195000I-147500J0D01*
G01*
X-5047500Y-7195000D01*
G75*
G02*
X-5195000Y-7047500I0J147500D01*
G01*
X-5195000Y-6702500D01*
G75*
G02*
X-5047500Y-6555000I147500J0D01*
G01*
X-4752500Y-6555000D01*
G75*
G02*
X-4605000Y-6702500I0J-147500D01*
G01*
G37*
%TD.AperFunction*%
%TD*%
%TO.P,L1,2*%
%TO.N,Net-(C9-Pad2)*%
%TA.AperFunction,SMDPad,CuDef*%
G36*
G01*
X972500Y-10145000D02*
X627500Y-10145000D01*
G75*
G02*
X480000Y-9997500I0J147500D01*
G01*
X480000Y-9702500D01*
G75*
G02*
X627500Y-9555000I147500J0D01*
G01*
X972500Y-9555000D01*
G75*
G02*
X1120000Y-9702500I0J-147500D01*
G01*
X1120000Y-9997500D01*
G75*
G02*
X972500Y-10145000I-147500J0D01*
G01*
G37*
%TD.AperFunction*%
%TO.P,L1,1*%
%TO.N,Net-(C22-Pad2)*%
%TA.AperFunction,SMDPad,CuDef*%
G36*
G01*
X972500Y-11115000D02*
X627500Y-11115000D01*
G75*
G02*
X480000Y-10967500I0J147500D01*
G01*
X480000Y-10672500D01*
G75*
G02*
X627500Y-10525000I147500J0D01*
G01*
X972500Y-10525000D01*
G75*
G02*
X1120000Y-10672500I0J-147500D01*
G01*
X1120000Y-10967500D01*
G75*
G02*
X972500Y-11115000I-147500J0D01*
G01*
G37*
%TD.AperFunction*%
%TD*%
%TO.P,D3,2*%
%TO.N,VBUS*%
%TA.AperFunction,SMDPad,CuDef*%
G36*
G01*
X5056250Y4650000D02*
X4543750Y4650000D01*
G75*
G02*
X4325000Y4868750I0J218750D01*
G01*
X4325000Y5306250D01*
G75*
G02*
X4543750Y5525000I218750J0D01*
G01*
X5056250Y5525000D01*
G75*
G02*
X5275000Y5306250I0J-218750D01*
G01*
X5275000Y4868750D01*
G75*
G02*
X5056250Y4650000I-218750J0D01*
G01*
G37*
%TD.AperFunction*%
%TO.P,D3,1*%
%TO.N,Net-(D3-Pad1)*%
%TA.AperFunction,SMDPad,CuDef*%
G36*
G01*
X5056250Y3075000D02*
X4543750Y3075000D01*
G75*
G02*
X4325000Y3293750I0J218750D01*
G01*
X4325000Y3731250D01*
G75*
G02*
X4543750Y3950000I218750J0D01*
G01*
X5056250Y3950000D01*
G75*
G02*
X5275000Y3731250I0J-218750D01*
G01*
X5275000Y3293750D01*
G75*
G02*
X5056250Y3075000I-218750J0D01*
G01*
G37*
%TD.AperFunction*%
%TD*%
D21*
%TO.P,D2,2*%
%TO.N,VBUS*%
X0Y6650000D03*
%TO.P,D2,1*%
%TO.N,Net-(C20-Pad2)*%
X0Y8750000D03*
%TD*%
%TO.P,D1,2*%
%TO.N,BLUE_LED*%
%TA.AperFunction,SMDPad,CuDef*%
G36*
G01*
X-4543750Y4650000D02*
X-5056250Y4650000D01*
G75*
G02*
X-5275000Y4868750I0J218750D01*
G01*
X-5275000Y5306250D01*
G75*
G02*
X-5056250Y5525000I218750J0D01*
G01*
X-4543750Y5525000D01*
G75*
G02*
X-4325000Y5306250I0J-218750D01*
G01*
X-4325000Y4868750D01*
G75*
G02*
X-4543750Y4650000I-218750J0D01*
G01*
G37*
%TD.AperFunction*%
%TO.P,D1,1*%
%TO.N,Net-(D1-Pad1)*%
%TA.AperFunction,SMDPad,CuDef*%
G36*
G01*
X-4543750Y3075000D02*
X-5056250Y3075000D01*
G75*
G02*
X-5275000Y3293750I0J218750D01*
G01*
X-5275000Y3731250D01*
G75*
G02*
X-5056250Y3950000I218750J0D01*
G01*
X-4543750Y3950000D01*
G75*
G02*
X-4325000Y3731250I0J-218750D01*
G01*
X-4325000Y3293750D01*
G75*
G02*
X-4543750Y3075000I-218750J0D01*
G01*
G37*
%TD.AperFunction*%
%TD*%
%TO.P,C21,2*%
%TO.N,VBAT*%
%TA.AperFunction,SMDPad,CuDef*%
G36*
G01*
X-5500000Y920000D02*
X-6000000Y920000D01*
G75*
G02*
X-6225000Y1145000I0J225000D01*
G01*
X-6225000Y1595000D01*
G75*
G02*
X-6000000Y1820000I225000J0D01*
G01*
X-5500000Y1820000D01*
G75*
G02*
X-5275000Y1595000I0J-225000D01*
G01*
X-5275000Y1145000D01*
G75*
G02*
X-5500000Y920000I-225000J0D01*
G01*
G37*
%TD.AperFunction*%
%TO.P,C21,1*%
%TO.N,GND*%
%TA.AperFunction,SMDPad,CuDef*%
G36*
G01*
X-5500000Y-630000D02*
X-6000000Y-630000D01*
G75*
G02*
X-6225000Y-405000I0J225000D01*
G01*
X-6225000Y45000D01*
G75*
G02*
X-6000000Y270000I225000J0D01*
G01*
X-5500000Y270000D01*
G75*
G02*
X-5275000Y45000I0J-225000D01*
G01*
X-5275000Y-405000D01*
G75*
G02*
X-5500000Y-630000I-225000J0D01*
G01*
G37*
%TD.AperFunction*%
%TD*%
%TO.P,C20,2*%
%TO.N,Net-(C20-Pad2)*%
%TA.AperFunction,SMDPad,CuDef*%
G36*
G01*
X1550000Y1650000D02*
X1550000Y1150000D01*
G75*
G02*
X1325000Y925000I-225000J0D01*
G01*
X875000Y925000D01*
G75*
G02*
X650000Y1150000I0J225000D01*
G01*
X650000Y1650000D01*
G75*
G02*
X875000Y1875000I225000J0D01*
G01*
X1325000Y1875000D01*
G75*
G02*
X1550000Y1650000I0J-225000D01*
G01*
G37*
%TD.AperFunction*%
%TO.P,C20,1*%
%TO.N,GND*%
%TA.AperFunction,SMDPad,CuDef*%
G36*
G01*
X3100000Y1650000D02*
X3100000Y1150000D01*
G75*
G02*
X2875000Y925000I-225000J0D01*
G01*
X2425000Y925000D01*
G75*
G02*
X2200000Y1150000I0J225000D01*
G01*
X2200000Y1650000D01*
G75*
G02*
X2425000Y1875000I225000J0D01*
G01*
X2875000Y1875000D01*
G75*
G02*
X3100000Y1650000I0J-225000D01*
G01*
G37*
%TD.AperFunction*%
%TD*%
%TO.P,C19,2*%
%TO.N,BAT_VOLT*%
%TA.AperFunction,SMDPad,CuDef*%
G36*
G01*
X840000Y-310000D02*
X1180000Y-310000D01*
G75*
G02*
X1320000Y-450000I0J-140000D01*
G01*
X1320000Y-730000D01*
G75*
G02*
X1180000Y-870000I-140000J0D01*
G01*
X840000Y-870000D01*
G75*
G02*
X700000Y-730000I0J140000D01*
G01*
X700000Y-450000D01*
G75*
G02*
X840000Y-310000I140000J0D01*
G01*
G37*
%TD.AperFunction*%
%TO.P,C19,1*%
%TO.N,GND*%
%TA.AperFunction,SMDPad,CuDef*%
G36*
G01*
X840000Y650000D02*
X1180000Y650000D01*
G75*
G02*
X1320000Y510000I0J-140000D01*
G01*
X1320000Y230000D01*
G75*
G02*
X1180000Y90000I-140000J0D01*
G01*
X840000Y90000D01*
G75*
G02*
X700000Y230000I0J140000D01*
G01*
X700000Y510000D01*
G75*
G02*
X840000Y650000I140000J0D01*
G01*
G37*
%TD.AperFunction*%
%TD*%
%TO.P,C18,2*%
%TO.N,Net-(C18-Pad2)*%
%TA.AperFunction,SMDPad,CuDef*%
G36*
G01*
X4845000Y1720000D02*
X4845000Y1380000D01*
G75*
G02*
X4705000Y1240000I-140000J0D01*
G01*
X4425000Y1240000D01*
G75*
G02*
X4285000Y1380000I0J140000D01*
G01*
X4285000Y1720000D01*
G75*
G02*
X4425000Y1860000I140000J0D01*
G01*
X4705000Y1860000D01*
G75*
G02*
X4845000Y1720000I0J-140000D01*
G01*
G37*
%TD.AperFunction*%
%TO.P,C18,1*%
%TO.N,GND*%
%TA.AperFunction,SMDPad,CuDef*%
G36*
G01*
X5805000Y1720000D02*
X5805000Y1380000D01*
G75*
G02*
X5665000Y1240000I-140000J0D01*
G01*
X5385000Y1240000D01*
G75*
G02*
X5245000Y1380000I0J140000D01*
G01*
X5245000Y1720000D01*
G75*
G02*
X5385000Y1860000I140000J0D01*
G01*
X5665000Y1860000D01*
G75*
G02*
X5805000Y1720000I0J-140000D01*
G01*
G37*
%TD.AperFunction*%
%TD*%
%TO.P,C17,2*%
%TO.N,Net-(C17-Pad2)*%
%TA.AperFunction,SMDPad,CuDef*%
G36*
G01*
X4845000Y-1540000D02*
X4845000Y-1880000D01*
G75*
G02*
X4705000Y-2020000I-140000J0D01*
G01*
X4425000Y-2020000D01*
G75*
G02*
X4285000Y-1880000I0J140000D01*
G01*
X4285000Y-1540000D01*
G75*
G02*
X4425000Y-1400000I140000J0D01*
G01*
X4705000Y-1400000D01*
G75*
G02*
X4845000Y-1540000I0J-140000D01*
G01*
G37*
%TD.AperFunction*%
%TO.P,C17,1*%
%TO.N,GND*%
%TA.AperFunction,SMDPad,CuDef*%
G36*
G01*
X5805000Y-1540000D02*
X5805000Y-1880000D01*
G75*
G02*
X5665000Y-2020000I-140000J0D01*
G01*
X5385000Y-2020000D01*
G75*
G02*
X5245000Y-1880000I0J140000D01*
G01*
X5245000Y-1540000D01*
G75*
G02*
X5385000Y-1400000I140000J0D01*
G01*
X5665000Y-1400000D01*
G75*
G02*
X5805000Y-1540000I0J-140000D01*
G01*
G37*
%TD.AperFunction*%
%TD*%
%TO.P,C15,2*%
%TO.N,Net-(C15-Pad2)*%
%TA.AperFunction,SMDPad,CuDef*%
G36*
G01*
X-5680000Y-10805000D02*
X-5680000Y-11145000D01*
G75*
G02*
X-5820000Y-11285000I-140000J0D01*
G01*
X-6100000Y-11285000D01*
G75*
G02*
X-6240000Y-11145000I0J140000D01*
G01*
X-6240000Y-10805000D01*
G75*
G02*
X-6100000Y-10665000I140000J0D01*
G01*
X-5820000Y-10665000D01*
G75*
G02*
X-5680000Y-10805000I0J-140000D01*
G01*
G37*
%TD.AperFunction*%
%TO.P,C15,1*%
%TO.N,GND*%
%TA.AperFunction,SMDPad,CuDef*%
G36*
G01*
X-4720000Y-10805000D02*
X-4720000Y-11145000D01*
G75*
G02*
X-4860000Y-11285000I-140000J0D01*
G01*
X-5140000Y-11285000D01*
G75*
G02*
X-5280000Y-11145000I0J140000D01*
G01*
X-5280000Y-10805000D01*
G75*
G02*
X-5140000Y-10665000I140000J0D01*
G01*
X-4860000Y-10665000D01*
G75*
G02*
X-4720000Y-10805000I0J-140000D01*
G01*
G37*
%TD.AperFunction*%
%TD*%
%TO.P,C14,2*%
%TO.N,VBUS*%
%TA.AperFunction,SMDPad,CuDef*%
G36*
G01*
X-4220000Y5970000D02*
X-4220000Y6470000D01*
G75*
G02*
X-3995000Y6695000I225000J0D01*
G01*
X-3545000Y6695000D01*
G75*
G02*
X-3320000Y6470000I0J-225000D01*
G01*
X-3320000Y5970000D01*
G75*
G02*
X-3545000Y5745000I-225000J0D01*
G01*
X-3995000Y5745000D01*
G75*
G02*
X-4220000Y5970000I0J225000D01*
G01*
G37*
%TD.AperFunction*%
%TO.P,C14,1*%
%TO.N,GND*%
%TA.AperFunction,SMDPad,CuDef*%
G36*
G01*
X-5770000Y5970000D02*
X-5770000Y6470000D01*
G75*
G02*
X-5545000Y6695000I225000J0D01*
G01*
X-5095000Y6695000D01*
G75*
G02*
X-4870000Y6470000I0J-225000D01*
G01*
X-4870000Y5970000D01*
G75*
G02*
X-5095000Y5745000I-225000J0D01*
G01*
X-5545000Y5745000D01*
G75*
G02*
X-5770000Y5970000I0J225000D01*
G01*
G37*
%TD.AperFunction*%
%TD*%
%TO.P,C13,2*%
%TO.N,GND*%
%TA.AperFunction,SMDPad,CuDef*%
G36*
G01*
X-2220000Y150000D02*
X-2220000Y650000D01*
G75*
G02*
X-1995000Y875000I225000J0D01*
G01*
X-1545000Y875000D01*
G75*
G02*
X-1320000Y650000I0J-225000D01*
G01*
X-1320000Y150000D01*
G75*
G02*
X-1545000Y-75000I-225000J0D01*
G01*
X-1995000Y-75000D01*
G75*
G02*
X-2220000Y150000I0J225000D01*
G01*
G37*
%TD.AperFunction*%
%TO.P,C13,1*%
%TO.N,Net-(C13-Pad1)*%
%TA.AperFunction,SMDPad,CuDef*%
G36*
G01*
X-3770000Y150000D02*
X-3770000Y650000D01*
G75*
G02*
X-3545000Y875000I225000J0D01*
G01*
X-3095000Y875000D01*
G75*
G02*
X-2870000Y650000I0J-225000D01*
G01*
X-2870000Y150000D01*
G75*
G02*
X-3095000Y-75000I-225000J0D01*
G01*
X-3545000Y-75000D01*
G75*
G02*
X-3770000Y150000I0J225000D01*
G01*
G37*
%TD.AperFunction*%
%TD*%
%TO.P,C12,2*%
%TO.N,GND*%
%TA.AperFunction,SMDPad,CuDef*%
G36*
G01*
X-470000Y-9600000D02*
X-130000Y-9600000D01*
G75*
G02*
X10000Y-9740000I0J-140000D01*
G01*
X10000Y-10020000D01*
G75*
G02*
X-130000Y-10160000I-140000J0D01*
G01*
X-470000Y-10160000D01*
G75*
G02*
X-610000Y-10020000I0J140000D01*
G01*
X-610000Y-9740000D01*
G75*
G02*
X-470000Y-9600000I140000J0D01*
G01*
G37*
%TD.AperFunction*%
%TO.P,C12,1*%
%TO.N,Net-(C12-Pad1)*%
%TA.AperFunction,SMDPad,CuDef*%
G36*
G01*
X-470000Y-8640000D02*
X-130000Y-8640000D01*
G75*
G02*
X10000Y-8780000I0J-140000D01*
G01*
X10000Y-9060000D01*
G75*
G02*
X-130000Y-9200000I-140000J0D01*
G01*
X-470000Y-9200000D01*
G75*
G02*
X-610000Y-9060000I0J140000D01*
G01*
X-610000Y-8780000D01*
G75*
G02*
X-470000Y-8640000I140000J0D01*
G01*
G37*
%TD.AperFunction*%
%TD*%
%TO.P,C11,1*%
%TO.N,Net-(C11-Pad1)*%
%TA.AperFunction,SMDPad,CuDef*%
G36*
G01*
X6170000Y-7950000D02*
X6510000Y-7950000D01*
G75*
G02*
X6650000Y-8090000I0J-140000D01*
G01*
X6650000Y-8370000D01*
G75*
G02*
X6510000Y-8510000I-140000J0D01*
G01*
X6170000Y-8510000D01*
G75*
G02*
X6030000Y-8370000I0J140000D01*
G01*
X6030000Y-8090000D01*
G75*
G02*
X6170000Y-7950000I140000J0D01*
G01*
G37*
%TD.AperFunction*%
%TO.P,C11,2*%
%TO.N,GND*%
%TA.AperFunction,SMDPad,CuDef*%
G36*
G01*
X6170000Y-8910000D02*
X6510000Y-8910000D01*
G75*
G02*
X6650000Y-9050000I0J-140000D01*
G01*
X6650000Y-9330000D01*
G75*
G02*
X6510000Y-9470000I-140000J0D01*
G01*
X6170000Y-9470000D01*
G75*
G02*
X6030000Y-9330000I0J140000D01*
G01*
X6030000Y-9050000D01*
G75*
G02*
X6170000Y-8910000I140000J0D01*
G01*
G37*
%TD.AperFunction*%
%TD*%
%TO.P,C10,2*%
%TO.N,GND*%
%TA.AperFunction,SMDPad,CuDef*%
G36*
G01*
X3220000Y-1170000D02*
X3220000Y-830000D01*
G75*
G02*
X3360000Y-690000I140000J0D01*
G01*
X3640000Y-690000D01*
G75*
G02*
X3780000Y-830000I0J-140000D01*
G01*
X3780000Y-1170000D01*
G75*
G02*
X3640000Y-1310000I-140000J0D01*
G01*
X3360000Y-1310000D01*
G75*
G02*
X3220000Y-1170000I0J140000D01*
G01*
G37*
%TD.AperFunction*%
%TO.P,C10,1*%
%TO.N,Net-(C10-Pad1)*%
%TA.AperFunction,SMDPad,CuDef*%
G36*
G01*
X2260000Y-1170000D02*
X2260000Y-830000D01*
G75*
G02*
X2400000Y-690000I140000J0D01*
G01*
X2680000Y-690000D01*
G75*
G02*
X2820000Y-830000I0J-140000D01*
G01*
X2820000Y-1170000D01*
G75*
G02*
X2680000Y-1310000I-140000J0D01*
G01*
X2400000Y-1310000D01*
G75*
G02*
X2260000Y-1170000I0J140000D01*
G01*
G37*
%TD.AperFunction*%
%TD*%
%TO.P,C9,2*%
%TO.N,Net-(C9-Pad2)*%
%TA.AperFunction,SMDPad,CuDef*%
G36*
G01*
X1050000Y-8850000D02*
X1050000Y-9190000D01*
G75*
G02*
X910000Y-9330000I-140000J0D01*
G01*
X630000Y-9330000D01*
G75*
G02*
X490000Y-9190000I0J140000D01*
G01*
X490000Y-8850000D01*
G75*
G02*
X630000Y-8710000I140000J0D01*
G01*
X910000Y-8710000D01*
G75*
G02*
X1050000Y-8850000I0J-140000D01*
G01*
G37*
%TD.AperFunction*%
%TO.P,C9,1*%
%TO.N,VSS_PA*%
%TA.AperFunction,SMDPad,CuDef*%
G36*
G01*
X2010000Y-8850000D02*
X2010000Y-9190000D01*
G75*
G02*
X1870000Y-9330000I-140000J0D01*
G01*
X1590000Y-9330000D01*
G75*
G02*
X1450000Y-9190000I0J140000D01*
G01*
X1450000Y-8850000D01*
G75*
G02*
X1590000Y-8710000I140000J0D01*
G01*
X1870000Y-8710000D01*
G75*
G02*
X2010000Y-8850000I0J-140000D01*
G01*
G37*
%TD.AperFunction*%
%TD*%
%TO.P,C8,2*%
%TO.N,VDD_NRF*%
%TA.AperFunction,SMDPad,CuDef*%
G36*
G01*
X-3505000Y-11145000D02*
X-3505000Y-10805000D01*
G75*
G02*
X-3365000Y-10665000I140000J0D01*
G01*
X-3085000Y-10665000D01*
G75*
G02*
X-2945000Y-10805000I0J-140000D01*
G01*
X-2945000Y-11145000D01*
G75*
G02*
X-3085000Y-11285000I-140000J0D01*
G01*
X-3365000Y-11285000D01*
G75*
G02*
X-3505000Y-11145000I0J140000D01*
G01*
G37*
%TD.AperFunction*%
%TO.P,C8,1*%
%TO.N,GND*%
%TA.AperFunction,SMDPad,CuDef*%
G36*
G01*
X-4465000Y-11145000D02*
X-4465000Y-10805000D01*
G75*
G02*
X-4325000Y-10665000I140000J0D01*
G01*
X-4045000Y-10665000D01*
G75*
G02*
X-3905000Y-10805000I0J-140000D01*
G01*
X-3905000Y-11145000D01*
G75*
G02*
X-4045000Y-11285000I-140000J0D01*
G01*
X-4325000Y-11285000D01*
G75*
G02*
X-4465000Y-11145000I0J140000D01*
G01*
G37*
%TD.AperFunction*%
%TD*%
%TO.P,C7,2*%
%TO.N,GND*%
%TA.AperFunction,SMDPad,CuDef*%
G36*
G01*
X5700000Y-3820000D02*
X5700000Y-3480000D01*
G75*
G02*
X5840000Y-3340000I140000J0D01*
G01*
X6120000Y-3340000D01*
G75*
G02*
X6260000Y-3480000I0J-140000D01*
G01*
X6260000Y-3820000D01*
G75*
G02*
X6120000Y-3960000I-140000J0D01*
G01*
X5840000Y-3960000D01*
G75*
G02*
X5700000Y-3820000I0J140000D01*
G01*
G37*
%TD.AperFunction*%
%TO.P,C7,1*%
%TO.N,Net-(C7-Pad1)*%
%TA.AperFunction,SMDPad,CuDef*%
G36*
G01*
X4740000Y-3820000D02*
X4740000Y-3480000D01*
G75*
G02*
X4880000Y-3340000I140000J0D01*
G01*
X5160000Y-3340000D01*
G75*
G02*
X5300000Y-3480000I0J-140000D01*
G01*
X5300000Y-3820000D01*
G75*
G02*
X5160000Y-3960000I-140000J0D01*
G01*
X4880000Y-3960000D01*
G75*
G02*
X4740000Y-3820000I0J140000D01*
G01*
G37*
%TD.AperFunction*%
%TD*%
%TO.P,C6,2*%
%TO.N,GND*%
%TA.AperFunction,SMDPad,CuDef*%
G36*
G01*
X5300000Y-7030000D02*
X5300000Y-7370000D01*
G75*
G02*
X5160000Y-7510000I-140000J0D01*
G01*
X4880000Y-7510000D01*
G75*
G02*
X4740000Y-7370000I0J140000D01*
G01*
X4740000Y-7030000D01*
G75*
G02*
X4880000Y-6890000I140000J0D01*
G01*
X5160000Y-6890000D01*
G75*
G02*
X5300000Y-7030000I0J-140000D01*
G01*
G37*
%TD.AperFunction*%
%TO.P,C6,1*%
%TO.N,Net-(C6-Pad1)*%
%TA.AperFunction,SMDPad,CuDef*%
G36*
G01*
X6260000Y-7030000D02*
X6260000Y-7370000D01*
G75*
G02*
X6120000Y-7510000I-140000J0D01*
G01*
X5840000Y-7510000D01*
G75*
G02*
X5700000Y-7370000I0J140000D01*
G01*
X5700000Y-7030000D01*
G75*
G02*
X5840000Y-6890000I140000J0D01*
G01*
X6120000Y-6890000D01*
G75*
G02*
X6260000Y-7030000I0J-140000D01*
G01*
G37*
%TD.AperFunction*%
%TD*%
%TO.P,C5,2*%
%TO.N,Net-(C22-Pad2)*%
%TA.AperFunction,SMDPad,CuDef*%
G36*
G01*
X4870000Y-11170000D02*
X4870000Y-10830000D01*
G75*
G02*
X5010000Y-10690000I140000J0D01*
G01*
X5290000Y-10690000D01*
G75*
G02*
X5430000Y-10830000I0J-140000D01*
G01*
X5430000Y-11170000D01*
G75*
G02*
X5290000Y-11310000I-140000J0D01*
G01*
X5010000Y-11310000D01*
G75*
G02*
X4870000Y-11170000I0J140000D01*
G01*
G37*
%TD.AperFunction*%
%TO.P,C5,1*%
%TO.N,GND*%
%TA.AperFunction,SMDPad,CuDef*%
G36*
G01*
X3910000Y-11170000D02*
X3910000Y-10830000D01*
G75*
G02*
X4050000Y-10690000I140000J0D01*
G01*
X4330000Y-10690000D01*
G75*
G02*
X4470000Y-10830000I0J-140000D01*
G01*
X4470000Y-11170000D01*
G75*
G02*
X4330000Y-11310000I-140000J0D01*
G01*
X4050000Y-11310000D01*
G75*
G02*
X3910000Y-11170000I0J140000D01*
G01*
G37*
%TD.AperFunction*%
%TD*%
%TO.P,C4,2*%
%TO.N,VDD_NRF*%
%TA.AperFunction,SMDPad,CuDef*%
G36*
G01*
X4320000Y-2470000D02*
X4320000Y-2810000D01*
G75*
G02*
X4180000Y-2950000I-140000J0D01*
G01*
X3900000Y-2950000D01*
G75*
G02*
X3760000Y-2810000I0J140000D01*
G01*
X3760000Y-2470000D01*
G75*
G02*
X3900000Y-2330000I140000J0D01*
G01*
X4180000Y-2330000D01*
G75*
G02*
X4320000Y-2470000I0J-140000D01*
G01*
G37*
%TD.AperFunction*%
%TO.P,C4,1*%
%TO.N,GND*%
%TA.AperFunction,SMDPad,CuDef*%
G36*
G01*
X5280000Y-2470000D02*
X5280000Y-2810000D01*
G75*
G02*
X5140000Y-2950000I-140000J0D01*
G01*
X4860000Y-2950000D01*
G75*
G02*
X4720000Y-2810000I0J140000D01*
G01*
X4720000Y-2470000D01*
G75*
G02*
X4860000Y-2330000I140000J0D01*
G01*
X5140000Y-2330000D01*
G75*
G02*
X5280000Y-2470000I0J-140000D01*
G01*
G37*
%TD.AperFunction*%
%TD*%
%TO.P,C3,2*%
%TO.N,VDD_NRF*%
%TA.AperFunction,SMDPad,CuDef*%
G36*
G01*
X-4705000Y-8345000D02*
X-4705000Y-8005000D01*
G75*
G02*
X-4565000Y-7865000I140000J0D01*
G01*
X-4285000Y-7865000D01*
G75*
G02*
X-4145000Y-8005000I0J-140000D01*
G01*
X-4145000Y-8345000D01*
G75*
G02*
X-4285000Y-8485000I-140000J0D01*
G01*
X-4565000Y-8485000D01*
G75*
G02*
X-4705000Y-8345000I0J140000D01*
G01*
G37*
%TD.AperFunction*%
%TO.P,C3,1*%
%TO.N,GND*%
%TA.AperFunction,SMDPad,CuDef*%
G36*
G01*
X-5665000Y-8345000D02*
X-5665000Y-8005000D01*
G75*
G02*
X-5525000Y-7865000I140000J0D01*
G01*
X-5245000Y-7865000D01*
G75*
G02*
X-5105000Y-8005000I0J-140000D01*
G01*
X-5105000Y-8345000D01*
G75*
G02*
X-5245000Y-8485000I-140000J0D01*
G01*
X-5525000Y-8485000D01*
G75*
G02*
X-5665000Y-8345000I0J140000D01*
G01*
G37*
%TD.AperFunction*%
%TD*%
%TO.P,C2,2*%
%TO.N,VDD_NRF*%
%TA.AperFunction,SMDPad,CuDef*%
G36*
G01*
X-2460000Y-540000D02*
X-2460000Y-880000D01*
G75*
G02*
X-2600000Y-1020000I-140000J0D01*
G01*
X-2880000Y-1020000D01*
G75*
G02*
X-3020000Y-880000I0J140000D01*
G01*
X-3020000Y-540000D01*
G75*
G02*
X-2880000Y-400000I140000J0D01*
G01*
X-2600000Y-400000D01*
G75*
G02*
X-2460000Y-540000I0J-140000D01*
G01*
G37*
%TD.AperFunction*%
%TO.P,C2,1*%
%TO.N,GND*%
%TA.AperFunction,SMDPad,CuDef*%
G36*
G01*
X-1500000Y-540000D02*
X-1500000Y-880000D01*
G75*
G02*
X-1640000Y-1020000I-140000J0D01*
G01*
X-1920000Y-1020000D01*
G75*
G02*
X-2060000Y-880000I0J140000D01*
G01*
X-2060000Y-540000D01*
G75*
G02*
X-1920000Y-400000I140000J0D01*
G01*
X-1640000Y-400000D01*
G75*
G02*
X-1500000Y-540000I0J-140000D01*
G01*
G37*
%TD.AperFunction*%
%TD*%
%TO.P,C1,2*%
%TO.N,VDD_NRF*%
%TA.AperFunction,SMDPad,CuDef*%
G36*
G01*
X-1800000Y-10490000D02*
X-1800000Y-10990000D01*
G75*
G02*
X-2025000Y-11215000I-225000J0D01*
G01*
X-2475000Y-11215000D01*
G75*
G02*
X-2700000Y-10990000I0J225000D01*
G01*
X-2700000Y-10490000D01*
G75*
G02*
X-2475000Y-10265000I225000J0D01*
G01*
X-2025000Y-10265000D01*
G75*
G02*
X-1800000Y-10490000I0J-225000D01*
G01*
G37*
%TD.AperFunction*%
%TO.P,C1,1*%
%TO.N,GND*%
%TA.AperFunction,SMDPad,CuDef*%
G36*
G01*
X-250000Y-10490000D02*
X-250000Y-10990000D01*
G75*
G02*
X-475000Y-11215000I-225000J0D01*
G01*
X-925000Y-11215000D01*
G75*
G02*
X-1150000Y-10990000I0J225000D01*
G01*
X-1150000Y-10490000D01*
G75*
G02*
X-925000Y-10265000I225000J0D01*
G01*
X-475000Y-10265000D01*
G75*
G02*
X-250000Y-10490000I0J-225000D01*
G01*
G37*
%TD.AperFunction*%
%TD*%
D22*
%TO.N,VDD_NRF*%
X-3800000Y-5410000D03*
X-2400000Y-1510000D03*
X-1800000Y3230000D03*
X3730000Y-6900000D03*
X3200000Y-1850000D03*
X-1780000Y-9790000D03*
X-2590000Y-7485000D03*
X3962500Y8262500D03*
%TO.N,Net-(C11-Pad1)*%
X2650000Y-7580000D03*
X5550000Y-8200000D03*
%TO.N,VBUS*%
X-2525000Y9550000D03*
X2550000Y9700000D03*
X0Y3650000D03*
X575000Y7275000D03*
X3250000Y6525000D03*
%TO.N,Net-(C15-Pad2)*%
X2170000Y-8250000D03*
X3275000Y-2600000D03*
X-6075000Y-8675000D03*
%TO.N,BAT_VOLT*%
X1850000Y600000D03*
X775000Y6625000D03*
%TO.N,Net-(C20-Pad2)*%
X-2440000Y4460000D03*
X-1130000Y4470000D03*
X1575000Y3375000D03*
%TO.N,VBAT*%
X560000Y4360000D03*
X-1540000Y2610000D03*
X5625000Y9775000D03*
X3150000Y4350000D03*
%TO.N,BLUE_LED*%
X-5780000Y-3210000D03*
X-5350000Y4300000D03*
%TO.N,USB_D+*%
X250000Y9450000D03*
X-920000Y9790000D03*
X-4600000Y-2270000D03*
%TO.N,USB_D-*%
X-800000Y7850000D03*
X650000Y7950000D03*
X-3850000Y-2260000D03*
%TO.N,Net-(L3-Pad2)*%
X2290000Y-2690000D03*
X-4475000Y-4450000D03*
%TO.N,3V3_OUT*%
X4675000Y6450000D03*
X4675000Y8725000D03*
%TO.N,POWER_CTRL*%
X-4260000Y-3420000D03*
X2360000Y6490000D03*
X5825000Y2650000D03*
%TO.N,Net-(R11-Pad2)*%
X6150000Y8050000D03*
X5850000Y5925000D03*
%TO.N,CHARGE_CTRL*%
X1120000Y-1240000D03*
X3490000Y550000D03*
%TO.N,SWD*%
X-3320000Y-8510000D03*
%TO.N,SWC*%
X-2260000Y-8640000D03*
%TO.N,RESET*%
X-2460000Y-3540000D03*
D23*
%TO.N,GND*%
X-1212500Y-3787500D03*
X-1212500Y-6212500D03*
X1212500Y-6212500D03*
X1212500Y-3787500D03*
D22*
X4575000Y10175000D03*
X-4575000Y10175000D03*
X-1750000Y3950000D03*
X-2220000Y8830000D03*
X2660000Y2300000D03*
X70000Y-10750000D03*
X-5460000Y-1130000D03*
X230000Y610000D03*
X210000Y-110000D03*
X5690000Y-2640000D03*
X3500000Y-10990000D03*
X1650000Y-9800000D03*
X3825000Y-1550000D03*
X3500000Y-10150000D03*
X6970000Y-9060000D03*
X7020000Y-6410000D03*
X-7600000Y-8900000D03*
X7600000Y-8900000D03*
X2600000Y-11000000D03*
X-3700000Y-10350000D03*
X6300000Y1550000D03*
X-5525000Y7175000D03*
X1675000Y4675000D03*
X2575000Y8950000D03*
X-3150000Y4350000D03*
X5475000Y4300000D03*
X6725000Y-1175000D03*
%TO.N,P0.09*%
X60000Y-7790000D03*
%TO.N,P0.10*%
X590000Y-7400000D03*
%TO.N,P1.11*%
X2400000Y-6740000D03*
%TO.N,P1.13*%
X3800000Y-6125000D03*
%TO.N,P1.15*%
X3800000Y-5050000D03*
%TO.N,P0.02*%
X3925000Y-4225000D03*
%TO.N,P0.29*%
X4200000Y-3625000D03*
%TO.N,P0.31*%
X3550000Y-3225000D03*
%TO.N,P1.04*%
X-1320000Y-8820000D03*
%TO.N,P1.06*%
X-860000Y-9400000D03*
%TO.N,P0.11*%
X-1470000Y-2530000D03*
X-5120000Y-1790000D03*
%TO.N,P1.00*%
X-3925000Y-7600000D03*
%TO.N,P0.24*%
X-4160000Y-6950000D03*
%TO.N,P0.22*%
X-3790000Y-6390000D03*
%TO.N,P0.20*%
X-4310000Y-5900000D03*
%TO.N,P0.17*%
X-6630000Y-940000D03*
X-4470000Y-5150000D03*
%TO.N,P0.06*%
X-160000Y-1100000D03*
X-5340000Y2230000D03*
X-360000Y2240000D03*
%TO.N,P0.08*%
X-1080000Y-1140000D03*
X-1020000Y1770000D03*
X-5160000Y610000D03*
%TD*%
D24*
%TO.N,VDD_NRF*%
X-2000000Y-2000000D02*
X-2000000Y-2250000D01*
X-1750000Y-1750000D02*
X-2000000Y-2000000D01*
X-3640000Y-5250000D02*
X-3250000Y-5250000D01*
X-3800000Y-5410000D02*
X-3640000Y-5250000D01*
D25*
X-2160000Y-1750000D02*
X-1750000Y-1750000D01*
X-2400000Y-1510000D02*
X-2160000Y-1750000D01*
X-2740000Y-1170000D02*
X-2740000Y-710000D01*
X-2400000Y-1510000D02*
X-2740000Y-1170000D01*
X-870000Y3230000D02*
X-800000Y3300000D01*
X-1800000Y3230000D02*
X-870000Y3230000D01*
D26*
X3380000Y-7250000D02*
X3250000Y-7250000D01*
X3730000Y-6900000D02*
X3380000Y-7250000D01*
D24*
X3100000Y-1750000D02*
X2750000Y-1750000D01*
X3200000Y-1850000D02*
X3100000Y-1750000D01*
X3990000Y-2640000D02*
X4040000Y-2640000D01*
X3200000Y-1850000D02*
X3990000Y-2640000D01*
X-1780000Y-10270000D02*
X-1780000Y-9790000D01*
X-2250000Y-10740000D02*
X-1780000Y-10270000D01*
D25*
X-2485000Y-10975000D02*
X-2250000Y-10740000D01*
X-3225000Y-10975000D02*
X-2485000Y-10975000D01*
D24*
X-2855000Y-7750000D02*
X-3250000Y-7750000D01*
X-2590000Y-7485000D02*
X-2855000Y-7750000D01*
X-3675000Y-8175000D02*
X-4425000Y-8175000D01*
X-3250000Y-7750000D02*
X-3675000Y-8175000D01*
D25*
X4700000Y7525000D02*
X4700000Y7400000D01*
X3962500Y8262500D02*
X4700000Y7525000D01*
D26*
%TO.N,VSS_PA*%
X1410000Y-8700000D02*
X1730000Y-9020000D01*
X1400000Y-8700000D02*
X1410000Y-8700000D01*
X1400000Y-7850000D02*
X1400000Y-8700000D01*
X1500000Y-7750000D02*
X1400000Y-7850000D01*
%TO.N,Net-(C6-Pad1)*%
X5980000Y-6155000D02*
X5980000Y-7200000D01*
X5950000Y-6125000D02*
X5980000Y-6155000D01*
X5950000Y-6125000D02*
X5795000Y-6125000D01*
X2920000Y-8080000D02*
X2750000Y-8250000D01*
X3570000Y-8080000D02*
X2920000Y-8080000D01*
X3910000Y-7740000D02*
X3570000Y-8080000D01*
X6350000Y-7740000D02*
X3910000Y-7740000D01*
X6500000Y-7590000D02*
X6350000Y-7740000D01*
X6500000Y-6240000D02*
X6500000Y-7590000D01*
X6385000Y-6125000D02*
X6500000Y-6240000D01*
X5950000Y-6125000D02*
X6385000Y-6125000D01*
%TO.N,Net-(C7-Pad1)*%
X4850000Y-3820000D02*
X5020000Y-3650000D01*
X4850000Y-4725000D02*
X4850000Y-3820000D01*
X3510000Y-7750000D02*
X3250000Y-7750000D01*
X4250000Y-7010000D02*
X3510000Y-7750000D01*
X4250000Y-4910000D02*
X4250000Y-7010000D01*
X4435000Y-4725000D02*
X4250000Y-4910000D01*
X4850000Y-4725000D02*
X4435000Y-4725000D01*
%TO.N,Net-(C9-Pad2)*%
X1100000Y-7850000D02*
X1100000Y-8690000D01*
X1100000Y-8690000D02*
X770000Y-9020000D01*
X1000000Y-7750000D02*
X1100000Y-7850000D01*
D27*
X770000Y-9820000D02*
X800000Y-9850000D01*
X770000Y-9020000D02*
X770000Y-9820000D01*
D26*
%TO.N,Net-(C10-Pad1)*%
X2250000Y-1290000D02*
X2540000Y-1000000D01*
X2250000Y-1750000D02*
X2250000Y-1290000D01*
%TO.N,Net-(C11-Pad1)*%
X2480000Y-7750000D02*
X2650000Y-7580000D01*
X2000000Y-7750000D02*
X2480000Y-7750000D01*
X6310000Y-8200000D02*
X6340000Y-8230000D01*
X5550000Y-8200000D02*
X6310000Y-8200000D01*
%TO.N,Net-(C12-Pad1)*%
X-250000Y-8870000D02*
X-300000Y-8920000D01*
X-250000Y-8250000D02*
X-250000Y-8870000D01*
%TO.N,Net-(C13-Pad1)*%
X-3300000Y380000D02*
X-3320000Y400000D01*
X-3300000Y-1290000D02*
X-3300000Y380000D01*
X-2875000Y-1715000D02*
X-3300000Y-1290000D01*
X-2875000Y-2875000D02*
X-2875000Y-1715000D01*
X-2750000Y-3000000D02*
X-2875000Y-2875000D01*
D25*
%TO.N,VBUS*%
X2400300Y9849700D02*
X2400300Y10573200D01*
X2550000Y9700000D02*
X2400300Y9849700D01*
X-2390000Y9685000D02*
X-2525000Y9550000D01*
X-2390000Y10563500D02*
X-2390000Y9685000D01*
X-2399700Y10573200D02*
X-2390000Y10563500D01*
D24*
X-2525000Y9550000D02*
X-2525000Y9545000D01*
X-3000000Y9070000D02*
X-3000000Y8210000D01*
X-2525000Y9545000D02*
X-3000000Y9070000D01*
X-3890000Y8210000D02*
X-3000000Y8210000D01*
X-4700000Y7400000D02*
X-3890000Y8210000D01*
X-3000000Y8210000D02*
X-2380000Y8210000D01*
X-1850000Y7680000D02*
X-1640000Y7680000D01*
X-2380000Y8210000D02*
X-1850000Y7680000D01*
X-3770000Y6470000D02*
X-3770000Y6220000D01*
X-4700000Y7400000D02*
X-3770000Y6470000D01*
D25*
X0Y6650000D02*
X0Y3650000D01*
X350000Y3300000D02*
X800000Y3300000D01*
X0Y3650000D02*
X350000Y3300000D01*
X-560000Y1190000D02*
X800000Y2550000D01*
X-3910000Y1190000D02*
X-560000Y1190000D01*
X-4130000Y970000D02*
X-3910000Y1190000D01*
X-4130000Y-1040000D02*
X-4130000Y970000D01*
X800000Y2550000D02*
X800000Y3300000D01*
X-3250000Y-1920000D02*
X-4130000Y-1040000D01*
X-3250000Y-2250000D02*
X-3250000Y-1920000D01*
X575000Y7225000D02*
X0Y6650000D01*
X575000Y7275000D02*
X575000Y7225000D01*
X4687500Y5087500D02*
X4800000Y5087500D01*
X3250000Y6525000D02*
X4687500Y5087500D01*
D26*
%TO.N,Net-(C15-Pad2)*%
X1750000Y-8250000D02*
X2170000Y-8250000D01*
X2875000Y-3000000D02*
X2750000Y-3000000D01*
X3275000Y-2600000D02*
X2875000Y-3000000D01*
X-6075000Y-9500000D02*
X-5950000Y-9625000D01*
X-6075000Y-8675000D02*
X-6075000Y-9500000D01*
X-5950000Y-10965000D02*
X-5960000Y-10975000D01*
X-5950000Y-9625000D02*
X-5950000Y-10965000D01*
X-6075000Y-7750000D02*
X-6075000Y-8675000D01*
X-5875000Y-7550000D02*
X-6075000Y-7750000D01*
X-5150000Y-7550000D02*
X-5875000Y-7550000D01*
X-4900000Y-7300000D02*
X-5150000Y-7550000D01*
X-4900000Y-6875000D02*
X-4900000Y-7300000D01*
%TO.N,Net-(C17-Pad2)*%
X4565000Y-1260000D02*
X5045000Y-780000D01*
X4565000Y-1710000D02*
X4565000Y-1260000D01*
X1900000Y-2150000D02*
X2000000Y-2250000D01*
X1900000Y-510000D02*
X1900000Y-2150000D01*
X2140000Y-270000D02*
X1900000Y-510000D01*
X4535000Y-270000D02*
X2140000Y-270000D01*
X5045000Y-780000D02*
X4535000Y-270000D01*
%TO.N,Net-(C18-Pad2)*%
X4565000Y1100000D02*
X5045000Y620000D01*
X4565000Y1550000D02*
X4565000Y1100000D01*
X1600000Y-2150000D02*
X1500000Y-2250000D01*
X1600000Y-380000D02*
X1600000Y-2150000D01*
X2010000Y30000D02*
X1600000Y-380000D01*
X4455000Y30000D02*
X2010000Y30000D01*
X5045000Y620000D02*
X4455000Y30000D01*
%TO.N,BAT_VOLT*%
X-550000Y-590000D02*
X-710000Y-430000D01*
X300000Y-590000D02*
X300000Y-850000D01*
X1010000Y-590000D02*
X300000Y-590000D01*
X300000Y-590000D02*
X-550000Y-590000D01*
X300000Y-850000D02*
X580000Y-1130000D01*
X580000Y-1580000D02*
X750000Y-1750000D01*
X580000Y-1130000D02*
X580000Y-1580000D01*
X1010000Y-590000D02*
X1010000Y-440000D01*
X1850000Y400000D02*
X1850000Y600000D01*
X1010000Y-440000D02*
X1850000Y400000D01*
X775000Y6625000D02*
X810000Y6660000D01*
X810000Y6660000D02*
X1640000Y6660000D01*
D24*
%TO.N,Net-(C20-Pad2)*%
X-2700000Y4720000D02*
X-2700000Y5500000D01*
X-2440000Y4460000D02*
X-2700000Y4720000D01*
X-800000Y4800000D02*
X-1130000Y4470000D01*
X-800000Y5500000D02*
X-800000Y4800000D01*
D25*
X0Y7750000D02*
X0Y8750000D01*
X-800000Y6950000D02*
X0Y7750000D01*
X-800000Y5500000D02*
X-800000Y6950000D01*
D28*
X-2700000Y7200000D02*
X-2700000Y5500000D01*
X-2800000Y7300000D02*
X-2700000Y7200000D01*
D25*
X1575000Y1875000D02*
X1100000Y1400000D01*
X1575000Y3375000D02*
X1575000Y1875000D01*
%TO.N,VBAT*%
X560000Y5260000D02*
X560000Y4360000D01*
X800000Y5500000D02*
X560000Y5260000D01*
X-5760000Y2780000D02*
X-6130000Y3150000D01*
X-3500000Y2780000D02*
X-5760000Y2780000D01*
X-3170000Y2450000D02*
X-3500000Y2780000D01*
X-1700000Y2450000D02*
X-3170000Y2450000D01*
X-1540000Y2610000D02*
X-1700000Y2450000D01*
X-5750000Y1370000D02*
X-5750000Y1840000D01*
X-6130000Y2220000D02*
X-6130000Y3150000D01*
X-5750000Y1840000D02*
X-6130000Y2220000D01*
X6000000Y9400000D02*
X5625000Y9775000D01*
X6000000Y8875000D02*
X6000000Y9400000D01*
X-4260000Y9400000D02*
X-3750000Y9400000D01*
X-6130000Y7530000D02*
X-4260000Y9400000D01*
X-6130000Y3150000D02*
X-6130000Y7530000D01*
X770000Y4150000D02*
X560000Y4360000D01*
X2950000Y4150000D02*
X770000Y4150000D01*
X3150000Y4350000D02*
X2950000Y4150000D01*
D26*
%TO.N,BLUE_LED*%
X-4500000Y-3970000D02*
X-4970000Y-3500000D01*
X-3530000Y-3970000D02*
X-4500000Y-3970000D01*
X-3250000Y-4250000D02*
X-3530000Y-3970000D01*
X-5490000Y-3500000D02*
X-5780000Y-3210000D01*
X-4970000Y-3500000D02*
X-5490000Y-3500000D01*
X-5350000Y4537500D02*
X-4800000Y5087500D01*
X-5350000Y4300000D02*
X-5350000Y4537500D01*
%TO.N,Net-(D1-Pad1)*%
X-4027500Y3512500D02*
X-3700000Y3840000D01*
X-4800000Y3512500D02*
X-4027500Y3512500D01*
%TO.N,Net-(D3-Pad1)*%
X4027500Y3512500D02*
X3700000Y3840000D01*
X4800000Y3512500D02*
X4027500Y3512500D01*
D29*
%TO.N,USB_D+*%
X-750000Y10510000D02*
X-750000Y10760000D01*
D24*
X262712Y10747288D02*
X250000Y10760000D01*
D28*
X250300Y9450300D02*
X250000Y9450000D01*
X250300Y10573200D02*
X250300Y9450300D01*
X-749700Y9960300D02*
X-749700Y10573200D01*
X-920000Y9790000D02*
X-749700Y9960300D01*
X-3310000Y-3190000D02*
X-3250000Y-3250000D01*
X-3730000Y-3190000D02*
X-3310000Y-3190000D01*
X-4600000Y-2320000D02*
X-4600000Y-2270000D01*
X-3730000Y-3190000D02*
X-4600000Y-2320000D01*
D29*
%TO.N,USB_D-*%
X-250000Y10510000D02*
X-250000Y10760000D01*
D24*
X762713Y10747287D02*
X750000Y10760000D01*
D28*
X-249700Y9700300D02*
X-249700Y10573200D01*
X-580000Y9370000D02*
X-249700Y9700300D01*
X-580000Y8070000D02*
X-580000Y9370000D01*
X-800000Y7850000D02*
X-580000Y8070000D01*
X650000Y7950000D02*
X850000Y8150000D01*
X850000Y9600000D02*
X750300Y9699700D01*
X850000Y8150000D02*
X850000Y9600000D01*
X750300Y9699700D02*
X750300Y10573200D01*
D29*
X-3342156Y-2767844D02*
X-3267844Y-2767844D01*
X-3850000Y-2260000D02*
X-3342156Y-2767844D01*
X-3267844Y-2767844D02*
X-3250000Y-2750000D01*
D28*
%TO.N,Net-(J1-PadA5)*%
X1250300Y9849700D02*
X1640000Y9460000D01*
X1250300Y10573200D02*
X1250300Y9849700D01*
%TO.N,Net-(J1-PadB5)*%
X-1749700Y9569700D02*
X-1640000Y9460000D01*
X-1749700Y10573200D02*
X-1749700Y9569700D01*
D26*
%TO.N,Net-(L2-Pad2)*%
X-5870000Y-6345000D02*
X-5870000Y-6875000D01*
X-5350000Y-5825000D02*
X-5870000Y-6345000D01*
%TO.N,Net-(L3-Pad2)*%
X-4475000Y-4450000D02*
X-4710000Y-4215000D01*
D24*
X2480000Y-2500000D02*
X2290000Y-2690000D01*
X2750000Y-2500000D02*
X2480000Y-2500000D01*
D26*
X-5315000Y-4215000D02*
X-5350000Y-4250000D01*
X-4710000Y-4215000D02*
X-5315000Y-4215000D01*
D25*
%TO.N,3V3_OUT*%
X6800000Y6450000D02*
X7620000Y5630000D01*
X4675000Y6450000D02*
X6800000Y6450000D01*
X7620000Y5630000D02*
X7620000Y5070000D01*
X4425000Y8725000D02*
X3750000Y9400000D01*
X4675000Y8725000D02*
X4425000Y8725000D01*
D26*
%TO.N,POWER_CTRL*%
X-3330000Y-3670000D02*
X-3250000Y-3750000D01*
X-3890000Y-3670000D02*
X-3330000Y-3670000D01*
X-4260000Y-3420000D02*
X-4140000Y-3420000D01*
X-4140000Y-3420000D02*
X-3890000Y-3670000D01*
X2360000Y6490000D02*
X2800000Y6930000D01*
X2800000Y6930000D02*
X2800000Y7400000D01*
X6075000Y2900000D02*
X6075000Y3475000D01*
X5825000Y2650000D02*
X6075000Y2900000D01*
%TO.N,Net-(R11-Pad2)*%
X6000000Y7900000D02*
X6000000Y7225000D01*
X6150000Y8050000D02*
X6000000Y7900000D01*
X1830000Y7680000D02*
X1640000Y7680000D01*
X2325000Y8175000D02*
X1830000Y7680000D01*
X3325000Y8175000D02*
X2325000Y8175000D01*
X3825000Y7675000D02*
X3325000Y8175000D01*
X3825000Y6575000D02*
X3825000Y7675000D01*
X4475000Y5925000D02*
X3825000Y6575000D01*
X5850000Y5925000D02*
X4475000Y5925000D01*
D24*
%TO.N,Net-(R7-Pad2)*%
X3050000Y2950000D02*
X2700000Y3300000D01*
X3650000Y2950000D02*
X3050000Y2950000D01*
D26*
%TO.N,CHARGE_CTRL*%
X1250000Y-1370000D02*
X1120000Y-1240000D01*
X1250000Y-1750000D02*
X1250000Y-1370000D01*
X3490000Y550000D02*
X3650000Y710000D01*
X3650000Y710000D02*
X3650000Y1930000D01*
%TO.N,Net-(R8-Pad1)*%
X3060000Y5500000D02*
X3700000Y4860000D01*
X2700000Y5500000D02*
X3060000Y5500000D01*
%TO.N,SWD*%
X-3060000Y-8250000D02*
X-2750000Y-8250000D01*
X-3320000Y-8510000D02*
X-3060000Y-8250000D01*
%TO.N,SWC*%
X-2250000Y-8250000D02*
X-2250000Y-8630000D01*
X-2250000Y-8630000D02*
X-2260000Y-8640000D01*
%TO.N,RESET*%
X-2750000Y-5000000D02*
X-2750000Y-4500000D01*
X-2750000Y-4500000D02*
X-2750000Y-4000000D01*
X-2750000Y-3830000D02*
X-2460000Y-3540000D01*
X-2750000Y-4000000D02*
X-2750000Y-3830000D01*
D25*
%TO.N,Net-(C22-Pad2)*%
X5150000Y-15760000D02*
X3090000Y-15760000D01*
D27*
X5150000Y-11000000D02*
X5150000Y-11340000D01*
D25*
X5150000Y-15760000D02*
X5150000Y-11340000D01*
X-5150000Y-15760000D02*
X-5150000Y-12820000D01*
X-3090000Y-15760000D02*
X-5150000Y-15760000D01*
X-3090000Y-12820000D02*
X-3090000Y-15760000D01*
X-1030000Y-12820000D02*
X-3090000Y-12820000D01*
X-1030000Y-15760000D02*
X-1030000Y-12820000D01*
X1030000Y-15760000D02*
X-1030000Y-15760000D01*
X1030000Y-12820000D02*
X1030000Y-15760000D01*
X3090000Y-12820000D02*
X1030000Y-12820000D01*
X3090000Y-15760000D02*
X3090000Y-12820000D01*
D27*
X5131059Y-10165357D02*
X5141444Y-10211604D01*
X5141444Y-10211604D02*
X5149547Y-10258304D01*
X5149547Y-10258304D02*
X5155349Y-10305346D01*
X5160000Y-9710000D02*
X5160000Y-10150000D01*
X5160000Y-9710000D02*
X5158982Y-9668538D01*
X5158982Y-9668538D02*
X5155931Y-9627177D01*
X5155931Y-9627177D02*
X5150854Y-9586016D01*
X5150854Y-9586016D02*
X5143764Y-9545153D01*
X5143764Y-9545153D02*
X5134677Y-9504687D01*
X5134677Y-9504687D02*
X5123615Y-9464716D01*
X5123615Y-9464716D02*
X5110606Y-9425336D01*
X5110606Y-9425336D02*
X5095680Y-9386641D01*
X5095680Y-9386641D02*
X5078873Y-9348726D01*
X5078873Y-9348726D02*
X5060226Y-9311681D01*
X5060226Y-9311681D02*
X5039784Y-9275595D01*
X5039784Y-9275595D02*
X5017595Y-9240556D01*
X5017595Y-9240556D02*
X4993715Y-9206648D01*
X4993715Y-9206648D02*
X4968199Y-9173952D01*
X4968199Y-9173952D02*
X4941109Y-9142548D01*
X4941109Y-9142548D02*
X4912512Y-9112512D01*
X4300000Y-8850000D02*
X4341460Y-8851017D01*
X4341460Y-8851017D02*
X4382821Y-8854068D01*
X4382821Y-8854068D02*
X4423983Y-8859145D01*
X4423983Y-8859145D02*
X4464846Y-8866235D01*
X4464846Y-8866235D02*
X4505311Y-8875322D01*
X4505311Y-8875322D02*
X4545283Y-8886384D01*
X4545283Y-8886384D02*
X4584663Y-8899393D01*
X4584663Y-8899393D02*
X4623357Y-8914319D01*
X4623357Y-8914319D02*
X4661272Y-8931126D01*
X4661272Y-8931126D02*
X4698317Y-8949773D01*
X4698317Y-8949773D02*
X4734403Y-8970215D01*
X4734403Y-8970215D02*
X4769442Y-8992403D01*
X4769442Y-8992403D02*
X4803350Y-9016284D01*
X4803350Y-9016284D02*
X4836045Y-9041800D01*
X4836045Y-9041800D02*
X4867449Y-9068889D01*
X4867449Y-9068889D02*
X4897487Y-9097487D01*
X4897487Y-9097487D02*
X4912512Y-9112512D01*
X3237157Y-9132842D02*
X3271484Y-9100158D01*
X3271484Y-9100158D02*
X3307375Y-9069199D01*
X3307375Y-9069199D02*
X3344741Y-9040038D01*
X3344741Y-9040038D02*
X3383493Y-9012746D01*
X3383493Y-9012746D02*
X3423538Y-8987388D01*
X3423538Y-8987388D02*
X3464778Y-8964026D01*
X3464778Y-8964026D02*
X3507116Y-8942715D01*
X3507116Y-8942715D02*
X3550448Y-8923507D01*
X3550448Y-8923507D02*
X3594670Y-8906449D01*
X3594670Y-8906449D02*
X3639676Y-8891581D01*
X3639676Y-8891581D02*
X3685357Y-8878939D01*
X3685357Y-8878939D02*
X3731604Y-8868554D01*
X3731604Y-8868554D02*
X3778304Y-8860451D01*
X3778304Y-8860451D02*
X3825346Y-8854649D01*
X3825346Y-8854649D02*
X3872616Y-8851162D01*
X3872616Y-8851162D02*
X3920000Y-8850000D01*
X3920000Y-8850000D02*
X4300000Y-8850000D01*
X1150000Y-10820000D02*
X800000Y-10820000D01*
X1150000Y-10820000D02*
X1197383Y-10818836D01*
X1197383Y-10818836D02*
X1244653Y-10815349D01*
X1244653Y-10815349D02*
X1291695Y-10809547D01*
X1291695Y-10809547D02*
X1338395Y-10801444D01*
X1338395Y-10801444D02*
X1384642Y-10791059D01*
X1384642Y-10791059D02*
X1430323Y-10778417D01*
X1430323Y-10778417D02*
X1475329Y-10763549D01*
X1475329Y-10763549D02*
X1519551Y-10746491D01*
X1519551Y-10746491D02*
X1562883Y-10727283D01*
X1562883Y-10727283D02*
X1605220Y-10705972D01*
X1605220Y-10705972D02*
X1646460Y-10682610D01*
X1646460Y-10682610D02*
X1686505Y-10657252D01*
X1686505Y-10657252D02*
X1725257Y-10629959D01*
X1725257Y-10629959D02*
X1762623Y-10600798D01*
X1762623Y-10600798D02*
X1798513Y-10569839D01*
X1798513Y-10569839D02*
X1832842Y-10537157D01*
X1832842Y-10537157D02*
X3237157Y-9132842D01*
X5150000Y-10150000D02*
X5150000Y-11000000D01*
D24*
%TO.N,GND*%
X1500000Y-3500000D02*
X1212500Y-3787500D01*
X2750000Y-3500000D02*
X1500000Y-3500000D01*
D30*
X3224990Y10700000D02*
X3200000Y10724990D01*
D25*
X4176800Y10573200D02*
X4575000Y10175000D01*
X3200300Y10573200D02*
X4176800Y10573200D01*
X-4176800Y10573200D02*
X-4575000Y10175000D01*
X-3199700Y10573200D02*
X-4176800Y10573200D01*
D24*
X-1750000Y5500000D02*
X-1750000Y3950000D01*
D28*
X-1750000Y6550000D02*
X-1640000Y6660000D01*
X-1750000Y5500000D02*
X-1750000Y6550000D01*
X-1830000Y8440000D02*
X-2220000Y8830000D01*
X-1640000Y8440000D02*
X-1830000Y8440000D01*
D25*
X2650000Y2290000D02*
X2660000Y2300000D01*
X2650000Y1400000D02*
X2650000Y2290000D01*
X-1780000Y390000D02*
X-1770000Y400000D01*
X-1780000Y-710000D02*
X-1780000Y390000D01*
X60000Y-10740000D02*
X70000Y-10750000D01*
X-700000Y-10740000D02*
X60000Y-10740000D01*
X-1580000Y590000D02*
X-710000Y590000D01*
X-1770000Y400000D02*
X-1580000Y590000D01*
X-5460000Y-470000D02*
X-5750000Y-180000D01*
X-5460000Y-1130000D02*
X-5460000Y-470000D01*
X210000Y590000D02*
X230000Y610000D01*
X-710000Y590000D02*
X210000Y590000D01*
D26*
X690000Y370000D02*
X210000Y-110000D01*
X1010000Y370000D02*
X690000Y370000D01*
D24*
X5000000Y-2640000D02*
X5690000Y-2640000D01*
D26*
X4850000Y-7030000D02*
X5020000Y-7200000D01*
X4850000Y-6125000D02*
X4850000Y-7030000D01*
X5980000Y-4695000D02*
X5980000Y-3650000D01*
X5950000Y-4725000D02*
X5980000Y-4695000D01*
X5980000Y-2930000D02*
X5690000Y-2640000D01*
X5980000Y-3650000D02*
X5980000Y-2930000D01*
D27*
X3510000Y-11000000D02*
X3500000Y-10990000D01*
X4190000Y-11000000D02*
X3510000Y-11000000D01*
D26*
X3500000Y-1225000D02*
X3500000Y-1000000D01*
X3825000Y-1550000D02*
X3500000Y-1225000D01*
D27*
X4190000Y-10150000D02*
X3500000Y-10150000D01*
D26*
X6840000Y-9190000D02*
X6970000Y-9060000D01*
X6340000Y-9190000D02*
X6840000Y-9190000D01*
D24*
X70000Y-10250000D02*
X70000Y-10750000D01*
X-300000Y-9880000D02*
X70000Y-10250000D01*
D26*
X5210000Y-5430000D02*
X4850000Y-5790000D01*
X4850000Y-5790000D02*
X4850000Y-6125000D01*
X6410000Y-5430000D02*
X5210000Y-5430000D01*
X7020000Y-6040000D02*
X6410000Y-5430000D01*
X7020000Y-6410000D02*
X7020000Y-6040000D01*
D25*
X-5000000Y-10975000D02*
X-4185000Y-10975000D01*
D26*
X-4400000Y-9625000D02*
X-4185000Y-9840000D01*
X-3715000Y-10335000D02*
X-3700000Y-10350000D01*
X-4185000Y-10335000D02*
X-3715000Y-10335000D01*
X-4185000Y-9840000D02*
X-4185000Y-10335000D01*
X-4185000Y-10335000D02*
X-4185000Y-10975000D01*
X6300000Y1550000D02*
X5525000Y1550000D01*
D24*
X-5320000Y6970000D02*
X-5320000Y6220000D01*
X-5525000Y7175000D02*
X-5320000Y6970000D01*
D25*
X1750000Y4750000D02*
X1750000Y5500000D01*
X1675000Y4675000D02*
X1750000Y4750000D01*
D28*
X2065000Y8440000D02*
X1640000Y8440000D01*
X2575000Y8950000D02*
X2065000Y8440000D01*
D26*
X-3660000Y4860000D02*
X-3150000Y4350000D01*
X-3700000Y4860000D02*
X-3660000Y4860000D01*
X6075000Y4900000D02*
X5475000Y4300000D01*
X6075000Y5125000D02*
X6075000Y4900000D01*
X6190000Y-1710000D02*
X6725000Y-1175000D01*
X5525000Y-1710000D02*
X6190000Y-1710000D01*
%TO.N,P0.09*%
X250000Y-7980000D02*
X60000Y-7790000D01*
X250000Y-8250000D02*
X250000Y-7980000D01*
%TO.N,P0.10*%
X750000Y-8080000D02*
X750000Y-8250000D01*
X570000Y-7900000D02*
X750000Y-8080000D01*
X570000Y-7420000D02*
X570000Y-7900000D01*
X590000Y-7400000D02*
X570000Y-7420000D01*
%TO.N,P1.11*%
X2640000Y-6500000D02*
X2400000Y-6740000D01*
X2750000Y-6500000D02*
X2640000Y-6500000D01*
%TO.N,P1.13*%
X3425000Y-5750000D02*
X3250000Y-5750000D01*
X3800000Y-6125000D02*
X3425000Y-5750000D01*
%TO.N,P1.15*%
X3600000Y-5250000D02*
X3250000Y-5250000D01*
X3800000Y-5050000D02*
X3600000Y-5250000D01*
%TO.N,P0.02*%
X3400000Y-4750000D02*
X3250000Y-4750000D01*
X3925000Y-4225000D02*
X3400000Y-4750000D01*
%TO.N,P0.29*%
X3875000Y-3625000D02*
X3250000Y-4250000D01*
X4200000Y-3625000D02*
X3875000Y-3625000D01*
%TO.N,P0.31*%
X3550000Y-3450000D02*
X3250000Y-3750000D01*
X3550000Y-3225000D02*
X3550000Y-3450000D01*
%TO.N,P1.04*%
X-1250000Y-8750000D02*
X-1250000Y-8250000D01*
X-1320000Y-8820000D02*
X-1250000Y-8750000D01*
%TO.N,P1.06*%
X-750000Y-8470000D02*
X-750000Y-8250000D01*
X-860000Y-8580000D02*
X-750000Y-8470000D01*
X-860000Y-9400000D02*
X-860000Y-8580000D01*
%TO.N,P0.11*%
X-1190000Y-2250000D02*
X-1470000Y-2530000D01*
X-1000000Y-2250000D02*
X-1190000Y-2250000D01*
X-7620000Y-9570000D02*
X-7620000Y-10170000D01*
X-6450000Y-8400000D02*
X-7620000Y-9570000D01*
X-6450000Y-2230000D02*
X-6450000Y-8400000D01*
X-6010000Y-1790000D02*
X-6450000Y-2230000D01*
X-5120000Y-1790000D02*
X-6010000Y-1790000D01*
%TO.N,P1.00*%
X-3575000Y-7250000D02*
X-3250000Y-7250000D01*
X-3925000Y-7600000D02*
X-3575000Y-7250000D01*
%TO.N,P0.24*%
X-3450000Y-6950000D02*
X-3250000Y-6750000D01*
X-4160000Y-6950000D02*
X-3450000Y-6950000D01*
%TO.N,P0.22*%
X-3650000Y-6250000D02*
X-3250000Y-6250000D01*
X-3790000Y-6390000D02*
X-3650000Y-6250000D01*
%TO.N,P0.20*%
X-3400000Y-5900000D02*
X-3250000Y-5750000D01*
X-4310000Y-5900000D02*
X-3400000Y-5900000D01*
%TO.N,P0.17*%
X-6940000Y2530000D02*
X-7620000Y2530000D01*
X-6540000Y-850000D02*
X-6540000Y2130000D01*
X-6630000Y-940000D02*
X-6540000Y-850000D01*
X-6540000Y2130000D02*
X-6940000Y2530000D01*
X-3290000Y-4790000D02*
X-3250000Y-4750000D01*
X-4110000Y-4790000D02*
X-3290000Y-4790000D01*
X-4470000Y-5150000D02*
X-4110000Y-4790000D01*
%TO.N,P0.06*%
X250000Y-1750000D02*
X250000Y-1510000D01*
X250000Y-1510000D02*
X-160000Y-1100000D01*
X-390000Y2270000D02*
X-360000Y2240000D01*
X-1200000Y2270000D02*
X-390000Y2270000D01*
X-1400000Y2070000D02*
X-1200000Y2270000D01*
X-5180000Y2070000D02*
X-1400000Y2070000D01*
X-5340000Y2230000D02*
X-5180000Y2070000D01*
%TO.N,P0.08*%
X-860000Y-1140000D02*
X-1080000Y-1140000D01*
X-250000Y-1750000D02*
X-860000Y-1140000D01*
X-3920000Y1770000D02*
X-1020000Y1770000D01*
X-5160000Y610000D02*
X-5080000Y610000D01*
X-5080000Y610000D02*
X-3920000Y1770000D01*
%TD*%
%TO.N,GND*%
X4969869Y16377936D02*
X4902547Y16251987D01*
X4861091Y16115324D01*
X4850600Y16008806D01*
X4850601Y14737593D01*
X4861092Y14631075D01*
X4902548Y14494412D01*
X4969870Y14368463D01*
X5060469Y14258068D01*
X5170864Y14167469D01*
X5296813Y14100147D01*
X5433476Y14058691D01*
X5575600Y14044693D01*
X5717725Y14058691D01*
X5854388Y14100147D01*
X5980337Y14167469D01*
X6090732Y14258068D01*
X6181331Y14368463D01*
X6248653Y14494412D01*
X6290109Y14631075D01*
X6300600Y14737593D01*
X6300600Y16008807D01*
X6290109Y16115325D01*
X6248653Y16251988D01*
X6181331Y16377937D01*
X6163224Y16400000D01*
X7607771Y16400000D01*
X7843137Y16376922D01*
X8057775Y16312119D01*
X8255739Y16206860D01*
X8429485Y16065156D01*
X8572399Y15892402D01*
X8679036Y15695181D01*
X8745338Y15480994D01*
X8770000Y15246352D01*
X8770001Y1987725D01*
X8770086Y1986863D01*
X8770102Y1984563D01*
X8771289Y1973274D01*
X8771289Y1961923D01*
X8771654Y1958451D01*
X8792973Y1768381D01*
X8797683Y1746222D01*
X8802085Y1723990D01*
X8803117Y1720655D01*
X8860949Y1538345D01*
X8869880Y1517506D01*
X8878510Y1496569D01*
X8880166Y1493507D01*
X8880170Y1493498D01*
X8880175Y1493491D01*
X8925000Y1411954D01*
X8925000Y1096751D01*
X8881044Y1052795D01*
X8829061Y974997D01*
X8793254Y888552D01*
X8775000Y796783D01*
X8775000Y703217D01*
X8793254Y611448D01*
X8829061Y525003D01*
X8881044Y447205D01*
X8925000Y403249D01*
X8925000Y346751D01*
X8881044Y302795D01*
X8829061Y224997D01*
X8793254Y138552D01*
X8775000Y46783D01*
X8775000Y-46783D01*
X8793254Y-138552D01*
X8829061Y-224997D01*
X8881044Y-302795D01*
X8925000Y-346751D01*
X8925000Y-403249D01*
X8881044Y-447205D01*
X8829061Y-525003D01*
X8793254Y-611448D01*
X8775000Y-703217D01*
X8775000Y-796783D01*
X8793254Y-888552D01*
X8829061Y-974997D01*
X8881044Y-1052795D01*
X8925000Y-1096751D01*
X8925000Y-1411776D01*
X8873208Y-1509184D01*
X8864590Y-1530094D01*
X8855647Y-1550958D01*
X8854615Y-1554293D01*
X8799334Y-1737392D01*
X8794935Y-1759610D01*
X8790222Y-1781782D01*
X8789857Y-1785254D01*
X8771193Y-1975604D01*
X8771193Y-1975614D01*
X8770000Y-1987726D01*
X8770001Y-11325000D01*
X5620255Y-11325000D01*
X5628221Y-11310096D01*
X5649054Y-11241420D01*
X5656088Y-11170000D01*
X5656088Y-10830000D01*
X5649054Y-10758580D01*
X5628221Y-10689904D01*
X5594391Y-10626612D01*
X5552033Y-10575000D01*
X5594391Y-10523388D01*
X5628221Y-10460096D01*
X5649054Y-10391420D01*
X5656088Y-10320000D01*
X5656088Y-9980000D01*
X5649054Y-9908580D01*
X5628221Y-9839904D01*
X5594391Y-9776612D01*
X5548863Y-9721137D01*
X5531689Y-9707043D01*
X5531650Y-9705448D01*
X5531650Y-9691745D01*
X5531202Y-9687192D01*
X5530743Y-9668527D01*
X5530967Y-9659402D01*
X5530295Y-9650293D01*
X5530071Y-9641167D01*
X5528954Y-9632113D01*
X5527244Y-9608927D01*
X5527020Y-9599798D01*
X5525903Y-9590743D01*
X5525231Y-9581631D01*
X5523668Y-9572626D01*
X5520824Y-9549572D01*
X5520153Y-9540469D01*
X5518591Y-9531468D01*
X5517473Y-9522402D01*
X5515474Y-9513498D01*
X5511501Y-9490604D01*
X5510383Y-9481536D01*
X5508383Y-9472629D01*
X5507927Y-9470000D01*
X5753669Y-9470000D01*
X5758979Y-9523910D01*
X5774703Y-9575747D01*
X5800239Y-9623521D01*
X5834604Y-9665396D01*
X5876479Y-9699761D01*
X5924253Y-9725297D01*
X5976090Y-9741021D01*
X6030000Y-9746331D01*
X6092250Y-9745000D01*
X6161000Y-9676250D01*
X6161000Y-9369000D01*
X6519000Y-9369000D01*
X6519000Y-9676250D01*
X6587750Y-9745000D01*
X6650000Y-9746331D01*
X6703910Y-9741021D01*
X6733026Y-9732189D01*
X6670930Y-9882103D01*
X6633000Y-10072789D01*
X6633000Y-10267211D01*
X6670930Y-10457897D01*
X6745332Y-10637520D01*
X6853347Y-10799176D01*
X6990824Y-10936653D01*
X7152480Y-11044668D01*
X7332103Y-11119070D01*
X7522789Y-11157000D01*
X7717211Y-11157000D01*
X7907897Y-11119070D01*
X8087520Y-11044668D01*
X8249176Y-10936653D01*
X8386653Y-10799176D01*
X8494668Y-10637520D01*
X8569070Y-10457897D01*
X8607000Y-10267211D01*
X8607000Y-10072789D01*
X8569070Y-9882103D01*
X8494668Y-9702480D01*
X8386653Y-9540824D01*
X8249176Y-9403347D01*
X8087520Y-9295332D01*
X7907897Y-9220930D01*
X7717211Y-9183000D01*
X7522789Y-9183000D01*
X7332103Y-9220930D01*
X7152480Y-9295332D01*
X6990824Y-9403347D01*
X6926245Y-9467926D01*
X6925000Y-9437750D01*
X6856250Y-9369000D01*
X6519000Y-9369000D01*
X6161000Y-9369000D01*
X5823750Y-9369000D01*
X5755000Y-9437750D01*
X5753669Y-9470000D01*
X5507927Y-9470000D01*
X5506822Y-9463633D01*
X5504385Y-9454826D01*
X5499296Y-9432165D01*
X5497732Y-9423152D01*
X5495292Y-9414337D01*
X5493296Y-9405447D01*
X5490437Y-9396791D01*
X5484233Y-9374376D01*
X5482234Y-9365473D01*
X5479368Y-9356798D01*
X5476932Y-9347995D01*
X5473648Y-9339483D01*
X5466356Y-9317408D01*
X5463923Y-9308616D01*
X5460641Y-9300107D01*
X5457773Y-9291426D01*
X5454069Y-9283069D01*
X5445709Y-9261397D01*
X5442842Y-9252719D01*
X5439139Y-9244366D01*
X5435857Y-9235857D01*
X5431753Y-9227703D01*
X5422329Y-9206445D01*
X5419046Y-9197933D01*
X5414943Y-9189781D01*
X5411239Y-9181426D01*
X5406735Y-9173476D01*
X5396295Y-9152734D01*
X5392593Y-9144383D01*
X5388089Y-9136433D01*
X5383984Y-9128277D01*
X5379100Y-9120565D01*
X5367650Y-9100352D01*
X5363537Y-9092181D01*
X5358646Y-9084457D01*
X5354155Y-9076530D01*
X5348901Y-9069069D01*
X5336462Y-9049427D01*
X5331964Y-9041487D01*
X5326700Y-9034012D01*
X5321814Y-9026297D01*
X5316205Y-9019110D01*
X5302817Y-9000100D01*
X5297935Y-8992390D01*
X5292327Y-8985203D01*
X5287062Y-8977728D01*
X5281087Y-8970801D01*
X5266800Y-8952494D01*
X5261536Y-8945020D01*
X5255566Y-8938099D01*
X5249957Y-8930912D01*
X5243666Y-8924305D01*
X5228477Y-8906697D01*
X5222861Y-8899500D01*
X5216564Y-8892886D01*
X5210598Y-8885970D01*
X5203986Y-8879675D01*
X5191109Y-8866150D01*
X5188216Y-8862625D01*
X5178543Y-8852952D01*
X5169089Y-8843022D01*
X5167953Y-8842042D01*
X5166973Y-8840906D01*
X5157061Y-8831469D01*
X5147375Y-8821783D01*
X5143839Y-8818881D01*
X5130322Y-8806012D01*
X5124022Y-8799395D01*
X5117100Y-8793424D01*
X5110492Y-8787133D01*
X5103301Y-8781521D01*
X5085693Y-8766333D01*
X5079089Y-8760045D01*
X5071894Y-8754430D01*
X5064972Y-8748459D01*
X5057504Y-8743200D01*
X5039199Y-8728914D01*
X5032276Y-8722942D01*
X5024802Y-8717678D01*
X5017612Y-8712067D01*
X5009904Y-8707186D01*
X4990898Y-8693801D01*
X4983695Y-8688179D01*
X4975975Y-8683291D01*
X4968517Y-8678038D01*
X4960575Y-8673539D01*
X4940939Y-8661105D01*
X4933469Y-8655844D01*
X4925518Y-8651340D01*
X4917810Y-8646459D01*
X4909660Y-8642357D01*
X4889430Y-8630897D01*
X4881721Y-8626015D01*
X4873564Y-8621909D01*
X4865615Y-8617406D01*
X4857270Y-8613707D01*
X4836504Y-8603254D01*
X4828571Y-8598760D01*
X4820238Y-8595066D01*
X4812065Y-8590952D01*
X4803534Y-8587661D01*
X4782303Y-8578250D01*
X4774144Y-8574143D01*
X4765628Y-8570858D01*
X4757279Y-8567157D01*
X4748606Y-8564292D01*
X4726930Y-8555930D01*
X4718573Y-8552226D01*
X4709895Y-8549359D01*
X4701386Y-8546077D01*
X4692592Y-8543643D01*
X4670508Y-8536348D01*
X4662002Y-8533067D01*
X4653207Y-8530633D01*
X4644525Y-8527765D01*
X4635613Y-8525764D01*
X4613233Y-8519570D01*
X4604554Y-8516703D01*
X4595636Y-8514700D01*
X4586843Y-8512267D01*
X4577850Y-8510707D01*
X4555182Y-8505616D01*
X4546367Y-8503177D01*
X4537358Y-8501614D01*
X4528465Y-8499617D01*
X4519411Y-8498500D01*
X4496509Y-8494527D01*
X4487596Y-8492525D01*
X4478520Y-8491406D01*
X4469531Y-8489846D01*
X4460435Y-8489175D01*
X4437366Y-8486330D01*
X4428366Y-8484768D01*
X4419254Y-8484096D01*
X4410198Y-8482979D01*
X4401074Y-8482755D01*
X4377889Y-8481045D01*
X4368822Y-8479927D01*
X4359693Y-8479703D01*
X4350594Y-8479032D01*
X4341465Y-8479256D01*
X4322808Y-8478798D01*
X4318255Y-8478350D01*
X4304524Y-8478350D01*
X4290865Y-8478015D01*
X4286324Y-8478350D01*
X3933678Y-8478350D01*
X3929138Y-8478015D01*
X3915477Y-8478350D01*
X3901745Y-8478350D01*
X3897193Y-8478798D01*
X3872613Y-8479401D01*
X3863479Y-8479177D01*
X3854379Y-8479848D01*
X3845256Y-8480072D01*
X3836188Y-8481190D01*
X3807102Y-8483336D01*
X3797969Y-8483560D01*
X3788898Y-8484679D01*
X3779799Y-8485350D01*
X3770811Y-8486910D01*
X3741860Y-8490480D01*
X3732754Y-8491152D01*
X3723758Y-8492713D01*
X3714693Y-8493831D01*
X3705781Y-8495832D01*
X3677056Y-8500817D01*
X3667988Y-8501935D01*
X3659072Y-8503937D01*
X3650082Y-8505497D01*
X3641289Y-8507930D01*
X3612818Y-8514324D01*
X3603825Y-8515884D01*
X3595033Y-8518317D01*
X3586118Y-8520319D01*
X3577441Y-8523186D01*
X3549344Y-8530961D01*
X3540430Y-8532963D01*
X3531754Y-8535829D01*
X3522956Y-8538264D01*
X3514439Y-8541549D01*
X3486753Y-8550696D01*
X3477950Y-8553132D01*
X3469425Y-8556420D01*
X3460757Y-8559284D01*
X3452415Y-8562982D01*
X3425200Y-8573480D01*
X3416527Y-8576345D01*
X3408179Y-8580045D01*
X3399664Y-8583330D01*
X3391510Y-8587434D01*
X3364841Y-8599256D01*
X3356325Y-8602541D01*
X3348171Y-8606645D01*
X3339818Y-8610348D01*
X3331870Y-8614851D01*
X3305824Y-8627961D01*
X3297477Y-8631661D01*
X3289533Y-8636161D01*
X3281376Y-8640267D01*
X3273664Y-8645150D01*
X3248293Y-8659523D01*
X3240131Y-8663631D01*
X3232411Y-8668519D01*
X3224470Y-8673018D01*
X3217009Y-8678273D01*
X3192359Y-8693882D01*
X3184421Y-8698379D01*
X3176963Y-8703631D01*
X3169240Y-8708522D01*
X3162033Y-8714147D01*
X3138203Y-8730930D01*
X3130480Y-8735820D01*
X3123275Y-8741443D01*
X3115819Y-8746694D01*
X3108910Y-8752654D01*
X3085913Y-8770601D01*
X3078451Y-8775856D01*
X3071534Y-8781823D01*
X3064332Y-8787443D01*
X3057723Y-8793736D01*
X3035632Y-8812791D01*
X3028429Y-8818412D01*
X3021826Y-8824699D01*
X3014913Y-8830662D01*
X3008606Y-8837286D01*
X2990807Y-8854234D01*
X2987268Y-8857138D01*
X2977545Y-8866861D01*
X2967661Y-8876272D01*
X2964692Y-8879714D01*
X1573256Y-10271151D01*
X1548864Y-10294373D01*
X1526779Y-10313424D01*
X1503798Y-10331359D01*
X1479968Y-10348142D01*
X1455329Y-10363744D01*
X1429970Y-10378109D01*
X1403938Y-10391214D01*
X1377283Y-10403029D01*
X1350093Y-10413517D01*
X1322406Y-10422664D01*
X1294313Y-10430438D01*
X1265865Y-10436827D01*
X1260775Y-10437710D01*
X1236667Y-10408333D01*
X1180054Y-10361873D01*
X1129778Y-10335000D01*
X1180054Y-10308127D01*
X1236667Y-10261667D01*
X1283127Y-10205054D01*
X1317650Y-10140466D01*
X1338910Y-10070383D01*
X1346088Y-9997500D01*
X1346088Y-9702500D01*
X1338910Y-9629617D01*
X1317650Y-9559534D01*
X1283127Y-9494946D01*
X1236667Y-9438333D01*
X1201315Y-9409321D01*
X1214391Y-9393388D01*
X1248221Y-9330096D01*
X1250000Y-9324232D01*
X1251779Y-9330096D01*
X1285609Y-9393388D01*
X1331137Y-9448863D01*
X1386612Y-9494391D01*
X1449904Y-9528221D01*
X1518580Y-9549054D01*
X1590000Y-9556088D01*
X1870000Y-9556088D01*
X1941420Y-9549054D01*
X2010096Y-9528221D01*
X2073388Y-9494391D01*
X2128863Y-9448863D01*
X2174391Y-9393388D01*
X2208221Y-9330096D01*
X2229054Y-9261420D01*
X2236088Y-9190000D01*
X2236088Y-8850000D01*
X2229054Y-8778580D01*
X2212800Y-8725000D01*
X2216783Y-8725000D01*
X2308552Y-8706746D01*
X2394997Y-8670939D01*
X2472795Y-8618956D01*
X2538956Y-8552795D01*
X2549520Y-8536985D01*
X2584213Y-8560166D01*
X2647909Y-8586550D01*
X2715528Y-8600000D01*
X2784472Y-8600000D01*
X2852091Y-8586550D01*
X2915787Y-8560166D01*
X2973112Y-8521863D01*
X3021863Y-8473112D01*
X3060166Y-8415787D01*
X3074990Y-8380000D01*
X3555277Y-8380000D01*
X3570000Y-8381450D01*
X3584723Y-8380000D01*
X3584733Y-8380000D01*
X3628810Y-8375659D01*
X3685360Y-8358504D01*
X3737477Y-8330647D01*
X3783158Y-8293158D01*
X3792553Y-8281710D01*
X4034264Y-8040000D01*
X5102138Y-8040000D01*
X5093254Y-8061448D01*
X5075000Y-8153217D01*
X5075000Y-8246783D01*
X5093254Y-8338552D01*
X5129061Y-8424997D01*
X5181044Y-8502795D01*
X5247205Y-8568956D01*
X5325003Y-8620939D01*
X5411448Y-8656746D01*
X5503217Y-8675000D01*
X5596783Y-8675000D01*
X5688552Y-8656746D01*
X5774997Y-8620939D01*
X5852795Y-8568956D01*
X5859602Y-8562149D01*
X5865609Y-8573388D01*
X5911137Y-8628863D01*
X5937665Y-8650635D01*
X5924253Y-8654703D01*
X5876479Y-8680239D01*
X5834604Y-8714604D01*
X5800239Y-8756479D01*
X5774703Y-8804253D01*
X5758979Y-8856090D01*
X5753669Y-8910000D01*
X5755000Y-8942250D01*
X5823750Y-9011000D01*
X6161000Y-9011000D01*
X6161000Y-8991000D01*
X6519000Y-8991000D01*
X6519000Y-9011000D01*
X6856250Y-9011000D01*
X6925000Y-8942250D01*
X6926331Y-8910000D01*
X6921021Y-8856090D01*
X6905297Y-8804253D01*
X6879761Y-8756479D01*
X6845396Y-8714604D01*
X6803521Y-8680239D01*
X6755747Y-8654703D01*
X6742335Y-8650635D01*
X6768863Y-8628863D01*
X6814391Y-8573388D01*
X6848221Y-8510096D01*
X6869054Y-8441420D01*
X6876088Y-8370000D01*
X6876088Y-8281917D01*
X6990824Y-8396653D01*
X7152480Y-8504668D01*
X7332103Y-8579070D01*
X7522789Y-8617000D01*
X7717211Y-8617000D01*
X7907897Y-8579070D01*
X8087520Y-8504668D01*
X8249176Y-8396653D01*
X8386653Y-8259176D01*
X8494668Y-8097520D01*
X8569070Y-7917897D01*
X8607000Y-7727211D01*
X8607000Y-7532789D01*
X8569070Y-7342103D01*
X8494668Y-7162480D01*
X8386653Y-7000824D01*
X8249176Y-6863347D01*
X8087520Y-6755332D01*
X7907897Y-6680930D01*
X7717211Y-6643000D01*
X7522789Y-6643000D01*
X7332103Y-6680930D01*
X7152480Y-6755332D01*
X6990824Y-6863347D01*
X6853347Y-7000824D01*
X6800000Y-7080663D01*
X6800000Y-6254730D01*
X6801451Y-6240000D01*
X6800000Y-6225267D01*
X6795659Y-6181190D01*
X6778504Y-6124640D01*
X6750647Y-6072523D01*
X6713158Y-6026842D01*
X6701711Y-6017448D01*
X6695000Y-6010737D01*
X6695000Y-5436007D01*
X6745332Y-5557520D01*
X6853347Y-5719176D01*
X6990824Y-5856653D01*
X7152480Y-5964668D01*
X7332103Y-6039070D01*
X7522789Y-6077000D01*
X7717211Y-6077000D01*
X7907897Y-6039070D01*
X8087520Y-5964668D01*
X8249176Y-5856653D01*
X8386653Y-5719176D01*
X8494668Y-5557520D01*
X8569070Y-5377897D01*
X8607000Y-5187211D01*
X8607000Y-4992789D01*
X8569070Y-4802103D01*
X8494668Y-4622480D01*
X8386653Y-4460824D01*
X8249176Y-4323347D01*
X8087520Y-4215332D01*
X7907897Y-4140930D01*
X7717211Y-4103000D01*
X7522789Y-4103000D01*
X7332103Y-4140930D01*
X7152480Y-4215332D01*
X6990824Y-4323347D01*
X6853347Y-4460824D01*
X6745332Y-4622480D01*
X6695000Y-4743993D01*
X6695000Y-3325000D01*
X6750000Y-3325000D01*
X6764632Y-3323559D01*
X6778701Y-3319291D01*
X6791668Y-3312360D01*
X6803033Y-3303033D01*
X6812360Y-3291668D01*
X6819291Y-3278701D01*
X6823559Y-3264632D01*
X6825000Y-3250000D01*
X6825000Y-3136752D01*
X6853347Y-3179176D01*
X6990824Y-3316653D01*
X7152480Y-3424668D01*
X7332103Y-3499070D01*
X7522789Y-3537000D01*
X7717211Y-3537000D01*
X7907897Y-3499070D01*
X8087520Y-3424668D01*
X8249176Y-3316653D01*
X8386653Y-3179176D01*
X8494668Y-3017520D01*
X8569070Y-2837897D01*
X8607000Y-2647211D01*
X8607000Y-2452789D01*
X8569070Y-2262103D01*
X8494668Y-2082480D01*
X8386653Y-1920824D01*
X8249176Y-1783347D01*
X8087520Y-1675332D01*
X7907897Y-1600930D01*
X7717211Y-1563000D01*
X7522789Y-1563000D01*
X7332103Y-1600930D01*
X7152480Y-1675332D01*
X6990824Y-1783347D01*
X6853347Y-1920824D01*
X6825000Y-1963248D01*
X6825000Y-596752D01*
X6853347Y-639176D01*
X6990824Y-776653D01*
X7152480Y-884668D01*
X7332103Y-959070D01*
X7522789Y-997000D01*
X7717211Y-997000D01*
X7907897Y-959070D01*
X8087520Y-884668D01*
X8249176Y-776653D01*
X8386653Y-639176D01*
X8494668Y-477520D01*
X8569070Y-297897D01*
X8607000Y-107211D01*
X8607000Y87211D01*
X8569070Y277897D01*
X8494668Y457520D01*
X8386653Y619176D01*
X8249176Y756653D01*
X8087520Y864668D01*
X7907897Y939070D01*
X7717211Y977000D01*
X7522789Y977000D01*
X7332103Y939070D01*
X7152480Y864668D01*
X6990824Y756653D01*
X6853347Y619176D01*
X6825000Y576752D01*
X6825000Y1943248D01*
X6853347Y1900824D01*
X6990824Y1763347D01*
X7152480Y1655332D01*
X7332103Y1580930D01*
X7522789Y1543000D01*
X7717211Y1543000D01*
X7907897Y1580930D01*
X8087520Y1655332D01*
X8249176Y1763347D01*
X8386653Y1900824D01*
X8494668Y2062480D01*
X8569070Y2242103D01*
X8607000Y2432789D01*
X8607000Y2627211D01*
X8569070Y2817897D01*
X8494668Y2997520D01*
X8386653Y3159176D01*
X8249176Y3296653D01*
X8087520Y3404668D01*
X7907897Y3479070D01*
X7717211Y3517000D01*
X7522789Y3517000D01*
X7332103Y3479070D01*
X7152480Y3404668D01*
X6990824Y3296653D01*
X6853347Y3159176D01*
X6745332Y2997520D01*
X6670930Y2817897D01*
X6633000Y2627211D01*
X6633000Y2575000D01*
X6294387Y2575000D01*
X6300000Y2603217D01*
X6300000Y2696783D01*
X6299281Y2700396D01*
X6304281Y2706488D01*
X6325647Y2732522D01*
X6345679Y2770000D01*
X6353504Y2784640D01*
X6370659Y2841190D01*
X6371629Y2851042D01*
X6433126Y2857099D01*
X6513057Y2881346D01*
X6586722Y2920721D01*
X6651290Y2973710D01*
X6704279Y3038278D01*
X6743654Y3111943D01*
X6767901Y3191874D01*
X6776088Y3275000D01*
X6776088Y3675000D01*
X6767901Y3758126D01*
X6743654Y3838057D01*
X6704279Y3911722D01*
X6651290Y3976290D01*
X6586722Y4029279D01*
X6513057Y4068654D01*
X6433126Y4092901D01*
X6350000Y4101088D01*
X5800000Y4101088D01*
X5716874Y4092901D01*
X5636943Y4068654D01*
X5563278Y4029279D01*
X5498710Y3976290D01*
X5455430Y3923553D01*
X5426119Y3978389D01*
X5370798Y4045798D01*
X5303389Y4101119D01*
X5226482Y4142227D01*
X5143034Y4167541D01*
X5056250Y4176088D01*
X4543750Y4176088D01*
X4456966Y4167541D01*
X4373518Y4142227D01*
X4296611Y4101119D01*
X4237081Y4052264D01*
X4218602Y4113182D01*
X4185234Y4175610D01*
X4140328Y4230328D01*
X4085610Y4275234D01*
X4023182Y4308602D01*
X3955445Y4329150D01*
X3885000Y4336088D01*
X3625000Y4336088D01*
X3625000Y4363912D01*
X3885000Y4363912D01*
X3955445Y4370850D01*
X4023182Y4391398D01*
X4085610Y4424766D01*
X4140328Y4469672D01*
X4185234Y4524390D01*
X4212225Y4574888D01*
X4229202Y4554202D01*
X4296611Y4498881D01*
X4373518Y4457773D01*
X4456966Y4432459D01*
X4543750Y4423912D01*
X5056250Y4423912D01*
X5143034Y4432459D01*
X5226482Y4457773D01*
X5303389Y4498881D01*
X5370798Y4554202D01*
X5377608Y4562500D01*
X5404604Y4529604D01*
X5446479Y4495239D01*
X5494253Y4469703D01*
X5546090Y4453979D01*
X5600000Y4448669D01*
X5827250Y4450000D01*
X5896000Y4518750D01*
X5896000Y4946000D01*
X5876000Y4946000D01*
X5876000Y5304000D01*
X5896000Y5304000D01*
X5896000Y5324000D01*
X6254000Y5324000D01*
X6254000Y5304000D01*
X6274000Y5304000D01*
X6274000Y4946000D01*
X6254000Y4946000D01*
X6254000Y4518750D01*
X6322750Y4450000D01*
X6550000Y4448669D01*
X6603910Y4453979D01*
X6655747Y4469703D01*
X6703521Y4495239D01*
X6745396Y4529604D01*
X6772201Y4562267D01*
X6853347Y4440824D01*
X6990824Y4303347D01*
X7152480Y4195332D01*
X7332103Y4120930D01*
X7522789Y4083000D01*
X7717211Y4083000D01*
X7907897Y4120930D01*
X8087520Y4195332D01*
X8249176Y4303347D01*
X8386653Y4440824D01*
X8494668Y4602480D01*
X8569070Y4782103D01*
X8607000Y4972789D01*
X8607000Y5167211D01*
X8569070Y5357897D01*
X8494668Y5537520D01*
X8386653Y5699176D01*
X8249176Y5836653D01*
X8087520Y5944668D01*
X7907897Y6019070D01*
X7724849Y6055481D01*
X7078195Y6702134D01*
X7066448Y6716448D01*
X7009347Y6763309D01*
X6944200Y6798131D01*
X6873513Y6819574D01*
X6818419Y6825000D01*
X6818416Y6825000D01*
X6800000Y6826814D01*
X6781584Y6825000D01*
X6648907Y6825000D01*
X6668654Y6861943D01*
X6692901Y6941874D01*
X6701088Y7025000D01*
X6701088Y7249295D01*
X6745332Y7142480D01*
X6853347Y6980824D01*
X6990824Y6843347D01*
X7152480Y6735332D01*
X7332103Y6660930D01*
X7522789Y6623000D01*
X7717211Y6623000D01*
X7907897Y6660930D01*
X8087520Y6735332D01*
X8249176Y6843347D01*
X8386653Y6980824D01*
X8494668Y7142480D01*
X8569070Y7322103D01*
X8607000Y7512789D01*
X8607000Y7707211D01*
X8569070Y7897897D01*
X8494668Y8077520D01*
X8386653Y8239176D01*
X8249176Y8376653D01*
X8087520Y8484668D01*
X7907897Y8559070D01*
X7717211Y8597000D01*
X7522789Y8597000D01*
X7332103Y8559070D01*
X7152480Y8484668D01*
X6990824Y8376653D01*
X6853347Y8239176D01*
X6745332Y8077520D01*
X6670930Y7897897D01*
X6633000Y7707211D01*
X6633000Y7654761D01*
X6629279Y7661722D01*
X6576290Y7726290D01*
X6530235Y7764086D01*
X6570939Y7825003D01*
X6606746Y7911448D01*
X6625000Y8003217D01*
X6625000Y8096783D01*
X6606746Y8188552D01*
X6570939Y8274997D01*
X6530235Y8335914D01*
X6576290Y8373710D01*
X6629279Y8438278D01*
X6668654Y8511943D01*
X6692901Y8591874D01*
X6701088Y8675000D01*
X6701088Y9075000D01*
X6692901Y9158126D01*
X6668654Y9238057D01*
X6629279Y9311722D01*
X6600358Y9346963D01*
X7070107Y9346963D01*
X7161436Y9214308D01*
X7352792Y9142825D01*
X7554417Y9110047D01*
X7758562Y9117235D01*
X7957382Y9164112D01*
X8078564Y9214308D01*
X8169893Y9346963D01*
X7620000Y9896856D01*
X7070107Y9346963D01*
X6600358Y9346963D01*
X6576290Y9376290D01*
X6511722Y9429279D01*
X6438057Y9468654D01*
X6364257Y9491041D01*
X6348131Y9544200D01*
X6313309Y9609347D01*
X6266448Y9666448D01*
X6252139Y9678191D01*
X6097878Y9832452D01*
X6081746Y9913552D01*
X6045939Y9999997D01*
X5993956Y10077795D01*
X5927795Y10143956D01*
X5849997Y10195939D01*
X5802573Y10215583D01*
X6580047Y10215583D01*
X6587235Y10011438D01*
X6634112Y9812618D01*
X6684308Y9691436D01*
X6816963Y9600107D01*
X7366856Y10150000D01*
X7873144Y10150000D01*
X8423037Y9600107D01*
X8555692Y9691436D01*
X8627175Y9882792D01*
X8659953Y10084417D01*
X8652765Y10288562D01*
X8605888Y10487382D01*
X8555692Y10608564D01*
X8423037Y10699893D01*
X7873144Y10150000D01*
X7366856Y10150000D01*
X6816963Y10699893D01*
X6684308Y10608564D01*
X6612825Y10417208D01*
X6580047Y10215583D01*
X5802573Y10215583D01*
X5763552Y10231746D01*
X5671783Y10250000D01*
X5578217Y10250000D01*
X5486448Y10231746D01*
X5400003Y10195939D01*
X5322205Y10143956D01*
X5256044Y10077795D01*
X5204061Y9999997D01*
X5168254Y9913552D01*
X5150000Y9821783D01*
X5150000Y9728217D01*
X5168254Y9636448D01*
X5204061Y9550003D01*
X5256044Y9472205D01*
X5322205Y9406044D01*
X5400003Y9354061D01*
X5404081Y9352372D01*
X5370721Y9311722D01*
X5331346Y9238057D01*
X5307099Y9158126D01*
X5298912Y9075000D01*
X5298912Y8675000D01*
X5307099Y8591874D01*
X5331346Y8511943D01*
X5370721Y8438278D01*
X5423710Y8373710D01*
X5488278Y8320721D01*
X5561943Y8281346D01*
X5641874Y8257099D01*
X5718520Y8249550D01*
X5693254Y8188552D01*
X5675000Y8096783D01*
X5675000Y8003217D01*
X5693254Y7911448D01*
X5698723Y7898245D01*
X5700000Y7885277D01*
X5700000Y7848626D01*
X5641874Y7842901D01*
X5561943Y7818654D01*
X5488278Y7779279D01*
X5423710Y7726290D01*
X5370721Y7661722D01*
X5331346Y7588057D01*
X5326088Y7570724D01*
X5326088Y7850000D01*
X5321744Y7894108D01*
X5308878Y7936520D01*
X5287985Y7975608D01*
X5259868Y8009868D01*
X5225608Y8037985D01*
X5186520Y8058878D01*
X5144108Y8071744D01*
X5100000Y8076088D01*
X4679242Y8076088D01*
X4452163Y8303166D01*
X4536448Y8268254D01*
X4628217Y8250000D01*
X4721783Y8250000D01*
X4813552Y8268254D01*
X4899997Y8304061D01*
X4977795Y8356044D01*
X5043956Y8422205D01*
X5095939Y8500003D01*
X5131746Y8586448D01*
X5150000Y8678217D01*
X5150000Y8771783D01*
X5131746Y8863552D01*
X5095939Y8949997D01*
X5043956Y9027795D01*
X4977795Y9093956D01*
X4899997Y9145939D01*
X4813552Y9181746D01*
X4721783Y9200000D01*
X4628217Y9200000D01*
X4536448Y9181746D01*
X4509674Y9170656D01*
X4376088Y9304242D01*
X4376088Y9850000D01*
X4371744Y9894108D01*
X4358878Y9936520D01*
X4337985Y9975608D01*
X4309868Y10009868D01*
X4275608Y10037985D01*
X4236520Y10058878D01*
X4194108Y10071744D01*
X4150000Y10076088D01*
X3728216Y10076088D01*
X3741321Y10119290D01*
X3746631Y10173200D01*
X3745300Y10325450D01*
X3676550Y10394200D01*
X3379300Y10394200D01*
X3379300Y10374200D01*
X3021300Y10374200D01*
X3021300Y10394200D01*
X3001300Y10394200D01*
X3001300Y10752200D01*
X3021300Y10752200D01*
X3021300Y10772200D01*
X3379300Y10772200D01*
X3379300Y10752200D01*
X3676550Y10752200D01*
X3745300Y10820950D01*
X3745991Y10900000D01*
X4587725Y10900000D01*
X4600000Y10898791D01*
X4612275Y10900000D01*
X4649008Y10903618D01*
X4696134Y10917913D01*
X4739564Y10941127D01*
X4777632Y10972368D01*
X4808873Y11010436D01*
X4832087Y11053866D01*
X4846382Y11100992D01*
X4850600Y11143817D01*
X4850600Y11037593D01*
X4861091Y10931075D01*
X4902548Y10794412D01*
X4969870Y10668463D01*
X5060469Y10558068D01*
X5170864Y10467469D01*
X5296813Y10400147D01*
X5433476Y10358691D01*
X5575600Y10344693D01*
X5717725Y10358691D01*
X5854388Y10400147D01*
X5980337Y10467469D01*
X6090732Y10558068D01*
X6181331Y10668463D01*
X6248653Y10794412D01*
X6290109Y10931075D01*
X6292272Y10953037D01*
X7070107Y10953037D01*
X7620000Y10403144D01*
X8169893Y10953037D01*
X8078564Y11085692D01*
X7887208Y11157175D01*
X7685583Y11189953D01*
X7481438Y11182765D01*
X7282618Y11135888D01*
X7161436Y11085692D01*
X7070107Y10953037D01*
X6292272Y10953037D01*
X6300600Y11037593D01*
X6300600Y11908807D01*
X6290109Y12015325D01*
X6248653Y12151988D01*
X6181331Y12277937D01*
X6090731Y12388332D01*
X5980336Y12478931D01*
X5854387Y12546253D01*
X5717724Y12587709D01*
X5575600Y12601707D01*
X5433475Y12587709D01*
X5296812Y12546253D01*
X5170863Y12478931D01*
X5060468Y12388331D01*
X4969869Y12277936D01*
X4902547Y12151987D01*
X4861091Y12015324D01*
X4850600Y11908806D01*
X4850600Y11156183D01*
X4850000Y11162275D01*
X4850000Y12787211D01*
X6633000Y12787211D01*
X6633000Y12592789D01*
X6670930Y12402103D01*
X6745332Y12222480D01*
X6853347Y12060824D01*
X6990824Y11923347D01*
X7152480Y11815332D01*
X7332103Y11740930D01*
X7522789Y11703000D01*
X7717211Y11703000D01*
X7907897Y11740930D01*
X8087520Y11815332D01*
X8249176Y11923347D01*
X8386653Y12060824D01*
X8494668Y12222480D01*
X8569070Y12402103D01*
X8607000Y12592789D01*
X8607000Y12787211D01*
X8569070Y12977897D01*
X8494668Y13157520D01*
X8386653Y13319176D01*
X8249176Y13456653D01*
X8087520Y13564668D01*
X7907897Y13639070D01*
X7717211Y13677000D01*
X7522789Y13677000D01*
X7332103Y13639070D01*
X7152480Y13564668D01*
X6990824Y13456653D01*
X6853347Y13319176D01*
X6745332Y13157520D01*
X6670930Y12977897D01*
X6633000Y12787211D01*
X4850000Y12787211D01*
X4850000Y16400000D01*
X4987976Y16400000D01*
X4969869Y16377936D01*
%TA.AperFunction,Conductor*%
D31*
G36*
X4969869Y16377936D02*
G01*
X4902547Y16251987D01*
X4861091Y16115324D01*
X4850600Y16008806D01*
X4850601Y14737593D01*
X4861092Y14631075D01*
X4902548Y14494412D01*
X4969870Y14368463D01*
X5060469Y14258068D01*
X5170864Y14167469D01*
X5296813Y14100147D01*
X5433476Y14058691D01*
X5575600Y14044693D01*
X5717725Y14058691D01*
X5854388Y14100147D01*
X5980337Y14167469D01*
X6090732Y14258068D01*
X6181331Y14368463D01*
X6248653Y14494412D01*
X6290109Y14631075D01*
X6300600Y14737593D01*
X6300600Y16008807D01*
X6290109Y16115325D01*
X6248653Y16251988D01*
X6181331Y16377937D01*
X6163224Y16400000D01*
X7607771Y16400000D01*
X7843137Y16376922D01*
X8057775Y16312119D01*
X8255739Y16206860D01*
X8429485Y16065156D01*
X8572399Y15892402D01*
X8679036Y15695181D01*
X8745338Y15480994D01*
X8770000Y15246352D01*
X8770001Y1987725D01*
X8770086Y1986863D01*
X8770102Y1984563D01*
X8771289Y1973274D01*
X8771289Y1961923D01*
X8771654Y1958451D01*
X8792973Y1768381D01*
X8797683Y1746222D01*
X8802085Y1723990D01*
X8803117Y1720655D01*
X8860949Y1538345D01*
X8869880Y1517506D01*
X8878510Y1496569D01*
X8880166Y1493507D01*
X8880170Y1493498D01*
X8880175Y1493491D01*
X8925000Y1411954D01*
X8925000Y1096751D01*
X8881044Y1052795D01*
X8829061Y974997D01*
X8793254Y888552D01*
X8775000Y796783D01*
X8775000Y703217D01*
X8793254Y611448D01*
X8829061Y525003D01*
X8881044Y447205D01*
X8925000Y403249D01*
X8925000Y346751D01*
X8881044Y302795D01*
X8829061Y224997D01*
X8793254Y138552D01*
X8775000Y46783D01*
X8775000Y-46783D01*
X8793254Y-138552D01*
X8829061Y-224997D01*
X8881044Y-302795D01*
X8925000Y-346751D01*
X8925000Y-403249D01*
X8881044Y-447205D01*
X8829061Y-525003D01*
X8793254Y-611448D01*
X8775000Y-703217D01*
X8775000Y-796783D01*
X8793254Y-888552D01*
X8829061Y-974997D01*
X8881044Y-1052795D01*
X8925000Y-1096751D01*
X8925000Y-1411776D01*
X8873208Y-1509184D01*
X8864590Y-1530094D01*
X8855647Y-1550958D01*
X8854615Y-1554293D01*
X8799334Y-1737392D01*
X8794935Y-1759610D01*
X8790222Y-1781782D01*
X8789857Y-1785254D01*
X8771193Y-1975604D01*
X8771193Y-1975614D01*
X8770000Y-1987726D01*
X8770001Y-11325000D01*
X5620255Y-11325000D01*
X5628221Y-11310096D01*
X5649054Y-11241420D01*
X5656088Y-11170000D01*
X5656088Y-10830000D01*
X5649054Y-10758580D01*
X5628221Y-10689904D01*
X5594391Y-10626612D01*
X5552033Y-10575000D01*
X5594391Y-10523388D01*
X5628221Y-10460096D01*
X5649054Y-10391420D01*
X5656088Y-10320000D01*
X5656088Y-9980000D01*
X5649054Y-9908580D01*
X5628221Y-9839904D01*
X5594391Y-9776612D01*
X5548863Y-9721137D01*
X5531689Y-9707043D01*
X5531650Y-9705448D01*
X5531650Y-9691745D01*
X5531202Y-9687192D01*
X5530743Y-9668527D01*
X5530967Y-9659402D01*
X5530295Y-9650293D01*
X5530071Y-9641167D01*
X5528954Y-9632113D01*
X5527244Y-9608927D01*
X5527020Y-9599798D01*
X5525903Y-9590743D01*
X5525231Y-9581631D01*
X5523668Y-9572626D01*
X5520824Y-9549572D01*
X5520153Y-9540469D01*
X5518591Y-9531468D01*
X5517473Y-9522402D01*
X5515474Y-9513498D01*
X5511501Y-9490604D01*
X5510383Y-9481536D01*
X5508383Y-9472629D01*
X5507927Y-9470000D01*
X5753669Y-9470000D01*
X5758979Y-9523910D01*
X5774703Y-9575747D01*
X5800239Y-9623521D01*
X5834604Y-9665396D01*
X5876479Y-9699761D01*
X5924253Y-9725297D01*
X5976090Y-9741021D01*
X6030000Y-9746331D01*
X6092250Y-9745000D01*
X6161000Y-9676250D01*
X6161000Y-9369000D01*
X6519000Y-9369000D01*
X6519000Y-9676250D01*
X6587750Y-9745000D01*
X6650000Y-9746331D01*
X6703910Y-9741021D01*
X6733026Y-9732189D01*
X6670930Y-9882103D01*
X6633000Y-10072789D01*
X6633000Y-10267211D01*
X6670930Y-10457897D01*
X6745332Y-10637520D01*
X6853347Y-10799176D01*
X6990824Y-10936653D01*
X7152480Y-11044668D01*
X7332103Y-11119070D01*
X7522789Y-11157000D01*
X7717211Y-11157000D01*
X7907897Y-11119070D01*
X8087520Y-11044668D01*
X8249176Y-10936653D01*
X8386653Y-10799176D01*
X8494668Y-10637520D01*
X8569070Y-10457897D01*
X8607000Y-10267211D01*
X8607000Y-10072789D01*
X8569070Y-9882103D01*
X8494668Y-9702480D01*
X8386653Y-9540824D01*
X8249176Y-9403347D01*
X8087520Y-9295332D01*
X7907897Y-9220930D01*
X7717211Y-9183000D01*
X7522789Y-9183000D01*
X7332103Y-9220930D01*
X7152480Y-9295332D01*
X6990824Y-9403347D01*
X6926245Y-9467926D01*
X6925000Y-9437750D01*
X6856250Y-9369000D01*
X6519000Y-9369000D01*
X6161000Y-9369000D01*
X5823750Y-9369000D01*
X5755000Y-9437750D01*
X5753669Y-9470000D01*
X5507927Y-9470000D01*
X5506822Y-9463633D01*
X5504385Y-9454826D01*
X5499296Y-9432165D01*
X5497732Y-9423152D01*
X5495292Y-9414337D01*
X5493296Y-9405447D01*
X5490437Y-9396791D01*
X5484233Y-9374376D01*
X5482234Y-9365473D01*
X5479368Y-9356798D01*
X5476932Y-9347995D01*
X5473648Y-9339483D01*
X5466356Y-9317408D01*
X5463923Y-9308616D01*
X5460641Y-9300107D01*
X5457773Y-9291426D01*
X5454069Y-9283069D01*
X5445709Y-9261397D01*
X5442842Y-9252719D01*
X5439139Y-9244366D01*
X5435857Y-9235857D01*
X5431753Y-9227703D01*
X5422329Y-9206445D01*
X5419046Y-9197933D01*
X5414943Y-9189781D01*
X5411239Y-9181426D01*
X5406735Y-9173476D01*
X5396295Y-9152734D01*
X5392593Y-9144383D01*
X5388089Y-9136433D01*
X5383984Y-9128277D01*
X5379100Y-9120565D01*
X5367650Y-9100352D01*
X5363537Y-9092181D01*
X5358646Y-9084457D01*
X5354155Y-9076530D01*
X5348901Y-9069069D01*
X5336462Y-9049427D01*
X5331964Y-9041487D01*
X5326700Y-9034012D01*
X5321814Y-9026297D01*
X5316205Y-9019110D01*
X5302817Y-9000100D01*
X5297935Y-8992390D01*
X5292327Y-8985203D01*
X5287062Y-8977728D01*
X5281087Y-8970801D01*
X5266800Y-8952494D01*
X5261536Y-8945020D01*
X5255566Y-8938099D01*
X5249957Y-8930912D01*
X5243666Y-8924305D01*
X5228477Y-8906697D01*
X5222861Y-8899500D01*
X5216564Y-8892886D01*
X5210598Y-8885970D01*
X5203986Y-8879675D01*
X5191109Y-8866150D01*
X5188216Y-8862625D01*
X5178543Y-8852952D01*
X5169089Y-8843022D01*
X5167953Y-8842042D01*
X5166973Y-8840906D01*
X5157061Y-8831469D01*
X5147375Y-8821783D01*
X5143839Y-8818881D01*
X5130322Y-8806012D01*
X5124022Y-8799395D01*
X5117100Y-8793424D01*
X5110492Y-8787133D01*
X5103301Y-8781521D01*
X5085693Y-8766333D01*
X5079089Y-8760045D01*
X5071894Y-8754430D01*
X5064972Y-8748459D01*
X5057504Y-8743200D01*
X5039199Y-8728914D01*
X5032276Y-8722942D01*
X5024802Y-8717678D01*
X5017612Y-8712067D01*
X5009904Y-8707186D01*
X4990898Y-8693801D01*
X4983695Y-8688179D01*
X4975975Y-8683291D01*
X4968517Y-8678038D01*
X4960575Y-8673539D01*
X4940939Y-8661105D01*
X4933469Y-8655844D01*
X4925518Y-8651340D01*
X4917810Y-8646459D01*
X4909660Y-8642357D01*
X4889430Y-8630897D01*
X4881721Y-8626015D01*
X4873564Y-8621909D01*
X4865615Y-8617406D01*
X4857270Y-8613707D01*
X4836504Y-8603254D01*
X4828571Y-8598760D01*
X4820238Y-8595066D01*
X4812065Y-8590952D01*
X4803534Y-8587661D01*
X4782303Y-8578250D01*
X4774144Y-8574143D01*
X4765628Y-8570858D01*
X4757279Y-8567157D01*
X4748606Y-8564292D01*
X4726930Y-8555930D01*
X4718573Y-8552226D01*
X4709895Y-8549359D01*
X4701386Y-8546077D01*
X4692592Y-8543643D01*
X4670508Y-8536348D01*
X4662002Y-8533067D01*
X4653207Y-8530633D01*
X4644525Y-8527765D01*
X4635613Y-8525764D01*
X4613233Y-8519570D01*
X4604554Y-8516703D01*
X4595636Y-8514700D01*
X4586843Y-8512267D01*
X4577850Y-8510707D01*
X4555182Y-8505616D01*
X4546367Y-8503177D01*
X4537358Y-8501614D01*
X4528465Y-8499617D01*
X4519411Y-8498500D01*
X4496509Y-8494527D01*
X4487596Y-8492525D01*
X4478520Y-8491406D01*
X4469531Y-8489846D01*
X4460435Y-8489175D01*
X4437366Y-8486330D01*
X4428366Y-8484768D01*
X4419254Y-8484096D01*
X4410198Y-8482979D01*
X4401074Y-8482755D01*
X4377889Y-8481045D01*
X4368822Y-8479927D01*
X4359693Y-8479703D01*
X4350594Y-8479032D01*
X4341465Y-8479256D01*
X4322808Y-8478798D01*
X4318255Y-8478350D01*
X4304524Y-8478350D01*
X4290865Y-8478015D01*
X4286324Y-8478350D01*
X3933678Y-8478350D01*
X3929138Y-8478015D01*
X3915477Y-8478350D01*
X3901745Y-8478350D01*
X3897193Y-8478798D01*
X3872613Y-8479401D01*
X3863479Y-8479177D01*
X3854379Y-8479848D01*
X3845256Y-8480072D01*
X3836188Y-8481190D01*
X3807102Y-8483336D01*
X3797969Y-8483560D01*
X3788898Y-8484679D01*
X3779799Y-8485350D01*
X3770811Y-8486910D01*
X3741860Y-8490480D01*
X3732754Y-8491152D01*
X3723758Y-8492713D01*
X3714693Y-8493831D01*
X3705781Y-8495832D01*
X3677056Y-8500817D01*
X3667988Y-8501935D01*
X3659072Y-8503937D01*
X3650082Y-8505497D01*
X3641289Y-8507930D01*
X3612818Y-8514324D01*
X3603825Y-8515884D01*
X3595033Y-8518317D01*
X3586118Y-8520319D01*
X3577441Y-8523186D01*
X3549344Y-8530961D01*
X3540430Y-8532963D01*
X3531754Y-8535829D01*
X3522956Y-8538264D01*
X3514439Y-8541549D01*
X3486753Y-8550696D01*
X3477950Y-8553132D01*
X3469425Y-8556420D01*
X3460757Y-8559284D01*
X3452415Y-8562982D01*
X3425200Y-8573480D01*
X3416527Y-8576345D01*
X3408179Y-8580045D01*
X3399664Y-8583330D01*
X3391510Y-8587434D01*
X3364841Y-8599256D01*
X3356325Y-8602541D01*
X3348171Y-8606645D01*
X3339818Y-8610348D01*
X3331870Y-8614851D01*
X3305824Y-8627961D01*
X3297477Y-8631661D01*
X3289533Y-8636161D01*
X3281376Y-8640267D01*
X3273664Y-8645150D01*
X3248293Y-8659523D01*
X3240131Y-8663631D01*
X3232411Y-8668519D01*
X3224470Y-8673018D01*
X3217009Y-8678273D01*
X3192359Y-8693882D01*
X3184421Y-8698379D01*
X3176963Y-8703631D01*
X3169240Y-8708522D01*
X3162033Y-8714147D01*
X3138203Y-8730930D01*
X3130480Y-8735820D01*
X3123275Y-8741443D01*
X3115819Y-8746694D01*
X3108910Y-8752654D01*
X3085913Y-8770601D01*
X3078451Y-8775856D01*
X3071534Y-8781823D01*
X3064332Y-8787443D01*
X3057723Y-8793736D01*
X3035632Y-8812791D01*
X3028429Y-8818412D01*
X3021826Y-8824699D01*
X3014913Y-8830662D01*
X3008606Y-8837286D01*
X2990807Y-8854234D01*
X2987268Y-8857138D01*
X2977545Y-8866861D01*
X2967661Y-8876272D01*
X2964692Y-8879714D01*
X1573256Y-10271151D01*
X1548864Y-10294373D01*
X1526779Y-10313424D01*
X1503798Y-10331359D01*
X1479968Y-10348142D01*
X1455329Y-10363744D01*
X1429970Y-10378109D01*
X1403938Y-10391214D01*
X1377283Y-10403029D01*
X1350093Y-10413517D01*
X1322406Y-10422664D01*
X1294313Y-10430438D01*
X1265865Y-10436827D01*
X1260775Y-10437710D01*
X1236667Y-10408333D01*
X1180054Y-10361873D01*
X1129778Y-10335000D01*
X1180054Y-10308127D01*
X1236667Y-10261667D01*
X1283127Y-10205054D01*
X1317650Y-10140466D01*
X1338910Y-10070383D01*
X1346088Y-9997500D01*
X1346088Y-9702500D01*
X1338910Y-9629617D01*
X1317650Y-9559534D01*
X1283127Y-9494946D01*
X1236667Y-9438333D01*
X1201315Y-9409321D01*
X1214391Y-9393388D01*
X1248221Y-9330096D01*
X1250000Y-9324232D01*
X1251779Y-9330096D01*
X1285609Y-9393388D01*
X1331137Y-9448863D01*
X1386612Y-9494391D01*
X1449904Y-9528221D01*
X1518580Y-9549054D01*
X1590000Y-9556088D01*
X1870000Y-9556088D01*
X1941420Y-9549054D01*
X2010096Y-9528221D01*
X2073388Y-9494391D01*
X2128863Y-9448863D01*
X2174391Y-9393388D01*
X2208221Y-9330096D01*
X2229054Y-9261420D01*
X2236088Y-9190000D01*
X2236088Y-8850000D01*
X2229054Y-8778580D01*
X2212800Y-8725000D01*
X2216783Y-8725000D01*
X2308552Y-8706746D01*
X2394997Y-8670939D01*
X2472795Y-8618956D01*
X2538956Y-8552795D01*
X2549520Y-8536985D01*
X2584213Y-8560166D01*
X2647909Y-8586550D01*
X2715528Y-8600000D01*
X2784472Y-8600000D01*
X2852091Y-8586550D01*
X2915787Y-8560166D01*
X2973112Y-8521863D01*
X3021863Y-8473112D01*
X3060166Y-8415787D01*
X3074990Y-8380000D01*
X3555277Y-8380000D01*
X3570000Y-8381450D01*
X3584723Y-8380000D01*
X3584733Y-8380000D01*
X3628810Y-8375659D01*
X3685360Y-8358504D01*
X3737477Y-8330647D01*
X3783158Y-8293158D01*
X3792553Y-8281710D01*
X4034264Y-8040000D01*
X5102138Y-8040000D01*
X5093254Y-8061448D01*
X5075000Y-8153217D01*
X5075000Y-8246783D01*
X5093254Y-8338552D01*
X5129061Y-8424997D01*
X5181044Y-8502795D01*
X5247205Y-8568956D01*
X5325003Y-8620939D01*
X5411448Y-8656746D01*
X5503217Y-8675000D01*
X5596783Y-8675000D01*
X5688552Y-8656746D01*
X5774997Y-8620939D01*
X5852795Y-8568956D01*
X5859602Y-8562149D01*
X5865609Y-8573388D01*
X5911137Y-8628863D01*
X5937665Y-8650635D01*
X5924253Y-8654703D01*
X5876479Y-8680239D01*
X5834604Y-8714604D01*
X5800239Y-8756479D01*
X5774703Y-8804253D01*
X5758979Y-8856090D01*
X5753669Y-8910000D01*
X5755000Y-8942250D01*
X5823750Y-9011000D01*
X6161000Y-9011000D01*
X6161000Y-8991000D01*
X6519000Y-8991000D01*
X6519000Y-9011000D01*
X6856250Y-9011000D01*
X6925000Y-8942250D01*
X6926331Y-8910000D01*
X6921021Y-8856090D01*
X6905297Y-8804253D01*
X6879761Y-8756479D01*
X6845396Y-8714604D01*
X6803521Y-8680239D01*
X6755747Y-8654703D01*
X6742335Y-8650635D01*
X6768863Y-8628863D01*
X6814391Y-8573388D01*
X6848221Y-8510096D01*
X6869054Y-8441420D01*
X6876088Y-8370000D01*
X6876088Y-8281917D01*
X6990824Y-8396653D01*
X7152480Y-8504668D01*
X7332103Y-8579070D01*
X7522789Y-8617000D01*
X7717211Y-8617000D01*
X7907897Y-8579070D01*
X8087520Y-8504668D01*
X8249176Y-8396653D01*
X8386653Y-8259176D01*
X8494668Y-8097520D01*
X8569070Y-7917897D01*
X8607000Y-7727211D01*
X8607000Y-7532789D01*
X8569070Y-7342103D01*
X8494668Y-7162480D01*
X8386653Y-7000824D01*
X8249176Y-6863347D01*
X8087520Y-6755332D01*
X7907897Y-6680930D01*
X7717211Y-6643000D01*
X7522789Y-6643000D01*
X7332103Y-6680930D01*
X7152480Y-6755332D01*
X6990824Y-6863347D01*
X6853347Y-7000824D01*
X6800000Y-7080663D01*
X6800000Y-6254730D01*
X6801451Y-6240000D01*
X6800000Y-6225267D01*
X6795659Y-6181190D01*
X6778504Y-6124640D01*
X6750647Y-6072523D01*
X6713158Y-6026842D01*
X6701711Y-6017448D01*
X6695000Y-6010737D01*
X6695000Y-5436007D01*
X6745332Y-5557520D01*
X6853347Y-5719176D01*
X6990824Y-5856653D01*
X7152480Y-5964668D01*
X7332103Y-6039070D01*
X7522789Y-6077000D01*
X7717211Y-6077000D01*
X7907897Y-6039070D01*
X8087520Y-5964668D01*
X8249176Y-5856653D01*
X8386653Y-5719176D01*
X8494668Y-5557520D01*
X8569070Y-5377897D01*
X8607000Y-5187211D01*
X8607000Y-4992789D01*
X8569070Y-4802103D01*
X8494668Y-4622480D01*
X8386653Y-4460824D01*
X8249176Y-4323347D01*
X8087520Y-4215332D01*
X7907897Y-4140930D01*
X7717211Y-4103000D01*
X7522789Y-4103000D01*
X7332103Y-4140930D01*
X7152480Y-4215332D01*
X6990824Y-4323347D01*
X6853347Y-4460824D01*
X6745332Y-4622480D01*
X6695000Y-4743993D01*
X6695000Y-3325000D01*
X6750000Y-3325000D01*
X6764632Y-3323559D01*
X6778701Y-3319291D01*
X6791668Y-3312360D01*
X6803033Y-3303033D01*
X6812360Y-3291668D01*
X6819291Y-3278701D01*
X6823559Y-3264632D01*
X6825000Y-3250000D01*
X6825000Y-3136752D01*
X6853347Y-3179176D01*
X6990824Y-3316653D01*
X7152480Y-3424668D01*
X7332103Y-3499070D01*
X7522789Y-3537000D01*
X7717211Y-3537000D01*
X7907897Y-3499070D01*
X8087520Y-3424668D01*
X8249176Y-3316653D01*
X8386653Y-3179176D01*
X8494668Y-3017520D01*
X8569070Y-2837897D01*
X8607000Y-2647211D01*
X8607000Y-2452789D01*
X8569070Y-2262103D01*
X8494668Y-2082480D01*
X8386653Y-1920824D01*
X8249176Y-1783347D01*
X8087520Y-1675332D01*
X7907897Y-1600930D01*
X7717211Y-1563000D01*
X7522789Y-1563000D01*
X7332103Y-1600930D01*
X7152480Y-1675332D01*
X6990824Y-1783347D01*
X6853347Y-1920824D01*
X6825000Y-1963248D01*
X6825000Y-596752D01*
X6853347Y-639176D01*
X6990824Y-776653D01*
X7152480Y-884668D01*
X7332103Y-959070D01*
X7522789Y-997000D01*
X7717211Y-997000D01*
X7907897Y-959070D01*
X8087520Y-884668D01*
X8249176Y-776653D01*
X8386653Y-639176D01*
X8494668Y-477520D01*
X8569070Y-297897D01*
X8607000Y-107211D01*
X8607000Y87211D01*
X8569070Y277897D01*
X8494668Y457520D01*
X8386653Y619176D01*
X8249176Y756653D01*
X8087520Y864668D01*
X7907897Y939070D01*
X7717211Y977000D01*
X7522789Y977000D01*
X7332103Y939070D01*
X7152480Y864668D01*
X6990824Y756653D01*
X6853347Y619176D01*
X6825000Y576752D01*
X6825000Y1943248D01*
X6853347Y1900824D01*
X6990824Y1763347D01*
X7152480Y1655332D01*
X7332103Y1580930D01*
X7522789Y1543000D01*
X7717211Y1543000D01*
X7907897Y1580930D01*
X8087520Y1655332D01*
X8249176Y1763347D01*
X8386653Y1900824D01*
X8494668Y2062480D01*
X8569070Y2242103D01*
X8607000Y2432789D01*
X8607000Y2627211D01*
X8569070Y2817897D01*
X8494668Y2997520D01*
X8386653Y3159176D01*
X8249176Y3296653D01*
X8087520Y3404668D01*
X7907897Y3479070D01*
X7717211Y3517000D01*
X7522789Y3517000D01*
X7332103Y3479070D01*
X7152480Y3404668D01*
X6990824Y3296653D01*
X6853347Y3159176D01*
X6745332Y2997520D01*
X6670930Y2817897D01*
X6633000Y2627211D01*
X6633000Y2575000D01*
X6294387Y2575000D01*
X6300000Y2603217D01*
X6300000Y2696783D01*
X6299281Y2700396D01*
X6304281Y2706488D01*
X6325647Y2732522D01*
X6345679Y2770000D01*
X6353504Y2784640D01*
X6370659Y2841190D01*
X6371629Y2851042D01*
X6433126Y2857099D01*
X6513057Y2881346D01*
X6586722Y2920721D01*
X6651290Y2973710D01*
X6704279Y3038278D01*
X6743654Y3111943D01*
X6767901Y3191874D01*
X6776088Y3275000D01*
X6776088Y3675000D01*
X6767901Y3758126D01*
X6743654Y3838057D01*
X6704279Y3911722D01*
X6651290Y3976290D01*
X6586722Y4029279D01*
X6513057Y4068654D01*
X6433126Y4092901D01*
X6350000Y4101088D01*
X5800000Y4101088D01*
X5716874Y4092901D01*
X5636943Y4068654D01*
X5563278Y4029279D01*
X5498710Y3976290D01*
X5455430Y3923553D01*
X5426119Y3978389D01*
X5370798Y4045798D01*
X5303389Y4101119D01*
X5226482Y4142227D01*
X5143034Y4167541D01*
X5056250Y4176088D01*
X4543750Y4176088D01*
X4456966Y4167541D01*
X4373518Y4142227D01*
X4296611Y4101119D01*
X4237081Y4052264D01*
X4218602Y4113182D01*
X4185234Y4175610D01*
X4140328Y4230328D01*
X4085610Y4275234D01*
X4023182Y4308602D01*
X3955445Y4329150D01*
X3885000Y4336088D01*
X3625000Y4336088D01*
X3625000Y4363912D01*
X3885000Y4363912D01*
X3955445Y4370850D01*
X4023182Y4391398D01*
X4085610Y4424766D01*
X4140328Y4469672D01*
X4185234Y4524390D01*
X4212225Y4574888D01*
X4229202Y4554202D01*
X4296611Y4498881D01*
X4373518Y4457773D01*
X4456966Y4432459D01*
X4543750Y4423912D01*
X5056250Y4423912D01*
X5143034Y4432459D01*
X5226482Y4457773D01*
X5303389Y4498881D01*
X5370798Y4554202D01*
X5377608Y4562500D01*
X5404604Y4529604D01*
X5446479Y4495239D01*
X5494253Y4469703D01*
X5546090Y4453979D01*
X5600000Y4448669D01*
X5827250Y4450000D01*
X5896000Y4518750D01*
X5896000Y4946000D01*
X5876000Y4946000D01*
X5876000Y5304000D01*
X5896000Y5304000D01*
X5896000Y5324000D01*
X6254000Y5324000D01*
X6254000Y5304000D01*
X6274000Y5304000D01*
X6274000Y4946000D01*
X6254000Y4946000D01*
X6254000Y4518750D01*
X6322750Y4450000D01*
X6550000Y4448669D01*
X6603910Y4453979D01*
X6655747Y4469703D01*
X6703521Y4495239D01*
X6745396Y4529604D01*
X6772201Y4562267D01*
X6853347Y4440824D01*
X6990824Y4303347D01*
X7152480Y4195332D01*
X7332103Y4120930D01*
X7522789Y4083000D01*
X7717211Y4083000D01*
X7907897Y4120930D01*
X8087520Y4195332D01*
X8249176Y4303347D01*
X8386653Y4440824D01*
X8494668Y4602480D01*
X8569070Y4782103D01*
X8607000Y4972789D01*
X8607000Y5167211D01*
X8569070Y5357897D01*
X8494668Y5537520D01*
X8386653Y5699176D01*
X8249176Y5836653D01*
X8087520Y5944668D01*
X7907897Y6019070D01*
X7724849Y6055481D01*
X7078195Y6702134D01*
X7066448Y6716448D01*
X7009347Y6763309D01*
X6944200Y6798131D01*
X6873513Y6819574D01*
X6818419Y6825000D01*
X6818416Y6825000D01*
X6800000Y6826814D01*
X6781584Y6825000D01*
X6648907Y6825000D01*
X6668654Y6861943D01*
X6692901Y6941874D01*
X6701088Y7025000D01*
X6701088Y7249295D01*
X6745332Y7142480D01*
X6853347Y6980824D01*
X6990824Y6843347D01*
X7152480Y6735332D01*
X7332103Y6660930D01*
X7522789Y6623000D01*
X7717211Y6623000D01*
X7907897Y6660930D01*
X8087520Y6735332D01*
X8249176Y6843347D01*
X8386653Y6980824D01*
X8494668Y7142480D01*
X8569070Y7322103D01*
X8607000Y7512789D01*
X8607000Y7707211D01*
X8569070Y7897897D01*
X8494668Y8077520D01*
X8386653Y8239176D01*
X8249176Y8376653D01*
X8087520Y8484668D01*
X7907897Y8559070D01*
X7717211Y8597000D01*
X7522789Y8597000D01*
X7332103Y8559070D01*
X7152480Y8484668D01*
X6990824Y8376653D01*
X6853347Y8239176D01*
X6745332Y8077520D01*
X6670930Y7897897D01*
X6633000Y7707211D01*
X6633000Y7654761D01*
X6629279Y7661722D01*
X6576290Y7726290D01*
X6530235Y7764086D01*
X6570939Y7825003D01*
X6606746Y7911448D01*
X6625000Y8003217D01*
X6625000Y8096783D01*
X6606746Y8188552D01*
X6570939Y8274997D01*
X6530235Y8335914D01*
X6576290Y8373710D01*
X6629279Y8438278D01*
X6668654Y8511943D01*
X6692901Y8591874D01*
X6701088Y8675000D01*
X6701088Y9075000D01*
X6692901Y9158126D01*
X6668654Y9238057D01*
X6629279Y9311722D01*
X6600358Y9346963D01*
X7070107Y9346963D01*
X7161436Y9214308D01*
X7352792Y9142825D01*
X7554417Y9110047D01*
X7758562Y9117235D01*
X7957382Y9164112D01*
X8078564Y9214308D01*
X8169893Y9346963D01*
X7620000Y9896856D01*
X7070107Y9346963D01*
X6600358Y9346963D01*
X6576290Y9376290D01*
X6511722Y9429279D01*
X6438057Y9468654D01*
X6364257Y9491041D01*
X6348131Y9544200D01*
X6313309Y9609347D01*
X6266448Y9666448D01*
X6252139Y9678191D01*
X6097878Y9832452D01*
X6081746Y9913552D01*
X6045939Y9999997D01*
X5993956Y10077795D01*
X5927795Y10143956D01*
X5849997Y10195939D01*
X5802573Y10215583D01*
X6580047Y10215583D01*
X6587235Y10011438D01*
X6634112Y9812618D01*
X6684308Y9691436D01*
X6816963Y9600107D01*
X7366856Y10150000D01*
X7873144Y10150000D01*
X8423037Y9600107D01*
X8555692Y9691436D01*
X8627175Y9882792D01*
X8659953Y10084417D01*
X8652765Y10288562D01*
X8605888Y10487382D01*
X8555692Y10608564D01*
X8423037Y10699893D01*
X7873144Y10150000D01*
X7366856Y10150000D01*
X6816963Y10699893D01*
X6684308Y10608564D01*
X6612825Y10417208D01*
X6580047Y10215583D01*
X5802573Y10215583D01*
X5763552Y10231746D01*
X5671783Y10250000D01*
X5578217Y10250000D01*
X5486448Y10231746D01*
X5400003Y10195939D01*
X5322205Y10143956D01*
X5256044Y10077795D01*
X5204061Y9999997D01*
X5168254Y9913552D01*
X5150000Y9821783D01*
X5150000Y9728217D01*
X5168254Y9636448D01*
X5204061Y9550003D01*
X5256044Y9472205D01*
X5322205Y9406044D01*
X5400003Y9354061D01*
X5404081Y9352372D01*
X5370721Y9311722D01*
X5331346Y9238057D01*
X5307099Y9158126D01*
X5298912Y9075000D01*
X5298912Y8675000D01*
X5307099Y8591874D01*
X5331346Y8511943D01*
X5370721Y8438278D01*
X5423710Y8373710D01*
X5488278Y8320721D01*
X5561943Y8281346D01*
X5641874Y8257099D01*
X5718520Y8249550D01*
X5693254Y8188552D01*
X5675000Y8096783D01*
X5675000Y8003217D01*
X5693254Y7911448D01*
X5698723Y7898245D01*
X5700000Y7885277D01*
X5700000Y7848626D01*
X5641874Y7842901D01*
X5561943Y7818654D01*
X5488278Y7779279D01*
X5423710Y7726290D01*
X5370721Y7661722D01*
X5331346Y7588057D01*
X5326088Y7570724D01*
X5326088Y7850000D01*
X5321744Y7894108D01*
X5308878Y7936520D01*
X5287985Y7975608D01*
X5259868Y8009868D01*
X5225608Y8037985D01*
X5186520Y8058878D01*
X5144108Y8071744D01*
X5100000Y8076088D01*
X4679242Y8076088D01*
X4452163Y8303166D01*
X4536448Y8268254D01*
X4628217Y8250000D01*
X4721783Y8250000D01*
X4813552Y8268254D01*
X4899997Y8304061D01*
X4977795Y8356044D01*
X5043956Y8422205D01*
X5095939Y8500003D01*
X5131746Y8586448D01*
X5150000Y8678217D01*
X5150000Y8771783D01*
X5131746Y8863552D01*
X5095939Y8949997D01*
X5043956Y9027795D01*
X4977795Y9093956D01*
X4899997Y9145939D01*
X4813552Y9181746D01*
X4721783Y9200000D01*
X4628217Y9200000D01*
X4536448Y9181746D01*
X4509674Y9170656D01*
X4376088Y9304242D01*
X4376088Y9850000D01*
X4371744Y9894108D01*
X4358878Y9936520D01*
X4337985Y9975608D01*
X4309868Y10009868D01*
X4275608Y10037985D01*
X4236520Y10058878D01*
X4194108Y10071744D01*
X4150000Y10076088D01*
X3728216Y10076088D01*
X3741321Y10119290D01*
X3746631Y10173200D01*
X3745300Y10325450D01*
X3676550Y10394200D01*
X3379300Y10394200D01*
X3379300Y10374200D01*
X3021300Y10374200D01*
X3021300Y10394200D01*
X3001300Y10394200D01*
X3001300Y10752200D01*
X3021300Y10752200D01*
X3021300Y10772200D01*
X3379300Y10772200D01*
X3379300Y10752200D01*
X3676550Y10752200D01*
X3745300Y10820950D01*
X3745991Y10900000D01*
X4587725Y10900000D01*
X4600000Y10898791D01*
X4612275Y10900000D01*
X4649008Y10903618D01*
X4696134Y10917913D01*
X4739564Y10941127D01*
X4777632Y10972368D01*
X4808873Y11010436D01*
X4832087Y11053866D01*
X4846382Y11100992D01*
X4850600Y11143817D01*
X4850600Y11037593D01*
X4861091Y10931075D01*
X4902548Y10794412D01*
X4969870Y10668463D01*
X5060469Y10558068D01*
X5170864Y10467469D01*
X5296813Y10400147D01*
X5433476Y10358691D01*
X5575600Y10344693D01*
X5717725Y10358691D01*
X5854388Y10400147D01*
X5980337Y10467469D01*
X6090732Y10558068D01*
X6181331Y10668463D01*
X6248653Y10794412D01*
X6290109Y10931075D01*
X6292272Y10953037D01*
X7070107Y10953037D01*
X7620000Y10403144D01*
X8169893Y10953037D01*
X8078564Y11085692D01*
X7887208Y11157175D01*
X7685583Y11189953D01*
X7481438Y11182765D01*
X7282618Y11135888D01*
X7161436Y11085692D01*
X7070107Y10953037D01*
X6292272Y10953037D01*
X6300600Y11037593D01*
X6300600Y11908807D01*
X6290109Y12015325D01*
X6248653Y12151988D01*
X6181331Y12277937D01*
X6090731Y12388332D01*
X5980336Y12478931D01*
X5854387Y12546253D01*
X5717724Y12587709D01*
X5575600Y12601707D01*
X5433475Y12587709D01*
X5296812Y12546253D01*
X5170863Y12478931D01*
X5060468Y12388331D01*
X4969869Y12277936D01*
X4902547Y12151987D01*
X4861091Y12015324D01*
X4850600Y11908806D01*
X4850600Y11156183D01*
X4850000Y11162275D01*
X4850000Y12787211D01*
X6633000Y12787211D01*
X6633000Y12592789D01*
X6670930Y12402103D01*
X6745332Y12222480D01*
X6853347Y12060824D01*
X6990824Y11923347D01*
X7152480Y11815332D01*
X7332103Y11740930D01*
X7522789Y11703000D01*
X7717211Y11703000D01*
X7907897Y11740930D01*
X8087520Y11815332D01*
X8249176Y11923347D01*
X8386653Y12060824D01*
X8494668Y12222480D01*
X8569070Y12402103D01*
X8607000Y12592789D01*
X8607000Y12787211D01*
X8569070Y12977897D01*
X8494668Y13157520D01*
X8386653Y13319176D01*
X8249176Y13456653D01*
X8087520Y13564668D01*
X7907897Y13639070D01*
X7717211Y13677000D01*
X7522789Y13677000D01*
X7332103Y13639070D01*
X7152480Y13564668D01*
X6990824Y13456653D01*
X6853347Y13319176D01*
X6745332Y13157520D01*
X6670930Y12977897D01*
X6633000Y12787211D01*
X4850000Y12787211D01*
X4850000Y16400000D01*
X4987976Y16400000D01*
X4969869Y16377936D01*
G37*
%TD.AperFunction*%
D26*
X4323213Y-9222330D02*
X4346377Y-9224039D01*
X4369440Y-9226883D01*
X4392312Y-9230852D01*
X4414990Y-9235945D01*
X4437355Y-9242134D01*
X4459431Y-9249427D01*
X4481087Y-9257780D01*
X4502328Y-9267196D01*
X4523073Y-9277639D01*
X4543275Y-9289083D01*
X4562910Y-9301516D01*
X4581878Y-9314875D01*
X4600202Y-9329175D01*
X4617790Y-9344347D01*
X4637927Y-9363518D01*
X4646486Y-9372078D01*
X4665656Y-9392212D01*
X4680830Y-9409803D01*
X4695105Y-9428095D01*
X4708489Y-9447099D01*
X4720913Y-9466718D01*
X4732358Y-9486920D01*
X4742807Y-9507679D01*
X4752217Y-9528906D01*
X4760572Y-9550567D01*
X4767862Y-9572633D01*
X4774058Y-9595023D01*
X4779145Y-9617678D01*
X4783117Y-9640569D01*
X4785960Y-9663614D01*
X4787668Y-9686780D01*
X4787774Y-9691070D01*
X4751137Y-9721137D01*
X4729365Y-9747665D01*
X4725297Y-9734253D01*
X4699761Y-9686479D01*
X4665396Y-9644604D01*
X4623521Y-9610239D01*
X4575747Y-9584703D01*
X4523910Y-9568979D01*
X4470000Y-9563669D01*
X4437750Y-9565000D01*
X4369000Y-9633750D01*
X4369000Y-9971000D01*
X4389000Y-9971000D01*
X4389000Y-10329000D01*
X4369000Y-10329000D01*
X4369000Y-10821000D01*
X4389000Y-10821000D01*
X4389000Y-11179000D01*
X4369000Y-11179000D01*
X4369000Y-11199000D01*
X4011000Y-11199000D01*
X4011000Y-11179000D01*
X3703750Y-11179000D01*
X3635000Y-11247750D01*
X3633669Y-11310000D01*
X3635146Y-11325000D01*
X1074755Y-11325000D01*
X1115466Y-11312650D01*
X1180054Y-11278127D01*
X1236667Y-11231667D01*
X1273982Y-11186197D01*
X1281098Y-11185319D01*
X1290199Y-11184648D01*
X1299188Y-11183088D01*
X1328136Y-11179518D01*
X1337245Y-11178846D01*
X1346244Y-11177285D01*
X1355305Y-11176167D01*
X1364214Y-11174166D01*
X1392943Y-11169181D01*
X1402011Y-11168063D01*
X1410927Y-11166061D01*
X1419917Y-11164501D01*
X1428710Y-11162068D01*
X1457182Y-11155674D01*
X1466174Y-11154114D01*
X1474966Y-11151681D01*
X1483881Y-11149679D01*
X1492558Y-11146812D01*
X1520655Y-11139037D01*
X1529569Y-11137035D01*
X1538245Y-11134169D01*
X1547043Y-11131734D01*
X1555560Y-11128449D01*
X1583242Y-11119304D01*
X1592050Y-11116866D01*
X1600580Y-11113576D01*
X1609242Y-11110714D01*
X1617580Y-11107018D01*
X1644791Y-11096521D01*
X1653471Y-11093654D01*
X1661828Y-11089950D01*
X1670335Y-11086668D01*
X1678482Y-11082567D01*
X1705158Y-11070742D01*
X1713677Y-11067456D01*
X1721834Y-11063350D01*
X1730181Y-11059650D01*
X1738124Y-11055150D01*
X1764172Y-11042039D01*
X1772521Y-11038338D01*
X1780469Y-11033835D01*
X1788625Y-11029730D01*
X1796337Y-11024846D01*
X1821718Y-11010468D01*
X1829867Y-11006366D01*
X1837579Y-11001482D01*
X1845527Y-10996980D01*
X1852990Y-10991724D01*
X1877629Y-10976122D01*
X1885583Y-10971616D01*
X1893050Y-10966357D01*
X1900758Y-10961476D01*
X1907958Y-10955857D01*
X1931809Y-10939059D01*
X1939518Y-10934177D01*
X1946717Y-10928559D01*
X1954185Y-10923299D01*
X1961099Y-10917335D01*
X1984078Y-10899402D01*
X1991552Y-10894138D01*
X1998476Y-10888165D01*
X2005666Y-10882554D01*
X2012272Y-10876264D01*
X2034350Y-10857219D01*
X2041551Y-10851600D01*
X2048178Y-10845291D01*
X2055087Y-10839331D01*
X2061372Y-10832730D01*
X2079192Y-10815765D01*
X2082730Y-10812861D01*
X2092420Y-10803171D01*
X2102323Y-10793743D01*
X2105306Y-10790285D01*
X2435591Y-10460000D01*
X3633669Y-10460000D01*
X3638979Y-10513910D01*
X3654703Y-10565747D01*
X3659649Y-10575000D01*
X3654703Y-10584253D01*
X3638979Y-10636090D01*
X3633669Y-10690000D01*
X3635000Y-10752250D01*
X3703750Y-10821000D01*
X4011000Y-10821000D01*
X4011000Y-10329000D01*
X3703750Y-10329000D01*
X3635000Y-10397750D01*
X3633669Y-10460000D01*
X2435591Y-10460000D01*
X3055591Y-9840000D01*
X3633669Y-9840000D01*
X3635000Y-9902250D01*
X3703750Y-9971000D01*
X4011000Y-9971000D01*
X4011000Y-9633750D01*
X3942250Y-9565000D01*
X3910000Y-9563669D01*
X3856090Y-9568979D01*
X3804253Y-9584703D01*
X3756479Y-9610239D01*
X3714604Y-9644604D01*
X3680239Y-9686479D01*
X3654703Y-9734253D01*
X3638979Y-9786090D01*
X3633669Y-9840000D01*
X3055591Y-9840000D01*
X3496762Y-9398830D01*
X3521141Y-9375617D01*
X3543217Y-9356575D01*
X3566203Y-9338636D01*
X3590027Y-9321857D01*
X3614657Y-9306261D01*
X3640027Y-9291889D01*
X3666055Y-9278788D01*
X3692714Y-9266970D01*
X3719908Y-9256480D01*
X3747593Y-9247334D01*
X3775686Y-9239560D01*
X3804134Y-9233171D01*
X3832849Y-9228189D01*
X3861791Y-9224619D01*
X3890850Y-9222476D01*
X3924524Y-9221650D01*
X4295470Y-9221650D01*
X4323213Y-9222330D01*
%TA.AperFunction,Conductor*%
D31*
G36*
X4323213Y-9222330D02*
G01*
X4346377Y-9224039D01*
X4369440Y-9226883D01*
X4392312Y-9230852D01*
X4414990Y-9235945D01*
X4437355Y-9242134D01*
X4459431Y-9249427D01*
X4481087Y-9257780D01*
X4502328Y-9267196D01*
X4523073Y-9277639D01*
X4543275Y-9289083D01*
X4562910Y-9301516D01*
X4581878Y-9314875D01*
X4600202Y-9329175D01*
X4617790Y-9344347D01*
X4637927Y-9363518D01*
X4646486Y-9372078D01*
X4665656Y-9392212D01*
X4680830Y-9409803D01*
X4695105Y-9428095D01*
X4708489Y-9447099D01*
X4720913Y-9466718D01*
X4732358Y-9486920D01*
X4742807Y-9507679D01*
X4752217Y-9528906D01*
X4760572Y-9550567D01*
X4767862Y-9572633D01*
X4774058Y-9595023D01*
X4779145Y-9617678D01*
X4783117Y-9640569D01*
X4785960Y-9663614D01*
X4787668Y-9686780D01*
X4787774Y-9691070D01*
X4751137Y-9721137D01*
X4729365Y-9747665D01*
X4725297Y-9734253D01*
X4699761Y-9686479D01*
X4665396Y-9644604D01*
X4623521Y-9610239D01*
X4575747Y-9584703D01*
X4523910Y-9568979D01*
X4470000Y-9563669D01*
X4437750Y-9565000D01*
X4369000Y-9633750D01*
X4369000Y-9971000D01*
X4389000Y-9971000D01*
X4389000Y-10329000D01*
X4369000Y-10329000D01*
X4369000Y-10821000D01*
X4389000Y-10821000D01*
X4389000Y-11179000D01*
X4369000Y-11179000D01*
X4369000Y-11199000D01*
X4011000Y-11199000D01*
X4011000Y-11179000D01*
X3703750Y-11179000D01*
X3635000Y-11247750D01*
X3633669Y-11310000D01*
X3635146Y-11325000D01*
X1074755Y-11325000D01*
X1115466Y-11312650D01*
X1180054Y-11278127D01*
X1236667Y-11231667D01*
X1273982Y-11186197D01*
X1281098Y-11185319D01*
X1290199Y-11184648D01*
X1299188Y-11183088D01*
X1328136Y-11179518D01*
X1337245Y-11178846D01*
X1346244Y-11177285D01*
X1355305Y-11176167D01*
X1364214Y-11174166D01*
X1392943Y-11169181D01*
X1402011Y-11168063D01*
X1410927Y-11166061D01*
X1419917Y-11164501D01*
X1428710Y-11162068D01*
X1457182Y-11155674D01*
X1466174Y-11154114D01*
X1474966Y-11151681D01*
X1483881Y-11149679D01*
X1492558Y-11146812D01*
X1520655Y-11139037D01*
X1529569Y-11137035D01*
X1538245Y-11134169D01*
X1547043Y-11131734D01*
X1555560Y-11128449D01*
X1583242Y-11119304D01*
X1592050Y-11116866D01*
X1600580Y-11113576D01*
X1609242Y-11110714D01*
X1617580Y-11107018D01*
X1644791Y-11096521D01*
X1653471Y-11093654D01*
X1661828Y-11089950D01*
X1670335Y-11086668D01*
X1678482Y-11082567D01*
X1705158Y-11070742D01*
X1713677Y-11067456D01*
X1721834Y-11063350D01*
X1730181Y-11059650D01*
X1738124Y-11055150D01*
X1764172Y-11042039D01*
X1772521Y-11038338D01*
X1780469Y-11033835D01*
X1788625Y-11029730D01*
X1796337Y-11024846D01*
X1821718Y-11010468D01*
X1829867Y-11006366D01*
X1837579Y-11001482D01*
X1845527Y-10996980D01*
X1852990Y-10991724D01*
X1877629Y-10976122D01*
X1885583Y-10971616D01*
X1893050Y-10966357D01*
X1900758Y-10961476D01*
X1907958Y-10955857D01*
X1931809Y-10939059D01*
X1939518Y-10934177D01*
X1946717Y-10928559D01*
X1954185Y-10923299D01*
X1961099Y-10917335D01*
X1984078Y-10899402D01*
X1991552Y-10894138D01*
X1998476Y-10888165D01*
X2005666Y-10882554D01*
X2012272Y-10876264D01*
X2034350Y-10857219D01*
X2041551Y-10851600D01*
X2048178Y-10845291D01*
X2055087Y-10839331D01*
X2061372Y-10832730D01*
X2079192Y-10815765D01*
X2082730Y-10812861D01*
X2092420Y-10803171D01*
X2102323Y-10793743D01*
X2105306Y-10790285D01*
X2435591Y-10460000D01*
X3633669Y-10460000D01*
X3638979Y-10513910D01*
X3654703Y-10565747D01*
X3659649Y-10575000D01*
X3654703Y-10584253D01*
X3638979Y-10636090D01*
X3633669Y-10690000D01*
X3635000Y-10752250D01*
X3703750Y-10821000D01*
X4011000Y-10821000D01*
X4011000Y-10329000D01*
X3703750Y-10329000D01*
X3635000Y-10397750D01*
X3633669Y-10460000D01*
X2435591Y-10460000D01*
X3055591Y-9840000D01*
X3633669Y-9840000D01*
X3635000Y-9902250D01*
X3703750Y-9971000D01*
X4011000Y-9971000D01*
X4011000Y-9633750D01*
X3942250Y-9565000D01*
X3910000Y-9563669D01*
X3856090Y-9568979D01*
X3804253Y-9584703D01*
X3756479Y-9610239D01*
X3714604Y-9644604D01*
X3680239Y-9686479D01*
X3654703Y-9734253D01*
X3638979Y-9786090D01*
X3633669Y-9840000D01*
X3055591Y-9840000D01*
X3496762Y-9398830D01*
X3521141Y-9375617D01*
X3543217Y-9356575D01*
X3566203Y-9338636D01*
X3590027Y-9321857D01*
X3614657Y-9306261D01*
X3640027Y-9291889D01*
X3666055Y-9278788D01*
X3692714Y-9266970D01*
X3719908Y-9256480D01*
X3747593Y-9247334D01*
X3775686Y-9239560D01*
X3804134Y-9233171D01*
X3832849Y-9228189D01*
X3861791Y-9224619D01*
X3890850Y-9222476D01*
X3924524Y-9221650D01*
X4295470Y-9221650D01*
X4323213Y-9222330D01*
G37*
%TD.AperFunction*%
D26*
X-6180731Y16377936D02*
X-6248053Y16251987D01*
X-6289509Y16115324D01*
X-6300000Y16008806D01*
X-6299999Y14737593D01*
X-6289508Y14631075D01*
X-6248052Y14494412D01*
X-6180730Y14368463D01*
X-6090131Y14258068D01*
X-5979736Y14167469D01*
X-5853787Y14100147D01*
X-5717124Y14058691D01*
X-5575000Y14044693D01*
X-5432875Y14058691D01*
X-5296212Y14100147D01*
X-5170263Y14167469D01*
X-5059868Y14258068D01*
X-4969269Y14368463D01*
X-4901947Y14494412D01*
X-4860491Y14631075D01*
X-4850000Y14737593D01*
X-4849999Y12062284D01*
X-4850000Y12062274D01*
X-4850000Y11908807D01*
X-4860491Y12015325D01*
X-4901947Y12151988D01*
X-4969269Y12277937D01*
X-5059869Y12388332D01*
X-5170264Y12478931D01*
X-5296213Y12546253D01*
X-5432876Y12587709D01*
X-5575000Y12601707D01*
X-5717125Y12587709D01*
X-5853788Y12546253D01*
X-5979737Y12478931D01*
X-6090132Y12388331D01*
X-6180731Y12277936D01*
X-6248053Y12151987D01*
X-6289509Y12015324D01*
X-6300000Y11908806D01*
X-6300000Y11037593D01*
X-6289509Y10931075D01*
X-6248052Y10794412D01*
X-6180730Y10668463D01*
X-6090131Y10558068D01*
X-5979736Y10467469D01*
X-5853787Y10400147D01*
X-5717124Y10358691D01*
X-5575000Y10344693D01*
X-5432875Y10358691D01*
X-5296212Y10400147D01*
X-5170263Y10467469D01*
X-5059868Y10558068D01*
X-4969269Y10668463D01*
X-4901947Y10794412D01*
X-4860491Y10931075D01*
X-4850000Y11037593D01*
X-4850000Y11137726D01*
X-4846382Y11100992D01*
X-4832087Y11053866D01*
X-4808873Y11010436D01*
X-4777632Y10972368D01*
X-4739564Y10941127D01*
X-4696134Y10917913D01*
X-4649008Y10903618D01*
X-4612275Y10900000D01*
X-4600000Y10898791D01*
X-4587725Y10900000D01*
X-3745391Y10900000D01*
X-3744700Y10820950D01*
X-3675950Y10752200D01*
X-3378700Y10752200D01*
X-3378700Y10772200D01*
X-3020700Y10772200D01*
X-3020700Y10752200D01*
X-3000700Y10752200D01*
X-3000700Y10394200D01*
X-3020700Y10394200D01*
X-3020700Y10374200D01*
X-3378700Y10374200D01*
X-3378700Y10394200D01*
X-3675950Y10394200D01*
X-3744700Y10325450D01*
X-3746031Y10173200D01*
X-3740721Y10119290D01*
X-3727616Y10076088D01*
X-4150000Y10076088D01*
X-4194108Y10071744D01*
X-4236520Y10058878D01*
X-4275608Y10037985D01*
X-4309868Y10009868D01*
X-4337985Y9975608D01*
X-4358878Y9936520D01*
X-4371744Y9894108D01*
X-4376088Y9850000D01*
X-4376088Y9756659D01*
X-4404200Y9748131D01*
X-4404202Y9748130D01*
X-4435438Y9731434D01*
X-4469347Y9713309D01*
X-4526448Y9666448D01*
X-4538189Y9652141D01*
X-6382138Y7808191D01*
X-6396447Y7796448D01*
X-6408189Y7782140D01*
X-6443309Y7739346D01*
X-6474472Y7681044D01*
X-6478130Y7674200D01*
X-6499321Y7604342D01*
X-6499573Y7603512D01*
X-6506814Y7530000D01*
X-6504999Y7511574D01*
X-6505000Y3168419D01*
X-6506814Y3150000D01*
X-6505000Y3131584D01*
X-6505000Y3131582D01*
X-6504999Y3131572D01*
X-6505000Y2575000D01*
X-6560737Y2575000D01*
X-6637979Y2652242D01*
X-6670930Y2817897D01*
X-6745332Y2997520D01*
X-6853347Y3159176D01*
X-6990824Y3296653D01*
X-7152480Y3404668D01*
X-7332103Y3479070D01*
X-7522789Y3517000D01*
X-7717211Y3517000D01*
X-7907897Y3479070D01*
X-8087520Y3404668D01*
X-8249176Y3296653D01*
X-8386653Y3159176D01*
X-8494668Y2997520D01*
X-8569070Y2817897D01*
X-8607000Y2627211D01*
X-8607000Y2432789D01*
X-8569070Y2242103D01*
X-8494668Y2062480D01*
X-8386653Y1900824D01*
X-8249176Y1763347D01*
X-8087520Y1655332D01*
X-7907897Y1580930D01*
X-7717211Y1543000D01*
X-7522789Y1543000D01*
X-7332103Y1580930D01*
X-7152480Y1655332D01*
X-6990824Y1763347D01*
X-6853347Y1900824D01*
X-6839999Y1920801D01*
X-6840000Y599200D01*
X-6853347Y619176D01*
X-6990824Y756653D01*
X-7152480Y864668D01*
X-7332103Y939070D01*
X-7522789Y977000D01*
X-7717211Y977000D01*
X-7907897Y939070D01*
X-8087520Y864668D01*
X-8249176Y756653D01*
X-8386653Y619176D01*
X-8494668Y457520D01*
X-8569070Y277897D01*
X-8607000Y87211D01*
X-8607000Y-107211D01*
X-8569070Y-297897D01*
X-8494668Y-477520D01*
X-8386653Y-639176D01*
X-8249176Y-776653D01*
X-8087520Y-884668D01*
X-7907897Y-959070D01*
X-7717211Y-997000D01*
X-7522789Y-997000D01*
X-7332103Y-959070D01*
X-7152480Y-884668D01*
X-7095761Y-846770D01*
X-7105000Y-893217D01*
X-7105000Y-986783D01*
X-7086746Y-1078552D01*
X-7050939Y-1164997D01*
X-6998956Y-1242795D01*
X-6932795Y-1308956D01*
X-6854997Y-1360939D01*
X-6825000Y-1373364D01*
X-6825000Y-1963248D01*
X-6853347Y-1920824D01*
X-6990824Y-1783347D01*
X-7152480Y-1675332D01*
X-7332103Y-1600930D01*
X-7522789Y-1563000D01*
X-7717211Y-1563000D01*
X-7907897Y-1600930D01*
X-8087520Y-1675332D01*
X-8249176Y-1783347D01*
X-8386653Y-1920824D01*
X-8494668Y-2082480D01*
X-8569070Y-2262103D01*
X-8607000Y-2452789D01*
X-8607000Y-2647211D01*
X-8569070Y-2837897D01*
X-8494668Y-3017520D01*
X-8386653Y-3179176D01*
X-8249176Y-3316653D01*
X-8087520Y-3424668D01*
X-7907897Y-3499070D01*
X-7717211Y-3537000D01*
X-7522789Y-3537000D01*
X-7332103Y-3499070D01*
X-7152480Y-3424668D01*
X-6990824Y-3316653D01*
X-6853347Y-3179176D01*
X-6825000Y-3136752D01*
X-6825000Y-3250000D01*
X-6823559Y-3264632D01*
X-6819291Y-3278701D01*
X-6812360Y-3291668D01*
X-6803033Y-3303033D01*
X-6791668Y-3312360D01*
X-6778701Y-3319291D01*
X-6764632Y-3323559D01*
X-6750000Y-3325000D01*
X-6750000Y-4615494D01*
X-6853347Y-4460824D01*
X-6990824Y-4323347D01*
X-7152480Y-4215332D01*
X-7332103Y-4140930D01*
X-7522789Y-4103000D01*
X-7717211Y-4103000D01*
X-7907897Y-4140930D01*
X-8087520Y-4215332D01*
X-8249176Y-4323347D01*
X-8386653Y-4460824D01*
X-8494668Y-4622480D01*
X-8569070Y-4802103D01*
X-8607000Y-4992789D01*
X-8607000Y-5187211D01*
X-8569070Y-5377897D01*
X-8494668Y-5557520D01*
X-8386653Y-5719176D01*
X-8249176Y-5856653D01*
X-8087520Y-5964668D01*
X-7907897Y-6039070D01*
X-7717211Y-6077000D01*
X-7522789Y-6077000D01*
X-7332103Y-6039070D01*
X-7152480Y-5964668D01*
X-6990824Y-5856653D01*
X-6853347Y-5719176D01*
X-6749999Y-5564505D01*
X-6749999Y-7155495D01*
X-6853347Y-7000824D01*
X-6990824Y-6863347D01*
X-7152480Y-6755332D01*
X-7332103Y-6680930D01*
X-7522789Y-6643000D01*
X-7717211Y-6643000D01*
X-7907897Y-6680930D01*
X-8087520Y-6755332D01*
X-8249176Y-6863347D01*
X-8386653Y-7000824D01*
X-8494668Y-7162480D01*
X-8569070Y-7342103D01*
X-8607000Y-7532789D01*
X-8607000Y-7727211D01*
X-8569070Y-7917897D01*
X-8494668Y-8097520D01*
X-8386653Y-8259176D01*
X-8249176Y-8396653D01*
X-8087520Y-8504668D01*
X-7907897Y-8579070D01*
X-7717211Y-8617000D01*
X-7522789Y-8617000D01*
X-7332103Y-8579070D01*
X-7152480Y-8504668D01*
X-6990824Y-8396653D01*
X-6853347Y-8259176D01*
X-6749999Y-8104505D01*
X-6749999Y-8275735D01*
X-7657263Y-9183000D01*
X-7717211Y-9183000D01*
X-7907897Y-9220930D01*
X-8087520Y-9295332D01*
X-8249176Y-9403347D01*
X-8386653Y-9540824D01*
X-8494668Y-9702480D01*
X-8569070Y-9882103D01*
X-8607000Y-10072789D01*
X-8607000Y-10267211D01*
X-8569070Y-10457897D01*
X-8494668Y-10637520D01*
X-8386653Y-10799176D01*
X-8249176Y-10936653D01*
X-8087520Y-11044668D01*
X-7907897Y-11119070D01*
X-7717211Y-11157000D01*
X-7522789Y-11157000D01*
X-7332103Y-11119070D01*
X-7152480Y-11044668D01*
X-6990824Y-10936653D01*
X-6853347Y-10799176D01*
X-6745332Y-10637520D01*
X-6670930Y-10457897D01*
X-6633000Y-10267211D01*
X-6633000Y-10072789D01*
X-6670930Y-9882103D01*
X-6745332Y-9702480D01*
X-6853347Y-9540824D01*
X-6990824Y-9403347D01*
X-7013759Y-9388022D01*
X-6504666Y-8878929D01*
X-6495939Y-8899997D01*
X-6443956Y-8977795D01*
X-6423139Y-8998612D01*
X-6425611Y-8999934D01*
X-6493967Y-9056033D01*
X-6550066Y-9124389D01*
X-6591751Y-9202376D01*
X-6617420Y-9286997D01*
X-6626088Y-9375000D01*
X-6626088Y-9875000D01*
X-6617420Y-9963003D01*
X-6591751Y-10047624D01*
X-6550066Y-10125611D01*
X-6493967Y-10193967D01*
X-6425611Y-10250066D01*
X-6347624Y-10291751D01*
X-6263003Y-10317420D01*
X-6249999Y-10318701D01*
X-6249999Y-10472072D01*
X-6303388Y-10500609D01*
X-6358863Y-10546137D01*
X-6404391Y-10601612D01*
X-6438221Y-10664904D01*
X-6459054Y-10733580D01*
X-6466088Y-10805000D01*
X-6466088Y-11145000D01*
X-6459054Y-11216420D01*
X-6438221Y-11285096D01*
X-6416892Y-11325000D01*
X-8770000Y-11325000D01*
X-8770000Y-1987725D01*
X-8770086Y-1986852D01*
X-8770102Y-1984563D01*
X-8771289Y-1973274D01*
X-8771289Y-1961923D01*
X-8771654Y-1958451D01*
X-8792973Y-1768381D01*
X-8797684Y-1746216D01*
X-8802085Y-1723990D01*
X-8803117Y-1720655D01*
X-8860949Y-1538345D01*
X-8869880Y-1517506D01*
X-8878510Y-1496569D01*
X-8880166Y-1493507D01*
X-8880170Y-1493498D01*
X-8880175Y-1493491D01*
X-8925000Y-1411955D01*
X-8925000Y-1096751D01*
X-8881044Y-1052795D01*
X-8829061Y-974997D01*
X-8793254Y-888552D01*
X-8775000Y-796783D01*
X-8775000Y-703217D01*
X-8793254Y-611448D01*
X-8829061Y-525003D01*
X-8881044Y-447205D01*
X-8925000Y-403249D01*
X-8925000Y-346751D01*
X-8881044Y-302795D01*
X-8829061Y-224997D01*
X-8793254Y-138552D01*
X-8775000Y-46783D01*
X-8775000Y46783D01*
X-8793254Y138552D01*
X-8829061Y224997D01*
X-8881044Y302795D01*
X-8925000Y346751D01*
X-8925000Y403249D01*
X-8881044Y447205D01*
X-8829061Y525003D01*
X-8793254Y611448D01*
X-8775000Y703217D01*
X-8775000Y796783D01*
X-8793254Y888552D01*
X-8829061Y974997D01*
X-8881044Y1052795D01*
X-8925000Y1096751D01*
X-8925000Y1411777D01*
X-8873208Y1509184D01*
X-8864583Y1530110D01*
X-8855647Y1550958D01*
X-8854617Y1554287D01*
X-8854614Y1554294D01*
X-8854613Y1554301D01*
X-8799334Y1737392D01*
X-8794935Y1759610D01*
X-8790222Y1781782D01*
X-8789857Y1785254D01*
X-8771193Y1975604D01*
X-8771193Y1975613D01*
X-8770000Y1987725D01*
X-8770000Y4266963D01*
X-8169893Y4266963D01*
X-8078564Y4134308D01*
X-7887208Y4062825D01*
X-7685583Y4030047D01*
X-7481438Y4037235D01*
X-7282618Y4084112D01*
X-7161436Y4134308D01*
X-7070107Y4266963D01*
X-7620000Y4816856D01*
X-8169893Y4266963D01*
X-8770000Y4266963D01*
X-8770000Y5135583D01*
X-8659953Y5135583D01*
X-8652765Y4931438D01*
X-8605888Y4732618D01*
X-8555692Y4611436D01*
X-8423037Y4520107D01*
X-7873144Y5070000D01*
X-7366856Y5070000D01*
X-6816963Y4520107D01*
X-6684308Y4611436D01*
X-6612825Y4802792D01*
X-6580047Y5004417D01*
X-6587235Y5208562D01*
X-6634112Y5407382D01*
X-6684308Y5528564D01*
X-6816963Y5619893D01*
X-7366856Y5070000D01*
X-7873144Y5070000D01*
X-8423037Y5619893D01*
X-8555692Y5528564D01*
X-8627175Y5337208D01*
X-8659953Y5135583D01*
X-8770000Y5135583D01*
X-8770000Y5873037D01*
X-8169893Y5873037D01*
X-7620000Y5323144D01*
X-7070107Y5873037D01*
X-7161436Y6005692D01*
X-7352792Y6077175D01*
X-7554417Y6109953D01*
X-7758562Y6102765D01*
X-7957382Y6055888D01*
X-8078564Y6005692D01*
X-8169893Y5873037D01*
X-8770000Y5873037D01*
X-8770000Y6806963D01*
X-8169893Y6806963D01*
X-8078564Y6674308D01*
X-7887208Y6602825D01*
X-7685583Y6570047D01*
X-7481438Y6577235D01*
X-7282618Y6624112D01*
X-7161436Y6674308D01*
X-7070107Y6806963D01*
X-7620000Y7356856D01*
X-8169893Y6806963D01*
X-8770000Y6806963D01*
X-8770000Y7675583D01*
X-8659953Y7675583D01*
X-8652765Y7471438D01*
X-8605888Y7272618D01*
X-8555692Y7151436D01*
X-8423037Y7060107D01*
X-7873144Y7610000D01*
X-7366856Y7610000D01*
X-6816963Y7060107D01*
X-6684308Y7151436D01*
X-6612825Y7342792D01*
X-6580047Y7544417D01*
X-6587235Y7748562D01*
X-6634112Y7947382D01*
X-6684308Y8068564D01*
X-6816963Y8159893D01*
X-7366856Y7610000D01*
X-7873144Y7610000D01*
X-8423037Y8159893D01*
X-8555692Y8068564D01*
X-8627175Y7877208D01*
X-8659953Y7675583D01*
X-8770000Y7675583D01*
X-8770000Y8413037D01*
X-8169893Y8413037D01*
X-7620000Y7863144D01*
X-7070107Y8413037D01*
X-7161436Y8545692D01*
X-7352792Y8617175D01*
X-7554417Y8649953D01*
X-7758562Y8642765D01*
X-7957382Y8595888D01*
X-8078564Y8545692D01*
X-8169893Y8413037D01*
X-8770000Y8413037D01*
X-8770000Y10247211D01*
X-8607000Y10247211D01*
X-8607000Y10052789D01*
X-8569070Y9862103D01*
X-8494668Y9682480D01*
X-8386653Y9520824D01*
X-8249176Y9383347D01*
X-8087520Y9275332D01*
X-7907897Y9200930D01*
X-7717211Y9163000D01*
X-7522789Y9163000D01*
X-7332103Y9200930D01*
X-7152480Y9275332D01*
X-6990824Y9383347D01*
X-6853347Y9520824D01*
X-6745332Y9682480D01*
X-6670930Y9862103D01*
X-6633000Y10052789D01*
X-6633000Y10247211D01*
X-6670930Y10437897D01*
X-6745332Y10617520D01*
X-6853347Y10779176D01*
X-6990824Y10916653D01*
X-7152480Y11024668D01*
X-7332103Y11099070D01*
X-7522789Y11137000D01*
X-7717211Y11137000D01*
X-7907897Y11099070D01*
X-8087520Y11024668D01*
X-8249176Y10916653D01*
X-8386653Y10779176D01*
X-8494668Y10617520D01*
X-8569070Y10437897D01*
X-8607000Y10247211D01*
X-8770000Y10247211D01*
X-8770000Y12787211D01*
X-8607000Y12787211D01*
X-8607000Y12592789D01*
X-8569070Y12402103D01*
X-8494668Y12222480D01*
X-8386653Y12060824D01*
X-8249176Y11923347D01*
X-8087520Y11815332D01*
X-7907897Y11740930D01*
X-7717211Y11703000D01*
X-7522789Y11703000D01*
X-7332103Y11740930D01*
X-7152480Y11815332D01*
X-6990824Y11923347D01*
X-6853347Y12060824D01*
X-6745332Y12222480D01*
X-6670930Y12402103D01*
X-6633000Y12592789D01*
X-6633000Y12787211D01*
X-6670930Y12977897D01*
X-6745332Y13157520D01*
X-6853347Y13319176D01*
X-6990824Y13456653D01*
X-7152480Y13564668D01*
X-7332103Y13639070D01*
X-7522789Y13677000D01*
X-7717211Y13677000D01*
X-7907897Y13639070D01*
X-8087520Y13564668D01*
X-8249176Y13456653D01*
X-8386653Y13319176D01*
X-8494668Y13157520D01*
X-8569070Y12977897D01*
X-8607000Y12787211D01*
X-8770000Y12787211D01*
X-8770000Y15237771D01*
X-8746922Y15473137D01*
X-8682119Y15687775D01*
X-8576860Y15885739D01*
X-8435156Y16059485D01*
X-8262402Y16202399D01*
X-8065181Y16309036D01*
X-7850994Y16375338D01*
X-7616352Y16400000D01*
X-6162624Y16400000D01*
X-6180731Y16377936D01*
%TA.AperFunction,Conductor*%
D31*
G36*
X-6180731Y16377936D02*
G01*
X-6248053Y16251987D01*
X-6289509Y16115324D01*
X-6300000Y16008806D01*
X-6299999Y14737593D01*
X-6289508Y14631075D01*
X-6248052Y14494412D01*
X-6180730Y14368463D01*
X-6090131Y14258068D01*
X-5979736Y14167469D01*
X-5853787Y14100147D01*
X-5717124Y14058691D01*
X-5575000Y14044693D01*
X-5432875Y14058691D01*
X-5296212Y14100147D01*
X-5170263Y14167469D01*
X-5059868Y14258068D01*
X-4969269Y14368463D01*
X-4901947Y14494412D01*
X-4860491Y14631075D01*
X-4850000Y14737593D01*
X-4849999Y12062284D01*
X-4850000Y12062274D01*
X-4850000Y11908807D01*
X-4860491Y12015325D01*
X-4901947Y12151988D01*
X-4969269Y12277937D01*
X-5059869Y12388332D01*
X-5170264Y12478931D01*
X-5296213Y12546253D01*
X-5432876Y12587709D01*
X-5575000Y12601707D01*
X-5717125Y12587709D01*
X-5853788Y12546253D01*
X-5979737Y12478931D01*
X-6090132Y12388331D01*
X-6180731Y12277936D01*
X-6248053Y12151987D01*
X-6289509Y12015324D01*
X-6300000Y11908806D01*
X-6300000Y11037593D01*
X-6289509Y10931075D01*
X-6248052Y10794412D01*
X-6180730Y10668463D01*
X-6090131Y10558068D01*
X-5979736Y10467469D01*
X-5853787Y10400147D01*
X-5717124Y10358691D01*
X-5575000Y10344693D01*
X-5432875Y10358691D01*
X-5296212Y10400147D01*
X-5170263Y10467469D01*
X-5059868Y10558068D01*
X-4969269Y10668463D01*
X-4901947Y10794412D01*
X-4860491Y10931075D01*
X-4850000Y11037593D01*
X-4850000Y11137726D01*
X-4846382Y11100992D01*
X-4832087Y11053866D01*
X-4808873Y11010436D01*
X-4777632Y10972368D01*
X-4739564Y10941127D01*
X-4696134Y10917913D01*
X-4649008Y10903618D01*
X-4612275Y10900000D01*
X-4600000Y10898791D01*
X-4587725Y10900000D01*
X-3745391Y10900000D01*
X-3744700Y10820950D01*
X-3675950Y10752200D01*
X-3378700Y10752200D01*
X-3378700Y10772200D01*
X-3020700Y10772200D01*
X-3020700Y10752200D01*
X-3000700Y10752200D01*
X-3000700Y10394200D01*
X-3020700Y10394200D01*
X-3020700Y10374200D01*
X-3378700Y10374200D01*
X-3378700Y10394200D01*
X-3675950Y10394200D01*
X-3744700Y10325450D01*
X-3746031Y10173200D01*
X-3740721Y10119290D01*
X-3727616Y10076088D01*
X-4150000Y10076088D01*
X-4194108Y10071744D01*
X-4236520Y10058878D01*
X-4275608Y10037985D01*
X-4309868Y10009868D01*
X-4337985Y9975608D01*
X-4358878Y9936520D01*
X-4371744Y9894108D01*
X-4376088Y9850000D01*
X-4376088Y9756659D01*
X-4404200Y9748131D01*
X-4404202Y9748130D01*
X-4435438Y9731434D01*
X-4469347Y9713309D01*
X-4526448Y9666448D01*
X-4538189Y9652141D01*
X-6382138Y7808191D01*
X-6396447Y7796448D01*
X-6408189Y7782140D01*
X-6443309Y7739346D01*
X-6474472Y7681044D01*
X-6478130Y7674200D01*
X-6499321Y7604342D01*
X-6499573Y7603512D01*
X-6506814Y7530000D01*
X-6504999Y7511574D01*
X-6505000Y3168419D01*
X-6506814Y3150000D01*
X-6505000Y3131584D01*
X-6505000Y3131582D01*
X-6504999Y3131572D01*
X-6505000Y2575000D01*
X-6560737Y2575000D01*
X-6637979Y2652242D01*
X-6670930Y2817897D01*
X-6745332Y2997520D01*
X-6853347Y3159176D01*
X-6990824Y3296653D01*
X-7152480Y3404668D01*
X-7332103Y3479070D01*
X-7522789Y3517000D01*
X-7717211Y3517000D01*
X-7907897Y3479070D01*
X-8087520Y3404668D01*
X-8249176Y3296653D01*
X-8386653Y3159176D01*
X-8494668Y2997520D01*
X-8569070Y2817897D01*
X-8607000Y2627211D01*
X-8607000Y2432789D01*
X-8569070Y2242103D01*
X-8494668Y2062480D01*
X-8386653Y1900824D01*
X-8249176Y1763347D01*
X-8087520Y1655332D01*
X-7907897Y1580930D01*
X-7717211Y1543000D01*
X-7522789Y1543000D01*
X-7332103Y1580930D01*
X-7152480Y1655332D01*
X-6990824Y1763347D01*
X-6853347Y1900824D01*
X-6839999Y1920801D01*
X-6840000Y599200D01*
X-6853347Y619176D01*
X-6990824Y756653D01*
X-7152480Y864668D01*
X-7332103Y939070D01*
X-7522789Y977000D01*
X-7717211Y977000D01*
X-7907897Y939070D01*
X-8087520Y864668D01*
X-8249176Y756653D01*
X-8386653Y619176D01*
X-8494668Y457520D01*
X-8569070Y277897D01*
X-8607000Y87211D01*
X-8607000Y-107211D01*
X-8569070Y-297897D01*
X-8494668Y-477520D01*
X-8386653Y-639176D01*
X-8249176Y-776653D01*
X-8087520Y-884668D01*
X-7907897Y-959070D01*
X-7717211Y-997000D01*
X-7522789Y-997000D01*
X-7332103Y-959070D01*
X-7152480Y-884668D01*
X-7095761Y-846770D01*
X-7105000Y-893217D01*
X-7105000Y-986783D01*
X-7086746Y-1078552D01*
X-7050939Y-1164997D01*
X-6998956Y-1242795D01*
X-6932795Y-1308956D01*
X-6854997Y-1360939D01*
X-6825000Y-1373364D01*
X-6825000Y-1963248D01*
X-6853347Y-1920824D01*
X-6990824Y-1783347D01*
X-7152480Y-1675332D01*
X-7332103Y-1600930D01*
X-7522789Y-1563000D01*
X-7717211Y-1563000D01*
X-7907897Y-1600930D01*
X-8087520Y-1675332D01*
X-8249176Y-1783347D01*
X-8386653Y-1920824D01*
X-8494668Y-2082480D01*
X-8569070Y-2262103D01*
X-8607000Y-2452789D01*
X-8607000Y-2647211D01*
X-8569070Y-2837897D01*
X-8494668Y-3017520D01*
X-8386653Y-3179176D01*
X-8249176Y-3316653D01*
X-8087520Y-3424668D01*
X-7907897Y-3499070D01*
X-7717211Y-3537000D01*
X-7522789Y-3537000D01*
X-7332103Y-3499070D01*
X-7152480Y-3424668D01*
X-6990824Y-3316653D01*
X-6853347Y-3179176D01*
X-6825000Y-3136752D01*
X-6825000Y-3250000D01*
X-6823559Y-3264632D01*
X-6819291Y-3278701D01*
X-6812360Y-3291668D01*
X-6803033Y-3303033D01*
X-6791668Y-3312360D01*
X-6778701Y-3319291D01*
X-6764632Y-3323559D01*
X-6750000Y-3325000D01*
X-6750000Y-4615494D01*
X-6853347Y-4460824D01*
X-6990824Y-4323347D01*
X-7152480Y-4215332D01*
X-7332103Y-4140930D01*
X-7522789Y-4103000D01*
X-7717211Y-4103000D01*
X-7907897Y-4140930D01*
X-8087520Y-4215332D01*
X-8249176Y-4323347D01*
X-8386653Y-4460824D01*
X-8494668Y-4622480D01*
X-8569070Y-4802103D01*
X-8607000Y-4992789D01*
X-8607000Y-5187211D01*
X-8569070Y-5377897D01*
X-8494668Y-5557520D01*
X-8386653Y-5719176D01*
X-8249176Y-5856653D01*
X-8087520Y-5964668D01*
X-7907897Y-6039070D01*
X-7717211Y-6077000D01*
X-7522789Y-6077000D01*
X-7332103Y-6039070D01*
X-7152480Y-5964668D01*
X-6990824Y-5856653D01*
X-6853347Y-5719176D01*
X-6749999Y-5564505D01*
X-6749999Y-7155495D01*
X-6853347Y-7000824D01*
X-6990824Y-6863347D01*
X-7152480Y-6755332D01*
X-7332103Y-6680930D01*
X-7522789Y-6643000D01*
X-7717211Y-6643000D01*
X-7907897Y-6680930D01*
X-8087520Y-6755332D01*
X-8249176Y-6863347D01*
X-8386653Y-7000824D01*
X-8494668Y-7162480D01*
X-8569070Y-7342103D01*
X-8607000Y-7532789D01*
X-8607000Y-7727211D01*
X-8569070Y-7917897D01*
X-8494668Y-8097520D01*
X-8386653Y-8259176D01*
X-8249176Y-8396653D01*
X-8087520Y-8504668D01*
X-7907897Y-8579070D01*
X-7717211Y-8617000D01*
X-7522789Y-8617000D01*
X-7332103Y-8579070D01*
X-7152480Y-8504668D01*
X-6990824Y-8396653D01*
X-6853347Y-8259176D01*
X-6749999Y-8104505D01*
X-6749999Y-8275735D01*
X-7657263Y-9183000D01*
X-7717211Y-9183000D01*
X-7907897Y-9220930D01*
X-8087520Y-9295332D01*
X-8249176Y-9403347D01*
X-8386653Y-9540824D01*
X-8494668Y-9702480D01*
X-8569070Y-9882103D01*
X-8607000Y-10072789D01*
X-8607000Y-10267211D01*
X-8569070Y-10457897D01*
X-8494668Y-10637520D01*
X-8386653Y-10799176D01*
X-8249176Y-10936653D01*
X-8087520Y-11044668D01*
X-7907897Y-11119070D01*
X-7717211Y-11157000D01*
X-7522789Y-11157000D01*
X-7332103Y-11119070D01*
X-7152480Y-11044668D01*
X-6990824Y-10936653D01*
X-6853347Y-10799176D01*
X-6745332Y-10637520D01*
X-6670930Y-10457897D01*
X-6633000Y-10267211D01*
X-6633000Y-10072789D01*
X-6670930Y-9882103D01*
X-6745332Y-9702480D01*
X-6853347Y-9540824D01*
X-6990824Y-9403347D01*
X-7013759Y-9388022D01*
X-6504666Y-8878929D01*
X-6495939Y-8899997D01*
X-6443956Y-8977795D01*
X-6423139Y-8998612D01*
X-6425611Y-8999934D01*
X-6493967Y-9056033D01*
X-6550066Y-9124389D01*
X-6591751Y-9202376D01*
X-6617420Y-9286997D01*
X-6626088Y-9375000D01*
X-6626088Y-9875000D01*
X-6617420Y-9963003D01*
X-6591751Y-10047624D01*
X-6550066Y-10125611D01*
X-6493967Y-10193967D01*
X-6425611Y-10250066D01*
X-6347624Y-10291751D01*
X-6263003Y-10317420D01*
X-6249999Y-10318701D01*
X-6249999Y-10472072D01*
X-6303388Y-10500609D01*
X-6358863Y-10546137D01*
X-6404391Y-10601612D01*
X-6438221Y-10664904D01*
X-6459054Y-10733580D01*
X-6466088Y-10805000D01*
X-6466088Y-11145000D01*
X-6459054Y-11216420D01*
X-6438221Y-11285096D01*
X-6416892Y-11325000D01*
X-8770000Y-11325000D01*
X-8770000Y-1987725D01*
X-8770086Y-1986852D01*
X-8770102Y-1984563D01*
X-8771289Y-1973274D01*
X-8771289Y-1961923D01*
X-8771654Y-1958451D01*
X-8792973Y-1768381D01*
X-8797684Y-1746216D01*
X-8802085Y-1723990D01*
X-8803117Y-1720655D01*
X-8860949Y-1538345D01*
X-8869880Y-1517506D01*
X-8878510Y-1496569D01*
X-8880166Y-1493507D01*
X-8880170Y-1493498D01*
X-8880175Y-1493491D01*
X-8925000Y-1411955D01*
X-8925000Y-1096751D01*
X-8881044Y-1052795D01*
X-8829061Y-974997D01*
X-8793254Y-888552D01*
X-8775000Y-796783D01*
X-8775000Y-703217D01*
X-8793254Y-611448D01*
X-8829061Y-525003D01*
X-8881044Y-447205D01*
X-8925000Y-403249D01*
X-8925000Y-346751D01*
X-8881044Y-302795D01*
X-8829061Y-224997D01*
X-8793254Y-138552D01*
X-8775000Y-46783D01*
X-8775000Y46783D01*
X-8793254Y138552D01*
X-8829061Y224997D01*
X-8881044Y302795D01*
X-8925000Y346751D01*
X-8925000Y403249D01*
X-8881044Y447205D01*
X-8829061Y525003D01*
X-8793254Y611448D01*
X-8775000Y703217D01*
X-8775000Y796783D01*
X-8793254Y888552D01*
X-8829061Y974997D01*
X-8881044Y1052795D01*
X-8925000Y1096751D01*
X-8925000Y1411777D01*
X-8873208Y1509184D01*
X-8864583Y1530110D01*
X-8855647Y1550958D01*
X-8854617Y1554287D01*
X-8854614Y1554294D01*
X-8854613Y1554301D01*
X-8799334Y1737392D01*
X-8794935Y1759610D01*
X-8790222Y1781782D01*
X-8789857Y1785254D01*
X-8771193Y1975604D01*
X-8771193Y1975613D01*
X-8770000Y1987725D01*
X-8770000Y4266963D01*
X-8169893Y4266963D01*
X-8078564Y4134308D01*
X-7887208Y4062825D01*
X-7685583Y4030047D01*
X-7481438Y4037235D01*
X-7282618Y4084112D01*
X-7161436Y4134308D01*
X-7070107Y4266963D01*
X-7620000Y4816856D01*
X-8169893Y4266963D01*
X-8770000Y4266963D01*
X-8770000Y5135583D01*
X-8659953Y5135583D01*
X-8652765Y4931438D01*
X-8605888Y4732618D01*
X-8555692Y4611436D01*
X-8423037Y4520107D01*
X-7873144Y5070000D01*
X-7366856Y5070000D01*
X-6816963Y4520107D01*
X-6684308Y4611436D01*
X-6612825Y4802792D01*
X-6580047Y5004417D01*
X-6587235Y5208562D01*
X-6634112Y5407382D01*
X-6684308Y5528564D01*
X-6816963Y5619893D01*
X-7366856Y5070000D01*
X-7873144Y5070000D01*
X-8423037Y5619893D01*
X-8555692Y5528564D01*
X-8627175Y5337208D01*
X-8659953Y5135583D01*
X-8770000Y5135583D01*
X-8770000Y5873037D01*
X-8169893Y5873037D01*
X-7620000Y5323144D01*
X-7070107Y5873037D01*
X-7161436Y6005692D01*
X-7352792Y6077175D01*
X-7554417Y6109953D01*
X-7758562Y6102765D01*
X-7957382Y6055888D01*
X-8078564Y6005692D01*
X-8169893Y5873037D01*
X-8770000Y5873037D01*
X-8770000Y6806963D01*
X-8169893Y6806963D01*
X-8078564Y6674308D01*
X-7887208Y6602825D01*
X-7685583Y6570047D01*
X-7481438Y6577235D01*
X-7282618Y6624112D01*
X-7161436Y6674308D01*
X-7070107Y6806963D01*
X-7620000Y7356856D01*
X-8169893Y6806963D01*
X-8770000Y6806963D01*
X-8770000Y7675583D01*
X-8659953Y7675583D01*
X-8652765Y7471438D01*
X-8605888Y7272618D01*
X-8555692Y7151436D01*
X-8423037Y7060107D01*
X-7873144Y7610000D01*
X-7366856Y7610000D01*
X-6816963Y7060107D01*
X-6684308Y7151436D01*
X-6612825Y7342792D01*
X-6580047Y7544417D01*
X-6587235Y7748562D01*
X-6634112Y7947382D01*
X-6684308Y8068564D01*
X-6816963Y8159893D01*
X-7366856Y7610000D01*
X-7873144Y7610000D01*
X-8423037Y8159893D01*
X-8555692Y8068564D01*
X-8627175Y7877208D01*
X-8659953Y7675583D01*
X-8770000Y7675583D01*
X-8770000Y8413037D01*
X-8169893Y8413037D01*
X-7620000Y7863144D01*
X-7070107Y8413037D01*
X-7161436Y8545692D01*
X-7352792Y8617175D01*
X-7554417Y8649953D01*
X-7758562Y8642765D01*
X-7957382Y8595888D01*
X-8078564Y8545692D01*
X-8169893Y8413037D01*
X-8770000Y8413037D01*
X-8770000Y10247211D01*
X-8607000Y10247211D01*
X-8607000Y10052789D01*
X-8569070Y9862103D01*
X-8494668Y9682480D01*
X-8386653Y9520824D01*
X-8249176Y9383347D01*
X-8087520Y9275332D01*
X-7907897Y9200930D01*
X-7717211Y9163000D01*
X-7522789Y9163000D01*
X-7332103Y9200930D01*
X-7152480Y9275332D01*
X-6990824Y9383347D01*
X-6853347Y9520824D01*
X-6745332Y9682480D01*
X-6670930Y9862103D01*
X-6633000Y10052789D01*
X-6633000Y10247211D01*
X-6670930Y10437897D01*
X-6745332Y10617520D01*
X-6853347Y10779176D01*
X-6990824Y10916653D01*
X-7152480Y11024668D01*
X-7332103Y11099070D01*
X-7522789Y11137000D01*
X-7717211Y11137000D01*
X-7907897Y11099070D01*
X-8087520Y11024668D01*
X-8249176Y10916653D01*
X-8386653Y10779176D01*
X-8494668Y10617520D01*
X-8569070Y10437897D01*
X-8607000Y10247211D01*
X-8770000Y10247211D01*
X-8770000Y12787211D01*
X-8607000Y12787211D01*
X-8607000Y12592789D01*
X-8569070Y12402103D01*
X-8494668Y12222480D01*
X-8386653Y12060824D01*
X-8249176Y11923347D01*
X-8087520Y11815332D01*
X-7907897Y11740930D01*
X-7717211Y11703000D01*
X-7522789Y11703000D01*
X-7332103Y11740930D01*
X-7152480Y11815332D01*
X-6990824Y11923347D01*
X-6853347Y12060824D01*
X-6745332Y12222480D01*
X-6670930Y12402103D01*
X-6633000Y12592789D01*
X-6633000Y12787211D01*
X-6670930Y12977897D01*
X-6745332Y13157520D01*
X-6853347Y13319176D01*
X-6990824Y13456653D01*
X-7152480Y13564668D01*
X-7332103Y13639070D01*
X-7522789Y13677000D01*
X-7717211Y13677000D01*
X-7907897Y13639070D01*
X-8087520Y13564668D01*
X-8249176Y13456653D01*
X-8386653Y13319176D01*
X-8494668Y13157520D01*
X-8569070Y12977897D01*
X-8607000Y12787211D01*
X-8770000Y12787211D01*
X-8770000Y15237771D01*
X-8746922Y15473137D01*
X-8682119Y15687775D01*
X-8576860Y15885739D01*
X-8435156Y16059485D01*
X-8262402Y16202399D01*
X-8065181Y16309036D01*
X-7850994Y16375338D01*
X-7616352Y16400000D01*
X-6162624Y16400000D01*
X-6180731Y16377936D01*
G37*
%TD.AperFunction*%
D26*
X-5206000Y-7996000D02*
X-5186000Y-7996000D01*
X-5186000Y-8354000D01*
X-5206000Y-8354000D01*
X-5206000Y-8691250D01*
X-5137250Y-8760000D01*
X-5105000Y-8761331D01*
X-5051090Y-8756021D01*
X-4999253Y-8740297D01*
X-4951479Y-8714761D01*
X-4909604Y-8680396D01*
X-4875239Y-8638521D01*
X-4849703Y-8590747D01*
X-4845635Y-8577335D01*
X-4823863Y-8603863D01*
X-4768388Y-8649391D01*
X-4705096Y-8683221D01*
X-4636420Y-8704054D01*
X-4565000Y-8711088D01*
X-4285000Y-8711088D01*
X-4213580Y-8704054D01*
X-4144904Y-8683221D01*
X-4081612Y-8649391D01*
X-4026137Y-8603863D01*
X-3980609Y-8548388D01*
X-3954745Y-8500000D01*
X-3795000Y-8500000D01*
X-3795000Y-8556783D01*
X-3776746Y-8648552D01*
X-3740939Y-8734997D01*
X-3688956Y-8812795D01*
X-3622795Y-8878956D01*
X-3544997Y-8930939D01*
X-3458552Y-8966746D01*
X-3366783Y-8985000D01*
X-3273217Y-8985000D01*
X-3181448Y-8966746D01*
X-3095003Y-8930939D01*
X-3017205Y-8878956D01*
X-2951044Y-8812795D01*
X-2899061Y-8734997D01*
X-2863254Y-8648552D01*
X-2850966Y-8586774D01*
X-2784472Y-8600000D01*
X-2735000Y-8600000D01*
X-2735000Y-8686783D01*
X-2716746Y-8778552D01*
X-2680939Y-8864997D01*
X-2628956Y-8942795D01*
X-2562795Y-9008956D01*
X-2484997Y-9060939D01*
X-2398552Y-9096746D01*
X-2306783Y-9115000D01*
X-2213217Y-9115000D01*
X-2121448Y-9096746D01*
X-2035003Y-9060939D01*
X-1957205Y-9008956D01*
X-1891044Y-8942795D01*
X-1839061Y-8864997D01*
X-1803254Y-8778552D01*
X-1785000Y-8686783D01*
X-1785000Y-8599895D01*
X-1784472Y-8600000D01*
X-1743009Y-8600000D01*
X-1776746Y-8681448D01*
X-1795000Y-8773217D01*
X-1795000Y-8866783D01*
X-1776746Y-8958552D01*
X-1740939Y-9044997D01*
X-1688956Y-9122795D01*
X-1622795Y-9188956D01*
X-1544997Y-9240939D01*
X-1458552Y-9276746D01*
X-1366783Y-9295000D01*
X-1323420Y-9295000D01*
X-1335000Y-9353217D01*
X-1335000Y-9446783D01*
X-1316746Y-9538552D01*
X-1280939Y-9624997D01*
X-1228956Y-9702795D01*
X-1162795Y-9768956D01*
X-1084997Y-9820939D01*
X-998552Y-9856746D01*
X-906783Y-9875000D01*
X-813217Y-9875000D01*
X-721448Y-9856746D01*
X-635003Y-9820939D01*
X-557205Y-9768956D01*
X-491044Y-9702795D01*
X-489845Y-9701000D01*
X-479000Y-9701000D01*
X-479000Y-9684770D01*
X-476481Y-9681000D01*
X-121000Y-9681000D01*
X-121000Y-9701000D01*
X-101000Y-9701000D01*
X-101000Y-10032822D01*
X-144253Y-10009703D01*
X-196090Y-9993979D01*
X-250000Y-9988669D01*
X-452250Y-9990000D01*
X-521000Y-10058750D01*
X-521000Y-10059000D01*
X-816250Y-10059000D01*
X-879000Y-10121750D01*
X-879000Y-10058750D01*
X-947750Y-9990000D01*
X-1150000Y-9988669D01*
X-1203910Y-9993979D01*
X-1255747Y-10009703D01*
X-1303521Y-10035239D01*
X-1345396Y-10069604D01*
X-1379761Y-10111479D01*
X-1405297Y-10159253D01*
X-1421021Y-10211090D01*
X-1426331Y-10265000D01*
X-1425000Y-10492250D01*
X-1356250Y-10561000D01*
X-879000Y-10561000D01*
X-879000Y-10220573D01*
X-865297Y-10265747D01*
X-839761Y-10313521D01*
X-805396Y-10355396D01*
X-763521Y-10389761D01*
X-715747Y-10415297D01*
X-663910Y-10431021D01*
X-610000Y-10436331D01*
X-547750Y-10435000D01*
X-521000Y-10408250D01*
X-521000Y-10561000D01*
X-43750Y-10561000D01*
X25000Y-10492250D01*
X25336Y-10434820D01*
X63910Y-10431021D01*
X115747Y-10415297D01*
X163521Y-10389761D01*
X205396Y-10355396D01*
X239761Y-10313521D01*
X265297Y-10265747D01*
X281021Y-10213910D01*
X286331Y-10160000D01*
X285790Y-10146903D01*
X316873Y-10205054D01*
X363333Y-10261667D01*
X419946Y-10308127D01*
X470222Y-10335000D01*
X419946Y-10361873D01*
X363333Y-10408333D01*
X316873Y-10464946D01*
X282350Y-10529534D01*
X261090Y-10599617D01*
X253912Y-10672500D01*
X253912Y-10967500D01*
X261090Y-11040383D01*
X282350Y-11110466D01*
X316873Y-11175054D01*
X363333Y-11231667D01*
X419946Y-11278127D01*
X484534Y-11312650D01*
X525245Y-11325000D01*
X3024Y-11325000D01*
X5297Y-11320747D01*
X21021Y-11268910D01*
X26331Y-11215000D01*
X25000Y-10987750D01*
X-43750Y-10919000D01*
X-521000Y-10919000D01*
X-521000Y-10939000D01*
X-879000Y-10939000D01*
X-879000Y-10919000D01*
X-1356250Y-10919000D01*
X-1425000Y-10987750D01*
X-1426331Y-11215000D01*
X-1421021Y-11268910D01*
X-1405297Y-11320747D01*
X-1403024Y-11325000D01*
X-1725569Y-11325000D01*
X-1706033Y-11308967D01*
X-1649934Y-11240611D01*
X-1608249Y-11162624D01*
X-1582580Y-11078003D01*
X-1573912Y-10990000D01*
X-1573912Y-10523531D01*
X-1561476Y-10511095D01*
X-1549079Y-10500921D01*
X-1508465Y-10451434D01*
X-1478287Y-10394974D01*
X-1472228Y-10375000D01*
X-1459703Y-10333712D01*
X-1458158Y-10318020D01*
X-1455000Y-10285961D01*
X-1455000Y-10285954D01*
X-1453429Y-10270001D01*
X-1455000Y-10254048D01*
X-1455000Y-10136751D01*
X-1411044Y-10092795D01*
X-1359061Y-10014997D01*
X-1323254Y-9928552D01*
X-1305000Y-9836783D01*
X-1305000Y-9743217D01*
X-1323254Y-9651448D01*
X-1359061Y-9565003D01*
X-1411044Y-9487205D01*
X-1477205Y-9421044D01*
X-1555003Y-9369061D01*
X-1641448Y-9333254D01*
X-1733217Y-9315000D01*
X-1826783Y-9315000D01*
X-1918552Y-9333254D01*
X-2004997Y-9369061D01*
X-2082795Y-9421044D01*
X-2148956Y-9487205D01*
X-2200939Y-9565003D01*
X-2236746Y-9651448D01*
X-2255000Y-9743217D01*
X-2255000Y-9836783D01*
X-2236746Y-9928552D01*
X-2200939Y-10014997D01*
X-2184959Y-10038912D01*
X-2475000Y-10038912D01*
X-2563003Y-10047580D01*
X-2647624Y-10073249D01*
X-2725611Y-10114934D01*
X-2793967Y-10171033D01*
X-2850066Y-10239389D01*
X-2891751Y-10317376D01*
X-2917420Y-10401997D01*
X-2924856Y-10477495D01*
X-2944904Y-10466779D01*
X-3013580Y-10445946D01*
X-3085000Y-10438912D01*
X-3365000Y-10438912D01*
X-3436420Y-10445946D01*
X-3505096Y-10466779D01*
X-3568388Y-10500609D01*
X-3623863Y-10546137D01*
X-3645635Y-10572665D01*
X-3649703Y-10559253D01*
X-3675239Y-10511479D01*
X-3709604Y-10469604D01*
X-3751479Y-10435239D01*
X-3799253Y-10409703D01*
X-3851090Y-10393979D01*
X-3905000Y-10388669D01*
X-3937250Y-10390000D01*
X-4006000Y-10458750D01*
X-4006000Y-10796000D01*
X-3986000Y-10796000D01*
X-3986000Y-11154000D01*
X-4006000Y-11154000D01*
X-4006000Y-11174000D01*
X-4364000Y-11174000D01*
X-4364000Y-11154000D01*
X-4821000Y-11154000D01*
X-4821000Y-11174000D01*
X-5179000Y-11174000D01*
X-5179000Y-11154000D01*
X-5199000Y-11154000D01*
X-5199000Y-10796000D01*
X-5179000Y-10796000D01*
X-5179000Y-10458750D01*
X-4821000Y-10458750D01*
X-4821000Y-10796000D01*
X-4364000Y-10796000D01*
X-4364000Y-10458750D01*
X-4432750Y-10390000D01*
X-4465000Y-10388669D01*
X-4518910Y-10393979D01*
X-4570747Y-10409703D01*
X-4592500Y-10421330D01*
X-4614253Y-10409703D01*
X-4666090Y-10393979D01*
X-4720000Y-10388669D01*
X-4752250Y-10390000D01*
X-4821000Y-10458750D01*
X-5179000Y-10458750D01*
X-5247750Y-10390000D01*
X-5280000Y-10388669D01*
X-5333910Y-10393979D01*
X-5385747Y-10409703D01*
X-5433521Y-10435239D01*
X-5475396Y-10469604D01*
X-5509761Y-10511479D01*
X-5535297Y-10559253D01*
X-5539365Y-10572665D01*
X-5561137Y-10546137D01*
X-5616612Y-10500609D01*
X-5650000Y-10482763D01*
X-5650000Y-10318701D01*
X-5636997Y-10317420D01*
X-5552376Y-10291751D01*
X-5474389Y-10250066D01*
X-5406033Y-10193967D01*
X-5349934Y-10125611D01*
X-5336245Y-10100000D01*
X-5126331Y-10100000D01*
X-5121021Y-10153910D01*
X-5105297Y-10205747D01*
X-5079761Y-10253521D01*
X-5045396Y-10295396D01*
X-5003521Y-10329761D01*
X-4955747Y-10355297D01*
X-4903910Y-10371021D01*
X-4850000Y-10376331D01*
X-4647750Y-10375000D01*
X-4579000Y-10306250D01*
X-4579000Y-9804000D01*
X-4221000Y-9804000D01*
X-4221000Y-10306250D01*
X-4152250Y-10375000D01*
X-3950000Y-10376331D01*
X-3896090Y-10371021D01*
X-3844253Y-10355297D01*
X-3796479Y-10329761D01*
X-3754604Y-10295396D01*
X-3720239Y-10253521D01*
X-3694703Y-10205747D01*
X-3678979Y-10153910D01*
X-3673669Y-10100000D01*
X-3675000Y-9872750D01*
X-3743750Y-9804000D01*
X-4221000Y-9804000D01*
X-4579000Y-9804000D01*
X-5056250Y-9804000D01*
X-5125000Y-9872750D01*
X-5126331Y-10100000D01*
X-5336245Y-10100000D01*
X-5308249Y-10047624D01*
X-5282580Y-9963003D01*
X-5273912Y-9875000D01*
X-5273912Y-9375000D01*
X-5282580Y-9286997D01*
X-5308249Y-9202376D01*
X-5336244Y-9150000D01*
X-5126331Y-9150000D01*
X-5125000Y-9377250D01*
X-5056250Y-9446000D01*
X-4579000Y-9446000D01*
X-4579000Y-8943750D01*
X-4221000Y-8943750D01*
X-4221000Y-9446000D01*
X-3743750Y-9446000D01*
X-3675000Y-9377250D01*
X-3673669Y-9150000D01*
X-3678979Y-9096090D01*
X-3694703Y-9044253D01*
X-3720239Y-8996479D01*
X-3754604Y-8954604D01*
X-3796479Y-8920239D01*
X-3844253Y-8894703D01*
X-3896090Y-8878979D01*
X-3950000Y-8873669D01*
X-4152250Y-8875000D01*
X-4221000Y-8943750D01*
X-4579000Y-8943750D01*
X-4647750Y-8875000D01*
X-4850000Y-8873669D01*
X-4903910Y-8878979D01*
X-4955747Y-8894703D01*
X-5003521Y-8920239D01*
X-5045396Y-8954604D01*
X-5079761Y-8996479D01*
X-5105297Y-9044253D01*
X-5121021Y-9096090D01*
X-5126331Y-9150000D01*
X-5336244Y-9150000D01*
X-5349934Y-9124389D01*
X-5406033Y-9056033D01*
X-5474389Y-8999934D01*
X-5552376Y-8958249D01*
X-5636997Y-8932580D01*
X-5673434Y-8928991D01*
X-5654061Y-8899997D01*
X-5618254Y-8813552D01*
X-5601357Y-8728607D01*
X-5564000Y-8691250D01*
X-5564000Y-8354000D01*
X-5584000Y-8354000D01*
X-5584000Y-7996000D01*
X-5564000Y-7996000D01*
X-5564000Y-7976000D01*
X-5206000Y-7976000D01*
X-5206000Y-7996000D01*
%TA.AperFunction,Conductor*%
D31*
G36*
X-5206000Y-7996000D02*
G01*
X-5186000Y-7996000D01*
X-5186000Y-8354000D01*
X-5206000Y-8354000D01*
X-5206000Y-8691250D01*
X-5137250Y-8760000D01*
X-5105000Y-8761331D01*
X-5051090Y-8756021D01*
X-4999253Y-8740297D01*
X-4951479Y-8714761D01*
X-4909604Y-8680396D01*
X-4875239Y-8638521D01*
X-4849703Y-8590747D01*
X-4845635Y-8577335D01*
X-4823863Y-8603863D01*
X-4768388Y-8649391D01*
X-4705096Y-8683221D01*
X-4636420Y-8704054D01*
X-4565000Y-8711088D01*
X-4285000Y-8711088D01*
X-4213580Y-8704054D01*
X-4144904Y-8683221D01*
X-4081612Y-8649391D01*
X-4026137Y-8603863D01*
X-3980609Y-8548388D01*
X-3954745Y-8500000D01*
X-3795000Y-8500000D01*
X-3795000Y-8556783D01*
X-3776746Y-8648552D01*
X-3740939Y-8734997D01*
X-3688956Y-8812795D01*
X-3622795Y-8878956D01*
X-3544997Y-8930939D01*
X-3458552Y-8966746D01*
X-3366783Y-8985000D01*
X-3273217Y-8985000D01*
X-3181448Y-8966746D01*
X-3095003Y-8930939D01*
X-3017205Y-8878956D01*
X-2951044Y-8812795D01*
X-2899061Y-8734997D01*
X-2863254Y-8648552D01*
X-2850966Y-8586774D01*
X-2784472Y-8600000D01*
X-2735000Y-8600000D01*
X-2735000Y-8686783D01*
X-2716746Y-8778552D01*
X-2680939Y-8864997D01*
X-2628956Y-8942795D01*
X-2562795Y-9008956D01*
X-2484997Y-9060939D01*
X-2398552Y-9096746D01*
X-2306783Y-9115000D01*
X-2213217Y-9115000D01*
X-2121448Y-9096746D01*
X-2035003Y-9060939D01*
X-1957205Y-9008956D01*
X-1891044Y-8942795D01*
X-1839061Y-8864997D01*
X-1803254Y-8778552D01*
X-1785000Y-8686783D01*
X-1785000Y-8599895D01*
X-1784472Y-8600000D01*
X-1743009Y-8600000D01*
X-1776746Y-8681448D01*
X-1795000Y-8773217D01*
X-1795000Y-8866783D01*
X-1776746Y-8958552D01*
X-1740939Y-9044997D01*
X-1688956Y-9122795D01*
X-1622795Y-9188956D01*
X-1544997Y-9240939D01*
X-1458552Y-9276746D01*
X-1366783Y-9295000D01*
X-1323420Y-9295000D01*
X-1335000Y-9353217D01*
X-1335000Y-9446783D01*
X-1316746Y-9538552D01*
X-1280939Y-9624997D01*
X-1228956Y-9702795D01*
X-1162795Y-9768956D01*
X-1084997Y-9820939D01*
X-998552Y-9856746D01*
X-906783Y-9875000D01*
X-813217Y-9875000D01*
X-721448Y-9856746D01*
X-635003Y-9820939D01*
X-557205Y-9768956D01*
X-491044Y-9702795D01*
X-489845Y-9701000D01*
X-479000Y-9701000D01*
X-479000Y-9684770D01*
X-476481Y-9681000D01*
X-121000Y-9681000D01*
X-121000Y-9701000D01*
X-101000Y-9701000D01*
X-101000Y-10032822D01*
X-144253Y-10009703D01*
X-196090Y-9993979D01*
X-250000Y-9988669D01*
X-452250Y-9990000D01*
X-521000Y-10058750D01*
X-521000Y-10059000D01*
X-816250Y-10059000D01*
X-879000Y-10121750D01*
X-879000Y-10058750D01*
X-947750Y-9990000D01*
X-1150000Y-9988669D01*
X-1203910Y-9993979D01*
X-1255747Y-10009703D01*
X-1303521Y-10035239D01*
X-1345396Y-10069604D01*
X-1379761Y-10111479D01*
X-1405297Y-10159253D01*
X-1421021Y-10211090D01*
X-1426331Y-10265000D01*
X-1425000Y-10492250D01*
X-1356250Y-10561000D01*
X-879000Y-10561000D01*
X-879000Y-10220573D01*
X-865297Y-10265747D01*
X-839761Y-10313521D01*
X-805396Y-10355396D01*
X-763521Y-10389761D01*
X-715747Y-10415297D01*
X-663910Y-10431021D01*
X-610000Y-10436331D01*
X-547750Y-10435000D01*
X-521000Y-10408250D01*
X-521000Y-10561000D01*
X-43750Y-10561000D01*
X25000Y-10492250D01*
X25336Y-10434820D01*
X63910Y-10431021D01*
X115747Y-10415297D01*
X163521Y-10389761D01*
X205396Y-10355396D01*
X239761Y-10313521D01*
X265297Y-10265747D01*
X281021Y-10213910D01*
X286331Y-10160000D01*
X285790Y-10146903D01*
X316873Y-10205054D01*
X363333Y-10261667D01*
X419946Y-10308127D01*
X470222Y-10335000D01*
X419946Y-10361873D01*
X363333Y-10408333D01*
X316873Y-10464946D01*
X282350Y-10529534D01*
X261090Y-10599617D01*
X253912Y-10672500D01*
X253912Y-10967500D01*
X261090Y-11040383D01*
X282350Y-11110466D01*
X316873Y-11175054D01*
X363333Y-11231667D01*
X419946Y-11278127D01*
X484534Y-11312650D01*
X525245Y-11325000D01*
X3024Y-11325000D01*
X5297Y-11320747D01*
X21021Y-11268910D01*
X26331Y-11215000D01*
X25000Y-10987750D01*
X-43750Y-10919000D01*
X-521000Y-10919000D01*
X-521000Y-10939000D01*
X-879000Y-10939000D01*
X-879000Y-10919000D01*
X-1356250Y-10919000D01*
X-1425000Y-10987750D01*
X-1426331Y-11215000D01*
X-1421021Y-11268910D01*
X-1405297Y-11320747D01*
X-1403024Y-11325000D01*
X-1725569Y-11325000D01*
X-1706033Y-11308967D01*
X-1649934Y-11240611D01*
X-1608249Y-11162624D01*
X-1582580Y-11078003D01*
X-1573912Y-10990000D01*
X-1573912Y-10523531D01*
X-1561476Y-10511095D01*
X-1549079Y-10500921D01*
X-1508465Y-10451434D01*
X-1478287Y-10394974D01*
X-1472228Y-10375000D01*
X-1459703Y-10333712D01*
X-1458158Y-10318020D01*
X-1455000Y-10285961D01*
X-1455000Y-10285954D01*
X-1453429Y-10270001D01*
X-1455000Y-10254048D01*
X-1455000Y-10136751D01*
X-1411044Y-10092795D01*
X-1359061Y-10014997D01*
X-1323254Y-9928552D01*
X-1305000Y-9836783D01*
X-1305000Y-9743217D01*
X-1323254Y-9651448D01*
X-1359061Y-9565003D01*
X-1411044Y-9487205D01*
X-1477205Y-9421044D01*
X-1555003Y-9369061D01*
X-1641448Y-9333254D01*
X-1733217Y-9315000D01*
X-1826783Y-9315000D01*
X-1918552Y-9333254D01*
X-2004997Y-9369061D01*
X-2082795Y-9421044D01*
X-2148956Y-9487205D01*
X-2200939Y-9565003D01*
X-2236746Y-9651448D01*
X-2255000Y-9743217D01*
X-2255000Y-9836783D01*
X-2236746Y-9928552D01*
X-2200939Y-10014997D01*
X-2184959Y-10038912D01*
X-2475000Y-10038912D01*
X-2563003Y-10047580D01*
X-2647624Y-10073249D01*
X-2725611Y-10114934D01*
X-2793967Y-10171033D01*
X-2850066Y-10239389D01*
X-2891751Y-10317376D01*
X-2917420Y-10401997D01*
X-2924856Y-10477495D01*
X-2944904Y-10466779D01*
X-3013580Y-10445946D01*
X-3085000Y-10438912D01*
X-3365000Y-10438912D01*
X-3436420Y-10445946D01*
X-3505096Y-10466779D01*
X-3568388Y-10500609D01*
X-3623863Y-10546137D01*
X-3645635Y-10572665D01*
X-3649703Y-10559253D01*
X-3675239Y-10511479D01*
X-3709604Y-10469604D01*
X-3751479Y-10435239D01*
X-3799253Y-10409703D01*
X-3851090Y-10393979D01*
X-3905000Y-10388669D01*
X-3937250Y-10390000D01*
X-4006000Y-10458750D01*
X-4006000Y-10796000D01*
X-3986000Y-10796000D01*
X-3986000Y-11154000D01*
X-4006000Y-11154000D01*
X-4006000Y-11174000D01*
X-4364000Y-11174000D01*
X-4364000Y-11154000D01*
X-4821000Y-11154000D01*
X-4821000Y-11174000D01*
X-5179000Y-11174000D01*
X-5179000Y-11154000D01*
X-5199000Y-11154000D01*
X-5199000Y-10796000D01*
X-5179000Y-10796000D01*
X-5179000Y-10458750D01*
X-4821000Y-10458750D01*
X-4821000Y-10796000D01*
X-4364000Y-10796000D01*
X-4364000Y-10458750D01*
X-4432750Y-10390000D01*
X-4465000Y-10388669D01*
X-4518910Y-10393979D01*
X-4570747Y-10409703D01*
X-4592500Y-10421330D01*
X-4614253Y-10409703D01*
X-4666090Y-10393979D01*
X-4720000Y-10388669D01*
X-4752250Y-10390000D01*
X-4821000Y-10458750D01*
X-5179000Y-10458750D01*
X-5247750Y-10390000D01*
X-5280000Y-10388669D01*
X-5333910Y-10393979D01*
X-5385747Y-10409703D01*
X-5433521Y-10435239D01*
X-5475396Y-10469604D01*
X-5509761Y-10511479D01*
X-5535297Y-10559253D01*
X-5539365Y-10572665D01*
X-5561137Y-10546137D01*
X-5616612Y-10500609D01*
X-5650000Y-10482763D01*
X-5650000Y-10318701D01*
X-5636997Y-10317420D01*
X-5552376Y-10291751D01*
X-5474389Y-10250066D01*
X-5406033Y-10193967D01*
X-5349934Y-10125611D01*
X-5336245Y-10100000D01*
X-5126331Y-10100000D01*
X-5121021Y-10153910D01*
X-5105297Y-10205747D01*
X-5079761Y-10253521D01*
X-5045396Y-10295396D01*
X-5003521Y-10329761D01*
X-4955747Y-10355297D01*
X-4903910Y-10371021D01*
X-4850000Y-10376331D01*
X-4647750Y-10375000D01*
X-4579000Y-10306250D01*
X-4579000Y-9804000D01*
X-4221000Y-9804000D01*
X-4221000Y-10306250D01*
X-4152250Y-10375000D01*
X-3950000Y-10376331D01*
X-3896090Y-10371021D01*
X-3844253Y-10355297D01*
X-3796479Y-10329761D01*
X-3754604Y-10295396D01*
X-3720239Y-10253521D01*
X-3694703Y-10205747D01*
X-3678979Y-10153910D01*
X-3673669Y-10100000D01*
X-3675000Y-9872750D01*
X-3743750Y-9804000D01*
X-4221000Y-9804000D01*
X-4579000Y-9804000D01*
X-5056250Y-9804000D01*
X-5125000Y-9872750D01*
X-5126331Y-10100000D01*
X-5336245Y-10100000D01*
X-5308249Y-10047624D01*
X-5282580Y-9963003D01*
X-5273912Y-9875000D01*
X-5273912Y-9375000D01*
X-5282580Y-9286997D01*
X-5308249Y-9202376D01*
X-5336244Y-9150000D01*
X-5126331Y-9150000D01*
X-5125000Y-9377250D01*
X-5056250Y-9446000D01*
X-4579000Y-9446000D01*
X-4579000Y-8943750D01*
X-4221000Y-8943750D01*
X-4221000Y-9446000D01*
X-3743750Y-9446000D01*
X-3675000Y-9377250D01*
X-3673669Y-9150000D01*
X-3678979Y-9096090D01*
X-3694703Y-9044253D01*
X-3720239Y-8996479D01*
X-3754604Y-8954604D01*
X-3796479Y-8920239D01*
X-3844253Y-8894703D01*
X-3896090Y-8878979D01*
X-3950000Y-8873669D01*
X-4152250Y-8875000D01*
X-4221000Y-8943750D01*
X-4579000Y-8943750D01*
X-4647750Y-8875000D01*
X-4850000Y-8873669D01*
X-4903910Y-8878979D01*
X-4955747Y-8894703D01*
X-5003521Y-8920239D01*
X-5045396Y-8954604D01*
X-5079761Y-8996479D01*
X-5105297Y-9044253D01*
X-5121021Y-9096090D01*
X-5126331Y-9150000D01*
X-5336244Y-9150000D01*
X-5349934Y-9124389D01*
X-5406033Y-9056033D01*
X-5474389Y-8999934D01*
X-5552376Y-8958249D01*
X-5636997Y-8932580D01*
X-5673434Y-8928991D01*
X-5654061Y-8899997D01*
X-5618254Y-8813552D01*
X-5601357Y-8728607D01*
X-5564000Y-8691250D01*
X-5564000Y-8354000D01*
X-5584000Y-8354000D01*
X-5584000Y-7996000D01*
X-5564000Y-7996000D01*
X-5564000Y-7976000D01*
X-5206000Y-7976000D01*
X-5206000Y-7996000D01*
G37*
%TD.AperFunction*%
D26*
X2339471Y-3342619D02*
X2369411Y-3372559D01*
X2366887Y-3378441D01*
X2350533Y-3455518D01*
X2349531Y-3534305D01*
X2363919Y-3611773D01*
X2393144Y-3684946D01*
X2397964Y-3693965D01*
X2481715Y-3697574D01*
X2679289Y-3500000D01*
X2626256Y-3446967D01*
X2696967Y-3376256D01*
X2750000Y-3429289D01*
X2803033Y-3376256D01*
X2873744Y-3446967D01*
X2820711Y-3500000D01*
X2873744Y-3553033D01*
X2803033Y-3623744D01*
X2750000Y-3570711D01*
X2659583Y-3661128D01*
X2647909Y-3663450D01*
X2584213Y-3689834D01*
X2526888Y-3728137D01*
X2478137Y-3776888D01*
X2439834Y-3834213D01*
X2413450Y-3897909D01*
X2400000Y-3965528D01*
X2400000Y-4034472D01*
X2413450Y-4102091D01*
X2439834Y-4165787D01*
X2478137Y-4223112D01*
X2505025Y-4250000D01*
X2478137Y-4276888D01*
X2439834Y-4334213D01*
X2413450Y-4397909D01*
X2400000Y-4465528D01*
X2400000Y-4534472D01*
X2413450Y-4602091D01*
X2439834Y-4665787D01*
X2478137Y-4723112D01*
X2505025Y-4750000D01*
X2478137Y-4776888D01*
X2439834Y-4834213D01*
X2413450Y-4897909D01*
X2400000Y-4965528D01*
X2400000Y-5034472D01*
X2413450Y-5102091D01*
X2439834Y-5165787D01*
X2478137Y-5223112D01*
X2505025Y-5250000D01*
X2478137Y-5276888D01*
X2439834Y-5334213D01*
X2413450Y-5397909D01*
X2400000Y-5465528D01*
X2400000Y-5534472D01*
X2413450Y-5602091D01*
X2439834Y-5665787D01*
X2478137Y-5723112D01*
X2505025Y-5750000D01*
X2478137Y-5776888D01*
X2439834Y-5834213D01*
X2413450Y-5897909D01*
X2400000Y-5965528D01*
X2400000Y-6034472D01*
X2413450Y-6102091D01*
X2439834Y-6165787D01*
X2478137Y-6223112D01*
X2493282Y-6238257D01*
X2472522Y-6249353D01*
X2452154Y-6266068D01*
X2446783Y-6265000D01*
X2353217Y-6265000D01*
X2275784Y-6280402D01*
X2275000Y-5247750D01*
X2206250Y-5179000D01*
X179000Y-5179000D01*
X179000Y-7160128D01*
X169061Y-7175003D01*
X133254Y-7261448D01*
X122000Y-7318027D01*
X106783Y-7315000D01*
X13217Y-7315000D01*
X-78552Y-7333254D01*
X-164997Y-7369061D01*
X-242795Y-7421044D01*
X-290676Y-7468925D01*
X-334213Y-7439834D01*
X-397909Y-7413450D01*
X-465528Y-7400000D01*
X-534472Y-7400000D01*
X-602091Y-7413450D01*
X-665787Y-7439834D01*
X-723112Y-7478137D01*
X-750000Y-7505025D01*
X-776888Y-7478137D01*
X-834213Y-7439834D01*
X-897909Y-7413450D01*
X-965528Y-7400000D01*
X-1034472Y-7400000D01*
X-1102091Y-7413450D01*
X-1165787Y-7439834D01*
X-1223112Y-7478137D01*
X-1250000Y-7505025D01*
X-1276888Y-7478137D01*
X-1334213Y-7439834D01*
X-1397909Y-7413450D01*
X-1465528Y-7400000D01*
X-1534472Y-7400000D01*
X-1602091Y-7413450D01*
X-1665787Y-7439834D01*
X-1723112Y-7478137D01*
X-1750000Y-7505025D01*
X-1776888Y-7478137D01*
X-1834213Y-7439834D01*
X-1897909Y-7413450D01*
X-1965528Y-7400000D01*
X-2034472Y-7400000D01*
X-2102091Y-7413450D01*
X-2118569Y-7420275D01*
X-2133254Y-7346448D01*
X-2169061Y-7260003D01*
X-2221044Y-7182205D01*
X-2287205Y-7116044D01*
X-2365003Y-7064061D01*
X-2402774Y-7048416D01*
X-2400000Y-7034472D01*
X-2400000Y-7000000D01*
X-2276331Y-7000000D01*
X-2271021Y-7053910D01*
X-2255297Y-7105747D01*
X-2229761Y-7153521D01*
X-2195396Y-7195396D01*
X-2153521Y-7229761D01*
X-2105747Y-7255297D01*
X-2053910Y-7271021D01*
X-2000000Y-7276331D01*
X-247750Y-7275000D01*
X-179000Y-7206250D01*
X-179000Y-5179000D01*
X-2206250Y-5179000D01*
X-2275000Y-5247750D01*
X-2276331Y-7000000D01*
X-2400000Y-7000000D01*
X-2400000Y-6965528D01*
X-2413450Y-6897909D01*
X-2439834Y-6834213D01*
X-2478137Y-6776888D01*
X-2505025Y-6750000D01*
X-2478137Y-6723112D01*
X-2439834Y-6665787D01*
X-2413450Y-6602091D01*
X-2400000Y-6534472D01*
X-2400000Y-6465528D01*
X-2413450Y-6397909D01*
X-2439834Y-6334213D01*
X-2478137Y-6276888D01*
X-2505025Y-6250000D01*
X-2478137Y-6223112D01*
X-2439834Y-6165787D01*
X-2413450Y-6102091D01*
X-2400000Y-6034472D01*
X-2400000Y-5965528D01*
X-2413450Y-5897909D01*
X-2439834Y-5834213D01*
X-2478137Y-5776888D01*
X-2505025Y-5750000D01*
X-2478137Y-5723112D01*
X-2439834Y-5665787D01*
X-2413450Y-5602091D01*
X-2400000Y-5534472D01*
X-2400000Y-5465528D01*
X-2413450Y-5397909D01*
X-2439834Y-5334213D01*
X-2478137Y-5276888D01*
X-2505025Y-5250000D01*
X-2478137Y-5223112D01*
X-2439834Y-5165787D01*
X-2413450Y-5102091D01*
X-2400000Y-5034472D01*
X-2400000Y-4965528D01*
X-2413450Y-4897909D01*
X-2439834Y-4834213D01*
X-2450000Y-4818998D01*
X-2450000Y-4681002D01*
X-2439834Y-4665787D01*
X-2413450Y-4602091D01*
X-2400000Y-4534472D01*
X-2400000Y-4465528D01*
X-2413450Y-4397909D01*
X-2439834Y-4334213D01*
X-2450000Y-4318998D01*
X-2450000Y-4181002D01*
X-2439834Y-4165787D01*
X-2413450Y-4102091D01*
X-2400000Y-4034472D01*
X-2400000Y-4012371D01*
X-2321448Y-3996746D01*
X-2275588Y-3977750D01*
X-2275000Y-4752250D01*
X-2206250Y-4821000D01*
X-179000Y-4821000D01*
X-179000Y-4801000D01*
X179000Y-4801000D01*
X179000Y-4821000D01*
X2206250Y-4821000D01*
X2275000Y-4752250D01*
X2276084Y-3325000D01*
X2357090Y-3325000D01*
X2339471Y-3342619D01*
%TA.AperFunction,Conductor*%
D31*
G36*
X2339471Y-3342619D02*
G01*
X2369411Y-3372559D01*
X2366887Y-3378441D01*
X2350533Y-3455518D01*
X2349531Y-3534305D01*
X2363919Y-3611773D01*
X2393144Y-3684946D01*
X2397964Y-3693965D01*
X2481715Y-3697574D01*
X2679289Y-3500000D01*
X2626256Y-3446967D01*
X2696967Y-3376256D01*
X2750000Y-3429289D01*
X2803033Y-3376256D01*
X2873744Y-3446967D01*
X2820711Y-3500000D01*
X2873744Y-3553033D01*
X2803033Y-3623744D01*
X2750000Y-3570711D01*
X2659583Y-3661128D01*
X2647909Y-3663450D01*
X2584213Y-3689834D01*
X2526888Y-3728137D01*
X2478137Y-3776888D01*
X2439834Y-3834213D01*
X2413450Y-3897909D01*
X2400000Y-3965528D01*
X2400000Y-4034472D01*
X2413450Y-4102091D01*
X2439834Y-4165787D01*
X2478137Y-4223112D01*
X2505025Y-4250000D01*
X2478137Y-4276888D01*
X2439834Y-4334213D01*
X2413450Y-4397909D01*
X2400000Y-4465528D01*
X2400000Y-4534472D01*
X2413450Y-4602091D01*
X2439834Y-4665787D01*
X2478137Y-4723112D01*
X2505025Y-4750000D01*
X2478137Y-4776888D01*
X2439834Y-4834213D01*
X2413450Y-4897909D01*
X2400000Y-4965528D01*
X2400000Y-5034472D01*
X2413450Y-5102091D01*
X2439834Y-5165787D01*
X2478137Y-5223112D01*
X2505025Y-5250000D01*
X2478137Y-5276888D01*
X2439834Y-5334213D01*
X2413450Y-5397909D01*
X2400000Y-5465528D01*
X2400000Y-5534472D01*
X2413450Y-5602091D01*
X2439834Y-5665787D01*
X2478137Y-5723112D01*
X2505025Y-5750000D01*
X2478137Y-5776888D01*
X2439834Y-5834213D01*
X2413450Y-5897909D01*
X2400000Y-5965528D01*
X2400000Y-6034472D01*
X2413450Y-6102091D01*
X2439834Y-6165787D01*
X2478137Y-6223112D01*
X2493282Y-6238257D01*
X2472522Y-6249353D01*
X2452154Y-6266068D01*
X2446783Y-6265000D01*
X2353217Y-6265000D01*
X2275784Y-6280402D01*
X2275000Y-5247750D01*
X2206250Y-5179000D01*
X179000Y-5179000D01*
X179000Y-7160128D01*
X169061Y-7175003D01*
X133254Y-7261448D01*
X122000Y-7318027D01*
X106783Y-7315000D01*
X13217Y-7315000D01*
X-78552Y-7333254D01*
X-164997Y-7369061D01*
X-242795Y-7421044D01*
X-290676Y-7468925D01*
X-334213Y-7439834D01*
X-397909Y-7413450D01*
X-465528Y-7400000D01*
X-534472Y-7400000D01*
X-602091Y-7413450D01*
X-665787Y-7439834D01*
X-723112Y-7478137D01*
X-750000Y-7505025D01*
X-776888Y-7478137D01*
X-834213Y-7439834D01*
X-897909Y-7413450D01*
X-965528Y-7400000D01*
X-1034472Y-7400000D01*
X-1102091Y-7413450D01*
X-1165787Y-7439834D01*
X-1223112Y-7478137D01*
X-1250000Y-7505025D01*
X-1276888Y-7478137D01*
X-1334213Y-7439834D01*
X-1397909Y-7413450D01*
X-1465528Y-7400000D01*
X-1534472Y-7400000D01*
X-1602091Y-7413450D01*
X-1665787Y-7439834D01*
X-1723112Y-7478137D01*
X-1750000Y-7505025D01*
X-1776888Y-7478137D01*
X-1834213Y-7439834D01*
X-1897909Y-7413450D01*
X-1965528Y-7400000D01*
X-2034472Y-7400000D01*
X-2102091Y-7413450D01*
X-2118569Y-7420275D01*
X-2133254Y-7346448D01*
X-2169061Y-7260003D01*
X-2221044Y-7182205D01*
X-2287205Y-7116044D01*
X-2365003Y-7064061D01*
X-2402774Y-7048416D01*
X-2400000Y-7034472D01*
X-2400000Y-7000000D01*
X-2276331Y-7000000D01*
X-2271021Y-7053910D01*
X-2255297Y-7105747D01*
X-2229761Y-7153521D01*
X-2195396Y-7195396D01*
X-2153521Y-7229761D01*
X-2105747Y-7255297D01*
X-2053910Y-7271021D01*
X-2000000Y-7276331D01*
X-247750Y-7275000D01*
X-179000Y-7206250D01*
X-179000Y-5179000D01*
X-2206250Y-5179000D01*
X-2275000Y-5247750D01*
X-2276331Y-7000000D01*
X-2400000Y-7000000D01*
X-2400000Y-6965528D01*
X-2413450Y-6897909D01*
X-2439834Y-6834213D01*
X-2478137Y-6776888D01*
X-2505025Y-6750000D01*
X-2478137Y-6723112D01*
X-2439834Y-6665787D01*
X-2413450Y-6602091D01*
X-2400000Y-6534472D01*
X-2400000Y-6465528D01*
X-2413450Y-6397909D01*
X-2439834Y-6334213D01*
X-2478137Y-6276888D01*
X-2505025Y-6250000D01*
X-2478137Y-6223112D01*
X-2439834Y-6165787D01*
X-2413450Y-6102091D01*
X-2400000Y-6034472D01*
X-2400000Y-5965528D01*
X-2413450Y-5897909D01*
X-2439834Y-5834213D01*
X-2478137Y-5776888D01*
X-2505025Y-5750000D01*
X-2478137Y-5723112D01*
X-2439834Y-5665787D01*
X-2413450Y-5602091D01*
X-2400000Y-5534472D01*
X-2400000Y-5465528D01*
X-2413450Y-5397909D01*
X-2439834Y-5334213D01*
X-2478137Y-5276888D01*
X-2505025Y-5250000D01*
X-2478137Y-5223112D01*
X-2439834Y-5165787D01*
X-2413450Y-5102091D01*
X-2400000Y-5034472D01*
X-2400000Y-4965528D01*
X-2413450Y-4897909D01*
X-2439834Y-4834213D01*
X-2450000Y-4818998D01*
X-2450000Y-4681002D01*
X-2439834Y-4665787D01*
X-2413450Y-4602091D01*
X-2400000Y-4534472D01*
X-2400000Y-4465528D01*
X-2413450Y-4397909D01*
X-2439834Y-4334213D01*
X-2450000Y-4318998D01*
X-2450000Y-4181002D01*
X-2439834Y-4165787D01*
X-2413450Y-4102091D01*
X-2400000Y-4034472D01*
X-2400000Y-4012371D01*
X-2321448Y-3996746D01*
X-2275588Y-3977750D01*
X-2275000Y-4752250D01*
X-2206250Y-4821000D01*
X-179000Y-4821000D01*
X-179000Y-4801000D01*
X179000Y-4801000D01*
X179000Y-4821000D01*
X2206250Y-4821000D01*
X2275000Y-4752250D01*
X2276084Y-3325000D01*
X2357090Y-3325000D01*
X2339471Y-3342619D01*
G37*
%TD.AperFunction*%
D26*
X-2166250Y6839000D02*
X-1819000Y6839000D01*
X-1819000Y6859000D01*
X-1461000Y6859000D01*
X-1461000Y6839000D01*
X-1441000Y6839000D01*
X-1441000Y6481000D01*
X-1461000Y6481000D01*
X-1461000Y6305711D01*
X-1502250Y6305000D01*
X-1571000Y6236250D01*
X-1571000Y5679000D01*
X-1551000Y5679000D01*
X-1551000Y5321000D01*
X-1571000Y5321000D01*
X-1571000Y4763750D01*
X-1531436Y4724186D01*
X-1550939Y4694997D01*
X-1586746Y4608552D01*
X-1605000Y4516783D01*
X-1605000Y4423217D01*
X-1586746Y4331448D01*
X-1550939Y4245003D01*
X-1498956Y4167205D01*
X-1432795Y4101044D01*
X-1354997Y4049061D01*
X-1268552Y4013254D01*
X-1258749Y4011304D01*
X-1284868Y3989868D01*
X-1312985Y3955608D01*
X-1333878Y3916520D01*
X-1346744Y3874108D01*
X-1351088Y3830000D01*
X-1351088Y3605000D01*
X-1506250Y3605000D01*
X-1575003Y3650939D01*
X-1661448Y3686746D01*
X-1753217Y3705000D01*
X-1846783Y3705000D01*
X-1938552Y3686746D01*
X-2024997Y3650939D01*
X-2102795Y3598956D01*
X-2148912Y3552839D01*
X-2148912Y3830000D01*
X-2153256Y3874108D01*
X-2166122Y3916520D01*
X-2187015Y3955608D01*
X-2215132Y3989868D01*
X-2249392Y4017985D01*
X-2256593Y4021834D01*
X-2215003Y4039061D01*
X-2137205Y4091044D01*
X-2071044Y4157205D01*
X-2019061Y4235003D01*
X-1983254Y4321448D01*
X-1965000Y4413217D01*
X-1965000Y4506783D01*
X-1983254Y4598552D01*
X-2019061Y4684997D01*
X-2025426Y4694523D01*
X-1997750Y4695000D01*
X-1929000Y4763750D01*
X-1929000Y5321000D01*
X-1949000Y5321000D01*
X-1949000Y5679000D01*
X-1929000Y5679000D01*
X-1929000Y6114240D01*
X-1887750Y6115000D01*
X-1819000Y6183750D01*
X-1819000Y6481000D01*
X-2166250Y6481000D01*
X-2235000Y6412250D01*
X-2236331Y6390000D01*
X-2231021Y6336090D01*
X-2215297Y6284253D01*
X-2208053Y6270701D01*
X-2228521Y6259761D01*
X-2267580Y6227707D01*
X-2288480Y6238878D01*
X-2330892Y6251744D01*
X-2344450Y6253079D01*
X-2344450Y6731727D01*
X-2313480Y6741122D01*
X-2274392Y6762015D01*
X-2240132Y6790132D01*
X-2212015Y6824392D01*
X-2191122Y6863480D01*
X-2191031Y6863781D01*
X-2166250Y6839000D01*
%TA.AperFunction,Conductor*%
D31*
G36*
X-2166250Y6839000D02*
G01*
X-1819000Y6839000D01*
X-1819000Y6859000D01*
X-1461000Y6859000D01*
X-1461000Y6839000D01*
X-1441000Y6839000D01*
X-1441000Y6481000D01*
X-1461000Y6481000D01*
X-1461000Y6305711D01*
X-1502250Y6305000D01*
X-1571000Y6236250D01*
X-1571000Y5679000D01*
X-1551000Y5679000D01*
X-1551000Y5321000D01*
X-1571000Y5321000D01*
X-1571000Y4763750D01*
X-1531436Y4724186D01*
X-1550939Y4694997D01*
X-1586746Y4608552D01*
X-1605000Y4516783D01*
X-1605000Y4423217D01*
X-1586746Y4331448D01*
X-1550939Y4245003D01*
X-1498956Y4167205D01*
X-1432795Y4101044D01*
X-1354997Y4049061D01*
X-1268552Y4013254D01*
X-1258749Y4011304D01*
X-1284868Y3989868D01*
X-1312985Y3955608D01*
X-1333878Y3916520D01*
X-1346744Y3874108D01*
X-1351088Y3830000D01*
X-1351088Y3605000D01*
X-1506250Y3605000D01*
X-1575003Y3650939D01*
X-1661448Y3686746D01*
X-1753217Y3705000D01*
X-1846783Y3705000D01*
X-1938552Y3686746D01*
X-2024997Y3650939D01*
X-2102795Y3598956D01*
X-2148912Y3552839D01*
X-2148912Y3830000D01*
X-2153256Y3874108D01*
X-2166122Y3916520D01*
X-2187015Y3955608D01*
X-2215132Y3989868D01*
X-2249392Y4017985D01*
X-2256593Y4021834D01*
X-2215003Y4039061D01*
X-2137205Y4091044D01*
X-2071044Y4157205D01*
X-2019061Y4235003D01*
X-1983254Y4321448D01*
X-1965000Y4413217D01*
X-1965000Y4506783D01*
X-1983254Y4598552D01*
X-2019061Y4684997D01*
X-2025426Y4694523D01*
X-1997750Y4695000D01*
X-1929000Y4763750D01*
X-1929000Y5321000D01*
X-1949000Y5321000D01*
X-1949000Y5679000D01*
X-1929000Y5679000D01*
X-1929000Y6114240D01*
X-1887750Y6115000D01*
X-1819000Y6183750D01*
X-1819000Y6481000D01*
X-2166250Y6481000D01*
X-2235000Y6412250D01*
X-2236331Y6390000D01*
X-2231021Y6336090D01*
X-2215297Y6284253D01*
X-2208053Y6270701D01*
X-2228521Y6259761D01*
X-2267580Y6227707D01*
X-2288480Y6238878D01*
X-2330892Y6251744D01*
X-2344450Y6253079D01*
X-2344450Y6731727D01*
X-2313480Y6741122D01*
X-2274392Y6762015D01*
X-2240132Y6790132D01*
X-2212015Y6824392D01*
X-2191122Y6863480D01*
X-2191031Y6863781D01*
X-2166250Y6839000D01*
G37*
%TD.AperFunction*%
D26*
X-3069108Y4748256D02*
X-3025000Y4743912D01*
X-3025000Y4735954D01*
X-3026571Y4720000D01*
X-3025000Y4704047D01*
X-3025000Y4704040D01*
X-3020988Y4663310D01*
X-3020297Y4656289D01*
X-3014806Y4638189D01*
X-3001713Y4595027D01*
X-2971535Y4538567D01*
X-2930921Y4489079D01*
X-2918518Y4478900D01*
X-2915000Y4475382D01*
X-2915000Y4413217D01*
X-2896746Y4321448D01*
X-2860939Y4235003D01*
X-2808956Y4157205D01*
X-2742795Y4091044D01*
X-2690480Y4056088D01*
X-3025000Y4056088D01*
X-3069108Y4051744D01*
X-3111520Y4038878D01*
X-3150608Y4017985D01*
X-3157582Y4012262D01*
X-3160850Y4045445D01*
X-3181398Y4113182D01*
X-3214766Y4175610D01*
X-3259672Y4230328D01*
X-3314390Y4275234D01*
X-3376818Y4308602D01*
X-3394396Y4313934D01*
X-3380000Y4313669D01*
X-3326090Y4318979D01*
X-3274253Y4334703D01*
X-3226479Y4360239D01*
X-3184604Y4394604D01*
X-3150239Y4436479D01*
X-3124703Y4484253D01*
X-3108979Y4536090D01*
X-3103669Y4590000D01*
X-3105000Y4612250D01*
X-3173748Y4680998D01*
X-3105000Y4680998D01*
X-3105000Y4759144D01*
X-3069108Y4748256D01*
%TA.AperFunction,Conductor*%
D31*
G36*
X-3069108Y4748256D02*
G01*
X-3025000Y4743912D01*
X-3025000Y4735954D01*
X-3026571Y4720000D01*
X-3025000Y4704047D01*
X-3025000Y4704040D01*
X-3020988Y4663310D01*
X-3020297Y4656289D01*
X-3014806Y4638189D01*
X-3001713Y4595027D01*
X-2971535Y4538567D01*
X-2930921Y4489079D01*
X-2918518Y4478900D01*
X-2915000Y4475382D01*
X-2915000Y4413217D01*
X-2896746Y4321448D01*
X-2860939Y4235003D01*
X-2808956Y4157205D01*
X-2742795Y4091044D01*
X-2690480Y4056088D01*
X-3025000Y4056088D01*
X-3069108Y4051744D01*
X-3111520Y4038878D01*
X-3150608Y4017985D01*
X-3157582Y4012262D01*
X-3160850Y4045445D01*
X-3181398Y4113182D01*
X-3214766Y4175610D01*
X-3259672Y4230328D01*
X-3314390Y4275234D01*
X-3376818Y4308602D01*
X-3394396Y4313934D01*
X-3380000Y4313669D01*
X-3326090Y4318979D01*
X-3274253Y4334703D01*
X-3226479Y4360239D01*
X-3184604Y4394604D01*
X-3150239Y4436479D01*
X-3124703Y4484253D01*
X-3108979Y4536090D01*
X-3103669Y4590000D01*
X-3105000Y4612250D01*
X-3173748Y4680998D01*
X-3105000Y4680998D01*
X-3105000Y4759144D01*
X-3069108Y4748256D01*
G37*
%TD.AperFunction*%
D26*
X1929000Y5679000D02*
X1949000Y5679000D01*
X1949000Y5321000D01*
X1929000Y5321000D01*
X1929000Y4763750D01*
X1997750Y4695000D01*
X2075000Y4693669D01*
X2128910Y4698979D01*
X2180747Y4714703D01*
X2228521Y4740239D01*
X2267580Y4772293D01*
X2288480Y4761122D01*
X2330892Y4748256D01*
X2375000Y4743912D01*
X2884554Y4743912D01*
X2847205Y4718956D01*
X2781044Y4652795D01*
X2729061Y4574997D01*
X2708351Y4525000D01*
X1005791Y4525000D01*
X980939Y4584997D01*
X935000Y4653750D01*
X935000Y4743912D01*
X1125000Y4743912D01*
X1169108Y4748256D01*
X1211520Y4761122D01*
X1232420Y4772293D01*
X1271479Y4740239D01*
X1319253Y4714703D01*
X1371090Y4698979D01*
X1425000Y4693669D01*
X1502250Y4695000D01*
X1571000Y4763750D01*
X1571000Y5321000D01*
X1551000Y5321000D01*
X1551000Y5679000D01*
X1571000Y5679000D01*
X1571000Y5699000D01*
X1929000Y5699000D01*
X1929000Y5679000D01*
%TA.AperFunction,Conductor*%
D31*
G36*
X1929000Y5679000D02*
G01*
X1949000Y5679000D01*
X1949000Y5321000D01*
X1929000Y5321000D01*
X1929000Y4763750D01*
X1997750Y4695000D01*
X2075000Y4693669D01*
X2128910Y4698979D01*
X2180747Y4714703D01*
X2228521Y4740239D01*
X2267580Y4772293D01*
X2288480Y4761122D01*
X2330892Y4748256D01*
X2375000Y4743912D01*
X2884554Y4743912D01*
X2847205Y4718956D01*
X2781044Y4652795D01*
X2729061Y4574997D01*
X2708351Y4525000D01*
X1005791Y4525000D01*
X980939Y4584997D01*
X935000Y4653750D01*
X935000Y4743912D01*
X1125000Y4743912D01*
X1169108Y4748256D01*
X1211520Y4761122D01*
X1232420Y4772293D01*
X1271479Y4740239D01*
X1319253Y4714703D01*
X1371090Y4698979D01*
X1425000Y4693669D01*
X1502250Y4695000D01*
X1571000Y4763750D01*
X1571000Y5321000D01*
X1551000Y5321000D01*
X1551000Y5679000D01*
X1571000Y5679000D01*
X1571000Y5699000D01*
X1929000Y5699000D01*
X1929000Y5679000D01*
G37*
%TD.AperFunction*%
D26*
X-3251088Y5372915D02*
X-3274253Y5385297D01*
X-3326090Y5401021D01*
X-3380000Y5406331D01*
X-3452250Y5405000D01*
X-3521000Y5336250D01*
X-3521000Y5039000D01*
X-3501000Y5039000D01*
X-3501000Y4681000D01*
X-3521000Y4681000D01*
X-3521000Y4661000D01*
X-3879000Y4661000D01*
X-3879000Y4681000D01*
X-3899000Y4681000D01*
X-3899000Y5039000D01*
X-3879000Y5039000D01*
X-3879000Y5336250D01*
X-3947750Y5405000D01*
X-4020000Y5406331D01*
X-4073910Y5401021D01*
X-4107250Y5390908D01*
X-4107459Y5393034D01*
X-4132773Y5476482D01*
X-4173881Y5553389D01*
X-4178566Y5559098D01*
X-4167624Y5553249D01*
X-4083003Y5527580D01*
X-3995000Y5518912D01*
X-3545000Y5518912D01*
X-3456997Y5527580D01*
X-3372376Y5553249D01*
X-3294389Y5594934D01*
X-3251088Y5630471D01*
X-3251088Y5372915D01*
%TA.AperFunction,Conductor*%
D31*
G36*
X-3251088Y5372915D02*
G01*
X-3274253Y5385297D01*
X-3326090Y5401021D01*
X-3380000Y5406331D01*
X-3452250Y5405000D01*
X-3521000Y5336250D01*
X-3521000Y5039000D01*
X-3501000Y5039000D01*
X-3501000Y4681000D01*
X-3521000Y4681000D01*
X-3521000Y4661000D01*
X-3879000Y4661000D01*
X-3879000Y4681000D01*
X-3899000Y4681000D01*
X-3899000Y5039000D01*
X-3879000Y5039000D01*
X-3879000Y5336250D01*
X-3947750Y5405000D01*
X-4020000Y5406331D01*
X-4073910Y5401021D01*
X-4107250Y5390908D01*
X-4107459Y5393034D01*
X-4132773Y5476482D01*
X-4173881Y5553389D01*
X-4178566Y5559098D01*
X-4167624Y5553249D01*
X-4083003Y5527580D01*
X-3995000Y5518912D01*
X-3545000Y5518912D01*
X-3456997Y5527580D01*
X-3372376Y5553249D01*
X-3294389Y5594934D01*
X-3251088Y5630471D01*
X-3251088Y5372915D01*
G37*
%TD.AperFunction*%
D26*
X-4408439Y6648820D02*
X-4411751Y6642624D01*
X-4437420Y6558003D01*
X-4446088Y6470000D01*
X-4446088Y5970000D01*
X-4437420Y5881997D01*
X-4411751Y5797376D01*
X-4370066Y5719389D01*
X-4364207Y5712250D01*
X-4373518Y5717227D01*
X-4456966Y5742541D01*
X-4543750Y5751088D01*
X-4593705Y5751088D01*
X-4595000Y5972250D01*
X-4663750Y6041000D01*
X-5141000Y6041000D01*
X-5141000Y6021000D01*
X-5499000Y6021000D01*
X-5499000Y6041000D01*
X-5519000Y6041000D01*
X-5519000Y6399000D01*
X-5499000Y6399000D01*
X-5499000Y6419000D01*
X-5141000Y6419000D01*
X-5141000Y6399000D01*
X-4663750Y6399000D01*
X-4595000Y6467750D01*
X-4593669Y6695000D01*
X-4596517Y6723912D01*
X-4483531Y6723912D01*
X-4408439Y6648820D01*
%TA.AperFunction,Conductor*%
D31*
G36*
X-4408439Y6648820D02*
G01*
X-4411751Y6642624D01*
X-4437420Y6558003D01*
X-4446088Y6470000D01*
X-4446088Y5970000D01*
X-4437420Y5881997D01*
X-4411751Y5797376D01*
X-4370066Y5719389D01*
X-4364207Y5712250D01*
X-4373518Y5717227D01*
X-4456966Y5742541D01*
X-4543750Y5751088D01*
X-4593705Y5751088D01*
X-4595000Y5972250D01*
X-4663750Y6041000D01*
X-5141000Y6041000D01*
X-5141000Y6021000D01*
X-5499000Y6021000D01*
X-5499000Y6041000D01*
X-5519000Y6041000D01*
X-5519000Y6399000D01*
X-5499000Y6399000D01*
X-5499000Y6419000D01*
X-5141000Y6419000D01*
X-5141000Y6399000D01*
X-4663750Y6399000D01*
X-4595000Y6467750D01*
X-4593669Y6695000D01*
X-4596517Y6723912D01*
X-4483531Y6723912D01*
X-4408439Y6648820D01*
G37*
%TD.AperFunction*%
D26*
X-5326088Y6970000D02*
X-5499002Y6970000D01*
X-5499002Y6901252D01*
X-5567750Y6970000D01*
X-5755000Y6971232D01*
X-5755000Y7374671D01*
X-5326088Y7803583D01*
X-5326088Y6970000D01*
%TA.AperFunction,Conductor*%
D31*
G36*
X-5326088Y6970000D02*
G01*
X-5499002Y6970000D01*
X-5499002Y6901252D01*
X-5567750Y6970000D01*
X-5755000Y6971232D01*
X-5755000Y7374671D01*
X-5326088Y7803583D01*
X-5326088Y6970000D01*
G37*
%TD.AperFunction*%
D26*
X-1058552Y9333254D02*
X-966783Y9315000D01*
X-935549Y9315000D01*
X-935550Y8307343D01*
X-938552Y8306746D01*
X-1024997Y8270939D01*
X-1084159Y8231409D01*
X-1113750Y8261000D01*
X-1461000Y8261000D01*
X-1461000Y8241000D01*
X-1819000Y8241000D01*
X-1819000Y8261000D01*
X-1839000Y8261000D01*
X-1839000Y8619000D01*
X-1819000Y8619000D01*
X-1819000Y8639000D01*
X-1461000Y8639000D01*
X-1461000Y8619000D01*
X-1113750Y8619000D01*
X-1045000Y8687750D01*
X-1043669Y8710000D01*
X-1048979Y8763910D01*
X-1064703Y8815747D01*
X-1090239Y8863521D01*
X-1124604Y8905396D01*
X-1166479Y8939761D01*
X-1214253Y8965297D01*
X-1266090Y8981021D01*
X-1320000Y8986331D01*
X-1334396Y8986066D01*
X-1316818Y8991398D01*
X-1254390Y9024766D01*
X-1199672Y9069672D01*
X-1154766Y9124390D01*
X-1121398Y9186818D01*
X-1100850Y9254555D01*
X-1093912Y9325000D01*
X-1093912Y9347901D01*
X-1058552Y9333254D01*
%TA.AperFunction,Conductor*%
D31*
G36*
X-1058552Y9333254D02*
G01*
X-966783Y9315000D01*
X-935549Y9315000D01*
X-935550Y8307343D01*
X-938552Y8306746D01*
X-1024997Y8270939D01*
X-1084159Y8231409D01*
X-1113750Y8261000D01*
X-1461000Y8261000D01*
X-1461000Y8241000D01*
X-1819000Y8241000D01*
X-1819000Y8261000D01*
X-1839000Y8261000D01*
X-1839000Y8619000D01*
X-1819000Y8619000D01*
X-1819000Y8639000D01*
X-1461000Y8639000D01*
X-1461000Y8619000D01*
X-1113750Y8619000D01*
X-1045000Y8687750D01*
X-1043669Y8710000D01*
X-1048979Y8763910D01*
X-1064703Y8815747D01*
X-1090239Y8863521D01*
X-1124604Y8905396D01*
X-1166479Y8939761D01*
X-1214253Y8965297D01*
X-1266090Y8981021D01*
X-1320000Y8986331D01*
X-1334396Y8986066D01*
X-1316818Y8991398D01*
X-1254390Y9024766D01*
X-1199672Y9069672D01*
X-1154766Y9124390D01*
X-1121398Y9186818D01*
X-1100850Y9254555D01*
X-1093912Y9325000D01*
X-1093912Y9347901D01*
X-1058552Y9333254D01*
G37*
%TD.AperFunction*%
D26*
X1819000Y8619000D02*
X1839000Y8619000D01*
X1839000Y8261000D01*
X1819000Y8261000D01*
X1819000Y8241000D01*
X1461000Y8241000D01*
X1461000Y8261000D01*
X1441000Y8261000D01*
X1441000Y8619000D01*
X1461000Y8619000D01*
X1461000Y8639000D01*
X1819000Y8639000D01*
X1819000Y8619000D01*
%TA.AperFunction,Conductor*%
D31*
G36*
X1819000Y8619000D02*
G01*
X1839000Y8619000D01*
X1839000Y8261000D01*
X1819000Y8261000D01*
X1819000Y8241000D01*
X1461000Y8241000D01*
X1461000Y8261000D01*
X1441000Y8261000D01*
X1441000Y8619000D01*
X1461000Y8619000D01*
X1461000Y8639000D01*
X1819000Y8639000D01*
X1819000Y8619000D01*
G37*
%TD.AperFunction*%
D26*
X3021298Y9898200D02*
X3129497Y9898200D01*
X3128256Y9894108D01*
X3123912Y9850000D01*
X3123912Y8950000D01*
X3128256Y8905892D01*
X3141122Y8863480D01*
X3162015Y8824392D01*
X3190132Y8790132D01*
X3224392Y8762015D01*
X3263480Y8741122D01*
X3305892Y8728256D01*
X3350000Y8723912D01*
X3847406Y8723912D01*
X3823948Y8719246D01*
X3737503Y8683439D01*
X3659705Y8631456D01*
X3593544Y8565295D01*
X3541561Y8487497D01*
X3509989Y8411276D01*
X3492477Y8425647D01*
X3440360Y8453504D01*
X3383810Y8470659D01*
X3339733Y8475000D01*
X3339723Y8475000D01*
X3325000Y8476450D01*
X3310277Y8475000D01*
X2339730Y8475000D01*
X2325000Y8476451D01*
X2310270Y8475000D01*
X2310267Y8475000D01*
X2266190Y8470659D01*
X2235000Y8461198D01*
X2235000Y8619002D01*
X2166252Y8619002D01*
X2235000Y8687750D01*
X2236331Y8710000D01*
X2231021Y8763910D01*
X2215297Y8815747D01*
X2189761Y8863521D01*
X2155396Y8905396D01*
X2113521Y8939761D01*
X2065747Y8965297D01*
X2013910Y8981021D01*
X1960000Y8986331D01*
X1945604Y8986066D01*
X1963182Y8991398D01*
X2025610Y9024766D01*
X2080328Y9069672D01*
X2125234Y9124390D01*
X2158602Y9186818D01*
X2179150Y9254555D01*
X2186088Y9325000D01*
X2186088Y9392161D01*
X2247205Y9331044D01*
X2325003Y9279061D01*
X2411448Y9243254D01*
X2503217Y9225000D01*
X2596783Y9225000D01*
X2688552Y9243254D01*
X2774997Y9279061D01*
X2852795Y9331044D01*
X2918956Y9397205D01*
X2970939Y9475003D01*
X3006746Y9561448D01*
X3025000Y9653217D01*
X3025000Y9746783D01*
X3006746Y9838552D01*
X2973402Y9919052D01*
X3021298Y9966948D01*
X3021298Y9898200D01*
%TA.AperFunction,Conductor*%
D31*
G36*
X3021298Y9898200D02*
G01*
X3129497Y9898200D01*
X3128256Y9894108D01*
X3123912Y9850000D01*
X3123912Y8950000D01*
X3128256Y8905892D01*
X3141122Y8863480D01*
X3162015Y8824392D01*
X3190132Y8790132D01*
X3224392Y8762015D01*
X3263480Y8741122D01*
X3305892Y8728256D01*
X3350000Y8723912D01*
X3847406Y8723912D01*
X3823948Y8719246D01*
X3737503Y8683439D01*
X3659705Y8631456D01*
X3593544Y8565295D01*
X3541561Y8487497D01*
X3509989Y8411276D01*
X3492477Y8425647D01*
X3440360Y8453504D01*
X3383810Y8470659D01*
X3339733Y8475000D01*
X3339723Y8475000D01*
X3325000Y8476450D01*
X3310277Y8475000D01*
X2339730Y8475000D01*
X2325000Y8476451D01*
X2310270Y8475000D01*
X2310267Y8475000D01*
X2266190Y8470659D01*
X2235000Y8461198D01*
X2235000Y8619002D01*
X2166252Y8619002D01*
X2235000Y8687750D01*
X2236331Y8710000D01*
X2231021Y8763910D01*
X2215297Y8815747D01*
X2189761Y8863521D01*
X2155396Y8905396D01*
X2113521Y8939761D01*
X2065747Y8965297D01*
X2013910Y8981021D01*
X1960000Y8986331D01*
X1945604Y8986066D01*
X1963182Y8991398D01*
X2025610Y9024766D01*
X2080328Y9069672D01*
X2125234Y9124390D01*
X2158602Y9186818D01*
X2179150Y9254555D01*
X2186088Y9325000D01*
X2186088Y9392161D01*
X2247205Y9331044D01*
X2325003Y9279061D01*
X2411448Y9243254D01*
X2503217Y9225000D01*
X2596783Y9225000D01*
X2688552Y9243254D01*
X2774997Y9279061D01*
X2852795Y9331044D01*
X2918956Y9397205D01*
X2970939Y9475003D01*
X3006746Y9561448D01*
X3025000Y9653217D01*
X3025000Y9746783D01*
X3006746Y9838552D01*
X2973402Y9919052D01*
X3021298Y9966948D01*
X3021298Y9898200D01*
G37*
%TD.AperFunction*%
D26*
X-2158602Y9186818D02*
X-2125234Y9124390D01*
X-2080328Y9069672D01*
X-2025610Y9024766D01*
X-1963182Y8991398D01*
X-1945604Y8986066D01*
X-1960000Y8986331D01*
X-2013910Y8981021D01*
X-2065747Y8965297D01*
X-2113521Y8939761D01*
X-2155396Y8905396D01*
X-2189761Y8863521D01*
X-2215297Y8815747D01*
X-2231021Y8763910D01*
X-2236331Y8710000D01*
X-2235000Y8687750D01*
X-2166252Y8619002D01*
X-2235000Y8619002D01*
X-2235000Y8501009D01*
X-2255026Y8511713D01*
X-2316289Y8530297D01*
X-2364039Y8535000D01*
X-2364047Y8535000D01*
X-2380000Y8536571D01*
X-2395953Y8535000D01*
X-2675000Y8535000D01*
X-2675000Y8935382D01*
X-2535382Y9075000D01*
X-2478217Y9075000D01*
X-2386448Y9093254D01*
X-2300003Y9129061D01*
X-2222205Y9181044D01*
X-2172061Y9231188D01*
X-2158602Y9186818D01*
%TA.AperFunction,Conductor*%
D31*
G36*
X-2158602Y9186818D02*
G01*
X-2125234Y9124390D01*
X-2080328Y9069672D01*
X-2025610Y9024766D01*
X-1963182Y8991398D01*
X-1945604Y8986066D01*
X-1960000Y8986331D01*
X-2013910Y8981021D01*
X-2065747Y8965297D01*
X-2113521Y8939761D01*
X-2155396Y8905396D01*
X-2189761Y8863521D01*
X-2215297Y8815747D01*
X-2231021Y8763910D01*
X-2236331Y8710000D01*
X-2235000Y8687750D01*
X-2166252Y8619002D01*
X-2235000Y8619002D01*
X-2235000Y8501009D01*
X-2255026Y8511713D01*
X-2316289Y8530297D01*
X-2364039Y8535000D01*
X-2364047Y8535000D01*
X-2380000Y8536571D01*
X-2395953Y8535000D01*
X-2675000Y8535000D01*
X-2675000Y8935382D01*
X-2535382Y9075000D01*
X-2478217Y9075000D01*
X-2386448Y9093254D01*
X-2300003Y9129061D01*
X-2222205Y9181044D01*
X-2172061Y9231188D01*
X-2158602Y9186818D01*
G37*
%TD.AperFunction*%
%TD*%
M02*
