M48
; DRILL file {KiCad (5.1.9)-1} date 01/04/21 01:21:00
; FORMAT={-:-/ absolute / inch / decimal}
; #@! TF.CreationDate,2021-01-04T01:21:00+08:00
; #@! TF.GenerationSoftware,Kicad,Pcbnew,(5.1.9)-1
FMAT,2
INCH
T1C0.0098
T2C0.0118
T3C0.0236
T4C0.0320
T5C0.0197
T6C0.0454
%
G90
G05
T1
X-0.2992Y-0.3504
X-0.2559Y0.065
X-0.2392Y-0.3169
X-0.2382Y0.2451
X-0.2362Y0.3829
X-0.2333Y0.1949
X-0.2293Y-0.3425
X-0.2165Y0.0758
X-0.2165Y-0.063
X-0.2165Y-0.1073
X-0.2156Y-0.1329
X-0.2116Y0.1142
X-0.2077Y0.0059
X-0.19Y-0.1358
X-0.1847Y0.3531
X-0.1845Y-0.0693
X-0.1801Y0.4006
X-0.1762Y-0.1752
X-0.176Y-0.2028
X-0.1697Y-0.2323
X-0.1638Y-0.2736
X-0.1634Y-0.1388
X-0.1579Y-0.0693
X-0.1545Y-0.2992
X-0.1496Y-0.213
X-0.1496Y-0.4104
X-0.1492Y-0.2516
X-0.1407Y0.0827
X-0.1307Y-0.335
X-0.124Y0.1713
X-0.1102Y0.3839
X-0.1063Y-0.4104
X-0.102Y-0.2947
X-0.0969Y-0.1394
X-0.0961Y0.1756
X-0.0935Y-0.0689
X-0.089Y-0.3402
X-0.0768Y-0.4104
X-0.0709Y0.1272
X-0.0709Y0.061
X-0.0689Y0.1555
X-0.0606Y0.1028
X-0.0581Y-0.3425
X-0.0579Y-0.0996
X-0.0541Y-0.003
X-0.0445Y0.176
X-0.0374Y-0.4173
X-0.0362Y0.3854
X-0.0344Y0.0886
X-0.0344Y-0.0482
X-0.0276Y-0.0128
X-0.0228Y0.3184
X-0.0118Y-0.4213
X0.0Y0.126
X0.0024Y-0.3067
X0.0069Y-0.0472
X0.0098Y0.372
X0.0217Y0.3179
X0.022Y0.1717
X0.0226Y0.2864
X0.0232Y-0.2913
X0.0276Y0.0758
X0.0335Y0.2579
X0.0441Y-0.0488
X0.065Y-0.3858
X0.0659Y0.1841
X0.0659Y0.1378
X0.0709Y0.061
X0.0854Y-0.3248
X0.0902Y-0.1059
X0.0945Y0.2559
X0.0945Y-0.2654
X0.1014Y0.3524
X0.1024Y-0.4331
X0.1043Y-0.2984
X0.1102Y0.3839
X0.124Y0.1713
X0.126Y-0.0738
X0.128Y0.2569
X0.1289Y-0.1024
X0.1299Y-0.1289
X0.1374Y0.0217
X0.1378Y-0.3996
X0.1378Y-0.4327
X0.1417Y0.2825
X0.1469Y-0.2717
X0.1496Y-0.1988
X0.1496Y-0.2411
X0.1506Y-0.061
X0.1545Y-0.1663
X0.156Y0.3253
X0.1654Y-0.1427
X0.1801Y0.4006
X0.1841Y0.3435
X0.1841Y0.2539
X0.2185Y-0.3228
X0.2215Y0.3848
X0.2234Y-0.1043
X0.2254Y0.1398
X0.2303Y0.2333
X0.2421Y0.3169
X0.2648Y-0.0512
X0.2744Y-0.3567
X0.2825Y-0.1496
X0.2884Y-0.25
X0.2992Y-0.3504
T2
X-0.0477Y-0.1491
X-0.0477Y-0.1969
X-0.0477Y-0.2446
X0.0Y-0.1491
X0.0Y-0.1969
X0.0Y-0.2446
X0.0477Y-0.1491
X0.0477Y-0.1969
X0.0477Y-0.2446
T4
X-0.3Y0.5996
X-0.3Y0.4996
X-0.3Y0.3996
X-0.3Y0.2996
X-0.3Y0.1996
X-0.3Y0.0996
X-0.3Y-0.0004
X-0.3Y-0.1004
X-0.3Y-0.2004
X-0.3Y-0.3004
X-0.3Y-0.4004
X-0.3Y-0.5004
X-0.3Y-0.6004
X0.3Y0.5996
X0.3Y0.4996
X0.3Y0.3996
X0.3Y0.2996
X0.3Y0.1996
X0.3Y0.0996
X0.3Y-0.0004
X0.3Y-0.1004
X0.3Y-0.2004
X0.3Y-0.3004
X0.3Y-0.4004
X0.3Y-0.5004
X0.3Y-0.6004
T5
X-0.3642Y0.0295
X-0.3642Y0.0
X-0.3642Y-0.0295
X0.3642Y0.0295
X0.3642Y0.0
X0.3642Y-0.0295
T6
X-0.5118Y0.5709
X-0.5118Y-0.5709
X0.5118Y0.5709
X0.5118Y-0.5709
T3
G00X-0.2195Y0.6289
M15
G01X-0.2195Y0.5816
M16
G05
G00X-0.2195Y0.4674
M15
G01X-0.2195Y0.436
M16
G05
G00X0.2195Y0.6289
M15
G01X0.2195Y0.5816
M16
G05
G00X0.2195Y0.4655
M15
G01X0.2195Y0.4379
M16
G05
T0
M30
