%TF.GenerationSoftware,KiCad,Pcbnew,(5.1.9)-1*%
%TF.CreationDate,2021-01-07T22:39:29+08:00*%
%TF.ProjectId,akami,616b616d-692e-46b6-9963-61645f706362,rev?*%
%TF.SameCoordinates,Original*%
%TF.FileFunction,Copper,L4,Bot*%
%TF.FilePolarity,Positive*%
%FSLAX46Y46*%
G04 Gerber Fmt 4.6, Leading zero omitted, Abs format (unit mm)*
G04 Created by KiCad (PCBNEW (5.1.9)-1) date 2021-01-07 22:39:29*
%MOMM*%
%LPD*%
G01*
G04 APERTURE LIST*
%TA.AperFunction,SMDPad,CuDef*%
%ADD10R,1.000000X1.000000*%
%TD*%
%TA.AperFunction,WasherPad*%
%ADD11C,2.000000*%
%TD*%
%TA.AperFunction,ComponentPad*%
%ADD12C,1.524000*%
%TD*%
%TA.AperFunction,ComponentPad*%
%ADD13O,1.000000X1.800000*%
%TD*%
%TA.AperFunction,ComponentPad*%
%ADD14O,1.000000X2.200000*%
%TD*%
%TA.AperFunction,ViaPad*%
%ADD15C,0.500000*%
%TD*%
%TA.AperFunction,ViaPad*%
%ADD16C,0.600000*%
%TD*%
%TA.AperFunction,Conductor*%
%ADD17C,0.300000*%
%TD*%
%TA.AperFunction,Conductor*%
%ADD18C,0.150000*%
%TD*%
%TA.AperFunction,Conductor*%
%ADD19C,0.261100*%
%TD*%
%TA.AperFunction,Conductor*%
%ADD20C,0.261112*%
%TD*%
%TA.AperFunction,Conductor*%
%ADD21C,0.200000*%
%TD*%
%TA.AperFunction,Conductor*%
%ADD22C,0.100000*%
%TD*%
G04 APERTURE END LIST*
D10*
%TO.P,TP5,1*%
%TO.N,VDD_HV*%
X755000Y5850000D03*
%TD*%
D11*
%TO.P,DUMMY8,*%
%TO.N,*%
X12990000Y-14500000D03*
%TD*%
%TO.P,DUMMY7,*%
%TO.N,*%
X12990000Y14500000D03*
%TD*%
%TO.P,DUMMY6,*%
%TO.N,*%
X-12990000Y-14500000D03*
%TD*%
%TO.P,DUMMY5,*%
%TO.N,*%
X-12990000Y14500000D03*
%TD*%
D12*
%TO.P,U4,24*%
%TO.N,VBAT*%
X7620000Y12690000D03*
%TO.P,U4,23*%
%TO.N,GND*%
X7620000Y10150000D03*
%TO.P,U4,22*%
%TO.N,RESET*%
X7620000Y7610000D03*
%TO.P,U4,21*%
%TO.N,EXT_VCC*%
X7620000Y5070000D03*
%TO.P,U4,20*%
%TO.N,P0.31*%
X7620000Y2530000D03*
%TO.P,U4,19*%
%TO.N,P0.29*%
X7620000Y-10000D03*
%TO.P,U4,18*%
%TO.N,P0.02*%
X7620000Y-2550000D03*
%TO.P,U4,17*%
%TO.N,P1.15*%
X7620000Y-5090000D03*
%TO.P,U4,16*%
%TO.N,P1.13*%
X7620000Y-7630000D03*
%TO.P,U4,15*%
%TO.N,P1.11*%
X7620000Y-10170000D03*
%TO.P,U4,14*%
%TO.N,P0.10*%
X7620000Y-12710000D03*
%TO.P,U4,13*%
%TO.N,P0.09*%
X7620000Y-15250000D03*
%TO.P,U4,12*%
%TO.N,P1.06*%
X-7620000Y-15250000D03*
%TO.P,U4,11*%
%TO.N,P1.04*%
X-7620000Y-12710000D03*
%TO.P,U4,10*%
%TO.N,P0.11*%
X-7620000Y-10170000D03*
%TO.P,U4,9*%
%TO.N,P1.00*%
X-7620000Y-7630000D03*
%TO.P,U4,8*%
%TO.N,P0.24*%
X-7620000Y-5090000D03*
%TO.P,U4,7*%
%TO.N,P0.22*%
X-7620000Y-2550000D03*
%TO.P,U4,6*%
%TO.N,P0.20*%
X-7620000Y-10000D03*
%TO.P,U4,5*%
%TO.N,P0.17*%
X-7620000Y2530000D03*
%TO.P,U4,4*%
%TO.N,GND*%
X-7620000Y5070000D03*
%TO.P,U4,3*%
X-7620000Y7610000D03*
%TO.P,U4,2*%
%TO.N,P0.08*%
X-7620000Y10150000D03*
%TO.P,U4,1*%
%TO.N,P0.06*%
X-7620000Y12690000D03*
%TD*%
%TO.P,J2,1*%
%TO.N,VBAT*%
X7620000Y15230000D03*
%TD*%
%TO.P,J3,1*%
%TO.N,GND*%
X-7620000Y15230000D03*
%TD*%
D10*
%TO.P,TP3,1*%
%TO.N,VDD_NRF*%
X-755000Y5850000D03*
%TD*%
%TO.P,TP1,1*%
%TO.N,SWC*%
X-3170000Y-9400000D03*
%TD*%
%TO.P,TP2,1*%
%TO.N,SWD*%
X-4680000Y-9400000D03*
%TD*%
D13*
%TO.P,J1,S1*%
%TO.N,Net-(J1-PadS1)*%
X-5575000Y11473200D03*
X5575600Y11473200D03*
D14*
X5575600Y15373200D03*
X-5575000Y15373200D03*
%TD*%
D15*
%TO.N,VDD_NRF*%
X-3800000Y-5410000D03*
X3730000Y-6900000D03*
X-4900000Y-7600000D03*
X-1912500Y587500D03*
X3550000Y-1275000D03*
X-1600000Y3900000D03*
X-3200000Y-10475000D03*
%TO.N,Net-(C11-Pad1)*%
X5550000Y-8200000D03*
X2675000Y-7700000D03*
%TO.N,VBUS*%
X575000Y7275000D03*
X-2525000Y9700000D03*
X2525000Y9700000D03*
X-375000Y625000D03*
X-3400000Y-1325000D03*
X4275000Y5050000D03*
%TO.N,Net-(C15-Pad2)*%
X-6075000Y-8050000D03*
X2225000Y-8250000D03*
X3275000Y-2425000D03*
%TO.N,BAT_VOLT*%
X3475000Y1800000D03*
X2250000Y6975000D03*
%TO.N,VBAT*%
X-4692500Y8967500D03*
X800000Y4350000D03*
X2850000Y4525000D03*
X5325000Y7700000D03*
%TO.N,BLUE_LED*%
X-4450000Y-3950000D03*
X-5700000Y4350000D03*
%TO.N,USB_D+*%
X250000Y9450000D03*
X-920000Y9790000D03*
X-4687500Y-1760000D03*
%TO.N,USB_D-*%
X550000Y8075000D03*
X-580000Y8086681D03*
X-4010000Y-1760000D03*
%TO.N,Net-(L3-Pad2)*%
X2290000Y-2690000D03*
X-4800000Y-4500000D03*
%TO.N,SWD*%
X-2600000Y-7675000D03*
%TO.N,SWC*%
X-2260000Y-8640000D03*
%TO.N,RESET*%
X-2400000Y-3600000D03*
D16*
%TO.N,GND*%
X-1212500Y-5000000D03*
X1212500Y-5000000D03*
X0Y-5000000D03*
X0Y-6212500D03*
X0Y-3787500D03*
X-1212500Y-3787500D03*
X-1212500Y-6212500D03*
X1212500Y-3787500D03*
D15*
X4575000Y10175000D03*
X-4575000Y10175000D03*
X3500000Y-10990000D03*
X-7620000Y-8900000D03*
X7620000Y-8900000D03*
X1675000Y4675000D03*
X-5825000Y-8700000D03*
D16*
X1212500Y-6212500D03*
D15*
X1550000Y-9750000D03*
X2850000Y-10990000D03*
X5825000Y-10050000D03*
X4600000Y-9000000D03*
X5950000Y3425000D03*
X-7620000Y-6360000D03*
X7620000Y-6360000D03*
X7620000Y-3820000D03*
X7620000Y-1280000D03*
X7620000Y1260000D03*
X7620000Y3800000D03*
X7620000Y6340000D03*
X7620000Y8880000D03*
X-7620000Y8880000D03*
X-7620000Y6340000D03*
X-7620000Y3800000D03*
X-7620000Y1260000D03*
X-7620000Y-1280000D03*
X-7620000Y-3820000D03*
X-75000Y-10800000D03*
X-1750000Y4575000D03*
%TO.N,P0.09*%
X60000Y-7790000D03*
%TO.N,P0.10*%
X590000Y-7400000D03*
%TO.N,P1.11*%
X2675000Y-6975000D03*
%TO.N,P1.13*%
X3800000Y-5950000D03*
%TO.N,P1.15*%
X3800000Y-5050000D03*
%TO.N,P0.02*%
X3925000Y-4225000D03*
%TO.N,P0.29*%
X4200000Y-3625000D03*
%TO.N,P1.04*%
X-1475000Y-8700000D03*
%TO.N,P1.06*%
X-950000Y-10600000D03*
%TO.N,P0.11*%
X-5475000Y-3375000D03*
X-1375000Y-2600000D03*
%TO.N,P1.00*%
X-3925000Y-7600000D03*
%TO.N,P0.24*%
X-4160000Y-6950000D03*
%TO.N,P0.22*%
X-3790000Y-6390000D03*
%TO.N,P0.20*%
X-4310000Y-5900000D03*
%TO.N,P0.17*%
X-4470000Y-5150000D03*
%TO.N,P0.08*%
X-5500000Y-2725000D03*
%TO.N,VDD_HV*%
X-2575000Y6500000D03*
%TO.N,GND*%
X2250000Y8950000D03*
X-1825000Y1250000D03*
X-7620000Y11420000D03*
X-7620000Y13960000D03*
X7620000Y11420000D03*
X7620000Y13960000D03*
X-1925000Y1975000D03*
X-5500000Y-825000D03*
X3825000Y-675000D03*
X4575000Y-2900000D03*
X1125000Y1275000D03*
X0Y-250000D03*
X-3400000Y6400000D03*
X4250000Y7750000D03*
X-6000000Y9375000D03*
X-4150000Y-10475000D03*
X-2150000Y-10475000D03*
X-5175000Y-10325000D03*
%TO.N,P0.31*%
X3200000Y-3250000D03*
%TO.N,P0.06*%
X-3500000Y2975000D03*
X-6025000Y3325000D03*
X550000Y-700000D03*
%TO.N,P0.08*%
X-6475000Y2825000D03*
X-25000Y-1075000D03*
%TO.N,VDD_HV*%
X-2225000Y-2675000D03*
X-3550000Y225000D03*
X-3575000Y-575000D03*
X-525000Y4350000D03*
X2775000Y8225000D03*
%TO.N,EXT_VCC*%
X1725000Y2925000D03*
X-1575000Y3150000D03*
X6650000Y3975000D03*
X3625000Y7350000D03*
%TO.N,Net-(L4-Pad2)*%
X-2300000Y-1625000D03*
X-5475000Y2150000D03*
%TD*%
D17*
%TO.N,VDD_NRF*%
X-755000Y5850000D02*
X-1150000Y5455000D01*
X-1150000Y4350000D02*
X-1600000Y3900000D01*
X-1150000Y5455000D02*
X-1150000Y4350000D01*
D18*
%TO.N,Net-(C11-Pad1)*%
X5550000Y-7600000D02*
X5550000Y-8200000D01*
X5325000Y-7375000D02*
X5550000Y-7600000D01*
X3000000Y-7375000D02*
X5325000Y-7375000D01*
X2675000Y-7700000D02*
X3000000Y-7375000D01*
D17*
%TO.N,VBUS*%
X-1855000Y10370000D02*
X-2525000Y9700000D01*
X2525000Y9700000D02*
X1855000Y10370000D01*
X1000000Y7700000D02*
X575000Y7275000D01*
X1425000Y7700000D02*
X1000000Y7700000D01*
X1455000Y7730000D02*
X1425000Y7700000D01*
X1855000Y10370000D02*
X1455000Y10370000D01*
X1455000Y10370000D02*
X1455000Y7730000D01*
X1455000Y10370000D02*
X-1855000Y10370000D01*
X-2875000Y-1325000D02*
X-925000Y625000D01*
X-3400000Y-1325000D02*
X-2875000Y-1325000D01*
X-925000Y625000D02*
X-375000Y625000D01*
X4275000Y5750000D02*
X4275000Y5050000D01*
X2295000Y7730000D02*
X4275000Y5750000D01*
X1455000Y7730000D02*
X2295000Y7730000D01*
D18*
%TO.N,Net-(C15-Pad2)*%
X2225000Y-6875000D02*
X2225000Y-8250000D01*
X2200000Y-6850000D02*
X2225000Y-6875000D01*
X-2475000Y-6850000D02*
X2200000Y-6850000D01*
X-3675000Y-8050000D02*
X-2475000Y-6850000D01*
X-6075000Y-8050000D02*
X-3675000Y-8050000D01*
X2575000Y-6250000D02*
X2225000Y-6600000D01*
X2575000Y-3125000D02*
X2575000Y-6250000D01*
X3275000Y-2425000D02*
X2575000Y-3125000D01*
X2225000Y-6600000D02*
X2225000Y-6875000D01*
%TO.N,BAT_VOLT*%
X3475000Y3225000D02*
X3475000Y1800000D01*
X2250000Y4450000D02*
X3475000Y3225000D01*
X2250000Y6975000D02*
X2250000Y4450000D01*
D17*
%TO.N,VBAT*%
X6515000Y12690000D02*
X7620000Y12690000D01*
X6500000Y12675000D02*
X6515000Y12690000D01*
X6500000Y10700000D02*
X6500000Y12675000D01*
X5325000Y9525000D02*
X6500000Y10700000D01*
X5325000Y8025000D02*
X5325000Y9525000D01*
X6500000Y14110000D02*
X7620000Y15230000D01*
X6500000Y12675000D02*
X6500000Y14110000D01*
X5325000Y8025000D02*
X5325000Y7700000D01*
X4775000Y4525000D02*
X2850000Y4525000D01*
X5325000Y5075000D02*
X4775000Y4525000D01*
X5325000Y7700000D02*
X5325000Y5075000D01*
D18*
%TO.N,BLUE_LED*%
X-5675000Y-3950000D02*
X-4450000Y-3950000D01*
X-5975000Y-650000D02*
X-5975000Y-3650000D01*
X-5975000Y-3650000D02*
X-5675000Y-3950000D01*
X-6275000Y2000000D02*
X-6275000Y-350000D01*
X-6275000Y-350000D02*
X-5975000Y-650000D01*
X-5550000Y2725000D02*
X-6275000Y2000000D01*
X-5550000Y3800000D02*
X-5550000Y2725000D01*
X-5550000Y4200000D02*
X-5700000Y4350000D01*
X-5550000Y3800000D02*
X-5550000Y4200000D01*
%TO.N,Net-(J1-PadS1)*%
X-5575000Y15373200D02*
X-5575000Y11473200D01*
X5575600Y15373200D02*
X5575600Y11473200D01*
X5575600Y11125600D02*
X5575600Y11473200D01*
X5200000Y10750000D02*
X5575600Y11125600D01*
X-5200000Y10750000D02*
X5200000Y10750000D01*
X-5575000Y11125000D02*
X-5200000Y10750000D01*
X-5575000Y11473200D02*
X-5575000Y11125000D01*
D19*
%TO.N,USB_D+*%
X95000Y8745000D02*
X-920000Y8745000D01*
X250000Y8900000D02*
X95000Y8745000D01*
X250000Y9450000D02*
X250000Y8900000D01*
X-920000Y9790000D02*
X-920000Y8745000D01*
D20*
X-2533320Y8745000D02*
X-920000Y8745000D01*
X-4582156Y6696164D02*
X-2533320Y8745000D01*
X-4582156Y-1657156D02*
X-4582156Y6696164D01*
X-4687500Y-1762500D02*
X-4582156Y-1657156D01*
D19*
%TO.N,USB_D-*%
X550000Y8075000D02*
X545000Y8070000D01*
X538319Y8086681D02*
X550000Y8075000D01*
X-580000Y8086681D02*
X538319Y8086681D01*
D20*
X-2534999Y8086681D02*
X-580000Y8086681D01*
X-4117844Y6503836D02*
X-2534999Y8086681D01*
X-4117844Y6107156D02*
X-4117844Y6503836D01*
X-4110323Y6040399D02*
X-4117844Y6107156D01*
X-4088135Y5976990D02*
X-4110323Y6040399D01*
X-4052394Y5920109D02*
X-4088135Y5976990D01*
X-4004891Y5872606D02*
X-4052394Y5920109D01*
X-3948010Y5177446D02*
X-3884601Y5199634D01*
X-4010000Y-1760000D02*
X-4117844Y-1652156D01*
X-3452100Y5214677D02*
X-3388691Y5236865D01*
X-3518856Y5807156D02*
X-3817844Y5807156D01*
X-4088135Y5037321D02*
X-4052394Y5094202D01*
X-3248566Y5637321D02*
X-3284307Y5694202D01*
X-4052394Y5094202D02*
X-4004891Y5141705D01*
X-3884601Y5199634D02*
X-3817844Y5207156D01*
X-4110323Y4973912D02*
X-4088135Y5037321D01*
X-4117844Y4907156D02*
X-4110323Y4973912D01*
X-4117844Y-1652156D02*
X-4117844Y4907156D01*
X-4004891Y5141705D02*
X-3948010Y5177446D01*
X-3817844Y5207156D02*
X-3518856Y5207156D01*
X-3452100Y5799634D02*
X-3518856Y5807156D01*
X-3226378Y5440399D02*
X-3218856Y5507156D01*
X-3388691Y5236865D02*
X-3331810Y5272606D01*
X-3331810Y5272606D02*
X-3284307Y5320109D01*
X-3284307Y5320109D02*
X-3248566Y5376990D01*
X-3248566Y5376990D02*
X-3226378Y5440399D01*
X-3218856Y5507156D02*
X-3226378Y5573912D01*
X-3226378Y5573912D02*
X-3248566Y5637321D01*
X-3284307Y5694202D02*
X-3331810Y5741705D01*
X-3331810Y5741705D02*
X-3388691Y5777446D01*
X-3948010Y5836865D02*
X-4004891Y5872606D01*
X-3388691Y5777446D02*
X-3452100Y5799634D01*
X-3817844Y5807156D02*
X-3884601Y5814677D01*
X-3518856Y5207156D02*
X-3452100Y5214677D01*
X-3884601Y5814677D02*
X-3948010Y5836865D01*
D18*
%TO.N,Net-(L3-Pad2)*%
X2300000Y-2700000D02*
X2290000Y-2690000D01*
X2300000Y-5325000D02*
X2300000Y-2700000D01*
X-2125000Y-5600000D02*
X2025000Y-5600000D01*
X2025000Y-5600000D02*
X2300000Y-5325000D01*
X-3225000Y-4500000D02*
X-2125000Y-5600000D01*
X-4800000Y-4500000D02*
X-3225000Y-4500000D01*
%TO.N,SWD*%
X-4475000Y-9400000D02*
X-4680000Y-9400000D01*
X-2750000Y-7675000D02*
X-4475000Y-9400000D01*
X-2600000Y-7675000D02*
X-2750000Y-7675000D01*
%TO.N,SWC*%
X-3020000Y-9400000D02*
X-3170000Y-9400000D01*
X-2260000Y-8640000D02*
X-3020000Y-9400000D01*
%TO.N,RESET*%
X5775000Y6080000D02*
X7305000Y7610000D01*
X7305000Y7610000D02*
X7620000Y7610000D01*
X3925000Y1175000D02*
X3925000Y2450000D01*
X-400000Y-3150000D02*
X3925000Y1175000D01*
X5775000Y4300000D02*
X5775000Y6080000D01*
X-1400000Y-3150000D02*
X-400000Y-3150000D01*
X3925000Y2450000D02*
X5775000Y4300000D01*
X-1850000Y-3600000D02*
X-1400000Y-3150000D01*
X-2400000Y-3600000D02*
X-1850000Y-3600000D01*
%TO.N,P0.09*%
X1245000Y-8975000D02*
X60000Y-7790000D01*
X2550000Y-8975000D02*
X1245000Y-8975000D01*
X4800000Y-8150000D02*
X4675000Y-8025000D01*
X4800000Y-8525000D02*
X4800000Y-8150000D01*
X5200000Y-8925000D02*
X4800000Y-8525000D01*
X5750000Y-8925000D02*
X5200000Y-8925000D01*
X6300000Y-9475000D02*
X5750000Y-8925000D01*
X6300000Y-10975000D02*
X6300000Y-9475000D01*
X6550000Y-11225000D02*
X6300000Y-10975000D01*
X4675000Y-8025000D02*
X3500000Y-8025000D01*
X6550000Y-14180000D02*
X6550000Y-11225000D01*
X3500000Y-8025000D02*
X2550000Y-8975000D01*
X7620000Y-15250000D02*
X6550000Y-14180000D01*
%TO.N,P0.10*%
X6575000Y-10850000D02*
X7620000Y-11895000D01*
X5875000Y-8650000D02*
X6575000Y-9350000D01*
X5075000Y-8400000D02*
X5325000Y-8650000D01*
X6575000Y-9350000D02*
X6575000Y-10850000D01*
X5075000Y-7900000D02*
X5075000Y-8400000D01*
X4925000Y-7750000D02*
X5075000Y-7900000D01*
X7620000Y-11895000D02*
X7620000Y-12710000D01*
X3375000Y-7750000D02*
X4925000Y-7750000D01*
X2425000Y-8700000D02*
X3375000Y-7750000D01*
X1750000Y-8700000D02*
X2425000Y-8700000D01*
X590000Y-7540000D02*
X1750000Y-8700000D01*
X5325000Y-8650000D02*
X5875000Y-8650000D01*
X590000Y-7400000D02*
X590000Y-7540000D01*
%TO.N,P1.11*%
X7620000Y-9995000D02*
X7620000Y-10170000D01*
X6525000Y-7000000D02*
X6525000Y-8900000D01*
X6525000Y-8900000D02*
X7620000Y-9995000D01*
X5950000Y-6425000D02*
X6525000Y-7000000D01*
X2935000Y-6425000D02*
X5950000Y-6425000D01*
X2675000Y-6685000D02*
X2935000Y-6425000D01*
X2675000Y-6975000D02*
X2675000Y-6685000D01*
%TO.N,P1.13*%
X3800000Y-5950000D02*
X5940000Y-5950000D01*
X5940000Y-5950000D02*
X7620000Y-7630000D01*
%TO.N,P1.15*%
X6530000Y-4000000D02*
X7620000Y-5090000D01*
X4875000Y-4000000D02*
X6530000Y-4000000D01*
X3825000Y-5050000D02*
X4875000Y-4000000D01*
X3800000Y-5050000D02*
X3825000Y-5050000D01*
%TO.N,P0.02*%
X7400000Y-2550000D02*
X7620000Y-2550000D01*
X6250000Y-3700000D02*
X7400000Y-2550000D01*
X4775000Y-3700000D02*
X6250000Y-3700000D01*
X4250000Y-4225000D02*
X4775000Y-3700000D01*
X3925000Y-4225000D02*
X4250000Y-4225000D01*
%TO.N,P0.29*%
X6510000Y-540000D02*
X7040000Y-10000D01*
X6025000Y-3425000D02*
X6510000Y-2940000D01*
X7040000Y-10000D02*
X7620000Y-10000D01*
X4400000Y-3425000D02*
X6025000Y-3425000D01*
X6510000Y-2940000D02*
X6510000Y-540000D01*
X4200000Y-3625000D02*
X4400000Y-3425000D01*
%TO.N,P1.04*%
X-7620000Y-12570000D02*
X-7620000Y-12710000D01*
X-6100000Y-11050000D02*
X-7620000Y-12570000D01*
X-1850000Y-11050000D02*
X-6100000Y-11050000D01*
X-1475000Y-10675000D02*
X-1850000Y-11050000D01*
X-1475000Y-8700000D02*
X-1475000Y-10675000D01*
%TO.N,P1.06*%
X-6550000Y-14180000D02*
X-7620000Y-15250000D01*
X-6550000Y-11940000D02*
X-6550000Y-14180000D01*
X-5930000Y-11320000D02*
X-6550000Y-11940000D01*
X-1645000Y-11320000D02*
X-5930000Y-11320000D01*
X-950000Y-10625000D02*
X-1645000Y-11320000D01*
X-950000Y-10600000D02*
X-950000Y-10625000D01*
%TO.N,P1.00*%
X-6965000Y-6975000D02*
X-7620000Y-7630000D01*
X-4775000Y-6975000D02*
X-6965000Y-6975000D01*
X-4150000Y-7600000D02*
X-4775000Y-6975000D01*
X-3925000Y-7600000D02*
X-4150000Y-7600000D01*
%TO.N,P0.24*%
X-4405000Y-6705000D02*
X-4160000Y-6950000D01*
X-4820000Y-6705000D02*
X-4405000Y-6705000D01*
X-6430000Y-5095000D02*
X-4820000Y-6705000D01*
X-7615000Y-5095000D02*
X-6430000Y-5095000D01*
X-7620000Y-5090000D02*
X-7615000Y-5095000D01*
%TO.N,P0.22*%
X-6850000Y-4245000D02*
X-6850000Y-3320000D01*
X-4675000Y-6420000D02*
X-6850000Y-4245000D01*
X-3820000Y-6420000D02*
X-4675000Y-6420000D01*
X-6850000Y-3320000D02*
X-7620000Y-2550000D01*
X-3790000Y-6390000D02*
X-3820000Y-6420000D01*
%TO.N,P0.20*%
X-7415000Y-10000D02*
X-7620000Y-10000D01*
X-6560000Y-865000D02*
X-7415000Y-10000D01*
X-4760000Y-5900000D02*
X-6560000Y-4100000D01*
X-6560000Y-4100000D02*
X-6560000Y-865000D01*
X-4310000Y-5900000D02*
X-4760000Y-5900000D01*
%TO.N,P0.31*%
X4275000Y2375000D02*
X4430000Y2530000D01*
X4275000Y-2175000D02*
X4275000Y2375000D01*
X3200000Y-3250000D02*
X4275000Y-2175000D01*
X4430000Y2530000D02*
X7620000Y2530000D01*
%TO.N,P0.11*%
X-5350000Y-3500000D02*
X-5475000Y-3375000D01*
X-2975000Y-3500000D02*
X-5350000Y-3500000D01*
X-2630000Y-3155000D02*
X-2975000Y-3500000D01*
X-1905000Y-3155000D02*
X-2630000Y-3155000D01*
X-1375000Y-2625000D02*
X-1905000Y-3155000D01*
X-1375000Y-2600000D02*
X-1375000Y-2625000D01*
%TO.N,P0.17*%
X-7620000Y2445000D02*
X-7620000Y2530000D01*
X-6550000Y-475000D02*
X-6550000Y1375000D01*
X-6260000Y-765000D02*
X-6550000Y-475000D01*
X-6260000Y-3930000D02*
X-6260000Y-765000D01*
X-6550000Y1375000D02*
X-7620000Y2445000D01*
X-5040000Y-5150000D02*
X-6260000Y-3930000D01*
X-4470000Y-5150000D02*
X-5040000Y-5150000D01*
%TO.N,P0.06*%
X-3125000Y2600000D02*
X-3500000Y2975000D01*
X-1300000Y2600000D02*
X-3125000Y2600000D01*
X550000Y750000D02*
X-1300000Y2600000D01*
X550000Y-700000D02*
X550000Y750000D01*
X-7620000Y12300000D02*
X-7620000Y12690000D01*
X-6480000Y9000000D02*
X-6480000Y11160000D01*
X-6175000Y8695000D02*
X-6480000Y9000000D01*
X-6175000Y3475000D02*
X-6175000Y8695000D01*
X-6480000Y11160000D02*
X-7620000Y12300000D01*
X-6025000Y3325000D02*
X-6175000Y3475000D01*
%TO.N,P0.08*%
X-7620000Y9720000D02*
X-7620000Y10150000D01*
X-6475000Y8575000D02*
X-7620000Y9720000D01*
X-6475000Y2825000D02*
X-6475000Y8575000D01*
X-5275000Y-2950000D02*
X-5500000Y-2725000D01*
X-3150000Y-2950000D02*
X-5275000Y-2950000D01*
X-2350000Y-2150000D02*
X-3150000Y-2950000D01*
X-725000Y-1075000D02*
X-1800000Y-2150000D01*
X-25000Y-1075000D02*
X-725000Y-1075000D01*
X-1800000Y-2150000D02*
X-2350000Y-2150000D01*
D17*
%TO.N,VDD_HV*%
X-2225000Y-2675000D02*
X-2195000Y-2675000D01*
X755000Y5305000D02*
X755000Y5850000D01*
X-200000Y4350000D02*
X755000Y5305000D01*
X-525000Y4350000D02*
X-200000Y4350000D01*
%TO.N,EXT_VCC*%
X1500000Y3150000D02*
X-1575000Y3150000D01*
X1725000Y2925000D02*
X1500000Y3150000D01*
D21*
%TO.N,Net-(L4-Pad2)*%
X-4825000Y-2575000D02*
X-3250000Y-2575000D01*
X-5225000Y-2175000D02*
X-4825000Y-2575000D01*
X-5225000Y-1500000D02*
X-5225000Y-2175000D01*
X-4975000Y-1250000D02*
X-5225000Y-1500000D01*
X-3250000Y-2575000D02*
X-2300000Y-1625000D01*
X-4975000Y1650000D02*
X-4975000Y-1250000D01*
X-5475000Y2150000D02*
X-4975000Y1650000D01*
%TD*%
D18*
%TO.N,GND*%
X-6180731Y16377936D02*
X-6248053Y16251987D01*
X-6289509Y16115324D01*
X-6300000Y16008806D01*
X-6299999Y14737593D01*
X-6289508Y14631075D01*
X-6248052Y14494412D01*
X-6180730Y14368463D01*
X-6090131Y14258068D01*
X-5979736Y14167469D01*
X-5875000Y14111486D01*
X-5874999Y12534915D01*
X-5979737Y12478931D01*
X-6090132Y12388331D01*
X-6180731Y12277936D01*
X-6248053Y12151987D01*
X-6289509Y12015324D01*
X-6300000Y11908806D01*
X-6300000Y11404264D01*
X-6904954Y12009217D01*
X-6853347Y12060824D01*
X-6745332Y12222480D01*
X-6670930Y12402103D01*
X-6633000Y12592789D01*
X-6633000Y12787211D01*
X-6670930Y12977897D01*
X-6745332Y13157520D01*
X-6853347Y13319176D01*
X-6990824Y13456653D01*
X-7152480Y13564668D01*
X-7332103Y13639070D01*
X-7522789Y13677000D01*
X-7717211Y13677000D01*
X-7907897Y13639070D01*
X-8087520Y13564668D01*
X-8249176Y13456653D01*
X-8386653Y13319176D01*
X-8494668Y13157520D01*
X-8569070Y12977897D01*
X-8607000Y12787211D01*
X-8607000Y12592789D01*
X-8569070Y12402103D01*
X-8494668Y12222480D01*
X-8386653Y12060824D01*
X-8249176Y11923347D01*
X-8087520Y11815332D01*
X-7907897Y11740930D01*
X-7717211Y11703000D01*
X-7522789Y11703000D01*
X-7459794Y11715531D01*
X-6779999Y11035735D01*
X-6779999Y10669403D01*
X-6853347Y10779176D01*
X-6990824Y10916653D01*
X-7152480Y11024668D01*
X-7332103Y11099070D01*
X-7522789Y11137000D01*
X-7717211Y11137000D01*
X-7907897Y11099070D01*
X-8087520Y11024668D01*
X-8249176Y10916653D01*
X-8386653Y10779176D01*
X-8494668Y10617520D01*
X-8569070Y10437897D01*
X-8607000Y10247211D01*
X-8607000Y10052789D01*
X-8569070Y9862103D01*
X-8494668Y9682480D01*
X-8386653Y9520824D01*
X-8249176Y9383347D01*
X-8087520Y9275332D01*
X-7907897Y9200930D01*
X-7717211Y9163000D01*
X-7522789Y9163000D01*
X-7493157Y9168894D01*
X-6774999Y8450735D01*
X-6774999Y8131002D01*
X-6816963Y8159893D01*
X-7366856Y7610000D01*
X-6816963Y7060107D01*
X-6774999Y7088998D01*
X-6775000Y5591002D01*
X-6816963Y5619893D01*
X-7366856Y5070000D01*
X-6816963Y4520107D01*
X-6775000Y4548997D01*
X-6775000Y3195824D01*
X-6777795Y3193956D01*
X-6837016Y3134735D01*
X-6853347Y3159176D01*
X-6990824Y3296653D01*
X-7152480Y3404668D01*
X-7332103Y3479070D01*
X-7522789Y3517000D01*
X-7717211Y3517000D01*
X-7907897Y3479070D01*
X-8087520Y3404668D01*
X-8249176Y3296653D01*
X-8386653Y3159176D01*
X-8494668Y2997520D01*
X-8569070Y2817897D01*
X-8607000Y2627211D01*
X-8607000Y2432789D01*
X-8569070Y2242103D01*
X-8494668Y2062480D01*
X-8386653Y1900824D01*
X-8249176Y1763347D01*
X-8087520Y1655332D01*
X-7907897Y1580930D01*
X-7717211Y1543000D01*
X-7522789Y1543000D01*
X-7332103Y1580930D01*
X-7224687Y1625423D01*
X-6849999Y1250735D01*
X-6849999Y614166D01*
X-6853347Y619176D01*
X-6990824Y756653D01*
X-7152480Y864668D01*
X-7332103Y939070D01*
X-7522789Y977000D01*
X-7717211Y977000D01*
X-7907897Y939070D01*
X-8087520Y864668D01*
X-8249176Y756653D01*
X-8386653Y619176D01*
X-8494668Y457520D01*
X-8569070Y277897D01*
X-8607000Y87211D01*
X-8607000Y-107211D01*
X-8569070Y-297897D01*
X-8494668Y-477520D01*
X-8386653Y-639176D01*
X-8249176Y-776653D01*
X-8087520Y-884668D01*
X-7907897Y-959070D01*
X-7717211Y-997000D01*
X-7522789Y-997000D01*
X-7332103Y-959070D01*
X-7152480Y-884668D01*
X-7039852Y-809412D01*
X-6859999Y-989265D01*
X-6859999Y-1914172D01*
X-6990824Y-1783347D01*
X-7152480Y-1675332D01*
X-7332103Y-1600930D01*
X-7522789Y-1563000D01*
X-7717211Y-1563000D01*
X-7907897Y-1600930D01*
X-8087520Y-1675332D01*
X-8249176Y-1783347D01*
X-8386653Y-1920824D01*
X-8494668Y-2082480D01*
X-8569070Y-2262103D01*
X-8607000Y-2452789D01*
X-8607000Y-2647211D01*
X-8569070Y-2837897D01*
X-8494668Y-3017520D01*
X-8386653Y-3179176D01*
X-8249176Y-3316653D01*
X-8087520Y-3424668D01*
X-7907897Y-3499070D01*
X-7717211Y-3537000D01*
X-7522789Y-3537000D01*
X-7332103Y-3499070D01*
X-7164583Y-3429681D01*
X-7149999Y-3444265D01*
X-7150000Y-4216989D01*
X-7152480Y-4215332D01*
X-7332103Y-4140930D01*
X-7522789Y-4103000D01*
X-7717211Y-4103000D01*
X-7907897Y-4140930D01*
X-8087520Y-4215332D01*
X-8249176Y-4323347D01*
X-8386653Y-4460824D01*
X-8494668Y-4622480D01*
X-8569070Y-4802103D01*
X-8607000Y-4992789D01*
X-8607000Y-5187211D01*
X-8569070Y-5377897D01*
X-8494668Y-5557520D01*
X-8386653Y-5719176D01*
X-8249176Y-5856653D01*
X-8087520Y-5964668D01*
X-7907897Y-6039070D01*
X-7717211Y-6077000D01*
X-7522789Y-6077000D01*
X-7332103Y-6039070D01*
X-7152480Y-5964668D01*
X-6990824Y-5856653D01*
X-6853347Y-5719176D01*
X-6745332Y-5557520D01*
X-6678014Y-5395000D01*
X-6554263Y-5395000D01*
X-5274264Y-6675000D01*
X-6950270Y-6675000D01*
X-6965000Y-6673549D01*
X-6979730Y-6675000D01*
X-6979733Y-6675000D01*
X-7023810Y-6679341D01*
X-7080360Y-6696496D01*
X-7093471Y-6703504D01*
X-7132478Y-6724353D01*
X-7156186Y-6743810D01*
X-7164273Y-6750447D01*
X-7332103Y-6680930D01*
X-7522789Y-6643000D01*
X-7717211Y-6643000D01*
X-7907897Y-6680930D01*
X-8087520Y-6755332D01*
X-8249176Y-6863347D01*
X-8386653Y-7000824D01*
X-8494668Y-7162480D01*
X-8569070Y-7342103D01*
X-8607000Y-7532789D01*
X-8607000Y-7727211D01*
X-8569070Y-7917897D01*
X-8494668Y-8097520D01*
X-8386653Y-8259176D01*
X-8249176Y-8396653D01*
X-8087520Y-8504668D01*
X-7907897Y-8579070D01*
X-7717211Y-8617000D01*
X-7522789Y-8617000D01*
X-7332103Y-8579070D01*
X-7152480Y-8504668D01*
X-6990824Y-8396653D01*
X-6853347Y-8259176D01*
X-6745332Y-8097520D01*
X-6670930Y-7917897D01*
X-6633000Y-7727211D01*
X-6633000Y-7532789D01*
X-6670930Y-7342103D01*
X-6698725Y-7275000D01*
X-5246751Y-7275000D01*
X-5268956Y-7297205D01*
X-5320939Y-7375003D01*
X-5356746Y-7461448D01*
X-5375000Y-7553217D01*
X-5375000Y-7646783D01*
X-5356746Y-7738552D01*
X-5352004Y-7750000D01*
X-5704176Y-7750000D01*
X-5706044Y-7747205D01*
X-5772205Y-7681044D01*
X-5850003Y-7629061D01*
X-5936448Y-7593254D01*
X-6028217Y-7575000D01*
X-6121783Y-7575000D01*
X-6213552Y-7593254D01*
X-6299997Y-7629061D01*
X-6377795Y-7681044D01*
X-6443956Y-7747205D01*
X-6495939Y-7825003D01*
X-6531746Y-7911448D01*
X-6550000Y-8003217D01*
X-6550000Y-8096783D01*
X-6531746Y-8188552D01*
X-6495939Y-8274997D01*
X-6443956Y-8352795D01*
X-6377795Y-8418956D01*
X-6299997Y-8470939D01*
X-6213552Y-8506746D01*
X-6121783Y-8525000D01*
X-6028217Y-8525000D01*
X-5936448Y-8506746D01*
X-5850003Y-8470939D01*
X-5772205Y-8418956D01*
X-5706044Y-8352795D01*
X-5704176Y-8350000D01*
X-3849263Y-8350000D01*
X-4173787Y-8674524D01*
X-4180000Y-8673912D01*
X-5180000Y-8673912D01*
X-5224108Y-8678256D01*
X-5266520Y-8691122D01*
X-5305608Y-8712015D01*
X-5339868Y-8740132D01*
X-5367985Y-8774392D01*
X-5388878Y-8813480D01*
X-5401744Y-8855892D01*
X-5406088Y-8900000D01*
X-5406088Y-9900000D01*
X-5401744Y-9944108D01*
X-5388878Y-9986520D01*
X-5367985Y-10025608D01*
X-5339868Y-10059868D01*
X-5305608Y-10087985D01*
X-5266520Y-10108878D01*
X-5224108Y-10121744D01*
X-5180000Y-10126088D01*
X-4180000Y-10126088D01*
X-4135892Y-10121744D01*
X-4093480Y-10108878D01*
X-4054392Y-10087985D01*
X-4020132Y-10059868D01*
X-3992015Y-10025608D01*
X-3971122Y-9986520D01*
X-3958256Y-9944108D01*
X-3953912Y-9900000D01*
X-3953912Y-9303175D01*
X-3896088Y-9245351D01*
X-3896088Y-9900000D01*
X-3891744Y-9944108D01*
X-3878878Y-9986520D01*
X-3857985Y-10025608D01*
X-3829868Y-10059868D01*
X-3795608Y-10087985D01*
X-3756520Y-10108878D01*
X-3714108Y-10121744D01*
X-3670000Y-10126088D01*
X-3522839Y-10126088D01*
X-3568956Y-10172205D01*
X-3620939Y-10250003D01*
X-3656746Y-10336448D01*
X-3675000Y-10428217D01*
X-3675000Y-10521783D01*
X-3656746Y-10613552D01*
X-3620939Y-10699997D01*
X-3587528Y-10750000D01*
X-6085270Y-10750000D01*
X-6100000Y-10748549D01*
X-6114730Y-10750000D01*
X-6114733Y-10750000D01*
X-6158810Y-10754341D01*
X-6215360Y-10771496D01*
X-6267478Y-10799353D01*
X-6298725Y-10824997D01*
X-6313158Y-10836842D01*
X-6322549Y-10848285D01*
X-6799264Y-11325000D01*
X-8770000Y-11325000D01*
X-8770000Y-10072789D01*
X-8607000Y-10072789D01*
X-8607000Y-10267211D01*
X-8569070Y-10457897D01*
X-8494668Y-10637520D01*
X-8386653Y-10799176D01*
X-8249176Y-10936653D01*
X-8087520Y-11044668D01*
X-7907897Y-11119070D01*
X-7717211Y-11157000D01*
X-7522789Y-11157000D01*
X-7332103Y-11119070D01*
X-7152480Y-11044668D01*
X-6990824Y-10936653D01*
X-6853347Y-10799176D01*
X-6745332Y-10637520D01*
X-6670930Y-10457897D01*
X-6633000Y-10267211D01*
X-6633000Y-10072789D01*
X-6670930Y-9882103D01*
X-6745332Y-9702480D01*
X-6853347Y-9540824D01*
X-6990824Y-9403347D01*
X-7152480Y-9295332D01*
X-7332103Y-9220930D01*
X-7522789Y-9183000D01*
X-7717211Y-9183000D01*
X-7907897Y-9220930D01*
X-8087520Y-9295332D01*
X-8249176Y-9403347D01*
X-8386653Y-9540824D01*
X-8494668Y-9702480D01*
X-8569070Y-9882103D01*
X-8607000Y-10072789D01*
X-8770000Y-10072789D01*
X-8770000Y-2076364D01*
X-8766441Y-2064632D01*
X-8765000Y-2050000D01*
X-8765000Y2050000D01*
X-8766441Y2064632D01*
X-8770000Y2076364D01*
X-8770000Y4266963D01*
X-8169893Y4266963D01*
X-8078564Y4134308D01*
X-7887208Y4062825D01*
X-7685583Y4030047D01*
X-7481438Y4037235D01*
X-7282618Y4084112D01*
X-7161436Y4134308D01*
X-7070107Y4266963D01*
X-7620000Y4816856D01*
X-8169893Y4266963D01*
X-8770000Y4266963D01*
X-8770000Y5135583D01*
X-8659953Y5135583D01*
X-8652765Y4931438D01*
X-8605888Y4732618D01*
X-8555692Y4611436D01*
X-8423037Y4520107D01*
X-7873144Y5070000D01*
X-8423037Y5619893D01*
X-8555692Y5528564D01*
X-8627175Y5337208D01*
X-8659953Y5135583D01*
X-8770000Y5135583D01*
X-8770000Y5873037D01*
X-8169893Y5873037D01*
X-7620000Y5323144D01*
X-7070107Y5873037D01*
X-7161436Y6005692D01*
X-7352792Y6077175D01*
X-7554417Y6109953D01*
X-7758562Y6102765D01*
X-7957382Y6055888D01*
X-8078564Y6005692D01*
X-8169893Y5873037D01*
X-8770000Y5873037D01*
X-8770000Y6806963D01*
X-8169893Y6806963D01*
X-8078564Y6674308D01*
X-7887208Y6602825D01*
X-7685583Y6570047D01*
X-7481438Y6577235D01*
X-7282618Y6624112D01*
X-7161436Y6674308D01*
X-7070107Y6806963D01*
X-7620000Y7356856D01*
X-8169893Y6806963D01*
X-8770000Y6806963D01*
X-8770000Y7675583D01*
X-8659953Y7675583D01*
X-8652765Y7471438D01*
X-8605888Y7272618D01*
X-8555692Y7151436D01*
X-8423037Y7060107D01*
X-7873144Y7610000D01*
X-8423037Y8159893D01*
X-8555692Y8068564D01*
X-8627175Y7877208D01*
X-8659953Y7675583D01*
X-8770000Y7675583D01*
X-8770000Y8413037D01*
X-8169893Y8413037D01*
X-7620000Y7863144D01*
X-7070107Y8413037D01*
X-7161436Y8545692D01*
X-7352792Y8617175D01*
X-7554417Y8649953D01*
X-7758562Y8642765D01*
X-7957382Y8595888D01*
X-8078564Y8545692D01*
X-8169893Y8413037D01*
X-8770000Y8413037D01*
X-8770000Y14426963D01*
X-8169893Y14426963D01*
X-8078564Y14294308D01*
X-7887208Y14222825D01*
X-7685583Y14190047D01*
X-7481438Y14197235D01*
X-7282618Y14244112D01*
X-7161436Y14294308D01*
X-7070107Y14426963D01*
X-7620000Y14976856D01*
X-8169893Y14426963D01*
X-8770000Y14426963D01*
X-8770000Y15237771D01*
X-8764332Y15295583D01*
X-8659953Y15295583D01*
X-8652765Y15091438D01*
X-8605888Y14892618D01*
X-8555692Y14771436D01*
X-8423037Y14680107D01*
X-7873144Y15230000D01*
X-7366856Y15230000D01*
X-6816963Y14680107D01*
X-6684308Y14771436D01*
X-6612825Y14962792D01*
X-6580047Y15164417D01*
X-6587235Y15368562D01*
X-6634112Y15567382D01*
X-6684308Y15688564D01*
X-6816963Y15779893D01*
X-7366856Y15230000D01*
X-7873144Y15230000D01*
X-8423037Y15779893D01*
X-8555692Y15688564D01*
X-8627175Y15497208D01*
X-8659953Y15295583D01*
X-8764332Y15295583D01*
X-8746922Y15473137D01*
X-8682119Y15687775D01*
X-8576860Y15885739D01*
X-8456727Y16033037D01*
X-8169893Y16033037D01*
X-7620000Y15483144D01*
X-7070107Y16033037D01*
X-7161436Y16165692D01*
X-7352792Y16237175D01*
X-7554417Y16269953D01*
X-7758562Y16262765D01*
X-7957382Y16215888D01*
X-8078564Y16165692D01*
X-8169893Y16033037D01*
X-8456727Y16033037D01*
X-8435156Y16059485D01*
X-8262402Y16202399D01*
X-8065181Y16309036D01*
X-7850994Y16375338D01*
X-7616352Y16400000D01*
X-6162624Y16400000D01*
X-6180731Y16377936D01*
%TA.AperFunction,Conductor*%
D22*
G36*
X-6180731Y16377936D02*
G01*
X-6248053Y16251987D01*
X-6289509Y16115324D01*
X-6300000Y16008806D01*
X-6299999Y14737593D01*
X-6289508Y14631075D01*
X-6248052Y14494412D01*
X-6180730Y14368463D01*
X-6090131Y14258068D01*
X-5979736Y14167469D01*
X-5875000Y14111486D01*
X-5874999Y12534915D01*
X-5979737Y12478931D01*
X-6090132Y12388331D01*
X-6180731Y12277936D01*
X-6248053Y12151987D01*
X-6289509Y12015324D01*
X-6300000Y11908806D01*
X-6300000Y11404264D01*
X-6904954Y12009217D01*
X-6853347Y12060824D01*
X-6745332Y12222480D01*
X-6670930Y12402103D01*
X-6633000Y12592789D01*
X-6633000Y12787211D01*
X-6670930Y12977897D01*
X-6745332Y13157520D01*
X-6853347Y13319176D01*
X-6990824Y13456653D01*
X-7152480Y13564668D01*
X-7332103Y13639070D01*
X-7522789Y13677000D01*
X-7717211Y13677000D01*
X-7907897Y13639070D01*
X-8087520Y13564668D01*
X-8249176Y13456653D01*
X-8386653Y13319176D01*
X-8494668Y13157520D01*
X-8569070Y12977897D01*
X-8607000Y12787211D01*
X-8607000Y12592789D01*
X-8569070Y12402103D01*
X-8494668Y12222480D01*
X-8386653Y12060824D01*
X-8249176Y11923347D01*
X-8087520Y11815332D01*
X-7907897Y11740930D01*
X-7717211Y11703000D01*
X-7522789Y11703000D01*
X-7459794Y11715531D01*
X-6779999Y11035735D01*
X-6779999Y10669403D01*
X-6853347Y10779176D01*
X-6990824Y10916653D01*
X-7152480Y11024668D01*
X-7332103Y11099070D01*
X-7522789Y11137000D01*
X-7717211Y11137000D01*
X-7907897Y11099070D01*
X-8087520Y11024668D01*
X-8249176Y10916653D01*
X-8386653Y10779176D01*
X-8494668Y10617520D01*
X-8569070Y10437897D01*
X-8607000Y10247211D01*
X-8607000Y10052789D01*
X-8569070Y9862103D01*
X-8494668Y9682480D01*
X-8386653Y9520824D01*
X-8249176Y9383347D01*
X-8087520Y9275332D01*
X-7907897Y9200930D01*
X-7717211Y9163000D01*
X-7522789Y9163000D01*
X-7493157Y9168894D01*
X-6774999Y8450735D01*
X-6774999Y8131002D01*
X-6816963Y8159893D01*
X-7366856Y7610000D01*
X-6816963Y7060107D01*
X-6774999Y7088998D01*
X-6775000Y5591002D01*
X-6816963Y5619893D01*
X-7366856Y5070000D01*
X-6816963Y4520107D01*
X-6775000Y4548997D01*
X-6775000Y3195824D01*
X-6777795Y3193956D01*
X-6837016Y3134735D01*
X-6853347Y3159176D01*
X-6990824Y3296653D01*
X-7152480Y3404668D01*
X-7332103Y3479070D01*
X-7522789Y3517000D01*
X-7717211Y3517000D01*
X-7907897Y3479070D01*
X-8087520Y3404668D01*
X-8249176Y3296653D01*
X-8386653Y3159176D01*
X-8494668Y2997520D01*
X-8569070Y2817897D01*
X-8607000Y2627211D01*
X-8607000Y2432789D01*
X-8569070Y2242103D01*
X-8494668Y2062480D01*
X-8386653Y1900824D01*
X-8249176Y1763347D01*
X-8087520Y1655332D01*
X-7907897Y1580930D01*
X-7717211Y1543000D01*
X-7522789Y1543000D01*
X-7332103Y1580930D01*
X-7224687Y1625423D01*
X-6849999Y1250735D01*
X-6849999Y614166D01*
X-6853347Y619176D01*
X-6990824Y756653D01*
X-7152480Y864668D01*
X-7332103Y939070D01*
X-7522789Y977000D01*
X-7717211Y977000D01*
X-7907897Y939070D01*
X-8087520Y864668D01*
X-8249176Y756653D01*
X-8386653Y619176D01*
X-8494668Y457520D01*
X-8569070Y277897D01*
X-8607000Y87211D01*
X-8607000Y-107211D01*
X-8569070Y-297897D01*
X-8494668Y-477520D01*
X-8386653Y-639176D01*
X-8249176Y-776653D01*
X-8087520Y-884668D01*
X-7907897Y-959070D01*
X-7717211Y-997000D01*
X-7522789Y-997000D01*
X-7332103Y-959070D01*
X-7152480Y-884668D01*
X-7039852Y-809412D01*
X-6859999Y-989265D01*
X-6859999Y-1914172D01*
X-6990824Y-1783347D01*
X-7152480Y-1675332D01*
X-7332103Y-1600930D01*
X-7522789Y-1563000D01*
X-7717211Y-1563000D01*
X-7907897Y-1600930D01*
X-8087520Y-1675332D01*
X-8249176Y-1783347D01*
X-8386653Y-1920824D01*
X-8494668Y-2082480D01*
X-8569070Y-2262103D01*
X-8607000Y-2452789D01*
X-8607000Y-2647211D01*
X-8569070Y-2837897D01*
X-8494668Y-3017520D01*
X-8386653Y-3179176D01*
X-8249176Y-3316653D01*
X-8087520Y-3424668D01*
X-7907897Y-3499070D01*
X-7717211Y-3537000D01*
X-7522789Y-3537000D01*
X-7332103Y-3499070D01*
X-7164583Y-3429681D01*
X-7149999Y-3444265D01*
X-7150000Y-4216989D01*
X-7152480Y-4215332D01*
X-7332103Y-4140930D01*
X-7522789Y-4103000D01*
X-7717211Y-4103000D01*
X-7907897Y-4140930D01*
X-8087520Y-4215332D01*
X-8249176Y-4323347D01*
X-8386653Y-4460824D01*
X-8494668Y-4622480D01*
X-8569070Y-4802103D01*
X-8607000Y-4992789D01*
X-8607000Y-5187211D01*
X-8569070Y-5377897D01*
X-8494668Y-5557520D01*
X-8386653Y-5719176D01*
X-8249176Y-5856653D01*
X-8087520Y-5964668D01*
X-7907897Y-6039070D01*
X-7717211Y-6077000D01*
X-7522789Y-6077000D01*
X-7332103Y-6039070D01*
X-7152480Y-5964668D01*
X-6990824Y-5856653D01*
X-6853347Y-5719176D01*
X-6745332Y-5557520D01*
X-6678014Y-5395000D01*
X-6554263Y-5395000D01*
X-5274264Y-6675000D01*
X-6950270Y-6675000D01*
X-6965000Y-6673549D01*
X-6979730Y-6675000D01*
X-6979733Y-6675000D01*
X-7023810Y-6679341D01*
X-7080360Y-6696496D01*
X-7093471Y-6703504D01*
X-7132478Y-6724353D01*
X-7156186Y-6743810D01*
X-7164273Y-6750447D01*
X-7332103Y-6680930D01*
X-7522789Y-6643000D01*
X-7717211Y-6643000D01*
X-7907897Y-6680930D01*
X-8087520Y-6755332D01*
X-8249176Y-6863347D01*
X-8386653Y-7000824D01*
X-8494668Y-7162480D01*
X-8569070Y-7342103D01*
X-8607000Y-7532789D01*
X-8607000Y-7727211D01*
X-8569070Y-7917897D01*
X-8494668Y-8097520D01*
X-8386653Y-8259176D01*
X-8249176Y-8396653D01*
X-8087520Y-8504668D01*
X-7907897Y-8579070D01*
X-7717211Y-8617000D01*
X-7522789Y-8617000D01*
X-7332103Y-8579070D01*
X-7152480Y-8504668D01*
X-6990824Y-8396653D01*
X-6853347Y-8259176D01*
X-6745332Y-8097520D01*
X-6670930Y-7917897D01*
X-6633000Y-7727211D01*
X-6633000Y-7532789D01*
X-6670930Y-7342103D01*
X-6698725Y-7275000D01*
X-5246751Y-7275000D01*
X-5268956Y-7297205D01*
X-5320939Y-7375003D01*
X-5356746Y-7461448D01*
X-5375000Y-7553217D01*
X-5375000Y-7646783D01*
X-5356746Y-7738552D01*
X-5352004Y-7750000D01*
X-5704176Y-7750000D01*
X-5706044Y-7747205D01*
X-5772205Y-7681044D01*
X-5850003Y-7629061D01*
X-5936448Y-7593254D01*
X-6028217Y-7575000D01*
X-6121783Y-7575000D01*
X-6213552Y-7593254D01*
X-6299997Y-7629061D01*
X-6377795Y-7681044D01*
X-6443956Y-7747205D01*
X-6495939Y-7825003D01*
X-6531746Y-7911448D01*
X-6550000Y-8003217D01*
X-6550000Y-8096783D01*
X-6531746Y-8188552D01*
X-6495939Y-8274997D01*
X-6443956Y-8352795D01*
X-6377795Y-8418956D01*
X-6299997Y-8470939D01*
X-6213552Y-8506746D01*
X-6121783Y-8525000D01*
X-6028217Y-8525000D01*
X-5936448Y-8506746D01*
X-5850003Y-8470939D01*
X-5772205Y-8418956D01*
X-5706044Y-8352795D01*
X-5704176Y-8350000D01*
X-3849263Y-8350000D01*
X-4173787Y-8674524D01*
X-4180000Y-8673912D01*
X-5180000Y-8673912D01*
X-5224108Y-8678256D01*
X-5266520Y-8691122D01*
X-5305608Y-8712015D01*
X-5339868Y-8740132D01*
X-5367985Y-8774392D01*
X-5388878Y-8813480D01*
X-5401744Y-8855892D01*
X-5406088Y-8900000D01*
X-5406088Y-9900000D01*
X-5401744Y-9944108D01*
X-5388878Y-9986520D01*
X-5367985Y-10025608D01*
X-5339868Y-10059868D01*
X-5305608Y-10087985D01*
X-5266520Y-10108878D01*
X-5224108Y-10121744D01*
X-5180000Y-10126088D01*
X-4180000Y-10126088D01*
X-4135892Y-10121744D01*
X-4093480Y-10108878D01*
X-4054392Y-10087985D01*
X-4020132Y-10059868D01*
X-3992015Y-10025608D01*
X-3971122Y-9986520D01*
X-3958256Y-9944108D01*
X-3953912Y-9900000D01*
X-3953912Y-9303175D01*
X-3896088Y-9245351D01*
X-3896088Y-9900000D01*
X-3891744Y-9944108D01*
X-3878878Y-9986520D01*
X-3857985Y-10025608D01*
X-3829868Y-10059868D01*
X-3795608Y-10087985D01*
X-3756520Y-10108878D01*
X-3714108Y-10121744D01*
X-3670000Y-10126088D01*
X-3522839Y-10126088D01*
X-3568956Y-10172205D01*
X-3620939Y-10250003D01*
X-3656746Y-10336448D01*
X-3675000Y-10428217D01*
X-3675000Y-10521783D01*
X-3656746Y-10613552D01*
X-3620939Y-10699997D01*
X-3587528Y-10750000D01*
X-6085270Y-10750000D01*
X-6100000Y-10748549D01*
X-6114730Y-10750000D01*
X-6114733Y-10750000D01*
X-6158810Y-10754341D01*
X-6215360Y-10771496D01*
X-6267478Y-10799353D01*
X-6298725Y-10824997D01*
X-6313158Y-10836842D01*
X-6322549Y-10848285D01*
X-6799264Y-11325000D01*
X-8770000Y-11325000D01*
X-8770000Y-10072789D01*
X-8607000Y-10072789D01*
X-8607000Y-10267211D01*
X-8569070Y-10457897D01*
X-8494668Y-10637520D01*
X-8386653Y-10799176D01*
X-8249176Y-10936653D01*
X-8087520Y-11044668D01*
X-7907897Y-11119070D01*
X-7717211Y-11157000D01*
X-7522789Y-11157000D01*
X-7332103Y-11119070D01*
X-7152480Y-11044668D01*
X-6990824Y-10936653D01*
X-6853347Y-10799176D01*
X-6745332Y-10637520D01*
X-6670930Y-10457897D01*
X-6633000Y-10267211D01*
X-6633000Y-10072789D01*
X-6670930Y-9882103D01*
X-6745332Y-9702480D01*
X-6853347Y-9540824D01*
X-6990824Y-9403347D01*
X-7152480Y-9295332D01*
X-7332103Y-9220930D01*
X-7522789Y-9183000D01*
X-7717211Y-9183000D01*
X-7907897Y-9220930D01*
X-8087520Y-9295332D01*
X-8249176Y-9403347D01*
X-8386653Y-9540824D01*
X-8494668Y-9702480D01*
X-8569070Y-9882103D01*
X-8607000Y-10072789D01*
X-8770000Y-10072789D01*
X-8770000Y-2076364D01*
X-8766441Y-2064632D01*
X-8765000Y-2050000D01*
X-8765000Y2050000D01*
X-8766441Y2064632D01*
X-8770000Y2076364D01*
X-8770000Y4266963D01*
X-8169893Y4266963D01*
X-8078564Y4134308D01*
X-7887208Y4062825D01*
X-7685583Y4030047D01*
X-7481438Y4037235D01*
X-7282618Y4084112D01*
X-7161436Y4134308D01*
X-7070107Y4266963D01*
X-7620000Y4816856D01*
X-8169893Y4266963D01*
X-8770000Y4266963D01*
X-8770000Y5135583D01*
X-8659953Y5135583D01*
X-8652765Y4931438D01*
X-8605888Y4732618D01*
X-8555692Y4611436D01*
X-8423037Y4520107D01*
X-7873144Y5070000D01*
X-8423037Y5619893D01*
X-8555692Y5528564D01*
X-8627175Y5337208D01*
X-8659953Y5135583D01*
X-8770000Y5135583D01*
X-8770000Y5873037D01*
X-8169893Y5873037D01*
X-7620000Y5323144D01*
X-7070107Y5873037D01*
X-7161436Y6005692D01*
X-7352792Y6077175D01*
X-7554417Y6109953D01*
X-7758562Y6102765D01*
X-7957382Y6055888D01*
X-8078564Y6005692D01*
X-8169893Y5873037D01*
X-8770000Y5873037D01*
X-8770000Y6806963D01*
X-8169893Y6806963D01*
X-8078564Y6674308D01*
X-7887208Y6602825D01*
X-7685583Y6570047D01*
X-7481438Y6577235D01*
X-7282618Y6624112D01*
X-7161436Y6674308D01*
X-7070107Y6806963D01*
X-7620000Y7356856D01*
X-8169893Y6806963D01*
X-8770000Y6806963D01*
X-8770000Y7675583D01*
X-8659953Y7675583D01*
X-8652765Y7471438D01*
X-8605888Y7272618D01*
X-8555692Y7151436D01*
X-8423037Y7060107D01*
X-7873144Y7610000D01*
X-8423037Y8159893D01*
X-8555692Y8068564D01*
X-8627175Y7877208D01*
X-8659953Y7675583D01*
X-8770000Y7675583D01*
X-8770000Y8413037D01*
X-8169893Y8413037D01*
X-7620000Y7863144D01*
X-7070107Y8413037D01*
X-7161436Y8545692D01*
X-7352792Y8617175D01*
X-7554417Y8649953D01*
X-7758562Y8642765D01*
X-7957382Y8595888D01*
X-8078564Y8545692D01*
X-8169893Y8413037D01*
X-8770000Y8413037D01*
X-8770000Y14426963D01*
X-8169893Y14426963D01*
X-8078564Y14294308D01*
X-7887208Y14222825D01*
X-7685583Y14190047D01*
X-7481438Y14197235D01*
X-7282618Y14244112D01*
X-7161436Y14294308D01*
X-7070107Y14426963D01*
X-7620000Y14976856D01*
X-8169893Y14426963D01*
X-8770000Y14426963D01*
X-8770000Y15237771D01*
X-8764332Y15295583D01*
X-8659953Y15295583D01*
X-8652765Y15091438D01*
X-8605888Y14892618D01*
X-8555692Y14771436D01*
X-8423037Y14680107D01*
X-7873144Y15230000D01*
X-7366856Y15230000D01*
X-6816963Y14680107D01*
X-6684308Y14771436D01*
X-6612825Y14962792D01*
X-6580047Y15164417D01*
X-6587235Y15368562D01*
X-6634112Y15567382D01*
X-6684308Y15688564D01*
X-6816963Y15779893D01*
X-7366856Y15230000D01*
X-7873144Y15230000D01*
X-8423037Y15779893D01*
X-8555692Y15688564D01*
X-8627175Y15497208D01*
X-8659953Y15295583D01*
X-8764332Y15295583D01*
X-8746922Y15473137D01*
X-8682119Y15687775D01*
X-8576860Y15885739D01*
X-8456727Y16033037D01*
X-8169893Y16033037D01*
X-7620000Y15483144D01*
X-7070107Y16033037D01*
X-7161436Y16165692D01*
X-7352792Y16237175D01*
X-7554417Y16269953D01*
X-7758562Y16262765D01*
X-7957382Y16215888D01*
X-8078564Y16165692D01*
X-8169893Y16033037D01*
X-8456727Y16033037D01*
X-8435156Y16059485D01*
X-8262402Y16202399D01*
X-8065181Y16309036D01*
X-7850994Y16375338D01*
X-7616352Y16400000D01*
X-6162624Y16400000D01*
X-6180731Y16377936D01*
G37*
%TD.AperFunction*%
D18*
X169061Y-7175003D02*
X133254Y-7261448D01*
X122000Y-7318027D01*
X106783Y-7315000D01*
X13217Y-7315000D01*
X-78552Y-7333254D01*
X-164997Y-7369061D01*
X-242795Y-7421044D01*
X-308956Y-7487205D01*
X-360939Y-7565003D01*
X-396746Y-7651448D01*
X-415000Y-7743217D01*
X-415000Y-7836783D01*
X-396746Y-7928552D01*
X-360939Y-8014997D01*
X-308956Y-8092795D01*
X-242795Y-8158956D01*
X-164997Y-8210939D01*
X-78552Y-8246746D01*
X13217Y-8265000D01*
X106783Y-8265000D01*
X110081Y-8264344D01*
X1022451Y-9176715D01*
X1031842Y-9188158D01*
X1043285Y-9197549D01*
X1077522Y-9225647D01*
X1105379Y-9240536D01*
X1129640Y-9253504D01*
X1186190Y-9270659D01*
X1230267Y-9275000D01*
X1230276Y-9275000D01*
X1244999Y-9276450D01*
X1259722Y-9275000D01*
X2535277Y-9275000D01*
X2550000Y-9276450D01*
X2564723Y-9275000D01*
X2564733Y-9275000D01*
X2608810Y-9270659D01*
X2665360Y-9253504D01*
X2717477Y-9225647D01*
X2763158Y-9188158D01*
X2772553Y-9176710D01*
X3624264Y-8325000D01*
X4500000Y-8325000D01*
X4500000Y-8510277D01*
X4498550Y-8525000D01*
X4500000Y-8539723D01*
X4500000Y-8539732D01*
X4504341Y-8583809D01*
X4521496Y-8640359D01*
X4526649Y-8649999D01*
X4549353Y-8692477D01*
X4565246Y-8711842D01*
X4586842Y-8738158D01*
X4598290Y-8747553D01*
X4977450Y-9126714D01*
X4986842Y-9138158D01*
X4998285Y-9147549D01*
X5032522Y-9175647D01*
X5060379Y-9190536D01*
X5084640Y-9203504D01*
X5141190Y-9220659D01*
X5185267Y-9225000D01*
X5185276Y-9225000D01*
X5199999Y-9226450D01*
X5214722Y-9225000D01*
X5625737Y-9225000D01*
X6000001Y-9599265D01*
X6000000Y-10960277D01*
X5998550Y-10975000D01*
X6000000Y-10989723D01*
X6000000Y-10989732D01*
X6004341Y-11033809D01*
X6021496Y-11090359D01*
X6021497Y-11090360D01*
X6049353Y-11142477D01*
X6056718Y-11151451D01*
X6086842Y-11188158D01*
X6098290Y-11197553D01*
X6225736Y-11325000D01*
X-1225737Y-11325000D01*
X-975736Y-11075000D01*
X-903217Y-11075000D01*
X-811448Y-11056746D01*
X-725003Y-11020939D01*
X-647205Y-10968956D01*
X-581044Y-10902795D01*
X-529061Y-10824997D01*
X-493254Y-10738552D01*
X-475000Y-10646783D01*
X-475000Y-10553217D01*
X-493254Y-10461448D01*
X-529061Y-10375003D01*
X-581044Y-10297205D01*
X-647205Y-10231044D01*
X-725003Y-10179061D01*
X-811448Y-10143254D01*
X-903217Y-10125000D01*
X-996783Y-10125000D01*
X-1088552Y-10143254D01*
X-1174997Y-10179061D01*
X-1175000Y-10179063D01*
X-1175000Y-9070824D01*
X-1172205Y-9068956D01*
X-1106044Y-9002795D01*
X-1054061Y-8924997D01*
X-1018254Y-8838552D01*
X-1000000Y-8746783D01*
X-1000000Y-8653217D01*
X-1018254Y-8561448D01*
X-1054061Y-8475003D01*
X-1106044Y-8397205D01*
X-1172205Y-8331044D01*
X-1250003Y-8279061D01*
X-1336448Y-8243254D01*
X-1428217Y-8225000D01*
X-1521783Y-8225000D01*
X-1613552Y-8243254D01*
X-1699997Y-8279061D01*
X-1777795Y-8331044D01*
X-1843956Y-8397205D01*
X-1847455Y-8402441D01*
X-1891044Y-8337205D01*
X-1957205Y-8271044D01*
X-2035003Y-8219061D01*
X-2121448Y-8183254D01*
X-2213217Y-8165000D01*
X-2306783Y-8165000D01*
X-2398552Y-8183254D01*
X-2484997Y-8219061D01*
X-2562795Y-8271044D01*
X-2628956Y-8337205D01*
X-2680939Y-8415003D01*
X-2716746Y-8501448D01*
X-2735000Y-8593217D01*
X-2735000Y-8673912D01*
X-3324648Y-8673912D01*
X-2769615Y-8118879D01*
X-2738552Y-8131746D01*
X-2646783Y-8150000D01*
X-2553217Y-8150000D01*
X-2461448Y-8131746D01*
X-2375003Y-8095939D01*
X-2297205Y-8043956D01*
X-2231044Y-7977795D01*
X-2179061Y-7899997D01*
X-2143254Y-7813552D01*
X-2125000Y-7721783D01*
X-2125000Y-7628217D01*
X-2143254Y-7536448D01*
X-2179061Y-7450003D01*
X-2231044Y-7372205D01*
X-2297205Y-7306044D01*
X-2375003Y-7254061D01*
X-2431426Y-7230690D01*
X-2350736Y-7150000D01*
X185767Y-7150000D01*
X169061Y-7175003D01*
%TA.AperFunction,Conductor*%
D22*
G36*
X169061Y-7175003D02*
G01*
X133254Y-7261448D01*
X122000Y-7318027D01*
X106783Y-7315000D01*
X13217Y-7315000D01*
X-78552Y-7333254D01*
X-164997Y-7369061D01*
X-242795Y-7421044D01*
X-308956Y-7487205D01*
X-360939Y-7565003D01*
X-396746Y-7651448D01*
X-415000Y-7743217D01*
X-415000Y-7836783D01*
X-396746Y-7928552D01*
X-360939Y-8014997D01*
X-308956Y-8092795D01*
X-242795Y-8158956D01*
X-164997Y-8210939D01*
X-78552Y-8246746D01*
X13217Y-8265000D01*
X106783Y-8265000D01*
X110081Y-8264344D01*
X1022451Y-9176715D01*
X1031842Y-9188158D01*
X1043285Y-9197549D01*
X1077522Y-9225647D01*
X1105379Y-9240536D01*
X1129640Y-9253504D01*
X1186190Y-9270659D01*
X1230267Y-9275000D01*
X1230276Y-9275000D01*
X1244999Y-9276450D01*
X1259722Y-9275000D01*
X2535277Y-9275000D01*
X2550000Y-9276450D01*
X2564723Y-9275000D01*
X2564733Y-9275000D01*
X2608810Y-9270659D01*
X2665360Y-9253504D01*
X2717477Y-9225647D01*
X2763158Y-9188158D01*
X2772553Y-9176710D01*
X3624264Y-8325000D01*
X4500000Y-8325000D01*
X4500000Y-8510277D01*
X4498550Y-8525000D01*
X4500000Y-8539723D01*
X4500000Y-8539732D01*
X4504341Y-8583809D01*
X4521496Y-8640359D01*
X4526649Y-8649999D01*
X4549353Y-8692477D01*
X4565246Y-8711842D01*
X4586842Y-8738158D01*
X4598290Y-8747553D01*
X4977450Y-9126714D01*
X4986842Y-9138158D01*
X4998285Y-9147549D01*
X5032522Y-9175647D01*
X5060379Y-9190536D01*
X5084640Y-9203504D01*
X5141190Y-9220659D01*
X5185267Y-9225000D01*
X5185276Y-9225000D01*
X5199999Y-9226450D01*
X5214722Y-9225000D01*
X5625737Y-9225000D01*
X6000001Y-9599265D01*
X6000000Y-10960277D01*
X5998550Y-10975000D01*
X6000000Y-10989723D01*
X6000000Y-10989732D01*
X6004341Y-11033809D01*
X6021496Y-11090359D01*
X6021497Y-11090360D01*
X6049353Y-11142477D01*
X6056718Y-11151451D01*
X6086842Y-11188158D01*
X6098290Y-11197553D01*
X6225736Y-11325000D01*
X-1225737Y-11325000D01*
X-975736Y-11075000D01*
X-903217Y-11075000D01*
X-811448Y-11056746D01*
X-725003Y-11020939D01*
X-647205Y-10968956D01*
X-581044Y-10902795D01*
X-529061Y-10824997D01*
X-493254Y-10738552D01*
X-475000Y-10646783D01*
X-475000Y-10553217D01*
X-493254Y-10461448D01*
X-529061Y-10375003D01*
X-581044Y-10297205D01*
X-647205Y-10231044D01*
X-725003Y-10179061D01*
X-811448Y-10143254D01*
X-903217Y-10125000D01*
X-996783Y-10125000D01*
X-1088552Y-10143254D01*
X-1174997Y-10179061D01*
X-1175000Y-10179063D01*
X-1175000Y-9070824D01*
X-1172205Y-9068956D01*
X-1106044Y-9002795D01*
X-1054061Y-8924997D01*
X-1018254Y-8838552D01*
X-1000000Y-8746783D01*
X-1000000Y-8653217D01*
X-1018254Y-8561448D01*
X-1054061Y-8475003D01*
X-1106044Y-8397205D01*
X-1172205Y-8331044D01*
X-1250003Y-8279061D01*
X-1336448Y-8243254D01*
X-1428217Y-8225000D01*
X-1521783Y-8225000D01*
X-1613552Y-8243254D01*
X-1699997Y-8279061D01*
X-1777795Y-8331044D01*
X-1843956Y-8397205D01*
X-1847455Y-8402441D01*
X-1891044Y-8337205D01*
X-1957205Y-8271044D01*
X-2035003Y-8219061D01*
X-2121448Y-8183254D01*
X-2213217Y-8165000D01*
X-2306783Y-8165000D01*
X-2398552Y-8183254D01*
X-2484997Y-8219061D01*
X-2562795Y-8271044D01*
X-2628956Y-8337205D01*
X-2680939Y-8415003D01*
X-2716746Y-8501448D01*
X-2735000Y-8593217D01*
X-2735000Y-8673912D01*
X-3324648Y-8673912D01*
X-2769615Y-8118879D01*
X-2738552Y-8131746D01*
X-2646783Y-8150000D01*
X-2553217Y-8150000D01*
X-2461448Y-8131746D01*
X-2375003Y-8095939D01*
X-2297205Y-8043956D01*
X-2231044Y-7977795D01*
X-2179061Y-7899997D01*
X-2143254Y-7813552D01*
X-2125000Y-7721783D01*
X-2125000Y-7628217D01*
X-2143254Y-7536448D01*
X-2179061Y-7450003D01*
X-2231044Y-7372205D01*
X-2297205Y-7306044D01*
X-2375003Y-7254061D01*
X-2431426Y-7230690D01*
X-2350736Y-7150000D01*
X185767Y-7150000D01*
X169061Y-7175003D01*
G37*
%TD.AperFunction*%
D18*
X7843137Y16376922D02*
X8057775Y16312119D01*
X8255739Y16206860D01*
X8429485Y16065156D01*
X8572399Y15892402D01*
X8679036Y15695181D01*
X8745338Y15480994D01*
X8770000Y15246352D01*
X8770001Y2076367D01*
X8766441Y2064632D01*
X8765000Y2050000D01*
X8765000Y-2050000D01*
X8766441Y-2064632D01*
X8770000Y-2076364D01*
X8770001Y-11325000D01*
X7474264Y-11325000D01*
X7223242Y-11073978D01*
X7332103Y-11119070D01*
X7522789Y-11157000D01*
X7717211Y-11157000D01*
X7907897Y-11119070D01*
X8087520Y-11044668D01*
X8249176Y-10936653D01*
X8386653Y-10799176D01*
X8494668Y-10637520D01*
X8569070Y-10457897D01*
X8607000Y-10267211D01*
X8607000Y-10072789D01*
X8569070Y-9882103D01*
X8494668Y-9702480D01*
X8386653Y-9540824D01*
X8249176Y-9403347D01*
X8087520Y-9295332D01*
X7907897Y-9220930D01*
X7717211Y-9183000D01*
X7522789Y-9183000D01*
X7332103Y-9220930D01*
X7288326Y-9239063D01*
X6825000Y-8775737D01*
X6825000Y-8216752D01*
X6853347Y-8259176D01*
X6990824Y-8396653D01*
X7152480Y-8504668D01*
X7332103Y-8579070D01*
X7522789Y-8617000D01*
X7717211Y-8617000D01*
X7907897Y-8579070D01*
X8087520Y-8504668D01*
X8249176Y-8396653D01*
X8386653Y-8259176D01*
X8494668Y-8097520D01*
X8569070Y-7917897D01*
X8607000Y-7727211D01*
X8607000Y-7532789D01*
X8569070Y-7342103D01*
X8494668Y-7162480D01*
X8386653Y-7000824D01*
X8249176Y-6863347D01*
X8087520Y-6755332D01*
X7907897Y-6680930D01*
X7717211Y-6643000D01*
X7522789Y-6643000D01*
X7332103Y-6680930D01*
X7164583Y-6750319D01*
X6162553Y-5748290D01*
X6153158Y-5736842D01*
X6107477Y-5699353D01*
X6055360Y-5671496D01*
X5998810Y-5654341D01*
X5954733Y-5650000D01*
X5954723Y-5650000D01*
X5940000Y-5648550D01*
X5925277Y-5650000D01*
X4170824Y-5650000D01*
X4168956Y-5647205D01*
X4102795Y-5581044D01*
X4024997Y-5529061D01*
X3954838Y-5500000D01*
X4024997Y-5470939D01*
X4102795Y-5418956D01*
X4168956Y-5352795D01*
X4220939Y-5274997D01*
X4256746Y-5188552D01*
X4275000Y-5096783D01*
X4275000Y-5024263D01*
X4999264Y-4300000D01*
X6405737Y-4300000D01*
X6740319Y-4634582D01*
X6670930Y-4802103D01*
X6633000Y-4992789D01*
X6633000Y-5187211D01*
X6670930Y-5377897D01*
X6745332Y-5557520D01*
X6853347Y-5719176D01*
X6990824Y-5856653D01*
X7152480Y-5964668D01*
X7332103Y-6039070D01*
X7522789Y-6077000D01*
X7717211Y-6077000D01*
X7907897Y-6039070D01*
X8087520Y-5964668D01*
X8249176Y-5856653D01*
X8386653Y-5719176D01*
X8494668Y-5557520D01*
X8569070Y-5377897D01*
X8607000Y-5187211D01*
X8607000Y-4992789D01*
X8569070Y-4802103D01*
X8494668Y-4622480D01*
X8386653Y-4460824D01*
X8249176Y-4323347D01*
X8087520Y-4215332D01*
X7907897Y-4140930D01*
X7717211Y-4103000D01*
X7522789Y-4103000D01*
X7332103Y-4140930D01*
X7164582Y-4210319D01*
X6752553Y-3798290D01*
X6743158Y-3786842D01*
X6697477Y-3749353D01*
X6650187Y-3724076D01*
X7030860Y-3343404D01*
X7152480Y-3424668D01*
X7332103Y-3499070D01*
X7522789Y-3537000D01*
X7717211Y-3537000D01*
X7907897Y-3499070D01*
X8087520Y-3424668D01*
X8249176Y-3316653D01*
X8386653Y-3179176D01*
X8494668Y-3017520D01*
X8569070Y-2837897D01*
X8607000Y-2647211D01*
X8607000Y-2452789D01*
X8569070Y-2262103D01*
X8494668Y-2082480D01*
X8386653Y-1920824D01*
X8249176Y-1783347D01*
X8087520Y-1675332D01*
X7907897Y-1600930D01*
X7717211Y-1563000D01*
X7522789Y-1563000D01*
X7332103Y-1600930D01*
X7152480Y-1675332D01*
X6990824Y-1783347D01*
X6853347Y-1920824D01*
X6810000Y-1985697D01*
X6810000Y-664263D01*
X6846033Y-628230D01*
X6853347Y-639176D01*
X6990824Y-776653D01*
X7152480Y-884668D01*
X7332103Y-959070D01*
X7522789Y-997000D01*
X7717211Y-997000D01*
X7907897Y-959070D01*
X8087520Y-884668D01*
X8249176Y-776653D01*
X8386653Y-639176D01*
X8494668Y-477520D01*
X8569070Y-297897D01*
X8607000Y-107211D01*
X8607000Y87211D01*
X8569070Y277897D01*
X8494668Y457520D01*
X8386653Y619176D01*
X8249176Y756653D01*
X8087520Y864668D01*
X7907897Y939070D01*
X7717211Y977000D01*
X7522789Y977000D01*
X7332103Y939070D01*
X7152480Y864668D01*
X6990824Y756653D01*
X6853347Y619176D01*
X6745332Y457520D01*
X6670930Y277897D01*
X6633000Y87211D01*
X6633000Y7264D01*
X6308285Y-317452D01*
X6296843Y-326842D01*
X6287452Y-338285D01*
X6287451Y-338286D01*
X6259353Y-372523D01*
X6231497Y-424640D01*
X6214342Y-481190D01*
X6208550Y-540000D01*
X6210001Y-554733D01*
X6210000Y-2815736D01*
X5900737Y-3125000D01*
X4414730Y-3125000D01*
X4400000Y-3123549D01*
X4385270Y-3125000D01*
X4385267Y-3125000D01*
X4341190Y-3129341D01*
X4297801Y-3142503D01*
X4284639Y-3146496D01*
X4269594Y-3154537D01*
X4246783Y-3150000D01*
X4153217Y-3150000D01*
X4061448Y-3168254D01*
X3975003Y-3204061D01*
X3897205Y-3256044D01*
X3831044Y-3322205D01*
X3779061Y-3400003D01*
X3743254Y-3486448D01*
X3725000Y-3578217D01*
X3725000Y-3671783D01*
X3743254Y-3763552D01*
X3751242Y-3782837D01*
X3700003Y-3804061D01*
X3622205Y-3856044D01*
X3556044Y-3922205D01*
X3504061Y-4000003D01*
X3468254Y-4086448D01*
X3450000Y-4178217D01*
X3450000Y-4271783D01*
X3468254Y-4363552D01*
X3504061Y-4449997D01*
X3556044Y-4527795D01*
X3622205Y-4593956D01*
X3636574Y-4603557D01*
X3575003Y-4629061D01*
X3497205Y-4681044D01*
X3431044Y-4747205D01*
X3379061Y-4825003D01*
X3343254Y-4911448D01*
X3325000Y-5003217D01*
X3325000Y-5096783D01*
X3343254Y-5188552D01*
X3379061Y-5274997D01*
X3431044Y-5352795D01*
X3497205Y-5418956D01*
X3575003Y-5470939D01*
X3645162Y-5500000D01*
X3575003Y-5529061D01*
X3497205Y-5581044D01*
X3431044Y-5647205D01*
X3379061Y-5725003D01*
X3343254Y-5811448D01*
X3325000Y-5903217D01*
X3325000Y-5996783D01*
X3343254Y-6088552D01*
X3358351Y-6125000D01*
X2949730Y-6125000D01*
X2935000Y-6123549D01*
X2920270Y-6125000D01*
X2920267Y-6125000D01*
X2876190Y-6129341D01*
X2875000Y-6129702D01*
X2875000Y-3596751D01*
X2897205Y-3618956D01*
X2975003Y-3670939D01*
X3061448Y-3706746D01*
X3153217Y-3725000D01*
X3246783Y-3725000D01*
X3338552Y-3706746D01*
X3424997Y-3670939D01*
X3502795Y-3618956D01*
X3568956Y-3552795D01*
X3620939Y-3474997D01*
X3656746Y-3388552D01*
X3675000Y-3296783D01*
X3675000Y-3203217D01*
X3674344Y-3199919D01*
X4476716Y-2397547D01*
X4488158Y-2388158D01*
X4498954Y-2375003D01*
X4525647Y-2342478D01*
X4553504Y-2290360D01*
X4559226Y-2271497D01*
X4570659Y-2233810D01*
X4575000Y-2189733D01*
X4575000Y-2189730D01*
X4576451Y-2175000D01*
X4575000Y-2160270D01*
X4575000Y2230000D01*
X6675943Y2230000D01*
X6745332Y2062480D01*
X6853347Y1900824D01*
X6990824Y1763347D01*
X7152480Y1655332D01*
X7332103Y1580930D01*
X7522789Y1543000D01*
X7717211Y1543000D01*
X7907897Y1580930D01*
X8087520Y1655332D01*
X8249176Y1763347D01*
X8386653Y1900824D01*
X8494668Y2062480D01*
X8569070Y2242103D01*
X8607000Y2432789D01*
X8607000Y2627211D01*
X8569070Y2817897D01*
X8494668Y2997520D01*
X8386653Y3159176D01*
X8249176Y3296653D01*
X8087520Y3404668D01*
X7907897Y3479070D01*
X7717211Y3517000D01*
X7522789Y3517000D01*
X7332103Y3479070D01*
X7152480Y3404668D01*
X6990824Y3296653D01*
X6853347Y3159176D01*
X6745332Y2997520D01*
X6675943Y2830000D01*
X4729263Y2830000D01*
X5921046Y4021783D01*
X6175000Y4021783D01*
X6175000Y3928217D01*
X6193254Y3836448D01*
X6229061Y3750003D01*
X6281044Y3672205D01*
X6347205Y3606044D01*
X6425003Y3554061D01*
X6511448Y3518254D01*
X6603217Y3500000D01*
X6696783Y3500000D01*
X6788552Y3518254D01*
X6874997Y3554061D01*
X6952795Y3606044D01*
X7018956Y3672205D01*
X7070939Y3750003D01*
X7106746Y3836448D01*
X7125000Y3928217D01*
X7125000Y4021783D01*
X7106746Y4113552D01*
X7070939Y4199997D01*
X7018956Y4277795D01*
X6998599Y4298152D01*
X7152480Y4195332D01*
X7332103Y4120930D01*
X7522789Y4083000D01*
X7717211Y4083000D01*
X7907897Y4120930D01*
X8087520Y4195332D01*
X8249176Y4303347D01*
X8386653Y4440824D01*
X8494668Y4602480D01*
X8569070Y4782103D01*
X8607000Y4972789D01*
X8607000Y5167211D01*
X8569070Y5357897D01*
X8494668Y5537520D01*
X8386653Y5699176D01*
X8249176Y5836653D01*
X8087520Y5944668D01*
X7907897Y6019070D01*
X7717211Y6057000D01*
X7522789Y6057000D01*
X7332103Y6019070D01*
X7152480Y5944668D01*
X6990824Y5836653D01*
X6853347Y5699176D01*
X6745332Y5537520D01*
X6670930Y5357897D01*
X6633000Y5167211D01*
X6633000Y4972789D01*
X6670930Y4782103D01*
X6745332Y4602480D01*
X6853347Y4440824D01*
X6945020Y4349151D01*
X6874997Y4395939D01*
X6788552Y4431746D01*
X6696783Y4450000D01*
X6603217Y4450000D01*
X6511448Y4431746D01*
X6425003Y4395939D01*
X6347205Y4343956D01*
X6281044Y4277795D01*
X6229061Y4199997D01*
X6193254Y4113552D01*
X6175000Y4021783D01*
X5921046Y4021783D01*
X5976717Y4077453D01*
X5988158Y4086842D01*
X6002289Y4104061D01*
X6025647Y4132522D01*
X6053503Y4184639D01*
X6053504Y4184640D01*
X6070659Y4241190D01*
X6075000Y4285267D01*
X6075000Y4285276D01*
X6076450Y4299999D01*
X6075000Y4314722D01*
X6075000Y5955737D01*
X6976718Y6857453D01*
X6990824Y6843347D01*
X7152480Y6735332D01*
X7332103Y6660930D01*
X7522789Y6623000D01*
X7717211Y6623000D01*
X7907897Y6660930D01*
X8087520Y6735332D01*
X8249176Y6843347D01*
X8386653Y6980824D01*
X8494668Y7142480D01*
X8569070Y7322103D01*
X8607000Y7512789D01*
X8607000Y7707211D01*
X8569070Y7897897D01*
X8494668Y8077520D01*
X8386653Y8239176D01*
X8249176Y8376653D01*
X8087520Y8484668D01*
X7907897Y8559070D01*
X7717211Y8597000D01*
X7522789Y8597000D01*
X7332103Y8559070D01*
X7152480Y8484668D01*
X6990824Y8376653D01*
X6853347Y8239176D01*
X6745332Y8077520D01*
X6670930Y7897897D01*
X6633000Y7707211D01*
X6633000Y7512789D01*
X6657974Y7387238D01*
X5700000Y6429263D01*
X5700000Y7406250D01*
X5745939Y7475003D01*
X5781746Y7561448D01*
X5800000Y7653217D01*
X5800000Y7746783D01*
X5781746Y7838552D01*
X5745939Y7924997D01*
X5700000Y7993750D01*
X5700000Y9346963D01*
X7070107Y9346963D01*
X7161436Y9214308D01*
X7352792Y9142825D01*
X7554417Y9110047D01*
X7758562Y9117235D01*
X7957382Y9164112D01*
X8078564Y9214308D01*
X8169893Y9346963D01*
X7620000Y9896856D01*
X7070107Y9346963D01*
X5700000Y9346963D01*
X5700000Y9369671D01*
X6586673Y10256344D01*
X6580047Y10215583D01*
X6587235Y10011438D01*
X6634112Y9812618D01*
X6684308Y9691436D01*
X6816963Y9600107D01*
X7366856Y10150000D01*
X7873144Y10150000D01*
X8423037Y9600107D01*
X8555692Y9691436D01*
X8627175Y9882792D01*
X8659953Y10084417D01*
X8652765Y10288562D01*
X8605888Y10487382D01*
X8555692Y10608564D01*
X8423037Y10699893D01*
X7873144Y10150000D01*
X7366856Y10150000D01*
X6871438Y10645418D01*
X6875000Y10681581D01*
X6875000Y10681584D01*
X6876814Y10700000D01*
X6875000Y10718416D01*
X6875000Y10953037D01*
X7070107Y10953037D01*
X7620000Y10403144D01*
X8169893Y10953037D01*
X8078564Y11085692D01*
X7887208Y11157175D01*
X7685583Y11189953D01*
X7481438Y11182765D01*
X7282618Y11135888D01*
X7161436Y11085692D01*
X7070107Y10953037D01*
X6875000Y10953037D01*
X6875000Y12039171D01*
X6990824Y11923347D01*
X7152480Y11815332D01*
X7332103Y11740930D01*
X7522789Y11703000D01*
X7717211Y11703000D01*
X7907897Y11740930D01*
X8087520Y11815332D01*
X8249176Y11923347D01*
X8386653Y12060824D01*
X8494668Y12222480D01*
X8569070Y12402103D01*
X8607000Y12592789D01*
X8607000Y12787211D01*
X8569070Y12977897D01*
X8494668Y13157520D01*
X8386653Y13319176D01*
X8249176Y13456653D01*
X8087520Y13564668D01*
X7907897Y13639070D01*
X7717211Y13677000D01*
X7522789Y13677000D01*
X7332103Y13639070D01*
X7152480Y13564668D01*
X6990824Y13456653D01*
X6875000Y13340829D01*
X6875000Y13954671D01*
X7239583Y14319253D01*
X7332103Y14280930D01*
X7522789Y14243000D01*
X7717211Y14243000D01*
X7907897Y14280930D01*
X8087520Y14355332D01*
X8249176Y14463347D01*
X8386653Y14600824D01*
X8494668Y14762480D01*
X8569070Y14942103D01*
X8607000Y15132789D01*
X8607000Y15327211D01*
X8569070Y15517897D01*
X8494668Y15697520D01*
X8386653Y15859176D01*
X8249176Y15996653D01*
X8087520Y16104668D01*
X7907897Y16179070D01*
X7717211Y16217000D01*
X7522789Y16217000D01*
X7332103Y16179070D01*
X7152480Y16104668D01*
X6990824Y15996653D01*
X6853347Y15859176D01*
X6745332Y15697520D01*
X6670930Y15517897D01*
X6633000Y15327211D01*
X6633000Y15132789D01*
X6670930Y14942103D01*
X6709253Y14849583D01*
X6247862Y14388191D01*
X6233553Y14376448D01*
X6221811Y14362140D01*
X6186691Y14319346D01*
X6151870Y14254200D01*
X6148473Y14243000D01*
X6130427Y14183512D01*
X6123186Y14110000D01*
X6125001Y14091574D01*
X6125000Y12693419D01*
X6123186Y12675000D01*
X6125000Y12656584D01*
X6125000Y12656582D01*
X6125001Y12656572D01*
X6125001Y12346575D01*
X6090731Y12388332D01*
X5980336Y12478931D01*
X5875600Y12534914D01*
X5875600Y14111485D01*
X5980337Y14167469D01*
X6090732Y14258068D01*
X6181331Y14368463D01*
X6248653Y14494412D01*
X6290109Y14631075D01*
X6300600Y14737593D01*
X6300600Y16008807D01*
X6290109Y16115325D01*
X6248653Y16251988D01*
X6181331Y16377937D01*
X6163224Y16400000D01*
X7607771Y16400000D01*
X7843137Y16376922D01*
%TA.AperFunction,Conductor*%
D22*
G36*
X7843137Y16376922D02*
G01*
X8057775Y16312119D01*
X8255739Y16206860D01*
X8429485Y16065156D01*
X8572399Y15892402D01*
X8679036Y15695181D01*
X8745338Y15480994D01*
X8770000Y15246352D01*
X8770001Y2076367D01*
X8766441Y2064632D01*
X8765000Y2050000D01*
X8765000Y-2050000D01*
X8766441Y-2064632D01*
X8770000Y-2076364D01*
X8770001Y-11325000D01*
X7474264Y-11325000D01*
X7223242Y-11073978D01*
X7332103Y-11119070D01*
X7522789Y-11157000D01*
X7717211Y-11157000D01*
X7907897Y-11119070D01*
X8087520Y-11044668D01*
X8249176Y-10936653D01*
X8386653Y-10799176D01*
X8494668Y-10637520D01*
X8569070Y-10457897D01*
X8607000Y-10267211D01*
X8607000Y-10072789D01*
X8569070Y-9882103D01*
X8494668Y-9702480D01*
X8386653Y-9540824D01*
X8249176Y-9403347D01*
X8087520Y-9295332D01*
X7907897Y-9220930D01*
X7717211Y-9183000D01*
X7522789Y-9183000D01*
X7332103Y-9220930D01*
X7288326Y-9239063D01*
X6825000Y-8775737D01*
X6825000Y-8216752D01*
X6853347Y-8259176D01*
X6990824Y-8396653D01*
X7152480Y-8504668D01*
X7332103Y-8579070D01*
X7522789Y-8617000D01*
X7717211Y-8617000D01*
X7907897Y-8579070D01*
X8087520Y-8504668D01*
X8249176Y-8396653D01*
X8386653Y-8259176D01*
X8494668Y-8097520D01*
X8569070Y-7917897D01*
X8607000Y-7727211D01*
X8607000Y-7532789D01*
X8569070Y-7342103D01*
X8494668Y-7162480D01*
X8386653Y-7000824D01*
X8249176Y-6863347D01*
X8087520Y-6755332D01*
X7907897Y-6680930D01*
X7717211Y-6643000D01*
X7522789Y-6643000D01*
X7332103Y-6680930D01*
X7164583Y-6750319D01*
X6162553Y-5748290D01*
X6153158Y-5736842D01*
X6107477Y-5699353D01*
X6055360Y-5671496D01*
X5998810Y-5654341D01*
X5954733Y-5650000D01*
X5954723Y-5650000D01*
X5940000Y-5648550D01*
X5925277Y-5650000D01*
X4170824Y-5650000D01*
X4168956Y-5647205D01*
X4102795Y-5581044D01*
X4024997Y-5529061D01*
X3954838Y-5500000D01*
X4024997Y-5470939D01*
X4102795Y-5418956D01*
X4168956Y-5352795D01*
X4220939Y-5274997D01*
X4256746Y-5188552D01*
X4275000Y-5096783D01*
X4275000Y-5024263D01*
X4999264Y-4300000D01*
X6405737Y-4300000D01*
X6740319Y-4634582D01*
X6670930Y-4802103D01*
X6633000Y-4992789D01*
X6633000Y-5187211D01*
X6670930Y-5377897D01*
X6745332Y-5557520D01*
X6853347Y-5719176D01*
X6990824Y-5856653D01*
X7152480Y-5964668D01*
X7332103Y-6039070D01*
X7522789Y-6077000D01*
X7717211Y-6077000D01*
X7907897Y-6039070D01*
X8087520Y-5964668D01*
X8249176Y-5856653D01*
X8386653Y-5719176D01*
X8494668Y-5557520D01*
X8569070Y-5377897D01*
X8607000Y-5187211D01*
X8607000Y-4992789D01*
X8569070Y-4802103D01*
X8494668Y-4622480D01*
X8386653Y-4460824D01*
X8249176Y-4323347D01*
X8087520Y-4215332D01*
X7907897Y-4140930D01*
X7717211Y-4103000D01*
X7522789Y-4103000D01*
X7332103Y-4140930D01*
X7164582Y-4210319D01*
X6752553Y-3798290D01*
X6743158Y-3786842D01*
X6697477Y-3749353D01*
X6650187Y-3724076D01*
X7030860Y-3343404D01*
X7152480Y-3424668D01*
X7332103Y-3499070D01*
X7522789Y-3537000D01*
X7717211Y-3537000D01*
X7907897Y-3499070D01*
X8087520Y-3424668D01*
X8249176Y-3316653D01*
X8386653Y-3179176D01*
X8494668Y-3017520D01*
X8569070Y-2837897D01*
X8607000Y-2647211D01*
X8607000Y-2452789D01*
X8569070Y-2262103D01*
X8494668Y-2082480D01*
X8386653Y-1920824D01*
X8249176Y-1783347D01*
X8087520Y-1675332D01*
X7907897Y-1600930D01*
X7717211Y-1563000D01*
X7522789Y-1563000D01*
X7332103Y-1600930D01*
X7152480Y-1675332D01*
X6990824Y-1783347D01*
X6853347Y-1920824D01*
X6810000Y-1985697D01*
X6810000Y-664263D01*
X6846033Y-628230D01*
X6853347Y-639176D01*
X6990824Y-776653D01*
X7152480Y-884668D01*
X7332103Y-959070D01*
X7522789Y-997000D01*
X7717211Y-997000D01*
X7907897Y-959070D01*
X8087520Y-884668D01*
X8249176Y-776653D01*
X8386653Y-639176D01*
X8494668Y-477520D01*
X8569070Y-297897D01*
X8607000Y-107211D01*
X8607000Y87211D01*
X8569070Y277897D01*
X8494668Y457520D01*
X8386653Y619176D01*
X8249176Y756653D01*
X8087520Y864668D01*
X7907897Y939070D01*
X7717211Y977000D01*
X7522789Y977000D01*
X7332103Y939070D01*
X7152480Y864668D01*
X6990824Y756653D01*
X6853347Y619176D01*
X6745332Y457520D01*
X6670930Y277897D01*
X6633000Y87211D01*
X6633000Y7264D01*
X6308285Y-317452D01*
X6296843Y-326842D01*
X6287452Y-338285D01*
X6287451Y-338286D01*
X6259353Y-372523D01*
X6231497Y-424640D01*
X6214342Y-481190D01*
X6208550Y-540000D01*
X6210001Y-554733D01*
X6210000Y-2815736D01*
X5900737Y-3125000D01*
X4414730Y-3125000D01*
X4400000Y-3123549D01*
X4385270Y-3125000D01*
X4385267Y-3125000D01*
X4341190Y-3129341D01*
X4297801Y-3142503D01*
X4284639Y-3146496D01*
X4269594Y-3154537D01*
X4246783Y-3150000D01*
X4153217Y-3150000D01*
X4061448Y-3168254D01*
X3975003Y-3204061D01*
X3897205Y-3256044D01*
X3831044Y-3322205D01*
X3779061Y-3400003D01*
X3743254Y-3486448D01*
X3725000Y-3578217D01*
X3725000Y-3671783D01*
X3743254Y-3763552D01*
X3751242Y-3782837D01*
X3700003Y-3804061D01*
X3622205Y-3856044D01*
X3556044Y-3922205D01*
X3504061Y-4000003D01*
X3468254Y-4086448D01*
X3450000Y-4178217D01*
X3450000Y-4271783D01*
X3468254Y-4363552D01*
X3504061Y-4449997D01*
X3556044Y-4527795D01*
X3622205Y-4593956D01*
X3636574Y-4603557D01*
X3575003Y-4629061D01*
X3497205Y-4681044D01*
X3431044Y-4747205D01*
X3379061Y-4825003D01*
X3343254Y-4911448D01*
X3325000Y-5003217D01*
X3325000Y-5096783D01*
X3343254Y-5188552D01*
X3379061Y-5274997D01*
X3431044Y-5352795D01*
X3497205Y-5418956D01*
X3575003Y-5470939D01*
X3645162Y-5500000D01*
X3575003Y-5529061D01*
X3497205Y-5581044D01*
X3431044Y-5647205D01*
X3379061Y-5725003D01*
X3343254Y-5811448D01*
X3325000Y-5903217D01*
X3325000Y-5996783D01*
X3343254Y-6088552D01*
X3358351Y-6125000D01*
X2949730Y-6125000D01*
X2935000Y-6123549D01*
X2920270Y-6125000D01*
X2920267Y-6125000D01*
X2876190Y-6129341D01*
X2875000Y-6129702D01*
X2875000Y-3596751D01*
X2897205Y-3618956D01*
X2975003Y-3670939D01*
X3061448Y-3706746D01*
X3153217Y-3725000D01*
X3246783Y-3725000D01*
X3338552Y-3706746D01*
X3424997Y-3670939D01*
X3502795Y-3618956D01*
X3568956Y-3552795D01*
X3620939Y-3474997D01*
X3656746Y-3388552D01*
X3675000Y-3296783D01*
X3675000Y-3203217D01*
X3674344Y-3199919D01*
X4476716Y-2397547D01*
X4488158Y-2388158D01*
X4498954Y-2375003D01*
X4525647Y-2342478D01*
X4553504Y-2290360D01*
X4559226Y-2271497D01*
X4570659Y-2233810D01*
X4575000Y-2189733D01*
X4575000Y-2189730D01*
X4576451Y-2175000D01*
X4575000Y-2160270D01*
X4575000Y2230000D01*
X6675943Y2230000D01*
X6745332Y2062480D01*
X6853347Y1900824D01*
X6990824Y1763347D01*
X7152480Y1655332D01*
X7332103Y1580930D01*
X7522789Y1543000D01*
X7717211Y1543000D01*
X7907897Y1580930D01*
X8087520Y1655332D01*
X8249176Y1763347D01*
X8386653Y1900824D01*
X8494668Y2062480D01*
X8569070Y2242103D01*
X8607000Y2432789D01*
X8607000Y2627211D01*
X8569070Y2817897D01*
X8494668Y2997520D01*
X8386653Y3159176D01*
X8249176Y3296653D01*
X8087520Y3404668D01*
X7907897Y3479070D01*
X7717211Y3517000D01*
X7522789Y3517000D01*
X7332103Y3479070D01*
X7152480Y3404668D01*
X6990824Y3296653D01*
X6853347Y3159176D01*
X6745332Y2997520D01*
X6675943Y2830000D01*
X4729263Y2830000D01*
X5921046Y4021783D01*
X6175000Y4021783D01*
X6175000Y3928217D01*
X6193254Y3836448D01*
X6229061Y3750003D01*
X6281044Y3672205D01*
X6347205Y3606044D01*
X6425003Y3554061D01*
X6511448Y3518254D01*
X6603217Y3500000D01*
X6696783Y3500000D01*
X6788552Y3518254D01*
X6874997Y3554061D01*
X6952795Y3606044D01*
X7018956Y3672205D01*
X7070939Y3750003D01*
X7106746Y3836448D01*
X7125000Y3928217D01*
X7125000Y4021783D01*
X7106746Y4113552D01*
X7070939Y4199997D01*
X7018956Y4277795D01*
X6998599Y4298152D01*
X7152480Y4195332D01*
X7332103Y4120930D01*
X7522789Y4083000D01*
X7717211Y4083000D01*
X7907897Y4120930D01*
X8087520Y4195332D01*
X8249176Y4303347D01*
X8386653Y4440824D01*
X8494668Y4602480D01*
X8569070Y4782103D01*
X8607000Y4972789D01*
X8607000Y5167211D01*
X8569070Y5357897D01*
X8494668Y5537520D01*
X8386653Y5699176D01*
X8249176Y5836653D01*
X8087520Y5944668D01*
X7907897Y6019070D01*
X7717211Y6057000D01*
X7522789Y6057000D01*
X7332103Y6019070D01*
X7152480Y5944668D01*
X6990824Y5836653D01*
X6853347Y5699176D01*
X6745332Y5537520D01*
X6670930Y5357897D01*
X6633000Y5167211D01*
X6633000Y4972789D01*
X6670930Y4782103D01*
X6745332Y4602480D01*
X6853347Y4440824D01*
X6945020Y4349151D01*
X6874997Y4395939D01*
X6788552Y4431746D01*
X6696783Y4450000D01*
X6603217Y4450000D01*
X6511448Y4431746D01*
X6425003Y4395939D01*
X6347205Y4343956D01*
X6281044Y4277795D01*
X6229061Y4199997D01*
X6193254Y4113552D01*
X6175000Y4021783D01*
X5921046Y4021783D01*
X5976717Y4077453D01*
X5988158Y4086842D01*
X6002289Y4104061D01*
X6025647Y4132522D01*
X6053503Y4184639D01*
X6053504Y4184640D01*
X6070659Y4241190D01*
X6075000Y4285267D01*
X6075000Y4285276D01*
X6076450Y4299999D01*
X6075000Y4314722D01*
X6075000Y5955737D01*
X6976718Y6857453D01*
X6990824Y6843347D01*
X7152480Y6735332D01*
X7332103Y6660930D01*
X7522789Y6623000D01*
X7717211Y6623000D01*
X7907897Y6660930D01*
X8087520Y6735332D01*
X8249176Y6843347D01*
X8386653Y6980824D01*
X8494668Y7142480D01*
X8569070Y7322103D01*
X8607000Y7512789D01*
X8607000Y7707211D01*
X8569070Y7897897D01*
X8494668Y8077520D01*
X8386653Y8239176D01*
X8249176Y8376653D01*
X8087520Y8484668D01*
X7907897Y8559070D01*
X7717211Y8597000D01*
X7522789Y8597000D01*
X7332103Y8559070D01*
X7152480Y8484668D01*
X6990824Y8376653D01*
X6853347Y8239176D01*
X6745332Y8077520D01*
X6670930Y7897897D01*
X6633000Y7707211D01*
X6633000Y7512789D01*
X6657974Y7387238D01*
X5700000Y6429263D01*
X5700000Y7406250D01*
X5745939Y7475003D01*
X5781746Y7561448D01*
X5800000Y7653217D01*
X5800000Y7746783D01*
X5781746Y7838552D01*
X5745939Y7924997D01*
X5700000Y7993750D01*
X5700000Y9346963D01*
X7070107Y9346963D01*
X7161436Y9214308D01*
X7352792Y9142825D01*
X7554417Y9110047D01*
X7758562Y9117235D01*
X7957382Y9164112D01*
X8078564Y9214308D01*
X8169893Y9346963D01*
X7620000Y9896856D01*
X7070107Y9346963D01*
X5700000Y9346963D01*
X5700000Y9369671D01*
X6586673Y10256344D01*
X6580047Y10215583D01*
X6587235Y10011438D01*
X6634112Y9812618D01*
X6684308Y9691436D01*
X6816963Y9600107D01*
X7366856Y10150000D01*
X7873144Y10150000D01*
X8423037Y9600107D01*
X8555692Y9691436D01*
X8627175Y9882792D01*
X8659953Y10084417D01*
X8652765Y10288562D01*
X8605888Y10487382D01*
X8555692Y10608564D01*
X8423037Y10699893D01*
X7873144Y10150000D01*
X7366856Y10150000D01*
X6871438Y10645418D01*
X6875000Y10681581D01*
X6875000Y10681584D01*
X6876814Y10700000D01*
X6875000Y10718416D01*
X6875000Y10953037D01*
X7070107Y10953037D01*
X7620000Y10403144D01*
X8169893Y10953037D01*
X8078564Y11085692D01*
X7887208Y11157175D01*
X7685583Y11189953D01*
X7481438Y11182765D01*
X7282618Y11135888D01*
X7161436Y11085692D01*
X7070107Y10953037D01*
X6875000Y10953037D01*
X6875000Y12039171D01*
X6990824Y11923347D01*
X7152480Y11815332D01*
X7332103Y11740930D01*
X7522789Y11703000D01*
X7717211Y11703000D01*
X7907897Y11740930D01*
X8087520Y11815332D01*
X8249176Y11923347D01*
X8386653Y12060824D01*
X8494668Y12222480D01*
X8569070Y12402103D01*
X8607000Y12592789D01*
X8607000Y12787211D01*
X8569070Y12977897D01*
X8494668Y13157520D01*
X8386653Y13319176D01*
X8249176Y13456653D01*
X8087520Y13564668D01*
X7907897Y13639070D01*
X7717211Y13677000D01*
X7522789Y13677000D01*
X7332103Y13639070D01*
X7152480Y13564668D01*
X6990824Y13456653D01*
X6875000Y13340829D01*
X6875000Y13954671D01*
X7239583Y14319253D01*
X7332103Y14280930D01*
X7522789Y14243000D01*
X7717211Y14243000D01*
X7907897Y14280930D01*
X8087520Y14355332D01*
X8249176Y14463347D01*
X8386653Y14600824D01*
X8494668Y14762480D01*
X8569070Y14942103D01*
X8607000Y15132789D01*
X8607000Y15327211D01*
X8569070Y15517897D01*
X8494668Y15697520D01*
X8386653Y15859176D01*
X8249176Y15996653D01*
X8087520Y16104668D01*
X7907897Y16179070D01*
X7717211Y16217000D01*
X7522789Y16217000D01*
X7332103Y16179070D01*
X7152480Y16104668D01*
X6990824Y15996653D01*
X6853347Y15859176D01*
X6745332Y15697520D01*
X6670930Y15517897D01*
X6633000Y15327211D01*
X6633000Y15132789D01*
X6670930Y14942103D01*
X6709253Y14849583D01*
X6247862Y14388191D01*
X6233553Y14376448D01*
X6221811Y14362140D01*
X6186691Y14319346D01*
X6151870Y14254200D01*
X6148473Y14243000D01*
X6130427Y14183512D01*
X6123186Y14110000D01*
X6125001Y14091574D01*
X6125000Y12693419D01*
X6123186Y12675000D01*
X6125000Y12656584D01*
X6125000Y12656582D01*
X6125001Y12656572D01*
X6125001Y12346575D01*
X6090731Y12388332D01*
X5980336Y12478931D01*
X5875600Y12534914D01*
X5875600Y14111485D01*
X5980337Y14167469D01*
X6090732Y14258068D01*
X6181331Y14368463D01*
X6248653Y14494412D01*
X6290109Y14631075D01*
X6300600Y14737593D01*
X6300600Y16008807D01*
X6290109Y16115325D01*
X6248653Y16251988D01*
X6181331Y16377937D01*
X6163224Y16400000D01*
X7607771Y16400000D01*
X7843137Y16376922D01*
G37*
%TD.AperFunction*%
D18*
X-1843956Y-9002795D02*
X-1777795Y-9068956D01*
X-1775000Y-9070824D01*
X-1774999Y-10550735D01*
X-1974263Y-10750000D01*
X-2812472Y-10750000D01*
X-2779061Y-10699997D01*
X-2743254Y-10613552D01*
X-2725000Y-10521783D01*
X-2725000Y-10428217D01*
X-2743254Y-10336448D01*
X-2779061Y-10250003D01*
X-2831044Y-10172205D01*
X-2877161Y-10126088D01*
X-2670000Y-10126088D01*
X-2625892Y-10121744D01*
X-2583480Y-10108878D01*
X-2544392Y-10087985D01*
X-2510132Y-10059868D01*
X-2482015Y-10025608D01*
X-2461122Y-9986520D01*
X-2448256Y-9944108D01*
X-2443912Y-9900000D01*
X-2443912Y-9248175D01*
X-2310080Y-9114344D01*
X-2306783Y-9115000D01*
X-2213217Y-9115000D01*
X-2121448Y-9096746D01*
X-2035003Y-9060939D01*
X-1957205Y-9008956D01*
X-1891044Y-8942795D01*
X-1887545Y-8937559D01*
X-1843956Y-9002795D01*
%TA.AperFunction,Conductor*%
D22*
G36*
X-1843956Y-9002795D02*
G01*
X-1777795Y-9068956D01*
X-1775000Y-9070824D01*
X-1774999Y-10550735D01*
X-1974263Y-10750000D01*
X-2812472Y-10750000D01*
X-2779061Y-10699997D01*
X-2743254Y-10613552D01*
X-2725000Y-10521783D01*
X-2725000Y-10428217D01*
X-2743254Y-10336448D01*
X-2779061Y-10250003D01*
X-2831044Y-10172205D01*
X-2877161Y-10126088D01*
X-2670000Y-10126088D01*
X-2625892Y-10121744D01*
X-2583480Y-10108878D01*
X-2544392Y-10087985D01*
X-2510132Y-10059868D01*
X-2482015Y-10025608D01*
X-2461122Y-9986520D01*
X-2448256Y-9944108D01*
X-2443912Y-9900000D01*
X-2443912Y-9248175D01*
X-2310080Y-9114344D01*
X-2306783Y-9115000D01*
X-2213217Y-9115000D01*
X-2121448Y-9096746D01*
X-2035003Y-9060939D01*
X-1957205Y-9008956D01*
X-1891044Y-8942795D01*
X-1887545Y-8937559D01*
X-1843956Y-9002795D01*
G37*
%TD.AperFunction*%
D18*
X-2347549Y-5801715D02*
X-2338158Y-5813158D01*
X-2326715Y-5822549D01*
X-2292478Y-5850647D01*
X-2281241Y-5856653D01*
X-2240360Y-5878504D01*
X-2183810Y-5895659D01*
X-2139733Y-5900000D01*
X-2139723Y-5900000D01*
X-2125000Y-5901450D01*
X-2110277Y-5900000D01*
X2010277Y-5900000D01*
X2025000Y-5901450D01*
X2039723Y-5900000D01*
X2039733Y-5900000D01*
X2083810Y-5895659D01*
X2140360Y-5878504D01*
X2192477Y-5850647D01*
X2238158Y-5813158D01*
X2247552Y-5801711D01*
X2275001Y-5774262D01*
X2275001Y-6125735D01*
X2023290Y-6377447D01*
X2011842Y-6386842D01*
X1998131Y-6403550D01*
X1974353Y-6432523D01*
X1965648Y-6448810D01*
X1946496Y-6484641D01*
X1929341Y-6541191D01*
X1928473Y-6550000D01*
X-2460278Y-6550000D01*
X-2475001Y-6548550D01*
X-2489724Y-6550000D01*
X-2489733Y-6550000D01*
X-2533810Y-6554341D01*
X-2590360Y-6571496D01*
X-2605037Y-6579341D01*
X-2642478Y-6599353D01*
X-2672940Y-6624353D01*
X-2688158Y-6636842D01*
X-2697549Y-6648285D01*
X-3480690Y-7431426D01*
X-3504061Y-7375003D01*
X-3556044Y-7297205D01*
X-3622205Y-7231044D01*
X-3700003Y-7179061D01*
X-3734778Y-7164657D01*
X-3703254Y-7088552D01*
X-3685000Y-6996783D01*
X-3685000Y-6903217D01*
X-3694528Y-6855315D01*
X-3651448Y-6846746D01*
X-3565003Y-6810939D01*
X-3487205Y-6758956D01*
X-3421044Y-6692795D01*
X-3369061Y-6614997D01*
X-3333254Y-6528552D01*
X-3315000Y-6436783D01*
X-3315000Y-6343217D01*
X-3333254Y-6251448D01*
X-3369061Y-6165003D01*
X-3421044Y-6087205D01*
X-3487205Y-6021044D01*
X-3565003Y-5969061D01*
X-3651448Y-5933254D01*
X-3743217Y-5915000D01*
X-3835000Y-5915000D01*
X-3835000Y-5885000D01*
X-3753217Y-5885000D01*
X-3661448Y-5866746D01*
X-3575003Y-5830939D01*
X-3497205Y-5778956D01*
X-3431044Y-5712795D01*
X-3379061Y-5634997D01*
X-3343254Y-5548552D01*
X-3325000Y-5456783D01*
X-3325000Y-5363217D01*
X-3343254Y-5271448D01*
X-3379061Y-5185003D01*
X-3431044Y-5107205D01*
X-3497205Y-5041044D01*
X-3575003Y-4989061D01*
X-3661448Y-4953254D01*
X-3753217Y-4935000D01*
X-3846783Y-4935000D01*
X-3938552Y-4953254D01*
X-4022889Y-4988188D01*
X-4049061Y-4925003D01*
X-4101044Y-4847205D01*
X-4148249Y-4800000D01*
X-3349263Y-4800000D01*
X-2347549Y-5801715D01*
%TA.AperFunction,Conductor*%
D22*
G36*
X-2347549Y-5801715D02*
G01*
X-2338158Y-5813158D01*
X-2326715Y-5822549D01*
X-2292478Y-5850647D01*
X-2281241Y-5856653D01*
X-2240360Y-5878504D01*
X-2183810Y-5895659D01*
X-2139733Y-5900000D01*
X-2139723Y-5900000D01*
X-2125000Y-5901450D01*
X-2110277Y-5900000D01*
X2010277Y-5900000D01*
X2025000Y-5901450D01*
X2039723Y-5900000D01*
X2039733Y-5900000D01*
X2083810Y-5895659D01*
X2140360Y-5878504D01*
X2192477Y-5850647D01*
X2238158Y-5813158D01*
X2247552Y-5801711D01*
X2275001Y-5774262D01*
X2275001Y-6125735D01*
X2023290Y-6377447D01*
X2011842Y-6386842D01*
X1998131Y-6403550D01*
X1974353Y-6432523D01*
X1965648Y-6448810D01*
X1946496Y-6484641D01*
X1929341Y-6541191D01*
X1928473Y-6550000D01*
X-2460278Y-6550000D01*
X-2475001Y-6548550D01*
X-2489724Y-6550000D01*
X-2489733Y-6550000D01*
X-2533810Y-6554341D01*
X-2590360Y-6571496D01*
X-2605037Y-6579341D01*
X-2642478Y-6599353D01*
X-2672940Y-6624353D01*
X-2688158Y-6636842D01*
X-2697549Y-6648285D01*
X-3480690Y-7431426D01*
X-3504061Y-7375003D01*
X-3556044Y-7297205D01*
X-3622205Y-7231044D01*
X-3700003Y-7179061D01*
X-3734778Y-7164657D01*
X-3703254Y-7088552D01*
X-3685000Y-6996783D01*
X-3685000Y-6903217D01*
X-3694528Y-6855315D01*
X-3651448Y-6846746D01*
X-3565003Y-6810939D01*
X-3487205Y-6758956D01*
X-3421044Y-6692795D01*
X-3369061Y-6614997D01*
X-3333254Y-6528552D01*
X-3315000Y-6436783D01*
X-3315000Y-6343217D01*
X-3333254Y-6251448D01*
X-3369061Y-6165003D01*
X-3421044Y-6087205D01*
X-3487205Y-6021044D01*
X-3565003Y-5969061D01*
X-3651448Y-5933254D01*
X-3743217Y-5915000D01*
X-3835000Y-5915000D01*
X-3835000Y-5885000D01*
X-3753217Y-5885000D01*
X-3661448Y-5866746D01*
X-3575003Y-5830939D01*
X-3497205Y-5778956D01*
X-3431044Y-5712795D01*
X-3379061Y-5634997D01*
X-3343254Y-5548552D01*
X-3325000Y-5456783D01*
X-3325000Y-5363217D01*
X-3343254Y-5271448D01*
X-3379061Y-5185003D01*
X-3431044Y-5107205D01*
X-3497205Y-5041044D01*
X-3575003Y-4989061D01*
X-3661448Y-4953254D01*
X-3753217Y-4935000D01*
X-3846783Y-4935000D01*
X-3938552Y-4953254D01*
X-4022889Y-4988188D01*
X-4049061Y-4925003D01*
X-4101044Y-4847205D01*
X-4148249Y-4800000D01*
X-3349263Y-4800000D01*
X-2347549Y-5801715D01*
G37*
%TD.AperFunction*%
D18*
X3975000Y-1059808D02*
X3970939Y-1050003D01*
X3918956Y-972205D01*
X3852795Y-906044D01*
X3774997Y-854061D01*
X3688552Y-818254D01*
X3596783Y-800000D01*
X3503217Y-800000D01*
X3411448Y-818254D01*
X3325003Y-854061D01*
X3247205Y-906044D01*
X3181044Y-972205D01*
X3129061Y-1050003D01*
X3093254Y-1136448D01*
X3075000Y-1228217D01*
X3075000Y-1321783D01*
X3093254Y-1413552D01*
X3129061Y-1499997D01*
X3181044Y-1577795D01*
X3247205Y-1643956D01*
X3325003Y-1695939D01*
X3411448Y-1731746D01*
X3503217Y-1750000D01*
X3596783Y-1750000D01*
X3688552Y-1731746D01*
X3774997Y-1695939D01*
X3852795Y-1643956D01*
X3918956Y-1577795D01*
X3970939Y-1499997D01*
X3975000Y-1490193D01*
X3975000Y-2050736D01*
X3732997Y-2292739D01*
X3731746Y-2286448D01*
X3695939Y-2200003D01*
X3643956Y-2122205D01*
X3577795Y-2056044D01*
X3499997Y-2004061D01*
X3413552Y-1968254D01*
X3321783Y-1950000D01*
X3228217Y-1950000D01*
X3136448Y-1968254D01*
X3050003Y-2004061D01*
X2972205Y-2056044D01*
X2906044Y-2122205D01*
X2854061Y-2200003D01*
X2818254Y-2286448D01*
X2800000Y-2378217D01*
X2800000Y-2471783D01*
X2800656Y-2475080D01*
X2740168Y-2535568D01*
X2710939Y-2465003D01*
X2658956Y-2387205D01*
X2592795Y-2321044D01*
X2514997Y-2269061D01*
X2428552Y-2233254D01*
X2336783Y-2215000D01*
X2243217Y-2215000D01*
X2151448Y-2233254D01*
X2065003Y-2269061D01*
X1987205Y-2321044D01*
X1921044Y-2387205D01*
X1869061Y-2465003D01*
X1833254Y-2551448D01*
X1815000Y-2643217D01*
X1815000Y-2736783D01*
X1833254Y-2828552D01*
X1869061Y-2914997D01*
X1921044Y-2992795D01*
X1987205Y-3058956D01*
X2000001Y-3067506D01*
X2000000Y-5200736D01*
X1900736Y-5300000D01*
X-2000736Y-5300000D01*
X-3002447Y-4298290D01*
X-3011842Y-4286842D01*
X-3057523Y-4249353D01*
X-3109640Y-4221496D01*
X-3166190Y-4204341D01*
X-3210267Y-4200000D01*
X-3210277Y-4200000D01*
X-3225000Y-4198550D01*
X-3239723Y-4200000D01*
X-4045767Y-4200000D01*
X-4029061Y-4174997D01*
X-3993254Y-4088552D01*
X-3975000Y-3996783D01*
X-3975000Y-3903217D01*
X-3993254Y-3811448D01*
X-3997996Y-3800000D01*
X-2989723Y-3800000D01*
X-2975000Y-3801450D01*
X-2960277Y-3800000D01*
X-2960267Y-3800000D01*
X-2916190Y-3795659D01*
X-2859640Y-3778504D01*
X-2843722Y-3769995D01*
X-2820939Y-3824997D01*
X-2768956Y-3902795D01*
X-2702795Y-3968956D01*
X-2624997Y-4020939D01*
X-2538552Y-4056746D01*
X-2446783Y-4075000D01*
X-2353217Y-4075000D01*
X-2261448Y-4056746D01*
X-2175003Y-4020939D01*
X-2097205Y-3968956D01*
X-2031044Y-3902795D01*
X-2029176Y-3900000D01*
X-1864723Y-3900000D01*
X-1850000Y-3901450D01*
X-1835277Y-3900000D01*
X-1835267Y-3900000D01*
X-1791190Y-3895659D01*
X-1734640Y-3878504D01*
X-1682523Y-3850647D01*
X-1636842Y-3813158D01*
X-1627447Y-3801710D01*
X-1275736Y-3450000D01*
X-414723Y-3450000D01*
X-400000Y-3451450D01*
X-385277Y-3450000D01*
X-385267Y-3450000D01*
X-341190Y-3445659D01*
X-284640Y-3428504D01*
X-232523Y-3400647D01*
X-186842Y-3363158D01*
X-177447Y-3351710D01*
X3975001Y800737D01*
X3975000Y-1059808D01*
%TA.AperFunction,Conductor*%
D22*
G36*
X3975000Y-1059808D02*
G01*
X3970939Y-1050003D01*
X3918956Y-972205D01*
X3852795Y-906044D01*
X3774997Y-854061D01*
X3688552Y-818254D01*
X3596783Y-800000D01*
X3503217Y-800000D01*
X3411448Y-818254D01*
X3325003Y-854061D01*
X3247205Y-906044D01*
X3181044Y-972205D01*
X3129061Y-1050003D01*
X3093254Y-1136448D01*
X3075000Y-1228217D01*
X3075000Y-1321783D01*
X3093254Y-1413552D01*
X3129061Y-1499997D01*
X3181044Y-1577795D01*
X3247205Y-1643956D01*
X3325003Y-1695939D01*
X3411448Y-1731746D01*
X3503217Y-1750000D01*
X3596783Y-1750000D01*
X3688552Y-1731746D01*
X3774997Y-1695939D01*
X3852795Y-1643956D01*
X3918956Y-1577795D01*
X3970939Y-1499997D01*
X3975000Y-1490193D01*
X3975000Y-2050736D01*
X3732997Y-2292739D01*
X3731746Y-2286448D01*
X3695939Y-2200003D01*
X3643956Y-2122205D01*
X3577795Y-2056044D01*
X3499997Y-2004061D01*
X3413552Y-1968254D01*
X3321783Y-1950000D01*
X3228217Y-1950000D01*
X3136448Y-1968254D01*
X3050003Y-2004061D01*
X2972205Y-2056044D01*
X2906044Y-2122205D01*
X2854061Y-2200003D01*
X2818254Y-2286448D01*
X2800000Y-2378217D01*
X2800000Y-2471783D01*
X2800656Y-2475080D01*
X2740168Y-2535568D01*
X2710939Y-2465003D01*
X2658956Y-2387205D01*
X2592795Y-2321044D01*
X2514997Y-2269061D01*
X2428552Y-2233254D01*
X2336783Y-2215000D01*
X2243217Y-2215000D01*
X2151448Y-2233254D01*
X2065003Y-2269061D01*
X1987205Y-2321044D01*
X1921044Y-2387205D01*
X1869061Y-2465003D01*
X1833254Y-2551448D01*
X1815000Y-2643217D01*
X1815000Y-2736783D01*
X1833254Y-2828552D01*
X1869061Y-2914997D01*
X1921044Y-2992795D01*
X1987205Y-3058956D01*
X2000001Y-3067506D01*
X2000000Y-5200736D01*
X1900736Y-5300000D01*
X-2000736Y-5300000D01*
X-3002447Y-4298290D01*
X-3011842Y-4286842D01*
X-3057523Y-4249353D01*
X-3109640Y-4221496D01*
X-3166190Y-4204341D01*
X-3210267Y-4200000D01*
X-3210277Y-4200000D01*
X-3225000Y-4198550D01*
X-3239723Y-4200000D01*
X-4045767Y-4200000D01*
X-4029061Y-4174997D01*
X-3993254Y-4088552D01*
X-3975000Y-3996783D01*
X-3975000Y-3903217D01*
X-3993254Y-3811448D01*
X-3997996Y-3800000D01*
X-2989723Y-3800000D01*
X-2975000Y-3801450D01*
X-2960277Y-3800000D01*
X-2960267Y-3800000D01*
X-2916190Y-3795659D01*
X-2859640Y-3778504D01*
X-2843722Y-3769995D01*
X-2820939Y-3824997D01*
X-2768956Y-3902795D01*
X-2702795Y-3968956D01*
X-2624997Y-4020939D01*
X-2538552Y-4056746D01*
X-2446783Y-4075000D01*
X-2353217Y-4075000D01*
X-2261448Y-4056746D01*
X-2175003Y-4020939D01*
X-2097205Y-3968956D01*
X-2031044Y-3902795D01*
X-2029176Y-3900000D01*
X-1864723Y-3900000D01*
X-1850000Y-3901450D01*
X-1835277Y-3900000D01*
X-1835267Y-3900000D01*
X-1791190Y-3895659D01*
X-1734640Y-3878504D01*
X-1682523Y-3850647D01*
X-1636842Y-3813158D01*
X-1627447Y-3801710D01*
X-1275736Y-3450000D01*
X-414723Y-3450000D01*
X-400000Y-3451450D01*
X-385277Y-3450000D01*
X-385267Y-3450000D01*
X-341190Y-3445659D01*
X-284640Y-3428504D01*
X-232523Y-3400647D01*
X-186842Y-3363158D01*
X-177447Y-3351710D01*
X3975001Y800737D01*
X3975000Y-1059808D01*
G37*
%TD.AperFunction*%
D18*
X1947205Y7343956D02*
X1881044Y7277795D01*
X1829061Y7199997D01*
X1793254Y7113552D01*
X1775000Y7021783D01*
X1775000Y6928217D01*
X1793254Y6836448D01*
X1829061Y6750003D01*
X1881044Y6672205D01*
X1947205Y6606044D01*
X1950000Y6604176D01*
X1950001Y4464733D01*
X1948550Y4450000D01*
X1954342Y4391190D01*
X1971497Y4334640D01*
X1999353Y4282523D01*
X2019025Y4258553D01*
X2036843Y4236842D01*
X2048285Y4227452D01*
X3175000Y3100736D01*
X3175001Y2170824D01*
X3172205Y2168956D01*
X3106044Y2102795D01*
X3054061Y2024997D01*
X3018254Y1938552D01*
X3000000Y1846783D01*
X3000000Y1753217D01*
X3018254Y1661448D01*
X3054061Y1575003D01*
X3106044Y1497205D01*
X3172205Y1431044D01*
X3250003Y1379061D01*
X3336448Y1343254D01*
X3428217Y1325000D01*
X3521783Y1325000D01*
X3613552Y1343254D01*
X3625000Y1347996D01*
X3625000Y1299264D01*
X-524263Y-2850000D01*
X-970767Y-2850000D01*
X-954061Y-2824997D01*
X-918254Y-2738552D01*
X-900000Y-2646783D01*
X-900000Y-2553217D01*
X-918254Y-2461448D01*
X-954061Y-2375003D01*
X-1006044Y-2297205D01*
X-1072205Y-2231044D01*
X-1150003Y-2179061D01*
X-1236448Y-2143254D01*
X-1328217Y-2125000D01*
X-1350737Y-2125000D01*
X-600736Y-1375000D01*
X-395824Y-1375000D01*
X-393956Y-1377795D01*
X-327795Y-1443956D01*
X-249997Y-1495939D01*
X-163552Y-1531746D01*
X-71783Y-1550000D01*
X21783Y-1550000D01*
X113552Y-1531746D01*
X199997Y-1495939D01*
X277795Y-1443956D01*
X343956Y-1377795D01*
X395939Y-1299997D01*
X431746Y-1213552D01*
X441843Y-1162792D01*
X503217Y-1175000D01*
X596783Y-1175000D01*
X688552Y-1156746D01*
X774997Y-1120939D01*
X852795Y-1068956D01*
X918956Y-1002795D01*
X970939Y-924997D01*
X1006746Y-838552D01*
X1025000Y-746783D01*
X1025000Y-653217D01*
X1006746Y-561448D01*
X970939Y-475003D01*
X918956Y-397205D01*
X852795Y-331044D01*
X850000Y-329176D01*
X850000Y735278D01*
X851450Y750001D01*
X850000Y764724D01*
X850000Y764733D01*
X845659Y808810D01*
X828504Y865360D01*
X811862Y896496D01*
X800647Y917478D01*
X772549Y951715D01*
X763158Y963158D01*
X751715Y972549D01*
X-1050737Y2775000D01*
X1272996Y2775000D01*
X1304061Y2700003D01*
X1356044Y2622205D01*
X1422205Y2556044D01*
X1500003Y2504061D01*
X1586448Y2468254D01*
X1678217Y2450000D01*
X1771783Y2450000D01*
X1863552Y2468254D01*
X1949997Y2504061D01*
X2027795Y2556044D01*
X2093956Y2622205D01*
X2145939Y2700003D01*
X2181746Y2786448D01*
X2200000Y2878217D01*
X2200000Y2971783D01*
X2181746Y3063552D01*
X2145939Y3149997D01*
X2093956Y3227795D01*
X2027795Y3293956D01*
X1949997Y3345939D01*
X1863552Y3381746D01*
X1782451Y3397878D01*
X1778195Y3402134D01*
X1766448Y3416448D01*
X1709347Y3463309D01*
X1644200Y3498131D01*
X1573513Y3519574D01*
X1518419Y3525000D01*
X1518416Y3525000D01*
X1500000Y3526814D01*
X1481584Y3525000D01*
X-1281250Y3525000D01*
X-1294438Y3533811D01*
X-1231044Y3597205D01*
X-1179061Y3675003D01*
X-1143254Y3761448D01*
X-1127122Y3842548D01*
X-905375Y4064295D01*
X-893956Y4047205D01*
X-827795Y3981044D01*
X-749997Y3929061D01*
X-663552Y3893254D01*
X-571783Y3875000D01*
X-478217Y3875000D01*
X-386448Y3893254D01*
X-300003Y3929061D01*
X-231250Y3975000D01*
X-218416Y3975000D01*
X-200000Y3973186D01*
X-181584Y3975000D01*
X-181581Y3975000D01*
X-126487Y3980426D01*
X-55800Y4001869D01*
X9347Y4036691D01*
X66448Y4083552D01*
X78195Y4097866D01*
X325000Y4344671D01*
X325000Y4303217D01*
X343254Y4211448D01*
X379061Y4125003D01*
X431044Y4047205D01*
X497205Y3981044D01*
X575003Y3929061D01*
X661448Y3893254D01*
X753217Y3875000D01*
X846783Y3875000D01*
X938552Y3893254D01*
X1024997Y3929061D01*
X1102795Y3981044D01*
X1168956Y4047205D01*
X1220939Y4125003D01*
X1256746Y4211448D01*
X1275000Y4303217D01*
X1275000Y4396783D01*
X1256746Y4488552D01*
X1220939Y4574997D01*
X1168956Y4652795D01*
X1102795Y4718956D01*
X1024997Y4770939D01*
X938552Y4806746D01*
X846783Y4825000D01*
X805330Y4825000D01*
X1007142Y5026812D01*
X1021448Y5038552D01*
X1068309Y5095653D01*
X1083414Y5123912D01*
X1255000Y5123912D01*
X1299108Y5128256D01*
X1341520Y5141122D01*
X1380608Y5162015D01*
X1414868Y5190132D01*
X1442985Y5224392D01*
X1463878Y5263480D01*
X1476744Y5305892D01*
X1481088Y5350000D01*
X1481088Y6350000D01*
X1476744Y6394108D01*
X1463878Y6436520D01*
X1442985Y6475608D01*
X1414868Y6509868D01*
X1380608Y6537985D01*
X1341520Y6558878D01*
X1299108Y6571744D01*
X1255000Y6576088D01*
X255000Y6576088D01*
X210892Y6571744D01*
X168480Y6558878D01*
X129392Y6537985D01*
X95132Y6509868D01*
X67015Y6475608D01*
X46122Y6436520D01*
X33256Y6394108D01*
X28912Y6350000D01*
X28912Y5350000D01*
X33256Y5305892D01*
X46122Y5263480D01*
X67015Y5224392D01*
X95132Y5190132D01*
X103190Y5183519D01*
X-306641Y4773688D01*
X-386448Y4806746D01*
X-478217Y4825000D01*
X-571783Y4825000D01*
X-663552Y4806746D01*
X-749997Y4770939D01*
X-775000Y4754233D01*
X-775000Y5123912D01*
X-255000Y5123912D01*
X-210892Y5128256D01*
X-168480Y5141122D01*
X-129392Y5162015D01*
X-95132Y5190132D01*
X-67015Y5224392D01*
X-46122Y5263480D01*
X-33256Y5305892D01*
X-28912Y5350000D01*
X-28912Y6350000D01*
X-33256Y6394108D01*
X-46122Y6436520D01*
X-67015Y6475608D01*
X-95132Y6509868D01*
X-129392Y6537985D01*
X-168480Y6558878D01*
X-210892Y6571744D01*
X-255000Y6576088D01*
X-1255000Y6576088D01*
X-1299108Y6571744D01*
X-1341520Y6558878D01*
X-1380608Y6537985D01*
X-1414868Y6509868D01*
X-1442985Y6475608D01*
X-1463878Y6436520D01*
X-1476744Y6394108D01*
X-1481088Y6350000D01*
X-1481088Y5631084D01*
X-1498131Y5599199D01*
X-1519574Y5528512D01*
X-1524916Y5474273D01*
X-1526814Y5455000D01*
X-1525000Y5436584D01*
X-1524999Y4505331D01*
X-1657452Y4372878D01*
X-1738552Y4356746D01*
X-1824997Y4320939D01*
X-1902795Y4268956D01*
X-1968956Y4202795D01*
X-2020939Y4124997D01*
X-2056746Y4038552D01*
X-2075000Y3946783D01*
X-2075000Y3853217D01*
X-2056746Y3761448D01*
X-2020939Y3675003D01*
X-1968956Y3597205D01*
X-1902795Y3531044D01*
X-1880562Y3516189D01*
X-1943956Y3452795D01*
X-1995939Y3374997D01*
X-2031746Y3288552D01*
X-2050000Y3196783D01*
X-2050000Y3103217D01*
X-2031746Y3011448D01*
X-1995939Y2925003D01*
X-1979233Y2900000D01*
X-2425000Y2900000D01*
X-2425000Y6047996D01*
X-2350003Y6079061D01*
X-2272205Y6131044D01*
X-2206044Y6197205D01*
X-2154061Y6275003D01*
X-2118254Y6361448D01*
X-2100000Y6453217D01*
X-2100000Y6546783D01*
X-2118254Y6638552D01*
X-2136451Y6682483D01*
X-1768934Y7050000D01*
X154063Y7050000D01*
X206044Y6972205D01*
X272205Y6906044D01*
X350003Y6854061D01*
X436448Y6818254D01*
X528217Y6800000D01*
X621783Y6800000D01*
X713552Y6818254D01*
X799997Y6854061D01*
X877795Y6906044D01*
X943956Y6972205D01*
X995937Y7050000D01*
X1200000Y7050000D01*
X1214632Y7051441D01*
X1228701Y7055709D01*
X1241668Y7062640D01*
X1253033Y7071967D01*
X1262360Y7083332D01*
X1269291Y7096299D01*
X1273559Y7110368D01*
X1275000Y7125000D01*
X1275000Y7325000D01*
X1406584Y7325000D01*
X1425000Y7323186D01*
X1443416Y7325000D01*
X1443419Y7325000D01*
X1498513Y7330426D01*
X1569200Y7351869D01*
X1575058Y7355000D01*
X1963734Y7355000D01*
X1947205Y7343956D01*
%TA.AperFunction,Conductor*%
D22*
G36*
X1947205Y7343956D02*
G01*
X1881044Y7277795D01*
X1829061Y7199997D01*
X1793254Y7113552D01*
X1775000Y7021783D01*
X1775000Y6928217D01*
X1793254Y6836448D01*
X1829061Y6750003D01*
X1881044Y6672205D01*
X1947205Y6606044D01*
X1950000Y6604176D01*
X1950001Y4464733D01*
X1948550Y4450000D01*
X1954342Y4391190D01*
X1971497Y4334640D01*
X1999353Y4282523D01*
X2019025Y4258553D01*
X2036843Y4236842D01*
X2048285Y4227452D01*
X3175000Y3100736D01*
X3175001Y2170824D01*
X3172205Y2168956D01*
X3106044Y2102795D01*
X3054061Y2024997D01*
X3018254Y1938552D01*
X3000000Y1846783D01*
X3000000Y1753217D01*
X3018254Y1661448D01*
X3054061Y1575003D01*
X3106044Y1497205D01*
X3172205Y1431044D01*
X3250003Y1379061D01*
X3336448Y1343254D01*
X3428217Y1325000D01*
X3521783Y1325000D01*
X3613552Y1343254D01*
X3625000Y1347996D01*
X3625000Y1299264D01*
X-524263Y-2850000D01*
X-970767Y-2850000D01*
X-954061Y-2824997D01*
X-918254Y-2738552D01*
X-900000Y-2646783D01*
X-900000Y-2553217D01*
X-918254Y-2461448D01*
X-954061Y-2375003D01*
X-1006044Y-2297205D01*
X-1072205Y-2231044D01*
X-1150003Y-2179061D01*
X-1236448Y-2143254D01*
X-1328217Y-2125000D01*
X-1350737Y-2125000D01*
X-600736Y-1375000D01*
X-395824Y-1375000D01*
X-393956Y-1377795D01*
X-327795Y-1443956D01*
X-249997Y-1495939D01*
X-163552Y-1531746D01*
X-71783Y-1550000D01*
X21783Y-1550000D01*
X113552Y-1531746D01*
X199997Y-1495939D01*
X277795Y-1443956D01*
X343956Y-1377795D01*
X395939Y-1299997D01*
X431746Y-1213552D01*
X441843Y-1162792D01*
X503217Y-1175000D01*
X596783Y-1175000D01*
X688552Y-1156746D01*
X774997Y-1120939D01*
X852795Y-1068956D01*
X918956Y-1002795D01*
X970939Y-924997D01*
X1006746Y-838552D01*
X1025000Y-746783D01*
X1025000Y-653217D01*
X1006746Y-561448D01*
X970939Y-475003D01*
X918956Y-397205D01*
X852795Y-331044D01*
X850000Y-329176D01*
X850000Y735278D01*
X851450Y750001D01*
X850000Y764724D01*
X850000Y764733D01*
X845659Y808810D01*
X828504Y865360D01*
X811862Y896496D01*
X800647Y917478D01*
X772549Y951715D01*
X763158Y963158D01*
X751715Y972549D01*
X-1050737Y2775000D01*
X1272996Y2775000D01*
X1304061Y2700003D01*
X1356044Y2622205D01*
X1422205Y2556044D01*
X1500003Y2504061D01*
X1586448Y2468254D01*
X1678217Y2450000D01*
X1771783Y2450000D01*
X1863552Y2468254D01*
X1949997Y2504061D01*
X2027795Y2556044D01*
X2093956Y2622205D01*
X2145939Y2700003D01*
X2181746Y2786448D01*
X2200000Y2878217D01*
X2200000Y2971783D01*
X2181746Y3063552D01*
X2145939Y3149997D01*
X2093956Y3227795D01*
X2027795Y3293956D01*
X1949997Y3345939D01*
X1863552Y3381746D01*
X1782451Y3397878D01*
X1778195Y3402134D01*
X1766448Y3416448D01*
X1709347Y3463309D01*
X1644200Y3498131D01*
X1573513Y3519574D01*
X1518419Y3525000D01*
X1518416Y3525000D01*
X1500000Y3526814D01*
X1481584Y3525000D01*
X-1281250Y3525000D01*
X-1294438Y3533811D01*
X-1231044Y3597205D01*
X-1179061Y3675003D01*
X-1143254Y3761448D01*
X-1127122Y3842548D01*
X-905375Y4064295D01*
X-893956Y4047205D01*
X-827795Y3981044D01*
X-749997Y3929061D01*
X-663552Y3893254D01*
X-571783Y3875000D01*
X-478217Y3875000D01*
X-386448Y3893254D01*
X-300003Y3929061D01*
X-231250Y3975000D01*
X-218416Y3975000D01*
X-200000Y3973186D01*
X-181584Y3975000D01*
X-181581Y3975000D01*
X-126487Y3980426D01*
X-55800Y4001869D01*
X9347Y4036691D01*
X66448Y4083552D01*
X78195Y4097866D01*
X325000Y4344671D01*
X325000Y4303217D01*
X343254Y4211448D01*
X379061Y4125003D01*
X431044Y4047205D01*
X497205Y3981044D01*
X575003Y3929061D01*
X661448Y3893254D01*
X753217Y3875000D01*
X846783Y3875000D01*
X938552Y3893254D01*
X1024997Y3929061D01*
X1102795Y3981044D01*
X1168956Y4047205D01*
X1220939Y4125003D01*
X1256746Y4211448D01*
X1275000Y4303217D01*
X1275000Y4396783D01*
X1256746Y4488552D01*
X1220939Y4574997D01*
X1168956Y4652795D01*
X1102795Y4718956D01*
X1024997Y4770939D01*
X938552Y4806746D01*
X846783Y4825000D01*
X805330Y4825000D01*
X1007142Y5026812D01*
X1021448Y5038552D01*
X1068309Y5095653D01*
X1083414Y5123912D01*
X1255000Y5123912D01*
X1299108Y5128256D01*
X1341520Y5141122D01*
X1380608Y5162015D01*
X1414868Y5190132D01*
X1442985Y5224392D01*
X1463878Y5263480D01*
X1476744Y5305892D01*
X1481088Y5350000D01*
X1481088Y6350000D01*
X1476744Y6394108D01*
X1463878Y6436520D01*
X1442985Y6475608D01*
X1414868Y6509868D01*
X1380608Y6537985D01*
X1341520Y6558878D01*
X1299108Y6571744D01*
X1255000Y6576088D01*
X255000Y6576088D01*
X210892Y6571744D01*
X168480Y6558878D01*
X129392Y6537985D01*
X95132Y6509868D01*
X67015Y6475608D01*
X46122Y6436520D01*
X33256Y6394108D01*
X28912Y6350000D01*
X28912Y5350000D01*
X33256Y5305892D01*
X46122Y5263480D01*
X67015Y5224392D01*
X95132Y5190132D01*
X103190Y5183519D01*
X-306641Y4773688D01*
X-386448Y4806746D01*
X-478217Y4825000D01*
X-571783Y4825000D01*
X-663552Y4806746D01*
X-749997Y4770939D01*
X-775000Y4754233D01*
X-775000Y5123912D01*
X-255000Y5123912D01*
X-210892Y5128256D01*
X-168480Y5141122D01*
X-129392Y5162015D01*
X-95132Y5190132D01*
X-67015Y5224392D01*
X-46122Y5263480D01*
X-33256Y5305892D01*
X-28912Y5350000D01*
X-28912Y6350000D01*
X-33256Y6394108D01*
X-46122Y6436520D01*
X-67015Y6475608D01*
X-95132Y6509868D01*
X-129392Y6537985D01*
X-168480Y6558878D01*
X-210892Y6571744D01*
X-255000Y6576088D01*
X-1255000Y6576088D01*
X-1299108Y6571744D01*
X-1341520Y6558878D01*
X-1380608Y6537985D01*
X-1414868Y6509868D01*
X-1442985Y6475608D01*
X-1463878Y6436520D01*
X-1476744Y6394108D01*
X-1481088Y6350000D01*
X-1481088Y5631084D01*
X-1498131Y5599199D01*
X-1519574Y5528512D01*
X-1524916Y5474273D01*
X-1526814Y5455000D01*
X-1525000Y5436584D01*
X-1524999Y4505331D01*
X-1657452Y4372878D01*
X-1738552Y4356746D01*
X-1824997Y4320939D01*
X-1902795Y4268956D01*
X-1968956Y4202795D01*
X-2020939Y4124997D01*
X-2056746Y4038552D01*
X-2075000Y3946783D01*
X-2075000Y3853217D01*
X-2056746Y3761448D01*
X-2020939Y3675003D01*
X-1968956Y3597205D01*
X-1902795Y3531044D01*
X-1880562Y3516189D01*
X-1943956Y3452795D01*
X-1995939Y3374997D01*
X-2031746Y3288552D01*
X-2050000Y3196783D01*
X-2050000Y3103217D01*
X-2031746Y3011448D01*
X-1995939Y2925003D01*
X-1979233Y2900000D01*
X-2425000Y2900000D01*
X-2425000Y6047996D01*
X-2350003Y6079061D01*
X-2272205Y6131044D01*
X-2206044Y6197205D01*
X-2154061Y6275003D01*
X-2118254Y6361448D01*
X-2100000Y6453217D01*
X-2100000Y6546783D01*
X-2118254Y6638552D01*
X-2136451Y6682483D01*
X-1768934Y7050000D01*
X154063Y7050000D01*
X206044Y6972205D01*
X272205Y6906044D01*
X350003Y6854061D01*
X436448Y6818254D01*
X528217Y6800000D01*
X621783Y6800000D01*
X713552Y6818254D01*
X799997Y6854061D01*
X877795Y6906044D01*
X943956Y6972205D01*
X995937Y7050000D01*
X1200000Y7050000D01*
X1214632Y7051441D01*
X1228701Y7055709D01*
X1241668Y7062640D01*
X1253033Y7071967D01*
X1262360Y7083332D01*
X1269291Y7096299D01*
X1273559Y7110368D01*
X1275000Y7125000D01*
X1275000Y7325000D01*
X1406584Y7325000D01*
X1425000Y7323186D01*
X1443416Y7325000D01*
X1443419Y7325000D01*
X1498513Y7330426D01*
X1569200Y7351869D01*
X1575058Y7355000D01*
X1963734Y7355000D01*
X1947205Y7343956D01*
G37*
%TD.AperFunction*%
D18*
X250001Y625735D02*
X250000Y-329176D01*
X247205Y-331044D01*
X181044Y-397205D01*
X129061Y-475003D01*
X93254Y-561448D01*
X83157Y-612208D01*
X21783Y-600000D01*
X-71783Y-600000D01*
X-163552Y-618254D01*
X-249997Y-654061D01*
X-327795Y-706044D01*
X-393956Y-772205D01*
X-395824Y-775000D01*
X-710270Y-775000D01*
X-725000Y-773549D01*
X-739730Y-775000D01*
X-739733Y-775000D01*
X-783810Y-779341D01*
X-840360Y-796496D01*
X-892478Y-824353D01*
X-923732Y-850003D01*
X-938158Y-861842D01*
X-947549Y-873285D01*
X-1847100Y-1772837D01*
X-1843254Y-1763552D01*
X-1825000Y-1671783D01*
X-1825000Y-1578217D01*
X-1843254Y-1486448D01*
X-1879061Y-1400003D01*
X-1931044Y-1322205D01*
X-1997205Y-1256044D01*
X-2075003Y-1204061D01*
X-2161448Y-1168254D01*
X-2183532Y-1163861D01*
X-769670Y250000D01*
X-668750Y250000D01*
X-599997Y204061D01*
X-513552Y168254D01*
X-421783Y150000D01*
X-328217Y150000D01*
X-236448Y168254D01*
X-150003Y204061D01*
X-72205Y256044D01*
X-6044Y322205D01*
X45939Y400003D01*
X81746Y486448D01*
X100000Y578217D01*
X100000Y671783D01*
X81746Y763552D01*
X60223Y815513D01*
X250001Y625735D01*
%TA.AperFunction,Conductor*%
D22*
G36*
X250001Y625735D02*
G01*
X250000Y-329176D01*
X247205Y-331044D01*
X181044Y-397205D01*
X129061Y-475003D01*
X93254Y-561448D01*
X83157Y-612208D01*
X21783Y-600000D01*
X-71783Y-600000D01*
X-163552Y-618254D01*
X-249997Y-654061D01*
X-327795Y-706044D01*
X-393956Y-772205D01*
X-395824Y-775000D01*
X-710270Y-775000D01*
X-725000Y-773549D01*
X-739730Y-775000D01*
X-739733Y-775000D01*
X-783810Y-779341D01*
X-840360Y-796496D01*
X-892478Y-824353D01*
X-923732Y-850003D01*
X-938158Y-861842D01*
X-947549Y-873285D01*
X-1847100Y-1772837D01*
X-1843254Y-1763552D01*
X-1825000Y-1671783D01*
X-1825000Y-1578217D01*
X-1843254Y-1486448D01*
X-1879061Y-1400003D01*
X-1931044Y-1322205D01*
X-1997205Y-1256044D01*
X-2075003Y-1204061D01*
X-2161448Y-1168254D01*
X-2183532Y-1163861D01*
X-769670Y250000D01*
X-668750Y250000D01*
X-599997Y204061D01*
X-513552Y168254D01*
X-421783Y150000D01*
X-328217Y150000D01*
X-236448Y168254D01*
X-150003Y204061D01*
X-72205Y256044D01*
X-6044Y322205D01*
X45939Y400003D01*
X81746Y486448D01*
X100000Y578217D01*
X100000Y671783D01*
X81746Y763552D01*
X60223Y815513D01*
X250001Y625735D01*
G37*
%TD.AperFunction*%
D18*
X-184486Y1060223D02*
X-236448Y1081746D01*
X-328217Y1100000D01*
X-421783Y1100000D01*
X-513552Y1081746D01*
X-599997Y1045939D01*
X-668750Y1000000D01*
X-906585Y1000000D01*
X-925001Y1001814D01*
X-943417Y1000000D01*
X-943419Y1000000D01*
X-998513Y994574D01*
X-1069200Y973131D01*
X-1069202Y973130D01*
X-1134348Y938309D01*
X-1156669Y919990D01*
X-1191448Y891448D01*
X-1203191Y877139D01*
X-1438918Y641412D01*
X-1455754Y726052D01*
X-1491561Y812497D01*
X-1543544Y890295D01*
X-1609705Y956456D01*
X-1687503Y1008439D01*
X-1773948Y1044246D01*
X-1865717Y1062500D01*
X-1959283Y1062500D01*
X-2051052Y1044246D01*
X-2137497Y1008439D01*
X-2215295Y956456D01*
X-2281456Y890295D01*
X-2333439Y812497D01*
X-2369246Y726052D01*
X-2387500Y634283D01*
X-2387500Y540717D01*
X-2369246Y448948D01*
X-2333439Y362503D01*
X-2281456Y284705D01*
X-2215295Y218544D01*
X-2137497Y166561D01*
X-2051052Y130754D01*
X-1966412Y113918D01*
X-2425000Y-344671D01*
X-2425000Y2300000D01*
X-1424263Y2300000D01*
X-184486Y1060223D01*
%TA.AperFunction,Conductor*%
D22*
G36*
X-184486Y1060223D02*
G01*
X-236448Y1081746D01*
X-328217Y1100000D01*
X-421783Y1100000D01*
X-513552Y1081746D01*
X-599997Y1045939D01*
X-668750Y1000000D01*
X-906585Y1000000D01*
X-925001Y1001814D01*
X-943417Y1000000D01*
X-943419Y1000000D01*
X-998513Y994574D01*
X-1069200Y973131D01*
X-1069202Y973130D01*
X-1134348Y938309D01*
X-1156669Y919990D01*
X-1191448Y891448D01*
X-1203191Y877139D01*
X-1438918Y641412D01*
X-1455754Y726052D01*
X-1491561Y812497D01*
X-1543544Y890295D01*
X-1609705Y956456D01*
X-1687503Y1008439D01*
X-1773948Y1044246D01*
X-1865717Y1062500D01*
X-1959283Y1062500D01*
X-2051052Y1044246D01*
X-2137497Y1008439D01*
X-2215295Y956456D01*
X-2281456Y890295D01*
X-2333439Y812497D01*
X-2369246Y726052D01*
X-2387500Y634283D01*
X-2387500Y540717D01*
X-2369246Y448948D01*
X-2333439Y362503D01*
X-2281456Y284705D01*
X-2215295Y218544D01*
X-2137497Y166561D01*
X-2051052Y130754D01*
X-1966412Y113918D01*
X-2425000Y-344671D01*
X-2425000Y2300000D01*
X-1424263Y2300000D01*
X-184486Y1060223D01*
G37*
%TD.AperFunction*%
D18*
X-6090131Y10558068D02*
X-5979736Y10467469D01*
X-5853787Y10400147D01*
X-5717124Y10358691D01*
X-5575000Y10344693D01*
X-5432875Y10358691D01*
X-5296212Y10400147D01*
X-5204777Y10449020D01*
X-5200001Y10448550D01*
X-5185278Y10450000D01*
X-2305330Y10450000D01*
X-2582451Y10172878D01*
X-2663552Y10156746D01*
X-2749997Y10120939D01*
X-2827795Y10068956D01*
X-2893956Y10002795D01*
X-2945939Y9924997D01*
X-2981746Y9838552D01*
X-3000000Y9746783D01*
X-3000000Y9653217D01*
X-2981746Y9561448D01*
X-2945939Y9475003D01*
X-2929967Y9451099D01*
X-5653033Y6728033D01*
X-5662360Y6716668D01*
X-5669291Y6703701D01*
X-5673559Y6689632D01*
X-5675000Y6675000D01*
X-5675000Y4825000D01*
X-5746783Y4825000D01*
X-5838552Y4806746D01*
X-5875000Y4791649D01*
X-5875000Y8680278D01*
X-5873550Y8695001D01*
X-5875000Y8709724D01*
X-5875000Y8709733D01*
X-5879341Y8753810D01*
X-5896496Y8810360D01*
X-5909464Y8834621D01*
X-5924353Y8862478D01*
X-5952451Y8896715D01*
X-5961842Y8908158D01*
X-5973285Y8917549D01*
X-6070019Y9014283D01*
X-5167500Y9014283D01*
X-5167500Y8920717D01*
X-5149246Y8828948D01*
X-5113439Y8742503D01*
X-5061456Y8664705D01*
X-4995295Y8598544D01*
X-4917497Y8546561D01*
X-4831052Y8510754D01*
X-4739283Y8492500D01*
X-4645717Y8492500D01*
X-4553948Y8510754D01*
X-4467503Y8546561D01*
X-4389705Y8598544D01*
X-4323544Y8664705D01*
X-4271561Y8742503D01*
X-4235754Y8828948D01*
X-4217500Y8920717D01*
X-4217500Y9014283D01*
X-4235754Y9106052D01*
X-4271561Y9192497D01*
X-4323544Y9270295D01*
X-4389705Y9336456D01*
X-4467503Y9388439D01*
X-4553948Y9424246D01*
X-4645717Y9442500D01*
X-4739283Y9442500D01*
X-4831052Y9424246D01*
X-4917497Y9388439D01*
X-4995295Y9336456D01*
X-5061456Y9270295D01*
X-5113439Y9192497D01*
X-5149246Y9106052D01*
X-5167500Y9014283D01*
X-6070019Y9014283D01*
X-6180000Y9124263D01*
X-6180000Y10667573D01*
X-6090131Y10558068D01*
%TA.AperFunction,Conductor*%
D22*
G36*
X-6090131Y10558068D02*
G01*
X-5979736Y10467469D01*
X-5853787Y10400147D01*
X-5717124Y10358691D01*
X-5575000Y10344693D01*
X-5432875Y10358691D01*
X-5296212Y10400147D01*
X-5204777Y10449020D01*
X-5200001Y10448550D01*
X-5185278Y10450000D01*
X-2305330Y10450000D01*
X-2582451Y10172878D01*
X-2663552Y10156746D01*
X-2749997Y10120939D01*
X-2827795Y10068956D01*
X-2893956Y10002795D01*
X-2945939Y9924997D01*
X-2981746Y9838552D01*
X-3000000Y9746783D01*
X-3000000Y9653217D01*
X-2981746Y9561448D01*
X-2945939Y9475003D01*
X-2929967Y9451099D01*
X-5653033Y6728033D01*
X-5662360Y6716668D01*
X-5669291Y6703701D01*
X-5673559Y6689632D01*
X-5675000Y6675000D01*
X-5675000Y4825000D01*
X-5746783Y4825000D01*
X-5838552Y4806746D01*
X-5875000Y4791649D01*
X-5875000Y8680278D01*
X-5873550Y8695001D01*
X-5875000Y8709724D01*
X-5875000Y8709733D01*
X-5879341Y8753810D01*
X-5896496Y8810360D01*
X-5909464Y8834621D01*
X-5924353Y8862478D01*
X-5952451Y8896715D01*
X-5961842Y8908158D01*
X-5973285Y8917549D01*
X-6070019Y9014283D01*
X-5167500Y9014283D01*
X-5167500Y8920717D01*
X-5149246Y8828948D01*
X-5113439Y8742503D01*
X-5061456Y8664705D01*
X-4995295Y8598544D01*
X-4917497Y8546561D01*
X-4831052Y8510754D01*
X-4739283Y8492500D01*
X-4645717Y8492500D01*
X-4553948Y8510754D01*
X-4467503Y8546561D01*
X-4389705Y8598544D01*
X-4323544Y8664705D01*
X-4271561Y8742503D01*
X-4235754Y8828948D01*
X-4217500Y8920717D01*
X-4217500Y9014283D01*
X-4235754Y9106052D01*
X-4271561Y9192497D01*
X-4323544Y9270295D01*
X-4389705Y9336456D01*
X-4467503Y9388439D01*
X-4553948Y9424246D01*
X-4645717Y9442500D01*
X-4739283Y9442500D01*
X-4831052Y9424246D01*
X-4917497Y9388439D01*
X-4995295Y9336456D01*
X-5061456Y9270295D01*
X-5113439Y9192497D01*
X-5149246Y9106052D01*
X-5167500Y9014283D01*
X-6070019Y9014283D01*
X-6180000Y9124263D01*
X-6180000Y10667573D01*
X-6090131Y10558068D01*
G37*
%TD.AperFunction*%
D18*
X5200000Y10448550D02*
X5205285Y10449070D01*
X5296813Y10400147D01*
X5433476Y10358691D01*
X5575600Y10344693D01*
X5618598Y10348928D01*
X5072862Y9803191D01*
X5058553Y9791448D01*
X5032258Y9759407D01*
X5011691Y9734346D01*
X4976870Y9669200D01*
X4955427Y9598512D01*
X4948186Y9525000D01*
X4950001Y9506574D01*
X4950000Y8043419D01*
X4950000Y7993750D01*
X4904061Y7924997D01*
X4868254Y7838552D01*
X4850000Y7746783D01*
X4850000Y7653217D01*
X4868254Y7561448D01*
X4904061Y7475003D01*
X4950000Y7406250D01*
X4950001Y5230331D01*
X4750000Y5030329D01*
X4750000Y5096783D01*
X4731746Y5188552D01*
X4695939Y5274997D01*
X4650000Y5343750D01*
X4650000Y5731584D01*
X4651814Y5750000D01*
X4649722Y5771237D01*
X4644574Y5823513D01*
X4623131Y5894200D01*
X4588309Y5959347D01*
X4541448Y6016448D01*
X4527140Y6028190D01*
X3678912Y6876418D01*
X3763552Y6893254D01*
X3849997Y6929061D01*
X3927795Y6981044D01*
X3993956Y7047205D01*
X4045939Y7125003D01*
X4081746Y7211448D01*
X4100000Y7303217D01*
X4100000Y7396783D01*
X4081746Y7488552D01*
X4045939Y7574997D01*
X3993956Y7652795D01*
X3927795Y7718956D01*
X3849997Y7770939D01*
X3763552Y7806746D01*
X3671783Y7825000D01*
X3578217Y7825000D01*
X3486448Y7806746D01*
X3400003Y7770939D01*
X3322205Y7718956D01*
X3256044Y7652795D01*
X3204061Y7574997D01*
X3168254Y7488552D01*
X3151418Y7403911D01*
X2805329Y7750000D01*
X2821783Y7750000D01*
X2913552Y7768254D01*
X2999997Y7804061D01*
X3077795Y7856044D01*
X3143956Y7922205D01*
X3195939Y8000003D01*
X3231746Y8086448D01*
X3250000Y8178217D01*
X3250000Y8271783D01*
X3231746Y8363552D01*
X3195939Y8449997D01*
X3143956Y8527795D01*
X3077795Y8593956D01*
X2999997Y8645939D01*
X2913552Y8681746D01*
X2821783Y8700000D01*
X2728217Y8700000D01*
X2636448Y8681746D01*
X2550003Y8645939D01*
X2472205Y8593956D01*
X2406044Y8527795D01*
X2354061Y8449997D01*
X2318254Y8363552D01*
X2300000Y8271783D01*
X2300000Y8178217D01*
X2314587Y8104885D01*
X2313419Y8105000D01*
X2313416Y8105000D01*
X2295000Y8106814D01*
X2276584Y8105000D01*
X1830000Y8105000D01*
X1830000Y9864671D01*
X2052122Y9642548D01*
X2068254Y9561448D01*
X2104061Y9475003D01*
X2156044Y9397205D01*
X2222205Y9331044D01*
X2300003Y9279061D01*
X2386448Y9243254D01*
X2478217Y9225000D01*
X2571783Y9225000D01*
X2663552Y9243254D01*
X2749997Y9279061D01*
X2827795Y9331044D01*
X2893956Y9397205D01*
X2945939Y9475003D01*
X2981746Y9561448D01*
X3000000Y9653217D01*
X3000000Y9746783D01*
X2981746Y9838552D01*
X2945939Y9924997D01*
X2893956Y10002795D01*
X2827795Y10068956D01*
X2749997Y10120939D01*
X2663552Y10156746D01*
X2582452Y10172878D01*
X2305329Y10450000D01*
X5185277Y10450000D01*
X5200000Y10448550D01*
%TA.AperFunction,Conductor*%
D22*
G36*
X5200000Y10448550D02*
G01*
X5205285Y10449070D01*
X5296813Y10400147D01*
X5433476Y10358691D01*
X5575600Y10344693D01*
X5618598Y10348928D01*
X5072862Y9803191D01*
X5058553Y9791448D01*
X5032258Y9759407D01*
X5011691Y9734346D01*
X4976870Y9669200D01*
X4955427Y9598512D01*
X4948186Y9525000D01*
X4950001Y9506574D01*
X4950000Y8043419D01*
X4950000Y7993750D01*
X4904061Y7924997D01*
X4868254Y7838552D01*
X4850000Y7746783D01*
X4850000Y7653217D01*
X4868254Y7561448D01*
X4904061Y7475003D01*
X4950000Y7406250D01*
X4950001Y5230331D01*
X4750000Y5030329D01*
X4750000Y5096783D01*
X4731746Y5188552D01*
X4695939Y5274997D01*
X4650000Y5343750D01*
X4650000Y5731584D01*
X4651814Y5750000D01*
X4649722Y5771237D01*
X4644574Y5823513D01*
X4623131Y5894200D01*
X4588309Y5959347D01*
X4541448Y6016448D01*
X4527140Y6028190D01*
X3678912Y6876418D01*
X3763552Y6893254D01*
X3849997Y6929061D01*
X3927795Y6981044D01*
X3993956Y7047205D01*
X4045939Y7125003D01*
X4081746Y7211448D01*
X4100000Y7303217D01*
X4100000Y7396783D01*
X4081746Y7488552D01*
X4045939Y7574997D01*
X3993956Y7652795D01*
X3927795Y7718956D01*
X3849997Y7770939D01*
X3763552Y7806746D01*
X3671783Y7825000D01*
X3578217Y7825000D01*
X3486448Y7806746D01*
X3400003Y7770939D01*
X3322205Y7718956D01*
X3256044Y7652795D01*
X3204061Y7574997D01*
X3168254Y7488552D01*
X3151418Y7403911D01*
X2805329Y7750000D01*
X2821783Y7750000D01*
X2913552Y7768254D01*
X2999997Y7804061D01*
X3077795Y7856044D01*
X3143956Y7922205D01*
X3195939Y8000003D01*
X3231746Y8086448D01*
X3250000Y8178217D01*
X3250000Y8271783D01*
X3231746Y8363552D01*
X3195939Y8449997D01*
X3143956Y8527795D01*
X3077795Y8593956D01*
X2999997Y8645939D01*
X2913552Y8681746D01*
X2821783Y8700000D01*
X2728217Y8700000D01*
X2636448Y8681746D01*
X2550003Y8645939D01*
X2472205Y8593956D01*
X2406044Y8527795D01*
X2354061Y8449997D01*
X2318254Y8363552D01*
X2300000Y8271783D01*
X2300000Y8178217D01*
X2314587Y8104885D01*
X2313419Y8105000D01*
X2313416Y8105000D01*
X2295000Y8106814D01*
X2276584Y8105000D01*
X1830000Y8105000D01*
X1830000Y9864671D01*
X2052122Y9642548D01*
X2068254Y9561448D01*
X2104061Y9475003D01*
X2156044Y9397205D01*
X2222205Y9331044D01*
X2300003Y9279061D01*
X2386448Y9243254D01*
X2478217Y9225000D01*
X2571783Y9225000D01*
X2663552Y9243254D01*
X2749997Y9279061D01*
X2827795Y9331044D01*
X2893956Y9397205D01*
X2945939Y9475003D01*
X2981746Y9561448D01*
X3000000Y9653217D01*
X3000000Y9746783D01*
X2981746Y9838552D01*
X2945939Y9924997D01*
X2893956Y10002795D01*
X2827795Y10068956D01*
X2749997Y10120939D01*
X2663552Y10156746D01*
X2582452Y10172878D01*
X2305329Y10450000D01*
X5185277Y10450000D01*
X5200000Y10448550D01*
G37*
%TD.AperFunction*%
%TD*%
M02*
