%TF.GenerationSoftware,KiCad,Pcbnew,(5.1.9)-1*%
%TF.CreationDate,2021-01-04T01:20:58+08:00*%
%TF.ProjectId,akami,616b616d-692e-46b6-9963-61645f706362,rev?*%
%TF.SameCoordinates,Original*%
%TF.FileFunction,Copper,L4,Bot*%
%TF.FilePolarity,Positive*%
%FSLAX46Y46*%
G04 Gerber Fmt 4.6, Leading zero omitted, Abs format (unit mm)*
G04 Created by KiCad (PCBNEW (5.1.9)-1) date 2021-01-04 01:20:58*
%MOMM*%
%LPD*%
G01*
G04 APERTURE LIST*
%TA.AperFunction,ComponentPad*%
%ADD10C,1.524000*%
%TD*%
%TA.AperFunction,SMDPad,CuDef*%
%ADD11R,1.000000X1.000000*%
%TD*%
%TA.AperFunction,WasherPad*%
%ADD12C,2.000000*%
%TD*%
%TA.AperFunction,ComponentPad*%
%ADD13O,1.000000X1.800000*%
%TD*%
%TA.AperFunction,ComponentPad*%
%ADD14O,1.000000X2.200000*%
%TD*%
%TA.AperFunction,ViaPad*%
%ADD15C,0.500000*%
%TD*%
%TA.AperFunction,ViaPad*%
%ADD16C,0.600000*%
%TD*%
%TA.AperFunction,Conductor*%
%ADD17C,0.150000*%
%TD*%
%TA.AperFunction,Conductor*%
%ADD18C,0.300000*%
%TD*%
%TA.AperFunction,Conductor*%
%ADD19C,0.200000*%
%TD*%
%TA.AperFunction,Conductor*%
%ADD20C,0.261100*%
%TD*%
%TA.AperFunction,Conductor*%
%ADD21C,0.261112*%
%TD*%
G04 APERTURE END LIST*
D10*
%TO.P,J2,1*%
%TO.N,VBAT*%
X7620000Y15230000D03*
%TD*%
%TO.P,J3,1*%
%TO.N,GND*%
X-7620000Y15230000D03*
%TD*%
D11*
%TO.P,TP3,1*%
%TO.N,VDD_NRF*%
X0Y5850000D03*
%TD*%
D12*
%TO.P,REF\u002A\u002A,*%
%TO.N,*%
X13000000Y14500000D03*
%TD*%
%TO.P,REF\u002A\u002A,*%
%TO.N,*%
X13000000Y-14500000D03*
%TD*%
%TO.P,REF\u002A\u002A,*%
%TO.N,*%
X-13000000Y-14500000D03*
%TD*%
%TO.P,REF\u002A\u002A,*%
%TO.N,*%
X-13000000Y14500000D03*
%TD*%
D10*
%TO.P,U4,1*%
%TO.N,P0.06*%
X-7620000Y12690000D03*
%TO.P,U4,2*%
%TO.N,P0.08*%
X-7620000Y10150000D03*
%TO.P,U4,3*%
%TO.N,GND*%
X-7620000Y7610000D03*
%TO.P,U4,4*%
X-7620000Y5070000D03*
%TO.P,U4,5*%
%TO.N,P0.17*%
X-7620000Y2530000D03*
%TO.P,U4,6*%
%TO.N,P0.20*%
X-7620000Y-10000D03*
%TO.P,U4,7*%
%TO.N,P0.22*%
X-7620000Y-2550000D03*
%TO.P,U4,8*%
%TO.N,P0.24*%
X-7620000Y-5090000D03*
%TO.P,U4,9*%
%TO.N,P1.00*%
X-7620000Y-7630000D03*
%TO.P,U4,10*%
%TO.N,P0.11*%
X-7620000Y-10170000D03*
%TO.P,U4,11*%
%TO.N,P1.04*%
X-7620000Y-12710000D03*
%TO.P,U4,12*%
%TO.N,P1.06*%
X-7620000Y-15250000D03*
%TO.P,U4,13*%
%TO.N,P0.09*%
X7620000Y-15250000D03*
%TO.P,U4,14*%
%TO.N,P0.10*%
X7620000Y-12710000D03*
%TO.P,U4,15*%
%TO.N,P1.11*%
X7620000Y-10170000D03*
%TO.P,U4,16*%
%TO.N,P1.13*%
X7620000Y-7630000D03*
%TO.P,U4,17*%
%TO.N,P1.15*%
X7620000Y-5090000D03*
%TO.P,U4,18*%
%TO.N,P0.02*%
X7620000Y-2550000D03*
%TO.P,U4,19*%
%TO.N,P0.29*%
X7620000Y-10000D03*
%TO.P,U4,20*%
%TO.N,P0.31*%
X7620000Y2530000D03*
%TO.P,U4,21*%
%TO.N,3V3_OUT*%
X7620000Y5070000D03*
%TO.P,U4,22*%
%TO.N,RESET*%
X7620000Y7610000D03*
%TO.P,U4,23*%
%TO.N,GND*%
X7620000Y10150000D03*
%TO.P,U4,24*%
%TO.N,VBAT*%
X7620000Y12690000D03*
%TD*%
D11*
%TO.P,TP1,1*%
%TO.N,SWC*%
X-3170000Y-9400000D03*
%TD*%
%TO.P,TP2,1*%
%TO.N,SWD*%
X-4680000Y-9400000D03*
%TD*%
D13*
%TO.P,J1,S1*%
%TO.N,Net-(J1-PadS1)*%
X-5575000Y11473200D03*
X5575600Y11473200D03*
D14*
X5575600Y15373200D03*
X-5575000Y15373200D03*
%TD*%
D15*
%TO.N,VDD_NRF*%
X-3800000Y-5410000D03*
X-1800000Y3230000D03*
X3730000Y-6900000D03*
X-2590000Y-7485000D03*
X3962500Y8262500D03*
X850000Y6550000D03*
X3200000Y-1875000D03*
X-2375000Y-1750000D03*
X-2700000Y-10425000D03*
%TO.N,Net-(C11-Pad1)*%
X2650000Y-7580000D03*
X5550000Y-8200000D03*
%TO.N,VBUS*%
X575000Y7275000D03*
X3250000Y6525000D03*
X0Y3200000D03*
X-2800000Y9750000D03*
X2800000Y9750000D03*
X-875000Y2250000D03*
%TO.N,Net-(C15-Pad2)*%
X2170000Y-8250000D03*
X3275000Y-2600000D03*
X-6075000Y-8050000D03*
%TO.N,BAT_VOLT*%
X2400000Y6500000D03*
X700000Y1925000D03*
%TO.N,Net-(C20-Pad2)*%
X-2440000Y4460000D03*
X-1130000Y4470000D03*
X1675000Y3500000D03*
%TO.N,VBAT*%
X560000Y4360000D03*
X-1540000Y2610000D03*
X5625000Y9775000D03*
X3150000Y4350000D03*
X-4692500Y8967500D03*
X-5375000Y2900000D03*
X-5500000Y1925000D03*
%TO.N,BLUE_LED*%
X-4825000Y-3450000D03*
X-5925000Y4950000D03*
%TO.N,USB_D+*%
X250000Y9450000D03*
X-920000Y9790000D03*
X-4687500Y-1760000D03*
%TO.N,USB_D-*%
X550000Y8075000D03*
X-580000Y8086681D03*
X-4010000Y-1760000D03*
%TO.N,Net-(L3-Pad2)*%
X2290000Y-2690000D03*
X-4475000Y-4450000D03*
%TO.N,3V3_OUT*%
X4675000Y8725000D03*
X4675000Y6450000D03*
%TO.N,POWER_CTRL*%
X3600000Y7175000D03*
X-5500000Y-1600000D03*
X-4150000Y-3525000D03*
%TO.N,Net-(R11-Pad2)*%
X6150000Y8050000D03*
X5850000Y5925000D03*
%TO.N,CHARGE_CTRL*%
X1120000Y-1240000D03*
X3490000Y550000D03*
%TO.N,SWD*%
X-3320000Y-8510000D03*
%TO.N,SWC*%
X-2260000Y-8640000D03*
%TO.N,RESET*%
X-2460000Y-3540000D03*
D16*
%TO.N,GND*%
X-1212500Y-5000000D03*
X1212500Y-5000000D03*
X0Y-5000000D03*
X0Y-6212500D03*
X0Y-3787500D03*
X-1212500Y-3787500D03*
X-1212500Y-6212500D03*
X1212500Y-6212500D03*
X1212500Y-3787500D03*
D15*
X4575000Y10175000D03*
X-4575000Y10175000D03*
X-1750000Y3950000D03*
X3500000Y-10990000D03*
X1650000Y-9800000D03*
X3825000Y-1550000D03*
X3500000Y-10150000D03*
X6970000Y-9060000D03*
X-7600000Y-8900000D03*
X7600000Y-8900000D03*
X2600000Y-11000000D03*
X1675000Y4675000D03*
X2575000Y8950000D03*
X-3150000Y4350000D03*
X-6000000Y9725000D03*
X7175000Y-3800000D03*
X7325000Y-6350000D03*
X5675000Y-2650000D03*
X6725000Y-1300000D03*
X-700000Y-325000D03*
X-1375000Y-75000D03*
X-1800000Y1550000D03*
X1800000Y1550000D03*
X-5275000Y150000D03*
X-3800000Y-10425000D03*
X-300000Y-10700000D03*
X-1950000Y-10425000D03*
X-5825000Y-8700000D03*
X5725000Y3550000D03*
%TO.N,P0.09*%
X60000Y-7790000D03*
%TO.N,P0.10*%
X590000Y-7400000D03*
%TO.N,P1.11*%
X2400000Y-6740000D03*
%TO.N,P1.13*%
X3800000Y-6125000D03*
%TO.N,P1.15*%
X3800000Y-5050000D03*
%TO.N,P0.02*%
X3925000Y-4225000D03*
%TO.N,P0.29*%
X4200000Y-3625000D03*
%TO.N,P0.31*%
X3300000Y-3275000D03*
%TO.N,P1.04*%
X-1475000Y-8700000D03*
%TO.N,P1.06*%
X-950000Y-10600000D03*
%TO.N,P0.11*%
X-1470000Y-2530000D03*
X-5475000Y-3375000D03*
%TO.N,P1.00*%
X-3925000Y-7600000D03*
%TO.N,P0.24*%
X-4160000Y-6950000D03*
%TO.N,P0.22*%
X-3790000Y-6390000D03*
%TO.N,P0.20*%
X-4310000Y-5900000D03*
%TO.N,P0.17*%
X-4470000Y-5150000D03*
%TO.N,P0.06*%
X-3575000Y2100000D03*
X175000Y-1200000D03*
X-6050000Y6225000D03*
%TO.N,P0.08*%
X-6500000Y1650000D03*
X-875000Y-1225000D03*
X-5500000Y-2725000D03*
%TD*%
D17*
%TO.N,VDD_NRF*%
X150000Y5850000D02*
X850000Y6550000D01*
X0Y5850000D02*
X150000Y5850000D01*
%TO.N,Net-(C11-Pad1)*%
X3270000Y-8200000D02*
X5550000Y-8200000D01*
X2650000Y-7580000D02*
X3270000Y-8200000D01*
D18*
%TO.N,VBUS*%
X1600000Y7275000D02*
X575000Y7275000D01*
X3250000Y6525000D02*
X2500000Y7275000D01*
X2500000Y7275000D02*
X1600000Y7275000D01*
X2075000Y9750000D02*
X1600000Y9275000D01*
X2800000Y9750000D02*
X2075000Y9750000D01*
X-2180000Y10370000D02*
X-2800000Y9750000D01*
X2180000Y10370000D02*
X-2180000Y10370000D01*
X2800000Y9750000D02*
X2180000Y10370000D01*
X1600000Y9275000D02*
X1600000Y7275000D01*
X0Y3125000D02*
X0Y3200000D01*
X-875000Y2250000D02*
X0Y3125000D01*
D17*
%TO.N,Net-(C15-Pad2)*%
X1910000Y-7615000D02*
X2170000Y-7875000D01*
X2170000Y-7875000D02*
X2170000Y-8250000D01*
X1910000Y-6915000D02*
X1910000Y-7615000D01*
X1910000Y-6565000D02*
X1910000Y-6915000D01*
X2625000Y-5850000D02*
X1910000Y-6565000D01*
X2625000Y-3250000D02*
X2625000Y-5850000D01*
X3275000Y-2600000D02*
X2625000Y-3250000D01*
X-1230000Y-8055000D02*
X-90000Y-6915000D01*
X-5910000Y-8050000D02*
X-5905000Y-8055000D01*
X-5905000Y-8055000D02*
X-1230000Y-8055000D01*
X-6075000Y-8050000D02*
X-5910000Y-8050000D01*
X-90000Y-6915000D02*
X1910000Y-6915000D01*
%TO.N,BAT_VOLT*%
X2125000Y3100000D02*
X950000Y1925000D01*
X950000Y1925000D02*
X700000Y1925000D01*
X2125000Y4850000D02*
X2125000Y3100000D01*
X2400000Y5125000D02*
X2125000Y4850000D01*
X2400000Y6500000D02*
X2400000Y5125000D01*
D19*
%TO.N,Net-(C20-Pad2)*%
X-1130000Y4470000D02*
X-1140000Y4460000D01*
X-1140000Y4460000D02*
X-2440000Y4460000D01*
D18*
X-700000Y4900000D02*
X-1130000Y4470000D01*
X1675000Y3500000D02*
X1150000Y4025000D01*
X1150000Y4025000D02*
X1150000Y4600000D01*
X1150000Y4600000D02*
X850000Y4900000D01*
X850000Y4900000D02*
X-700000Y4900000D01*
%TO.N,VBAT*%
X-280000Y4360000D02*
X560000Y4360000D01*
X-970000Y3670000D02*
X-280000Y4360000D01*
X-970000Y3180000D02*
X-970000Y3670000D01*
X-1540000Y2610000D02*
X-970000Y3180000D01*
X7620000Y11770000D02*
X5625000Y9775000D01*
X7620000Y12690000D02*
X7620000Y11770000D01*
X7620000Y15230000D02*
X7620000Y12690000D01*
X5275000Y9425000D02*
X5625000Y9775000D01*
X5275000Y5325000D02*
X5275000Y9425000D01*
X4300000Y4350000D02*
X5275000Y5325000D01*
X3150000Y4350000D02*
X4300000Y4350000D01*
X-5375000Y8285000D02*
X-4692500Y8967500D01*
X-5375000Y2900000D02*
X-5375000Y8285000D01*
X-5375000Y2050000D02*
X-5375000Y2900000D01*
X-5500000Y1925000D02*
X-5375000Y2050000D01*
D17*
%TO.N,BLUE_LED*%
X-4825000Y-3650000D02*
X-4825000Y-3450000D01*
X-5100000Y-3925000D02*
X-4825000Y-3650000D01*
X-5700000Y-3925000D02*
X-5100000Y-3925000D01*
X-5975000Y-3650000D02*
X-5700000Y-3925000D01*
X-5975000Y4900000D02*
X-5975000Y-3650000D01*
X-5925000Y4950000D02*
X-5975000Y4900000D01*
%TO.N,Net-(J1-PadS1)*%
X-5575000Y15373200D02*
X-5575000Y11473200D01*
X5575600Y15373200D02*
X5575600Y11473200D01*
X5575600Y11125600D02*
X5575600Y11473200D01*
X5200000Y10750000D02*
X5575600Y11125600D01*
X-5200000Y10750000D02*
X5200000Y10750000D01*
X-5575000Y11125000D02*
X-5200000Y10750000D01*
X-5575000Y11473200D02*
X-5575000Y11125000D01*
D20*
%TO.N,USB_D+*%
X95000Y8745000D02*
X-920000Y8745000D01*
X250000Y8900000D02*
X95000Y8745000D01*
X250000Y9450000D02*
X250000Y8900000D01*
X-920000Y9790000D02*
X-920000Y8745000D01*
D21*
X-2533320Y8745000D02*
X-920000Y8745000D01*
X-4582156Y6696164D02*
X-2533320Y8745000D01*
X-4582156Y-1657156D02*
X-4582156Y6696164D01*
X-4687500Y-1762500D02*
X-4582156Y-1657156D01*
D20*
%TO.N,USB_D-*%
X550000Y8075000D02*
X545000Y8070000D01*
X538319Y8086681D02*
X550000Y8075000D01*
X-580000Y8086681D02*
X538319Y8086681D01*
D21*
X-2534999Y8086681D02*
X-580000Y8086681D01*
X-4117844Y6503836D02*
X-2534999Y8086681D01*
X-4117844Y6107156D02*
X-4117844Y6503836D01*
X-4110323Y6040399D02*
X-4117844Y6107156D01*
X-4088135Y5976990D02*
X-4110323Y6040399D01*
X-4052394Y5920109D02*
X-4088135Y5976990D01*
X-4004891Y5872606D02*
X-4052394Y5920109D01*
X-3948010Y5177446D02*
X-3884601Y5199634D01*
X-4010000Y-1760000D02*
X-4117844Y-1652156D01*
X-3452100Y5214677D02*
X-3388691Y5236865D01*
X-3518856Y5807156D02*
X-3817844Y5807156D01*
X-4088135Y5037321D02*
X-4052394Y5094202D01*
X-3248566Y5637321D02*
X-3284307Y5694202D01*
X-4052394Y5094202D02*
X-4004891Y5141705D01*
X-3884601Y5199634D02*
X-3817844Y5207156D01*
X-4110323Y4973912D02*
X-4088135Y5037321D01*
X-4117844Y4907156D02*
X-4110323Y4973912D01*
X-4117844Y-1652156D02*
X-4117844Y4907156D01*
X-4004891Y5141705D02*
X-3948010Y5177446D01*
X-3817844Y5207156D02*
X-3518856Y5207156D01*
X-3452100Y5799634D02*
X-3518856Y5807156D01*
X-3226378Y5440399D02*
X-3218856Y5507156D01*
X-3388691Y5236865D02*
X-3331810Y5272606D01*
X-3331810Y5272606D02*
X-3284307Y5320109D01*
X-3284307Y5320109D02*
X-3248566Y5376990D01*
X-3248566Y5376990D02*
X-3226378Y5440399D01*
X-3218856Y5507156D02*
X-3226378Y5573912D01*
X-3226378Y5573912D02*
X-3248566Y5637321D01*
X-3284307Y5694202D02*
X-3331810Y5741705D01*
X-3331810Y5741705D02*
X-3388691Y5777446D01*
X-3948010Y5836865D02*
X-4004891Y5872606D01*
X-3388691Y5777446D02*
X-3452100Y5799634D01*
X-3817844Y5807156D02*
X-3884601Y5814677D01*
X-3518856Y5207156D02*
X-3452100Y5214677D01*
X-3884601Y5814677D02*
X-3948010Y5836865D01*
D17*
%TO.N,Net-(L3-Pad2)*%
X-3800000Y-4450000D02*
X-4475000Y-4450000D01*
X-2650000Y-5600000D02*
X-3800000Y-4450000D01*
X2290000Y-5210000D02*
X1900000Y-5600000D01*
X1900000Y-5600000D02*
X-2650000Y-5600000D01*
X2290000Y-2690000D02*
X2290000Y-5210000D01*
D18*
%TO.N,3V3_OUT*%
X4675000Y8725000D02*
X4675000Y6450000D01*
D17*
%TO.N,POWER_CTRL*%
X3700000Y5775000D02*
X3700000Y7075000D01*
X2700000Y4775000D02*
X3700000Y5775000D01*
X2700000Y3275000D02*
X2700000Y4775000D01*
X3200000Y975000D02*
X3200000Y2775000D01*
X640000Y-985000D02*
X1000000Y-625000D01*
X-3535000Y-3525000D02*
X-3085000Y-3075000D01*
X3700000Y7075000D02*
X3600000Y7175000D01*
X-4150000Y-3525000D02*
X-3535000Y-3525000D01*
X640000Y-2235000D02*
X640000Y-985000D01*
X-3085000Y-3075000D02*
X-200000Y-3075000D01*
X1600000Y-625000D02*
X3200000Y975000D01*
X3200000Y2775000D02*
X2700000Y3275000D01*
X1000000Y-625000D02*
X1600000Y-625000D01*
X212500Y-2662500D02*
X640000Y-2235000D01*
X-200000Y-3075000D02*
X212500Y-2662500D01*
X-575000Y-775000D02*
X-325000Y-1025000D01*
X-2425000Y-775000D02*
X-575000Y-775000D01*
X-325000Y-2125000D02*
X212500Y-2662500D01*
X-3050000Y-1400000D02*
X-2425000Y-775000D01*
X-325000Y-1025000D02*
X-325000Y-2125000D01*
X-3050000Y-1875000D02*
X-3050000Y-1400000D01*
X-5100000Y-2250000D02*
X-3425000Y-2250000D01*
X-5500000Y-1850000D02*
X-5100000Y-2250000D01*
X-3425000Y-2250000D02*
X-3050000Y-1875000D01*
X-5500000Y-1600000D02*
X-5500000Y-1850000D01*
%TO.N,Net-(R11-Pad2)*%
X6150000Y6225000D02*
X6150000Y8050000D01*
X5850000Y5925000D02*
X6150000Y6225000D01*
%TO.N,CHARGE_CTRL*%
X1690000Y-1240000D02*
X1120000Y-1240000D01*
X3490000Y550000D02*
X3480000Y550000D01*
X3480000Y550000D02*
X1690000Y-1240000D01*
%TO.N,SWD*%
X-3790000Y-8510000D02*
X-4680000Y-9400000D01*
X-3320000Y-8510000D02*
X-3790000Y-8510000D01*
%TO.N,SWC*%
X-3020000Y-9400000D02*
X-3170000Y-9400000D01*
X-2260000Y-8640000D02*
X-3020000Y-9400000D01*
%TO.N,RESET*%
X6490000Y5870000D02*
X7620000Y7000000D01*
X7620000Y7000000D02*
X7620000Y7610000D01*
X6490000Y3215000D02*
X6490000Y5870000D01*
X3950000Y2550000D02*
X4300000Y2900000D01*
X3950000Y350000D02*
X3950000Y2550000D01*
X6175000Y2900000D02*
X6490000Y3215000D01*
X4300000Y2900000D02*
X6175000Y2900000D01*
X1825000Y-1775000D02*
X3950000Y350000D01*
X-2460000Y-3540000D02*
X-2335000Y-3540000D01*
X-2460000Y-3540000D02*
X-2310000Y-3540000D01*
X1825000Y-4175000D02*
X1825000Y-1775000D01*
X1600000Y-4400000D02*
X1825000Y-4175000D01*
X-1600000Y-4400000D02*
X1600000Y-4400000D01*
X-2460000Y-3540000D02*
X-1600000Y-4400000D01*
%TO.N,P0.09*%
X6510000Y-14140000D02*
X7620000Y-15250000D01*
X6510000Y-11210000D02*
X6510000Y-14140000D01*
X4570000Y-9270000D02*
X6510000Y-11210000D01*
X1540000Y-9270000D02*
X4570000Y-9270000D01*
X60000Y-7790000D02*
X1540000Y-9270000D01*
%TO.N,P0.10*%
X7620000Y-11895000D02*
X7620000Y-12710000D01*
X2010000Y-8960000D02*
X4685000Y-8960000D01*
X590000Y-7540000D02*
X2010000Y-8960000D01*
X4685000Y-8960000D02*
X7620000Y-11895000D01*
X590000Y-7400000D02*
X590000Y-7540000D01*
%TO.N,P1.11*%
X7270000Y-10170000D02*
X7620000Y-10170000D01*
X6310000Y-9210000D02*
X7270000Y-10170000D01*
X6310000Y-8300000D02*
X6310000Y-9210000D01*
X5750000Y-7740000D02*
X6310000Y-8300000D01*
X2620000Y-6740000D02*
X3620000Y-7740000D01*
X3620000Y-7740000D02*
X5750000Y-7740000D01*
X2400000Y-6740000D02*
X2620000Y-6740000D01*
%TO.N,P1.13*%
X7450000Y-7460000D02*
X7620000Y-7630000D01*
X4360000Y-7460000D02*
X7450000Y-7460000D01*
X4200000Y-7300000D02*
X4360000Y-7460000D01*
X4200000Y-6525000D02*
X4200000Y-7300000D01*
X3800000Y-6125000D02*
X4200000Y-6525000D01*
%TO.N,P1.15*%
X6530000Y-4000000D02*
X7620000Y-5090000D01*
X4875000Y-4000000D02*
X6530000Y-4000000D01*
X3825000Y-5050000D02*
X4875000Y-4000000D01*
X3800000Y-5050000D02*
X3825000Y-5050000D01*
%TO.N,P0.02*%
X7400000Y-2550000D02*
X7620000Y-2550000D01*
X6250000Y-3700000D02*
X7400000Y-2550000D01*
X4775000Y-3700000D02*
X6250000Y-3700000D01*
X4250000Y-4225000D02*
X4775000Y-3700000D01*
X3925000Y-4225000D02*
X4250000Y-4225000D01*
%TO.N,P0.29*%
X6510000Y-2940000D02*
X6510000Y-2170000D01*
X6025000Y-3425000D02*
X6510000Y-2940000D01*
X7620000Y-1060000D02*
X7620000Y-10000D01*
X6510000Y-2170000D02*
X7620000Y-1060000D01*
X4400000Y-3425000D02*
X6025000Y-3425000D01*
X4200000Y-3625000D02*
X4400000Y-3425000D01*
%TO.N,P0.31*%
X4430000Y2530000D02*
X7620000Y2530000D01*
X4275000Y2375000D02*
X4430000Y2530000D01*
X4275000Y-2300000D02*
X4275000Y2375000D01*
X3300000Y-3275000D02*
X4275000Y-2300000D01*
%TO.N,P1.04*%
X-7620000Y-12570000D02*
X-7620000Y-12710000D01*
X-6100000Y-11050000D02*
X-7620000Y-12570000D01*
X-1850000Y-11050000D02*
X-6100000Y-11050000D01*
X-1475000Y-10675000D02*
X-1850000Y-11050000D01*
X-1475000Y-8700000D02*
X-1475000Y-10675000D01*
%TO.N,P1.06*%
X-6550000Y-14180000D02*
X-7620000Y-15250000D01*
X-6550000Y-11940000D02*
X-6550000Y-14180000D01*
X-5930000Y-11320000D02*
X-6550000Y-11940000D01*
X-1645000Y-11320000D02*
X-5930000Y-11320000D01*
X-950000Y-10625000D02*
X-1645000Y-11320000D01*
X-950000Y-10600000D02*
X-950000Y-10625000D01*
%TO.N,P0.11*%
X-1740000Y-2800000D02*
X-1470000Y-2530000D01*
X-3700000Y-2800000D02*
X-1740000Y-2800000D01*
X-3780000Y-2880000D02*
X-3700000Y-2800000D01*
X-4980000Y-2880000D02*
X-3780000Y-2880000D01*
X-5475000Y-3375000D02*
X-4980000Y-2880000D01*
%TO.N,P1.00*%
X-7590000Y-7600000D02*
X-7620000Y-7630000D01*
X-3925000Y-7600000D02*
X-7590000Y-7600000D01*
%TO.N,P0.24*%
X-4405000Y-6705000D02*
X-4160000Y-6950000D01*
X-5720000Y-6705000D02*
X-4405000Y-6705000D01*
X-7330000Y-5095000D02*
X-5720000Y-6705000D01*
X-7615000Y-5095000D02*
X-7330000Y-5095000D01*
X-7620000Y-5090000D02*
X-7615000Y-5095000D01*
%TO.N,P0.22*%
X-7620000Y-3520000D02*
X-7620000Y-2550000D01*
X-4720000Y-6420000D02*
X-7620000Y-3520000D01*
X-3820000Y-6420000D02*
X-4720000Y-6420000D01*
X-3790000Y-6390000D02*
X-3820000Y-6420000D01*
%TO.N,P0.20*%
X-7620000Y-680000D02*
X-7620000Y-10000D01*
X-6560000Y-1740000D02*
X-7620000Y-680000D01*
X-6560000Y-4100000D02*
X-6560000Y-1740000D01*
X-4760000Y-5900000D02*
X-6560000Y-4100000D01*
X-4310000Y-5900000D02*
X-4760000Y-5900000D01*
%TO.N,P0.17*%
X-7620000Y1687500D02*
X-7620000Y2530000D01*
X-6260000Y327500D02*
X-7620000Y1687500D01*
X-6260000Y-3930000D02*
X-6260000Y327500D01*
X-5040000Y-5150000D02*
X-6260000Y-3930000D01*
X-4470000Y-5150000D02*
X-5040000Y-5150000D01*
%TO.N,P0.06*%
X175000Y-1200000D02*
X175000Y1375000D01*
X175000Y1375000D02*
X-175000Y1725000D01*
X-175000Y1725000D02*
X-1125000Y1725000D01*
X-1500000Y2100000D02*
X-3575000Y2100000D01*
X-1125000Y1725000D02*
X-1500000Y2100000D01*
X-7620000Y12300000D02*
X-7620000Y12690000D01*
X-6480000Y11160000D02*
X-7620000Y12300000D01*
X-6480000Y9000000D02*
X-6480000Y11160000D01*
X-6050000Y8570000D02*
X-6480000Y9000000D01*
X-6050000Y6225000D02*
X-6050000Y8570000D01*
%TO.N,P0.08*%
X-7620000Y9470000D02*
X-7620000Y10150000D01*
X-6550000Y8400000D02*
X-7620000Y9470000D01*
X-6550000Y1700000D02*
X-6550000Y8400000D01*
X-6500000Y1650000D02*
X-6550000Y1700000D01*
X-1100000Y-1225000D02*
X-875000Y-1225000D01*
X-2400000Y-2525000D02*
X-1100000Y-1225000D01*
X-5500000Y-2725000D02*
X-5300000Y-2525000D01*
X-5300000Y-2525000D02*
X-2400000Y-2525000D01*
%TD*%
M02*
