%TF.GenerationSoftware,KiCad,Pcbnew,(5.1.9)-1*%
%TF.CreationDate,2021-01-02T15:49:45+08:00*%
%TF.ProjectId,akami,616b616d-692e-46b6-9963-61645f706362,rev?*%
%TF.SameCoordinates,Original*%
%TF.FileFunction,Paste,Top*%
%TF.FilePolarity,Positive*%
%FSLAX46Y46*%
G04 Gerber Fmt 4.6, Leading zero omitted, Abs format (unit mm)*
G04 Created by KiCad (PCBNEW (5.1.9)-1) date 2021-01-02 15:49:45*
%MOMM*%
%LPD*%
G01*
G04 APERTURE LIST*
%ADD10R,1.100000X0.600000*%
%ADD11R,0.800000X0.900000*%
%ADD12R,0.300000X0.800000*%
%ADD13R,0.540000X0.800000*%
%ADD14C,0.250000*%
%ADD15R,1.700000X1.700000*%
%ADD16R,0.650000X1.060000*%
%ADD17R,0.450000X0.600000*%
G04 APERTURE END LIST*
%TO.C,R2*%
G36*
G01*
X5800000Y3875000D02*
X6350000Y3875000D01*
G75*
G02*
X6550000Y3675000I0J-200000D01*
G01*
X6550000Y3275000D01*
G75*
G02*
X6350000Y3075000I-200000J0D01*
G01*
X5800000Y3075000D01*
G75*
G02*
X5600000Y3275000I0J200000D01*
G01*
X5600000Y3675000D01*
G75*
G02*
X5800000Y3875000I200000J0D01*
G01*
G37*
G36*
G01*
X5800000Y5525000D02*
X6350000Y5525000D01*
G75*
G02*
X6550000Y5325000I0J-200000D01*
G01*
X6550000Y4925000D01*
G75*
G02*
X6350000Y4725000I-200000J0D01*
G01*
X5800000Y4725000D01*
G75*
G02*
X5600000Y4925000I0J200000D01*
G01*
X5600000Y5325000D01*
G75*
G02*
X5800000Y5525000I200000J0D01*
G01*
G37*
%TD*%
%TO.C,R11*%
G36*
G01*
X5725000Y7625000D02*
X6275000Y7625000D01*
G75*
G02*
X6475000Y7425000I0J-200000D01*
G01*
X6475000Y7025000D01*
G75*
G02*
X6275000Y6825000I-200000J0D01*
G01*
X5725000Y6825000D01*
G75*
G02*
X5525000Y7025000I0J200000D01*
G01*
X5525000Y7425000D01*
G75*
G02*
X5725000Y7625000I200000J0D01*
G01*
G37*
G36*
G01*
X5725000Y9275000D02*
X6275000Y9275000D01*
G75*
G02*
X6475000Y9075000I0J-200000D01*
G01*
X6475000Y8675000D01*
G75*
G02*
X6275000Y8475000I-200000J0D01*
G01*
X5725000Y8475000D01*
G75*
G02*
X5525000Y8675000I0J200000D01*
G01*
X5525000Y9075000D01*
G75*
G02*
X5725000Y9275000I200000J0D01*
G01*
G37*
%TD*%
%TO.C,C16*%
G36*
G01*
X-5500000Y-9375000D02*
X-5500000Y-9875000D01*
G75*
G02*
X-5725000Y-10100000I-225000J0D01*
G01*
X-6175000Y-10100000D01*
G75*
G02*
X-6400000Y-9875000I0J225000D01*
G01*
X-6400000Y-9375000D01*
G75*
G02*
X-6175000Y-9150000I225000J0D01*
G01*
X-5725000Y-9150000D01*
G75*
G02*
X-5500000Y-9375000I0J-225000D01*
G01*
G37*
G36*
G01*
X-3950000Y-9375000D02*
X-3950000Y-9875000D01*
G75*
G02*
X-4175000Y-10100000I-225000J0D01*
G01*
X-4625000Y-10100000D01*
G75*
G02*
X-4850000Y-9875000I0J225000D01*
G01*
X-4850000Y-9375000D01*
G75*
G02*
X-4625000Y-9150000I225000J0D01*
G01*
X-4175000Y-9150000D01*
G75*
G02*
X-3950000Y-9375000I0J-225000D01*
G01*
G37*
%TD*%
%TO.C,C22*%
G36*
G01*
X4870000Y-10320000D02*
X4870000Y-9980000D01*
G75*
G02*
X5010000Y-9840000I140000J0D01*
G01*
X5290000Y-9840000D01*
G75*
G02*
X5430000Y-9980000I0J-140000D01*
G01*
X5430000Y-10320000D01*
G75*
G02*
X5290000Y-10460000I-140000J0D01*
G01*
X5010000Y-10460000D01*
G75*
G02*
X4870000Y-10320000I0J140000D01*
G01*
G37*
G36*
G01*
X3910000Y-10320000D02*
X3910000Y-9980000D01*
G75*
G02*
X4050000Y-9840000I140000J0D01*
G01*
X4330000Y-9840000D01*
G75*
G02*
X4470000Y-9980000I0J-140000D01*
G01*
X4470000Y-10320000D01*
G75*
G02*
X4330000Y-10460000I-140000J0D01*
G01*
X4050000Y-10460000D01*
G75*
G02*
X3910000Y-10320000I0J140000D01*
G01*
G37*
%TD*%
%TO.C,R4*%
G36*
G01*
X-525000Y320000D02*
X-895000Y320000D01*
G75*
G02*
X-1030000Y455000I0J135000D01*
G01*
X-1030000Y725000D01*
G75*
G02*
X-895000Y860000I135000J0D01*
G01*
X-525000Y860000D01*
G75*
G02*
X-390000Y725000I0J-135000D01*
G01*
X-390000Y455000D01*
G75*
G02*
X-525000Y320000I-135000J0D01*
G01*
G37*
G36*
G01*
X-525000Y-700000D02*
X-895000Y-700000D01*
G75*
G02*
X-1030000Y-565000I0J135000D01*
G01*
X-1030000Y-295000D01*
G75*
G02*
X-895000Y-160000I135000J0D01*
G01*
X-525000Y-160000D01*
G75*
G02*
X-390000Y-295000I0J-135000D01*
G01*
X-390000Y-565000D01*
G75*
G02*
X-525000Y-700000I-135000J0D01*
G01*
G37*
%TD*%
%TO.C,R3*%
G36*
G01*
X1455000Y6930000D02*
X1825000Y6930000D01*
G75*
G02*
X1960000Y6795000I0J-135000D01*
G01*
X1960000Y6525000D01*
G75*
G02*
X1825000Y6390000I-135000J0D01*
G01*
X1455000Y6390000D01*
G75*
G02*
X1320000Y6525000I0J135000D01*
G01*
X1320000Y6795000D01*
G75*
G02*
X1455000Y6930000I135000J0D01*
G01*
G37*
G36*
G01*
X1455000Y7950000D02*
X1825000Y7950000D01*
G75*
G02*
X1960000Y7815000I0J-135000D01*
G01*
X1960000Y7545000D01*
G75*
G02*
X1825000Y7410000I-135000J0D01*
G01*
X1455000Y7410000D01*
G75*
G02*
X1320000Y7545000I0J135000D01*
G01*
X1320000Y7815000D01*
G75*
G02*
X1455000Y7950000I135000J0D01*
G01*
G37*
%TD*%
%TO.C,R10*%
G36*
G01*
X-1825000Y8710000D02*
X-1455000Y8710000D01*
G75*
G02*
X-1320000Y8575000I0J-135000D01*
G01*
X-1320000Y8305000D01*
G75*
G02*
X-1455000Y8170000I-135000J0D01*
G01*
X-1825000Y8170000D01*
G75*
G02*
X-1960000Y8305000I0J135000D01*
G01*
X-1960000Y8575000D01*
G75*
G02*
X-1825000Y8710000I135000J0D01*
G01*
G37*
G36*
G01*
X-1825000Y9730000D02*
X-1455000Y9730000D01*
G75*
G02*
X-1320000Y9595000I0J-135000D01*
G01*
X-1320000Y9325000D01*
G75*
G02*
X-1455000Y9190000I-135000J0D01*
G01*
X-1825000Y9190000D01*
G75*
G02*
X-1960000Y9325000I0J135000D01*
G01*
X-1960000Y9595000D01*
G75*
G02*
X-1825000Y9730000I135000J0D01*
G01*
G37*
%TD*%
D10*
%TO.C,Y2*%
X5045000Y620000D03*
X5045000Y-780000D03*
%TD*%
D11*
%TO.C,Y1*%
X4850000Y-6125000D03*
X4850000Y-4725000D03*
X5950000Y-4725000D03*
X5950000Y-6125000D03*
%TD*%
D12*
%TO.C,J1*%
X1758300Y10573200D03*
X-1249700Y10573200D03*
D13*
X-3199700Y10573200D03*
X3200300Y10573200D03*
X2400300Y10573200D03*
X-2399700Y10573200D03*
D12*
X-749700Y10573200D03*
X750300Y10573200D03*
X-249700Y10573200D03*
X250300Y10573200D03*
X1250300Y10573200D03*
X-1749700Y10573200D03*
%TD*%
D14*
%TO.C,U1*%
X-2750000Y-8250000D03*
X-2250000Y-8250000D03*
X-1750000Y-8250000D03*
X-1250000Y-8250000D03*
X-750000Y-8250000D03*
X-250000Y-8250000D03*
X250000Y-8250000D03*
X750000Y-8250000D03*
X1750000Y-8250000D03*
X-2000000Y-7750000D03*
X-1500000Y-7750000D03*
X-1000000Y-7750000D03*
X-500000Y-7750000D03*
X1000000Y-7750000D03*
X1500000Y-7750000D03*
X3250000Y-7750000D03*
X3250000Y-7250000D03*
X3250000Y-6750000D03*
X3250000Y-6250000D03*
X3250000Y-5750000D03*
X3250000Y-5250000D03*
X3250000Y-4750000D03*
X3250000Y-4250000D03*
X2750000Y-6500000D03*
X2750000Y-6000000D03*
X2750000Y-5500000D03*
X2750000Y-5000000D03*
X2750000Y-4500000D03*
X2750000Y-4000000D03*
X2750000Y-3500000D03*
X2750000Y-3000000D03*
X-2750000Y-3000000D03*
X-2750000Y-4000000D03*
X-2750000Y-4500000D03*
X-2750000Y-5000000D03*
X-2750000Y-5500000D03*
X-2750000Y-6000000D03*
X-2750000Y-6500000D03*
X-3250000Y-7250000D03*
X-3250000Y-6750000D03*
X-3250000Y-6250000D03*
X-3250000Y-5750000D03*
X-3250000Y-5250000D03*
X-3250000Y-4750000D03*
X-3250000Y-4250000D03*
X-3250000Y-3750000D03*
X-3250000Y-3250000D03*
X-3250000Y-2750000D03*
X2750000Y-1750000D03*
X2000000Y-2250000D03*
X2250000Y-1750000D03*
X1500000Y-2250000D03*
X1000000Y-2250000D03*
X500000Y-2250000D03*
X0Y-2250000D03*
X-500000Y-2250000D03*
X-1000000Y-2250000D03*
X1250000Y-1750000D03*
X750000Y-1750000D03*
X250000Y-1750000D03*
X-250000Y-1750000D03*
X-750000Y-1750000D03*
X-1250000Y-1750000D03*
X-1750000Y-1750000D03*
X-2000000Y-2250000D03*
X-2500000Y-2250000D03*
X-3250000Y-2250000D03*
X-3250000Y-7750000D03*
X-2750000Y-7000000D03*
X2750000Y-2500000D03*
X3250000Y-3750000D03*
X2000000Y-7750000D03*
X2750000Y-8250000D03*
D15*
X1000000Y-4000000D03*
X1000000Y-6000000D03*
X-1000000Y-4000000D03*
X-1000000Y-6000000D03*
%TD*%
D16*
%TO.C,U3*%
X-800000Y3300000D03*
X-2700000Y3300000D03*
X-2700000Y5500000D03*
X-1750000Y5500000D03*
X-800000Y5500000D03*
%TD*%
%TO.C,U2*%
X2700000Y3300000D03*
X800000Y3300000D03*
X800000Y5500000D03*
X1750000Y5500000D03*
X2700000Y5500000D03*
%TD*%
%TO.C,R9*%
G36*
G01*
X1455000Y8710000D02*
X1825000Y8710000D01*
G75*
G02*
X1960000Y8575000I0J-135000D01*
G01*
X1960000Y8305000D01*
G75*
G02*
X1825000Y8170000I-135000J0D01*
G01*
X1455000Y8170000D01*
G75*
G02*
X1320000Y8305000I0J135000D01*
G01*
X1320000Y8575000D01*
G75*
G02*
X1455000Y8710000I135000J0D01*
G01*
G37*
G36*
G01*
X1455000Y9730000D02*
X1825000Y9730000D01*
G75*
G02*
X1960000Y9595000I0J-135000D01*
G01*
X1960000Y9325000D01*
G75*
G02*
X1825000Y9190000I-135000J0D01*
G01*
X1455000Y9190000D01*
G75*
G02*
X1320000Y9325000I0J135000D01*
G01*
X1320000Y9595000D01*
G75*
G02*
X1455000Y9730000I135000J0D01*
G01*
G37*
%TD*%
%TO.C,R8*%
G36*
G01*
X3515000Y4110000D02*
X3885000Y4110000D01*
G75*
G02*
X4020000Y3975000I0J-135000D01*
G01*
X4020000Y3705000D01*
G75*
G02*
X3885000Y3570000I-135000J0D01*
G01*
X3515000Y3570000D01*
G75*
G02*
X3380000Y3705000I0J135000D01*
G01*
X3380000Y3975000D01*
G75*
G02*
X3515000Y4110000I135000J0D01*
G01*
G37*
G36*
G01*
X3515000Y5130000D02*
X3885000Y5130000D01*
G75*
G02*
X4020000Y4995000I0J-135000D01*
G01*
X4020000Y4725000D01*
G75*
G02*
X3885000Y4590000I-135000J0D01*
G01*
X3515000Y4590000D01*
G75*
G02*
X3380000Y4725000I0J135000D01*
G01*
X3380000Y4995000D01*
G75*
G02*
X3515000Y5130000I135000J0D01*
G01*
G37*
%TD*%
%TO.C,R7*%
G36*
G01*
X3835000Y2680000D02*
X3465000Y2680000D01*
G75*
G02*
X3330000Y2815000I0J135000D01*
G01*
X3330000Y3085000D01*
G75*
G02*
X3465000Y3220000I135000J0D01*
G01*
X3835000Y3220000D01*
G75*
G02*
X3970000Y3085000I0J-135000D01*
G01*
X3970000Y2815000D01*
G75*
G02*
X3835000Y2680000I-135000J0D01*
G01*
G37*
G36*
G01*
X3835000Y1660000D02*
X3465000Y1660000D01*
G75*
G02*
X3330000Y1795000I0J135000D01*
G01*
X3330000Y2065000D01*
G75*
G02*
X3465000Y2200000I135000J0D01*
G01*
X3835000Y2200000D01*
G75*
G02*
X3970000Y2065000I0J-135000D01*
G01*
X3970000Y1795000D01*
G75*
G02*
X3835000Y1660000I-135000J0D01*
G01*
G37*
%TD*%
%TO.C,R6*%
G36*
G01*
X-1825000Y6930000D02*
X-1455000Y6930000D01*
G75*
G02*
X-1320000Y6795000I0J-135000D01*
G01*
X-1320000Y6525000D01*
G75*
G02*
X-1455000Y6390000I-135000J0D01*
G01*
X-1825000Y6390000D01*
G75*
G02*
X-1960000Y6525000I0J135000D01*
G01*
X-1960000Y6795000D01*
G75*
G02*
X-1825000Y6930000I135000J0D01*
G01*
G37*
G36*
G01*
X-1825000Y7950000D02*
X-1455000Y7950000D01*
G75*
G02*
X-1320000Y7815000I0J-135000D01*
G01*
X-1320000Y7545000D01*
G75*
G02*
X-1455000Y7410000I-135000J0D01*
G01*
X-1825000Y7410000D01*
G75*
G02*
X-1960000Y7545000I0J135000D01*
G01*
X-1960000Y7815000D01*
G75*
G02*
X-1825000Y7950000I135000J0D01*
G01*
G37*
%TD*%
%TO.C,R5*%
G36*
G01*
X-3885000Y4110000D02*
X-3515000Y4110000D01*
G75*
G02*
X-3380000Y3975000I0J-135000D01*
G01*
X-3380000Y3705000D01*
G75*
G02*
X-3515000Y3570000I-135000J0D01*
G01*
X-3885000Y3570000D01*
G75*
G02*
X-4020000Y3705000I0J135000D01*
G01*
X-4020000Y3975000D01*
G75*
G02*
X-3885000Y4110000I135000J0D01*
G01*
G37*
G36*
G01*
X-3885000Y5130000D02*
X-3515000Y5130000D01*
G75*
G02*
X-3380000Y4995000I0J-135000D01*
G01*
X-3380000Y4725000D01*
G75*
G02*
X-3515000Y4590000I-135000J0D01*
G01*
X-3885000Y4590000D01*
G75*
G02*
X-4020000Y4725000I0J135000D01*
G01*
X-4020000Y4995000D01*
G75*
G02*
X-3885000Y5130000I135000J0D01*
G01*
G37*
%TD*%
D11*
%TO.C,Q2*%
X-3750000Y9400000D03*
X-2800000Y7400000D03*
X-4700000Y7400000D03*
%TD*%
%TO.C,Q1*%
X3750000Y9400000D03*
X4700000Y7400000D03*
X2800000Y7400000D03*
%TD*%
%TO.C,L3*%
G36*
G01*
X-5093750Y-4687500D02*
X-5606250Y-4687500D01*
G75*
G02*
X-5825000Y-4468750I0J218750D01*
G01*
X-5825000Y-4031250D01*
G75*
G02*
X-5606250Y-3812500I218750J0D01*
G01*
X-5093750Y-3812500D01*
G75*
G02*
X-4875000Y-4031250I0J-218750D01*
G01*
X-4875000Y-4468750D01*
G75*
G02*
X-5093750Y-4687500I-218750J0D01*
G01*
G37*
G36*
G01*
X-5093750Y-6262500D02*
X-5606250Y-6262500D01*
G75*
G02*
X-5825000Y-6043750I0J218750D01*
G01*
X-5825000Y-5606250D01*
G75*
G02*
X-5606250Y-5387500I218750J0D01*
G01*
X-5093750Y-5387500D01*
G75*
G02*
X-4875000Y-5606250I0J-218750D01*
G01*
X-4875000Y-6043750D01*
G75*
G02*
X-5093750Y-6262500I-218750J0D01*
G01*
G37*
%TD*%
%TO.C,L2*%
G36*
G01*
X-5575000Y-6702500D02*
X-5575000Y-7047500D01*
G75*
G02*
X-5722500Y-7195000I-147500J0D01*
G01*
X-6017500Y-7195000D01*
G75*
G02*
X-6165000Y-7047500I0J147500D01*
G01*
X-6165000Y-6702500D01*
G75*
G02*
X-6017500Y-6555000I147500J0D01*
G01*
X-5722500Y-6555000D01*
G75*
G02*
X-5575000Y-6702500I0J-147500D01*
G01*
G37*
G36*
G01*
X-4605000Y-6702500D02*
X-4605000Y-7047500D01*
G75*
G02*
X-4752500Y-7195000I-147500J0D01*
G01*
X-5047500Y-7195000D01*
G75*
G02*
X-5195000Y-7047500I0J147500D01*
G01*
X-5195000Y-6702500D01*
G75*
G02*
X-5047500Y-6555000I147500J0D01*
G01*
X-4752500Y-6555000D01*
G75*
G02*
X-4605000Y-6702500I0J-147500D01*
G01*
G37*
%TD*%
%TO.C,L1*%
G36*
G01*
X972500Y-10145000D02*
X627500Y-10145000D01*
G75*
G02*
X480000Y-9997500I0J147500D01*
G01*
X480000Y-9702500D01*
G75*
G02*
X627500Y-9555000I147500J0D01*
G01*
X972500Y-9555000D01*
G75*
G02*
X1120000Y-9702500I0J-147500D01*
G01*
X1120000Y-9997500D01*
G75*
G02*
X972500Y-10145000I-147500J0D01*
G01*
G37*
G36*
G01*
X972500Y-11115000D02*
X627500Y-11115000D01*
G75*
G02*
X480000Y-10967500I0J147500D01*
G01*
X480000Y-10672500D01*
G75*
G02*
X627500Y-10525000I147500J0D01*
G01*
X972500Y-10525000D01*
G75*
G02*
X1120000Y-10672500I0J-147500D01*
G01*
X1120000Y-10967500D01*
G75*
G02*
X972500Y-11115000I-147500J0D01*
G01*
G37*
%TD*%
%TO.C,D3*%
G36*
G01*
X5056250Y4650000D02*
X4543750Y4650000D01*
G75*
G02*
X4325000Y4868750I0J218750D01*
G01*
X4325000Y5306250D01*
G75*
G02*
X4543750Y5525000I218750J0D01*
G01*
X5056250Y5525000D01*
G75*
G02*
X5275000Y5306250I0J-218750D01*
G01*
X5275000Y4868750D01*
G75*
G02*
X5056250Y4650000I-218750J0D01*
G01*
G37*
G36*
G01*
X5056250Y3075000D02*
X4543750Y3075000D01*
G75*
G02*
X4325000Y3293750I0J218750D01*
G01*
X4325000Y3731250D01*
G75*
G02*
X4543750Y3950000I218750J0D01*
G01*
X5056250Y3950000D01*
G75*
G02*
X5275000Y3731250I0J-218750D01*
G01*
X5275000Y3293750D01*
G75*
G02*
X5056250Y3075000I-218750J0D01*
G01*
G37*
%TD*%
D17*
%TO.C,D2*%
X0Y6650000D03*
X0Y8750000D03*
%TD*%
%TO.C,D1*%
G36*
G01*
X-4543750Y4650000D02*
X-5056250Y4650000D01*
G75*
G02*
X-5275000Y4868750I0J218750D01*
G01*
X-5275000Y5306250D01*
G75*
G02*
X-5056250Y5525000I218750J0D01*
G01*
X-4543750Y5525000D01*
G75*
G02*
X-4325000Y5306250I0J-218750D01*
G01*
X-4325000Y4868750D01*
G75*
G02*
X-4543750Y4650000I-218750J0D01*
G01*
G37*
G36*
G01*
X-4543750Y3075000D02*
X-5056250Y3075000D01*
G75*
G02*
X-5275000Y3293750I0J218750D01*
G01*
X-5275000Y3731250D01*
G75*
G02*
X-5056250Y3950000I218750J0D01*
G01*
X-4543750Y3950000D01*
G75*
G02*
X-4325000Y3731250I0J-218750D01*
G01*
X-4325000Y3293750D01*
G75*
G02*
X-4543750Y3075000I-218750J0D01*
G01*
G37*
%TD*%
%TO.C,C21*%
G36*
G01*
X-5500000Y920000D02*
X-6000000Y920000D01*
G75*
G02*
X-6225000Y1145000I0J225000D01*
G01*
X-6225000Y1595000D01*
G75*
G02*
X-6000000Y1820000I225000J0D01*
G01*
X-5500000Y1820000D01*
G75*
G02*
X-5275000Y1595000I0J-225000D01*
G01*
X-5275000Y1145000D01*
G75*
G02*
X-5500000Y920000I-225000J0D01*
G01*
G37*
G36*
G01*
X-5500000Y-630000D02*
X-6000000Y-630000D01*
G75*
G02*
X-6225000Y-405000I0J225000D01*
G01*
X-6225000Y45000D01*
G75*
G02*
X-6000000Y270000I225000J0D01*
G01*
X-5500000Y270000D01*
G75*
G02*
X-5275000Y45000I0J-225000D01*
G01*
X-5275000Y-405000D01*
G75*
G02*
X-5500000Y-630000I-225000J0D01*
G01*
G37*
%TD*%
%TO.C,C20*%
G36*
G01*
X1550000Y1650000D02*
X1550000Y1150000D01*
G75*
G02*
X1325000Y925000I-225000J0D01*
G01*
X875000Y925000D01*
G75*
G02*
X650000Y1150000I0J225000D01*
G01*
X650000Y1650000D01*
G75*
G02*
X875000Y1875000I225000J0D01*
G01*
X1325000Y1875000D01*
G75*
G02*
X1550000Y1650000I0J-225000D01*
G01*
G37*
G36*
G01*
X3100000Y1650000D02*
X3100000Y1150000D01*
G75*
G02*
X2875000Y925000I-225000J0D01*
G01*
X2425000Y925000D01*
G75*
G02*
X2200000Y1150000I0J225000D01*
G01*
X2200000Y1650000D01*
G75*
G02*
X2425000Y1875000I225000J0D01*
G01*
X2875000Y1875000D01*
G75*
G02*
X3100000Y1650000I0J-225000D01*
G01*
G37*
%TD*%
%TO.C,C19*%
G36*
G01*
X840000Y-310000D02*
X1180000Y-310000D01*
G75*
G02*
X1320000Y-450000I0J-140000D01*
G01*
X1320000Y-730000D01*
G75*
G02*
X1180000Y-870000I-140000J0D01*
G01*
X840000Y-870000D01*
G75*
G02*
X700000Y-730000I0J140000D01*
G01*
X700000Y-450000D01*
G75*
G02*
X840000Y-310000I140000J0D01*
G01*
G37*
G36*
G01*
X840000Y650000D02*
X1180000Y650000D01*
G75*
G02*
X1320000Y510000I0J-140000D01*
G01*
X1320000Y230000D01*
G75*
G02*
X1180000Y90000I-140000J0D01*
G01*
X840000Y90000D01*
G75*
G02*
X700000Y230000I0J140000D01*
G01*
X700000Y510000D01*
G75*
G02*
X840000Y650000I140000J0D01*
G01*
G37*
%TD*%
%TO.C,C18*%
G36*
G01*
X4845000Y1720000D02*
X4845000Y1380000D01*
G75*
G02*
X4705000Y1240000I-140000J0D01*
G01*
X4425000Y1240000D01*
G75*
G02*
X4285000Y1380000I0J140000D01*
G01*
X4285000Y1720000D01*
G75*
G02*
X4425000Y1860000I140000J0D01*
G01*
X4705000Y1860000D01*
G75*
G02*
X4845000Y1720000I0J-140000D01*
G01*
G37*
G36*
G01*
X5805000Y1720000D02*
X5805000Y1380000D01*
G75*
G02*
X5665000Y1240000I-140000J0D01*
G01*
X5385000Y1240000D01*
G75*
G02*
X5245000Y1380000I0J140000D01*
G01*
X5245000Y1720000D01*
G75*
G02*
X5385000Y1860000I140000J0D01*
G01*
X5665000Y1860000D01*
G75*
G02*
X5805000Y1720000I0J-140000D01*
G01*
G37*
%TD*%
%TO.C,C17*%
G36*
G01*
X4845000Y-1540000D02*
X4845000Y-1880000D01*
G75*
G02*
X4705000Y-2020000I-140000J0D01*
G01*
X4425000Y-2020000D01*
G75*
G02*
X4285000Y-1880000I0J140000D01*
G01*
X4285000Y-1540000D01*
G75*
G02*
X4425000Y-1400000I140000J0D01*
G01*
X4705000Y-1400000D01*
G75*
G02*
X4845000Y-1540000I0J-140000D01*
G01*
G37*
G36*
G01*
X5805000Y-1540000D02*
X5805000Y-1880000D01*
G75*
G02*
X5665000Y-2020000I-140000J0D01*
G01*
X5385000Y-2020000D01*
G75*
G02*
X5245000Y-1880000I0J140000D01*
G01*
X5245000Y-1540000D01*
G75*
G02*
X5385000Y-1400000I140000J0D01*
G01*
X5665000Y-1400000D01*
G75*
G02*
X5805000Y-1540000I0J-140000D01*
G01*
G37*
%TD*%
%TO.C,C15*%
G36*
G01*
X-5680000Y-10805000D02*
X-5680000Y-11145000D01*
G75*
G02*
X-5820000Y-11285000I-140000J0D01*
G01*
X-6100000Y-11285000D01*
G75*
G02*
X-6240000Y-11145000I0J140000D01*
G01*
X-6240000Y-10805000D01*
G75*
G02*
X-6100000Y-10665000I140000J0D01*
G01*
X-5820000Y-10665000D01*
G75*
G02*
X-5680000Y-10805000I0J-140000D01*
G01*
G37*
G36*
G01*
X-4720000Y-10805000D02*
X-4720000Y-11145000D01*
G75*
G02*
X-4860000Y-11285000I-140000J0D01*
G01*
X-5140000Y-11285000D01*
G75*
G02*
X-5280000Y-11145000I0J140000D01*
G01*
X-5280000Y-10805000D01*
G75*
G02*
X-5140000Y-10665000I140000J0D01*
G01*
X-4860000Y-10665000D01*
G75*
G02*
X-4720000Y-10805000I0J-140000D01*
G01*
G37*
%TD*%
%TO.C,C14*%
G36*
G01*
X-4220000Y5970000D02*
X-4220000Y6470000D01*
G75*
G02*
X-3995000Y6695000I225000J0D01*
G01*
X-3545000Y6695000D01*
G75*
G02*
X-3320000Y6470000I0J-225000D01*
G01*
X-3320000Y5970000D01*
G75*
G02*
X-3545000Y5745000I-225000J0D01*
G01*
X-3995000Y5745000D01*
G75*
G02*
X-4220000Y5970000I0J225000D01*
G01*
G37*
G36*
G01*
X-5770000Y5970000D02*
X-5770000Y6470000D01*
G75*
G02*
X-5545000Y6695000I225000J0D01*
G01*
X-5095000Y6695000D01*
G75*
G02*
X-4870000Y6470000I0J-225000D01*
G01*
X-4870000Y5970000D01*
G75*
G02*
X-5095000Y5745000I-225000J0D01*
G01*
X-5545000Y5745000D01*
G75*
G02*
X-5770000Y5970000I0J225000D01*
G01*
G37*
%TD*%
%TO.C,C13*%
G36*
G01*
X-2220000Y150000D02*
X-2220000Y650000D01*
G75*
G02*
X-1995000Y875000I225000J0D01*
G01*
X-1545000Y875000D01*
G75*
G02*
X-1320000Y650000I0J-225000D01*
G01*
X-1320000Y150000D01*
G75*
G02*
X-1545000Y-75000I-225000J0D01*
G01*
X-1995000Y-75000D01*
G75*
G02*
X-2220000Y150000I0J225000D01*
G01*
G37*
G36*
G01*
X-3770000Y150000D02*
X-3770000Y650000D01*
G75*
G02*
X-3545000Y875000I225000J0D01*
G01*
X-3095000Y875000D01*
G75*
G02*
X-2870000Y650000I0J-225000D01*
G01*
X-2870000Y150000D01*
G75*
G02*
X-3095000Y-75000I-225000J0D01*
G01*
X-3545000Y-75000D01*
G75*
G02*
X-3770000Y150000I0J225000D01*
G01*
G37*
%TD*%
%TO.C,C12*%
G36*
G01*
X-470000Y-9600000D02*
X-130000Y-9600000D01*
G75*
G02*
X10000Y-9740000I0J-140000D01*
G01*
X10000Y-10020000D01*
G75*
G02*
X-130000Y-10160000I-140000J0D01*
G01*
X-470000Y-10160000D01*
G75*
G02*
X-610000Y-10020000I0J140000D01*
G01*
X-610000Y-9740000D01*
G75*
G02*
X-470000Y-9600000I140000J0D01*
G01*
G37*
G36*
G01*
X-470000Y-8640000D02*
X-130000Y-8640000D01*
G75*
G02*
X10000Y-8780000I0J-140000D01*
G01*
X10000Y-9060000D01*
G75*
G02*
X-130000Y-9200000I-140000J0D01*
G01*
X-470000Y-9200000D01*
G75*
G02*
X-610000Y-9060000I0J140000D01*
G01*
X-610000Y-8780000D01*
G75*
G02*
X-470000Y-8640000I140000J0D01*
G01*
G37*
%TD*%
%TO.C,C11*%
G36*
G01*
X6170000Y-7950000D02*
X6510000Y-7950000D01*
G75*
G02*
X6650000Y-8090000I0J-140000D01*
G01*
X6650000Y-8370000D01*
G75*
G02*
X6510000Y-8510000I-140000J0D01*
G01*
X6170000Y-8510000D01*
G75*
G02*
X6030000Y-8370000I0J140000D01*
G01*
X6030000Y-8090000D01*
G75*
G02*
X6170000Y-7950000I140000J0D01*
G01*
G37*
G36*
G01*
X6170000Y-8910000D02*
X6510000Y-8910000D01*
G75*
G02*
X6650000Y-9050000I0J-140000D01*
G01*
X6650000Y-9330000D01*
G75*
G02*
X6510000Y-9470000I-140000J0D01*
G01*
X6170000Y-9470000D01*
G75*
G02*
X6030000Y-9330000I0J140000D01*
G01*
X6030000Y-9050000D01*
G75*
G02*
X6170000Y-8910000I140000J0D01*
G01*
G37*
%TD*%
%TO.C,C10*%
G36*
G01*
X3220000Y-1170000D02*
X3220000Y-830000D01*
G75*
G02*
X3360000Y-690000I140000J0D01*
G01*
X3640000Y-690000D01*
G75*
G02*
X3780000Y-830000I0J-140000D01*
G01*
X3780000Y-1170000D01*
G75*
G02*
X3640000Y-1310000I-140000J0D01*
G01*
X3360000Y-1310000D01*
G75*
G02*
X3220000Y-1170000I0J140000D01*
G01*
G37*
G36*
G01*
X2260000Y-1170000D02*
X2260000Y-830000D01*
G75*
G02*
X2400000Y-690000I140000J0D01*
G01*
X2680000Y-690000D01*
G75*
G02*
X2820000Y-830000I0J-140000D01*
G01*
X2820000Y-1170000D01*
G75*
G02*
X2680000Y-1310000I-140000J0D01*
G01*
X2400000Y-1310000D01*
G75*
G02*
X2260000Y-1170000I0J140000D01*
G01*
G37*
%TD*%
%TO.C,C9*%
G36*
G01*
X1050000Y-8850000D02*
X1050000Y-9190000D01*
G75*
G02*
X910000Y-9330000I-140000J0D01*
G01*
X630000Y-9330000D01*
G75*
G02*
X490000Y-9190000I0J140000D01*
G01*
X490000Y-8850000D01*
G75*
G02*
X630000Y-8710000I140000J0D01*
G01*
X910000Y-8710000D01*
G75*
G02*
X1050000Y-8850000I0J-140000D01*
G01*
G37*
G36*
G01*
X2010000Y-8850000D02*
X2010000Y-9190000D01*
G75*
G02*
X1870000Y-9330000I-140000J0D01*
G01*
X1590000Y-9330000D01*
G75*
G02*
X1450000Y-9190000I0J140000D01*
G01*
X1450000Y-8850000D01*
G75*
G02*
X1590000Y-8710000I140000J0D01*
G01*
X1870000Y-8710000D01*
G75*
G02*
X2010000Y-8850000I0J-140000D01*
G01*
G37*
%TD*%
%TO.C,C8*%
G36*
G01*
X-3505000Y-11145000D02*
X-3505000Y-10805000D01*
G75*
G02*
X-3365000Y-10665000I140000J0D01*
G01*
X-3085000Y-10665000D01*
G75*
G02*
X-2945000Y-10805000I0J-140000D01*
G01*
X-2945000Y-11145000D01*
G75*
G02*
X-3085000Y-11285000I-140000J0D01*
G01*
X-3365000Y-11285000D01*
G75*
G02*
X-3505000Y-11145000I0J140000D01*
G01*
G37*
G36*
G01*
X-4465000Y-11145000D02*
X-4465000Y-10805000D01*
G75*
G02*
X-4325000Y-10665000I140000J0D01*
G01*
X-4045000Y-10665000D01*
G75*
G02*
X-3905000Y-10805000I0J-140000D01*
G01*
X-3905000Y-11145000D01*
G75*
G02*
X-4045000Y-11285000I-140000J0D01*
G01*
X-4325000Y-11285000D01*
G75*
G02*
X-4465000Y-11145000I0J140000D01*
G01*
G37*
%TD*%
%TO.C,C7*%
G36*
G01*
X5700000Y-3820000D02*
X5700000Y-3480000D01*
G75*
G02*
X5840000Y-3340000I140000J0D01*
G01*
X6120000Y-3340000D01*
G75*
G02*
X6260000Y-3480000I0J-140000D01*
G01*
X6260000Y-3820000D01*
G75*
G02*
X6120000Y-3960000I-140000J0D01*
G01*
X5840000Y-3960000D01*
G75*
G02*
X5700000Y-3820000I0J140000D01*
G01*
G37*
G36*
G01*
X4740000Y-3820000D02*
X4740000Y-3480000D01*
G75*
G02*
X4880000Y-3340000I140000J0D01*
G01*
X5160000Y-3340000D01*
G75*
G02*
X5300000Y-3480000I0J-140000D01*
G01*
X5300000Y-3820000D01*
G75*
G02*
X5160000Y-3960000I-140000J0D01*
G01*
X4880000Y-3960000D01*
G75*
G02*
X4740000Y-3820000I0J140000D01*
G01*
G37*
%TD*%
%TO.C,C6*%
G36*
G01*
X5300000Y-7030000D02*
X5300000Y-7370000D01*
G75*
G02*
X5160000Y-7510000I-140000J0D01*
G01*
X4880000Y-7510000D01*
G75*
G02*
X4740000Y-7370000I0J140000D01*
G01*
X4740000Y-7030000D01*
G75*
G02*
X4880000Y-6890000I140000J0D01*
G01*
X5160000Y-6890000D01*
G75*
G02*
X5300000Y-7030000I0J-140000D01*
G01*
G37*
G36*
G01*
X6260000Y-7030000D02*
X6260000Y-7370000D01*
G75*
G02*
X6120000Y-7510000I-140000J0D01*
G01*
X5840000Y-7510000D01*
G75*
G02*
X5700000Y-7370000I0J140000D01*
G01*
X5700000Y-7030000D01*
G75*
G02*
X5840000Y-6890000I140000J0D01*
G01*
X6120000Y-6890000D01*
G75*
G02*
X6260000Y-7030000I0J-140000D01*
G01*
G37*
%TD*%
%TO.C,C5*%
G36*
G01*
X4870000Y-11170000D02*
X4870000Y-10830000D01*
G75*
G02*
X5010000Y-10690000I140000J0D01*
G01*
X5290000Y-10690000D01*
G75*
G02*
X5430000Y-10830000I0J-140000D01*
G01*
X5430000Y-11170000D01*
G75*
G02*
X5290000Y-11310000I-140000J0D01*
G01*
X5010000Y-11310000D01*
G75*
G02*
X4870000Y-11170000I0J140000D01*
G01*
G37*
G36*
G01*
X3910000Y-11170000D02*
X3910000Y-10830000D01*
G75*
G02*
X4050000Y-10690000I140000J0D01*
G01*
X4330000Y-10690000D01*
G75*
G02*
X4470000Y-10830000I0J-140000D01*
G01*
X4470000Y-11170000D01*
G75*
G02*
X4330000Y-11310000I-140000J0D01*
G01*
X4050000Y-11310000D01*
G75*
G02*
X3910000Y-11170000I0J140000D01*
G01*
G37*
%TD*%
%TO.C,C4*%
G36*
G01*
X4320000Y-2470000D02*
X4320000Y-2810000D01*
G75*
G02*
X4180000Y-2950000I-140000J0D01*
G01*
X3900000Y-2950000D01*
G75*
G02*
X3760000Y-2810000I0J140000D01*
G01*
X3760000Y-2470000D01*
G75*
G02*
X3900000Y-2330000I140000J0D01*
G01*
X4180000Y-2330000D01*
G75*
G02*
X4320000Y-2470000I0J-140000D01*
G01*
G37*
G36*
G01*
X5280000Y-2470000D02*
X5280000Y-2810000D01*
G75*
G02*
X5140000Y-2950000I-140000J0D01*
G01*
X4860000Y-2950000D01*
G75*
G02*
X4720000Y-2810000I0J140000D01*
G01*
X4720000Y-2470000D01*
G75*
G02*
X4860000Y-2330000I140000J0D01*
G01*
X5140000Y-2330000D01*
G75*
G02*
X5280000Y-2470000I0J-140000D01*
G01*
G37*
%TD*%
%TO.C,C3*%
G36*
G01*
X-4705000Y-8345000D02*
X-4705000Y-8005000D01*
G75*
G02*
X-4565000Y-7865000I140000J0D01*
G01*
X-4285000Y-7865000D01*
G75*
G02*
X-4145000Y-8005000I0J-140000D01*
G01*
X-4145000Y-8345000D01*
G75*
G02*
X-4285000Y-8485000I-140000J0D01*
G01*
X-4565000Y-8485000D01*
G75*
G02*
X-4705000Y-8345000I0J140000D01*
G01*
G37*
G36*
G01*
X-5665000Y-8345000D02*
X-5665000Y-8005000D01*
G75*
G02*
X-5525000Y-7865000I140000J0D01*
G01*
X-5245000Y-7865000D01*
G75*
G02*
X-5105000Y-8005000I0J-140000D01*
G01*
X-5105000Y-8345000D01*
G75*
G02*
X-5245000Y-8485000I-140000J0D01*
G01*
X-5525000Y-8485000D01*
G75*
G02*
X-5665000Y-8345000I0J140000D01*
G01*
G37*
%TD*%
%TO.C,C2*%
G36*
G01*
X-2460000Y-540000D02*
X-2460000Y-880000D01*
G75*
G02*
X-2600000Y-1020000I-140000J0D01*
G01*
X-2880000Y-1020000D01*
G75*
G02*
X-3020000Y-880000I0J140000D01*
G01*
X-3020000Y-540000D01*
G75*
G02*
X-2880000Y-400000I140000J0D01*
G01*
X-2600000Y-400000D01*
G75*
G02*
X-2460000Y-540000I0J-140000D01*
G01*
G37*
G36*
G01*
X-1500000Y-540000D02*
X-1500000Y-880000D01*
G75*
G02*
X-1640000Y-1020000I-140000J0D01*
G01*
X-1920000Y-1020000D01*
G75*
G02*
X-2060000Y-880000I0J140000D01*
G01*
X-2060000Y-540000D01*
G75*
G02*
X-1920000Y-400000I140000J0D01*
G01*
X-1640000Y-400000D01*
G75*
G02*
X-1500000Y-540000I0J-140000D01*
G01*
G37*
%TD*%
%TO.C,C1*%
G36*
G01*
X-1800000Y-10490000D02*
X-1800000Y-10990000D01*
G75*
G02*
X-2025000Y-11215000I-225000J0D01*
G01*
X-2475000Y-11215000D01*
G75*
G02*
X-2700000Y-10990000I0J225000D01*
G01*
X-2700000Y-10490000D01*
G75*
G02*
X-2475000Y-10265000I225000J0D01*
G01*
X-2025000Y-10265000D01*
G75*
G02*
X-1800000Y-10490000I0J-225000D01*
G01*
G37*
G36*
G01*
X-250000Y-10490000D02*
X-250000Y-10990000D01*
G75*
G02*
X-475000Y-11215000I-225000J0D01*
G01*
X-925000Y-11215000D01*
G75*
G02*
X-1150000Y-10990000I0J225000D01*
G01*
X-1150000Y-10490000D01*
G75*
G02*
X-925000Y-10265000I225000J0D01*
G01*
X-475000Y-10265000D01*
G75*
G02*
X-250000Y-10490000I0J-225000D01*
G01*
G37*
%TD*%
M02*
