%TF.GenerationSoftware,KiCad,Pcbnew,(5.1.9)-1*%
%TF.CreationDate,2021-01-04T01:20:58+08:00*%
%TF.ProjectId,akami,616b616d-692e-46b6-9963-61645f706362,rev?*%
%TF.SameCoordinates,Original*%
%TF.FileFunction,Copper,L2,Inr*%
%TF.FilePolarity,Positive*%
%FSLAX46Y46*%
G04 Gerber Fmt 4.6, Leading zero omitted, Abs format (unit mm)*
G04 Created by KiCad (PCBNEW (5.1.9)-1) date 2021-01-04 01:20:58*
%MOMM*%
%LPD*%
G01*
G04 APERTURE LIST*
%TA.AperFunction,ComponentPad*%
%ADD10C,1.524000*%
%TD*%
%TA.AperFunction,WasherPad*%
%ADD11C,2.000000*%
%TD*%
%TA.AperFunction,ComponentPad*%
%ADD12O,1.000000X1.800000*%
%TD*%
%TA.AperFunction,ComponentPad*%
%ADD13O,1.000000X2.200000*%
%TD*%
%TA.AperFunction,ViaPad*%
%ADD14C,0.500000*%
%TD*%
%TA.AperFunction,ViaPad*%
%ADD15C,0.600000*%
%TD*%
%TA.AperFunction,Conductor*%
%ADD16C,0.150000*%
%TD*%
%TA.AperFunction,Conductor*%
%ADD17C,0.100000*%
%TD*%
G04 APERTURE END LIST*
D10*
%TO.N,VBAT*%
%TO.C,J2*%
X7620000Y15230000D03*
%TD*%
%TO.N,GND*%
%TO.C,J3*%
X-7620000Y15230000D03*
%TD*%
D11*
%TO.N,*%
%TO.C,REF\u002A\u002A*%
X13000000Y14500000D03*
%TD*%
%TO.N,*%
%TO.C,REF\u002A\u002A*%
X13000000Y-14500000D03*
%TD*%
%TO.N,*%
%TO.C,REF\u002A\u002A*%
X-13000000Y-14500000D03*
%TD*%
%TO.N,*%
%TO.C,REF\u002A\u002A*%
X-13000000Y14500000D03*
%TD*%
D10*
%TO.N,P0.06*%
%TO.C,U4*%
X-7620000Y12690000D03*
%TO.N,P0.08*%
X-7620000Y10150000D03*
%TO.N,GND*%
X-7620000Y7610000D03*
X-7620000Y5070000D03*
%TO.N,P0.17*%
X-7620000Y2530000D03*
%TO.N,P0.20*%
X-7620000Y-10000D03*
%TO.N,P0.22*%
X-7620000Y-2550000D03*
%TO.N,P0.24*%
X-7620000Y-5090000D03*
%TO.N,P1.00*%
X-7620000Y-7630000D03*
%TO.N,P0.11*%
X-7620000Y-10170000D03*
%TO.N,P1.04*%
X-7620000Y-12710000D03*
%TO.N,P1.06*%
X-7620000Y-15250000D03*
%TO.N,P0.09*%
X7620000Y-15250000D03*
%TO.N,P0.10*%
X7620000Y-12710000D03*
%TO.N,P1.11*%
X7620000Y-10170000D03*
%TO.N,P1.13*%
X7620000Y-7630000D03*
%TO.N,P1.15*%
X7620000Y-5090000D03*
%TO.N,P0.02*%
X7620000Y-2550000D03*
%TO.N,P0.29*%
X7620000Y-10000D03*
%TO.N,P0.31*%
X7620000Y2530000D03*
%TO.N,3V3_OUT*%
X7620000Y5070000D03*
%TO.N,RESET*%
X7620000Y7610000D03*
%TO.N,GND*%
X7620000Y10150000D03*
%TO.N,VBAT*%
X7620000Y12690000D03*
%TD*%
D12*
%TO.N,Net-(J1-PadS1)*%
%TO.C,J1*%
X-5575000Y11473200D03*
X5575600Y11473200D03*
D13*
X5575600Y15373200D03*
X-5575000Y15373200D03*
%TD*%
D14*
%TO.N,VDD_NRF*%
X-3800000Y-5410000D03*
X-1800000Y3230000D03*
X3730000Y-6900000D03*
X-2590000Y-7485000D03*
X3962500Y8262500D03*
X850000Y6550000D03*
X3200000Y-1875000D03*
X-2375000Y-1750000D03*
X-2700000Y-10425000D03*
%TO.N,Net-(C11-Pad1)*%
X2650000Y-7580000D03*
X5550000Y-8200000D03*
%TO.N,VBUS*%
X575000Y7275000D03*
X3250000Y6525000D03*
X0Y3200000D03*
X-2800000Y9750000D03*
X2800000Y9750000D03*
X-875000Y2250000D03*
%TO.N,Net-(C15-Pad2)*%
X2170000Y-8250000D03*
X3275000Y-2600000D03*
X-6075000Y-8050000D03*
%TO.N,BAT_VOLT*%
X2400000Y6500000D03*
X700000Y1925000D03*
%TO.N,Net-(C20-Pad2)*%
X-2440000Y4460000D03*
X-1130000Y4470000D03*
X1675000Y3500000D03*
%TO.N,VBAT*%
X560000Y4360000D03*
X-1540000Y2610000D03*
X5625000Y9775000D03*
X3150000Y4350000D03*
X-4692500Y8967500D03*
X-5375000Y2900000D03*
X-5500000Y1925000D03*
%TO.N,BLUE_LED*%
X-4825000Y-3450000D03*
X-5925000Y4950000D03*
%TO.N,USB_D+*%
X250000Y9450000D03*
X-920000Y9790000D03*
X-4687500Y-1760000D03*
%TO.N,USB_D-*%
X550000Y8075000D03*
X-580000Y8086681D03*
X-4010000Y-1760000D03*
%TO.N,Net-(L3-Pad2)*%
X2290000Y-2690000D03*
X-4475000Y-4450000D03*
%TO.N,3V3_OUT*%
X4675000Y8725000D03*
X4675000Y6450000D03*
%TO.N,POWER_CTRL*%
X3600000Y7175000D03*
X-5500000Y-1600000D03*
X-4150000Y-3525000D03*
%TO.N,Net-(R11-Pad2)*%
X6150000Y8050000D03*
X5850000Y5925000D03*
%TO.N,CHARGE_CTRL*%
X1120000Y-1240000D03*
X3490000Y550000D03*
%TO.N,SWD*%
X-3320000Y-8510000D03*
%TO.N,SWC*%
X-2260000Y-8640000D03*
%TO.N,RESET*%
X-2460000Y-3540000D03*
D15*
%TO.N,GND*%
X-1212500Y-5000000D03*
X1212500Y-5000000D03*
X0Y-5000000D03*
X0Y-6212500D03*
X0Y-3787500D03*
X-1212500Y-3787500D03*
X-1212500Y-6212500D03*
X1212500Y-6212500D03*
X1212500Y-3787500D03*
D14*
X4575000Y10175000D03*
X-4575000Y10175000D03*
X-1750000Y3950000D03*
X3500000Y-10990000D03*
X1650000Y-9800000D03*
X3825000Y-1550000D03*
X3500000Y-10150000D03*
X6970000Y-9060000D03*
X-7600000Y-8900000D03*
X7600000Y-8900000D03*
X2600000Y-11000000D03*
X1675000Y4675000D03*
X2575000Y8950000D03*
X-3150000Y4350000D03*
X-6000000Y9725000D03*
X7175000Y-3800000D03*
X7325000Y-6350000D03*
X5675000Y-2650000D03*
X6725000Y-1300000D03*
X-700000Y-325000D03*
X-1375000Y-75000D03*
X-1800000Y1550000D03*
X1800000Y1550000D03*
X-5275000Y150000D03*
X-3800000Y-10425000D03*
X-300000Y-10700000D03*
X-1950000Y-10425000D03*
X-5825000Y-8700000D03*
X5725000Y3550000D03*
%TO.N,P0.09*%
X60000Y-7790000D03*
%TO.N,P0.10*%
X590000Y-7400000D03*
%TO.N,P1.11*%
X2400000Y-6740000D03*
%TO.N,P1.13*%
X3800000Y-6125000D03*
%TO.N,P1.15*%
X3800000Y-5050000D03*
%TO.N,P0.02*%
X3925000Y-4225000D03*
%TO.N,P0.29*%
X4200000Y-3625000D03*
%TO.N,P0.31*%
X3300000Y-3275000D03*
%TO.N,P1.04*%
X-1475000Y-8700000D03*
%TO.N,P1.06*%
X-950000Y-10600000D03*
%TO.N,P0.11*%
X-1470000Y-2530000D03*
X-5475000Y-3375000D03*
%TO.N,P1.00*%
X-3925000Y-7600000D03*
%TO.N,P0.24*%
X-4160000Y-6950000D03*
%TO.N,P0.22*%
X-3790000Y-6390000D03*
%TO.N,P0.20*%
X-4310000Y-5900000D03*
%TO.N,P0.17*%
X-4470000Y-5150000D03*
%TO.N,P0.06*%
X-3575000Y2100000D03*
X175000Y-1200000D03*
X-6050000Y6225000D03*
%TO.N,P0.08*%
X-6500000Y1650000D03*
X-875000Y-1225000D03*
X-5500000Y-2725000D03*
%TD*%
D16*
%TO.N,GND*%
X-6180731Y16377936D02*
X-6248053Y16251987D01*
X-6289509Y16115324D01*
X-6300000Y16008806D01*
X-6300000Y15488126D01*
X-6324892Y15616356D01*
X-6425151Y15861596D01*
X-6431025Y15872585D01*
X-6650276Y15946580D01*
X-7366856Y15230000D01*
X-6650276Y14513420D01*
X-6431025Y14587415D01*
X-6328509Y14831719D01*
X-6299999Y14971673D01*
X-6299999Y14737593D01*
X-6289508Y14631075D01*
X-6248052Y14494412D01*
X-6180730Y14368463D01*
X-6090131Y14258068D01*
X-5979736Y14167469D01*
X-5853787Y14100147D01*
X-5717124Y14058691D01*
X-5575000Y14044693D01*
X-5432875Y14058691D01*
X-5296212Y14100147D01*
X-5170263Y14167469D01*
X-5059868Y14258068D01*
X-4969269Y14368463D01*
X-4901947Y14494412D01*
X-4860491Y14631075D01*
X-4850000Y14737593D01*
X-4849999Y12062284D01*
X-4850000Y12062274D01*
X-4850000Y11908807D01*
X-4860491Y12015325D01*
X-4901947Y12151988D01*
X-4969269Y12277937D01*
X-5059869Y12388332D01*
X-5170264Y12478931D01*
X-5296213Y12546253D01*
X-5432876Y12587709D01*
X-5575000Y12601707D01*
X-5717125Y12587709D01*
X-5853788Y12546253D01*
X-5979737Y12478931D01*
X-6090132Y12388331D01*
X-6180731Y12277936D01*
X-6248053Y12151987D01*
X-6289509Y12015324D01*
X-6300000Y11908806D01*
X-6300000Y11037593D01*
X-6289509Y10931075D01*
X-6248052Y10794412D01*
X-6180730Y10668463D01*
X-6090131Y10558068D01*
X-5979736Y10467469D01*
X-5853787Y10400147D01*
X-5717124Y10358691D01*
X-5575000Y10344693D01*
X-5432875Y10358691D01*
X-5296212Y10400147D01*
X-5170263Y10467469D01*
X-5059868Y10558068D01*
X-4969269Y10668463D01*
X-4901947Y10794412D01*
X-4860491Y10931075D01*
X-4850000Y11037593D01*
X-4850000Y11137726D01*
X-4846382Y11100992D01*
X-4832087Y11053866D01*
X-4808873Y11010436D01*
X-4777632Y10972368D01*
X-4739564Y10941127D01*
X-4696134Y10917913D01*
X-4649008Y10903618D01*
X-4612275Y10900000D01*
X-4600000Y10898791D01*
X-4587725Y10900000D01*
X4587725Y10900000D01*
X4600000Y10898791D01*
X4612275Y10900000D01*
X4649008Y10903618D01*
X4696134Y10917913D01*
X4739564Y10941127D01*
X4777632Y10972368D01*
X4808873Y11010436D01*
X4832087Y11053866D01*
X4846382Y11100992D01*
X4850600Y11143817D01*
X4850600Y11037593D01*
X4861091Y10931075D01*
X4902548Y10794412D01*
X4969870Y10668463D01*
X5060469Y10558068D01*
X5170864Y10467469D01*
X5296813Y10400147D01*
X5433476Y10358691D01*
X5575600Y10344693D01*
X5717725Y10358691D01*
X5854388Y10400147D01*
X5980337Y10467469D01*
X6090732Y10558068D01*
X6181331Y10668463D01*
X6248653Y10794412D01*
X6290109Y10931075D01*
X6300600Y11037593D01*
X6300600Y11119724D01*
X6903420Y11119724D01*
X7620000Y10403144D01*
X8336580Y11119724D01*
X8262585Y11338975D01*
X8018281Y11441491D01*
X7758670Y11494376D01*
X7493731Y11495597D01*
X7233644Y11445108D01*
X6988404Y11344849D01*
X6977415Y11338975D01*
X6903420Y11119724D01*
X6300600Y11119724D01*
X6300600Y11908807D01*
X6290109Y12015325D01*
X6248653Y12151988D01*
X6181331Y12277937D01*
X6090731Y12388332D01*
X5980336Y12478931D01*
X5854387Y12546253D01*
X5717724Y12587709D01*
X5575600Y12601707D01*
X5433475Y12587709D01*
X5296812Y12546253D01*
X5170863Y12478931D01*
X5060468Y12388331D01*
X4969869Y12277936D01*
X4902547Y12151987D01*
X4861091Y12015324D01*
X4850600Y11908806D01*
X4850600Y11156183D01*
X4850000Y11162275D01*
X4850000Y12787211D01*
X6633000Y12787211D01*
X6633000Y12592789D01*
X6670930Y12402103D01*
X6745332Y12222480D01*
X6853347Y12060824D01*
X6990824Y11923347D01*
X7152480Y11815332D01*
X7332103Y11740930D01*
X7522789Y11703000D01*
X7717211Y11703000D01*
X7907897Y11740930D01*
X8087520Y11815332D01*
X8249176Y11923347D01*
X8386653Y12060824D01*
X8494668Y12222480D01*
X8569070Y12402103D01*
X8607000Y12592789D01*
X8607000Y12787211D01*
X8569070Y12977897D01*
X8494668Y13157520D01*
X8386653Y13319176D01*
X8249176Y13456653D01*
X8087520Y13564668D01*
X7907897Y13639070D01*
X7717211Y13677000D01*
X7522789Y13677000D01*
X7332103Y13639070D01*
X7152480Y13564668D01*
X6990824Y13456653D01*
X6853347Y13319176D01*
X6745332Y13157520D01*
X6670930Y12977897D01*
X6633000Y12787211D01*
X4850000Y12787211D01*
X4850000Y16400000D01*
X4987976Y16400000D01*
X4969869Y16377936D01*
X4902547Y16251987D01*
X4861091Y16115324D01*
X4850600Y16008806D01*
X4850601Y14737593D01*
X4861092Y14631075D01*
X4902548Y14494412D01*
X4969870Y14368463D01*
X5060469Y14258068D01*
X5170864Y14167469D01*
X5296813Y14100147D01*
X5433476Y14058691D01*
X5575600Y14044693D01*
X5717725Y14058691D01*
X5854388Y14100147D01*
X5980337Y14167469D01*
X6090732Y14258068D01*
X6181331Y14368463D01*
X6248653Y14494412D01*
X6290109Y14631075D01*
X6300600Y14737593D01*
X6300600Y15327211D01*
X6633000Y15327211D01*
X6633000Y15132789D01*
X6670930Y14942103D01*
X6745332Y14762480D01*
X6853347Y14600824D01*
X6990824Y14463347D01*
X7152480Y14355332D01*
X7332103Y14280930D01*
X7522789Y14243000D01*
X7717211Y14243000D01*
X7907897Y14280930D01*
X8087520Y14355332D01*
X8249176Y14463347D01*
X8386653Y14600824D01*
X8494668Y14762480D01*
X8569070Y14942103D01*
X8607000Y15132789D01*
X8607000Y15327211D01*
X8569070Y15517897D01*
X8494668Y15697520D01*
X8386653Y15859176D01*
X8249176Y15996653D01*
X8087520Y16104668D01*
X7907897Y16179070D01*
X7717211Y16217000D01*
X7522789Y16217000D01*
X7332103Y16179070D01*
X7152480Y16104668D01*
X6990824Y15996653D01*
X6853347Y15859176D01*
X6745332Y15697520D01*
X6670930Y15517897D01*
X6633000Y15327211D01*
X6300600Y15327211D01*
X6300600Y16008807D01*
X6290109Y16115325D01*
X6248653Y16251988D01*
X6181331Y16377937D01*
X6163224Y16400000D01*
X7607771Y16400000D01*
X7843137Y16376922D01*
X8057775Y16312119D01*
X8255739Y16206860D01*
X8429485Y16065156D01*
X8572399Y15892402D01*
X8679036Y15695181D01*
X8745338Y15480994D01*
X8770000Y15246352D01*
X8770000Y10805739D01*
X8589724Y10866580D01*
X7873144Y10150000D01*
X8589724Y9433420D01*
X8770000Y9494261D01*
X8770001Y1987725D01*
X8770086Y1986863D01*
X8770102Y1984563D01*
X8771289Y1973274D01*
X8771289Y1961923D01*
X8771654Y1958451D01*
X8775000Y1928620D01*
X8775000Y-1936777D01*
X8771193Y-1975604D01*
X8771193Y-1975614D01*
X8770000Y-1987726D01*
X8770001Y-11325000D01*
X-8770000Y-11325000D01*
X-8770000Y-10072789D01*
X-8607000Y-10072789D01*
X-8607000Y-10267211D01*
X-8569070Y-10457897D01*
X-8494668Y-10637520D01*
X-8386653Y-10799176D01*
X-8249176Y-10936653D01*
X-8087520Y-11044668D01*
X-7907897Y-11119070D01*
X-7717211Y-11157000D01*
X-7522789Y-11157000D01*
X-7332103Y-11119070D01*
X-7152480Y-11044668D01*
X-6990824Y-10936653D01*
X-6853347Y-10799176D01*
X-6745332Y-10637520D01*
X-6670930Y-10457897D01*
X-6655081Y-10378217D01*
X-3175000Y-10378217D01*
X-3175000Y-10471783D01*
X-3156746Y-10563552D01*
X-3120939Y-10649997D01*
X-3068956Y-10727795D01*
X-3002795Y-10793956D01*
X-2924997Y-10845939D01*
X-2838552Y-10881746D01*
X-2746783Y-10900000D01*
X-2653217Y-10900000D01*
X-2561448Y-10881746D01*
X-2475003Y-10845939D01*
X-2397205Y-10793956D01*
X-2331044Y-10727795D01*
X-2279061Y-10649997D01*
X-2243254Y-10563552D01*
X-2241199Y-10553217D01*
X-1425000Y-10553217D01*
X-1425000Y-10646783D01*
X-1406746Y-10738552D01*
X-1370939Y-10824997D01*
X-1318956Y-10902795D01*
X-1252795Y-10968956D01*
X-1174997Y-11020939D01*
X-1088552Y-11056746D01*
X-996783Y-11075000D01*
X-903217Y-11075000D01*
X-811448Y-11056746D01*
X-725003Y-11020939D01*
X-647205Y-10968956D01*
X-581044Y-10902795D01*
X-529061Y-10824997D01*
X-493254Y-10738552D01*
X-475000Y-10646783D01*
X-475000Y-10553217D01*
X-493254Y-10461448D01*
X-529061Y-10375003D01*
X-581044Y-10297205D01*
X-647205Y-10231044D01*
X-725003Y-10179061D01*
X-811448Y-10143254D01*
X-903217Y-10125000D01*
X-996783Y-10125000D01*
X-1088552Y-10143254D01*
X-1174997Y-10179061D01*
X-1252795Y-10231044D01*
X-1318956Y-10297205D01*
X-1370939Y-10375003D01*
X-1406746Y-10461448D01*
X-1425000Y-10553217D01*
X-2241199Y-10553217D01*
X-2225000Y-10471783D01*
X-2225000Y-10378217D01*
X-2243254Y-10286448D01*
X-2279061Y-10200003D01*
X-2331044Y-10122205D01*
X-2380460Y-10072789D01*
X6633000Y-10072789D01*
X6633000Y-10267211D01*
X6670930Y-10457897D01*
X6745332Y-10637520D01*
X6853347Y-10799176D01*
X6990824Y-10936653D01*
X7152480Y-11044668D01*
X7332103Y-11119070D01*
X7522789Y-11157000D01*
X7717211Y-11157000D01*
X7907897Y-11119070D01*
X8087520Y-11044668D01*
X8249176Y-10936653D01*
X8386653Y-10799176D01*
X8494668Y-10637520D01*
X8569070Y-10457897D01*
X8607000Y-10267211D01*
X8607000Y-10072789D01*
X8569070Y-9882103D01*
X8494668Y-9702480D01*
X8386653Y-9540824D01*
X8249176Y-9403347D01*
X8087520Y-9295332D01*
X7907897Y-9220930D01*
X7717211Y-9183000D01*
X7522789Y-9183000D01*
X7332103Y-9220930D01*
X7152480Y-9295332D01*
X6990824Y-9403347D01*
X6853347Y-9540824D01*
X6745332Y-9702480D01*
X6670930Y-9882103D01*
X6633000Y-10072789D01*
X-2380460Y-10072789D01*
X-2397205Y-10056044D01*
X-2475003Y-10004061D01*
X-2561448Y-9968254D01*
X-2653217Y-9950000D01*
X-2746783Y-9950000D01*
X-2838552Y-9968254D01*
X-2924997Y-10004061D01*
X-3002795Y-10056044D01*
X-3068956Y-10122205D01*
X-3120939Y-10200003D01*
X-3156746Y-10286448D01*
X-3175000Y-10378217D01*
X-6655081Y-10378217D01*
X-6633000Y-10267211D01*
X-6633000Y-10072789D01*
X-6670930Y-9882103D01*
X-6745332Y-9702480D01*
X-6853347Y-9540824D01*
X-6990824Y-9403347D01*
X-7152480Y-9295332D01*
X-7332103Y-9220930D01*
X-7522789Y-9183000D01*
X-7717211Y-9183000D01*
X-7907897Y-9220930D01*
X-8087520Y-9295332D01*
X-8249176Y-9403347D01*
X-8386653Y-9540824D01*
X-8494668Y-9702480D01*
X-8569070Y-9882103D01*
X-8607000Y-10072789D01*
X-8770000Y-10072789D01*
X-8770000Y-7532789D01*
X-8607000Y-7532789D01*
X-8607000Y-7727211D01*
X-8569070Y-7917897D01*
X-8494668Y-8097520D01*
X-8386653Y-8259176D01*
X-8249176Y-8396653D01*
X-8087520Y-8504668D01*
X-7907897Y-8579070D01*
X-7717211Y-8617000D01*
X-7522789Y-8617000D01*
X-7332103Y-8579070D01*
X-7152480Y-8504668D01*
X-6990824Y-8396653D01*
X-6853347Y-8259176D01*
X-6745332Y-8097520D01*
X-6706271Y-8003217D01*
X-6550000Y-8003217D01*
X-6550000Y-8096783D01*
X-6531746Y-8188552D01*
X-6495939Y-8274997D01*
X-6443956Y-8352795D01*
X-6377795Y-8418956D01*
X-6299997Y-8470939D01*
X-6213552Y-8506746D01*
X-6121783Y-8525000D01*
X-6028217Y-8525000D01*
X-5936448Y-8506746D01*
X-5850003Y-8470939D01*
X-5838447Y-8463217D01*
X-3795000Y-8463217D01*
X-3795000Y-8556783D01*
X-3776746Y-8648552D01*
X-3740939Y-8734997D01*
X-3688956Y-8812795D01*
X-3622795Y-8878956D01*
X-3544997Y-8930939D01*
X-3458552Y-8966746D01*
X-3366783Y-8985000D01*
X-3273217Y-8985000D01*
X-3181448Y-8966746D01*
X-3095003Y-8930939D01*
X-3017205Y-8878956D01*
X-2951044Y-8812795D01*
X-2899061Y-8734997D01*
X-2863254Y-8648552D01*
X-2852248Y-8593217D01*
X-2735000Y-8593217D01*
X-2735000Y-8686783D01*
X-2716746Y-8778552D01*
X-2680939Y-8864997D01*
X-2628956Y-8942795D01*
X-2562795Y-9008956D01*
X-2484997Y-9060939D01*
X-2398552Y-9096746D01*
X-2306783Y-9115000D01*
X-2213217Y-9115000D01*
X-2121448Y-9096746D01*
X-2035003Y-9060939D01*
X-1957205Y-9008956D01*
X-1891044Y-8942795D01*
X-1887545Y-8937559D01*
X-1843956Y-9002795D01*
X-1777795Y-9068956D01*
X-1699997Y-9120939D01*
X-1613552Y-9156746D01*
X-1521783Y-9175000D01*
X-1428217Y-9175000D01*
X-1336448Y-9156746D01*
X-1250003Y-9120939D01*
X-1172205Y-9068956D01*
X-1106044Y-9002795D01*
X-1054061Y-8924997D01*
X-1018254Y-8838552D01*
X-1000000Y-8746783D01*
X-1000000Y-8653217D01*
X-1018254Y-8561448D01*
X-1054061Y-8475003D01*
X-1106044Y-8397205D01*
X-1172205Y-8331044D01*
X-1250003Y-8279061D01*
X-1336448Y-8243254D01*
X-1428217Y-8225000D01*
X-1521783Y-8225000D01*
X-1613552Y-8243254D01*
X-1699997Y-8279061D01*
X-1777795Y-8331044D01*
X-1843956Y-8397205D01*
X-1847455Y-8402441D01*
X-1891044Y-8337205D01*
X-1957205Y-8271044D01*
X-2035003Y-8219061D01*
X-2121448Y-8183254D01*
X-2213217Y-8165000D01*
X-2306783Y-8165000D01*
X-2398552Y-8183254D01*
X-2484997Y-8219061D01*
X-2562795Y-8271044D01*
X-2628956Y-8337205D01*
X-2680939Y-8415003D01*
X-2716746Y-8501448D01*
X-2735000Y-8593217D01*
X-2852248Y-8593217D01*
X-2845000Y-8556783D01*
X-2845000Y-8463217D01*
X-2863254Y-8371448D01*
X-2899061Y-8285003D01*
X-2951044Y-8207205D01*
X-3017205Y-8141044D01*
X-3095003Y-8089061D01*
X-3181448Y-8053254D01*
X-3273217Y-8035000D01*
X-3366783Y-8035000D01*
X-3458552Y-8053254D01*
X-3544997Y-8089061D01*
X-3622795Y-8141044D01*
X-3688956Y-8207205D01*
X-3740939Y-8285003D01*
X-3776746Y-8371448D01*
X-3795000Y-8463217D01*
X-5838447Y-8463217D01*
X-5772205Y-8418956D01*
X-5706044Y-8352795D01*
X-5654061Y-8274997D01*
X-5618254Y-8188552D01*
X-5600000Y-8096783D01*
X-5600000Y-8003217D01*
X-5618254Y-7911448D01*
X-5654061Y-7825003D01*
X-5706044Y-7747205D01*
X-5772205Y-7681044D01*
X-5850003Y-7629061D01*
X-5936448Y-7593254D01*
X-6028217Y-7575000D01*
X-6121783Y-7575000D01*
X-6213552Y-7593254D01*
X-6299997Y-7629061D01*
X-6377795Y-7681044D01*
X-6443956Y-7747205D01*
X-6495939Y-7825003D01*
X-6531746Y-7911448D01*
X-6550000Y-8003217D01*
X-6706271Y-8003217D01*
X-6670930Y-7917897D01*
X-6633000Y-7727211D01*
X-6633000Y-7532789D01*
X-6670930Y-7342103D01*
X-6745332Y-7162480D01*
X-6853347Y-7000824D01*
X-6990824Y-6863347D01*
X-7152480Y-6755332D01*
X-7332103Y-6680930D01*
X-7522789Y-6643000D01*
X-7717211Y-6643000D01*
X-7907897Y-6680930D01*
X-8087520Y-6755332D01*
X-8249176Y-6863347D01*
X-8386653Y-7000824D01*
X-8494668Y-7162480D01*
X-8569070Y-7342103D01*
X-8607000Y-7532789D01*
X-8770000Y-7532789D01*
X-8770000Y-4992789D01*
X-8607000Y-4992789D01*
X-8607000Y-5187211D01*
X-8569070Y-5377897D01*
X-8494668Y-5557520D01*
X-8386653Y-5719176D01*
X-8249176Y-5856653D01*
X-8087520Y-5964668D01*
X-7907897Y-6039070D01*
X-7717211Y-6077000D01*
X-7522789Y-6077000D01*
X-7332103Y-6039070D01*
X-7152480Y-5964668D01*
X-6990824Y-5856653D01*
X-6853347Y-5719176D01*
X-6745332Y-5557520D01*
X-6670930Y-5377897D01*
X-6633000Y-5187211D01*
X-6633000Y-4992789D01*
X-6670930Y-4802103D01*
X-6745332Y-4622480D01*
X-6853347Y-4460824D01*
X-6910954Y-4403217D01*
X-4950000Y-4403217D01*
X-4950000Y-4496783D01*
X-4931746Y-4588552D01*
X-4895939Y-4674997D01*
X-4843956Y-4752795D01*
X-4794251Y-4802500D01*
X-4838956Y-4847205D01*
X-4890939Y-4925003D01*
X-4926746Y-5011448D01*
X-4945000Y-5103217D01*
X-4945000Y-5196783D01*
X-4926746Y-5288552D01*
X-4890939Y-5374997D01*
X-4838956Y-5452795D01*
X-4772795Y-5518956D01*
X-4694997Y-5570939D01*
X-4665082Y-5583331D01*
X-4678956Y-5597205D01*
X-4730939Y-5675003D01*
X-4766746Y-5761448D01*
X-4785000Y-5853217D01*
X-4785000Y-5946783D01*
X-4766746Y-6038552D01*
X-4730939Y-6124997D01*
X-4678956Y-6202795D01*
X-4612795Y-6268956D01*
X-4534997Y-6320939D01*
X-4448552Y-6356746D01*
X-4356783Y-6375000D01*
X-4265000Y-6375000D01*
X-4265000Y-6436783D01*
X-4255472Y-6484685D01*
X-4298552Y-6493254D01*
X-4384997Y-6529061D01*
X-4462795Y-6581044D01*
X-4528956Y-6647205D01*
X-4580939Y-6725003D01*
X-4616746Y-6811448D01*
X-4635000Y-6903217D01*
X-4635000Y-6996783D01*
X-4616746Y-7088552D01*
X-4580939Y-7174997D01*
X-4528956Y-7252795D01*
X-4462795Y-7318956D01*
X-4384997Y-7370939D01*
X-4350222Y-7385343D01*
X-4381746Y-7461448D01*
X-4400000Y-7553217D01*
X-4400000Y-7646783D01*
X-4381746Y-7738552D01*
X-4345939Y-7824997D01*
X-4293956Y-7902795D01*
X-4227795Y-7968956D01*
X-4149997Y-8020939D01*
X-4063552Y-8056746D01*
X-3971783Y-8075000D01*
X-3878217Y-8075000D01*
X-3786448Y-8056746D01*
X-3700003Y-8020939D01*
X-3622205Y-7968956D01*
X-3556044Y-7902795D01*
X-3504061Y-7824997D01*
X-3468254Y-7738552D01*
X-3450000Y-7646783D01*
X-3450000Y-7553217D01*
X-3468254Y-7461448D01*
X-3477876Y-7438217D01*
X-3065000Y-7438217D01*
X-3065000Y-7531783D01*
X-3046746Y-7623552D01*
X-3010939Y-7709997D01*
X-2958956Y-7787795D01*
X-2892795Y-7853956D01*
X-2814997Y-7905939D01*
X-2728552Y-7941746D01*
X-2636783Y-7960000D01*
X-2543217Y-7960000D01*
X-2451448Y-7941746D01*
X-2365003Y-7905939D01*
X-2287205Y-7853956D01*
X-2221044Y-7787795D01*
X-2191258Y-7743217D01*
X-415000Y-7743217D01*
X-415000Y-7836783D01*
X-396746Y-7928552D01*
X-360939Y-8014997D01*
X-308956Y-8092795D01*
X-242795Y-8158956D01*
X-164997Y-8210939D01*
X-78552Y-8246746D01*
X13217Y-8265000D01*
X106783Y-8265000D01*
X198552Y-8246746D01*
X284997Y-8210939D01*
X296553Y-8203217D01*
X1695000Y-8203217D01*
X1695000Y-8296783D01*
X1713254Y-8388552D01*
X1749061Y-8474997D01*
X1801044Y-8552795D01*
X1867205Y-8618956D01*
X1945003Y-8670939D01*
X2031448Y-8706746D01*
X2123217Y-8725000D01*
X2216783Y-8725000D01*
X2308552Y-8706746D01*
X2394997Y-8670939D01*
X2472795Y-8618956D01*
X2538956Y-8552795D01*
X2590939Y-8474997D01*
X2626746Y-8388552D01*
X2645000Y-8296783D01*
X2645000Y-8203217D01*
X2635055Y-8153217D01*
X5075000Y-8153217D01*
X5075000Y-8246783D01*
X5093254Y-8338552D01*
X5129061Y-8424997D01*
X5181044Y-8502795D01*
X5247205Y-8568956D01*
X5325003Y-8620939D01*
X5411448Y-8656746D01*
X5503217Y-8675000D01*
X5596783Y-8675000D01*
X5688552Y-8656746D01*
X5774997Y-8620939D01*
X5852795Y-8568956D01*
X5918956Y-8502795D01*
X5970939Y-8424997D01*
X6006746Y-8338552D01*
X6025000Y-8246783D01*
X6025000Y-8153217D01*
X6006746Y-8061448D01*
X5970939Y-7975003D01*
X5918956Y-7897205D01*
X5852795Y-7831044D01*
X5774997Y-7779061D01*
X5688552Y-7743254D01*
X5596783Y-7725000D01*
X5503217Y-7725000D01*
X5411448Y-7743254D01*
X5325003Y-7779061D01*
X5247205Y-7831044D01*
X5181044Y-7897205D01*
X5129061Y-7975003D01*
X5093254Y-8061448D01*
X5075000Y-8153217D01*
X2635055Y-8153217D01*
X2626746Y-8111448D01*
X2603364Y-8055000D01*
X2696783Y-8055000D01*
X2788552Y-8036746D01*
X2874997Y-8000939D01*
X2952795Y-7948956D01*
X3018956Y-7882795D01*
X3070939Y-7804997D01*
X3106746Y-7718552D01*
X3125000Y-7626783D01*
X3125000Y-7533217D01*
X3106746Y-7441448D01*
X3070939Y-7355003D01*
X3018956Y-7277205D01*
X2952795Y-7211044D01*
X2874997Y-7159061D01*
X2788552Y-7123254D01*
X2705097Y-7106654D01*
X2768956Y-7042795D01*
X2820939Y-6964997D01*
X2856746Y-6878552D01*
X2861785Y-6853217D01*
X3255000Y-6853217D01*
X3255000Y-6946783D01*
X3273254Y-7038552D01*
X3309061Y-7124997D01*
X3361044Y-7202795D01*
X3427205Y-7268956D01*
X3505003Y-7320939D01*
X3591448Y-7356746D01*
X3683217Y-7375000D01*
X3776783Y-7375000D01*
X3868552Y-7356746D01*
X3954997Y-7320939D01*
X4032795Y-7268956D01*
X4098956Y-7202795D01*
X4150939Y-7124997D01*
X4186746Y-7038552D01*
X4195000Y-6997056D01*
X4195000Y-7630000D01*
X4196441Y-7644632D01*
X4200709Y-7658701D01*
X4207640Y-7671668D01*
X4216967Y-7683033D01*
X4228332Y-7692360D01*
X4241299Y-7699291D01*
X4255368Y-7703559D01*
X4270000Y-7705000D01*
X6630000Y-7705000D01*
X6633000Y-7704705D01*
X6633000Y-7727211D01*
X6670930Y-7917897D01*
X6745332Y-8097520D01*
X6853347Y-8259176D01*
X6990824Y-8396653D01*
X7152480Y-8504668D01*
X7332103Y-8579070D01*
X7522789Y-8617000D01*
X7717211Y-8617000D01*
X7907897Y-8579070D01*
X8087520Y-8504668D01*
X8249176Y-8396653D01*
X8386653Y-8259176D01*
X8494668Y-8097520D01*
X8569070Y-7917897D01*
X8607000Y-7727211D01*
X8607000Y-7532789D01*
X8569070Y-7342103D01*
X8494668Y-7162480D01*
X8386653Y-7000824D01*
X8249176Y-6863347D01*
X8087520Y-6755332D01*
X7907897Y-6680930D01*
X7717211Y-6643000D01*
X7522789Y-6643000D01*
X7332103Y-6680930D01*
X7152480Y-6755332D01*
X6990824Y-6863347D01*
X6853347Y-7000824D01*
X6745332Y-7162480D01*
X6704167Y-7261860D01*
X6700064Y-5448234D01*
X6745332Y-5557520D01*
X6853347Y-5719176D01*
X6990824Y-5856653D01*
X7152480Y-5964668D01*
X7332103Y-6039070D01*
X7522789Y-6077000D01*
X7717211Y-6077000D01*
X7907897Y-6039070D01*
X8087520Y-5964668D01*
X8249176Y-5856653D01*
X8386653Y-5719176D01*
X8494668Y-5557520D01*
X8569070Y-5377897D01*
X8607000Y-5187211D01*
X8607000Y-4992789D01*
X8569070Y-4802103D01*
X8494668Y-4622480D01*
X8386653Y-4460824D01*
X8249176Y-4323347D01*
X8087520Y-4215332D01*
X7907897Y-4140930D01*
X7717211Y-4103000D01*
X7522789Y-4103000D01*
X7332103Y-4140930D01*
X7152480Y-4215332D01*
X6990824Y-4323347D01*
X6853347Y-4460824D01*
X6745332Y-4622480D01*
X6698452Y-4735659D01*
X6695000Y-3209830D01*
X6693526Y-3195202D01*
X6689226Y-3181142D01*
X6682266Y-3168191D01*
X6672913Y-3156847D01*
X6661527Y-3147546D01*
X6648544Y-3140644D01*
X6634465Y-3136408D01*
X6620000Y-3135000D01*
X4270000Y-3135000D01*
X4255368Y-3136441D01*
X4241299Y-3140709D01*
X4228332Y-3147640D01*
X4225456Y-3150000D01*
X4153217Y-3150000D01*
X4061448Y-3168254D01*
X3975003Y-3204061D01*
X3897205Y-3256044D01*
X3831044Y-3322205D01*
X3779061Y-3400003D01*
X3743254Y-3486448D01*
X3725000Y-3578217D01*
X3725000Y-3671783D01*
X3743254Y-3763552D01*
X3751242Y-3782837D01*
X3700003Y-3804061D01*
X3622205Y-3856044D01*
X3556044Y-3922205D01*
X3504061Y-4000003D01*
X3468254Y-4086448D01*
X3450000Y-4178217D01*
X3450000Y-4271783D01*
X3468254Y-4363552D01*
X3504061Y-4449997D01*
X3556044Y-4527795D01*
X3622205Y-4593956D01*
X3636574Y-4603557D01*
X3575003Y-4629061D01*
X3497205Y-4681044D01*
X3431044Y-4747205D01*
X3379061Y-4825003D01*
X3343254Y-4911448D01*
X3325000Y-5003217D01*
X3325000Y-5096783D01*
X3343254Y-5188552D01*
X3379061Y-5274997D01*
X3431044Y-5352795D01*
X3497205Y-5418956D01*
X3575003Y-5470939D01*
X3661448Y-5506746D01*
X3753217Y-5525000D01*
X3846783Y-5525000D01*
X3938552Y-5506746D01*
X4024997Y-5470939D01*
X4102795Y-5418956D01*
X4168956Y-5352795D01*
X4195000Y-5313817D01*
X4195000Y-5861183D01*
X4168956Y-5822205D01*
X4102795Y-5756044D01*
X4024997Y-5704061D01*
X3938552Y-5668254D01*
X3846783Y-5650000D01*
X3753217Y-5650000D01*
X3661448Y-5668254D01*
X3575003Y-5704061D01*
X3497205Y-5756044D01*
X3431044Y-5822205D01*
X3379061Y-5900003D01*
X3343254Y-5986448D01*
X3325000Y-6078217D01*
X3325000Y-6171783D01*
X3343254Y-6263552D01*
X3379061Y-6349997D01*
X3431044Y-6427795D01*
X3491400Y-6488151D01*
X3427205Y-6531044D01*
X3361044Y-6597205D01*
X3309061Y-6675003D01*
X3273254Y-6761448D01*
X3255000Y-6853217D01*
X2861785Y-6853217D01*
X2875000Y-6786783D01*
X2875000Y-6693217D01*
X2856746Y-6601448D01*
X2820939Y-6515003D01*
X2768956Y-6437205D01*
X2702795Y-6371044D01*
X2624997Y-6319061D01*
X2538552Y-6283254D01*
X2446783Y-6265000D01*
X2353217Y-6265000D01*
X2261448Y-6283254D01*
X2175003Y-6319061D01*
X2097205Y-6371044D01*
X2031044Y-6437205D01*
X1979061Y-6515003D01*
X1943254Y-6601448D01*
X1925000Y-6693217D01*
X1925000Y-6786783D01*
X1943254Y-6878552D01*
X1979061Y-6964997D01*
X2031044Y-7042795D01*
X2097205Y-7108956D01*
X2175003Y-7160939D01*
X2261448Y-7196746D01*
X2344903Y-7213346D01*
X2281044Y-7277205D01*
X2229061Y-7355003D01*
X2193254Y-7441448D01*
X2175000Y-7533217D01*
X2175000Y-7626783D01*
X2193254Y-7718552D01*
X2216636Y-7775000D01*
X2123217Y-7775000D01*
X2031448Y-7793254D01*
X1945003Y-7829061D01*
X1867205Y-7881044D01*
X1801044Y-7947205D01*
X1749061Y-8025003D01*
X1713254Y-8111448D01*
X1695000Y-8203217D01*
X296553Y-8203217D01*
X362795Y-8158956D01*
X428956Y-8092795D01*
X480939Y-8014997D01*
X516746Y-7928552D01*
X528000Y-7871973D01*
X543217Y-7875000D01*
X636783Y-7875000D01*
X728552Y-7856746D01*
X814997Y-7820939D01*
X892795Y-7768956D01*
X958956Y-7702795D01*
X1010939Y-7624997D01*
X1046746Y-7538552D01*
X1065000Y-7446783D01*
X1065000Y-7353217D01*
X1046746Y-7261448D01*
X1010939Y-7175003D01*
X958956Y-7097205D01*
X892795Y-7031044D01*
X814997Y-6979061D01*
X728552Y-6943254D01*
X636783Y-6925000D01*
X543217Y-6925000D01*
X451448Y-6943254D01*
X365003Y-6979061D01*
X287205Y-7031044D01*
X221044Y-7097205D01*
X169061Y-7175003D01*
X133254Y-7261448D01*
X122000Y-7318027D01*
X106783Y-7315000D01*
X13217Y-7315000D01*
X-78552Y-7333254D01*
X-164997Y-7369061D01*
X-242795Y-7421044D01*
X-308956Y-7487205D01*
X-360939Y-7565003D01*
X-396746Y-7651448D01*
X-415000Y-7743217D01*
X-2191258Y-7743217D01*
X-2169061Y-7709997D01*
X-2133254Y-7623552D01*
X-2115000Y-7531783D01*
X-2115000Y-7438217D01*
X-2133254Y-7346448D01*
X-2169061Y-7260003D01*
X-2221044Y-7182205D01*
X-2287205Y-7116044D01*
X-2365003Y-7064061D01*
X-2451448Y-7028254D01*
X-2543217Y-7010000D01*
X-2636783Y-7010000D01*
X-2728552Y-7028254D01*
X-2814997Y-7064061D01*
X-2892795Y-7116044D01*
X-2958956Y-7182205D01*
X-3010939Y-7260003D01*
X-3046746Y-7346448D01*
X-3065000Y-7438217D01*
X-3477876Y-7438217D01*
X-3504061Y-7375003D01*
X-3556044Y-7297205D01*
X-3622205Y-7231044D01*
X-3700003Y-7179061D01*
X-3734778Y-7164657D01*
X-3703254Y-7088552D01*
X-3685000Y-6996783D01*
X-3685000Y-6903217D01*
X-3694528Y-6855315D01*
X-3651448Y-6846746D01*
X-3565003Y-6810939D01*
X-3487205Y-6758956D01*
X-3421044Y-6692795D01*
X-3369061Y-6614997D01*
X-3333254Y-6528552D01*
X-3315000Y-6436783D01*
X-3315000Y-6343217D01*
X-3333254Y-6251448D01*
X-3369061Y-6165003D01*
X-3421044Y-6087205D01*
X-3487205Y-6021044D01*
X-3565003Y-5969061D01*
X-3651448Y-5933254D01*
X-3743217Y-5915000D01*
X-3835000Y-5915000D01*
X-3835000Y-5885000D01*
X-3753217Y-5885000D01*
X-3661448Y-5866746D01*
X-3575003Y-5830939D01*
X-3497205Y-5778956D01*
X-3431044Y-5712795D01*
X-3379061Y-5634997D01*
X-3343254Y-5548552D01*
X-3325000Y-5456783D01*
X-3325000Y-5363217D01*
X-3343254Y-5271448D01*
X-3379061Y-5185003D01*
X-3431044Y-5107205D01*
X-3497205Y-5041044D01*
X-3575003Y-4989061D01*
X-3661448Y-4953254D01*
X-3753217Y-4935000D01*
X-3846783Y-4935000D01*
X-3938552Y-4953254D01*
X-4022889Y-4988188D01*
X-4049061Y-4925003D01*
X-4101044Y-4847205D01*
X-4150749Y-4797500D01*
X-4106044Y-4752795D01*
X-4054061Y-4674997D01*
X-4018254Y-4588552D01*
X-4000000Y-4496783D01*
X-4000000Y-4403217D01*
X-4018254Y-4311448D01*
X-4054061Y-4225003D01*
X-4106044Y-4147205D01*
X-4172205Y-4081044D01*
X-4250003Y-4029061D01*
X-4336448Y-3993254D01*
X-4428217Y-3975000D01*
X-4521783Y-3975000D01*
X-4613552Y-3993254D01*
X-4699997Y-4029061D01*
X-4777795Y-4081044D01*
X-4843956Y-4147205D01*
X-4895939Y-4225003D01*
X-4931746Y-4311448D01*
X-4950000Y-4403217D01*
X-6910954Y-4403217D01*
X-6990824Y-4323347D01*
X-7152480Y-4215332D01*
X-7332103Y-4140930D01*
X-7522789Y-4103000D01*
X-7717211Y-4103000D01*
X-7907897Y-4140930D01*
X-8087520Y-4215332D01*
X-8249176Y-4323347D01*
X-8386653Y-4460824D01*
X-8494668Y-4622480D01*
X-8569070Y-4802103D01*
X-8607000Y-4992789D01*
X-8770000Y-4992789D01*
X-8770000Y-2452789D01*
X-8607000Y-2452789D01*
X-8607000Y-2647211D01*
X-8569070Y-2837897D01*
X-8494668Y-3017520D01*
X-8386653Y-3179176D01*
X-8249176Y-3316653D01*
X-8087520Y-3424668D01*
X-7907897Y-3499070D01*
X-7717211Y-3537000D01*
X-7522789Y-3537000D01*
X-7332103Y-3499070D01*
X-7152480Y-3424668D01*
X-6990824Y-3316653D01*
X-6853347Y-3179176D01*
X-6745332Y-3017520D01*
X-6670930Y-2837897D01*
X-6639168Y-2678217D01*
X-5975000Y-2678217D01*
X-5975000Y-2771783D01*
X-5956746Y-2863552D01*
X-5920939Y-2949997D01*
X-5868956Y-3027795D01*
X-5834251Y-3062500D01*
X-5843956Y-3072205D01*
X-5895939Y-3150003D01*
X-5931746Y-3236448D01*
X-5950000Y-3328217D01*
X-5950000Y-3421783D01*
X-5931746Y-3513552D01*
X-5895939Y-3599997D01*
X-5843956Y-3677795D01*
X-5777795Y-3743956D01*
X-5699997Y-3795939D01*
X-5613552Y-3831746D01*
X-5521783Y-3850000D01*
X-5428217Y-3850000D01*
X-5336448Y-3831746D01*
X-5250003Y-3795939D01*
X-5190542Y-3756209D01*
X-5127795Y-3818956D01*
X-5049997Y-3870939D01*
X-4963552Y-3906746D01*
X-4871783Y-3925000D01*
X-4778217Y-3925000D01*
X-4686448Y-3906746D01*
X-4600003Y-3870939D01*
X-4524042Y-3820183D01*
X-4518956Y-3827795D01*
X-4452795Y-3893956D01*
X-4374997Y-3945939D01*
X-4288552Y-3981746D01*
X-4196783Y-4000000D01*
X-4103217Y-4000000D01*
X-4011448Y-3981746D01*
X-3925003Y-3945939D01*
X-3847205Y-3893956D01*
X-3781044Y-3827795D01*
X-3729061Y-3749997D01*
X-3693254Y-3663552D01*
X-3675000Y-3571783D01*
X-3675000Y-3493217D01*
X-2935000Y-3493217D01*
X-2935000Y-3586783D01*
X-2916746Y-3678552D01*
X-2880939Y-3764997D01*
X-2828956Y-3842795D01*
X-2762795Y-3908956D01*
X-2684997Y-3960939D01*
X-2598552Y-3996746D01*
X-2506783Y-4015000D01*
X-2413217Y-4015000D01*
X-2321448Y-3996746D01*
X-2235003Y-3960939D01*
X-2157205Y-3908956D01*
X-2091044Y-3842795D01*
X-2039061Y-3764997D01*
X-2003254Y-3678552D01*
X-1985000Y-3586783D01*
X-1985000Y-3493217D01*
X-2003254Y-3401448D01*
X-2039061Y-3315003D01*
X-2091044Y-3237205D01*
X-2157205Y-3171044D01*
X-2235003Y-3119061D01*
X-2321448Y-3083254D01*
X-2413217Y-3065000D01*
X-2506783Y-3065000D01*
X-2598552Y-3083254D01*
X-2684997Y-3119061D01*
X-2762795Y-3171044D01*
X-2828956Y-3237205D01*
X-2880939Y-3315003D01*
X-2916746Y-3401448D01*
X-2935000Y-3493217D01*
X-3675000Y-3493217D01*
X-3675000Y-3478217D01*
X-3693254Y-3386448D01*
X-3729061Y-3300003D01*
X-3781044Y-3222205D01*
X-3847205Y-3156044D01*
X-3925003Y-3104061D01*
X-4011448Y-3068254D01*
X-4103217Y-3050000D01*
X-4196783Y-3050000D01*
X-4288552Y-3068254D01*
X-4374997Y-3104061D01*
X-4450958Y-3154817D01*
X-4456044Y-3147205D01*
X-4522205Y-3081044D01*
X-4600003Y-3029061D01*
X-4686448Y-2993254D01*
X-4778217Y-2975000D01*
X-4871783Y-2975000D01*
X-4963552Y-2993254D01*
X-5049997Y-3029061D01*
X-5109458Y-3068791D01*
X-5140749Y-3037500D01*
X-5131044Y-3027795D01*
X-5079061Y-2949997D01*
X-5043254Y-2863552D01*
X-5025000Y-2771783D01*
X-5025000Y-2678217D01*
X-5043254Y-2586448D01*
X-5079061Y-2500003D01*
X-5090277Y-2483217D01*
X-1945000Y-2483217D01*
X-1945000Y-2576783D01*
X-1926746Y-2668552D01*
X-1890939Y-2754997D01*
X-1838956Y-2832795D01*
X-1772795Y-2898956D01*
X-1694997Y-2950939D01*
X-1608552Y-2986746D01*
X-1516783Y-3005000D01*
X-1423217Y-3005000D01*
X-1331448Y-2986746D01*
X-1245003Y-2950939D01*
X-1167205Y-2898956D01*
X-1101044Y-2832795D01*
X-1049061Y-2754997D01*
X-1013254Y-2668552D01*
X-1008215Y-2643217D01*
X1815000Y-2643217D01*
X1815000Y-2736783D01*
X1833254Y-2828552D01*
X1869061Y-2914997D01*
X1921044Y-2992795D01*
X1987205Y-3058956D01*
X2065003Y-3110939D01*
X2151448Y-3146746D01*
X2243217Y-3165000D01*
X2336783Y-3165000D01*
X2428552Y-3146746D01*
X2514997Y-3110939D01*
X2592795Y-3058956D01*
X2658956Y-2992795D01*
X2710939Y-2914997D01*
X2746746Y-2828552D01*
X2765000Y-2736783D01*
X2765000Y-2643217D01*
X2746746Y-2551448D01*
X2710939Y-2465003D01*
X2658956Y-2387205D01*
X2592795Y-2321044D01*
X2514997Y-2269061D01*
X2428552Y-2233254D01*
X2336783Y-2215000D01*
X2243217Y-2215000D01*
X2151448Y-2233254D01*
X2065003Y-2269061D01*
X1987205Y-2321044D01*
X1921044Y-2387205D01*
X1869061Y-2465003D01*
X1833254Y-2551448D01*
X1815000Y-2643217D01*
X-1008215Y-2643217D01*
X-995000Y-2576783D01*
X-995000Y-2483217D01*
X-1013254Y-2391448D01*
X-1049061Y-2305003D01*
X-1101044Y-2227205D01*
X-1167205Y-2161044D01*
X-1245003Y-2109061D01*
X-1331448Y-2073254D01*
X-1423217Y-2055000D01*
X-1516783Y-2055000D01*
X-1608552Y-2073254D01*
X-1694997Y-2109061D01*
X-1772795Y-2161044D01*
X-1838956Y-2227205D01*
X-1890939Y-2305003D01*
X-1926746Y-2391448D01*
X-1945000Y-2483217D01*
X-5090277Y-2483217D01*
X-5131044Y-2422205D01*
X-5197205Y-2356044D01*
X-5275003Y-2304061D01*
X-5361448Y-2268254D01*
X-5453217Y-2250000D01*
X-5546783Y-2250000D01*
X-5638552Y-2268254D01*
X-5724997Y-2304061D01*
X-5802795Y-2356044D01*
X-5868956Y-2422205D01*
X-5920939Y-2500003D01*
X-5956746Y-2586448D01*
X-5975000Y-2678217D01*
X-6639168Y-2678217D01*
X-6633000Y-2647211D01*
X-6633000Y-2452789D01*
X-6670930Y-2262103D01*
X-6745332Y-2082480D01*
X-6853347Y-1920824D01*
X-6990824Y-1783347D01*
X-7152480Y-1675332D01*
X-7332103Y-1600930D01*
X-7522789Y-1563000D01*
X-7717211Y-1563000D01*
X-7907897Y-1600930D01*
X-8087520Y-1675332D01*
X-8249176Y-1783347D01*
X-8386653Y-1920824D01*
X-8494668Y-2082480D01*
X-8569070Y-2262103D01*
X-8607000Y-2452789D01*
X-8770000Y-2452789D01*
X-8770000Y-1987725D01*
X-8770086Y-1986852D01*
X-8770102Y-1984563D01*
X-8771289Y-1973274D01*
X-8771289Y-1961923D01*
X-8771654Y-1958451D01*
X-8775000Y-1928620D01*
X-8775000Y-1553217D01*
X-5975000Y-1553217D01*
X-5975000Y-1646783D01*
X-5956746Y-1738552D01*
X-5920939Y-1824997D01*
X-5868956Y-1902795D01*
X-5802795Y-1968956D01*
X-5724997Y-2020939D01*
X-5638552Y-2056746D01*
X-5546783Y-2075000D01*
X-5453217Y-2075000D01*
X-5361448Y-2056746D01*
X-5275003Y-2020939D01*
X-5197205Y-1968956D01*
X-5139136Y-1910887D01*
X-5108439Y-1984997D01*
X-5056456Y-2062795D01*
X-4990295Y-2128956D01*
X-4912497Y-2180939D01*
X-4826052Y-2216746D01*
X-4734283Y-2235000D01*
X-4640717Y-2235000D01*
X-4548948Y-2216746D01*
X-4462503Y-2180939D01*
X-4384705Y-2128956D01*
X-4348750Y-2093001D01*
X-4312795Y-2128956D01*
X-4234997Y-2180939D01*
X-4148552Y-2216746D01*
X-4056783Y-2235000D01*
X-3963217Y-2235000D01*
X-3871448Y-2216746D01*
X-3785003Y-2180939D01*
X-3707205Y-2128956D01*
X-3641044Y-2062795D01*
X-3589061Y-1984997D01*
X-3553254Y-1898552D01*
X-3535000Y-1806783D01*
X-3535000Y-1713217D01*
X-3536989Y-1703217D01*
X-2850000Y-1703217D01*
X-2850000Y-1796783D01*
X-2831746Y-1888552D01*
X-2795939Y-1974997D01*
X-2743956Y-2052795D01*
X-2677795Y-2118956D01*
X-2599997Y-2170939D01*
X-2513552Y-2206746D01*
X-2421783Y-2225000D01*
X-2328217Y-2225000D01*
X-2236448Y-2206746D01*
X-2150003Y-2170939D01*
X-2072205Y-2118956D01*
X-2006044Y-2052795D01*
X-1954061Y-1974997D01*
X-1918254Y-1888552D01*
X-1906253Y-1828217D01*
X2725000Y-1828217D01*
X2725000Y-1921783D01*
X2743254Y-2013552D01*
X2779061Y-2099997D01*
X2831044Y-2177795D01*
X2897205Y-2243956D01*
X2934424Y-2268825D01*
X2906044Y-2297205D01*
X2854061Y-2375003D01*
X2818254Y-2461448D01*
X2800000Y-2553217D01*
X2800000Y-2646783D01*
X2818254Y-2738552D01*
X2854061Y-2824997D01*
X2906044Y-2902795D01*
X2953249Y-2950000D01*
X2931044Y-2972205D01*
X2879061Y-3050003D01*
X2843254Y-3136448D01*
X2825000Y-3228217D01*
X2825000Y-3321783D01*
X2843254Y-3413552D01*
X2879061Y-3499997D01*
X2931044Y-3577795D01*
X2997205Y-3643956D01*
X3075003Y-3695939D01*
X3161448Y-3731746D01*
X3253217Y-3750000D01*
X3346783Y-3750000D01*
X3438552Y-3731746D01*
X3524997Y-3695939D01*
X3602795Y-3643956D01*
X3668956Y-3577795D01*
X3720939Y-3499997D01*
X3756746Y-3413552D01*
X3775000Y-3321783D01*
X3775000Y-3228217D01*
X3756746Y-3136448D01*
X3720939Y-3050003D01*
X3668956Y-2972205D01*
X3621751Y-2925000D01*
X3643956Y-2902795D01*
X3695939Y-2824997D01*
X3731746Y-2738552D01*
X3750000Y-2646783D01*
X3750000Y-2553217D01*
X3731746Y-2461448D01*
X3728160Y-2452789D01*
X6633000Y-2452789D01*
X6633000Y-2647211D01*
X6670930Y-2837897D01*
X6745332Y-3017520D01*
X6853347Y-3179176D01*
X6990824Y-3316653D01*
X7152480Y-3424668D01*
X7332103Y-3499070D01*
X7522789Y-3537000D01*
X7717211Y-3537000D01*
X7907897Y-3499070D01*
X8087520Y-3424668D01*
X8249176Y-3316653D01*
X8386653Y-3179176D01*
X8494668Y-3017520D01*
X8569070Y-2837897D01*
X8607000Y-2647211D01*
X8607000Y-2452789D01*
X8569070Y-2262103D01*
X8494668Y-2082480D01*
X8386653Y-1920824D01*
X8249176Y-1783347D01*
X8087520Y-1675332D01*
X7907897Y-1600930D01*
X7717211Y-1563000D01*
X7522789Y-1563000D01*
X7332103Y-1600930D01*
X7152480Y-1675332D01*
X6990824Y-1783347D01*
X6853347Y-1920824D01*
X6745332Y-2082480D01*
X6670930Y-2262103D01*
X6633000Y-2452789D01*
X3728160Y-2452789D01*
X3695939Y-2375003D01*
X3643956Y-2297205D01*
X3577795Y-2231044D01*
X3540576Y-2206175D01*
X3568956Y-2177795D01*
X3620939Y-2099997D01*
X3656746Y-2013552D01*
X3675000Y-1921783D01*
X3675000Y-1828217D01*
X3656746Y-1736448D01*
X3620939Y-1650003D01*
X3568956Y-1572205D01*
X3502795Y-1506044D01*
X3424997Y-1454061D01*
X3338552Y-1418254D01*
X3246783Y-1400000D01*
X3153217Y-1400000D01*
X3061448Y-1418254D01*
X2975003Y-1454061D01*
X2897205Y-1506044D01*
X2831044Y-1572205D01*
X2779061Y-1650003D01*
X2743254Y-1736448D01*
X2725000Y-1828217D01*
X-1906253Y-1828217D01*
X-1900000Y-1796783D01*
X-1900000Y-1703217D01*
X-1918254Y-1611448D01*
X-1954061Y-1525003D01*
X-2006044Y-1447205D01*
X-2072205Y-1381044D01*
X-2150003Y-1329061D01*
X-2236448Y-1293254D01*
X-2328217Y-1275000D01*
X-2421783Y-1275000D01*
X-2513552Y-1293254D01*
X-2599997Y-1329061D01*
X-2677795Y-1381044D01*
X-2743956Y-1447205D01*
X-2795939Y-1525003D01*
X-2831746Y-1611448D01*
X-2850000Y-1703217D01*
X-3536989Y-1703217D01*
X-3553254Y-1621448D01*
X-3589061Y-1535003D01*
X-3641044Y-1457205D01*
X-3707205Y-1391044D01*
X-3785003Y-1339061D01*
X-3871448Y-1303254D01*
X-3963217Y-1285000D01*
X-4056783Y-1285000D01*
X-4148552Y-1303254D01*
X-4234997Y-1339061D01*
X-4312795Y-1391044D01*
X-4348750Y-1426999D01*
X-4384705Y-1391044D01*
X-4462503Y-1339061D01*
X-4548948Y-1303254D01*
X-4640717Y-1285000D01*
X-4734283Y-1285000D01*
X-4826052Y-1303254D01*
X-4912497Y-1339061D01*
X-4990295Y-1391044D01*
X-5048364Y-1449113D01*
X-5079061Y-1375003D01*
X-5131044Y-1297205D01*
X-5197205Y-1231044D01*
X-5275003Y-1179061D01*
X-5277040Y-1178217D01*
X-1350000Y-1178217D01*
X-1350000Y-1271783D01*
X-1331746Y-1363552D01*
X-1295939Y-1449997D01*
X-1243956Y-1527795D01*
X-1177795Y-1593956D01*
X-1099997Y-1645939D01*
X-1013552Y-1681746D01*
X-921783Y-1700000D01*
X-828217Y-1700000D01*
X-736448Y-1681746D01*
X-650003Y-1645939D01*
X-572205Y-1593956D01*
X-506044Y-1527795D01*
X-454061Y-1449997D01*
X-418254Y-1363552D01*
X-400000Y-1271783D01*
X-400000Y-1178217D01*
X-404972Y-1153217D01*
X-300000Y-1153217D01*
X-300000Y-1246783D01*
X-281746Y-1338552D01*
X-245939Y-1424997D01*
X-193956Y-1502795D01*
X-127795Y-1568956D01*
X-49997Y-1620939D01*
X36448Y-1656746D01*
X128217Y-1675000D01*
X221783Y-1675000D01*
X313552Y-1656746D01*
X399997Y-1620939D01*
X477795Y-1568956D01*
X543956Y-1502795D01*
X595939Y-1424997D01*
X631746Y-1338552D01*
X645000Y-1271920D01*
X645000Y-1286783D01*
X663254Y-1378552D01*
X699061Y-1464997D01*
X751044Y-1542795D01*
X817205Y-1608956D01*
X895003Y-1660939D01*
X981448Y-1696746D01*
X1073217Y-1715000D01*
X1166783Y-1715000D01*
X1258552Y-1696746D01*
X1344997Y-1660939D01*
X1422795Y-1608956D01*
X1488956Y-1542795D01*
X1540939Y-1464997D01*
X1576746Y-1378552D01*
X1595000Y-1286783D01*
X1595000Y-1193217D01*
X1576746Y-1101448D01*
X1540939Y-1015003D01*
X1488956Y-937205D01*
X1422795Y-871044D01*
X1344997Y-819061D01*
X1258552Y-783254D01*
X1166783Y-765000D01*
X1073217Y-765000D01*
X981448Y-783254D01*
X895003Y-819061D01*
X817205Y-871044D01*
X751044Y-937205D01*
X699061Y-1015003D01*
X663254Y-1101448D01*
X650000Y-1168080D01*
X650000Y-1153217D01*
X631746Y-1061448D01*
X595939Y-975003D01*
X543956Y-897205D01*
X477795Y-831044D01*
X399997Y-779061D01*
X313552Y-743254D01*
X221783Y-725000D01*
X128217Y-725000D01*
X36448Y-743254D01*
X-49997Y-779061D01*
X-127795Y-831044D01*
X-193956Y-897205D01*
X-245939Y-975003D01*
X-281746Y-1061448D01*
X-300000Y-1153217D01*
X-404972Y-1153217D01*
X-418254Y-1086448D01*
X-454061Y-1000003D01*
X-506044Y-922205D01*
X-572205Y-856044D01*
X-650003Y-804061D01*
X-736448Y-768254D01*
X-828217Y-750000D01*
X-921783Y-750000D01*
X-1013552Y-768254D01*
X-1099997Y-804061D01*
X-1177795Y-856044D01*
X-1243956Y-922205D01*
X-1295939Y-1000003D01*
X-1331746Y-1086448D01*
X-1350000Y-1178217D01*
X-5277040Y-1178217D01*
X-5361448Y-1143254D01*
X-5453217Y-1125000D01*
X-5546783Y-1125000D01*
X-5638552Y-1143254D01*
X-5724997Y-1179061D01*
X-5802795Y-1231044D01*
X-5868956Y-1297205D01*
X-5920939Y-1375003D01*
X-5956746Y-1461448D01*
X-5975000Y-1553217D01*
X-8775000Y-1553217D01*
X-8775000Y87211D01*
X-8607000Y87211D01*
X-8607000Y-107211D01*
X-8569070Y-297897D01*
X-8494668Y-477520D01*
X-8386653Y-639176D01*
X-8249176Y-776653D01*
X-8087520Y-884668D01*
X-7907897Y-959070D01*
X-7717211Y-997000D01*
X-7522789Y-997000D01*
X-7332103Y-959070D01*
X-7152480Y-884668D01*
X-6990824Y-776653D01*
X-6853347Y-639176D01*
X-6745332Y-477520D01*
X-6670930Y-297897D01*
X-6633000Y-107211D01*
X-6633000Y87211D01*
X-6670930Y277897D01*
X-6745332Y457520D01*
X-6838384Y596783D01*
X3015000Y596783D01*
X3015000Y503217D01*
X3033254Y411448D01*
X3069061Y325003D01*
X3121044Y247205D01*
X3187205Y181044D01*
X3265003Y129061D01*
X3351448Y93254D01*
X3443217Y75000D01*
X3536783Y75000D01*
X3628552Y93254D01*
X3714997Y129061D01*
X3792795Y181044D01*
X3858956Y247205D01*
X3910939Y325003D01*
X3946746Y411448D01*
X3965000Y503217D01*
X3965000Y596783D01*
X3946746Y688552D01*
X3910939Y774997D01*
X3858956Y852795D01*
X3792795Y918956D01*
X3714997Y970939D01*
X3628552Y1006746D01*
X3536783Y1025000D01*
X3443217Y1025000D01*
X3351448Y1006746D01*
X3265003Y970939D01*
X3187205Y918956D01*
X3121044Y852795D01*
X3069061Y774997D01*
X3033254Y688552D01*
X3015000Y596783D01*
X-6838384Y596783D01*
X-6853347Y619176D01*
X-6990824Y756653D01*
X-7152480Y864668D01*
X-7332103Y939070D01*
X-7522789Y977000D01*
X-7717211Y977000D01*
X-7907897Y939070D01*
X-8087520Y864668D01*
X-8249176Y756653D01*
X-8386653Y619176D01*
X-8494668Y457520D01*
X-8569070Y277897D01*
X-8607000Y87211D01*
X-8775000Y87211D01*
X-8775000Y1936777D01*
X-8771193Y1975604D01*
X-8771193Y1975613D01*
X-8770000Y1987725D01*
X-8770000Y2627211D01*
X-8607000Y2627211D01*
X-8607000Y2432789D01*
X-8569070Y2242103D01*
X-8494668Y2062480D01*
X-8386653Y1900824D01*
X-8249176Y1763347D01*
X-8087520Y1655332D01*
X-7907897Y1580930D01*
X-7717211Y1543000D01*
X-7522789Y1543000D01*
X-7332103Y1580930D01*
X-7152480Y1655332D01*
X-6990824Y1763347D01*
X-6950472Y1803699D01*
X-6956746Y1788552D01*
X-6975000Y1696783D01*
X-6975000Y1603217D01*
X-6956746Y1511448D01*
X-6920939Y1425003D01*
X-6868956Y1347205D01*
X-6802795Y1281044D01*
X-6724997Y1229061D01*
X-6638552Y1193254D01*
X-6546783Y1175000D01*
X-6453217Y1175000D01*
X-6361448Y1193254D01*
X-6275003Y1229061D01*
X-6197205Y1281044D01*
X-6131044Y1347205D01*
X-6079061Y1425003D01*
X-6043254Y1511448D01*
X-6025000Y1603217D01*
X-6025000Y1696783D01*
X-6043254Y1788552D01*
X-6079061Y1874997D01*
X-6131044Y1952795D01*
X-6150032Y1971783D01*
X-5975000Y1971783D01*
X-5975000Y1878217D01*
X-5956746Y1786448D01*
X-5920939Y1700003D01*
X-5868956Y1622205D01*
X-5802795Y1556044D01*
X-5724997Y1504061D01*
X-5638552Y1468254D01*
X-5546783Y1450000D01*
X-5453217Y1450000D01*
X-5361448Y1468254D01*
X-5275003Y1504061D01*
X-5197205Y1556044D01*
X-5131044Y1622205D01*
X-5079061Y1700003D01*
X-5043254Y1786448D01*
X-5025000Y1878217D01*
X-5025000Y1971783D01*
X-5043254Y2063552D01*
X-5077729Y2146783D01*
X-4050000Y2146783D01*
X-4050000Y2053217D01*
X-4031746Y1961448D01*
X-3995939Y1875003D01*
X-3943956Y1797205D01*
X-3877795Y1731044D01*
X-3799997Y1679061D01*
X-3713552Y1643254D01*
X-3621783Y1625000D01*
X-3528217Y1625000D01*
X-3436448Y1643254D01*
X-3350003Y1679061D01*
X-3272205Y1731044D01*
X-3206044Y1797205D01*
X-3154061Y1875003D01*
X-3118254Y1961448D01*
X-3100000Y2053217D01*
X-3100000Y2146783D01*
X-3118254Y2238552D01*
X-3154061Y2324997D01*
X-3206044Y2402795D01*
X-3272205Y2468956D01*
X-3350003Y2520939D01*
X-3436448Y2556746D01*
X-3528217Y2575000D01*
X-3621783Y2575000D01*
X-3713552Y2556746D01*
X-3799997Y2520939D01*
X-3877795Y2468956D01*
X-3943956Y2402795D01*
X-3995939Y2324997D01*
X-4031746Y2238552D01*
X-4050000Y2146783D01*
X-5077729Y2146783D01*
X-5079061Y2149997D01*
X-5131044Y2227795D01*
X-5197205Y2293956D01*
X-5275003Y2345939D01*
X-5361448Y2381746D01*
X-5453217Y2400000D01*
X-5546783Y2400000D01*
X-5638552Y2381746D01*
X-5724997Y2345939D01*
X-5802795Y2293956D01*
X-5868956Y2227795D01*
X-5920939Y2149997D01*
X-5956746Y2063552D01*
X-5975000Y1971783D01*
X-6150032Y1971783D01*
X-6197205Y2018956D01*
X-6275003Y2070939D01*
X-6361448Y2106746D01*
X-6453217Y2125000D01*
X-6546783Y2125000D01*
X-6638552Y2106746D01*
X-6724997Y2070939D01*
X-6751523Y2053215D01*
X-6745332Y2062480D01*
X-6670930Y2242103D01*
X-6633000Y2432789D01*
X-6633000Y2627211D01*
X-6670930Y2817897D01*
X-6724316Y2946783D01*
X-5850000Y2946783D01*
X-5850000Y2853217D01*
X-5831746Y2761448D01*
X-5795939Y2675003D01*
X-5743956Y2597205D01*
X-5677795Y2531044D01*
X-5599997Y2479061D01*
X-5513552Y2443254D01*
X-5421783Y2425000D01*
X-5328217Y2425000D01*
X-5236448Y2443254D01*
X-5150003Y2479061D01*
X-5072205Y2531044D01*
X-5006044Y2597205D01*
X-4954061Y2675003D01*
X-4918254Y2761448D01*
X-4900000Y2853217D01*
X-4900000Y2946783D01*
X-4918254Y3038552D01*
X-4954061Y3124997D01*
X-5006044Y3202795D01*
X-5072205Y3268956D01*
X-5083918Y3276783D01*
X-2275000Y3276783D01*
X-2275000Y3183217D01*
X-2256746Y3091448D01*
X-2220939Y3005003D01*
X-2168956Y2927205D01*
X-2102795Y2861044D01*
X-2024997Y2809061D01*
X-1979490Y2790211D01*
X-1996746Y2748552D01*
X-2015000Y2656783D01*
X-2015000Y2563217D01*
X-1996746Y2471448D01*
X-1960939Y2385003D01*
X-1908956Y2307205D01*
X-1842795Y2241044D01*
X-1764997Y2189061D01*
X-1678552Y2153254D01*
X-1586783Y2135000D01*
X-1493217Y2135000D01*
X-1401448Y2153254D01*
X-1344735Y2176746D01*
X-1331746Y2111448D01*
X-1295939Y2025003D01*
X-1243956Y1947205D01*
X-1177795Y1881044D01*
X-1099997Y1829061D01*
X-1013552Y1793254D01*
X-921783Y1775000D01*
X-828217Y1775000D01*
X-736448Y1793254D01*
X-650003Y1829061D01*
X-572205Y1881044D01*
X-506044Y1947205D01*
X-489622Y1971783D01*
X225000Y1971783D01*
X225000Y1878217D01*
X243254Y1786448D01*
X279061Y1700003D01*
X331044Y1622205D01*
X397205Y1556044D01*
X475003Y1504061D01*
X561448Y1468254D01*
X653217Y1450000D01*
X746783Y1450000D01*
X838552Y1468254D01*
X924997Y1504061D01*
X1002795Y1556044D01*
X1068956Y1622205D01*
X1120939Y1700003D01*
X1156746Y1786448D01*
X1175000Y1878217D01*
X1175000Y1971783D01*
X1156746Y2063552D01*
X1120939Y2149997D01*
X1068956Y2227795D01*
X1002795Y2293956D01*
X924997Y2345939D01*
X838552Y2381746D01*
X746783Y2400000D01*
X653217Y2400000D01*
X561448Y2381746D01*
X475003Y2345939D01*
X397205Y2293956D01*
X331044Y2227795D01*
X279061Y2149997D01*
X243254Y2063552D01*
X225000Y1971783D01*
X-489622Y1971783D01*
X-454061Y2025003D01*
X-418254Y2111448D01*
X-400000Y2203217D01*
X-400000Y2296783D01*
X-418254Y2388552D01*
X-454061Y2474997D01*
X-506044Y2552795D01*
X-572205Y2618956D01*
X-650003Y2670939D01*
X-736448Y2706746D01*
X-828217Y2725000D01*
X-921783Y2725000D01*
X-1013552Y2706746D01*
X-1070265Y2683254D01*
X-1083254Y2748552D01*
X-1119061Y2834997D01*
X-1171044Y2912795D01*
X-1237205Y2978956D01*
X-1315003Y3030939D01*
X-1360510Y3049789D01*
X-1343254Y3091448D01*
X-1325000Y3183217D01*
X-1325000Y3246783D01*
X-475000Y3246783D01*
X-475000Y3153217D01*
X-456746Y3061448D01*
X-420939Y2975003D01*
X-368956Y2897205D01*
X-302795Y2831044D01*
X-224997Y2779061D01*
X-138552Y2743254D01*
X-46783Y2725000D01*
X46783Y2725000D01*
X138552Y2743254D01*
X224997Y2779061D01*
X302795Y2831044D01*
X368956Y2897205D01*
X420939Y2975003D01*
X456746Y3061448D01*
X475000Y3153217D01*
X475000Y3246783D01*
X456746Y3338552D01*
X420939Y3424997D01*
X368956Y3502795D01*
X324968Y3546783D01*
X1200000Y3546783D01*
X1200000Y3453217D01*
X1218254Y3361448D01*
X1254061Y3275003D01*
X1306044Y3197205D01*
X1372205Y3131044D01*
X1450003Y3079061D01*
X1536448Y3043254D01*
X1628217Y3025000D01*
X1721783Y3025000D01*
X1813552Y3043254D01*
X1890192Y3075000D01*
X4150000Y3075000D01*
X4150000Y-2375000D01*
X4151441Y-2389632D01*
X4155709Y-2403701D01*
X4162640Y-2416668D01*
X4171967Y-2428033D01*
X4183332Y-2437360D01*
X4196299Y-2444291D01*
X4210368Y-2448559D01*
X4225000Y-2450000D01*
X6350000Y-2450000D01*
X6364632Y-2448559D01*
X6378701Y-2444291D01*
X6391668Y-2437360D01*
X6403033Y-2428033D01*
X6412360Y-2416668D01*
X6419291Y-2403701D01*
X6423559Y-2389632D01*
X6425000Y-2375000D01*
X6425000Y87211D01*
X6633000Y87211D01*
X6633000Y-107211D01*
X6670930Y-297897D01*
X6745332Y-477520D01*
X6853347Y-639176D01*
X6990824Y-776653D01*
X7152480Y-884668D01*
X7332103Y-959070D01*
X7522789Y-997000D01*
X7717211Y-997000D01*
X7907897Y-959070D01*
X8087520Y-884668D01*
X8249176Y-776653D01*
X8386653Y-639176D01*
X8494668Y-477520D01*
X8569070Y-297897D01*
X8607000Y-107211D01*
X8607000Y87211D01*
X8569070Y277897D01*
X8494668Y457520D01*
X8386653Y619176D01*
X8249176Y756653D01*
X8087520Y864668D01*
X7907897Y939070D01*
X7717211Y977000D01*
X7522789Y977000D01*
X7332103Y939070D01*
X7152480Y864668D01*
X6990824Y756653D01*
X6853347Y619176D01*
X6745332Y457520D01*
X6670930Y277897D01*
X6633000Y87211D01*
X6425000Y87211D01*
X6425000Y2627211D01*
X6633000Y2627211D01*
X6633000Y2432789D01*
X6670930Y2242103D01*
X6745332Y2062480D01*
X6853347Y1900824D01*
X6990824Y1763347D01*
X7152480Y1655332D01*
X7332103Y1580930D01*
X7522789Y1543000D01*
X7717211Y1543000D01*
X7907897Y1580930D01*
X8087520Y1655332D01*
X8249176Y1763347D01*
X8386653Y1900824D01*
X8494668Y2062480D01*
X8569070Y2242103D01*
X8607000Y2432789D01*
X8607000Y2627211D01*
X8569070Y2817897D01*
X8494668Y2997520D01*
X8386653Y3159176D01*
X8249176Y3296653D01*
X8087520Y3404668D01*
X7907897Y3479070D01*
X7717211Y3517000D01*
X7522789Y3517000D01*
X7332103Y3479070D01*
X7152480Y3404668D01*
X6990824Y3296653D01*
X6853347Y3159176D01*
X6745332Y2997520D01*
X6670930Y2817897D01*
X6633000Y2627211D01*
X6425000Y2627211D01*
X6425000Y3075000D01*
X6423559Y3089632D01*
X6419291Y3103701D01*
X6412360Y3116668D01*
X6403033Y3128033D01*
X6391668Y3137360D01*
X6378701Y3144291D01*
X6364632Y3148559D01*
X6350000Y3150000D01*
X4225000Y3150000D01*
X4210368Y3148559D01*
X4196299Y3144291D01*
X4183332Y3137360D01*
X4171967Y3128033D01*
X4162640Y3116668D01*
X4155709Y3103701D01*
X4151441Y3089632D01*
X4150000Y3075000D01*
X1890192Y3075000D01*
X1899997Y3079061D01*
X1977795Y3131044D01*
X2043956Y3197205D01*
X2095939Y3275003D01*
X2131746Y3361448D01*
X2150000Y3453217D01*
X2150000Y3546783D01*
X2131746Y3638552D01*
X2095939Y3724997D01*
X2043956Y3802795D01*
X1977795Y3868956D01*
X1899997Y3920939D01*
X1813552Y3956746D01*
X1721783Y3975000D01*
X1628217Y3975000D01*
X1536448Y3956746D01*
X1450003Y3920939D01*
X1372205Y3868956D01*
X1306044Y3802795D01*
X1254061Y3724997D01*
X1218254Y3638552D01*
X1200000Y3546783D01*
X324968Y3546783D01*
X302795Y3568956D01*
X224997Y3620939D01*
X138552Y3656746D01*
X46783Y3675000D01*
X-46783Y3675000D01*
X-138552Y3656746D01*
X-224997Y3620939D01*
X-302795Y3568956D01*
X-368956Y3502795D01*
X-420939Y3424997D01*
X-456746Y3338552D01*
X-475000Y3246783D01*
X-1325000Y3246783D01*
X-1325000Y3276783D01*
X-1343254Y3368552D01*
X-1379061Y3454997D01*
X-1431044Y3532795D01*
X-1497205Y3598956D01*
X-1575003Y3650939D01*
X-1661448Y3686746D01*
X-1753217Y3705000D01*
X-1846783Y3705000D01*
X-1938552Y3686746D01*
X-2024997Y3650939D01*
X-2102795Y3598956D01*
X-2168956Y3532795D01*
X-2220939Y3454997D01*
X-2256746Y3368552D01*
X-2275000Y3276783D01*
X-5083918Y3276783D01*
X-5150003Y3320939D01*
X-5236448Y3356746D01*
X-5328217Y3375000D01*
X-5421783Y3375000D01*
X-5513552Y3356746D01*
X-5599997Y3320939D01*
X-5677795Y3268956D01*
X-5743956Y3202795D01*
X-5795939Y3124997D01*
X-5831746Y3038552D01*
X-5850000Y2946783D01*
X-6724316Y2946783D01*
X-6745332Y2997520D01*
X-6853347Y3159176D01*
X-6990824Y3296653D01*
X-7152480Y3404668D01*
X-7332103Y3479070D01*
X-7522789Y3517000D01*
X-7717211Y3517000D01*
X-7907897Y3479070D01*
X-8087520Y3404668D01*
X-8249176Y3296653D01*
X-8386653Y3159176D01*
X-8494668Y2997520D01*
X-8569070Y2817897D01*
X-8607000Y2627211D01*
X-8770000Y2627211D01*
X-8770000Y4100276D01*
X-8336580Y4100276D01*
X-8262585Y3881025D01*
X-8018281Y3778509D01*
X-7758670Y3725624D01*
X-7493731Y3724403D01*
X-7233644Y3774892D01*
X-6988404Y3875151D01*
X-6977415Y3881025D01*
X-6903420Y4100276D01*
X-7620000Y4816856D01*
X-8336580Y4100276D01*
X-8770000Y4100276D01*
X-8770000Y4414261D01*
X-8589724Y4353420D01*
X-7873144Y5070000D01*
X-7366856Y5070000D01*
X-6650276Y4353420D01*
X-6431025Y4427415D01*
X-6328509Y4671719D01*
X-6324263Y4692563D01*
X-6293956Y4647205D01*
X-6227795Y4581044D01*
X-6149997Y4529061D01*
X-6063552Y4493254D01*
X-5971783Y4475000D01*
X-5878217Y4475000D01*
X-5786448Y4493254D01*
X-5753787Y4506783D01*
X-2915000Y4506783D01*
X-2915000Y4413217D01*
X-2896746Y4321448D01*
X-2860939Y4235003D01*
X-2808956Y4157205D01*
X-2742795Y4091044D01*
X-2664997Y4039061D01*
X-2578552Y4003254D01*
X-2486783Y3985000D01*
X-2393217Y3985000D01*
X-2301448Y4003254D01*
X-2215003Y4039061D01*
X-2137205Y4091044D01*
X-2071044Y4157205D01*
X-2019061Y4235003D01*
X-1983254Y4321448D01*
X-1965000Y4413217D01*
X-1965000Y4506783D01*
X-1966989Y4516783D01*
X-1605000Y4516783D01*
X-1605000Y4423217D01*
X-1586746Y4331448D01*
X-1550939Y4245003D01*
X-1498956Y4167205D01*
X-1432795Y4101044D01*
X-1354997Y4049061D01*
X-1268552Y4013254D01*
X-1176783Y3995000D01*
X-1083217Y3995000D01*
X-991448Y4013254D01*
X-905003Y4049061D01*
X-827205Y4101044D01*
X-761044Y4167205D01*
X-709061Y4245003D01*
X-673254Y4331448D01*
X-658269Y4406783D01*
X85000Y4406783D01*
X85000Y4313217D01*
X103254Y4221448D01*
X139061Y4135003D01*
X191044Y4057205D01*
X257205Y3991044D01*
X335003Y3939061D01*
X421448Y3903254D01*
X513217Y3885000D01*
X606783Y3885000D01*
X698552Y3903254D01*
X784997Y3939061D01*
X862795Y3991044D01*
X928956Y4057205D01*
X980939Y4135003D01*
X1016746Y4221448D01*
X1035000Y4313217D01*
X1035000Y4396783D01*
X2675000Y4396783D01*
X2675000Y4303217D01*
X2693254Y4211448D01*
X2729061Y4125003D01*
X2781044Y4047205D01*
X2847205Y3981044D01*
X2925003Y3929061D01*
X3011448Y3893254D01*
X3103217Y3875000D01*
X3196783Y3875000D01*
X3288552Y3893254D01*
X3374997Y3929061D01*
X3452795Y3981044D01*
X3518956Y4047205D01*
X3570939Y4125003D01*
X3606746Y4211448D01*
X3625000Y4303217D01*
X3625000Y4396783D01*
X3606746Y4488552D01*
X3570939Y4574997D01*
X3518956Y4652795D01*
X3452795Y4718956D01*
X3374997Y4770939D01*
X3288552Y4806746D01*
X3196783Y4825000D01*
X3103217Y4825000D01*
X3011448Y4806746D01*
X2925003Y4770939D01*
X2847205Y4718956D01*
X2781044Y4652795D01*
X2729061Y4574997D01*
X2693254Y4488552D01*
X2675000Y4396783D01*
X1035000Y4396783D01*
X1035000Y4406783D01*
X1016746Y4498552D01*
X980939Y4584997D01*
X928956Y4662795D01*
X862795Y4728956D01*
X784997Y4780939D01*
X698552Y4816746D01*
X606783Y4835000D01*
X513217Y4835000D01*
X421448Y4816746D01*
X335003Y4780939D01*
X257205Y4728956D01*
X191044Y4662795D01*
X139061Y4584997D01*
X103254Y4498552D01*
X85000Y4406783D01*
X-658269Y4406783D01*
X-655000Y4423217D01*
X-655000Y4516783D01*
X-673254Y4608552D01*
X-709061Y4694997D01*
X-761044Y4772795D01*
X-827205Y4838956D01*
X-905003Y4890939D01*
X-991448Y4926746D01*
X-1083217Y4945000D01*
X-1176783Y4945000D01*
X-1268552Y4926746D01*
X-1354997Y4890939D01*
X-1432795Y4838956D01*
X-1498956Y4772795D01*
X-1550939Y4694997D01*
X-1586746Y4608552D01*
X-1605000Y4516783D01*
X-1966989Y4516783D01*
X-1983254Y4598552D01*
X-2019061Y4684997D01*
X-2071044Y4762795D01*
X-2137205Y4828956D01*
X-2215003Y4880939D01*
X-2301448Y4916746D01*
X-2393217Y4935000D01*
X-2486783Y4935000D01*
X-2578552Y4916746D01*
X-2664997Y4880939D01*
X-2742795Y4828956D01*
X-2808956Y4762795D01*
X-2860939Y4684997D01*
X-2896746Y4598552D01*
X-2915000Y4506783D01*
X-5753787Y4506783D01*
X-5700003Y4529061D01*
X-5622205Y4581044D01*
X-5556044Y4647205D01*
X-5504061Y4725003D01*
X-5468254Y4811448D01*
X-5450000Y4903217D01*
X-5450000Y4996783D01*
X-5468254Y5088552D01*
X-5500835Y5167211D01*
X6633000Y5167211D01*
X6633000Y4972789D01*
X6670930Y4782103D01*
X6745332Y4602480D01*
X6853347Y4440824D01*
X6990824Y4303347D01*
X7152480Y4195332D01*
X7332103Y4120930D01*
X7522789Y4083000D01*
X7717211Y4083000D01*
X7907897Y4120930D01*
X8087520Y4195332D01*
X8249176Y4303347D01*
X8386653Y4440824D01*
X8494668Y4602480D01*
X8569070Y4782103D01*
X8607000Y4972789D01*
X8607000Y5167211D01*
X8569070Y5357897D01*
X8494668Y5537520D01*
X8386653Y5699176D01*
X8249176Y5836653D01*
X8087520Y5944668D01*
X7907897Y6019070D01*
X7717211Y6057000D01*
X7522789Y6057000D01*
X7332103Y6019070D01*
X7152480Y5944668D01*
X6990824Y5836653D01*
X6853347Y5699176D01*
X6745332Y5537520D01*
X6670930Y5357897D01*
X6633000Y5167211D01*
X-5500835Y5167211D01*
X-5504061Y5174997D01*
X-5556044Y5252795D01*
X-5622205Y5318956D01*
X-5700003Y5370939D01*
X-5786448Y5406746D01*
X-5878217Y5425000D01*
X-5971783Y5425000D01*
X-6063552Y5406746D01*
X-6149997Y5370939D01*
X-6227795Y5318956D01*
X-6286771Y5259980D01*
X-6324892Y5456356D01*
X-6425151Y5701596D01*
X-6431025Y5712585D01*
X-6650276Y5786580D01*
X-7366856Y5070000D01*
X-7873144Y5070000D01*
X-8589724Y5786580D01*
X-8770000Y5725739D01*
X-8770000Y6640276D01*
X-8336580Y6640276D01*
X-8262585Y6421025D01*
X-8068645Y6339643D01*
X-8251596Y6264849D01*
X-8262585Y6258975D01*
X-8336580Y6039724D01*
X-7620000Y5323144D01*
X-6903420Y6039724D01*
X-6977415Y6258975D01*
X-7007937Y6271783D01*
X-6525000Y6271783D01*
X-6525000Y6178217D01*
X-6506746Y6086448D01*
X-6470939Y6000003D01*
X-6418956Y5922205D01*
X-6352795Y5856044D01*
X-6274997Y5804061D01*
X-6188552Y5768254D01*
X-6096783Y5750000D01*
X-6003217Y5750000D01*
X-5911448Y5768254D01*
X-5825003Y5804061D01*
X-5747205Y5856044D01*
X-5681044Y5922205D01*
X-5647918Y5971783D01*
X5375000Y5971783D01*
X5375000Y5878217D01*
X5393254Y5786448D01*
X5429061Y5700003D01*
X5481044Y5622205D01*
X5547205Y5556044D01*
X5625003Y5504061D01*
X5711448Y5468254D01*
X5803217Y5450000D01*
X5896783Y5450000D01*
X5988552Y5468254D01*
X6074997Y5504061D01*
X6152795Y5556044D01*
X6218956Y5622205D01*
X6270939Y5700003D01*
X6306746Y5786448D01*
X6325000Y5878217D01*
X6325000Y5971783D01*
X6306746Y6063552D01*
X6270939Y6149997D01*
X6218956Y6227795D01*
X6152795Y6293956D01*
X6074997Y6345939D01*
X5988552Y6381746D01*
X5896783Y6400000D01*
X5803217Y6400000D01*
X5711448Y6381746D01*
X5625003Y6345939D01*
X5547205Y6293956D01*
X5481044Y6227795D01*
X5429061Y6149997D01*
X5393254Y6063552D01*
X5375000Y5971783D01*
X-5647918Y5971783D01*
X-5629061Y6000003D01*
X-5593254Y6086448D01*
X-5575000Y6178217D01*
X-5575000Y6271783D01*
X-5593254Y6363552D01*
X-5629061Y6449997D01*
X-5681044Y6527795D01*
X-5747205Y6593956D01*
X-5825003Y6645939D01*
X-5911448Y6681746D01*
X-6003217Y6700000D01*
X-6096783Y6700000D01*
X-6188552Y6681746D01*
X-6274997Y6645939D01*
X-6352795Y6593956D01*
X-6418956Y6527795D01*
X-6470939Y6449997D01*
X-6506746Y6363552D01*
X-6525000Y6271783D01*
X-7007937Y6271783D01*
X-7171355Y6340357D01*
X-6988404Y6415151D01*
X-6977415Y6421025D01*
X-6903420Y6640276D01*
X-7620000Y7356856D01*
X-8336580Y6640276D01*
X-8770000Y6640276D01*
X-8770000Y6954261D01*
X-8589724Y6893420D01*
X-7873144Y7610000D01*
X-7366856Y7610000D01*
X-6650276Y6893420D01*
X-6431025Y6967415D01*
X-6328509Y7211719D01*
X-6275624Y7471330D01*
X-6274403Y7736269D01*
X-6324892Y7996356D01*
X-6380944Y8133464D01*
X-1055000Y8133464D01*
X-1055000Y8039898D01*
X-1036746Y7948129D01*
X-1000939Y7861684D01*
X-948956Y7783886D01*
X-882795Y7717725D01*
X-804997Y7665742D01*
X-718552Y7629935D01*
X-626783Y7611681D01*
X-533217Y7611681D01*
X-441448Y7629935D01*
X-355003Y7665742D01*
X-277205Y7717725D01*
X-211044Y7783886D01*
X-159061Y7861684D01*
X-123254Y7948129D01*
X-105000Y8039898D01*
X-105000Y8121783D01*
X75000Y8121783D01*
X75000Y8028217D01*
X93254Y7936448D01*
X129061Y7850003D01*
X181044Y7772205D01*
X247205Y7706044D01*
X306166Y7666648D01*
X272205Y7643956D01*
X206044Y7577795D01*
X154061Y7499997D01*
X118254Y7413552D01*
X100000Y7321783D01*
X100000Y7228217D01*
X118254Y7136448D01*
X154061Y7050003D01*
X206044Y6972205D01*
X272205Y6906044D01*
X350003Y6854061D01*
X436448Y6818254D01*
X455440Y6814476D01*
X429061Y6774997D01*
X393254Y6688552D01*
X375000Y6596783D01*
X375000Y6503217D01*
X393254Y6411448D01*
X429061Y6325003D01*
X481044Y6247205D01*
X547205Y6181044D01*
X625003Y6129061D01*
X711448Y6093254D01*
X803217Y6075000D01*
X896783Y6075000D01*
X988552Y6093254D01*
X1074997Y6129061D01*
X1152795Y6181044D01*
X1218956Y6247205D01*
X1270939Y6325003D01*
X1306746Y6411448D01*
X1325000Y6503217D01*
X1325000Y6546783D01*
X1925000Y6546783D01*
X1925000Y6453217D01*
X1943254Y6361448D01*
X1979061Y6275003D01*
X2031044Y6197205D01*
X2097205Y6131044D01*
X2175003Y6079061D01*
X2261448Y6043254D01*
X2353217Y6025000D01*
X2446783Y6025000D01*
X2538552Y6043254D01*
X2624997Y6079061D01*
X2702795Y6131044D01*
X2768956Y6197205D01*
X2820939Y6275003D01*
X2830440Y6297940D01*
X2881044Y6222205D01*
X2947205Y6156044D01*
X3025003Y6104061D01*
X3111448Y6068254D01*
X3203217Y6050000D01*
X3296783Y6050000D01*
X3388552Y6068254D01*
X3474997Y6104061D01*
X3552795Y6156044D01*
X3618956Y6222205D01*
X3670939Y6300003D01*
X3706746Y6386448D01*
X3725000Y6478217D01*
X3725000Y6496783D01*
X4200000Y6496783D01*
X4200000Y6403217D01*
X4218254Y6311448D01*
X4254061Y6225003D01*
X4306044Y6147205D01*
X4372205Y6081044D01*
X4450003Y6029061D01*
X4536448Y5993254D01*
X4628217Y5975000D01*
X4721783Y5975000D01*
X4813552Y5993254D01*
X4899997Y6029061D01*
X4977795Y6081044D01*
X5043956Y6147205D01*
X5095939Y6225003D01*
X5131746Y6311448D01*
X5150000Y6403217D01*
X5150000Y6496783D01*
X5131746Y6588552D01*
X5095939Y6674997D01*
X5043956Y6752795D01*
X4977795Y6818956D01*
X4899997Y6870939D01*
X4813552Y6906746D01*
X4721783Y6925000D01*
X4628217Y6925000D01*
X4536448Y6906746D01*
X4450003Y6870939D01*
X4372205Y6818956D01*
X4306044Y6752795D01*
X4254061Y6674997D01*
X4218254Y6588552D01*
X4200000Y6496783D01*
X3725000Y6496783D01*
X3725000Y6571783D01*
X3706746Y6663552D01*
X3688233Y6708245D01*
X3738552Y6718254D01*
X3824997Y6754061D01*
X3902795Y6806044D01*
X3968956Y6872205D01*
X4020939Y6950003D01*
X4056746Y7036448D01*
X4075000Y7128217D01*
X4075000Y7221783D01*
X4056746Y7313552D01*
X4020939Y7399997D01*
X3968956Y7477795D01*
X3902795Y7543956D01*
X3824997Y7595939D01*
X3738552Y7631746D01*
X3646783Y7650000D01*
X3553217Y7650000D01*
X3461448Y7631746D01*
X3375003Y7595939D01*
X3297205Y7543956D01*
X3231044Y7477795D01*
X3179061Y7399997D01*
X3143254Y7313552D01*
X3125000Y7221783D01*
X3125000Y7128217D01*
X3143254Y7036448D01*
X3161767Y6991755D01*
X3111448Y6981746D01*
X3025003Y6945939D01*
X2947205Y6893956D01*
X2881044Y6827795D01*
X2829061Y6749997D01*
X2819560Y6727060D01*
X2768956Y6802795D01*
X2702795Y6868956D01*
X2624997Y6920939D01*
X2538552Y6956746D01*
X2446783Y6975000D01*
X2353217Y6975000D01*
X2261448Y6956746D01*
X2175003Y6920939D01*
X2097205Y6868956D01*
X2031044Y6802795D01*
X1979061Y6724997D01*
X1943254Y6638552D01*
X1925000Y6546783D01*
X1325000Y6546783D01*
X1325000Y6596783D01*
X1306746Y6688552D01*
X1270939Y6774997D01*
X1218956Y6852795D01*
X1152795Y6918956D01*
X1074997Y6970939D01*
X988552Y7006746D01*
X969560Y7010524D01*
X995939Y7050003D01*
X1031746Y7136448D01*
X1050000Y7228217D01*
X1050000Y7321783D01*
X1031746Y7413552D01*
X995939Y7499997D01*
X943956Y7577795D01*
X877795Y7643956D01*
X818834Y7683352D01*
X852795Y7706044D01*
X918956Y7772205D01*
X970939Y7850003D01*
X1006746Y7936448D01*
X1025000Y8028217D01*
X1025000Y8121783D01*
X1006746Y8213552D01*
X970939Y8299997D01*
X964735Y8309283D01*
X3487500Y8309283D01*
X3487500Y8215717D01*
X3505754Y8123948D01*
X3541561Y8037503D01*
X3593544Y7959705D01*
X3659705Y7893544D01*
X3737503Y7841561D01*
X3823948Y7805754D01*
X3915717Y7787500D01*
X4009283Y7787500D01*
X4101052Y7805754D01*
X4187497Y7841561D01*
X4265295Y7893544D01*
X4331456Y7959705D01*
X4383439Y8037503D01*
X4407993Y8096783D01*
X5675000Y8096783D01*
X5675000Y8003217D01*
X5693254Y7911448D01*
X5729061Y7825003D01*
X5781044Y7747205D01*
X5847205Y7681044D01*
X5925003Y7629061D01*
X6011448Y7593254D01*
X6103217Y7575000D01*
X6196783Y7575000D01*
X6288552Y7593254D01*
X6374997Y7629061D01*
X6452795Y7681044D01*
X6478962Y7707211D01*
X6633000Y7707211D01*
X6633000Y7512789D01*
X6670930Y7322103D01*
X6745332Y7142480D01*
X6853347Y6980824D01*
X6990824Y6843347D01*
X7152480Y6735332D01*
X7332103Y6660930D01*
X7522789Y6623000D01*
X7717211Y6623000D01*
X7907897Y6660930D01*
X8087520Y6735332D01*
X8249176Y6843347D01*
X8386653Y6980824D01*
X8494668Y7142480D01*
X8569070Y7322103D01*
X8607000Y7512789D01*
X8607000Y7707211D01*
X8569070Y7897897D01*
X8494668Y8077520D01*
X8386653Y8239176D01*
X8249176Y8376653D01*
X8087520Y8484668D01*
X7907897Y8559070D01*
X7717211Y8597000D01*
X7522789Y8597000D01*
X7332103Y8559070D01*
X7152480Y8484668D01*
X6990824Y8376653D01*
X6853347Y8239176D01*
X6745332Y8077520D01*
X6670930Y7897897D01*
X6633000Y7707211D01*
X6478962Y7707211D01*
X6518956Y7747205D01*
X6570939Y7825003D01*
X6606746Y7911448D01*
X6625000Y8003217D01*
X6625000Y8096783D01*
X6606746Y8188552D01*
X6570939Y8274997D01*
X6518956Y8352795D01*
X6452795Y8418956D01*
X6374997Y8470939D01*
X6288552Y8506746D01*
X6196783Y8525000D01*
X6103217Y8525000D01*
X6011448Y8506746D01*
X5925003Y8470939D01*
X5847205Y8418956D01*
X5781044Y8352795D01*
X5729061Y8274997D01*
X5693254Y8188552D01*
X5675000Y8096783D01*
X4407993Y8096783D01*
X4419246Y8123948D01*
X4437500Y8215717D01*
X4437500Y8309283D01*
X4436781Y8312895D01*
X4450003Y8304061D01*
X4536448Y8268254D01*
X4628217Y8250000D01*
X4721783Y8250000D01*
X4813552Y8268254D01*
X4899997Y8304061D01*
X4977795Y8356044D01*
X5043956Y8422205D01*
X5095939Y8500003D01*
X5131746Y8586448D01*
X5150000Y8678217D01*
X5150000Y8771783D01*
X5131746Y8863552D01*
X5095939Y8949997D01*
X5043956Y9027795D01*
X4977795Y9093956D01*
X4899997Y9145939D01*
X4817101Y9180276D01*
X6903420Y9180276D01*
X6977415Y8961025D01*
X7221719Y8858509D01*
X7481330Y8805624D01*
X7746269Y8804403D01*
X8006356Y8854892D01*
X8251596Y8955151D01*
X8262585Y8961025D01*
X8336580Y9180276D01*
X7620000Y9896856D01*
X6903420Y9180276D01*
X4817101Y9180276D01*
X4813552Y9181746D01*
X4721783Y9200000D01*
X4628217Y9200000D01*
X4536448Y9181746D01*
X4450003Y9145939D01*
X4372205Y9093956D01*
X4306044Y9027795D01*
X4254061Y8949997D01*
X4218254Y8863552D01*
X4200000Y8771783D01*
X4200000Y8678217D01*
X4200719Y8674605D01*
X4187497Y8683439D01*
X4101052Y8719246D01*
X4009283Y8737500D01*
X3915717Y8737500D01*
X3823948Y8719246D01*
X3737503Y8683439D01*
X3659705Y8631456D01*
X3593544Y8565295D01*
X3541561Y8487497D01*
X3505754Y8401052D01*
X3487500Y8309283D01*
X964735Y8309283D01*
X918956Y8377795D01*
X852795Y8443956D01*
X774997Y8495939D01*
X688552Y8531746D01*
X596783Y8550000D01*
X503217Y8550000D01*
X411448Y8531746D01*
X325003Y8495939D01*
X247205Y8443956D01*
X181044Y8377795D01*
X129061Y8299997D01*
X93254Y8213552D01*
X75000Y8121783D01*
X-105000Y8121783D01*
X-105000Y8133464D01*
X-123254Y8225233D01*
X-159061Y8311678D01*
X-211044Y8389476D01*
X-277205Y8455637D01*
X-355003Y8507620D01*
X-441448Y8543427D01*
X-533217Y8561681D01*
X-626783Y8561681D01*
X-718552Y8543427D01*
X-804997Y8507620D01*
X-882795Y8455637D01*
X-948956Y8389476D01*
X-1000939Y8311678D01*
X-1036746Y8225233D01*
X-1055000Y8133464D01*
X-6380944Y8133464D01*
X-6425151Y8241596D01*
X-6431025Y8252585D01*
X-6650276Y8326580D01*
X-7366856Y7610000D01*
X-7873144Y7610000D01*
X-8589724Y8326580D01*
X-8770000Y8265739D01*
X-8770000Y8579724D01*
X-8336580Y8579724D01*
X-7620000Y7863144D01*
X-6903420Y8579724D01*
X-6977415Y8798975D01*
X-7221719Y8901491D01*
X-7481330Y8954376D01*
X-7746269Y8955597D01*
X-8006356Y8905108D01*
X-8251596Y8804849D01*
X-8262585Y8798975D01*
X-8336580Y8579724D01*
X-8770000Y8579724D01*
X-8770000Y9014283D01*
X-5167500Y9014283D01*
X-5167500Y8920717D01*
X-5149246Y8828948D01*
X-5113439Y8742503D01*
X-5061456Y8664705D01*
X-4995295Y8598544D01*
X-4917497Y8546561D01*
X-4831052Y8510754D01*
X-4739283Y8492500D01*
X-4645717Y8492500D01*
X-4553948Y8510754D01*
X-4467503Y8546561D01*
X-4389705Y8598544D01*
X-4323544Y8664705D01*
X-4271561Y8742503D01*
X-4235754Y8828948D01*
X-4217500Y8920717D01*
X-4217500Y9014283D01*
X-4235754Y9106052D01*
X-4271561Y9192497D01*
X-4323544Y9270295D01*
X-4389705Y9336456D01*
X-4467503Y9388439D01*
X-4553948Y9424246D01*
X-4645717Y9442500D01*
X-4739283Y9442500D01*
X-4831052Y9424246D01*
X-4917497Y9388439D01*
X-4995295Y9336456D01*
X-5061456Y9270295D01*
X-5113439Y9192497D01*
X-5149246Y9106052D01*
X-5167500Y9014283D01*
X-8770000Y9014283D01*
X-8770000Y10247211D01*
X-8607000Y10247211D01*
X-8607000Y10052789D01*
X-8569070Y9862103D01*
X-8494668Y9682480D01*
X-8386653Y9520824D01*
X-8249176Y9383347D01*
X-8087520Y9275332D01*
X-7907897Y9200930D01*
X-7717211Y9163000D01*
X-7522789Y9163000D01*
X-7332103Y9200930D01*
X-7152480Y9275332D01*
X-6990824Y9383347D01*
X-6853347Y9520824D01*
X-6745332Y9682480D01*
X-6697987Y9796783D01*
X-3275000Y9796783D01*
X-3275000Y9703217D01*
X-3256746Y9611448D01*
X-3220939Y9525003D01*
X-3168956Y9447205D01*
X-3102795Y9381044D01*
X-3024997Y9329061D01*
X-2938552Y9293254D01*
X-2846783Y9275000D01*
X-2753217Y9275000D01*
X-2661448Y9293254D01*
X-2575003Y9329061D01*
X-2497205Y9381044D01*
X-2431044Y9447205D01*
X-2379061Y9525003D01*
X-2343254Y9611448D01*
X-2325000Y9703217D01*
X-2325000Y9796783D01*
X-2332956Y9836783D01*
X-1395000Y9836783D01*
X-1395000Y9743217D01*
X-1376746Y9651448D01*
X-1340939Y9565003D01*
X-1288956Y9487205D01*
X-1222795Y9421044D01*
X-1144997Y9369061D01*
X-1058552Y9333254D01*
X-966783Y9315000D01*
X-873217Y9315000D01*
X-781448Y9333254D01*
X-695003Y9369061D01*
X-617205Y9421044D01*
X-551044Y9487205D01*
X-544645Y9496783D01*
X-225000Y9496783D01*
X-225000Y9403217D01*
X-206746Y9311448D01*
X-170939Y9225003D01*
X-118956Y9147205D01*
X-52795Y9081044D01*
X25003Y9029061D01*
X111448Y8993254D01*
X203217Y8975000D01*
X296783Y8975000D01*
X388552Y8993254D01*
X474997Y9029061D01*
X552795Y9081044D01*
X618956Y9147205D01*
X670939Y9225003D01*
X706746Y9311448D01*
X725000Y9403217D01*
X725000Y9496783D01*
X706746Y9588552D01*
X670939Y9674997D01*
X618956Y9752795D01*
X574968Y9796783D01*
X2325000Y9796783D01*
X2325000Y9703217D01*
X2343254Y9611448D01*
X2379061Y9525003D01*
X2431044Y9447205D01*
X2497205Y9381044D01*
X2575003Y9329061D01*
X2661448Y9293254D01*
X2753217Y9275000D01*
X2846783Y9275000D01*
X2938552Y9293254D01*
X3024997Y9329061D01*
X3102795Y9381044D01*
X3168956Y9447205D01*
X3220939Y9525003D01*
X3256746Y9611448D01*
X3275000Y9703217D01*
X3275000Y9796783D01*
X3270028Y9821783D01*
X5150000Y9821783D01*
X5150000Y9728217D01*
X5168254Y9636448D01*
X5204061Y9550003D01*
X5256044Y9472205D01*
X5322205Y9406044D01*
X5400003Y9354061D01*
X5486448Y9318254D01*
X5578217Y9300000D01*
X5671783Y9300000D01*
X5763552Y9318254D01*
X5849997Y9354061D01*
X5927795Y9406044D01*
X5993956Y9472205D01*
X6045939Y9550003D01*
X6081746Y9636448D01*
X6100000Y9728217D01*
X6100000Y9821783D01*
X6081746Y9913552D01*
X6045939Y9999997D01*
X6030081Y10023731D01*
X6274403Y10023731D01*
X6324892Y9763644D01*
X6425151Y9518404D01*
X6431025Y9507415D01*
X6650276Y9433420D01*
X7366856Y10150000D01*
X6650276Y10866580D01*
X6431025Y10792585D01*
X6328509Y10548281D01*
X6275624Y10288670D01*
X6274403Y10023731D01*
X6030081Y10023731D01*
X5993956Y10077795D01*
X5927795Y10143956D01*
X5849997Y10195939D01*
X5763552Y10231746D01*
X5671783Y10250000D01*
X5578217Y10250000D01*
X5486448Y10231746D01*
X5400003Y10195939D01*
X5322205Y10143956D01*
X5256044Y10077795D01*
X5204061Y9999997D01*
X5168254Y9913552D01*
X5150000Y9821783D01*
X3270028Y9821783D01*
X3256746Y9888552D01*
X3220939Y9974997D01*
X3168956Y10052795D01*
X3102795Y10118956D01*
X3024997Y10170939D01*
X2938552Y10206746D01*
X2846783Y10225000D01*
X2753217Y10225000D01*
X2661448Y10206746D01*
X2575003Y10170939D01*
X2497205Y10118956D01*
X2431044Y10052795D01*
X2379061Y9974997D01*
X2343254Y9888552D01*
X2325000Y9796783D01*
X574968Y9796783D01*
X552795Y9818956D01*
X474997Y9870939D01*
X388552Y9906746D01*
X296783Y9925000D01*
X203217Y9925000D01*
X111448Y9906746D01*
X25003Y9870939D01*
X-52795Y9818956D01*
X-118956Y9752795D01*
X-170939Y9674997D01*
X-206746Y9588552D01*
X-225000Y9496783D01*
X-544645Y9496783D01*
X-499061Y9565003D01*
X-463254Y9651448D01*
X-445000Y9743217D01*
X-445000Y9836783D01*
X-463254Y9928552D01*
X-499061Y10014997D01*
X-551044Y10092795D01*
X-617205Y10158956D01*
X-695003Y10210939D01*
X-781448Y10246746D01*
X-873217Y10265000D01*
X-966783Y10265000D01*
X-1058552Y10246746D01*
X-1144997Y10210939D01*
X-1222795Y10158956D01*
X-1288956Y10092795D01*
X-1340939Y10014997D01*
X-1376746Y9928552D01*
X-1395000Y9836783D01*
X-2332956Y9836783D01*
X-2343254Y9888552D01*
X-2379061Y9974997D01*
X-2431044Y10052795D01*
X-2497205Y10118956D01*
X-2575003Y10170939D01*
X-2661448Y10206746D01*
X-2753217Y10225000D01*
X-2846783Y10225000D01*
X-2938552Y10206746D01*
X-3024997Y10170939D01*
X-3102795Y10118956D01*
X-3168956Y10052795D01*
X-3220939Y9974997D01*
X-3256746Y9888552D01*
X-3275000Y9796783D01*
X-6697987Y9796783D01*
X-6670930Y9862103D01*
X-6633000Y10052789D01*
X-6633000Y10247211D01*
X-6670930Y10437897D01*
X-6745332Y10617520D01*
X-6853347Y10779176D01*
X-6990824Y10916653D01*
X-7152480Y11024668D01*
X-7332103Y11099070D01*
X-7522789Y11137000D01*
X-7717211Y11137000D01*
X-7907897Y11099070D01*
X-8087520Y11024668D01*
X-8249176Y10916653D01*
X-8386653Y10779176D01*
X-8494668Y10617520D01*
X-8569070Y10437897D01*
X-8607000Y10247211D01*
X-8770000Y10247211D01*
X-8770000Y12787211D01*
X-8607000Y12787211D01*
X-8607000Y12592789D01*
X-8569070Y12402103D01*
X-8494668Y12222480D01*
X-8386653Y12060824D01*
X-8249176Y11923347D01*
X-8087520Y11815332D01*
X-7907897Y11740930D01*
X-7717211Y11703000D01*
X-7522789Y11703000D01*
X-7332103Y11740930D01*
X-7152480Y11815332D01*
X-6990824Y11923347D01*
X-6853347Y12060824D01*
X-6745332Y12222480D01*
X-6670930Y12402103D01*
X-6633000Y12592789D01*
X-6633000Y12787211D01*
X-6670930Y12977897D01*
X-6745332Y13157520D01*
X-6853347Y13319176D01*
X-6990824Y13456653D01*
X-7152480Y13564668D01*
X-7332103Y13639070D01*
X-7522789Y13677000D01*
X-7717211Y13677000D01*
X-7907897Y13639070D01*
X-8087520Y13564668D01*
X-8249176Y13456653D01*
X-8386653Y13319176D01*
X-8494668Y13157520D01*
X-8569070Y12977897D01*
X-8607000Y12787211D01*
X-8770000Y12787211D01*
X-8770000Y14260276D01*
X-8336580Y14260276D01*
X-8262585Y14041025D01*
X-8018281Y13938509D01*
X-7758670Y13885624D01*
X-7493731Y13884403D01*
X-7233644Y13934892D01*
X-6988404Y14035151D01*
X-6977415Y14041025D01*
X-6903420Y14260276D01*
X-7620000Y14976856D01*
X-8336580Y14260276D01*
X-8770000Y14260276D01*
X-8770000Y14574261D01*
X-8589724Y14513420D01*
X-7873144Y15230000D01*
X-7887287Y15244143D01*
X-7634143Y15497287D01*
X-7620000Y15483144D01*
X-6903420Y16199724D01*
X-6971011Y16400000D01*
X-6162624Y16400000D01*
X-6180731Y16377936D01*
%TA.AperFunction,Conductor*%
D17*
G36*
X-6180731Y16377936D02*
G01*
X-6248053Y16251987D01*
X-6289509Y16115324D01*
X-6300000Y16008806D01*
X-6300000Y15488126D01*
X-6324892Y15616356D01*
X-6425151Y15861596D01*
X-6431025Y15872585D01*
X-6650276Y15946580D01*
X-7366856Y15230000D01*
X-6650276Y14513420D01*
X-6431025Y14587415D01*
X-6328509Y14831719D01*
X-6299999Y14971673D01*
X-6299999Y14737593D01*
X-6289508Y14631075D01*
X-6248052Y14494412D01*
X-6180730Y14368463D01*
X-6090131Y14258068D01*
X-5979736Y14167469D01*
X-5853787Y14100147D01*
X-5717124Y14058691D01*
X-5575000Y14044693D01*
X-5432875Y14058691D01*
X-5296212Y14100147D01*
X-5170263Y14167469D01*
X-5059868Y14258068D01*
X-4969269Y14368463D01*
X-4901947Y14494412D01*
X-4860491Y14631075D01*
X-4850000Y14737593D01*
X-4849999Y12062284D01*
X-4850000Y12062274D01*
X-4850000Y11908807D01*
X-4860491Y12015325D01*
X-4901947Y12151988D01*
X-4969269Y12277937D01*
X-5059869Y12388332D01*
X-5170264Y12478931D01*
X-5296213Y12546253D01*
X-5432876Y12587709D01*
X-5575000Y12601707D01*
X-5717125Y12587709D01*
X-5853788Y12546253D01*
X-5979737Y12478931D01*
X-6090132Y12388331D01*
X-6180731Y12277936D01*
X-6248053Y12151987D01*
X-6289509Y12015324D01*
X-6300000Y11908806D01*
X-6300000Y11037593D01*
X-6289509Y10931075D01*
X-6248052Y10794412D01*
X-6180730Y10668463D01*
X-6090131Y10558068D01*
X-5979736Y10467469D01*
X-5853787Y10400147D01*
X-5717124Y10358691D01*
X-5575000Y10344693D01*
X-5432875Y10358691D01*
X-5296212Y10400147D01*
X-5170263Y10467469D01*
X-5059868Y10558068D01*
X-4969269Y10668463D01*
X-4901947Y10794412D01*
X-4860491Y10931075D01*
X-4850000Y11037593D01*
X-4850000Y11137726D01*
X-4846382Y11100992D01*
X-4832087Y11053866D01*
X-4808873Y11010436D01*
X-4777632Y10972368D01*
X-4739564Y10941127D01*
X-4696134Y10917913D01*
X-4649008Y10903618D01*
X-4612275Y10900000D01*
X-4600000Y10898791D01*
X-4587725Y10900000D01*
X4587725Y10900000D01*
X4600000Y10898791D01*
X4612275Y10900000D01*
X4649008Y10903618D01*
X4696134Y10917913D01*
X4739564Y10941127D01*
X4777632Y10972368D01*
X4808873Y11010436D01*
X4832087Y11053866D01*
X4846382Y11100992D01*
X4850600Y11143817D01*
X4850600Y11037593D01*
X4861091Y10931075D01*
X4902548Y10794412D01*
X4969870Y10668463D01*
X5060469Y10558068D01*
X5170864Y10467469D01*
X5296813Y10400147D01*
X5433476Y10358691D01*
X5575600Y10344693D01*
X5717725Y10358691D01*
X5854388Y10400147D01*
X5980337Y10467469D01*
X6090732Y10558068D01*
X6181331Y10668463D01*
X6248653Y10794412D01*
X6290109Y10931075D01*
X6300600Y11037593D01*
X6300600Y11119724D01*
X6903420Y11119724D01*
X7620000Y10403144D01*
X8336580Y11119724D01*
X8262585Y11338975D01*
X8018281Y11441491D01*
X7758670Y11494376D01*
X7493731Y11495597D01*
X7233644Y11445108D01*
X6988404Y11344849D01*
X6977415Y11338975D01*
X6903420Y11119724D01*
X6300600Y11119724D01*
X6300600Y11908807D01*
X6290109Y12015325D01*
X6248653Y12151988D01*
X6181331Y12277937D01*
X6090731Y12388332D01*
X5980336Y12478931D01*
X5854387Y12546253D01*
X5717724Y12587709D01*
X5575600Y12601707D01*
X5433475Y12587709D01*
X5296812Y12546253D01*
X5170863Y12478931D01*
X5060468Y12388331D01*
X4969869Y12277936D01*
X4902547Y12151987D01*
X4861091Y12015324D01*
X4850600Y11908806D01*
X4850600Y11156183D01*
X4850000Y11162275D01*
X4850000Y12787211D01*
X6633000Y12787211D01*
X6633000Y12592789D01*
X6670930Y12402103D01*
X6745332Y12222480D01*
X6853347Y12060824D01*
X6990824Y11923347D01*
X7152480Y11815332D01*
X7332103Y11740930D01*
X7522789Y11703000D01*
X7717211Y11703000D01*
X7907897Y11740930D01*
X8087520Y11815332D01*
X8249176Y11923347D01*
X8386653Y12060824D01*
X8494668Y12222480D01*
X8569070Y12402103D01*
X8607000Y12592789D01*
X8607000Y12787211D01*
X8569070Y12977897D01*
X8494668Y13157520D01*
X8386653Y13319176D01*
X8249176Y13456653D01*
X8087520Y13564668D01*
X7907897Y13639070D01*
X7717211Y13677000D01*
X7522789Y13677000D01*
X7332103Y13639070D01*
X7152480Y13564668D01*
X6990824Y13456653D01*
X6853347Y13319176D01*
X6745332Y13157520D01*
X6670930Y12977897D01*
X6633000Y12787211D01*
X4850000Y12787211D01*
X4850000Y16400000D01*
X4987976Y16400000D01*
X4969869Y16377936D01*
X4902547Y16251987D01*
X4861091Y16115324D01*
X4850600Y16008806D01*
X4850601Y14737593D01*
X4861092Y14631075D01*
X4902548Y14494412D01*
X4969870Y14368463D01*
X5060469Y14258068D01*
X5170864Y14167469D01*
X5296813Y14100147D01*
X5433476Y14058691D01*
X5575600Y14044693D01*
X5717725Y14058691D01*
X5854388Y14100147D01*
X5980337Y14167469D01*
X6090732Y14258068D01*
X6181331Y14368463D01*
X6248653Y14494412D01*
X6290109Y14631075D01*
X6300600Y14737593D01*
X6300600Y15327211D01*
X6633000Y15327211D01*
X6633000Y15132789D01*
X6670930Y14942103D01*
X6745332Y14762480D01*
X6853347Y14600824D01*
X6990824Y14463347D01*
X7152480Y14355332D01*
X7332103Y14280930D01*
X7522789Y14243000D01*
X7717211Y14243000D01*
X7907897Y14280930D01*
X8087520Y14355332D01*
X8249176Y14463347D01*
X8386653Y14600824D01*
X8494668Y14762480D01*
X8569070Y14942103D01*
X8607000Y15132789D01*
X8607000Y15327211D01*
X8569070Y15517897D01*
X8494668Y15697520D01*
X8386653Y15859176D01*
X8249176Y15996653D01*
X8087520Y16104668D01*
X7907897Y16179070D01*
X7717211Y16217000D01*
X7522789Y16217000D01*
X7332103Y16179070D01*
X7152480Y16104668D01*
X6990824Y15996653D01*
X6853347Y15859176D01*
X6745332Y15697520D01*
X6670930Y15517897D01*
X6633000Y15327211D01*
X6300600Y15327211D01*
X6300600Y16008807D01*
X6290109Y16115325D01*
X6248653Y16251988D01*
X6181331Y16377937D01*
X6163224Y16400000D01*
X7607771Y16400000D01*
X7843137Y16376922D01*
X8057775Y16312119D01*
X8255739Y16206860D01*
X8429485Y16065156D01*
X8572399Y15892402D01*
X8679036Y15695181D01*
X8745338Y15480994D01*
X8770000Y15246352D01*
X8770000Y10805739D01*
X8589724Y10866580D01*
X7873144Y10150000D01*
X8589724Y9433420D01*
X8770000Y9494261D01*
X8770001Y1987725D01*
X8770086Y1986863D01*
X8770102Y1984563D01*
X8771289Y1973274D01*
X8771289Y1961923D01*
X8771654Y1958451D01*
X8775000Y1928620D01*
X8775000Y-1936777D01*
X8771193Y-1975604D01*
X8771193Y-1975614D01*
X8770000Y-1987726D01*
X8770001Y-11325000D01*
X-8770000Y-11325000D01*
X-8770000Y-10072789D01*
X-8607000Y-10072789D01*
X-8607000Y-10267211D01*
X-8569070Y-10457897D01*
X-8494668Y-10637520D01*
X-8386653Y-10799176D01*
X-8249176Y-10936653D01*
X-8087520Y-11044668D01*
X-7907897Y-11119070D01*
X-7717211Y-11157000D01*
X-7522789Y-11157000D01*
X-7332103Y-11119070D01*
X-7152480Y-11044668D01*
X-6990824Y-10936653D01*
X-6853347Y-10799176D01*
X-6745332Y-10637520D01*
X-6670930Y-10457897D01*
X-6655081Y-10378217D01*
X-3175000Y-10378217D01*
X-3175000Y-10471783D01*
X-3156746Y-10563552D01*
X-3120939Y-10649997D01*
X-3068956Y-10727795D01*
X-3002795Y-10793956D01*
X-2924997Y-10845939D01*
X-2838552Y-10881746D01*
X-2746783Y-10900000D01*
X-2653217Y-10900000D01*
X-2561448Y-10881746D01*
X-2475003Y-10845939D01*
X-2397205Y-10793956D01*
X-2331044Y-10727795D01*
X-2279061Y-10649997D01*
X-2243254Y-10563552D01*
X-2241199Y-10553217D01*
X-1425000Y-10553217D01*
X-1425000Y-10646783D01*
X-1406746Y-10738552D01*
X-1370939Y-10824997D01*
X-1318956Y-10902795D01*
X-1252795Y-10968956D01*
X-1174997Y-11020939D01*
X-1088552Y-11056746D01*
X-996783Y-11075000D01*
X-903217Y-11075000D01*
X-811448Y-11056746D01*
X-725003Y-11020939D01*
X-647205Y-10968956D01*
X-581044Y-10902795D01*
X-529061Y-10824997D01*
X-493254Y-10738552D01*
X-475000Y-10646783D01*
X-475000Y-10553217D01*
X-493254Y-10461448D01*
X-529061Y-10375003D01*
X-581044Y-10297205D01*
X-647205Y-10231044D01*
X-725003Y-10179061D01*
X-811448Y-10143254D01*
X-903217Y-10125000D01*
X-996783Y-10125000D01*
X-1088552Y-10143254D01*
X-1174997Y-10179061D01*
X-1252795Y-10231044D01*
X-1318956Y-10297205D01*
X-1370939Y-10375003D01*
X-1406746Y-10461448D01*
X-1425000Y-10553217D01*
X-2241199Y-10553217D01*
X-2225000Y-10471783D01*
X-2225000Y-10378217D01*
X-2243254Y-10286448D01*
X-2279061Y-10200003D01*
X-2331044Y-10122205D01*
X-2380460Y-10072789D01*
X6633000Y-10072789D01*
X6633000Y-10267211D01*
X6670930Y-10457897D01*
X6745332Y-10637520D01*
X6853347Y-10799176D01*
X6990824Y-10936653D01*
X7152480Y-11044668D01*
X7332103Y-11119070D01*
X7522789Y-11157000D01*
X7717211Y-11157000D01*
X7907897Y-11119070D01*
X8087520Y-11044668D01*
X8249176Y-10936653D01*
X8386653Y-10799176D01*
X8494668Y-10637520D01*
X8569070Y-10457897D01*
X8607000Y-10267211D01*
X8607000Y-10072789D01*
X8569070Y-9882103D01*
X8494668Y-9702480D01*
X8386653Y-9540824D01*
X8249176Y-9403347D01*
X8087520Y-9295332D01*
X7907897Y-9220930D01*
X7717211Y-9183000D01*
X7522789Y-9183000D01*
X7332103Y-9220930D01*
X7152480Y-9295332D01*
X6990824Y-9403347D01*
X6853347Y-9540824D01*
X6745332Y-9702480D01*
X6670930Y-9882103D01*
X6633000Y-10072789D01*
X-2380460Y-10072789D01*
X-2397205Y-10056044D01*
X-2475003Y-10004061D01*
X-2561448Y-9968254D01*
X-2653217Y-9950000D01*
X-2746783Y-9950000D01*
X-2838552Y-9968254D01*
X-2924997Y-10004061D01*
X-3002795Y-10056044D01*
X-3068956Y-10122205D01*
X-3120939Y-10200003D01*
X-3156746Y-10286448D01*
X-3175000Y-10378217D01*
X-6655081Y-10378217D01*
X-6633000Y-10267211D01*
X-6633000Y-10072789D01*
X-6670930Y-9882103D01*
X-6745332Y-9702480D01*
X-6853347Y-9540824D01*
X-6990824Y-9403347D01*
X-7152480Y-9295332D01*
X-7332103Y-9220930D01*
X-7522789Y-9183000D01*
X-7717211Y-9183000D01*
X-7907897Y-9220930D01*
X-8087520Y-9295332D01*
X-8249176Y-9403347D01*
X-8386653Y-9540824D01*
X-8494668Y-9702480D01*
X-8569070Y-9882103D01*
X-8607000Y-10072789D01*
X-8770000Y-10072789D01*
X-8770000Y-7532789D01*
X-8607000Y-7532789D01*
X-8607000Y-7727211D01*
X-8569070Y-7917897D01*
X-8494668Y-8097520D01*
X-8386653Y-8259176D01*
X-8249176Y-8396653D01*
X-8087520Y-8504668D01*
X-7907897Y-8579070D01*
X-7717211Y-8617000D01*
X-7522789Y-8617000D01*
X-7332103Y-8579070D01*
X-7152480Y-8504668D01*
X-6990824Y-8396653D01*
X-6853347Y-8259176D01*
X-6745332Y-8097520D01*
X-6706271Y-8003217D01*
X-6550000Y-8003217D01*
X-6550000Y-8096783D01*
X-6531746Y-8188552D01*
X-6495939Y-8274997D01*
X-6443956Y-8352795D01*
X-6377795Y-8418956D01*
X-6299997Y-8470939D01*
X-6213552Y-8506746D01*
X-6121783Y-8525000D01*
X-6028217Y-8525000D01*
X-5936448Y-8506746D01*
X-5850003Y-8470939D01*
X-5838447Y-8463217D01*
X-3795000Y-8463217D01*
X-3795000Y-8556783D01*
X-3776746Y-8648552D01*
X-3740939Y-8734997D01*
X-3688956Y-8812795D01*
X-3622795Y-8878956D01*
X-3544997Y-8930939D01*
X-3458552Y-8966746D01*
X-3366783Y-8985000D01*
X-3273217Y-8985000D01*
X-3181448Y-8966746D01*
X-3095003Y-8930939D01*
X-3017205Y-8878956D01*
X-2951044Y-8812795D01*
X-2899061Y-8734997D01*
X-2863254Y-8648552D01*
X-2852248Y-8593217D01*
X-2735000Y-8593217D01*
X-2735000Y-8686783D01*
X-2716746Y-8778552D01*
X-2680939Y-8864997D01*
X-2628956Y-8942795D01*
X-2562795Y-9008956D01*
X-2484997Y-9060939D01*
X-2398552Y-9096746D01*
X-2306783Y-9115000D01*
X-2213217Y-9115000D01*
X-2121448Y-9096746D01*
X-2035003Y-9060939D01*
X-1957205Y-9008956D01*
X-1891044Y-8942795D01*
X-1887545Y-8937559D01*
X-1843956Y-9002795D01*
X-1777795Y-9068956D01*
X-1699997Y-9120939D01*
X-1613552Y-9156746D01*
X-1521783Y-9175000D01*
X-1428217Y-9175000D01*
X-1336448Y-9156746D01*
X-1250003Y-9120939D01*
X-1172205Y-9068956D01*
X-1106044Y-9002795D01*
X-1054061Y-8924997D01*
X-1018254Y-8838552D01*
X-1000000Y-8746783D01*
X-1000000Y-8653217D01*
X-1018254Y-8561448D01*
X-1054061Y-8475003D01*
X-1106044Y-8397205D01*
X-1172205Y-8331044D01*
X-1250003Y-8279061D01*
X-1336448Y-8243254D01*
X-1428217Y-8225000D01*
X-1521783Y-8225000D01*
X-1613552Y-8243254D01*
X-1699997Y-8279061D01*
X-1777795Y-8331044D01*
X-1843956Y-8397205D01*
X-1847455Y-8402441D01*
X-1891044Y-8337205D01*
X-1957205Y-8271044D01*
X-2035003Y-8219061D01*
X-2121448Y-8183254D01*
X-2213217Y-8165000D01*
X-2306783Y-8165000D01*
X-2398552Y-8183254D01*
X-2484997Y-8219061D01*
X-2562795Y-8271044D01*
X-2628956Y-8337205D01*
X-2680939Y-8415003D01*
X-2716746Y-8501448D01*
X-2735000Y-8593217D01*
X-2852248Y-8593217D01*
X-2845000Y-8556783D01*
X-2845000Y-8463217D01*
X-2863254Y-8371448D01*
X-2899061Y-8285003D01*
X-2951044Y-8207205D01*
X-3017205Y-8141044D01*
X-3095003Y-8089061D01*
X-3181448Y-8053254D01*
X-3273217Y-8035000D01*
X-3366783Y-8035000D01*
X-3458552Y-8053254D01*
X-3544997Y-8089061D01*
X-3622795Y-8141044D01*
X-3688956Y-8207205D01*
X-3740939Y-8285003D01*
X-3776746Y-8371448D01*
X-3795000Y-8463217D01*
X-5838447Y-8463217D01*
X-5772205Y-8418956D01*
X-5706044Y-8352795D01*
X-5654061Y-8274997D01*
X-5618254Y-8188552D01*
X-5600000Y-8096783D01*
X-5600000Y-8003217D01*
X-5618254Y-7911448D01*
X-5654061Y-7825003D01*
X-5706044Y-7747205D01*
X-5772205Y-7681044D01*
X-5850003Y-7629061D01*
X-5936448Y-7593254D01*
X-6028217Y-7575000D01*
X-6121783Y-7575000D01*
X-6213552Y-7593254D01*
X-6299997Y-7629061D01*
X-6377795Y-7681044D01*
X-6443956Y-7747205D01*
X-6495939Y-7825003D01*
X-6531746Y-7911448D01*
X-6550000Y-8003217D01*
X-6706271Y-8003217D01*
X-6670930Y-7917897D01*
X-6633000Y-7727211D01*
X-6633000Y-7532789D01*
X-6670930Y-7342103D01*
X-6745332Y-7162480D01*
X-6853347Y-7000824D01*
X-6990824Y-6863347D01*
X-7152480Y-6755332D01*
X-7332103Y-6680930D01*
X-7522789Y-6643000D01*
X-7717211Y-6643000D01*
X-7907897Y-6680930D01*
X-8087520Y-6755332D01*
X-8249176Y-6863347D01*
X-8386653Y-7000824D01*
X-8494668Y-7162480D01*
X-8569070Y-7342103D01*
X-8607000Y-7532789D01*
X-8770000Y-7532789D01*
X-8770000Y-4992789D01*
X-8607000Y-4992789D01*
X-8607000Y-5187211D01*
X-8569070Y-5377897D01*
X-8494668Y-5557520D01*
X-8386653Y-5719176D01*
X-8249176Y-5856653D01*
X-8087520Y-5964668D01*
X-7907897Y-6039070D01*
X-7717211Y-6077000D01*
X-7522789Y-6077000D01*
X-7332103Y-6039070D01*
X-7152480Y-5964668D01*
X-6990824Y-5856653D01*
X-6853347Y-5719176D01*
X-6745332Y-5557520D01*
X-6670930Y-5377897D01*
X-6633000Y-5187211D01*
X-6633000Y-4992789D01*
X-6670930Y-4802103D01*
X-6745332Y-4622480D01*
X-6853347Y-4460824D01*
X-6910954Y-4403217D01*
X-4950000Y-4403217D01*
X-4950000Y-4496783D01*
X-4931746Y-4588552D01*
X-4895939Y-4674997D01*
X-4843956Y-4752795D01*
X-4794251Y-4802500D01*
X-4838956Y-4847205D01*
X-4890939Y-4925003D01*
X-4926746Y-5011448D01*
X-4945000Y-5103217D01*
X-4945000Y-5196783D01*
X-4926746Y-5288552D01*
X-4890939Y-5374997D01*
X-4838956Y-5452795D01*
X-4772795Y-5518956D01*
X-4694997Y-5570939D01*
X-4665082Y-5583331D01*
X-4678956Y-5597205D01*
X-4730939Y-5675003D01*
X-4766746Y-5761448D01*
X-4785000Y-5853217D01*
X-4785000Y-5946783D01*
X-4766746Y-6038552D01*
X-4730939Y-6124997D01*
X-4678956Y-6202795D01*
X-4612795Y-6268956D01*
X-4534997Y-6320939D01*
X-4448552Y-6356746D01*
X-4356783Y-6375000D01*
X-4265000Y-6375000D01*
X-4265000Y-6436783D01*
X-4255472Y-6484685D01*
X-4298552Y-6493254D01*
X-4384997Y-6529061D01*
X-4462795Y-6581044D01*
X-4528956Y-6647205D01*
X-4580939Y-6725003D01*
X-4616746Y-6811448D01*
X-4635000Y-6903217D01*
X-4635000Y-6996783D01*
X-4616746Y-7088552D01*
X-4580939Y-7174997D01*
X-4528956Y-7252795D01*
X-4462795Y-7318956D01*
X-4384997Y-7370939D01*
X-4350222Y-7385343D01*
X-4381746Y-7461448D01*
X-4400000Y-7553217D01*
X-4400000Y-7646783D01*
X-4381746Y-7738552D01*
X-4345939Y-7824997D01*
X-4293956Y-7902795D01*
X-4227795Y-7968956D01*
X-4149997Y-8020939D01*
X-4063552Y-8056746D01*
X-3971783Y-8075000D01*
X-3878217Y-8075000D01*
X-3786448Y-8056746D01*
X-3700003Y-8020939D01*
X-3622205Y-7968956D01*
X-3556044Y-7902795D01*
X-3504061Y-7824997D01*
X-3468254Y-7738552D01*
X-3450000Y-7646783D01*
X-3450000Y-7553217D01*
X-3468254Y-7461448D01*
X-3477876Y-7438217D01*
X-3065000Y-7438217D01*
X-3065000Y-7531783D01*
X-3046746Y-7623552D01*
X-3010939Y-7709997D01*
X-2958956Y-7787795D01*
X-2892795Y-7853956D01*
X-2814997Y-7905939D01*
X-2728552Y-7941746D01*
X-2636783Y-7960000D01*
X-2543217Y-7960000D01*
X-2451448Y-7941746D01*
X-2365003Y-7905939D01*
X-2287205Y-7853956D01*
X-2221044Y-7787795D01*
X-2191258Y-7743217D01*
X-415000Y-7743217D01*
X-415000Y-7836783D01*
X-396746Y-7928552D01*
X-360939Y-8014997D01*
X-308956Y-8092795D01*
X-242795Y-8158956D01*
X-164997Y-8210939D01*
X-78552Y-8246746D01*
X13217Y-8265000D01*
X106783Y-8265000D01*
X198552Y-8246746D01*
X284997Y-8210939D01*
X296553Y-8203217D01*
X1695000Y-8203217D01*
X1695000Y-8296783D01*
X1713254Y-8388552D01*
X1749061Y-8474997D01*
X1801044Y-8552795D01*
X1867205Y-8618956D01*
X1945003Y-8670939D01*
X2031448Y-8706746D01*
X2123217Y-8725000D01*
X2216783Y-8725000D01*
X2308552Y-8706746D01*
X2394997Y-8670939D01*
X2472795Y-8618956D01*
X2538956Y-8552795D01*
X2590939Y-8474997D01*
X2626746Y-8388552D01*
X2645000Y-8296783D01*
X2645000Y-8203217D01*
X2635055Y-8153217D01*
X5075000Y-8153217D01*
X5075000Y-8246783D01*
X5093254Y-8338552D01*
X5129061Y-8424997D01*
X5181044Y-8502795D01*
X5247205Y-8568956D01*
X5325003Y-8620939D01*
X5411448Y-8656746D01*
X5503217Y-8675000D01*
X5596783Y-8675000D01*
X5688552Y-8656746D01*
X5774997Y-8620939D01*
X5852795Y-8568956D01*
X5918956Y-8502795D01*
X5970939Y-8424997D01*
X6006746Y-8338552D01*
X6025000Y-8246783D01*
X6025000Y-8153217D01*
X6006746Y-8061448D01*
X5970939Y-7975003D01*
X5918956Y-7897205D01*
X5852795Y-7831044D01*
X5774997Y-7779061D01*
X5688552Y-7743254D01*
X5596783Y-7725000D01*
X5503217Y-7725000D01*
X5411448Y-7743254D01*
X5325003Y-7779061D01*
X5247205Y-7831044D01*
X5181044Y-7897205D01*
X5129061Y-7975003D01*
X5093254Y-8061448D01*
X5075000Y-8153217D01*
X2635055Y-8153217D01*
X2626746Y-8111448D01*
X2603364Y-8055000D01*
X2696783Y-8055000D01*
X2788552Y-8036746D01*
X2874997Y-8000939D01*
X2952795Y-7948956D01*
X3018956Y-7882795D01*
X3070939Y-7804997D01*
X3106746Y-7718552D01*
X3125000Y-7626783D01*
X3125000Y-7533217D01*
X3106746Y-7441448D01*
X3070939Y-7355003D01*
X3018956Y-7277205D01*
X2952795Y-7211044D01*
X2874997Y-7159061D01*
X2788552Y-7123254D01*
X2705097Y-7106654D01*
X2768956Y-7042795D01*
X2820939Y-6964997D01*
X2856746Y-6878552D01*
X2861785Y-6853217D01*
X3255000Y-6853217D01*
X3255000Y-6946783D01*
X3273254Y-7038552D01*
X3309061Y-7124997D01*
X3361044Y-7202795D01*
X3427205Y-7268956D01*
X3505003Y-7320939D01*
X3591448Y-7356746D01*
X3683217Y-7375000D01*
X3776783Y-7375000D01*
X3868552Y-7356746D01*
X3954997Y-7320939D01*
X4032795Y-7268956D01*
X4098956Y-7202795D01*
X4150939Y-7124997D01*
X4186746Y-7038552D01*
X4195000Y-6997056D01*
X4195000Y-7630000D01*
X4196441Y-7644632D01*
X4200709Y-7658701D01*
X4207640Y-7671668D01*
X4216967Y-7683033D01*
X4228332Y-7692360D01*
X4241299Y-7699291D01*
X4255368Y-7703559D01*
X4270000Y-7705000D01*
X6630000Y-7705000D01*
X6633000Y-7704705D01*
X6633000Y-7727211D01*
X6670930Y-7917897D01*
X6745332Y-8097520D01*
X6853347Y-8259176D01*
X6990824Y-8396653D01*
X7152480Y-8504668D01*
X7332103Y-8579070D01*
X7522789Y-8617000D01*
X7717211Y-8617000D01*
X7907897Y-8579070D01*
X8087520Y-8504668D01*
X8249176Y-8396653D01*
X8386653Y-8259176D01*
X8494668Y-8097520D01*
X8569070Y-7917897D01*
X8607000Y-7727211D01*
X8607000Y-7532789D01*
X8569070Y-7342103D01*
X8494668Y-7162480D01*
X8386653Y-7000824D01*
X8249176Y-6863347D01*
X8087520Y-6755332D01*
X7907897Y-6680930D01*
X7717211Y-6643000D01*
X7522789Y-6643000D01*
X7332103Y-6680930D01*
X7152480Y-6755332D01*
X6990824Y-6863347D01*
X6853347Y-7000824D01*
X6745332Y-7162480D01*
X6704167Y-7261860D01*
X6700064Y-5448234D01*
X6745332Y-5557520D01*
X6853347Y-5719176D01*
X6990824Y-5856653D01*
X7152480Y-5964668D01*
X7332103Y-6039070D01*
X7522789Y-6077000D01*
X7717211Y-6077000D01*
X7907897Y-6039070D01*
X8087520Y-5964668D01*
X8249176Y-5856653D01*
X8386653Y-5719176D01*
X8494668Y-5557520D01*
X8569070Y-5377897D01*
X8607000Y-5187211D01*
X8607000Y-4992789D01*
X8569070Y-4802103D01*
X8494668Y-4622480D01*
X8386653Y-4460824D01*
X8249176Y-4323347D01*
X8087520Y-4215332D01*
X7907897Y-4140930D01*
X7717211Y-4103000D01*
X7522789Y-4103000D01*
X7332103Y-4140930D01*
X7152480Y-4215332D01*
X6990824Y-4323347D01*
X6853347Y-4460824D01*
X6745332Y-4622480D01*
X6698452Y-4735659D01*
X6695000Y-3209830D01*
X6693526Y-3195202D01*
X6689226Y-3181142D01*
X6682266Y-3168191D01*
X6672913Y-3156847D01*
X6661527Y-3147546D01*
X6648544Y-3140644D01*
X6634465Y-3136408D01*
X6620000Y-3135000D01*
X4270000Y-3135000D01*
X4255368Y-3136441D01*
X4241299Y-3140709D01*
X4228332Y-3147640D01*
X4225456Y-3150000D01*
X4153217Y-3150000D01*
X4061448Y-3168254D01*
X3975003Y-3204061D01*
X3897205Y-3256044D01*
X3831044Y-3322205D01*
X3779061Y-3400003D01*
X3743254Y-3486448D01*
X3725000Y-3578217D01*
X3725000Y-3671783D01*
X3743254Y-3763552D01*
X3751242Y-3782837D01*
X3700003Y-3804061D01*
X3622205Y-3856044D01*
X3556044Y-3922205D01*
X3504061Y-4000003D01*
X3468254Y-4086448D01*
X3450000Y-4178217D01*
X3450000Y-4271783D01*
X3468254Y-4363552D01*
X3504061Y-4449997D01*
X3556044Y-4527795D01*
X3622205Y-4593956D01*
X3636574Y-4603557D01*
X3575003Y-4629061D01*
X3497205Y-4681044D01*
X3431044Y-4747205D01*
X3379061Y-4825003D01*
X3343254Y-4911448D01*
X3325000Y-5003217D01*
X3325000Y-5096783D01*
X3343254Y-5188552D01*
X3379061Y-5274997D01*
X3431044Y-5352795D01*
X3497205Y-5418956D01*
X3575003Y-5470939D01*
X3661448Y-5506746D01*
X3753217Y-5525000D01*
X3846783Y-5525000D01*
X3938552Y-5506746D01*
X4024997Y-5470939D01*
X4102795Y-5418956D01*
X4168956Y-5352795D01*
X4195000Y-5313817D01*
X4195000Y-5861183D01*
X4168956Y-5822205D01*
X4102795Y-5756044D01*
X4024997Y-5704061D01*
X3938552Y-5668254D01*
X3846783Y-5650000D01*
X3753217Y-5650000D01*
X3661448Y-5668254D01*
X3575003Y-5704061D01*
X3497205Y-5756044D01*
X3431044Y-5822205D01*
X3379061Y-5900003D01*
X3343254Y-5986448D01*
X3325000Y-6078217D01*
X3325000Y-6171783D01*
X3343254Y-6263552D01*
X3379061Y-6349997D01*
X3431044Y-6427795D01*
X3491400Y-6488151D01*
X3427205Y-6531044D01*
X3361044Y-6597205D01*
X3309061Y-6675003D01*
X3273254Y-6761448D01*
X3255000Y-6853217D01*
X2861785Y-6853217D01*
X2875000Y-6786783D01*
X2875000Y-6693217D01*
X2856746Y-6601448D01*
X2820939Y-6515003D01*
X2768956Y-6437205D01*
X2702795Y-6371044D01*
X2624997Y-6319061D01*
X2538552Y-6283254D01*
X2446783Y-6265000D01*
X2353217Y-6265000D01*
X2261448Y-6283254D01*
X2175003Y-6319061D01*
X2097205Y-6371044D01*
X2031044Y-6437205D01*
X1979061Y-6515003D01*
X1943254Y-6601448D01*
X1925000Y-6693217D01*
X1925000Y-6786783D01*
X1943254Y-6878552D01*
X1979061Y-6964997D01*
X2031044Y-7042795D01*
X2097205Y-7108956D01*
X2175003Y-7160939D01*
X2261448Y-7196746D01*
X2344903Y-7213346D01*
X2281044Y-7277205D01*
X2229061Y-7355003D01*
X2193254Y-7441448D01*
X2175000Y-7533217D01*
X2175000Y-7626783D01*
X2193254Y-7718552D01*
X2216636Y-7775000D01*
X2123217Y-7775000D01*
X2031448Y-7793254D01*
X1945003Y-7829061D01*
X1867205Y-7881044D01*
X1801044Y-7947205D01*
X1749061Y-8025003D01*
X1713254Y-8111448D01*
X1695000Y-8203217D01*
X296553Y-8203217D01*
X362795Y-8158956D01*
X428956Y-8092795D01*
X480939Y-8014997D01*
X516746Y-7928552D01*
X528000Y-7871973D01*
X543217Y-7875000D01*
X636783Y-7875000D01*
X728552Y-7856746D01*
X814997Y-7820939D01*
X892795Y-7768956D01*
X958956Y-7702795D01*
X1010939Y-7624997D01*
X1046746Y-7538552D01*
X1065000Y-7446783D01*
X1065000Y-7353217D01*
X1046746Y-7261448D01*
X1010939Y-7175003D01*
X958956Y-7097205D01*
X892795Y-7031044D01*
X814997Y-6979061D01*
X728552Y-6943254D01*
X636783Y-6925000D01*
X543217Y-6925000D01*
X451448Y-6943254D01*
X365003Y-6979061D01*
X287205Y-7031044D01*
X221044Y-7097205D01*
X169061Y-7175003D01*
X133254Y-7261448D01*
X122000Y-7318027D01*
X106783Y-7315000D01*
X13217Y-7315000D01*
X-78552Y-7333254D01*
X-164997Y-7369061D01*
X-242795Y-7421044D01*
X-308956Y-7487205D01*
X-360939Y-7565003D01*
X-396746Y-7651448D01*
X-415000Y-7743217D01*
X-2191258Y-7743217D01*
X-2169061Y-7709997D01*
X-2133254Y-7623552D01*
X-2115000Y-7531783D01*
X-2115000Y-7438217D01*
X-2133254Y-7346448D01*
X-2169061Y-7260003D01*
X-2221044Y-7182205D01*
X-2287205Y-7116044D01*
X-2365003Y-7064061D01*
X-2451448Y-7028254D01*
X-2543217Y-7010000D01*
X-2636783Y-7010000D01*
X-2728552Y-7028254D01*
X-2814997Y-7064061D01*
X-2892795Y-7116044D01*
X-2958956Y-7182205D01*
X-3010939Y-7260003D01*
X-3046746Y-7346448D01*
X-3065000Y-7438217D01*
X-3477876Y-7438217D01*
X-3504061Y-7375003D01*
X-3556044Y-7297205D01*
X-3622205Y-7231044D01*
X-3700003Y-7179061D01*
X-3734778Y-7164657D01*
X-3703254Y-7088552D01*
X-3685000Y-6996783D01*
X-3685000Y-6903217D01*
X-3694528Y-6855315D01*
X-3651448Y-6846746D01*
X-3565003Y-6810939D01*
X-3487205Y-6758956D01*
X-3421044Y-6692795D01*
X-3369061Y-6614997D01*
X-3333254Y-6528552D01*
X-3315000Y-6436783D01*
X-3315000Y-6343217D01*
X-3333254Y-6251448D01*
X-3369061Y-6165003D01*
X-3421044Y-6087205D01*
X-3487205Y-6021044D01*
X-3565003Y-5969061D01*
X-3651448Y-5933254D01*
X-3743217Y-5915000D01*
X-3835000Y-5915000D01*
X-3835000Y-5885000D01*
X-3753217Y-5885000D01*
X-3661448Y-5866746D01*
X-3575003Y-5830939D01*
X-3497205Y-5778956D01*
X-3431044Y-5712795D01*
X-3379061Y-5634997D01*
X-3343254Y-5548552D01*
X-3325000Y-5456783D01*
X-3325000Y-5363217D01*
X-3343254Y-5271448D01*
X-3379061Y-5185003D01*
X-3431044Y-5107205D01*
X-3497205Y-5041044D01*
X-3575003Y-4989061D01*
X-3661448Y-4953254D01*
X-3753217Y-4935000D01*
X-3846783Y-4935000D01*
X-3938552Y-4953254D01*
X-4022889Y-4988188D01*
X-4049061Y-4925003D01*
X-4101044Y-4847205D01*
X-4150749Y-4797500D01*
X-4106044Y-4752795D01*
X-4054061Y-4674997D01*
X-4018254Y-4588552D01*
X-4000000Y-4496783D01*
X-4000000Y-4403217D01*
X-4018254Y-4311448D01*
X-4054061Y-4225003D01*
X-4106044Y-4147205D01*
X-4172205Y-4081044D01*
X-4250003Y-4029061D01*
X-4336448Y-3993254D01*
X-4428217Y-3975000D01*
X-4521783Y-3975000D01*
X-4613552Y-3993254D01*
X-4699997Y-4029061D01*
X-4777795Y-4081044D01*
X-4843956Y-4147205D01*
X-4895939Y-4225003D01*
X-4931746Y-4311448D01*
X-4950000Y-4403217D01*
X-6910954Y-4403217D01*
X-6990824Y-4323347D01*
X-7152480Y-4215332D01*
X-7332103Y-4140930D01*
X-7522789Y-4103000D01*
X-7717211Y-4103000D01*
X-7907897Y-4140930D01*
X-8087520Y-4215332D01*
X-8249176Y-4323347D01*
X-8386653Y-4460824D01*
X-8494668Y-4622480D01*
X-8569070Y-4802103D01*
X-8607000Y-4992789D01*
X-8770000Y-4992789D01*
X-8770000Y-2452789D01*
X-8607000Y-2452789D01*
X-8607000Y-2647211D01*
X-8569070Y-2837897D01*
X-8494668Y-3017520D01*
X-8386653Y-3179176D01*
X-8249176Y-3316653D01*
X-8087520Y-3424668D01*
X-7907897Y-3499070D01*
X-7717211Y-3537000D01*
X-7522789Y-3537000D01*
X-7332103Y-3499070D01*
X-7152480Y-3424668D01*
X-6990824Y-3316653D01*
X-6853347Y-3179176D01*
X-6745332Y-3017520D01*
X-6670930Y-2837897D01*
X-6639168Y-2678217D01*
X-5975000Y-2678217D01*
X-5975000Y-2771783D01*
X-5956746Y-2863552D01*
X-5920939Y-2949997D01*
X-5868956Y-3027795D01*
X-5834251Y-3062500D01*
X-5843956Y-3072205D01*
X-5895939Y-3150003D01*
X-5931746Y-3236448D01*
X-5950000Y-3328217D01*
X-5950000Y-3421783D01*
X-5931746Y-3513552D01*
X-5895939Y-3599997D01*
X-5843956Y-3677795D01*
X-5777795Y-3743956D01*
X-5699997Y-3795939D01*
X-5613552Y-3831746D01*
X-5521783Y-3850000D01*
X-5428217Y-3850000D01*
X-5336448Y-3831746D01*
X-5250003Y-3795939D01*
X-5190542Y-3756209D01*
X-5127795Y-3818956D01*
X-5049997Y-3870939D01*
X-4963552Y-3906746D01*
X-4871783Y-3925000D01*
X-4778217Y-3925000D01*
X-4686448Y-3906746D01*
X-4600003Y-3870939D01*
X-4524042Y-3820183D01*
X-4518956Y-3827795D01*
X-4452795Y-3893956D01*
X-4374997Y-3945939D01*
X-4288552Y-3981746D01*
X-4196783Y-4000000D01*
X-4103217Y-4000000D01*
X-4011448Y-3981746D01*
X-3925003Y-3945939D01*
X-3847205Y-3893956D01*
X-3781044Y-3827795D01*
X-3729061Y-3749997D01*
X-3693254Y-3663552D01*
X-3675000Y-3571783D01*
X-3675000Y-3493217D01*
X-2935000Y-3493217D01*
X-2935000Y-3586783D01*
X-2916746Y-3678552D01*
X-2880939Y-3764997D01*
X-2828956Y-3842795D01*
X-2762795Y-3908956D01*
X-2684997Y-3960939D01*
X-2598552Y-3996746D01*
X-2506783Y-4015000D01*
X-2413217Y-4015000D01*
X-2321448Y-3996746D01*
X-2235003Y-3960939D01*
X-2157205Y-3908956D01*
X-2091044Y-3842795D01*
X-2039061Y-3764997D01*
X-2003254Y-3678552D01*
X-1985000Y-3586783D01*
X-1985000Y-3493217D01*
X-2003254Y-3401448D01*
X-2039061Y-3315003D01*
X-2091044Y-3237205D01*
X-2157205Y-3171044D01*
X-2235003Y-3119061D01*
X-2321448Y-3083254D01*
X-2413217Y-3065000D01*
X-2506783Y-3065000D01*
X-2598552Y-3083254D01*
X-2684997Y-3119061D01*
X-2762795Y-3171044D01*
X-2828956Y-3237205D01*
X-2880939Y-3315003D01*
X-2916746Y-3401448D01*
X-2935000Y-3493217D01*
X-3675000Y-3493217D01*
X-3675000Y-3478217D01*
X-3693254Y-3386448D01*
X-3729061Y-3300003D01*
X-3781044Y-3222205D01*
X-3847205Y-3156044D01*
X-3925003Y-3104061D01*
X-4011448Y-3068254D01*
X-4103217Y-3050000D01*
X-4196783Y-3050000D01*
X-4288552Y-3068254D01*
X-4374997Y-3104061D01*
X-4450958Y-3154817D01*
X-4456044Y-3147205D01*
X-4522205Y-3081044D01*
X-4600003Y-3029061D01*
X-4686448Y-2993254D01*
X-4778217Y-2975000D01*
X-4871783Y-2975000D01*
X-4963552Y-2993254D01*
X-5049997Y-3029061D01*
X-5109458Y-3068791D01*
X-5140749Y-3037500D01*
X-5131044Y-3027795D01*
X-5079061Y-2949997D01*
X-5043254Y-2863552D01*
X-5025000Y-2771783D01*
X-5025000Y-2678217D01*
X-5043254Y-2586448D01*
X-5079061Y-2500003D01*
X-5090277Y-2483217D01*
X-1945000Y-2483217D01*
X-1945000Y-2576783D01*
X-1926746Y-2668552D01*
X-1890939Y-2754997D01*
X-1838956Y-2832795D01*
X-1772795Y-2898956D01*
X-1694997Y-2950939D01*
X-1608552Y-2986746D01*
X-1516783Y-3005000D01*
X-1423217Y-3005000D01*
X-1331448Y-2986746D01*
X-1245003Y-2950939D01*
X-1167205Y-2898956D01*
X-1101044Y-2832795D01*
X-1049061Y-2754997D01*
X-1013254Y-2668552D01*
X-1008215Y-2643217D01*
X1815000Y-2643217D01*
X1815000Y-2736783D01*
X1833254Y-2828552D01*
X1869061Y-2914997D01*
X1921044Y-2992795D01*
X1987205Y-3058956D01*
X2065003Y-3110939D01*
X2151448Y-3146746D01*
X2243217Y-3165000D01*
X2336783Y-3165000D01*
X2428552Y-3146746D01*
X2514997Y-3110939D01*
X2592795Y-3058956D01*
X2658956Y-2992795D01*
X2710939Y-2914997D01*
X2746746Y-2828552D01*
X2765000Y-2736783D01*
X2765000Y-2643217D01*
X2746746Y-2551448D01*
X2710939Y-2465003D01*
X2658956Y-2387205D01*
X2592795Y-2321044D01*
X2514997Y-2269061D01*
X2428552Y-2233254D01*
X2336783Y-2215000D01*
X2243217Y-2215000D01*
X2151448Y-2233254D01*
X2065003Y-2269061D01*
X1987205Y-2321044D01*
X1921044Y-2387205D01*
X1869061Y-2465003D01*
X1833254Y-2551448D01*
X1815000Y-2643217D01*
X-1008215Y-2643217D01*
X-995000Y-2576783D01*
X-995000Y-2483217D01*
X-1013254Y-2391448D01*
X-1049061Y-2305003D01*
X-1101044Y-2227205D01*
X-1167205Y-2161044D01*
X-1245003Y-2109061D01*
X-1331448Y-2073254D01*
X-1423217Y-2055000D01*
X-1516783Y-2055000D01*
X-1608552Y-2073254D01*
X-1694997Y-2109061D01*
X-1772795Y-2161044D01*
X-1838956Y-2227205D01*
X-1890939Y-2305003D01*
X-1926746Y-2391448D01*
X-1945000Y-2483217D01*
X-5090277Y-2483217D01*
X-5131044Y-2422205D01*
X-5197205Y-2356044D01*
X-5275003Y-2304061D01*
X-5361448Y-2268254D01*
X-5453217Y-2250000D01*
X-5546783Y-2250000D01*
X-5638552Y-2268254D01*
X-5724997Y-2304061D01*
X-5802795Y-2356044D01*
X-5868956Y-2422205D01*
X-5920939Y-2500003D01*
X-5956746Y-2586448D01*
X-5975000Y-2678217D01*
X-6639168Y-2678217D01*
X-6633000Y-2647211D01*
X-6633000Y-2452789D01*
X-6670930Y-2262103D01*
X-6745332Y-2082480D01*
X-6853347Y-1920824D01*
X-6990824Y-1783347D01*
X-7152480Y-1675332D01*
X-7332103Y-1600930D01*
X-7522789Y-1563000D01*
X-7717211Y-1563000D01*
X-7907897Y-1600930D01*
X-8087520Y-1675332D01*
X-8249176Y-1783347D01*
X-8386653Y-1920824D01*
X-8494668Y-2082480D01*
X-8569070Y-2262103D01*
X-8607000Y-2452789D01*
X-8770000Y-2452789D01*
X-8770000Y-1987725D01*
X-8770086Y-1986852D01*
X-8770102Y-1984563D01*
X-8771289Y-1973274D01*
X-8771289Y-1961923D01*
X-8771654Y-1958451D01*
X-8775000Y-1928620D01*
X-8775000Y-1553217D01*
X-5975000Y-1553217D01*
X-5975000Y-1646783D01*
X-5956746Y-1738552D01*
X-5920939Y-1824997D01*
X-5868956Y-1902795D01*
X-5802795Y-1968956D01*
X-5724997Y-2020939D01*
X-5638552Y-2056746D01*
X-5546783Y-2075000D01*
X-5453217Y-2075000D01*
X-5361448Y-2056746D01*
X-5275003Y-2020939D01*
X-5197205Y-1968956D01*
X-5139136Y-1910887D01*
X-5108439Y-1984997D01*
X-5056456Y-2062795D01*
X-4990295Y-2128956D01*
X-4912497Y-2180939D01*
X-4826052Y-2216746D01*
X-4734283Y-2235000D01*
X-4640717Y-2235000D01*
X-4548948Y-2216746D01*
X-4462503Y-2180939D01*
X-4384705Y-2128956D01*
X-4348750Y-2093001D01*
X-4312795Y-2128956D01*
X-4234997Y-2180939D01*
X-4148552Y-2216746D01*
X-4056783Y-2235000D01*
X-3963217Y-2235000D01*
X-3871448Y-2216746D01*
X-3785003Y-2180939D01*
X-3707205Y-2128956D01*
X-3641044Y-2062795D01*
X-3589061Y-1984997D01*
X-3553254Y-1898552D01*
X-3535000Y-1806783D01*
X-3535000Y-1713217D01*
X-3536989Y-1703217D01*
X-2850000Y-1703217D01*
X-2850000Y-1796783D01*
X-2831746Y-1888552D01*
X-2795939Y-1974997D01*
X-2743956Y-2052795D01*
X-2677795Y-2118956D01*
X-2599997Y-2170939D01*
X-2513552Y-2206746D01*
X-2421783Y-2225000D01*
X-2328217Y-2225000D01*
X-2236448Y-2206746D01*
X-2150003Y-2170939D01*
X-2072205Y-2118956D01*
X-2006044Y-2052795D01*
X-1954061Y-1974997D01*
X-1918254Y-1888552D01*
X-1906253Y-1828217D01*
X2725000Y-1828217D01*
X2725000Y-1921783D01*
X2743254Y-2013552D01*
X2779061Y-2099997D01*
X2831044Y-2177795D01*
X2897205Y-2243956D01*
X2934424Y-2268825D01*
X2906044Y-2297205D01*
X2854061Y-2375003D01*
X2818254Y-2461448D01*
X2800000Y-2553217D01*
X2800000Y-2646783D01*
X2818254Y-2738552D01*
X2854061Y-2824997D01*
X2906044Y-2902795D01*
X2953249Y-2950000D01*
X2931044Y-2972205D01*
X2879061Y-3050003D01*
X2843254Y-3136448D01*
X2825000Y-3228217D01*
X2825000Y-3321783D01*
X2843254Y-3413552D01*
X2879061Y-3499997D01*
X2931044Y-3577795D01*
X2997205Y-3643956D01*
X3075003Y-3695939D01*
X3161448Y-3731746D01*
X3253217Y-3750000D01*
X3346783Y-3750000D01*
X3438552Y-3731746D01*
X3524997Y-3695939D01*
X3602795Y-3643956D01*
X3668956Y-3577795D01*
X3720939Y-3499997D01*
X3756746Y-3413552D01*
X3775000Y-3321783D01*
X3775000Y-3228217D01*
X3756746Y-3136448D01*
X3720939Y-3050003D01*
X3668956Y-2972205D01*
X3621751Y-2925000D01*
X3643956Y-2902795D01*
X3695939Y-2824997D01*
X3731746Y-2738552D01*
X3750000Y-2646783D01*
X3750000Y-2553217D01*
X3731746Y-2461448D01*
X3728160Y-2452789D01*
X6633000Y-2452789D01*
X6633000Y-2647211D01*
X6670930Y-2837897D01*
X6745332Y-3017520D01*
X6853347Y-3179176D01*
X6990824Y-3316653D01*
X7152480Y-3424668D01*
X7332103Y-3499070D01*
X7522789Y-3537000D01*
X7717211Y-3537000D01*
X7907897Y-3499070D01*
X8087520Y-3424668D01*
X8249176Y-3316653D01*
X8386653Y-3179176D01*
X8494668Y-3017520D01*
X8569070Y-2837897D01*
X8607000Y-2647211D01*
X8607000Y-2452789D01*
X8569070Y-2262103D01*
X8494668Y-2082480D01*
X8386653Y-1920824D01*
X8249176Y-1783347D01*
X8087520Y-1675332D01*
X7907897Y-1600930D01*
X7717211Y-1563000D01*
X7522789Y-1563000D01*
X7332103Y-1600930D01*
X7152480Y-1675332D01*
X6990824Y-1783347D01*
X6853347Y-1920824D01*
X6745332Y-2082480D01*
X6670930Y-2262103D01*
X6633000Y-2452789D01*
X3728160Y-2452789D01*
X3695939Y-2375003D01*
X3643956Y-2297205D01*
X3577795Y-2231044D01*
X3540576Y-2206175D01*
X3568956Y-2177795D01*
X3620939Y-2099997D01*
X3656746Y-2013552D01*
X3675000Y-1921783D01*
X3675000Y-1828217D01*
X3656746Y-1736448D01*
X3620939Y-1650003D01*
X3568956Y-1572205D01*
X3502795Y-1506044D01*
X3424997Y-1454061D01*
X3338552Y-1418254D01*
X3246783Y-1400000D01*
X3153217Y-1400000D01*
X3061448Y-1418254D01*
X2975003Y-1454061D01*
X2897205Y-1506044D01*
X2831044Y-1572205D01*
X2779061Y-1650003D01*
X2743254Y-1736448D01*
X2725000Y-1828217D01*
X-1906253Y-1828217D01*
X-1900000Y-1796783D01*
X-1900000Y-1703217D01*
X-1918254Y-1611448D01*
X-1954061Y-1525003D01*
X-2006044Y-1447205D01*
X-2072205Y-1381044D01*
X-2150003Y-1329061D01*
X-2236448Y-1293254D01*
X-2328217Y-1275000D01*
X-2421783Y-1275000D01*
X-2513552Y-1293254D01*
X-2599997Y-1329061D01*
X-2677795Y-1381044D01*
X-2743956Y-1447205D01*
X-2795939Y-1525003D01*
X-2831746Y-1611448D01*
X-2850000Y-1703217D01*
X-3536989Y-1703217D01*
X-3553254Y-1621448D01*
X-3589061Y-1535003D01*
X-3641044Y-1457205D01*
X-3707205Y-1391044D01*
X-3785003Y-1339061D01*
X-3871448Y-1303254D01*
X-3963217Y-1285000D01*
X-4056783Y-1285000D01*
X-4148552Y-1303254D01*
X-4234997Y-1339061D01*
X-4312795Y-1391044D01*
X-4348750Y-1426999D01*
X-4384705Y-1391044D01*
X-4462503Y-1339061D01*
X-4548948Y-1303254D01*
X-4640717Y-1285000D01*
X-4734283Y-1285000D01*
X-4826052Y-1303254D01*
X-4912497Y-1339061D01*
X-4990295Y-1391044D01*
X-5048364Y-1449113D01*
X-5079061Y-1375003D01*
X-5131044Y-1297205D01*
X-5197205Y-1231044D01*
X-5275003Y-1179061D01*
X-5277040Y-1178217D01*
X-1350000Y-1178217D01*
X-1350000Y-1271783D01*
X-1331746Y-1363552D01*
X-1295939Y-1449997D01*
X-1243956Y-1527795D01*
X-1177795Y-1593956D01*
X-1099997Y-1645939D01*
X-1013552Y-1681746D01*
X-921783Y-1700000D01*
X-828217Y-1700000D01*
X-736448Y-1681746D01*
X-650003Y-1645939D01*
X-572205Y-1593956D01*
X-506044Y-1527795D01*
X-454061Y-1449997D01*
X-418254Y-1363552D01*
X-400000Y-1271783D01*
X-400000Y-1178217D01*
X-404972Y-1153217D01*
X-300000Y-1153217D01*
X-300000Y-1246783D01*
X-281746Y-1338552D01*
X-245939Y-1424997D01*
X-193956Y-1502795D01*
X-127795Y-1568956D01*
X-49997Y-1620939D01*
X36448Y-1656746D01*
X128217Y-1675000D01*
X221783Y-1675000D01*
X313552Y-1656746D01*
X399997Y-1620939D01*
X477795Y-1568956D01*
X543956Y-1502795D01*
X595939Y-1424997D01*
X631746Y-1338552D01*
X645000Y-1271920D01*
X645000Y-1286783D01*
X663254Y-1378552D01*
X699061Y-1464997D01*
X751044Y-1542795D01*
X817205Y-1608956D01*
X895003Y-1660939D01*
X981448Y-1696746D01*
X1073217Y-1715000D01*
X1166783Y-1715000D01*
X1258552Y-1696746D01*
X1344997Y-1660939D01*
X1422795Y-1608956D01*
X1488956Y-1542795D01*
X1540939Y-1464997D01*
X1576746Y-1378552D01*
X1595000Y-1286783D01*
X1595000Y-1193217D01*
X1576746Y-1101448D01*
X1540939Y-1015003D01*
X1488956Y-937205D01*
X1422795Y-871044D01*
X1344997Y-819061D01*
X1258552Y-783254D01*
X1166783Y-765000D01*
X1073217Y-765000D01*
X981448Y-783254D01*
X895003Y-819061D01*
X817205Y-871044D01*
X751044Y-937205D01*
X699061Y-1015003D01*
X663254Y-1101448D01*
X650000Y-1168080D01*
X650000Y-1153217D01*
X631746Y-1061448D01*
X595939Y-975003D01*
X543956Y-897205D01*
X477795Y-831044D01*
X399997Y-779061D01*
X313552Y-743254D01*
X221783Y-725000D01*
X128217Y-725000D01*
X36448Y-743254D01*
X-49997Y-779061D01*
X-127795Y-831044D01*
X-193956Y-897205D01*
X-245939Y-975003D01*
X-281746Y-1061448D01*
X-300000Y-1153217D01*
X-404972Y-1153217D01*
X-418254Y-1086448D01*
X-454061Y-1000003D01*
X-506044Y-922205D01*
X-572205Y-856044D01*
X-650003Y-804061D01*
X-736448Y-768254D01*
X-828217Y-750000D01*
X-921783Y-750000D01*
X-1013552Y-768254D01*
X-1099997Y-804061D01*
X-1177795Y-856044D01*
X-1243956Y-922205D01*
X-1295939Y-1000003D01*
X-1331746Y-1086448D01*
X-1350000Y-1178217D01*
X-5277040Y-1178217D01*
X-5361448Y-1143254D01*
X-5453217Y-1125000D01*
X-5546783Y-1125000D01*
X-5638552Y-1143254D01*
X-5724997Y-1179061D01*
X-5802795Y-1231044D01*
X-5868956Y-1297205D01*
X-5920939Y-1375003D01*
X-5956746Y-1461448D01*
X-5975000Y-1553217D01*
X-8775000Y-1553217D01*
X-8775000Y87211D01*
X-8607000Y87211D01*
X-8607000Y-107211D01*
X-8569070Y-297897D01*
X-8494668Y-477520D01*
X-8386653Y-639176D01*
X-8249176Y-776653D01*
X-8087520Y-884668D01*
X-7907897Y-959070D01*
X-7717211Y-997000D01*
X-7522789Y-997000D01*
X-7332103Y-959070D01*
X-7152480Y-884668D01*
X-6990824Y-776653D01*
X-6853347Y-639176D01*
X-6745332Y-477520D01*
X-6670930Y-297897D01*
X-6633000Y-107211D01*
X-6633000Y87211D01*
X-6670930Y277897D01*
X-6745332Y457520D01*
X-6838384Y596783D01*
X3015000Y596783D01*
X3015000Y503217D01*
X3033254Y411448D01*
X3069061Y325003D01*
X3121044Y247205D01*
X3187205Y181044D01*
X3265003Y129061D01*
X3351448Y93254D01*
X3443217Y75000D01*
X3536783Y75000D01*
X3628552Y93254D01*
X3714997Y129061D01*
X3792795Y181044D01*
X3858956Y247205D01*
X3910939Y325003D01*
X3946746Y411448D01*
X3965000Y503217D01*
X3965000Y596783D01*
X3946746Y688552D01*
X3910939Y774997D01*
X3858956Y852795D01*
X3792795Y918956D01*
X3714997Y970939D01*
X3628552Y1006746D01*
X3536783Y1025000D01*
X3443217Y1025000D01*
X3351448Y1006746D01*
X3265003Y970939D01*
X3187205Y918956D01*
X3121044Y852795D01*
X3069061Y774997D01*
X3033254Y688552D01*
X3015000Y596783D01*
X-6838384Y596783D01*
X-6853347Y619176D01*
X-6990824Y756653D01*
X-7152480Y864668D01*
X-7332103Y939070D01*
X-7522789Y977000D01*
X-7717211Y977000D01*
X-7907897Y939070D01*
X-8087520Y864668D01*
X-8249176Y756653D01*
X-8386653Y619176D01*
X-8494668Y457520D01*
X-8569070Y277897D01*
X-8607000Y87211D01*
X-8775000Y87211D01*
X-8775000Y1936777D01*
X-8771193Y1975604D01*
X-8771193Y1975613D01*
X-8770000Y1987725D01*
X-8770000Y2627211D01*
X-8607000Y2627211D01*
X-8607000Y2432789D01*
X-8569070Y2242103D01*
X-8494668Y2062480D01*
X-8386653Y1900824D01*
X-8249176Y1763347D01*
X-8087520Y1655332D01*
X-7907897Y1580930D01*
X-7717211Y1543000D01*
X-7522789Y1543000D01*
X-7332103Y1580930D01*
X-7152480Y1655332D01*
X-6990824Y1763347D01*
X-6950472Y1803699D01*
X-6956746Y1788552D01*
X-6975000Y1696783D01*
X-6975000Y1603217D01*
X-6956746Y1511448D01*
X-6920939Y1425003D01*
X-6868956Y1347205D01*
X-6802795Y1281044D01*
X-6724997Y1229061D01*
X-6638552Y1193254D01*
X-6546783Y1175000D01*
X-6453217Y1175000D01*
X-6361448Y1193254D01*
X-6275003Y1229061D01*
X-6197205Y1281044D01*
X-6131044Y1347205D01*
X-6079061Y1425003D01*
X-6043254Y1511448D01*
X-6025000Y1603217D01*
X-6025000Y1696783D01*
X-6043254Y1788552D01*
X-6079061Y1874997D01*
X-6131044Y1952795D01*
X-6150032Y1971783D01*
X-5975000Y1971783D01*
X-5975000Y1878217D01*
X-5956746Y1786448D01*
X-5920939Y1700003D01*
X-5868956Y1622205D01*
X-5802795Y1556044D01*
X-5724997Y1504061D01*
X-5638552Y1468254D01*
X-5546783Y1450000D01*
X-5453217Y1450000D01*
X-5361448Y1468254D01*
X-5275003Y1504061D01*
X-5197205Y1556044D01*
X-5131044Y1622205D01*
X-5079061Y1700003D01*
X-5043254Y1786448D01*
X-5025000Y1878217D01*
X-5025000Y1971783D01*
X-5043254Y2063552D01*
X-5077729Y2146783D01*
X-4050000Y2146783D01*
X-4050000Y2053217D01*
X-4031746Y1961448D01*
X-3995939Y1875003D01*
X-3943956Y1797205D01*
X-3877795Y1731044D01*
X-3799997Y1679061D01*
X-3713552Y1643254D01*
X-3621783Y1625000D01*
X-3528217Y1625000D01*
X-3436448Y1643254D01*
X-3350003Y1679061D01*
X-3272205Y1731044D01*
X-3206044Y1797205D01*
X-3154061Y1875003D01*
X-3118254Y1961448D01*
X-3100000Y2053217D01*
X-3100000Y2146783D01*
X-3118254Y2238552D01*
X-3154061Y2324997D01*
X-3206044Y2402795D01*
X-3272205Y2468956D01*
X-3350003Y2520939D01*
X-3436448Y2556746D01*
X-3528217Y2575000D01*
X-3621783Y2575000D01*
X-3713552Y2556746D01*
X-3799997Y2520939D01*
X-3877795Y2468956D01*
X-3943956Y2402795D01*
X-3995939Y2324997D01*
X-4031746Y2238552D01*
X-4050000Y2146783D01*
X-5077729Y2146783D01*
X-5079061Y2149997D01*
X-5131044Y2227795D01*
X-5197205Y2293956D01*
X-5275003Y2345939D01*
X-5361448Y2381746D01*
X-5453217Y2400000D01*
X-5546783Y2400000D01*
X-5638552Y2381746D01*
X-5724997Y2345939D01*
X-5802795Y2293956D01*
X-5868956Y2227795D01*
X-5920939Y2149997D01*
X-5956746Y2063552D01*
X-5975000Y1971783D01*
X-6150032Y1971783D01*
X-6197205Y2018956D01*
X-6275003Y2070939D01*
X-6361448Y2106746D01*
X-6453217Y2125000D01*
X-6546783Y2125000D01*
X-6638552Y2106746D01*
X-6724997Y2070939D01*
X-6751523Y2053215D01*
X-6745332Y2062480D01*
X-6670930Y2242103D01*
X-6633000Y2432789D01*
X-6633000Y2627211D01*
X-6670930Y2817897D01*
X-6724316Y2946783D01*
X-5850000Y2946783D01*
X-5850000Y2853217D01*
X-5831746Y2761448D01*
X-5795939Y2675003D01*
X-5743956Y2597205D01*
X-5677795Y2531044D01*
X-5599997Y2479061D01*
X-5513552Y2443254D01*
X-5421783Y2425000D01*
X-5328217Y2425000D01*
X-5236448Y2443254D01*
X-5150003Y2479061D01*
X-5072205Y2531044D01*
X-5006044Y2597205D01*
X-4954061Y2675003D01*
X-4918254Y2761448D01*
X-4900000Y2853217D01*
X-4900000Y2946783D01*
X-4918254Y3038552D01*
X-4954061Y3124997D01*
X-5006044Y3202795D01*
X-5072205Y3268956D01*
X-5083918Y3276783D01*
X-2275000Y3276783D01*
X-2275000Y3183217D01*
X-2256746Y3091448D01*
X-2220939Y3005003D01*
X-2168956Y2927205D01*
X-2102795Y2861044D01*
X-2024997Y2809061D01*
X-1979490Y2790211D01*
X-1996746Y2748552D01*
X-2015000Y2656783D01*
X-2015000Y2563217D01*
X-1996746Y2471448D01*
X-1960939Y2385003D01*
X-1908956Y2307205D01*
X-1842795Y2241044D01*
X-1764997Y2189061D01*
X-1678552Y2153254D01*
X-1586783Y2135000D01*
X-1493217Y2135000D01*
X-1401448Y2153254D01*
X-1344735Y2176746D01*
X-1331746Y2111448D01*
X-1295939Y2025003D01*
X-1243956Y1947205D01*
X-1177795Y1881044D01*
X-1099997Y1829061D01*
X-1013552Y1793254D01*
X-921783Y1775000D01*
X-828217Y1775000D01*
X-736448Y1793254D01*
X-650003Y1829061D01*
X-572205Y1881044D01*
X-506044Y1947205D01*
X-489622Y1971783D01*
X225000Y1971783D01*
X225000Y1878217D01*
X243254Y1786448D01*
X279061Y1700003D01*
X331044Y1622205D01*
X397205Y1556044D01*
X475003Y1504061D01*
X561448Y1468254D01*
X653217Y1450000D01*
X746783Y1450000D01*
X838552Y1468254D01*
X924997Y1504061D01*
X1002795Y1556044D01*
X1068956Y1622205D01*
X1120939Y1700003D01*
X1156746Y1786448D01*
X1175000Y1878217D01*
X1175000Y1971783D01*
X1156746Y2063552D01*
X1120939Y2149997D01*
X1068956Y2227795D01*
X1002795Y2293956D01*
X924997Y2345939D01*
X838552Y2381746D01*
X746783Y2400000D01*
X653217Y2400000D01*
X561448Y2381746D01*
X475003Y2345939D01*
X397205Y2293956D01*
X331044Y2227795D01*
X279061Y2149997D01*
X243254Y2063552D01*
X225000Y1971783D01*
X-489622Y1971783D01*
X-454061Y2025003D01*
X-418254Y2111448D01*
X-400000Y2203217D01*
X-400000Y2296783D01*
X-418254Y2388552D01*
X-454061Y2474997D01*
X-506044Y2552795D01*
X-572205Y2618956D01*
X-650003Y2670939D01*
X-736448Y2706746D01*
X-828217Y2725000D01*
X-921783Y2725000D01*
X-1013552Y2706746D01*
X-1070265Y2683254D01*
X-1083254Y2748552D01*
X-1119061Y2834997D01*
X-1171044Y2912795D01*
X-1237205Y2978956D01*
X-1315003Y3030939D01*
X-1360510Y3049789D01*
X-1343254Y3091448D01*
X-1325000Y3183217D01*
X-1325000Y3246783D01*
X-475000Y3246783D01*
X-475000Y3153217D01*
X-456746Y3061448D01*
X-420939Y2975003D01*
X-368956Y2897205D01*
X-302795Y2831044D01*
X-224997Y2779061D01*
X-138552Y2743254D01*
X-46783Y2725000D01*
X46783Y2725000D01*
X138552Y2743254D01*
X224997Y2779061D01*
X302795Y2831044D01*
X368956Y2897205D01*
X420939Y2975003D01*
X456746Y3061448D01*
X475000Y3153217D01*
X475000Y3246783D01*
X456746Y3338552D01*
X420939Y3424997D01*
X368956Y3502795D01*
X324968Y3546783D01*
X1200000Y3546783D01*
X1200000Y3453217D01*
X1218254Y3361448D01*
X1254061Y3275003D01*
X1306044Y3197205D01*
X1372205Y3131044D01*
X1450003Y3079061D01*
X1536448Y3043254D01*
X1628217Y3025000D01*
X1721783Y3025000D01*
X1813552Y3043254D01*
X1890192Y3075000D01*
X4150000Y3075000D01*
X4150000Y-2375000D01*
X4151441Y-2389632D01*
X4155709Y-2403701D01*
X4162640Y-2416668D01*
X4171967Y-2428033D01*
X4183332Y-2437360D01*
X4196299Y-2444291D01*
X4210368Y-2448559D01*
X4225000Y-2450000D01*
X6350000Y-2450000D01*
X6364632Y-2448559D01*
X6378701Y-2444291D01*
X6391668Y-2437360D01*
X6403033Y-2428033D01*
X6412360Y-2416668D01*
X6419291Y-2403701D01*
X6423559Y-2389632D01*
X6425000Y-2375000D01*
X6425000Y87211D01*
X6633000Y87211D01*
X6633000Y-107211D01*
X6670930Y-297897D01*
X6745332Y-477520D01*
X6853347Y-639176D01*
X6990824Y-776653D01*
X7152480Y-884668D01*
X7332103Y-959070D01*
X7522789Y-997000D01*
X7717211Y-997000D01*
X7907897Y-959070D01*
X8087520Y-884668D01*
X8249176Y-776653D01*
X8386653Y-639176D01*
X8494668Y-477520D01*
X8569070Y-297897D01*
X8607000Y-107211D01*
X8607000Y87211D01*
X8569070Y277897D01*
X8494668Y457520D01*
X8386653Y619176D01*
X8249176Y756653D01*
X8087520Y864668D01*
X7907897Y939070D01*
X7717211Y977000D01*
X7522789Y977000D01*
X7332103Y939070D01*
X7152480Y864668D01*
X6990824Y756653D01*
X6853347Y619176D01*
X6745332Y457520D01*
X6670930Y277897D01*
X6633000Y87211D01*
X6425000Y87211D01*
X6425000Y2627211D01*
X6633000Y2627211D01*
X6633000Y2432789D01*
X6670930Y2242103D01*
X6745332Y2062480D01*
X6853347Y1900824D01*
X6990824Y1763347D01*
X7152480Y1655332D01*
X7332103Y1580930D01*
X7522789Y1543000D01*
X7717211Y1543000D01*
X7907897Y1580930D01*
X8087520Y1655332D01*
X8249176Y1763347D01*
X8386653Y1900824D01*
X8494668Y2062480D01*
X8569070Y2242103D01*
X8607000Y2432789D01*
X8607000Y2627211D01*
X8569070Y2817897D01*
X8494668Y2997520D01*
X8386653Y3159176D01*
X8249176Y3296653D01*
X8087520Y3404668D01*
X7907897Y3479070D01*
X7717211Y3517000D01*
X7522789Y3517000D01*
X7332103Y3479070D01*
X7152480Y3404668D01*
X6990824Y3296653D01*
X6853347Y3159176D01*
X6745332Y2997520D01*
X6670930Y2817897D01*
X6633000Y2627211D01*
X6425000Y2627211D01*
X6425000Y3075000D01*
X6423559Y3089632D01*
X6419291Y3103701D01*
X6412360Y3116668D01*
X6403033Y3128033D01*
X6391668Y3137360D01*
X6378701Y3144291D01*
X6364632Y3148559D01*
X6350000Y3150000D01*
X4225000Y3150000D01*
X4210368Y3148559D01*
X4196299Y3144291D01*
X4183332Y3137360D01*
X4171967Y3128033D01*
X4162640Y3116668D01*
X4155709Y3103701D01*
X4151441Y3089632D01*
X4150000Y3075000D01*
X1890192Y3075000D01*
X1899997Y3079061D01*
X1977795Y3131044D01*
X2043956Y3197205D01*
X2095939Y3275003D01*
X2131746Y3361448D01*
X2150000Y3453217D01*
X2150000Y3546783D01*
X2131746Y3638552D01*
X2095939Y3724997D01*
X2043956Y3802795D01*
X1977795Y3868956D01*
X1899997Y3920939D01*
X1813552Y3956746D01*
X1721783Y3975000D01*
X1628217Y3975000D01*
X1536448Y3956746D01*
X1450003Y3920939D01*
X1372205Y3868956D01*
X1306044Y3802795D01*
X1254061Y3724997D01*
X1218254Y3638552D01*
X1200000Y3546783D01*
X324968Y3546783D01*
X302795Y3568956D01*
X224997Y3620939D01*
X138552Y3656746D01*
X46783Y3675000D01*
X-46783Y3675000D01*
X-138552Y3656746D01*
X-224997Y3620939D01*
X-302795Y3568956D01*
X-368956Y3502795D01*
X-420939Y3424997D01*
X-456746Y3338552D01*
X-475000Y3246783D01*
X-1325000Y3246783D01*
X-1325000Y3276783D01*
X-1343254Y3368552D01*
X-1379061Y3454997D01*
X-1431044Y3532795D01*
X-1497205Y3598956D01*
X-1575003Y3650939D01*
X-1661448Y3686746D01*
X-1753217Y3705000D01*
X-1846783Y3705000D01*
X-1938552Y3686746D01*
X-2024997Y3650939D01*
X-2102795Y3598956D01*
X-2168956Y3532795D01*
X-2220939Y3454997D01*
X-2256746Y3368552D01*
X-2275000Y3276783D01*
X-5083918Y3276783D01*
X-5150003Y3320939D01*
X-5236448Y3356746D01*
X-5328217Y3375000D01*
X-5421783Y3375000D01*
X-5513552Y3356746D01*
X-5599997Y3320939D01*
X-5677795Y3268956D01*
X-5743956Y3202795D01*
X-5795939Y3124997D01*
X-5831746Y3038552D01*
X-5850000Y2946783D01*
X-6724316Y2946783D01*
X-6745332Y2997520D01*
X-6853347Y3159176D01*
X-6990824Y3296653D01*
X-7152480Y3404668D01*
X-7332103Y3479070D01*
X-7522789Y3517000D01*
X-7717211Y3517000D01*
X-7907897Y3479070D01*
X-8087520Y3404668D01*
X-8249176Y3296653D01*
X-8386653Y3159176D01*
X-8494668Y2997520D01*
X-8569070Y2817897D01*
X-8607000Y2627211D01*
X-8770000Y2627211D01*
X-8770000Y4100276D01*
X-8336580Y4100276D01*
X-8262585Y3881025D01*
X-8018281Y3778509D01*
X-7758670Y3725624D01*
X-7493731Y3724403D01*
X-7233644Y3774892D01*
X-6988404Y3875151D01*
X-6977415Y3881025D01*
X-6903420Y4100276D01*
X-7620000Y4816856D01*
X-8336580Y4100276D01*
X-8770000Y4100276D01*
X-8770000Y4414261D01*
X-8589724Y4353420D01*
X-7873144Y5070000D01*
X-7366856Y5070000D01*
X-6650276Y4353420D01*
X-6431025Y4427415D01*
X-6328509Y4671719D01*
X-6324263Y4692563D01*
X-6293956Y4647205D01*
X-6227795Y4581044D01*
X-6149997Y4529061D01*
X-6063552Y4493254D01*
X-5971783Y4475000D01*
X-5878217Y4475000D01*
X-5786448Y4493254D01*
X-5753787Y4506783D01*
X-2915000Y4506783D01*
X-2915000Y4413217D01*
X-2896746Y4321448D01*
X-2860939Y4235003D01*
X-2808956Y4157205D01*
X-2742795Y4091044D01*
X-2664997Y4039061D01*
X-2578552Y4003254D01*
X-2486783Y3985000D01*
X-2393217Y3985000D01*
X-2301448Y4003254D01*
X-2215003Y4039061D01*
X-2137205Y4091044D01*
X-2071044Y4157205D01*
X-2019061Y4235003D01*
X-1983254Y4321448D01*
X-1965000Y4413217D01*
X-1965000Y4506783D01*
X-1966989Y4516783D01*
X-1605000Y4516783D01*
X-1605000Y4423217D01*
X-1586746Y4331448D01*
X-1550939Y4245003D01*
X-1498956Y4167205D01*
X-1432795Y4101044D01*
X-1354997Y4049061D01*
X-1268552Y4013254D01*
X-1176783Y3995000D01*
X-1083217Y3995000D01*
X-991448Y4013254D01*
X-905003Y4049061D01*
X-827205Y4101044D01*
X-761044Y4167205D01*
X-709061Y4245003D01*
X-673254Y4331448D01*
X-658269Y4406783D01*
X85000Y4406783D01*
X85000Y4313217D01*
X103254Y4221448D01*
X139061Y4135003D01*
X191044Y4057205D01*
X257205Y3991044D01*
X335003Y3939061D01*
X421448Y3903254D01*
X513217Y3885000D01*
X606783Y3885000D01*
X698552Y3903254D01*
X784997Y3939061D01*
X862795Y3991044D01*
X928956Y4057205D01*
X980939Y4135003D01*
X1016746Y4221448D01*
X1035000Y4313217D01*
X1035000Y4396783D01*
X2675000Y4396783D01*
X2675000Y4303217D01*
X2693254Y4211448D01*
X2729061Y4125003D01*
X2781044Y4047205D01*
X2847205Y3981044D01*
X2925003Y3929061D01*
X3011448Y3893254D01*
X3103217Y3875000D01*
X3196783Y3875000D01*
X3288552Y3893254D01*
X3374997Y3929061D01*
X3452795Y3981044D01*
X3518956Y4047205D01*
X3570939Y4125003D01*
X3606746Y4211448D01*
X3625000Y4303217D01*
X3625000Y4396783D01*
X3606746Y4488552D01*
X3570939Y4574997D01*
X3518956Y4652795D01*
X3452795Y4718956D01*
X3374997Y4770939D01*
X3288552Y4806746D01*
X3196783Y4825000D01*
X3103217Y4825000D01*
X3011448Y4806746D01*
X2925003Y4770939D01*
X2847205Y4718956D01*
X2781044Y4652795D01*
X2729061Y4574997D01*
X2693254Y4488552D01*
X2675000Y4396783D01*
X1035000Y4396783D01*
X1035000Y4406783D01*
X1016746Y4498552D01*
X980939Y4584997D01*
X928956Y4662795D01*
X862795Y4728956D01*
X784997Y4780939D01*
X698552Y4816746D01*
X606783Y4835000D01*
X513217Y4835000D01*
X421448Y4816746D01*
X335003Y4780939D01*
X257205Y4728956D01*
X191044Y4662795D01*
X139061Y4584997D01*
X103254Y4498552D01*
X85000Y4406783D01*
X-658269Y4406783D01*
X-655000Y4423217D01*
X-655000Y4516783D01*
X-673254Y4608552D01*
X-709061Y4694997D01*
X-761044Y4772795D01*
X-827205Y4838956D01*
X-905003Y4890939D01*
X-991448Y4926746D01*
X-1083217Y4945000D01*
X-1176783Y4945000D01*
X-1268552Y4926746D01*
X-1354997Y4890939D01*
X-1432795Y4838956D01*
X-1498956Y4772795D01*
X-1550939Y4694997D01*
X-1586746Y4608552D01*
X-1605000Y4516783D01*
X-1966989Y4516783D01*
X-1983254Y4598552D01*
X-2019061Y4684997D01*
X-2071044Y4762795D01*
X-2137205Y4828956D01*
X-2215003Y4880939D01*
X-2301448Y4916746D01*
X-2393217Y4935000D01*
X-2486783Y4935000D01*
X-2578552Y4916746D01*
X-2664997Y4880939D01*
X-2742795Y4828956D01*
X-2808956Y4762795D01*
X-2860939Y4684997D01*
X-2896746Y4598552D01*
X-2915000Y4506783D01*
X-5753787Y4506783D01*
X-5700003Y4529061D01*
X-5622205Y4581044D01*
X-5556044Y4647205D01*
X-5504061Y4725003D01*
X-5468254Y4811448D01*
X-5450000Y4903217D01*
X-5450000Y4996783D01*
X-5468254Y5088552D01*
X-5500835Y5167211D01*
X6633000Y5167211D01*
X6633000Y4972789D01*
X6670930Y4782103D01*
X6745332Y4602480D01*
X6853347Y4440824D01*
X6990824Y4303347D01*
X7152480Y4195332D01*
X7332103Y4120930D01*
X7522789Y4083000D01*
X7717211Y4083000D01*
X7907897Y4120930D01*
X8087520Y4195332D01*
X8249176Y4303347D01*
X8386653Y4440824D01*
X8494668Y4602480D01*
X8569070Y4782103D01*
X8607000Y4972789D01*
X8607000Y5167211D01*
X8569070Y5357897D01*
X8494668Y5537520D01*
X8386653Y5699176D01*
X8249176Y5836653D01*
X8087520Y5944668D01*
X7907897Y6019070D01*
X7717211Y6057000D01*
X7522789Y6057000D01*
X7332103Y6019070D01*
X7152480Y5944668D01*
X6990824Y5836653D01*
X6853347Y5699176D01*
X6745332Y5537520D01*
X6670930Y5357897D01*
X6633000Y5167211D01*
X-5500835Y5167211D01*
X-5504061Y5174997D01*
X-5556044Y5252795D01*
X-5622205Y5318956D01*
X-5700003Y5370939D01*
X-5786448Y5406746D01*
X-5878217Y5425000D01*
X-5971783Y5425000D01*
X-6063552Y5406746D01*
X-6149997Y5370939D01*
X-6227795Y5318956D01*
X-6286771Y5259980D01*
X-6324892Y5456356D01*
X-6425151Y5701596D01*
X-6431025Y5712585D01*
X-6650276Y5786580D01*
X-7366856Y5070000D01*
X-7873144Y5070000D01*
X-8589724Y5786580D01*
X-8770000Y5725739D01*
X-8770000Y6640276D01*
X-8336580Y6640276D01*
X-8262585Y6421025D01*
X-8068645Y6339643D01*
X-8251596Y6264849D01*
X-8262585Y6258975D01*
X-8336580Y6039724D01*
X-7620000Y5323144D01*
X-6903420Y6039724D01*
X-6977415Y6258975D01*
X-7007937Y6271783D01*
X-6525000Y6271783D01*
X-6525000Y6178217D01*
X-6506746Y6086448D01*
X-6470939Y6000003D01*
X-6418956Y5922205D01*
X-6352795Y5856044D01*
X-6274997Y5804061D01*
X-6188552Y5768254D01*
X-6096783Y5750000D01*
X-6003217Y5750000D01*
X-5911448Y5768254D01*
X-5825003Y5804061D01*
X-5747205Y5856044D01*
X-5681044Y5922205D01*
X-5647918Y5971783D01*
X5375000Y5971783D01*
X5375000Y5878217D01*
X5393254Y5786448D01*
X5429061Y5700003D01*
X5481044Y5622205D01*
X5547205Y5556044D01*
X5625003Y5504061D01*
X5711448Y5468254D01*
X5803217Y5450000D01*
X5896783Y5450000D01*
X5988552Y5468254D01*
X6074997Y5504061D01*
X6152795Y5556044D01*
X6218956Y5622205D01*
X6270939Y5700003D01*
X6306746Y5786448D01*
X6325000Y5878217D01*
X6325000Y5971783D01*
X6306746Y6063552D01*
X6270939Y6149997D01*
X6218956Y6227795D01*
X6152795Y6293956D01*
X6074997Y6345939D01*
X5988552Y6381746D01*
X5896783Y6400000D01*
X5803217Y6400000D01*
X5711448Y6381746D01*
X5625003Y6345939D01*
X5547205Y6293956D01*
X5481044Y6227795D01*
X5429061Y6149997D01*
X5393254Y6063552D01*
X5375000Y5971783D01*
X-5647918Y5971783D01*
X-5629061Y6000003D01*
X-5593254Y6086448D01*
X-5575000Y6178217D01*
X-5575000Y6271783D01*
X-5593254Y6363552D01*
X-5629061Y6449997D01*
X-5681044Y6527795D01*
X-5747205Y6593956D01*
X-5825003Y6645939D01*
X-5911448Y6681746D01*
X-6003217Y6700000D01*
X-6096783Y6700000D01*
X-6188552Y6681746D01*
X-6274997Y6645939D01*
X-6352795Y6593956D01*
X-6418956Y6527795D01*
X-6470939Y6449997D01*
X-6506746Y6363552D01*
X-6525000Y6271783D01*
X-7007937Y6271783D01*
X-7171355Y6340357D01*
X-6988404Y6415151D01*
X-6977415Y6421025D01*
X-6903420Y6640276D01*
X-7620000Y7356856D01*
X-8336580Y6640276D01*
X-8770000Y6640276D01*
X-8770000Y6954261D01*
X-8589724Y6893420D01*
X-7873144Y7610000D01*
X-7366856Y7610000D01*
X-6650276Y6893420D01*
X-6431025Y6967415D01*
X-6328509Y7211719D01*
X-6275624Y7471330D01*
X-6274403Y7736269D01*
X-6324892Y7996356D01*
X-6380944Y8133464D01*
X-1055000Y8133464D01*
X-1055000Y8039898D01*
X-1036746Y7948129D01*
X-1000939Y7861684D01*
X-948956Y7783886D01*
X-882795Y7717725D01*
X-804997Y7665742D01*
X-718552Y7629935D01*
X-626783Y7611681D01*
X-533217Y7611681D01*
X-441448Y7629935D01*
X-355003Y7665742D01*
X-277205Y7717725D01*
X-211044Y7783886D01*
X-159061Y7861684D01*
X-123254Y7948129D01*
X-105000Y8039898D01*
X-105000Y8121783D01*
X75000Y8121783D01*
X75000Y8028217D01*
X93254Y7936448D01*
X129061Y7850003D01*
X181044Y7772205D01*
X247205Y7706044D01*
X306166Y7666648D01*
X272205Y7643956D01*
X206044Y7577795D01*
X154061Y7499997D01*
X118254Y7413552D01*
X100000Y7321783D01*
X100000Y7228217D01*
X118254Y7136448D01*
X154061Y7050003D01*
X206044Y6972205D01*
X272205Y6906044D01*
X350003Y6854061D01*
X436448Y6818254D01*
X455440Y6814476D01*
X429061Y6774997D01*
X393254Y6688552D01*
X375000Y6596783D01*
X375000Y6503217D01*
X393254Y6411448D01*
X429061Y6325003D01*
X481044Y6247205D01*
X547205Y6181044D01*
X625003Y6129061D01*
X711448Y6093254D01*
X803217Y6075000D01*
X896783Y6075000D01*
X988552Y6093254D01*
X1074997Y6129061D01*
X1152795Y6181044D01*
X1218956Y6247205D01*
X1270939Y6325003D01*
X1306746Y6411448D01*
X1325000Y6503217D01*
X1325000Y6546783D01*
X1925000Y6546783D01*
X1925000Y6453217D01*
X1943254Y6361448D01*
X1979061Y6275003D01*
X2031044Y6197205D01*
X2097205Y6131044D01*
X2175003Y6079061D01*
X2261448Y6043254D01*
X2353217Y6025000D01*
X2446783Y6025000D01*
X2538552Y6043254D01*
X2624997Y6079061D01*
X2702795Y6131044D01*
X2768956Y6197205D01*
X2820939Y6275003D01*
X2830440Y6297940D01*
X2881044Y6222205D01*
X2947205Y6156044D01*
X3025003Y6104061D01*
X3111448Y6068254D01*
X3203217Y6050000D01*
X3296783Y6050000D01*
X3388552Y6068254D01*
X3474997Y6104061D01*
X3552795Y6156044D01*
X3618956Y6222205D01*
X3670939Y6300003D01*
X3706746Y6386448D01*
X3725000Y6478217D01*
X3725000Y6496783D01*
X4200000Y6496783D01*
X4200000Y6403217D01*
X4218254Y6311448D01*
X4254061Y6225003D01*
X4306044Y6147205D01*
X4372205Y6081044D01*
X4450003Y6029061D01*
X4536448Y5993254D01*
X4628217Y5975000D01*
X4721783Y5975000D01*
X4813552Y5993254D01*
X4899997Y6029061D01*
X4977795Y6081044D01*
X5043956Y6147205D01*
X5095939Y6225003D01*
X5131746Y6311448D01*
X5150000Y6403217D01*
X5150000Y6496783D01*
X5131746Y6588552D01*
X5095939Y6674997D01*
X5043956Y6752795D01*
X4977795Y6818956D01*
X4899997Y6870939D01*
X4813552Y6906746D01*
X4721783Y6925000D01*
X4628217Y6925000D01*
X4536448Y6906746D01*
X4450003Y6870939D01*
X4372205Y6818956D01*
X4306044Y6752795D01*
X4254061Y6674997D01*
X4218254Y6588552D01*
X4200000Y6496783D01*
X3725000Y6496783D01*
X3725000Y6571783D01*
X3706746Y6663552D01*
X3688233Y6708245D01*
X3738552Y6718254D01*
X3824997Y6754061D01*
X3902795Y6806044D01*
X3968956Y6872205D01*
X4020939Y6950003D01*
X4056746Y7036448D01*
X4075000Y7128217D01*
X4075000Y7221783D01*
X4056746Y7313552D01*
X4020939Y7399997D01*
X3968956Y7477795D01*
X3902795Y7543956D01*
X3824997Y7595939D01*
X3738552Y7631746D01*
X3646783Y7650000D01*
X3553217Y7650000D01*
X3461448Y7631746D01*
X3375003Y7595939D01*
X3297205Y7543956D01*
X3231044Y7477795D01*
X3179061Y7399997D01*
X3143254Y7313552D01*
X3125000Y7221783D01*
X3125000Y7128217D01*
X3143254Y7036448D01*
X3161767Y6991755D01*
X3111448Y6981746D01*
X3025003Y6945939D01*
X2947205Y6893956D01*
X2881044Y6827795D01*
X2829061Y6749997D01*
X2819560Y6727060D01*
X2768956Y6802795D01*
X2702795Y6868956D01*
X2624997Y6920939D01*
X2538552Y6956746D01*
X2446783Y6975000D01*
X2353217Y6975000D01*
X2261448Y6956746D01*
X2175003Y6920939D01*
X2097205Y6868956D01*
X2031044Y6802795D01*
X1979061Y6724997D01*
X1943254Y6638552D01*
X1925000Y6546783D01*
X1325000Y6546783D01*
X1325000Y6596783D01*
X1306746Y6688552D01*
X1270939Y6774997D01*
X1218956Y6852795D01*
X1152795Y6918956D01*
X1074997Y6970939D01*
X988552Y7006746D01*
X969560Y7010524D01*
X995939Y7050003D01*
X1031746Y7136448D01*
X1050000Y7228217D01*
X1050000Y7321783D01*
X1031746Y7413552D01*
X995939Y7499997D01*
X943956Y7577795D01*
X877795Y7643956D01*
X818834Y7683352D01*
X852795Y7706044D01*
X918956Y7772205D01*
X970939Y7850003D01*
X1006746Y7936448D01*
X1025000Y8028217D01*
X1025000Y8121783D01*
X1006746Y8213552D01*
X970939Y8299997D01*
X964735Y8309283D01*
X3487500Y8309283D01*
X3487500Y8215717D01*
X3505754Y8123948D01*
X3541561Y8037503D01*
X3593544Y7959705D01*
X3659705Y7893544D01*
X3737503Y7841561D01*
X3823948Y7805754D01*
X3915717Y7787500D01*
X4009283Y7787500D01*
X4101052Y7805754D01*
X4187497Y7841561D01*
X4265295Y7893544D01*
X4331456Y7959705D01*
X4383439Y8037503D01*
X4407993Y8096783D01*
X5675000Y8096783D01*
X5675000Y8003217D01*
X5693254Y7911448D01*
X5729061Y7825003D01*
X5781044Y7747205D01*
X5847205Y7681044D01*
X5925003Y7629061D01*
X6011448Y7593254D01*
X6103217Y7575000D01*
X6196783Y7575000D01*
X6288552Y7593254D01*
X6374997Y7629061D01*
X6452795Y7681044D01*
X6478962Y7707211D01*
X6633000Y7707211D01*
X6633000Y7512789D01*
X6670930Y7322103D01*
X6745332Y7142480D01*
X6853347Y6980824D01*
X6990824Y6843347D01*
X7152480Y6735332D01*
X7332103Y6660930D01*
X7522789Y6623000D01*
X7717211Y6623000D01*
X7907897Y6660930D01*
X8087520Y6735332D01*
X8249176Y6843347D01*
X8386653Y6980824D01*
X8494668Y7142480D01*
X8569070Y7322103D01*
X8607000Y7512789D01*
X8607000Y7707211D01*
X8569070Y7897897D01*
X8494668Y8077520D01*
X8386653Y8239176D01*
X8249176Y8376653D01*
X8087520Y8484668D01*
X7907897Y8559070D01*
X7717211Y8597000D01*
X7522789Y8597000D01*
X7332103Y8559070D01*
X7152480Y8484668D01*
X6990824Y8376653D01*
X6853347Y8239176D01*
X6745332Y8077520D01*
X6670930Y7897897D01*
X6633000Y7707211D01*
X6478962Y7707211D01*
X6518956Y7747205D01*
X6570939Y7825003D01*
X6606746Y7911448D01*
X6625000Y8003217D01*
X6625000Y8096783D01*
X6606746Y8188552D01*
X6570939Y8274997D01*
X6518956Y8352795D01*
X6452795Y8418956D01*
X6374997Y8470939D01*
X6288552Y8506746D01*
X6196783Y8525000D01*
X6103217Y8525000D01*
X6011448Y8506746D01*
X5925003Y8470939D01*
X5847205Y8418956D01*
X5781044Y8352795D01*
X5729061Y8274997D01*
X5693254Y8188552D01*
X5675000Y8096783D01*
X4407993Y8096783D01*
X4419246Y8123948D01*
X4437500Y8215717D01*
X4437500Y8309283D01*
X4436781Y8312895D01*
X4450003Y8304061D01*
X4536448Y8268254D01*
X4628217Y8250000D01*
X4721783Y8250000D01*
X4813552Y8268254D01*
X4899997Y8304061D01*
X4977795Y8356044D01*
X5043956Y8422205D01*
X5095939Y8500003D01*
X5131746Y8586448D01*
X5150000Y8678217D01*
X5150000Y8771783D01*
X5131746Y8863552D01*
X5095939Y8949997D01*
X5043956Y9027795D01*
X4977795Y9093956D01*
X4899997Y9145939D01*
X4817101Y9180276D01*
X6903420Y9180276D01*
X6977415Y8961025D01*
X7221719Y8858509D01*
X7481330Y8805624D01*
X7746269Y8804403D01*
X8006356Y8854892D01*
X8251596Y8955151D01*
X8262585Y8961025D01*
X8336580Y9180276D01*
X7620000Y9896856D01*
X6903420Y9180276D01*
X4817101Y9180276D01*
X4813552Y9181746D01*
X4721783Y9200000D01*
X4628217Y9200000D01*
X4536448Y9181746D01*
X4450003Y9145939D01*
X4372205Y9093956D01*
X4306044Y9027795D01*
X4254061Y8949997D01*
X4218254Y8863552D01*
X4200000Y8771783D01*
X4200000Y8678217D01*
X4200719Y8674605D01*
X4187497Y8683439D01*
X4101052Y8719246D01*
X4009283Y8737500D01*
X3915717Y8737500D01*
X3823948Y8719246D01*
X3737503Y8683439D01*
X3659705Y8631456D01*
X3593544Y8565295D01*
X3541561Y8487497D01*
X3505754Y8401052D01*
X3487500Y8309283D01*
X964735Y8309283D01*
X918956Y8377795D01*
X852795Y8443956D01*
X774997Y8495939D01*
X688552Y8531746D01*
X596783Y8550000D01*
X503217Y8550000D01*
X411448Y8531746D01*
X325003Y8495939D01*
X247205Y8443956D01*
X181044Y8377795D01*
X129061Y8299997D01*
X93254Y8213552D01*
X75000Y8121783D01*
X-105000Y8121783D01*
X-105000Y8133464D01*
X-123254Y8225233D01*
X-159061Y8311678D01*
X-211044Y8389476D01*
X-277205Y8455637D01*
X-355003Y8507620D01*
X-441448Y8543427D01*
X-533217Y8561681D01*
X-626783Y8561681D01*
X-718552Y8543427D01*
X-804997Y8507620D01*
X-882795Y8455637D01*
X-948956Y8389476D01*
X-1000939Y8311678D01*
X-1036746Y8225233D01*
X-1055000Y8133464D01*
X-6380944Y8133464D01*
X-6425151Y8241596D01*
X-6431025Y8252585D01*
X-6650276Y8326580D01*
X-7366856Y7610000D01*
X-7873144Y7610000D01*
X-8589724Y8326580D01*
X-8770000Y8265739D01*
X-8770000Y8579724D01*
X-8336580Y8579724D01*
X-7620000Y7863144D01*
X-6903420Y8579724D01*
X-6977415Y8798975D01*
X-7221719Y8901491D01*
X-7481330Y8954376D01*
X-7746269Y8955597D01*
X-8006356Y8905108D01*
X-8251596Y8804849D01*
X-8262585Y8798975D01*
X-8336580Y8579724D01*
X-8770000Y8579724D01*
X-8770000Y9014283D01*
X-5167500Y9014283D01*
X-5167500Y8920717D01*
X-5149246Y8828948D01*
X-5113439Y8742503D01*
X-5061456Y8664705D01*
X-4995295Y8598544D01*
X-4917497Y8546561D01*
X-4831052Y8510754D01*
X-4739283Y8492500D01*
X-4645717Y8492500D01*
X-4553948Y8510754D01*
X-4467503Y8546561D01*
X-4389705Y8598544D01*
X-4323544Y8664705D01*
X-4271561Y8742503D01*
X-4235754Y8828948D01*
X-4217500Y8920717D01*
X-4217500Y9014283D01*
X-4235754Y9106052D01*
X-4271561Y9192497D01*
X-4323544Y9270295D01*
X-4389705Y9336456D01*
X-4467503Y9388439D01*
X-4553948Y9424246D01*
X-4645717Y9442500D01*
X-4739283Y9442500D01*
X-4831052Y9424246D01*
X-4917497Y9388439D01*
X-4995295Y9336456D01*
X-5061456Y9270295D01*
X-5113439Y9192497D01*
X-5149246Y9106052D01*
X-5167500Y9014283D01*
X-8770000Y9014283D01*
X-8770000Y10247211D01*
X-8607000Y10247211D01*
X-8607000Y10052789D01*
X-8569070Y9862103D01*
X-8494668Y9682480D01*
X-8386653Y9520824D01*
X-8249176Y9383347D01*
X-8087520Y9275332D01*
X-7907897Y9200930D01*
X-7717211Y9163000D01*
X-7522789Y9163000D01*
X-7332103Y9200930D01*
X-7152480Y9275332D01*
X-6990824Y9383347D01*
X-6853347Y9520824D01*
X-6745332Y9682480D01*
X-6697987Y9796783D01*
X-3275000Y9796783D01*
X-3275000Y9703217D01*
X-3256746Y9611448D01*
X-3220939Y9525003D01*
X-3168956Y9447205D01*
X-3102795Y9381044D01*
X-3024997Y9329061D01*
X-2938552Y9293254D01*
X-2846783Y9275000D01*
X-2753217Y9275000D01*
X-2661448Y9293254D01*
X-2575003Y9329061D01*
X-2497205Y9381044D01*
X-2431044Y9447205D01*
X-2379061Y9525003D01*
X-2343254Y9611448D01*
X-2325000Y9703217D01*
X-2325000Y9796783D01*
X-2332956Y9836783D01*
X-1395000Y9836783D01*
X-1395000Y9743217D01*
X-1376746Y9651448D01*
X-1340939Y9565003D01*
X-1288956Y9487205D01*
X-1222795Y9421044D01*
X-1144997Y9369061D01*
X-1058552Y9333254D01*
X-966783Y9315000D01*
X-873217Y9315000D01*
X-781448Y9333254D01*
X-695003Y9369061D01*
X-617205Y9421044D01*
X-551044Y9487205D01*
X-544645Y9496783D01*
X-225000Y9496783D01*
X-225000Y9403217D01*
X-206746Y9311448D01*
X-170939Y9225003D01*
X-118956Y9147205D01*
X-52795Y9081044D01*
X25003Y9029061D01*
X111448Y8993254D01*
X203217Y8975000D01*
X296783Y8975000D01*
X388552Y8993254D01*
X474997Y9029061D01*
X552795Y9081044D01*
X618956Y9147205D01*
X670939Y9225003D01*
X706746Y9311448D01*
X725000Y9403217D01*
X725000Y9496783D01*
X706746Y9588552D01*
X670939Y9674997D01*
X618956Y9752795D01*
X574968Y9796783D01*
X2325000Y9796783D01*
X2325000Y9703217D01*
X2343254Y9611448D01*
X2379061Y9525003D01*
X2431044Y9447205D01*
X2497205Y9381044D01*
X2575003Y9329061D01*
X2661448Y9293254D01*
X2753217Y9275000D01*
X2846783Y9275000D01*
X2938552Y9293254D01*
X3024997Y9329061D01*
X3102795Y9381044D01*
X3168956Y9447205D01*
X3220939Y9525003D01*
X3256746Y9611448D01*
X3275000Y9703217D01*
X3275000Y9796783D01*
X3270028Y9821783D01*
X5150000Y9821783D01*
X5150000Y9728217D01*
X5168254Y9636448D01*
X5204061Y9550003D01*
X5256044Y9472205D01*
X5322205Y9406044D01*
X5400003Y9354061D01*
X5486448Y9318254D01*
X5578217Y9300000D01*
X5671783Y9300000D01*
X5763552Y9318254D01*
X5849997Y9354061D01*
X5927795Y9406044D01*
X5993956Y9472205D01*
X6045939Y9550003D01*
X6081746Y9636448D01*
X6100000Y9728217D01*
X6100000Y9821783D01*
X6081746Y9913552D01*
X6045939Y9999997D01*
X6030081Y10023731D01*
X6274403Y10023731D01*
X6324892Y9763644D01*
X6425151Y9518404D01*
X6431025Y9507415D01*
X6650276Y9433420D01*
X7366856Y10150000D01*
X6650276Y10866580D01*
X6431025Y10792585D01*
X6328509Y10548281D01*
X6275624Y10288670D01*
X6274403Y10023731D01*
X6030081Y10023731D01*
X5993956Y10077795D01*
X5927795Y10143956D01*
X5849997Y10195939D01*
X5763552Y10231746D01*
X5671783Y10250000D01*
X5578217Y10250000D01*
X5486448Y10231746D01*
X5400003Y10195939D01*
X5322205Y10143956D01*
X5256044Y10077795D01*
X5204061Y9999997D01*
X5168254Y9913552D01*
X5150000Y9821783D01*
X3270028Y9821783D01*
X3256746Y9888552D01*
X3220939Y9974997D01*
X3168956Y10052795D01*
X3102795Y10118956D01*
X3024997Y10170939D01*
X2938552Y10206746D01*
X2846783Y10225000D01*
X2753217Y10225000D01*
X2661448Y10206746D01*
X2575003Y10170939D01*
X2497205Y10118956D01*
X2431044Y10052795D01*
X2379061Y9974997D01*
X2343254Y9888552D01*
X2325000Y9796783D01*
X574968Y9796783D01*
X552795Y9818956D01*
X474997Y9870939D01*
X388552Y9906746D01*
X296783Y9925000D01*
X203217Y9925000D01*
X111448Y9906746D01*
X25003Y9870939D01*
X-52795Y9818956D01*
X-118956Y9752795D01*
X-170939Y9674997D01*
X-206746Y9588552D01*
X-225000Y9496783D01*
X-544645Y9496783D01*
X-499061Y9565003D01*
X-463254Y9651448D01*
X-445000Y9743217D01*
X-445000Y9836783D01*
X-463254Y9928552D01*
X-499061Y10014997D01*
X-551044Y10092795D01*
X-617205Y10158956D01*
X-695003Y10210939D01*
X-781448Y10246746D01*
X-873217Y10265000D01*
X-966783Y10265000D01*
X-1058552Y10246746D01*
X-1144997Y10210939D01*
X-1222795Y10158956D01*
X-1288956Y10092795D01*
X-1340939Y10014997D01*
X-1376746Y9928552D01*
X-1395000Y9836783D01*
X-2332956Y9836783D01*
X-2343254Y9888552D01*
X-2379061Y9974997D01*
X-2431044Y10052795D01*
X-2497205Y10118956D01*
X-2575003Y10170939D01*
X-2661448Y10206746D01*
X-2753217Y10225000D01*
X-2846783Y10225000D01*
X-2938552Y10206746D01*
X-3024997Y10170939D01*
X-3102795Y10118956D01*
X-3168956Y10052795D01*
X-3220939Y9974997D01*
X-3256746Y9888552D01*
X-3275000Y9796783D01*
X-6697987Y9796783D01*
X-6670930Y9862103D01*
X-6633000Y10052789D01*
X-6633000Y10247211D01*
X-6670930Y10437897D01*
X-6745332Y10617520D01*
X-6853347Y10779176D01*
X-6990824Y10916653D01*
X-7152480Y11024668D01*
X-7332103Y11099070D01*
X-7522789Y11137000D01*
X-7717211Y11137000D01*
X-7907897Y11099070D01*
X-8087520Y11024668D01*
X-8249176Y10916653D01*
X-8386653Y10779176D01*
X-8494668Y10617520D01*
X-8569070Y10437897D01*
X-8607000Y10247211D01*
X-8770000Y10247211D01*
X-8770000Y12787211D01*
X-8607000Y12787211D01*
X-8607000Y12592789D01*
X-8569070Y12402103D01*
X-8494668Y12222480D01*
X-8386653Y12060824D01*
X-8249176Y11923347D01*
X-8087520Y11815332D01*
X-7907897Y11740930D01*
X-7717211Y11703000D01*
X-7522789Y11703000D01*
X-7332103Y11740930D01*
X-7152480Y11815332D01*
X-6990824Y11923347D01*
X-6853347Y12060824D01*
X-6745332Y12222480D01*
X-6670930Y12402103D01*
X-6633000Y12592789D01*
X-6633000Y12787211D01*
X-6670930Y12977897D01*
X-6745332Y13157520D01*
X-6853347Y13319176D01*
X-6990824Y13456653D01*
X-7152480Y13564668D01*
X-7332103Y13639070D01*
X-7522789Y13677000D01*
X-7717211Y13677000D01*
X-7907897Y13639070D01*
X-8087520Y13564668D01*
X-8249176Y13456653D01*
X-8386653Y13319176D01*
X-8494668Y13157520D01*
X-8569070Y12977897D01*
X-8607000Y12787211D01*
X-8770000Y12787211D01*
X-8770000Y14260276D01*
X-8336580Y14260276D01*
X-8262585Y14041025D01*
X-8018281Y13938509D01*
X-7758670Y13885624D01*
X-7493731Y13884403D01*
X-7233644Y13934892D01*
X-6988404Y14035151D01*
X-6977415Y14041025D01*
X-6903420Y14260276D01*
X-7620000Y14976856D01*
X-8336580Y14260276D01*
X-8770000Y14260276D01*
X-8770000Y14574261D01*
X-8589724Y14513420D01*
X-7873144Y15230000D01*
X-7887287Y15244143D01*
X-7634143Y15497287D01*
X-7620000Y15483144D01*
X-6903420Y16199724D01*
X-6971011Y16400000D01*
X-6162624Y16400000D01*
X-6180731Y16377936D01*
G37*
%TD.AperFunction*%
%TD*%
M02*
