%TF.GenerationSoftware,KiCad,Pcbnew,(5.1.9)-1*%
%TF.CreationDate,2021-01-02T15:49:44+08:00*%
%TF.ProjectId,akami,616b616d-692e-46b6-9963-61645f706362,rev?*%
%TF.SameCoordinates,Original*%
%TF.FileFunction,Copper,L4,Bot*%
%TF.FilePolarity,Positive*%
%FSLAX46Y46*%
G04 Gerber Fmt 4.6, Leading zero omitted, Abs format (unit mm)*
G04 Created by KiCad (PCBNEW (5.1.9)-1) date 2021-01-02 15:49:44*
%MOMM*%
%LPD*%
G01*
G04 APERTURE LIST*
%TA.AperFunction,WasherPad*%
%ADD10C,2.000000*%
%TD*%
%TA.AperFunction,ComponentPad*%
%ADD11C,1.524000*%
%TD*%
%TA.AperFunction,SMDPad,CuDef*%
%ADD12R,1.000000X1.000000*%
%TD*%
%TA.AperFunction,ComponentPad*%
%ADD13O,1.000000X2.200000*%
%TD*%
%TA.AperFunction,ComponentPad*%
%ADD14O,1.000000X1.800000*%
%TD*%
%TA.AperFunction,ViaPad*%
%ADD15C,0.500000*%
%TD*%
%TA.AperFunction,ViaPad*%
%ADD16C,0.800000*%
%TD*%
%TA.AperFunction,Conductor*%
%ADD17C,0.150000*%
%TD*%
%TA.AperFunction,Conductor*%
%ADD18C,0.300000*%
%TD*%
%TA.AperFunction,Conductor*%
%ADD19C,0.200000*%
%TD*%
%TA.AperFunction,Conductor*%
%ADD20C,0.261112*%
%TD*%
%TA.AperFunction,Conductor*%
%ADD21C,0.261100*%
%TD*%
G04 APERTURE END LIST*
D10*
%TO.P,REF\u002A\u002A,*%
%TO.N,*%
X13000000Y14500000D03*
%TD*%
%TO.P,REF\u002A\u002A,*%
%TO.N,*%
X13000000Y-14500000D03*
%TD*%
%TO.P,REF\u002A\u002A,*%
%TO.N,*%
X-13000000Y-14500000D03*
%TD*%
%TO.P,REF\u002A\u002A,*%
%TO.N,*%
X-13000000Y14500000D03*
%TD*%
D11*
%TO.P,U4,24*%
%TO.N,VBAT*%
X7620000Y12690000D03*
%TO.P,U4,23*%
%TO.N,GND*%
X7620000Y10150000D03*
%TO.P,U4,22*%
%TO.N,RESET*%
X7620000Y7610000D03*
%TO.P,U4,21*%
%TO.N,3V3_OUT*%
X7620000Y5070000D03*
%TO.P,U4,20*%
%TO.N,P0.31*%
X7620000Y2530000D03*
%TO.P,U4,19*%
%TO.N,P0.29*%
X7620000Y-10000D03*
%TO.P,U4,18*%
%TO.N,P0.02*%
X7620000Y-2550000D03*
%TO.P,U4,17*%
%TO.N,P1.15*%
X7620000Y-5090000D03*
%TO.P,U4,16*%
%TO.N,P1.13*%
X7620000Y-7630000D03*
%TO.P,U4,15*%
%TO.N,P1.11*%
X7620000Y-10170000D03*
%TO.P,U4,14*%
%TO.N,P0.10*%
X7620000Y-12710000D03*
%TO.P,U4,13*%
%TO.N,P0.09*%
X7620000Y-15250000D03*
%TO.P,U4,12*%
%TO.N,P1.06*%
X-7620000Y-15250000D03*
%TO.P,U4,11*%
%TO.N,P1.04*%
X-7620000Y-12710000D03*
%TO.P,U4,10*%
%TO.N,P0.11*%
X-7620000Y-10170000D03*
%TO.P,U4,9*%
%TO.N,P1.00*%
X-7620000Y-7630000D03*
%TO.P,U4,8*%
%TO.N,P0.24*%
X-7620000Y-5090000D03*
%TO.P,U4,7*%
%TO.N,P0.22*%
X-7620000Y-2550000D03*
%TO.P,U4,6*%
%TO.N,P0.20*%
X-7620000Y-10000D03*
%TO.P,U4,5*%
%TO.N,P0.17*%
X-7620000Y2530000D03*
%TO.P,U4,4*%
%TO.N,GND*%
X-7620000Y5070000D03*
%TO.P,U4,3*%
X-7620000Y7610000D03*
%TO.P,U4,2*%
%TO.N,P0.08*%
X-7620000Y10150000D03*
%TO.P,U4,1*%
%TO.N,P0.06*%
X-7620000Y12690000D03*
%TD*%
D12*
%TO.P,TP1,1*%
%TO.N,SWC*%
X-3170000Y-9400000D03*
%TD*%
%TO.P,TP2,1*%
%TO.N,SWD*%
X-4680000Y-9400000D03*
%TD*%
D13*
%TO.P,J1,S1*%
%TO.N,Net-(J1-PadS1)*%
X-5575000Y15373200D03*
X5575600Y15373200D03*
D14*
X5575600Y11473200D03*
X-5575000Y11473200D03*
%TD*%
D15*
%TO.N,VDD_NRF*%
X-3800000Y-5410000D03*
X-2400000Y-1510000D03*
X-1800000Y3230000D03*
X3730000Y-6900000D03*
X3200000Y-1850000D03*
X-1780000Y-9790000D03*
X-2590000Y-7485000D03*
X3962500Y8262500D03*
%TO.N,Net-(C11-Pad1)*%
X2650000Y-7580000D03*
X5550000Y-8200000D03*
%TO.N,VBUS*%
X-2525000Y9550000D03*
X2550000Y9700000D03*
X0Y3650000D03*
X575000Y7275000D03*
X3250000Y6525000D03*
%TO.N,Net-(C15-Pad2)*%
X2170000Y-8250000D03*
X3275000Y-2600000D03*
X-6075000Y-8675000D03*
%TO.N,BAT_VOLT*%
X1850000Y600000D03*
X775000Y6625000D03*
%TO.N,Net-(C20-Pad2)*%
X-2440000Y4460000D03*
X-1130000Y4470000D03*
X1575000Y3375000D03*
%TO.N,VBAT*%
X560000Y4360000D03*
X-1540000Y2610000D03*
X5625000Y9775000D03*
X3150000Y4350000D03*
%TO.N,BLUE_LED*%
X-5780000Y-3210000D03*
X-5350000Y4300000D03*
%TO.N,USB_D+*%
X250000Y9450000D03*
X-920000Y9790000D03*
X-4600000Y-2270000D03*
%TO.N,USB_D-*%
X-800000Y7850000D03*
X650000Y7950000D03*
X-3850000Y-2260000D03*
%TO.N,Net-(L3-Pad2)*%
X2290000Y-2690000D03*
X-4475000Y-4450000D03*
%TO.N,3V3_OUT*%
X4675000Y6450000D03*
X4675000Y8725000D03*
%TO.N,POWER_CTRL*%
X-4260000Y-3420000D03*
X2360000Y6490000D03*
X5825000Y2650000D03*
%TO.N,Net-(R11-Pad2)*%
X6150000Y8050000D03*
X5850000Y5925000D03*
%TO.N,CHARGE_CTRL*%
X1120000Y-1240000D03*
X3490000Y550000D03*
%TO.N,SWD*%
X-3320000Y-8510000D03*
%TO.N,SWC*%
X-2260000Y-8640000D03*
%TO.N,RESET*%
X-2460000Y-3540000D03*
D16*
%TO.N,GND*%
X-1212500Y-3787500D03*
X-1212500Y-6212500D03*
X1212500Y-6212500D03*
X1212500Y-3787500D03*
D15*
X4575000Y10175000D03*
X-4575000Y10175000D03*
X-1750000Y3950000D03*
X-2220000Y8830000D03*
X2660000Y2300000D03*
X70000Y-10750000D03*
X-5460000Y-1130000D03*
X230000Y610000D03*
X210000Y-110000D03*
X5690000Y-2640000D03*
X3500000Y-10990000D03*
X1650000Y-9800000D03*
X3825000Y-1550000D03*
X3500000Y-10150000D03*
X6970000Y-9060000D03*
X7020000Y-6410000D03*
X-7600000Y-8900000D03*
X7600000Y-8900000D03*
X2600000Y-11000000D03*
X-3700000Y-10350000D03*
X6300000Y1550000D03*
X-5525000Y7175000D03*
X1675000Y4675000D03*
X2575000Y8950000D03*
X-3150000Y4350000D03*
X5475000Y4300000D03*
X6725000Y-1175000D03*
%TO.N,P0.09*%
X60000Y-7790000D03*
%TO.N,P0.10*%
X590000Y-7400000D03*
%TO.N,P1.11*%
X2400000Y-6740000D03*
%TO.N,P1.13*%
X3800000Y-6125000D03*
%TO.N,P1.15*%
X3800000Y-5050000D03*
%TO.N,P0.02*%
X3925000Y-4225000D03*
%TO.N,P0.29*%
X4200000Y-3625000D03*
%TO.N,P0.31*%
X3550000Y-3225000D03*
%TO.N,P1.04*%
X-1320000Y-8820000D03*
%TO.N,P1.06*%
X-860000Y-9400000D03*
%TO.N,P0.11*%
X-1470000Y-2530000D03*
X-5120000Y-1790000D03*
%TO.N,P1.00*%
X-3925000Y-7600000D03*
%TO.N,P0.24*%
X-4160000Y-6950000D03*
%TO.N,P0.22*%
X-3790000Y-6390000D03*
%TO.N,P0.20*%
X-4310000Y-5900000D03*
%TO.N,P0.17*%
X-6630000Y-940000D03*
X-4470000Y-5150000D03*
%TO.N,P0.06*%
X-160000Y-1100000D03*
X-5340000Y2230000D03*
X-360000Y2240000D03*
%TO.N,P0.08*%
X-1080000Y-1140000D03*
X-1020000Y1770000D03*
X-5160000Y610000D03*
%TD*%
D17*
%TO.N,Net-(C11-Pad1)*%
X3270000Y-8200000D02*
X5550000Y-8200000D01*
X2650000Y-7580000D02*
X3270000Y-8200000D01*
D18*
%TO.N,VBUS*%
X-1705000Y10370000D02*
X-2525000Y9550000D01*
X1880000Y10370000D02*
X-1705000Y10370000D01*
X2550000Y9700000D02*
X1880000Y10370000D01*
X975000Y7275000D02*
X575000Y7275000D01*
X2500000Y7275000D02*
X3250000Y6525000D01*
X2550000Y9700000D02*
X1600000Y8750000D01*
X1600000Y8750000D02*
X1600000Y7275000D01*
X1600000Y7275000D02*
X2500000Y7275000D01*
X975000Y7275000D02*
X1600000Y7275000D01*
D17*
%TO.N,Net-(C15-Pad2)*%
X1910000Y-7615000D02*
X2170000Y-7875000D01*
X1910000Y-5690000D02*
X1910000Y-7615000D01*
X1790000Y-5570000D02*
X1910000Y-5690000D01*
X2170000Y-7875000D02*
X2170000Y-8250000D01*
X2310000Y-5050000D02*
X1790000Y-5570000D01*
X2310000Y-4680000D02*
X2310000Y-5050000D01*
X2625000Y-4365000D02*
X2310000Y-4680000D01*
X2625000Y-3250000D02*
X2625000Y-4365000D01*
X3275000Y-2600000D02*
X2625000Y-3250000D01*
X-6075000Y-8225000D02*
X-6075000Y-8675000D01*
X-5905000Y-8055000D02*
X-6075000Y-8225000D01*
X-1615000Y-8055000D02*
X-5905000Y-8055000D01*
X870000Y-5570000D02*
X-1615000Y-8055000D01*
X1790000Y-5570000D02*
X870000Y-5570000D01*
%TO.N,BAT_VOLT*%
X1850000Y2725000D02*
X1850000Y600000D01*
X2250000Y3125000D02*
X1850000Y2725000D01*
X2250000Y4975000D02*
X2250000Y3125000D01*
X775000Y6450000D02*
X2250000Y4975000D01*
X775000Y6625000D02*
X775000Y6450000D01*
D19*
%TO.N,Net-(C20-Pad2)*%
X-1130000Y4470000D02*
X-1140000Y4460000D01*
X-1140000Y4460000D02*
X-2440000Y4460000D01*
D18*
X-700000Y4900000D02*
X-1130000Y4470000D01*
X850000Y4900000D02*
X-700000Y4900000D01*
X1150000Y3800000D02*
X1150000Y4600000D01*
X1150000Y4600000D02*
X850000Y4900000D01*
X1575000Y3375000D02*
X1150000Y3800000D01*
%TO.N,VBAT*%
X-280000Y4360000D02*
X560000Y4360000D01*
X-970000Y3670000D02*
X-280000Y4360000D01*
X-970000Y3180000D02*
X-970000Y3670000D01*
X-1540000Y2610000D02*
X-970000Y3180000D01*
X7620000Y11770000D02*
X5625000Y9775000D01*
X7620000Y12690000D02*
X7620000Y11770000D01*
X5275000Y9375000D02*
X5250000Y9400000D01*
X5250000Y9400000D02*
X5625000Y9775000D01*
X5275000Y5325000D02*
X5275000Y9375000D01*
X4300000Y4350000D02*
X5275000Y5325000D01*
X3150000Y4350000D02*
X4300000Y4350000D01*
D17*
%TO.N,BLUE_LED*%
X-5960000Y-1080000D02*
X-5960000Y-3030000D01*
X-5960000Y-3030000D02*
X-5780000Y-3210000D01*
X-5950000Y-920000D02*
X-5950000Y-1070000D01*
X-4640000Y390000D02*
X-5950000Y-920000D01*
X-4640000Y3590000D02*
X-4640000Y390000D01*
X-5350000Y4300000D02*
X-4640000Y3590000D01*
X-5950000Y-1070000D02*
X-5960000Y-1080000D01*
%TO.N,Net-(J1-PadS1)*%
X-5575000Y15373200D02*
X-5575000Y11473200D01*
X5575600Y15373200D02*
X5575600Y11473200D01*
X5575600Y11125600D02*
X5575600Y11473200D01*
X5200000Y10750000D02*
X5575600Y11125600D01*
X-5200000Y10750000D02*
X5200000Y10750000D01*
X-5575000Y11125000D02*
X-5200000Y10750000D01*
X-5575000Y11473200D02*
X-5575000Y11125000D01*
D20*
%TO.N,USB_D+*%
X-4232156Y1194444D02*
X-4232156Y5446164D01*
D21*
X-2039160Y7639160D02*
X-1004160Y8674160D01*
D20*
X-4232156Y5446164D02*
X-2039160Y7639160D01*
D21*
X-4232156Y955556D02*
X-4232156Y1194444D01*
X-920000Y8758320D02*
X-1004160Y8674160D01*
X-920000Y9790000D02*
X-920000Y8758320D01*
D20*
X-4232156Y-1712156D02*
X-4232156Y955556D01*
D21*
X-4600000Y-2080000D02*
X-4232156Y-1712156D01*
X-4600000Y-2270000D02*
X-4600000Y-2080000D01*
X250000Y8900000D02*
X250000Y9450000D01*
X50000Y8700000D02*
X250000Y8900000D01*
X-978320Y8700000D02*
X50000Y8700000D01*
X-1004160Y8674160D02*
X-978320Y8700000D01*
%TO.N,USB_D-*%
X-1710840Y7310840D02*
X-1171680Y7850000D01*
X-1171680Y7850000D02*
X-800000Y7850000D01*
X550000Y7850000D02*
X-800000Y7850000D01*
X650000Y7950000D02*
X550000Y7850000D01*
D20*
X-3760000Y-1530000D02*
X-3767844Y-1522156D01*
X-3760000Y-2170000D02*
X-3760000Y-1530000D01*
X-3850000Y-2260000D02*
X-3760000Y-2170000D01*
X-1710840Y7310840D02*
X-3767844Y5253836D01*
D21*
X-3760000Y-1510000D02*
X-3760000Y-1530000D01*
X-3760000Y-910000D02*
X-3760000Y-1510000D01*
X-3752479Y-843243D02*
X-3760000Y-910000D01*
X-3730291Y-779834D02*
X-3752479Y-843243D01*
X-3460000Y-610000D02*
X-3526757Y-617521D01*
X-3119071Y-610000D02*
X-3460000Y-610000D01*
X-3052315Y-602478D02*
X-3119071Y-610000D01*
X-2988906Y-580290D02*
X-3052315Y-602478D01*
X-2932025Y-544549D02*
X-2988906Y-580290D01*
X-2884522Y-497046D02*
X-2932025Y-544549D01*
X-2826593Y-376756D02*
X-2848781Y-440165D01*
X-3052315Y-17521D02*
X-2988906Y-39709D01*
X-3590166Y19709D02*
X-3526757Y-2478D01*
X-3694550Y102953D02*
X-3647047Y55450D01*
X-3730291Y159834D02*
X-3694550Y102953D01*
X-3752479Y223243D02*
X-3730291Y159834D01*
X-3760000Y299072D02*
X-3760000Y290000D01*
X-3647047Y1724549D02*
X-3694550Y1677046D01*
X-3119071Y1790000D02*
X-3460000Y1790000D01*
X-3176479Y824253D02*
X-3198332Y761802D01*
X-3590166Y-639709D02*
X-3647047Y-675450D01*
X-3526757Y1782478D02*
X-3590166Y1760290D01*
X-3760000Y5245992D02*
X-3760000Y2690000D01*
X-3233532Y705781D02*
X-3280317Y658996D01*
X-3460000Y1790000D02*
X-3526757Y1782478D01*
X-3052315Y1797521D02*
X-3119071Y1790000D01*
X-2988906Y1819709D02*
X-3052315Y1797521D01*
X-2932025Y1855450D02*
X-2988906Y1819709D01*
X-2884522Y1902953D02*
X-2932025Y1855450D01*
X-2819071Y-310000D02*
X-2826593Y-376756D01*
X-2848781Y1959834D02*
X-2884522Y1902953D01*
X-2826593Y2156756D02*
X-2819071Y2090000D01*
X-2826593Y2023243D02*
X-2848781Y1959834D01*
X-2848781Y2220165D02*
X-2826593Y2156756D01*
X-2848781Y-440165D02*
X-2884522Y-497046D01*
X-2932025Y2324549D02*
X-2884522Y2277046D01*
X-3648755Y530075D02*
X-3695540Y483290D01*
X-3526757Y-2478D02*
X-3460000Y-10000D01*
X-3767844Y5253836D02*
X-3760000Y5245992D01*
X-3052315Y2382478D02*
X-2988906Y2360290D01*
X-3760000Y290000D02*
X-3752479Y223243D01*
X-3730291Y2559834D02*
X-3694550Y2502953D01*
X-2819071Y2090000D02*
X-2826593Y2023243D01*
X-3169071Y890000D02*
X-3176479Y824253D01*
X-3460000Y2390000D02*
X-3119071Y2390000D01*
X-3752593Y364818D02*
X-3760000Y299072D01*
X-3760000Y2690000D02*
X-3752479Y2623243D01*
X-3460000Y-10000D02*
X-3119071Y-10000D01*
X-3752479Y2623243D02*
X-3730291Y2559834D01*
X-3590166Y1760290D02*
X-3647047Y1724549D01*
X-3760000Y1490000D02*
X-3752593Y1424253D01*
X-3176479Y964818D02*
X-3169071Y899072D01*
X-2826593Y-243243D02*
X-2819071Y-310000D01*
X-2884522Y2277046D02*
X-2848781Y2220165D01*
X-3695540Y483290D02*
X-3730740Y427269D01*
X-3119071Y2390000D02*
X-3052315Y2382478D01*
X-3169071Y899072D02*
X-3169071Y890000D01*
X-2988906Y2360290D02*
X-2932025Y2324549D01*
X-3694550Y2502953D02*
X-3647047Y2455450D01*
X-2932025Y-75450D02*
X-2884522Y-122953D01*
X-3647047Y2455450D02*
X-3590166Y2419709D01*
X-2988906Y-39709D02*
X-2932025Y-75450D01*
X-3526757Y2397521D02*
X-3460000Y2390000D01*
X-3694550Y-722953D02*
X-3730291Y-779834D01*
X-3590166Y2419709D02*
X-3526757Y2397521D01*
X-3647047Y55450D02*
X-3590166Y19709D01*
X-3694550Y1677046D02*
X-3730291Y1620165D01*
X-2848781Y-179834D02*
X-2826593Y-243243D01*
X-3730291Y1620165D02*
X-3752479Y1556756D01*
X-3752479Y1556756D02*
X-3760000Y1490000D01*
X-3280317Y658996D02*
X-3336338Y623796D01*
X-3752593Y1424253D02*
X-3730740Y1361802D01*
X-3730740Y1361802D02*
X-3695540Y1305781D01*
X-3695540Y1305781D02*
X-3648755Y1258996D01*
X-3526757Y-617521D02*
X-3590166Y-639709D01*
X-3648755Y1258996D02*
X-3592734Y1223796D01*
X-3119071Y-10000D02*
X-3052315Y-17521D01*
X-3592734Y1223796D02*
X-3530283Y1201943D01*
X-3530283Y1201943D02*
X-3398789Y1187128D01*
X-3398789Y1187128D02*
X-3336338Y1165275D01*
X-2884522Y-122953D02*
X-2848781Y-179834D01*
X-3336338Y1165275D02*
X-3280317Y1130075D01*
X-3647047Y-675450D02*
X-3694550Y-722953D01*
X-3280317Y1130075D02*
X-3233532Y1083290D01*
X-3233532Y1083290D02*
X-3198332Y1027269D01*
X-3530283Y587128D02*
X-3592734Y565275D01*
X-3198332Y1027269D02*
X-3176479Y964818D01*
X-3198332Y761802D02*
X-3233532Y705781D01*
X-3336338Y623796D02*
X-3398789Y601943D01*
X-3398789Y601943D02*
X-3530283Y587128D01*
X-3592734Y565275D02*
X-3648755Y530075D01*
X-3730740Y427269D02*
X-3752593Y364818D01*
D17*
%TO.N,Net-(L3-Pad2)*%
X-4475000Y-4450000D02*
X-4295000Y-4630000D01*
X-4295000Y-4630000D02*
X-2360000Y-4630000D01*
X-2360000Y-4630000D02*
X-1840000Y-5150000D01*
X-1840000Y-5150000D02*
X1370000Y-5150000D01*
D19*
X2290000Y-4230000D02*
X2290000Y-2690000D01*
X1370000Y-5150000D02*
X2290000Y-4230000D01*
D18*
%TO.N,3V3_OUT*%
X4675000Y8725000D02*
X4675000Y6450000D01*
D17*
%TO.N,POWER_CTRL*%
X-3430000Y-3420000D02*
X-4260000Y-3420000D01*
X-3040000Y-3030000D02*
X-3430000Y-3420000D01*
X2360000Y6490000D02*
X2700000Y6150000D01*
X-880000Y-3030000D02*
X-3040000Y-3030000D01*
X2700000Y6150000D02*
X2700000Y3275000D01*
X2700000Y3275000D02*
X3675000Y2300000D01*
X3675000Y1450000D02*
X1600000Y-625000D01*
X1600000Y-625000D02*
X1000000Y-625000D01*
X640000Y-985000D02*
X640000Y-1510000D01*
X1000000Y-625000D02*
X640000Y-985000D01*
X3675000Y2300000D02*
X3675000Y1450000D01*
X640000Y-1510000D02*
X-880000Y-3030000D01*
X4075000Y2650000D02*
X5825000Y2650000D01*
X4025000Y2650000D02*
X4075000Y2650000D01*
X3675000Y2300000D02*
X4025000Y2650000D01*
%TO.N,Net-(R11-Pad2)*%
X6150000Y6225000D02*
X6150000Y8050000D01*
X5850000Y5925000D02*
X6150000Y6225000D01*
%TO.N,CHARGE_CTRL*%
X1690000Y-1240000D02*
X1120000Y-1240000D01*
X3490000Y550000D02*
X3480000Y550000D01*
X3480000Y550000D02*
X1690000Y-1240000D01*
%TO.N,SWD*%
X-3790000Y-8510000D02*
X-4680000Y-9400000D01*
X-3320000Y-8510000D02*
X-3790000Y-8510000D01*
%TO.N,SWC*%
X-3020000Y-9400000D02*
X-3170000Y-9400000D01*
X-2260000Y-8640000D02*
X-3020000Y-9400000D01*
%TO.N,RESET*%
X6490000Y5870000D02*
X7620000Y7000000D01*
X6490000Y2615000D02*
X6490000Y5870000D01*
X6025000Y2150000D02*
X6490000Y2615000D01*
X7620000Y7000000D02*
X7620000Y7610000D01*
X4090000Y1880000D02*
X4360000Y2150000D01*
X4090000Y250000D02*
X4090000Y1880000D01*
X1260000Y-2580000D02*
X4090000Y250000D01*
X4360000Y2150000D02*
X6025000Y2150000D01*
X1260000Y-2670000D02*
X1260000Y-2580000D01*
X-600000Y-4530000D02*
X1260000Y-2670000D01*
X-1780000Y-4530000D02*
X-600000Y-4530000D01*
X-2460000Y-3850000D02*
X-1780000Y-4530000D01*
X-2460000Y-3540000D02*
X-2460000Y-3850000D01*
%TO.N,P0.09*%
X6510000Y-14140000D02*
X7620000Y-15250000D01*
X6510000Y-11880000D02*
X6510000Y-14140000D01*
X3900000Y-9270000D02*
X6510000Y-11880000D01*
X1540000Y-9270000D02*
X3900000Y-9270000D01*
X60000Y-7790000D02*
X1540000Y-9270000D01*
%TO.N,P0.10*%
X4100000Y-8960000D02*
X7620000Y-12480000D01*
X2010000Y-8960000D02*
X4100000Y-8960000D01*
X7620000Y-12480000D02*
X7620000Y-12710000D01*
X590000Y-7540000D02*
X2010000Y-8960000D01*
X590000Y-7400000D02*
X590000Y-7540000D01*
%TO.N,P1.11*%
X7270000Y-10170000D02*
X7620000Y-10170000D01*
X6310000Y-9210000D02*
X7270000Y-10170000D01*
X6310000Y-8300000D02*
X6310000Y-9210000D01*
X5750000Y-7740000D02*
X6310000Y-8300000D01*
X2620000Y-6740000D02*
X3620000Y-7740000D01*
X3620000Y-7740000D02*
X5750000Y-7740000D01*
X2400000Y-6740000D02*
X2620000Y-6740000D01*
%TO.N,P1.13*%
X7450000Y-7460000D02*
X7620000Y-7630000D01*
X4360000Y-7460000D02*
X7450000Y-7460000D01*
X4200000Y-7300000D02*
X4360000Y-7460000D01*
X4200000Y-6525000D02*
X4200000Y-7300000D01*
X3800000Y-6125000D02*
X4200000Y-6525000D01*
%TO.N,P1.15*%
X6530000Y-4000000D02*
X7620000Y-5090000D01*
X4875000Y-4000000D02*
X6530000Y-4000000D01*
X3825000Y-5050000D02*
X4875000Y-4000000D01*
X3800000Y-5050000D02*
X3825000Y-5050000D01*
%TO.N,P0.02*%
X7400000Y-2550000D02*
X7620000Y-2550000D01*
X6250000Y-3700000D02*
X7400000Y-2550000D01*
X4775000Y-3700000D02*
X6250000Y-3700000D01*
X4250000Y-4225000D02*
X4775000Y-3700000D01*
X3925000Y-4225000D02*
X4250000Y-4225000D01*
%TO.N,P0.29*%
X6510000Y-2940000D02*
X6510000Y-2170000D01*
X6025000Y-3425000D02*
X6510000Y-2940000D01*
X7620000Y-1060000D02*
X7620000Y-10000D01*
X6510000Y-2170000D02*
X7620000Y-1060000D01*
X4400000Y-3425000D02*
X6025000Y-3425000D01*
X4200000Y-3625000D02*
X4400000Y-3425000D01*
%TO.N,P0.31*%
X7620000Y1845000D02*
X7620000Y2530000D01*
X6200000Y-2850000D02*
X6200000Y425000D01*
X5900000Y-3150000D02*
X6200000Y-2850000D01*
X6200000Y425000D02*
X7620000Y1845000D01*
X3625000Y-3150000D02*
X5900000Y-3150000D01*
X3550000Y-3225000D02*
X3625000Y-3150000D01*
%TO.N,P1.04*%
X-7620000Y-12570000D02*
X-7620000Y-12710000D01*
X-6100000Y-11050000D02*
X-7620000Y-12570000D01*
X-1850000Y-11050000D02*
X-6100000Y-11050000D01*
X-1320000Y-10520000D02*
X-1850000Y-11050000D01*
X-1320000Y-8820000D02*
X-1320000Y-10520000D01*
%TO.N,P1.06*%
X-6370000Y-14000000D02*
X-7620000Y-15250000D01*
X-6370000Y-11760000D02*
X-6370000Y-14000000D01*
X-5930000Y-11320000D02*
X-6370000Y-11760000D01*
X-1645000Y-11320000D02*
X-5930000Y-11320000D01*
X-850000Y-10525000D02*
X-1645000Y-11320000D01*
X-850000Y-9410000D02*
X-850000Y-10525000D01*
X-860000Y-9400000D02*
X-850000Y-9410000D01*
%TO.N,P0.11*%
X-1670000Y-2730000D02*
X-1470000Y-2530000D01*
X-3630000Y-2730000D02*
X-1670000Y-2730000D01*
X-3780000Y-2880000D02*
X-3630000Y-2730000D01*
X-5120000Y-2620000D02*
X-4860000Y-2880000D01*
X-5120000Y-1790000D02*
X-5120000Y-2620000D01*
X-4860000Y-2880000D02*
X-3780000Y-2880000D01*
%TO.N,P1.00*%
X-6990000Y-7000000D02*
X-7620000Y-7630000D01*
X-4750000Y-7000000D02*
X-6990000Y-7000000D01*
X-3925000Y-7600000D02*
X-4150000Y-7600000D01*
X-4150000Y-7600000D02*
X-4750000Y-7000000D01*
%TO.N,P0.24*%
X-7615000Y-6430000D02*
X-7615000Y-6430000D01*
X-5655000Y-6705000D02*
X-4405000Y-6705000D01*
X-5930000Y-6430000D02*
X-5655000Y-6705000D01*
X-4405000Y-6705000D02*
X-4160000Y-6950000D01*
X-7615000Y-6430000D02*
X-5930000Y-6430000D01*
X-7615000Y-5095000D02*
X-7615000Y-6430000D01*
X-7620000Y-5090000D02*
X-7615000Y-5095000D01*
%TO.N,P0.22*%
X-7620000Y-3520000D02*
X-7620000Y-2550000D01*
X-6230000Y-4910000D02*
X-7620000Y-3520000D01*
X-6230000Y-5740000D02*
X-6230000Y-4910000D01*
X-5550000Y-6420000D02*
X-6230000Y-5740000D01*
X-3820000Y-6420000D02*
X-5550000Y-6420000D01*
X-3790000Y-6390000D02*
X-3820000Y-6420000D01*
%TO.N,P0.20*%
X-7620000Y-680000D02*
X-7620000Y-10000D01*
X-6560000Y-1740000D02*
X-7620000Y-680000D01*
X-6560000Y-4100000D02*
X-6560000Y-1740000D01*
X-5920000Y-4740000D02*
X-6560000Y-4100000D01*
X-5920000Y-5430000D02*
X-5920000Y-4740000D01*
X-5450000Y-5900000D02*
X-5920000Y-5430000D01*
X-4310000Y-5900000D02*
X-5450000Y-5900000D01*
%TO.N,P0.17*%
X-6260000Y-1310000D02*
X-6630000Y-940000D01*
X-6260000Y-3930000D02*
X-6260000Y-1310000D01*
X-5040000Y-5150000D02*
X-6260000Y-3930000D01*
X-4470000Y-5150000D02*
X-5040000Y-5150000D01*
%TO.N,P0.06*%
X-6130000Y2660000D02*
X-6130000Y8650000D01*
X-6480000Y9000000D02*
X-6480000Y11160000D01*
X-5340000Y2230000D02*
X-5700000Y2230000D01*
X-5700000Y2230000D02*
X-6130000Y2660000D01*
X-6130000Y8650000D02*
X-6480000Y9000000D01*
X-6480000Y11160000D02*
X-7620000Y12300000D01*
X-7620000Y12300000D02*
X-7620000Y12690000D01*
X-380000Y-880000D02*
X-380000Y2220000D01*
X-380000Y2220000D02*
X-360000Y2240000D01*
X-160000Y-1100000D02*
X-380000Y-880000D01*
%TO.N,P0.08*%
X-1020000Y-1080000D02*
X-1080000Y-1140000D01*
X-1020000Y1770000D02*
X-1020000Y-1080000D01*
X-7620000Y9510000D02*
X-7620000Y10150000D01*
X-6450000Y8340000D02*
X-7620000Y9510000D01*
X-6450000Y1170000D02*
X-6450000Y8340000D01*
X-5890000Y610000D02*
X-6450000Y1170000D01*
X-5160000Y610000D02*
X-5890000Y610000D01*
%TD*%
M02*
