M48
; DRILL file {KiCad (5.1.9)-1} date 01/02/21 15:49:47
; FORMAT={-:-/ absolute / inch / decimal}
; #@! TF.CreationDate,2021-01-02T15:49:47+08:00
; #@! TF.GenerationSoftware,Kicad,Pcbnew,(5.1.9)-1
FMAT,2
INCH
T1C0.0098
T2C0.0236
T3C0.0320
T4C0.0197
T5C0.0454
%
G90
G05
T1
X-0.2992Y-0.3504
X-0.261Y-0.037
X-0.2392Y-0.3415
X-0.2276Y-0.1264
X-0.2175Y0.2825
X-0.215Y-0.0445
X-0.2106Y0.1693
X-0.2102Y0.0878
X-0.2031Y0.024
X-0.2016Y-0.0705
X-0.1811Y-0.0894
X-0.1801Y0.4006
X-0.1762Y-0.1752
X-0.176Y-0.2028
X-0.1697Y-0.2323
X-0.1677Y-0.1346
X-0.1638Y-0.2736
X-0.1545Y-0.2992
X-0.1516Y-0.089
X-0.1496Y-0.213
X-0.1492Y-0.2516
X-0.1457Y-0.4075
X-0.1307Y-0.335
X-0.124Y0.1713
X-0.102Y-0.2947
X-0.0994Y0.376
X-0.0969Y-0.1394
X-0.0961Y0.1756
X-0.0945Y-0.0594
X-0.089Y-0.3402
X-0.0874Y0.3476
X-0.0709Y0.1272
X-0.0701Y-0.3854
X-0.0689Y0.1555
X-0.0606Y0.1028
X-0.0579Y-0.0996
X-0.052Y-0.3472
X-0.0445Y0.176
X-0.0425Y-0.0449
X-0.0402Y0.0697
X-0.0362Y0.3854
X-0.0339Y-0.3701
X-0.0315Y0.3091
X-0.0142Y0.0882
X-0.0063Y-0.0433
X0.0Y0.1437
X0.0024Y-0.3067
X0.0028Y-0.4232
X0.0083Y-0.0043
X0.0091Y0.024
X0.0098Y0.372
X0.022Y0.1717
X0.0226Y0.2864
X0.0232Y-0.2913
X0.0256Y0.313
X0.0305Y0.2608
X0.0441Y-0.0488
X0.062Y0.1329
X0.065Y-0.3858
X0.0659Y0.1841
X0.0728Y0.0236
X0.0854Y-0.3248
X0.0902Y-0.1059
X0.0929Y0.2555
X0.0945Y-0.2654
X0.1004Y0.3819
X0.1014Y0.3524
X0.1024Y-0.4331
X0.1043Y-0.2984
X0.1047Y0.0906
X0.124Y0.1713
X0.126Y-0.0728
X0.128Y0.2569
X0.1289Y-0.1024
X0.1374Y0.0217
X0.1378Y-0.3996
X0.1378Y-0.4327
X0.1398Y-0.127
X0.1469Y-0.2717
X0.1496Y-0.1988
X0.1496Y-0.2411
X0.1506Y-0.061
X0.1545Y-0.1663
X0.156Y0.3253
X0.1654Y-0.1427
X0.1801Y0.4006
X0.1841Y0.3435
X0.1841Y0.2539
X0.2156Y0.1693
X0.2185Y-0.3228
X0.2215Y0.3848
X0.224Y-0.1039
X0.2293Y0.1043
X0.2303Y0.2333
X0.2421Y0.3169
X0.248Y0.061
X0.2648Y-0.0463
X0.2744Y-0.3567
X0.2764Y-0.2524
X0.2992Y-0.3504
T2
X-0.0477Y-0.1491
X-0.0477Y-0.2446
X0.0477Y-0.1491
X0.0477Y-0.2446
T3
X-0.3Y0.4996
X-0.3Y0.3996
X-0.3Y0.2996
X-0.3Y0.1996
X-0.3Y0.0996
X-0.3Y-0.0004
X-0.3Y-0.1004
X-0.3Y-0.2004
X-0.3Y-0.3004
X-0.3Y-0.4004
X-0.3Y-0.5004
X-0.3Y-0.6004
X0.3Y0.4996
X0.3Y0.3996
X0.3Y0.2996
X0.3Y0.1996
X0.3Y0.0996
X0.3Y-0.0004
X0.3Y-0.1004
X0.3Y-0.2004
X0.3Y-0.3004
X0.3Y-0.4004
X0.3Y-0.5004
X0.3Y-0.6004
T4
X-0.4232Y0.0295
X-0.4232Y0.0
X-0.4232Y-0.0295
X-0.3642Y0.0295
X-0.3642Y0.0
X-0.3642Y-0.0295
X0.3642Y0.0295
X0.3642Y0.0
X0.3642Y-0.0295
X0.4232Y0.0295
X0.4232Y0.0
X0.4232Y-0.0295
T5
X-0.5118Y0.5709
X-0.5118Y-0.5709
X0.5118Y0.5709
X0.5118Y-0.5709
T2
G00X-0.2195Y0.6289
M15
G01X-0.2195Y0.5816
M16
G05
G00X-0.2195Y0.4674
M15
G01X-0.2195Y0.436
M16
G05
G00X0.2195Y0.6289
M15
G01X0.2195Y0.5816
M16
G05
G00X0.2195Y0.4655
M15
G01X0.2195Y0.4379
M16
G05
T0
M30
