M48
; DRILL file {KiCad (5.1.9)-1} date 01/07/21 21:57:23
; FORMAT={-:-/ absolute / inch / decimal}
; #@! TF.CreationDate,2021-01-07T21:57:23+08:00
; #@! TF.GenerationSoftware,Kicad,Pcbnew,(5.1.9)-1
FMAT,2
INCH
T1C0.0098
T2C0.0118
T3C0.0236
T4C0.0320
T5C0.0197
T6C0.0454
%
G90
G05
T1
X-0.3Y0.5496
X-0.3Y0.4496
X-0.3Y0.3496
X-0.3Y0.2496
X-0.3Y0.1496
X-0.3Y0.0496
X-0.3Y-0.0504
X-0.3Y-0.1504
X-0.3Y-0.2504
X-0.3Y-0.3504
X-0.2549Y0.1112
X-0.2392Y-0.3169
X-0.2372Y0.1309
X-0.2362Y0.3829
X-0.2293Y-0.3425
X-0.2244Y0.1713
X-0.2165Y-0.0325
X-0.2165Y-0.1073
X-0.2156Y0.0846
X-0.2156Y-0.1329
X-0.2077Y-0.4069
X-0.1929Y-0.2992
X-0.189Y-0.1772
X-0.1847Y0.3531
X-0.1845Y-0.0693
X-0.1801Y0.4006
X-0.176Y-0.2028
X-0.1752Y-0.1555
X-0.1697Y-0.2323
X-0.1638Y-0.2736
X-0.1579Y-0.0693
X-0.1545Y-0.2992
X-0.1496Y-0.213
X-0.1496Y-0.4134
X-0.1492Y-0.2516
X-0.1407Y-0.0226
X-0.1398Y0.0089
X-0.1378Y0.1171
X-0.1339Y-0.0522
X-0.1319Y0.2549
X-0.1063Y-0.4104
X-0.1024Y-0.3022
X-0.1014Y0.2559
X-0.0994Y0.3819
X-0.0945Y-0.1417
X-0.0906Y-0.064
X-0.089Y-0.3402
X-0.0876Y-0.1053
X-0.0768Y-0.4104
X-0.0758Y0.0778
X-0.0753Y0.0231
X-0.0719Y0.0492
X-0.0689Y0.1801
X-0.063Y0.1535
X-0.062Y0.124
X-0.0581Y-0.3425
X-0.0541Y-0.1024
X-0.0374Y-0.4173
X-0.0362Y0.3854
X-0.0228Y0.3184
X-0.0207Y0.1713
X-0.0148Y0.0246
X-0.003Y-0.4252
X-0.001Y-0.0423
X0.0Y-0.0098
X0.0024Y-0.3067
X0.0098Y0.372
X0.0217Y0.3179
X0.0217Y-0.0276
X0.0226Y0.2864
X0.0232Y-0.2913
X0.0315Y0.1713
X0.0443Y0.0502
X0.061Y-0.3839
X0.0659Y0.1841
X0.0679Y0.1152
X0.0876Y-0.3248
X0.0886Y0.3524
X0.0902Y-0.1059
X0.0945Y0.2697
X0.0994Y0.3819
X0.1053Y-0.2746
X0.1053Y-0.3031
X0.1122Y-0.4327
X0.1161Y0.2539
X0.1191Y0.3327
X0.124Y0.1713
X0.126Y-0.128
X0.1289Y-0.0955
X0.1368Y0.0709
X0.1378Y-0.4327
X0.1398Y-0.0502
X0.1469Y-0.2717
X0.1496Y-0.1988
X0.1496Y-0.2343
X0.1506Y-0.0266
X0.1526Y0.2589
X0.1545Y-0.1663
X0.1604Y0.3179
X0.1654Y-0.1427
X0.1801Y0.4006
X0.1801Y-0.1142
X0.1811Y-0.3543
X0.2096Y0.3159
X0.2096Y0.1978
X0.2185Y-0.3228
X0.2293Y-0.3957
X0.2343Y0.1348
X0.3Y0.5496
X0.3Y0.4496
X0.3Y0.3496
X0.3Y0.2496
X0.3Y0.1496
X0.3Y0.0496
X0.3Y-0.0504
X0.3Y-0.1504
X0.3Y-0.2504
X0.3Y-0.3504
T2
X-0.0477Y-0.1491
X-0.0477Y-0.1969
X-0.0477Y-0.2446
X0.0Y-0.1491
X0.0Y-0.1969
X0.0Y-0.2446
X0.0477Y-0.1491
X0.0477Y-0.1969
X0.0477Y-0.2446
T4
X-0.3Y0.5996
X-0.3Y0.4996
X-0.3Y0.3996
X-0.3Y0.2996
X-0.3Y0.1996
X-0.3Y0.0996
X-0.3Y-0.0004
X-0.3Y-0.1004
X-0.3Y-0.2004
X-0.3Y-0.3004
X-0.3Y-0.4004
X-0.3Y-0.5004
X-0.3Y-0.6004
X0.3Y0.5996
X0.3Y0.4996
X0.3Y0.3996
X0.3Y0.2996
X0.3Y0.1996
X0.3Y0.0996
X0.3Y-0.0004
X0.3Y-0.1004
X0.3Y-0.2004
X0.3Y-0.3004
X0.3Y-0.4004
X0.3Y-0.5004
X0.3Y-0.6004
T5
X-0.3642Y0.0295
X-0.3642Y0.0
X-0.3642Y-0.0295
X0.3642Y0.0295
X0.3642Y0.0
X0.3642Y-0.0295
T6
X-0.5114Y0.5709
X-0.5114Y-0.5709
X0.5114Y0.5709
X0.5114Y-0.5709
T3
G00X-0.2195Y0.6289
M15
G01X-0.2195Y0.5816
M16
G05
G00X-0.2195Y0.4674
M15
G01X-0.2195Y0.436
M16
G05
G00X0.2195Y0.6289
M15
G01X0.2195Y0.5816
M16
G05
G00X0.2195Y0.4655
M15
G01X0.2195Y0.4379
M16
G05
T0
M30
