%TF.GenerationSoftware,KiCad,Pcbnew,(5.1.9)-1*%
%TF.CreationDate,2021-01-07T21:57:21+08:00*%
%TF.ProjectId,akami,616b616d-692e-46b6-9963-61645f706362,rev?*%
%TF.SameCoordinates,Original*%
%TF.FileFunction,Copper,L2,Inr*%
%TF.FilePolarity,Positive*%
%FSLAX46Y46*%
G04 Gerber Fmt 4.6, Leading zero omitted, Abs format (unit mm)*
G04 Created by KiCad (PCBNEW (5.1.9)-1) date 2021-01-07 21:57:21*
%MOMM*%
%LPD*%
G01*
G04 APERTURE LIST*
%TA.AperFunction,WasherPad*%
%ADD10C,2.000000*%
%TD*%
%TA.AperFunction,ComponentPad*%
%ADD11C,1.524000*%
%TD*%
%TA.AperFunction,ComponentPad*%
%ADD12O,1.000000X1.800000*%
%TD*%
%TA.AperFunction,ComponentPad*%
%ADD13O,1.000000X2.200000*%
%TD*%
%TA.AperFunction,ViaPad*%
%ADD14C,0.500000*%
%TD*%
%TA.AperFunction,ViaPad*%
%ADD15C,0.600000*%
%TD*%
%TA.AperFunction,Conductor*%
%ADD16C,0.150000*%
%TD*%
%TA.AperFunction,Conductor*%
%ADD17C,0.100000*%
%TD*%
G04 APERTURE END LIST*
D10*
%TO.N,*%
%TO.C,DUMMY8*%
X12990000Y-14500000D03*
%TD*%
%TO.N,*%
%TO.C,DUMMY7*%
X12990000Y14500000D03*
%TD*%
%TO.N,*%
%TO.C,DUMMY6*%
X-12990000Y-14500000D03*
%TD*%
%TO.N,*%
%TO.C,DUMMY5*%
X-12990000Y14500000D03*
%TD*%
D11*
%TO.N,VBAT*%
%TO.C,U4*%
X7620000Y12690000D03*
%TO.N,GND*%
X7620000Y10150000D03*
%TO.N,RESET*%
X7620000Y7610000D03*
%TO.N,EXT_VCC*%
X7620000Y5070000D03*
%TO.N,P0.31*%
X7620000Y2530000D03*
%TO.N,P0.29*%
X7620000Y-10000D03*
%TO.N,P0.02*%
X7620000Y-2550000D03*
%TO.N,P1.15*%
X7620000Y-5090000D03*
%TO.N,P1.13*%
X7620000Y-7630000D03*
%TO.N,P1.11*%
X7620000Y-10170000D03*
%TO.N,P0.10*%
X7620000Y-12710000D03*
%TO.N,P0.09*%
X7620000Y-15250000D03*
%TO.N,P1.06*%
X-7620000Y-15250000D03*
%TO.N,P1.04*%
X-7620000Y-12710000D03*
%TO.N,P0.11*%
X-7620000Y-10170000D03*
%TO.N,P1.00*%
X-7620000Y-7630000D03*
%TO.N,P0.24*%
X-7620000Y-5090000D03*
%TO.N,P0.22*%
X-7620000Y-2550000D03*
%TO.N,P0.20*%
X-7620000Y-10000D03*
%TO.N,P0.17*%
X-7620000Y2530000D03*
%TO.N,GND*%
X-7620000Y5070000D03*
X-7620000Y7610000D03*
%TO.N,P0.08*%
X-7620000Y10150000D03*
%TO.N,P0.06*%
X-7620000Y12690000D03*
%TD*%
%TO.N,VBAT*%
%TO.C,J2*%
X7620000Y15230000D03*
%TD*%
%TO.N,GND*%
%TO.C,J3*%
X-7620000Y15230000D03*
%TD*%
D12*
%TO.N,Net-(J1-PadS1)*%
%TO.C,J1*%
X-5575000Y11473200D03*
X5575600Y11473200D03*
D13*
X5575600Y15373200D03*
X-5575000Y15373200D03*
%TD*%
D14*
%TO.N,VDD_NRF*%
X-3800000Y-5410000D03*
X3730000Y-6900000D03*
X-2700000Y-10425000D03*
X-4900000Y-7600000D03*
X-1912500Y587500D03*
X3550000Y-1275000D03*
X-1600000Y3900000D03*
%TO.N,Net-(C11-Pad1)*%
X5550000Y-8200000D03*
X2675000Y-7700000D03*
%TO.N,VBUS*%
X575000Y7275000D03*
X-2525000Y9700000D03*
X2525000Y9700000D03*
X3875000Y6575000D03*
X-375000Y625000D03*
X-3400000Y-1325000D03*
%TO.N,Net-(C15-Pad2)*%
X-6075000Y-8050000D03*
X2225000Y-8250000D03*
X3275000Y-2425000D03*
%TO.N,BAT_VOLT*%
X2400000Y6850000D03*
X3475000Y1800000D03*
%TO.N,VBAT*%
X-4692500Y8967500D03*
X3150000Y4350000D03*
X5325000Y8025000D03*
X800000Y4350000D03*
%TO.N,BLUE_LED*%
X-4450000Y-3950000D03*
X-5700000Y4350000D03*
%TO.N,USB_D+*%
X250000Y9450000D03*
X-920000Y9790000D03*
X-4687500Y-1760000D03*
%TO.N,USB_D-*%
X550000Y8075000D03*
X-580000Y8086681D03*
X-4010000Y-1760000D03*
%TO.N,Net-(L3-Pad2)*%
X2290000Y-2690000D03*
X-4800000Y-4500000D03*
%TO.N,SWD*%
X-2600000Y-7675000D03*
%TO.N,SWC*%
X-2260000Y-8640000D03*
%TO.N,RESET*%
X-2400000Y-3600000D03*
D15*
%TO.N,GND*%
X-1212500Y-5000000D03*
X1212500Y-5000000D03*
X0Y-5000000D03*
X0Y-6212500D03*
X0Y-3787500D03*
X-1212500Y-3787500D03*
X-1212500Y-6212500D03*
X1212500Y-3787500D03*
D14*
X4575000Y10175000D03*
X-4575000Y10175000D03*
X3500000Y-10990000D03*
X-7620000Y-8900000D03*
X7620000Y-8900000D03*
X1675000Y4675000D03*
X-6000000Y9725000D03*
X-1950000Y-10425000D03*
X-5825000Y-8700000D03*
D15*
X1212500Y-6212500D03*
D14*
X-3800000Y-10500000D03*
X-5275000Y-10335000D03*
X1550000Y-9750000D03*
X2850000Y-10990000D03*
X5825000Y-10050000D03*
X4600000Y-9000000D03*
X5950000Y3425000D03*
X-7620000Y-6360000D03*
X7620000Y-6360000D03*
X7620000Y-3820000D03*
X7620000Y-1280000D03*
X7620000Y1260000D03*
X7620000Y3800000D03*
X7620000Y6340000D03*
X7620000Y8880000D03*
X-7620000Y8880000D03*
X-7620000Y6340000D03*
X-7620000Y3800000D03*
X-7620000Y1260000D03*
X-7620000Y-1280000D03*
X-7620000Y-3820000D03*
X-75000Y-10800000D03*
X-1750000Y4575000D03*
X-3350000Y6475000D03*
%TO.N,P0.09*%
X60000Y-7790000D03*
%TO.N,P0.10*%
X590000Y-7400000D03*
%TO.N,P1.11*%
X2675000Y-6975000D03*
%TO.N,P1.13*%
X3800000Y-5950000D03*
%TO.N,P1.15*%
X3800000Y-5050000D03*
%TO.N,P0.02*%
X3925000Y-4225000D03*
%TO.N,P0.29*%
X4200000Y-3625000D03*
%TO.N,P1.04*%
X-1475000Y-8700000D03*
%TO.N,P1.06*%
X-950000Y-10600000D03*
%TO.N,P0.11*%
X-5475000Y-3375000D03*
X-1375000Y-2600000D03*
%TO.N,P1.00*%
X-3925000Y-7600000D03*
%TO.N,P0.24*%
X-4160000Y-6950000D03*
%TO.N,P0.22*%
X-3790000Y-6390000D03*
%TO.N,P0.20*%
X-4310000Y-5900000D03*
%TO.N,P0.17*%
X-4470000Y-5150000D03*
%TO.N,P0.08*%
X-5500000Y-2725000D03*
%TO.N,VDD_HV*%
X-2575000Y6500000D03*
X2950000Y6450000D03*
%TO.N,GND*%
X2250000Y8950000D03*
X4075000Y8075000D03*
X-1825000Y1250000D03*
X-7620000Y11420000D03*
X-7620000Y13960000D03*
X7620000Y11420000D03*
X7620000Y13960000D03*
X-1925000Y1975000D03*
X-5500000Y-825000D03*
X3825000Y-675000D03*
X4575000Y-2900000D03*
X1125000Y1275000D03*
X0Y-250000D03*
%TO.N,P0.31*%
X3200000Y-3250000D03*
%TO.N,P0.06*%
X-3500000Y2975000D03*
X-6025000Y3325000D03*
X550000Y-700000D03*
%TO.N,P0.08*%
X-6475000Y2825000D03*
X-25000Y-1075000D03*
%TO.N,VDD_HV*%
X-2225000Y-2675000D03*
X-3550000Y225000D03*
X-3575000Y-575000D03*
X-525000Y4350000D03*
%TO.N,EXT_VCC*%
X5325000Y5025000D03*
X3025000Y8450000D03*
X1725000Y2925000D03*
X-1575000Y3150000D03*
%TO.N,Net-(L4-Pad2)*%
X-2300000Y-1625000D03*
X-5475000Y2150000D03*
%TD*%
D16*
%TO.N,GND*%
X-6180731Y16377936D02*
X-6248053Y16251987D01*
X-6289509Y16115324D01*
X-6300000Y16008806D01*
X-6300000Y15488126D01*
X-6324892Y15616356D01*
X-6425151Y15861596D01*
X-6431025Y15872585D01*
X-6650276Y15946580D01*
X-7366856Y15230000D01*
X-6650276Y14513420D01*
X-6431025Y14587415D01*
X-6328509Y14831719D01*
X-6299999Y14971673D01*
X-6299999Y14737593D01*
X-6289508Y14631075D01*
X-6248052Y14494412D01*
X-6180730Y14368463D01*
X-6090131Y14258068D01*
X-5979736Y14167469D01*
X-5853787Y14100147D01*
X-5717124Y14058691D01*
X-5575000Y14044693D01*
X-5432875Y14058691D01*
X-5296212Y14100147D01*
X-5170263Y14167469D01*
X-5059868Y14258068D01*
X-4969269Y14368463D01*
X-4901947Y14494412D01*
X-4860491Y14631075D01*
X-4850000Y14737593D01*
X-4849999Y12062284D01*
X-4850000Y12062274D01*
X-4850000Y11908807D01*
X-4860491Y12015325D01*
X-4901947Y12151988D01*
X-4969269Y12277937D01*
X-5059869Y12388332D01*
X-5170264Y12478931D01*
X-5296213Y12546253D01*
X-5432876Y12587709D01*
X-5575000Y12601707D01*
X-5717125Y12587709D01*
X-5853788Y12546253D01*
X-5979737Y12478931D01*
X-6090132Y12388331D01*
X-6180731Y12277936D01*
X-6248053Y12151987D01*
X-6289509Y12015324D01*
X-6300000Y11908806D01*
X-6300000Y11037593D01*
X-6289509Y10931075D01*
X-6248052Y10794412D01*
X-6180730Y10668463D01*
X-6090131Y10558068D01*
X-5979736Y10467469D01*
X-5853787Y10400147D01*
X-5717124Y10358691D01*
X-5575000Y10344693D01*
X-5432875Y10358691D01*
X-5296212Y10400147D01*
X-5170263Y10467469D01*
X-5059868Y10558068D01*
X-4969269Y10668463D01*
X-4901947Y10794412D01*
X-4860491Y10931075D01*
X-4850000Y11037593D01*
X-4850000Y11137726D01*
X-4846382Y11100992D01*
X-4832087Y11053866D01*
X-4808873Y11010436D01*
X-4777632Y10972368D01*
X-4739564Y10941127D01*
X-4696134Y10917913D01*
X-4649008Y10903618D01*
X-4612275Y10900000D01*
X-4600000Y10898791D01*
X-4587725Y10900000D01*
X4587725Y10900000D01*
X4600000Y10898791D01*
X4612275Y10900000D01*
X4649008Y10903618D01*
X4696134Y10917913D01*
X4739564Y10941127D01*
X4777632Y10972368D01*
X4808873Y11010436D01*
X4832087Y11053866D01*
X4846382Y11100992D01*
X4850600Y11143817D01*
X4850600Y11037593D01*
X4861091Y10931075D01*
X4902548Y10794412D01*
X4969870Y10668463D01*
X5060469Y10558068D01*
X5170864Y10467469D01*
X5296813Y10400147D01*
X5433476Y10358691D01*
X5575600Y10344693D01*
X5717725Y10358691D01*
X5854388Y10400147D01*
X5980337Y10467469D01*
X6090732Y10558068D01*
X6181331Y10668463D01*
X6248653Y10794412D01*
X6290109Y10931075D01*
X6300600Y11037593D01*
X6300600Y11119724D01*
X6903420Y11119724D01*
X7620000Y10403144D01*
X8336580Y11119724D01*
X8262585Y11338975D01*
X8018281Y11441491D01*
X7758670Y11494376D01*
X7493731Y11495597D01*
X7233644Y11445108D01*
X6988404Y11344849D01*
X6977415Y11338975D01*
X6903420Y11119724D01*
X6300600Y11119724D01*
X6300600Y11908807D01*
X6290109Y12015325D01*
X6248653Y12151988D01*
X6181331Y12277937D01*
X6090731Y12388332D01*
X5980336Y12478931D01*
X5854387Y12546253D01*
X5717724Y12587709D01*
X5575600Y12601707D01*
X5433475Y12587709D01*
X5296812Y12546253D01*
X5170863Y12478931D01*
X5060468Y12388331D01*
X4969869Y12277936D01*
X4902547Y12151987D01*
X4861091Y12015324D01*
X4850600Y11908806D01*
X4850600Y11156183D01*
X4850000Y11162275D01*
X4850000Y12787211D01*
X6633000Y12787211D01*
X6633000Y12592789D01*
X6670930Y12402103D01*
X6745332Y12222480D01*
X6853347Y12060824D01*
X6990824Y11923347D01*
X7152480Y11815332D01*
X7332103Y11740930D01*
X7522789Y11703000D01*
X7717211Y11703000D01*
X7907897Y11740930D01*
X8087520Y11815332D01*
X8249176Y11923347D01*
X8386653Y12060824D01*
X8494668Y12222480D01*
X8569070Y12402103D01*
X8607000Y12592789D01*
X8607000Y12787211D01*
X8569070Y12977897D01*
X8494668Y13157520D01*
X8386653Y13319176D01*
X8249176Y13456653D01*
X8087520Y13564668D01*
X7907897Y13639070D01*
X7717211Y13677000D01*
X7522789Y13677000D01*
X7332103Y13639070D01*
X7152480Y13564668D01*
X6990824Y13456653D01*
X6853347Y13319176D01*
X6745332Y13157520D01*
X6670930Y12977897D01*
X6633000Y12787211D01*
X4850000Y12787211D01*
X4850000Y16400000D01*
X4987976Y16400000D01*
X4969869Y16377936D01*
X4902547Y16251987D01*
X4861091Y16115324D01*
X4850600Y16008806D01*
X4850601Y14737593D01*
X4861092Y14631075D01*
X4902548Y14494412D01*
X4969870Y14368463D01*
X5060469Y14258068D01*
X5170864Y14167469D01*
X5296813Y14100147D01*
X5433476Y14058691D01*
X5575600Y14044693D01*
X5717725Y14058691D01*
X5854388Y14100147D01*
X5980337Y14167469D01*
X6090732Y14258068D01*
X6181331Y14368463D01*
X6248653Y14494412D01*
X6290109Y14631075D01*
X6300600Y14737593D01*
X6300600Y15327211D01*
X6633000Y15327211D01*
X6633000Y15132789D01*
X6670930Y14942103D01*
X6745332Y14762480D01*
X6853347Y14600824D01*
X6990824Y14463347D01*
X7152480Y14355332D01*
X7332103Y14280930D01*
X7522789Y14243000D01*
X7717211Y14243000D01*
X7907897Y14280930D01*
X8087520Y14355332D01*
X8249176Y14463347D01*
X8386653Y14600824D01*
X8494668Y14762480D01*
X8569070Y14942103D01*
X8607000Y15132789D01*
X8607000Y15327211D01*
X8569070Y15517897D01*
X8494668Y15697520D01*
X8386653Y15859176D01*
X8249176Y15996653D01*
X8087520Y16104668D01*
X7907897Y16179070D01*
X7717211Y16217000D01*
X7522789Y16217000D01*
X7332103Y16179070D01*
X7152480Y16104668D01*
X6990824Y15996653D01*
X6853347Y15859176D01*
X6745332Y15697520D01*
X6670930Y15517897D01*
X6633000Y15327211D01*
X6300600Y15327211D01*
X6300600Y16008807D01*
X6290109Y16115325D01*
X6248653Y16251988D01*
X6181331Y16377937D01*
X6163224Y16400000D01*
X7607771Y16400000D01*
X7843137Y16376922D01*
X8057775Y16312119D01*
X8255739Y16206860D01*
X8429485Y16065156D01*
X8572399Y15892402D01*
X8679036Y15695181D01*
X8745338Y15480994D01*
X8770000Y15246352D01*
X8770000Y10805739D01*
X8589724Y10866580D01*
X7873144Y10150000D01*
X8589724Y9433420D01*
X8770000Y9494261D01*
X8770001Y1987725D01*
X8770086Y1986863D01*
X8770102Y1984563D01*
X8771289Y1973274D01*
X8771289Y1961923D01*
X8771654Y1958451D01*
X8792973Y1768381D01*
X8795000Y1758844D01*
X8795000Y892767D01*
X8793254Y888552D01*
X8775000Y796783D01*
X8775000Y703217D01*
X8793254Y611448D01*
X8795000Y607233D01*
X8795000Y142767D01*
X8793254Y138552D01*
X8775000Y46783D01*
X8775000Y-46783D01*
X8793254Y-138552D01*
X8795000Y-142767D01*
X8795000Y-607233D01*
X8793254Y-611448D01*
X8775000Y-703217D01*
X8775000Y-796783D01*
X8793254Y-888552D01*
X8795000Y-892767D01*
X8795000Y-1759280D01*
X8794935Y-1759610D01*
X8790222Y-1781782D01*
X8789857Y-1785254D01*
X8771193Y-1975604D01*
X8771193Y-1975614D01*
X8770000Y-1987726D01*
X8770001Y-11325000D01*
X5875000Y-11325000D01*
X5875000Y-10072789D01*
X6633000Y-10072789D01*
X6633000Y-10267211D01*
X6670930Y-10457897D01*
X6745332Y-10637520D01*
X6853347Y-10799176D01*
X6990824Y-10936653D01*
X7152480Y-11044668D01*
X7332103Y-11119070D01*
X7522789Y-11157000D01*
X7717211Y-11157000D01*
X7907897Y-11119070D01*
X8087520Y-11044668D01*
X8249176Y-10936653D01*
X8386653Y-10799176D01*
X8494668Y-10637520D01*
X8569070Y-10457897D01*
X8607000Y-10267211D01*
X8607000Y-10072789D01*
X8569070Y-9882103D01*
X8494668Y-9702480D01*
X8386653Y-9540824D01*
X8249176Y-9403347D01*
X8087520Y-9295332D01*
X7907897Y-9220930D01*
X7717211Y-9183000D01*
X7522789Y-9183000D01*
X7332103Y-9220930D01*
X7152480Y-9295332D01*
X6990824Y-9403347D01*
X6853347Y-9540824D01*
X6745332Y-9702480D01*
X6670930Y-9882103D01*
X6633000Y-10072789D01*
X5875000Y-10072789D01*
X5875000Y-8546751D01*
X5918956Y-8502795D01*
X5970939Y-8424997D01*
X6006746Y-8338552D01*
X6025000Y-8246783D01*
X6025000Y-8153217D01*
X6006746Y-8061448D01*
X5970939Y-7975003D01*
X5918956Y-7897205D01*
X5875000Y-7853249D01*
X5875000Y-7532789D01*
X6633000Y-7532789D01*
X6633000Y-7727211D01*
X6670930Y-7917897D01*
X6745332Y-8097520D01*
X6853347Y-8259176D01*
X6990824Y-8396653D01*
X7152480Y-8504668D01*
X7332103Y-8579070D01*
X7522789Y-8617000D01*
X7717211Y-8617000D01*
X7907897Y-8579070D01*
X8087520Y-8504668D01*
X8249176Y-8396653D01*
X8386653Y-8259176D01*
X8494668Y-8097520D01*
X8569070Y-7917897D01*
X8607000Y-7727211D01*
X8607000Y-7532789D01*
X8569070Y-7342103D01*
X8494668Y-7162480D01*
X8386653Y-7000824D01*
X8249176Y-6863347D01*
X8087520Y-6755332D01*
X7907897Y-6680930D01*
X7717211Y-6643000D01*
X7522789Y-6643000D01*
X7332103Y-6680930D01*
X7152480Y-6755332D01*
X6990824Y-6863347D01*
X6853347Y-7000824D01*
X6745332Y-7162480D01*
X6670930Y-7342103D01*
X6633000Y-7532789D01*
X5875000Y-7532789D01*
X5875000Y-7500000D01*
X5873559Y-7485368D01*
X5869291Y-7471299D01*
X5862360Y-7458332D01*
X5853033Y-7446967D01*
X5841668Y-7437640D01*
X5828701Y-7430709D01*
X5814632Y-7426441D01*
X5800000Y-7425000D01*
X3062528Y-7425000D01*
X3043956Y-7397205D01*
X2984251Y-7337500D01*
X3043956Y-7277795D01*
X3095939Y-7199997D01*
X3131746Y-7113552D01*
X3150000Y-7021783D01*
X3150000Y-6928217D01*
X3135082Y-6853217D01*
X3255000Y-6853217D01*
X3255000Y-6946783D01*
X3273254Y-7038552D01*
X3309061Y-7124997D01*
X3361044Y-7202795D01*
X3427205Y-7268956D01*
X3505003Y-7320939D01*
X3591448Y-7356746D01*
X3683217Y-7375000D01*
X3776783Y-7375000D01*
X3868552Y-7356746D01*
X3954997Y-7320939D01*
X4032795Y-7268956D01*
X4098956Y-7202795D01*
X4150939Y-7124997D01*
X4186746Y-7038552D01*
X4205000Y-6946783D01*
X4205000Y-6853217D01*
X4186746Y-6761448D01*
X4150939Y-6675003D01*
X4098956Y-6597205D01*
X4032795Y-6531044D01*
X3954997Y-6479061D01*
X3868552Y-6443254D01*
X3776783Y-6425000D01*
X3846783Y-6425000D01*
X3938552Y-6406746D01*
X4024997Y-6370939D01*
X4102795Y-6318956D01*
X4168956Y-6252795D01*
X4220939Y-6174997D01*
X4256746Y-6088552D01*
X4275000Y-5996783D01*
X4275000Y-5903217D01*
X4256746Y-5811448D01*
X4220939Y-5725003D01*
X4168956Y-5647205D01*
X4102795Y-5581044D01*
X4024997Y-5529061D01*
X3954838Y-5500000D01*
X4024997Y-5470939D01*
X4102795Y-5418956D01*
X4168956Y-5352795D01*
X4220939Y-5274997D01*
X4256746Y-5188552D01*
X4275000Y-5096783D01*
X4275000Y-5003217D01*
X4272926Y-4992789D01*
X6633000Y-4992789D01*
X6633000Y-5187211D01*
X6670930Y-5377897D01*
X6745332Y-5557520D01*
X6853347Y-5719176D01*
X6990824Y-5856653D01*
X7152480Y-5964668D01*
X7332103Y-6039070D01*
X7522789Y-6077000D01*
X7717211Y-6077000D01*
X7907897Y-6039070D01*
X8087520Y-5964668D01*
X8249176Y-5856653D01*
X8386653Y-5719176D01*
X8494668Y-5557520D01*
X8569070Y-5377897D01*
X8607000Y-5187211D01*
X8607000Y-4992789D01*
X8569070Y-4802103D01*
X8494668Y-4622480D01*
X8386653Y-4460824D01*
X8249176Y-4323347D01*
X8087520Y-4215332D01*
X7907897Y-4140930D01*
X7717211Y-4103000D01*
X7522789Y-4103000D01*
X7332103Y-4140930D01*
X7152480Y-4215332D01*
X6990824Y-4323347D01*
X6853347Y-4460824D01*
X6745332Y-4622480D01*
X6670930Y-4802103D01*
X6633000Y-4992789D01*
X4272926Y-4992789D01*
X4256746Y-4911448D01*
X4220939Y-4825003D01*
X4168956Y-4747205D01*
X4102795Y-4681044D01*
X4088426Y-4671443D01*
X4149997Y-4645939D01*
X4227795Y-4593956D01*
X4293956Y-4527795D01*
X4345939Y-4449997D01*
X4381746Y-4363552D01*
X4400000Y-4271783D01*
X4400000Y-4178217D01*
X4381746Y-4086448D01*
X4373758Y-4067163D01*
X4424997Y-4045939D01*
X4502795Y-3993956D01*
X4568956Y-3927795D01*
X4620939Y-3849997D01*
X4656746Y-3763552D01*
X4675000Y-3671783D01*
X4675000Y-3578217D01*
X4656746Y-3486448D01*
X4620939Y-3400003D01*
X4568956Y-3322205D01*
X4502795Y-3256044D01*
X4424997Y-3204061D01*
X4338552Y-3168254D01*
X4246783Y-3150000D01*
X4153217Y-3150000D01*
X4061448Y-3168254D01*
X3975003Y-3204061D01*
X3897205Y-3256044D01*
X3831044Y-3322205D01*
X3779061Y-3400003D01*
X3743254Y-3486448D01*
X3725000Y-3578217D01*
X3725000Y-3671783D01*
X3743254Y-3763552D01*
X3751242Y-3782837D01*
X3700003Y-3804061D01*
X3622205Y-3856044D01*
X3556044Y-3922205D01*
X3504061Y-4000003D01*
X3468254Y-4086448D01*
X3450000Y-4178217D01*
X3450000Y-4271783D01*
X3468254Y-4363552D01*
X3504061Y-4449997D01*
X3556044Y-4527795D01*
X3622205Y-4593956D01*
X3636574Y-4603557D01*
X3575003Y-4629061D01*
X3497205Y-4681044D01*
X3431044Y-4747205D01*
X3379061Y-4825003D01*
X3343254Y-4911448D01*
X3325000Y-5003217D01*
X3325000Y-5096783D01*
X3343254Y-5188552D01*
X3379061Y-5274997D01*
X3431044Y-5352795D01*
X3497205Y-5418956D01*
X3575003Y-5470939D01*
X3645162Y-5500000D01*
X3575003Y-5529061D01*
X3497205Y-5581044D01*
X3431044Y-5647205D01*
X3379061Y-5725003D01*
X3343254Y-5811448D01*
X3325000Y-5903217D01*
X3325000Y-5996783D01*
X3343254Y-6088552D01*
X3379061Y-6174997D01*
X3431044Y-6252795D01*
X3497205Y-6318956D01*
X3575003Y-6370939D01*
X3661448Y-6406746D01*
X3753217Y-6425000D01*
X3683217Y-6425000D01*
X3591448Y-6443254D01*
X3505003Y-6479061D01*
X3427205Y-6531044D01*
X3361044Y-6597205D01*
X3309061Y-6675003D01*
X3273254Y-6761448D01*
X3255000Y-6853217D01*
X3135082Y-6853217D01*
X3131746Y-6836448D01*
X3095939Y-6750003D01*
X3043956Y-6672205D01*
X2977795Y-6606044D01*
X2899997Y-6554061D01*
X2813552Y-6518254D01*
X2721783Y-6500000D01*
X2628217Y-6500000D01*
X2536448Y-6518254D01*
X2450003Y-6554061D01*
X2372205Y-6606044D01*
X2306044Y-6672205D01*
X2254061Y-6750003D01*
X2218254Y-6836448D01*
X2200000Y-6928217D01*
X2200000Y-7021783D01*
X2218254Y-7113552D01*
X2254061Y-7199997D01*
X2306044Y-7277795D01*
X2365749Y-7337500D01*
X2306044Y-7397205D01*
X2287472Y-7425000D01*
X1065000Y-7425000D01*
X1065000Y-7353217D01*
X1046746Y-7261448D01*
X1010939Y-7175003D01*
X958956Y-7097205D01*
X892795Y-7031044D01*
X814997Y-6979061D01*
X728552Y-6943254D01*
X636783Y-6925000D01*
X543217Y-6925000D01*
X451448Y-6943254D01*
X365003Y-6979061D01*
X287205Y-7031044D01*
X221044Y-7097205D01*
X169061Y-7175003D01*
X133254Y-7261448D01*
X122000Y-7318027D01*
X106783Y-7315000D01*
X13217Y-7315000D01*
X-78552Y-7333254D01*
X-164997Y-7369061D01*
X-242795Y-7421044D01*
X-308956Y-7487205D01*
X-360939Y-7565003D01*
X-396746Y-7651448D01*
X-415000Y-7743217D01*
X-415000Y-7836783D01*
X-396746Y-7928552D01*
X-360939Y-8014997D01*
X-308956Y-8092795D01*
X-242795Y-8158956D01*
X-164997Y-8210939D01*
X-78552Y-8246746D01*
X-75000Y-8247453D01*
X-75000Y-11325000D01*
X-8770000Y-11325000D01*
X-8770000Y-10072789D01*
X-8607000Y-10072789D01*
X-8607000Y-10267211D01*
X-8569070Y-10457897D01*
X-8494668Y-10637520D01*
X-8386653Y-10799176D01*
X-8249176Y-10936653D01*
X-8087520Y-11044668D01*
X-7907897Y-11119070D01*
X-7717211Y-11157000D01*
X-7522789Y-11157000D01*
X-7332103Y-11119070D01*
X-7152480Y-11044668D01*
X-6990824Y-10936653D01*
X-6853347Y-10799176D01*
X-6745332Y-10637520D01*
X-6670930Y-10457897D01*
X-6655081Y-10378217D01*
X-3175000Y-10378217D01*
X-3175000Y-10471783D01*
X-3156746Y-10563552D01*
X-3120939Y-10649997D01*
X-3068956Y-10727795D01*
X-3002795Y-10793956D01*
X-2924997Y-10845939D01*
X-2838552Y-10881746D01*
X-2746783Y-10900000D01*
X-2653217Y-10900000D01*
X-2561448Y-10881746D01*
X-2475003Y-10845939D01*
X-2397205Y-10793956D01*
X-2331044Y-10727795D01*
X-2279061Y-10649997D01*
X-2243254Y-10563552D01*
X-2241199Y-10553217D01*
X-1425000Y-10553217D01*
X-1425000Y-10646783D01*
X-1406746Y-10738552D01*
X-1370939Y-10824997D01*
X-1318956Y-10902795D01*
X-1252795Y-10968956D01*
X-1174997Y-11020939D01*
X-1088552Y-11056746D01*
X-996783Y-11075000D01*
X-903217Y-11075000D01*
X-811448Y-11056746D01*
X-725003Y-11020939D01*
X-647205Y-10968956D01*
X-581044Y-10902795D01*
X-529061Y-10824997D01*
X-493254Y-10738552D01*
X-475000Y-10646783D01*
X-475000Y-10553217D01*
X-493254Y-10461448D01*
X-529061Y-10375003D01*
X-581044Y-10297205D01*
X-647205Y-10231044D01*
X-725003Y-10179061D01*
X-811448Y-10143254D01*
X-903217Y-10125000D01*
X-996783Y-10125000D01*
X-1088552Y-10143254D01*
X-1174997Y-10179061D01*
X-1252795Y-10231044D01*
X-1318956Y-10297205D01*
X-1370939Y-10375003D01*
X-1406746Y-10461448D01*
X-1425000Y-10553217D01*
X-2241199Y-10553217D01*
X-2225000Y-10471783D01*
X-2225000Y-10378217D01*
X-2243254Y-10286448D01*
X-2279061Y-10200003D01*
X-2331044Y-10122205D01*
X-2397205Y-10056044D01*
X-2475003Y-10004061D01*
X-2561448Y-9968254D01*
X-2653217Y-9950000D01*
X-2746783Y-9950000D01*
X-2838552Y-9968254D01*
X-2924997Y-10004061D01*
X-3002795Y-10056044D01*
X-3068956Y-10122205D01*
X-3120939Y-10200003D01*
X-3156746Y-10286448D01*
X-3175000Y-10378217D01*
X-6655081Y-10378217D01*
X-6633000Y-10267211D01*
X-6633000Y-10072789D01*
X-6670930Y-9882103D01*
X-6745332Y-9702480D01*
X-6853347Y-9540824D01*
X-6990824Y-9403347D01*
X-7152480Y-9295332D01*
X-7332103Y-9220930D01*
X-7522789Y-9183000D01*
X-7717211Y-9183000D01*
X-7907897Y-9220930D01*
X-8087520Y-9295332D01*
X-8249176Y-9403347D01*
X-8386653Y-9540824D01*
X-8494668Y-9702480D01*
X-8569070Y-9882103D01*
X-8607000Y-10072789D01*
X-8770000Y-10072789D01*
X-8770000Y-7532789D01*
X-8607000Y-7532789D01*
X-8607000Y-7727211D01*
X-8569070Y-7917897D01*
X-8494668Y-8097520D01*
X-8386653Y-8259176D01*
X-8249176Y-8396653D01*
X-8087520Y-8504668D01*
X-7907897Y-8579070D01*
X-7717211Y-8617000D01*
X-7522789Y-8617000D01*
X-7403225Y-8593217D01*
X-2735000Y-8593217D01*
X-2735000Y-8686783D01*
X-2716746Y-8778552D01*
X-2680939Y-8864997D01*
X-2628956Y-8942795D01*
X-2562795Y-9008956D01*
X-2484997Y-9060939D01*
X-2398552Y-9096746D01*
X-2306783Y-9115000D01*
X-2213217Y-9115000D01*
X-2121448Y-9096746D01*
X-2035003Y-9060939D01*
X-1957205Y-9008956D01*
X-1891044Y-8942795D01*
X-1887545Y-8937559D01*
X-1843956Y-9002795D01*
X-1777795Y-9068956D01*
X-1699997Y-9120939D01*
X-1613552Y-9156746D01*
X-1521783Y-9175000D01*
X-1428217Y-9175000D01*
X-1336448Y-9156746D01*
X-1250003Y-9120939D01*
X-1172205Y-9068956D01*
X-1106044Y-9002795D01*
X-1054061Y-8924997D01*
X-1018254Y-8838552D01*
X-1000000Y-8746783D01*
X-1000000Y-8653217D01*
X-1018254Y-8561448D01*
X-1054061Y-8475003D01*
X-1106044Y-8397205D01*
X-1172205Y-8331044D01*
X-1250003Y-8279061D01*
X-1336448Y-8243254D01*
X-1428217Y-8225000D01*
X-1521783Y-8225000D01*
X-1613552Y-8243254D01*
X-1699997Y-8279061D01*
X-1777795Y-8331044D01*
X-1843956Y-8397205D01*
X-1847455Y-8402441D01*
X-1891044Y-8337205D01*
X-1957205Y-8271044D01*
X-2035003Y-8219061D01*
X-2121448Y-8183254D01*
X-2213217Y-8165000D01*
X-2306783Y-8165000D01*
X-2398552Y-8183254D01*
X-2484997Y-8219061D01*
X-2562795Y-8271044D01*
X-2628956Y-8337205D01*
X-2680939Y-8415003D01*
X-2716746Y-8501448D01*
X-2735000Y-8593217D01*
X-7403225Y-8593217D01*
X-7332103Y-8579070D01*
X-7152480Y-8504668D01*
X-6990824Y-8396653D01*
X-6853347Y-8259176D01*
X-6745332Y-8097520D01*
X-6706271Y-8003217D01*
X-6550000Y-8003217D01*
X-6550000Y-8096783D01*
X-6531746Y-8188552D01*
X-6495939Y-8274997D01*
X-6443956Y-8352795D01*
X-6377795Y-8418956D01*
X-6299997Y-8470939D01*
X-6213552Y-8506746D01*
X-6121783Y-8525000D01*
X-6028217Y-8525000D01*
X-5936448Y-8506746D01*
X-5850003Y-8470939D01*
X-5772205Y-8418956D01*
X-5706044Y-8352795D01*
X-5654061Y-8274997D01*
X-5618254Y-8188552D01*
X-5600000Y-8096783D01*
X-5600000Y-8003217D01*
X-5618254Y-7911448D01*
X-5654061Y-7825003D01*
X-5706044Y-7747205D01*
X-5772205Y-7681044D01*
X-5850003Y-7629061D01*
X-5936448Y-7593254D01*
X-6028217Y-7575000D01*
X-6121783Y-7575000D01*
X-6213552Y-7593254D01*
X-6299997Y-7629061D01*
X-6377795Y-7681044D01*
X-6443956Y-7747205D01*
X-6495939Y-7825003D01*
X-6531746Y-7911448D01*
X-6550000Y-8003217D01*
X-6706271Y-8003217D01*
X-6670930Y-7917897D01*
X-6633000Y-7727211D01*
X-6633000Y-7553217D01*
X-5375000Y-7553217D01*
X-5375000Y-7646783D01*
X-5356746Y-7738552D01*
X-5320939Y-7824997D01*
X-5268956Y-7902795D01*
X-5202795Y-7968956D01*
X-5124997Y-8020939D01*
X-5038552Y-8056746D01*
X-4946783Y-8075000D01*
X-4853217Y-8075000D01*
X-4761448Y-8056746D01*
X-4675003Y-8020939D01*
X-4597205Y-7968956D01*
X-4531044Y-7902795D01*
X-4479061Y-7824997D01*
X-4443254Y-7738552D01*
X-4425000Y-7646783D01*
X-4425000Y-7553217D01*
X-4443254Y-7461448D01*
X-4479061Y-7375003D01*
X-4531044Y-7297205D01*
X-4597205Y-7231044D01*
X-4675003Y-7179061D01*
X-4761448Y-7143254D01*
X-4853217Y-7125000D01*
X-4946783Y-7125000D01*
X-5038552Y-7143254D01*
X-5124997Y-7179061D01*
X-5202795Y-7231044D01*
X-5268956Y-7297205D01*
X-5320939Y-7375003D01*
X-5356746Y-7461448D01*
X-5375000Y-7553217D01*
X-6633000Y-7553217D01*
X-6633000Y-7532789D01*
X-6670930Y-7342103D01*
X-6745332Y-7162480D01*
X-6853347Y-7000824D01*
X-6990824Y-6863347D01*
X-7152480Y-6755332D01*
X-7332103Y-6680930D01*
X-7522789Y-6643000D01*
X-7717211Y-6643000D01*
X-7907897Y-6680930D01*
X-8087520Y-6755332D01*
X-8249176Y-6863347D01*
X-8386653Y-7000824D01*
X-8494668Y-7162480D01*
X-8569070Y-7342103D01*
X-8607000Y-7532789D01*
X-8770000Y-7532789D01*
X-8770000Y-4992789D01*
X-8607000Y-4992789D01*
X-8607000Y-5187211D01*
X-8569070Y-5377897D01*
X-8494668Y-5557520D01*
X-8386653Y-5719176D01*
X-8249176Y-5856653D01*
X-8087520Y-5964668D01*
X-7907897Y-6039070D01*
X-7717211Y-6077000D01*
X-7522789Y-6077000D01*
X-7332103Y-6039070D01*
X-7152480Y-5964668D01*
X-6990824Y-5856653D01*
X-6853347Y-5719176D01*
X-6745332Y-5557520D01*
X-6670930Y-5377897D01*
X-6633000Y-5187211D01*
X-6633000Y-4992789D01*
X-6670930Y-4802103D01*
X-6745332Y-4622480D01*
X-6853347Y-4460824D01*
X-6860954Y-4453217D01*
X-5275000Y-4453217D01*
X-5275000Y-4546783D01*
X-5256746Y-4638552D01*
X-5220939Y-4724997D01*
X-5168956Y-4802795D01*
X-5102795Y-4868956D01*
X-5024997Y-4920939D01*
X-4938552Y-4956746D01*
X-4906711Y-4963080D01*
X-4926746Y-5011448D01*
X-4945000Y-5103217D01*
X-4945000Y-5196783D01*
X-4926746Y-5288552D01*
X-4890939Y-5374997D01*
X-4838956Y-5452795D01*
X-4772795Y-5518956D01*
X-4694997Y-5570939D01*
X-4665082Y-5583331D01*
X-4678956Y-5597205D01*
X-4730939Y-5675003D01*
X-4766746Y-5761448D01*
X-4785000Y-5853217D01*
X-4785000Y-5946783D01*
X-4766746Y-6038552D01*
X-4730939Y-6124997D01*
X-4678956Y-6202795D01*
X-4612795Y-6268956D01*
X-4534997Y-6320939D01*
X-4448552Y-6356746D01*
X-4356783Y-6375000D01*
X-4265000Y-6375000D01*
X-4265000Y-6436783D01*
X-4255472Y-6484685D01*
X-4298552Y-6493254D01*
X-4384997Y-6529061D01*
X-4462795Y-6581044D01*
X-4528956Y-6647205D01*
X-4580939Y-6725003D01*
X-4616746Y-6811448D01*
X-4635000Y-6903217D01*
X-4635000Y-6996783D01*
X-4616746Y-7088552D01*
X-4580939Y-7174997D01*
X-4528956Y-7252795D01*
X-4462795Y-7318956D01*
X-4384997Y-7370939D01*
X-4350222Y-7385343D01*
X-4381746Y-7461448D01*
X-4400000Y-7553217D01*
X-4400000Y-7646783D01*
X-4381746Y-7738552D01*
X-4345939Y-7824997D01*
X-4293956Y-7902795D01*
X-4227795Y-7968956D01*
X-4149997Y-8020939D01*
X-4063552Y-8056746D01*
X-3971783Y-8075000D01*
X-3878217Y-8075000D01*
X-3786448Y-8056746D01*
X-3700003Y-8020939D01*
X-3622205Y-7968956D01*
X-3556044Y-7902795D01*
X-3504061Y-7824997D01*
X-3468254Y-7738552D01*
X-3450000Y-7646783D01*
X-3450000Y-7628217D01*
X-3075000Y-7628217D01*
X-3075000Y-7721783D01*
X-3056746Y-7813552D01*
X-3020939Y-7899997D01*
X-2968956Y-7977795D01*
X-2902795Y-8043956D01*
X-2824997Y-8095939D01*
X-2738552Y-8131746D01*
X-2646783Y-8150000D01*
X-2553217Y-8150000D01*
X-2461448Y-8131746D01*
X-2375003Y-8095939D01*
X-2297205Y-8043956D01*
X-2231044Y-7977795D01*
X-2179061Y-7899997D01*
X-2143254Y-7813552D01*
X-2125000Y-7721783D01*
X-2125000Y-7628217D01*
X-2143254Y-7536448D01*
X-2179061Y-7450003D01*
X-2231044Y-7372205D01*
X-2297205Y-7306044D01*
X-2375003Y-7254061D01*
X-2461448Y-7218254D01*
X-2553217Y-7200000D01*
X-2646783Y-7200000D01*
X-2738552Y-7218254D01*
X-2824997Y-7254061D01*
X-2902795Y-7306044D01*
X-2968956Y-7372205D01*
X-3020939Y-7450003D01*
X-3056746Y-7536448D01*
X-3075000Y-7628217D01*
X-3450000Y-7628217D01*
X-3450000Y-7553217D01*
X-3468254Y-7461448D01*
X-3504061Y-7375003D01*
X-3556044Y-7297205D01*
X-3622205Y-7231044D01*
X-3700003Y-7179061D01*
X-3734778Y-7164657D01*
X-3703254Y-7088552D01*
X-3685000Y-6996783D01*
X-3685000Y-6903217D01*
X-3694528Y-6855315D01*
X-3651448Y-6846746D01*
X-3565003Y-6810939D01*
X-3487205Y-6758956D01*
X-3421044Y-6692795D01*
X-3369061Y-6614997D01*
X-3333254Y-6528552D01*
X-3315000Y-6436783D01*
X-3315000Y-6343217D01*
X-3333254Y-6251448D01*
X-3369061Y-6165003D01*
X-3421044Y-6087205D01*
X-3487205Y-6021044D01*
X-3565003Y-5969061D01*
X-3651448Y-5933254D01*
X-3743217Y-5915000D01*
X-3835000Y-5915000D01*
X-3835000Y-5885000D01*
X-3753217Y-5885000D01*
X-3661448Y-5866746D01*
X-3575003Y-5830939D01*
X-3497205Y-5778956D01*
X-3431044Y-5712795D01*
X-3379061Y-5634997D01*
X-3343254Y-5548552D01*
X-3325000Y-5456783D01*
X-3325000Y-5363217D01*
X-3343254Y-5271448D01*
X-3379061Y-5185003D01*
X-3431044Y-5107205D01*
X-3497205Y-5041044D01*
X-3575003Y-4989061D01*
X-3661448Y-4953254D01*
X-3753217Y-4935000D01*
X-3846783Y-4935000D01*
X-3938552Y-4953254D01*
X-4022889Y-4988188D01*
X-4049061Y-4925003D01*
X-4101044Y-4847205D01*
X-4167205Y-4781044D01*
X-4245003Y-4729061D01*
X-4331448Y-4693254D01*
X-4363289Y-4686920D01*
X-4343254Y-4638552D01*
X-4325000Y-4546783D01*
X-4325000Y-4453217D01*
X-4333376Y-4411108D01*
X-4311448Y-4406746D01*
X-4225003Y-4370939D01*
X-4147205Y-4318956D01*
X-4081044Y-4252795D01*
X-4029061Y-4174997D01*
X-3993254Y-4088552D01*
X-3975000Y-3996783D01*
X-3975000Y-3903217D01*
X-3993254Y-3811448D01*
X-4029061Y-3725003D01*
X-4081044Y-3647205D01*
X-4147205Y-3581044D01*
X-4188851Y-3553217D01*
X-2875000Y-3553217D01*
X-2875000Y-3646783D01*
X-2856746Y-3738552D01*
X-2820939Y-3824997D01*
X-2768956Y-3902795D01*
X-2702795Y-3968956D01*
X-2624997Y-4020939D01*
X-2538552Y-4056746D01*
X-2446783Y-4075000D01*
X-2353217Y-4075000D01*
X-2261448Y-4056746D01*
X-2175003Y-4020939D01*
X-2097205Y-3968956D01*
X-2031044Y-3902795D01*
X-1979061Y-3824997D01*
X-1943254Y-3738552D01*
X-1925000Y-3646783D01*
X-1925000Y-3553217D01*
X-1943254Y-3461448D01*
X-1979061Y-3375003D01*
X-2031044Y-3297205D01*
X-2097205Y-3231044D01*
X-2138851Y-3203217D01*
X2725000Y-3203217D01*
X2725000Y-3296783D01*
X2743254Y-3388552D01*
X2779061Y-3474997D01*
X2831044Y-3552795D01*
X2897205Y-3618956D01*
X2975003Y-3670939D01*
X3061448Y-3706746D01*
X3153217Y-3725000D01*
X3246783Y-3725000D01*
X3338552Y-3706746D01*
X3424997Y-3670939D01*
X3502795Y-3618956D01*
X3568956Y-3552795D01*
X3620939Y-3474997D01*
X3656746Y-3388552D01*
X3675000Y-3296783D01*
X3675000Y-3203217D01*
X3656746Y-3111448D01*
X3620939Y-3025003D01*
X3568956Y-2947205D01*
X3502795Y-2881044D01*
X3469292Y-2858658D01*
X3499997Y-2845939D01*
X3577795Y-2793956D01*
X3643956Y-2727795D01*
X3695939Y-2649997D01*
X3731746Y-2563552D01*
X3750000Y-2471783D01*
X3750000Y-2452789D01*
X6633000Y-2452789D01*
X6633000Y-2647211D01*
X6670930Y-2837897D01*
X6745332Y-3017520D01*
X6853347Y-3179176D01*
X6990824Y-3316653D01*
X7152480Y-3424668D01*
X7332103Y-3499070D01*
X7522789Y-3537000D01*
X7717211Y-3537000D01*
X7907897Y-3499070D01*
X8087520Y-3424668D01*
X8249176Y-3316653D01*
X8386653Y-3179176D01*
X8494668Y-3017520D01*
X8569070Y-2837897D01*
X8607000Y-2647211D01*
X8607000Y-2452789D01*
X8569070Y-2262103D01*
X8494668Y-2082480D01*
X8386653Y-1920824D01*
X8249176Y-1783347D01*
X8087520Y-1675332D01*
X7907897Y-1600930D01*
X7717211Y-1563000D01*
X7522789Y-1563000D01*
X7332103Y-1600930D01*
X7152480Y-1675332D01*
X6990824Y-1783347D01*
X6853347Y-1920824D01*
X6745332Y-2082480D01*
X6670930Y-2262103D01*
X6633000Y-2452789D01*
X3750000Y-2452789D01*
X3750000Y-2378217D01*
X3731746Y-2286448D01*
X3695939Y-2200003D01*
X3643956Y-2122205D01*
X3577795Y-2056044D01*
X3499997Y-2004061D01*
X3413552Y-1968254D01*
X3321783Y-1950000D01*
X3228217Y-1950000D01*
X3136448Y-1968254D01*
X3050003Y-2004061D01*
X2972205Y-2056044D01*
X2906044Y-2122205D01*
X2854061Y-2200003D01*
X2818254Y-2286448D01*
X2800000Y-2378217D01*
X2800000Y-2471783D01*
X2818254Y-2563552D01*
X2854061Y-2649997D01*
X2906044Y-2727795D01*
X2972205Y-2793956D01*
X3005708Y-2816342D01*
X2975003Y-2829061D01*
X2897205Y-2881044D01*
X2831044Y-2947205D01*
X2779061Y-3025003D01*
X2743254Y-3111448D01*
X2725000Y-3203217D01*
X-2138851Y-3203217D01*
X-2175003Y-3179061D01*
X-2245162Y-3150000D01*
X-2178217Y-3150000D01*
X-2086448Y-3131746D01*
X-2000003Y-3095939D01*
X-1922205Y-3043956D01*
X-1856044Y-2977795D01*
X-1804061Y-2899997D01*
X-1781775Y-2846195D01*
X-1743956Y-2902795D01*
X-1677795Y-2968956D01*
X-1599997Y-3020939D01*
X-1513552Y-3056746D01*
X-1421783Y-3075000D01*
X-1328217Y-3075000D01*
X-1236448Y-3056746D01*
X-1150003Y-3020939D01*
X-1072205Y-2968956D01*
X-1006044Y-2902795D01*
X-954061Y-2824997D01*
X-918254Y-2738552D01*
X-900000Y-2646783D01*
X-900000Y-2643217D01*
X1815000Y-2643217D01*
X1815000Y-2736783D01*
X1833254Y-2828552D01*
X1869061Y-2914997D01*
X1921044Y-2992795D01*
X1987205Y-3058956D01*
X2065003Y-3110939D01*
X2151448Y-3146746D01*
X2243217Y-3165000D01*
X2336783Y-3165000D01*
X2428552Y-3146746D01*
X2514997Y-3110939D01*
X2592795Y-3058956D01*
X2658956Y-2992795D01*
X2710939Y-2914997D01*
X2746746Y-2828552D01*
X2765000Y-2736783D01*
X2765000Y-2643217D01*
X2746746Y-2551448D01*
X2710939Y-2465003D01*
X2658956Y-2387205D01*
X2592795Y-2321044D01*
X2514997Y-2269061D01*
X2428552Y-2233254D01*
X2336783Y-2215000D01*
X2243217Y-2215000D01*
X2151448Y-2233254D01*
X2065003Y-2269061D01*
X1987205Y-2321044D01*
X1921044Y-2387205D01*
X1869061Y-2465003D01*
X1833254Y-2551448D01*
X1815000Y-2643217D01*
X-900000Y-2643217D01*
X-900000Y-2553217D01*
X-918254Y-2461448D01*
X-954061Y-2375003D01*
X-1006044Y-2297205D01*
X-1072205Y-2231044D01*
X-1150003Y-2179061D01*
X-1236448Y-2143254D01*
X-1328217Y-2125000D01*
X-1421783Y-2125000D01*
X-1513552Y-2143254D01*
X-1599997Y-2179061D01*
X-1677795Y-2231044D01*
X-1743956Y-2297205D01*
X-1795939Y-2375003D01*
X-1818225Y-2428805D01*
X-1856044Y-2372205D01*
X-1922205Y-2306044D01*
X-2000003Y-2254061D01*
X-2086448Y-2218254D01*
X-2178217Y-2200000D01*
X-2271783Y-2200000D01*
X-2363552Y-2218254D01*
X-2449997Y-2254061D01*
X-2527795Y-2306044D01*
X-2593956Y-2372205D01*
X-2645939Y-2450003D01*
X-2681746Y-2536448D01*
X-2700000Y-2628217D01*
X-2700000Y-2721783D01*
X-2681746Y-2813552D01*
X-2645939Y-2899997D01*
X-2593956Y-2977795D01*
X-2527795Y-3043956D01*
X-2449997Y-3095939D01*
X-2379838Y-3125000D01*
X-2446783Y-3125000D01*
X-2538552Y-3143254D01*
X-2624997Y-3179061D01*
X-2702795Y-3231044D01*
X-2768956Y-3297205D01*
X-2820939Y-3375003D01*
X-2856746Y-3461448D01*
X-2875000Y-3553217D01*
X-4188851Y-3553217D01*
X-4225003Y-3529061D01*
X-4311448Y-3493254D01*
X-4403217Y-3475000D01*
X-4496783Y-3475000D01*
X-4588552Y-3493254D01*
X-4674997Y-3529061D01*
X-4752795Y-3581044D01*
X-4818956Y-3647205D01*
X-4870939Y-3725003D01*
X-4906746Y-3811448D01*
X-4925000Y-3903217D01*
X-4925000Y-3996783D01*
X-4916624Y-4038892D01*
X-4938552Y-4043254D01*
X-5024997Y-4079061D01*
X-5102795Y-4131044D01*
X-5168956Y-4197205D01*
X-5220939Y-4275003D01*
X-5256746Y-4361448D01*
X-5275000Y-4453217D01*
X-6860954Y-4453217D01*
X-6990824Y-4323347D01*
X-7152480Y-4215332D01*
X-7332103Y-4140930D01*
X-7522789Y-4103000D01*
X-7717211Y-4103000D01*
X-7907897Y-4140930D01*
X-8087520Y-4215332D01*
X-8249176Y-4323347D01*
X-8386653Y-4460824D01*
X-8494668Y-4622480D01*
X-8569070Y-4802103D01*
X-8607000Y-4992789D01*
X-8770000Y-4992789D01*
X-8770000Y-2452789D01*
X-8607000Y-2452789D01*
X-8607000Y-2647211D01*
X-8569070Y-2837897D01*
X-8494668Y-3017520D01*
X-8386653Y-3179176D01*
X-8249176Y-3316653D01*
X-8087520Y-3424668D01*
X-7907897Y-3499070D01*
X-7717211Y-3537000D01*
X-7522789Y-3537000D01*
X-7332103Y-3499070D01*
X-7152480Y-3424668D01*
X-6990824Y-3316653D01*
X-6853347Y-3179176D01*
X-6745332Y-3017520D01*
X-6670930Y-2837897D01*
X-6639168Y-2678217D01*
X-5975000Y-2678217D01*
X-5975000Y-2771783D01*
X-5956746Y-2863552D01*
X-5920939Y-2949997D01*
X-5868956Y-3027795D01*
X-5834251Y-3062500D01*
X-5843956Y-3072205D01*
X-5895939Y-3150003D01*
X-5931746Y-3236448D01*
X-5950000Y-3328217D01*
X-5950000Y-3421783D01*
X-5931746Y-3513552D01*
X-5895939Y-3599997D01*
X-5843956Y-3677795D01*
X-5777795Y-3743956D01*
X-5699997Y-3795939D01*
X-5613552Y-3831746D01*
X-5521783Y-3850000D01*
X-5428217Y-3850000D01*
X-5336448Y-3831746D01*
X-5250003Y-3795939D01*
X-5172205Y-3743956D01*
X-5106044Y-3677795D01*
X-5054061Y-3599997D01*
X-5018254Y-3513552D01*
X-5000000Y-3421783D01*
X-5000000Y-3328217D01*
X-5018254Y-3236448D01*
X-5054061Y-3150003D01*
X-5106044Y-3072205D01*
X-5140749Y-3037500D01*
X-5131044Y-3027795D01*
X-5079061Y-2949997D01*
X-5043254Y-2863552D01*
X-5025000Y-2771783D01*
X-5025000Y-2678217D01*
X-5043254Y-2586448D01*
X-5079061Y-2500003D01*
X-5131044Y-2422205D01*
X-5197205Y-2356044D01*
X-5275003Y-2304061D01*
X-5361448Y-2268254D01*
X-5453217Y-2250000D01*
X-5546783Y-2250000D01*
X-5638552Y-2268254D01*
X-5724997Y-2304061D01*
X-5802795Y-2356044D01*
X-5868956Y-2422205D01*
X-5920939Y-2500003D01*
X-5956746Y-2586448D01*
X-5975000Y-2678217D01*
X-6639168Y-2678217D01*
X-6633000Y-2647211D01*
X-6633000Y-2452789D01*
X-6670930Y-2262103D01*
X-6745332Y-2082480D01*
X-6853347Y-1920824D01*
X-6990824Y-1783347D01*
X-7095781Y-1713217D01*
X-5162500Y-1713217D01*
X-5162500Y-1806783D01*
X-5144246Y-1898552D01*
X-5108439Y-1984997D01*
X-5056456Y-2062795D01*
X-4990295Y-2128956D01*
X-4912497Y-2180939D01*
X-4826052Y-2216746D01*
X-4734283Y-2235000D01*
X-4640717Y-2235000D01*
X-4548948Y-2216746D01*
X-4462503Y-2180939D01*
X-4384705Y-2128956D01*
X-4348750Y-2093001D01*
X-4312795Y-2128956D01*
X-4234997Y-2180939D01*
X-4148552Y-2216746D01*
X-4056783Y-2235000D01*
X-3963217Y-2235000D01*
X-3871448Y-2216746D01*
X-3785003Y-2180939D01*
X-3707205Y-2128956D01*
X-3641044Y-2062795D01*
X-3589061Y-1984997D01*
X-3553254Y-1898552D01*
X-3535000Y-1806783D01*
X-3535000Y-1782453D01*
X-3446783Y-1800000D01*
X-3353217Y-1800000D01*
X-3261448Y-1781746D01*
X-3175003Y-1745939D01*
X-3097205Y-1693956D01*
X-3031044Y-1627795D01*
X-2997918Y-1578217D01*
X-2775000Y-1578217D01*
X-2775000Y-1671783D01*
X-2756746Y-1763552D01*
X-2720939Y-1849997D01*
X-2668956Y-1927795D01*
X-2602795Y-1993956D01*
X-2524997Y-2045939D01*
X-2438552Y-2081746D01*
X-2346783Y-2100000D01*
X-2253217Y-2100000D01*
X-2161448Y-2081746D01*
X-2075003Y-2045939D01*
X-1997205Y-1993956D01*
X-1931044Y-1927795D01*
X-1879061Y-1849997D01*
X-1843254Y-1763552D01*
X-1825000Y-1671783D01*
X-1825000Y-1578217D01*
X-1843254Y-1486448D01*
X-1879061Y-1400003D01*
X-1931044Y-1322205D01*
X-1997205Y-1256044D01*
X-2075003Y-1204061D01*
X-2161448Y-1168254D01*
X-2253217Y-1150000D01*
X-2346783Y-1150000D01*
X-2438552Y-1168254D01*
X-2524997Y-1204061D01*
X-2602795Y-1256044D01*
X-2668956Y-1322205D01*
X-2720939Y-1400003D01*
X-2756746Y-1486448D01*
X-2775000Y-1578217D01*
X-2997918Y-1578217D01*
X-2979061Y-1549997D01*
X-2943254Y-1463552D01*
X-2925000Y-1371783D01*
X-2925000Y-1278217D01*
X-2943254Y-1186448D01*
X-2979061Y-1100003D01*
X-3027026Y-1028217D01*
X-500000Y-1028217D01*
X-500000Y-1121783D01*
X-481746Y-1213552D01*
X-445939Y-1299997D01*
X-393956Y-1377795D01*
X-327795Y-1443956D01*
X-249997Y-1495939D01*
X-163552Y-1531746D01*
X-71783Y-1550000D01*
X21783Y-1550000D01*
X113552Y-1531746D01*
X199997Y-1495939D01*
X277795Y-1443956D01*
X343956Y-1377795D01*
X395939Y-1299997D01*
X425671Y-1228217D01*
X3075000Y-1228217D01*
X3075000Y-1321783D01*
X3093254Y-1413552D01*
X3129061Y-1499997D01*
X3181044Y-1577795D01*
X3247205Y-1643956D01*
X3325003Y-1695939D01*
X3411448Y-1731746D01*
X3503217Y-1750000D01*
X3596783Y-1750000D01*
X3688552Y-1731746D01*
X3774997Y-1695939D01*
X3852795Y-1643956D01*
X3918956Y-1577795D01*
X3970939Y-1499997D01*
X4006746Y-1413552D01*
X4025000Y-1321783D01*
X4025000Y-1228217D01*
X4006746Y-1136448D01*
X3970939Y-1050003D01*
X3918956Y-972205D01*
X3852795Y-906044D01*
X3774997Y-854061D01*
X3688552Y-818254D01*
X3596783Y-800000D01*
X3503217Y-800000D01*
X3411448Y-818254D01*
X3325003Y-854061D01*
X3247205Y-906044D01*
X3181044Y-972205D01*
X3129061Y-1050003D01*
X3093254Y-1136448D01*
X3075000Y-1228217D01*
X425671Y-1228217D01*
X431746Y-1213552D01*
X441843Y-1162792D01*
X503217Y-1175000D01*
X596783Y-1175000D01*
X688552Y-1156746D01*
X774997Y-1120939D01*
X852795Y-1068956D01*
X918956Y-1002795D01*
X970939Y-924997D01*
X1006746Y-838552D01*
X1025000Y-746783D01*
X1025000Y-653217D01*
X1006746Y-561448D01*
X970939Y-475003D01*
X918956Y-397205D01*
X852795Y-331044D01*
X774997Y-279061D01*
X688552Y-243254D01*
X596783Y-225000D01*
X503217Y-225000D01*
X411448Y-243254D01*
X325003Y-279061D01*
X247205Y-331044D01*
X181044Y-397205D01*
X129061Y-475003D01*
X93254Y-561448D01*
X83157Y-612208D01*
X21783Y-600000D01*
X-71783Y-600000D01*
X-163552Y-618254D01*
X-249997Y-654061D01*
X-327795Y-706044D01*
X-393956Y-772205D01*
X-445939Y-850003D01*
X-481746Y-936448D01*
X-500000Y-1028217D01*
X-3027026Y-1028217D01*
X-3031044Y-1022205D01*
X-3097205Y-956044D01*
X-3175003Y-904061D01*
X-3215525Y-887276D01*
X-3206044Y-877795D01*
X-3154061Y-799997D01*
X-3118254Y-713552D01*
X-3100000Y-621783D01*
X-3100000Y-528217D01*
X-3118254Y-436448D01*
X-3154061Y-350003D01*
X-3206044Y-272205D01*
X-3272205Y-206044D01*
X-3306166Y-183352D01*
X-3247205Y-143956D01*
X-3181044Y-77795D01*
X-3129061Y3D01*
X-3093254Y86448D01*
X-3075000Y178217D01*
X-3075000Y271783D01*
X-3093254Y363552D01*
X-3129061Y449997D01*
X-3181044Y527795D01*
X-3247205Y593956D01*
X-3307558Y634283D01*
X-2387500Y634283D01*
X-2387500Y540717D01*
X-2369246Y448948D01*
X-2333439Y362503D01*
X-2281456Y284705D01*
X-2215295Y218544D01*
X-2137497Y166561D01*
X-2051052Y130754D01*
X-1959283Y112500D01*
X-1865717Y112500D01*
X-1773948Y130754D01*
X-1687503Y166561D01*
X-1609705Y218544D01*
X-1543544Y284705D01*
X-1491561Y362503D01*
X-1455754Y448948D01*
X-1437500Y540717D01*
X-1437500Y634283D01*
X-1444959Y671783D01*
X-850000Y671783D01*
X-850000Y578217D01*
X-831746Y486448D01*
X-795939Y400003D01*
X-743956Y322205D01*
X-677795Y256044D01*
X-599997Y204061D01*
X-513552Y168254D01*
X-421783Y150000D01*
X-328217Y150000D01*
X-236448Y168254D01*
X-150003Y204061D01*
X-72205Y256044D01*
X-6044Y322205D01*
X45939Y400003D01*
X81746Y486448D01*
X100000Y578217D01*
X100000Y671783D01*
X81746Y763552D01*
X45939Y849997D01*
X-6044Y927795D01*
X-72205Y993956D01*
X-150003Y1045939D01*
X-236448Y1081746D01*
X-328217Y1100000D01*
X-421783Y1100000D01*
X-513552Y1081746D01*
X-599997Y1045939D01*
X-677795Y993956D01*
X-743956Y927795D01*
X-795939Y849997D01*
X-831746Y763552D01*
X-850000Y671783D01*
X-1444959Y671783D01*
X-1455754Y726052D01*
X-1491561Y812497D01*
X-1543544Y890295D01*
X-1609705Y956456D01*
X-1687503Y1008439D01*
X-1773948Y1044246D01*
X-1865717Y1062500D01*
X-1959283Y1062500D01*
X-2051052Y1044246D01*
X-2137497Y1008439D01*
X-2215295Y956456D01*
X-2281456Y890295D01*
X-2333439Y812497D01*
X-2369246Y726052D01*
X-2387500Y634283D01*
X-3307558Y634283D01*
X-3325003Y645939D01*
X-3411448Y681746D01*
X-3503217Y700000D01*
X-3596783Y700000D01*
X-3688552Y681746D01*
X-3774997Y645939D01*
X-3852795Y593956D01*
X-3918956Y527795D01*
X-3970939Y449997D01*
X-4006746Y363552D01*
X-4025000Y271783D01*
X-4025000Y178217D01*
X-4006746Y86448D01*
X-3970939Y3D01*
X-3918956Y-77795D01*
X-3852795Y-143956D01*
X-3818834Y-166648D01*
X-3877795Y-206044D01*
X-3943956Y-272205D01*
X-3995939Y-350003D01*
X-4031746Y-436448D01*
X-4050000Y-528217D01*
X-4050000Y-621783D01*
X-4031746Y-713552D01*
X-3995939Y-799997D01*
X-3943956Y-877795D01*
X-3877795Y-943956D01*
X-3799997Y-995939D01*
X-3759475Y-1012724D01*
X-3768956Y-1022205D01*
X-3820939Y-1100003D01*
X-3856746Y-1186448D01*
X-3875000Y-1278217D01*
X-3875000Y-1302547D01*
X-3963217Y-1285000D01*
X-4056783Y-1285000D01*
X-4148552Y-1303254D01*
X-4234997Y-1339061D01*
X-4312795Y-1391044D01*
X-4348750Y-1426999D01*
X-4384705Y-1391044D01*
X-4462503Y-1339061D01*
X-4548948Y-1303254D01*
X-4640717Y-1285000D01*
X-4734283Y-1285000D01*
X-4826052Y-1303254D01*
X-4912497Y-1339061D01*
X-4990295Y-1391044D01*
X-5056456Y-1457205D01*
X-5108439Y-1535003D01*
X-5144246Y-1621448D01*
X-5162500Y-1713217D01*
X-7095781Y-1713217D01*
X-7152480Y-1675332D01*
X-7332103Y-1600930D01*
X-7522789Y-1563000D01*
X-7717211Y-1563000D01*
X-7907897Y-1600930D01*
X-8087520Y-1675332D01*
X-8249176Y-1783347D01*
X-8386653Y-1920824D01*
X-8494668Y-2082480D01*
X-8569070Y-2262103D01*
X-8607000Y-2452789D01*
X-8770000Y-2452789D01*
X-8770000Y-1987725D01*
X-8770086Y-1986852D01*
X-8770102Y-1984563D01*
X-8771289Y-1973274D01*
X-8771289Y-1961923D01*
X-8771654Y-1958451D01*
X-8792973Y-1768381D01*
X-8795000Y-1758844D01*
X-8795000Y-892767D01*
X-8793254Y-888552D01*
X-8775000Y-796783D01*
X-8775000Y-703217D01*
X-8793254Y-611448D01*
X-8795000Y-607233D01*
X-8795000Y-142767D01*
X-8793254Y-138552D01*
X-8775000Y-46783D01*
X-8775000Y46783D01*
X-8783041Y87211D01*
X-8607000Y87211D01*
X-8607000Y-107211D01*
X-8569070Y-297897D01*
X-8494668Y-477520D01*
X-8386653Y-639176D01*
X-8249176Y-776653D01*
X-8087520Y-884668D01*
X-7907897Y-959070D01*
X-7717211Y-997000D01*
X-7522789Y-997000D01*
X-7332103Y-959070D01*
X-7152480Y-884668D01*
X-6990824Y-776653D01*
X-6853347Y-639176D01*
X-6745332Y-477520D01*
X-6670930Y-297897D01*
X-6633000Y-107211D01*
X-6633000Y87211D01*
X-6670930Y277897D01*
X-6745332Y457520D01*
X-6853347Y619176D01*
X-6990824Y756653D01*
X-7152480Y864668D01*
X-7332103Y939070D01*
X-7522789Y977000D01*
X-7717211Y977000D01*
X-7907897Y939070D01*
X-8087520Y864668D01*
X-8249176Y756653D01*
X-8386653Y619176D01*
X-8494668Y457520D01*
X-8569070Y277897D01*
X-8607000Y87211D01*
X-8783041Y87211D01*
X-8793254Y138552D01*
X-8795000Y142767D01*
X-8795000Y607233D01*
X-8793254Y611448D01*
X-8775000Y703217D01*
X-8775000Y796783D01*
X-8793254Y888552D01*
X-8795000Y892767D01*
X-8795000Y1759280D01*
X-8794935Y1759610D01*
X-8790222Y1781782D01*
X-8789857Y1785254D01*
X-8771193Y1975604D01*
X-8771193Y1975613D01*
X-8770000Y1987725D01*
X-8770000Y2627211D01*
X-8607000Y2627211D01*
X-8607000Y2432789D01*
X-8569070Y2242103D01*
X-8494668Y2062480D01*
X-8386653Y1900824D01*
X-8249176Y1763347D01*
X-8087520Y1655332D01*
X-7907897Y1580930D01*
X-7717211Y1543000D01*
X-7522789Y1543000D01*
X-7332103Y1580930D01*
X-7152480Y1655332D01*
X-6990824Y1763347D01*
X-6853347Y1900824D01*
X-6745332Y2062480D01*
X-6689703Y2196783D01*
X-5950000Y2196783D01*
X-5950000Y2103217D01*
X-5931746Y2011448D01*
X-5895939Y1925003D01*
X-5843956Y1847205D01*
X-5777795Y1781044D01*
X-5699997Y1729061D01*
X-5613552Y1693254D01*
X-5521783Y1675000D01*
X-5428217Y1675000D01*
X-5336448Y1693254D01*
X-5250003Y1729061D01*
X-5172205Y1781044D01*
X-5106466Y1846783D01*
X3000000Y1846783D01*
X3000000Y1753217D01*
X3018254Y1661448D01*
X3054061Y1575003D01*
X3106044Y1497205D01*
X3172205Y1431044D01*
X3250003Y1379061D01*
X3336448Y1343254D01*
X3428217Y1325000D01*
X3521783Y1325000D01*
X3613552Y1343254D01*
X3699997Y1379061D01*
X3777795Y1431044D01*
X3843956Y1497205D01*
X3895939Y1575003D01*
X3931746Y1661448D01*
X3950000Y1753217D01*
X3950000Y1846783D01*
X3931746Y1938552D01*
X3895939Y2024997D01*
X3843956Y2102795D01*
X3777795Y2168956D01*
X3699997Y2220939D01*
X3613552Y2256746D01*
X3521783Y2275000D01*
X3428217Y2275000D01*
X3336448Y2256746D01*
X3250003Y2220939D01*
X3172205Y2168956D01*
X3106044Y2102795D01*
X3054061Y2024997D01*
X3018254Y1938552D01*
X3000000Y1846783D01*
X-5106466Y1846783D01*
X-5106044Y1847205D01*
X-5054061Y1925003D01*
X-5018254Y2011448D01*
X-5000000Y2103217D01*
X-5000000Y2196783D01*
X-5018254Y2288552D01*
X-5054061Y2374997D01*
X-5106044Y2452795D01*
X-5172205Y2518956D01*
X-5250003Y2570939D01*
X-5336448Y2606746D01*
X-5428217Y2625000D01*
X-5521783Y2625000D01*
X-5613552Y2606746D01*
X-5699997Y2570939D01*
X-5777795Y2518956D01*
X-5843956Y2452795D01*
X-5895939Y2374997D01*
X-5931746Y2288552D01*
X-5950000Y2196783D01*
X-6689703Y2196783D01*
X-6670930Y2242103D01*
X-6643379Y2380609D01*
X-6613552Y2368254D01*
X-6521783Y2350000D01*
X-6428217Y2350000D01*
X-6336448Y2368254D01*
X-6250003Y2404061D01*
X-6172205Y2456044D01*
X-6106044Y2522205D01*
X-6054061Y2600003D01*
X-6018254Y2686448D01*
X-6000000Y2778217D01*
X-6000000Y2850000D01*
X-5978217Y2850000D01*
X-5886448Y2868254D01*
X-5800003Y2904061D01*
X-5722205Y2956044D01*
X-5656466Y3021783D01*
X-3975000Y3021783D01*
X-3975000Y2928217D01*
X-3956746Y2836448D01*
X-3920939Y2750003D01*
X-3868956Y2672205D01*
X-3802795Y2606044D01*
X-3724997Y2554061D01*
X-3638552Y2518254D01*
X-3546783Y2500000D01*
X-3453217Y2500000D01*
X-3361448Y2518254D01*
X-3275003Y2554061D01*
X-3197205Y2606044D01*
X-3131044Y2672205D01*
X-3079061Y2750003D01*
X-3043254Y2836448D01*
X-3025000Y2928217D01*
X-3025000Y3021783D01*
X-3043254Y3113552D01*
X-3079061Y3199997D01*
X-3131044Y3277795D01*
X-3197205Y3343956D01*
X-3275003Y3395939D01*
X-3361448Y3431746D01*
X-3453217Y3450000D01*
X-3546783Y3450000D01*
X-3638552Y3431746D01*
X-3724997Y3395939D01*
X-3802795Y3343956D01*
X-3868956Y3277795D01*
X-3920939Y3199997D01*
X-3956746Y3113552D01*
X-3975000Y3021783D01*
X-5656466Y3021783D01*
X-5656044Y3022205D01*
X-5604061Y3100003D01*
X-5568254Y3186448D01*
X-5550000Y3278217D01*
X-5550000Y3371783D01*
X-5568254Y3463552D01*
X-5604061Y3549997D01*
X-5656044Y3627795D01*
X-5722205Y3693956D01*
X-5800003Y3745939D01*
X-5886448Y3781746D01*
X-5978217Y3800000D01*
X-6071783Y3800000D01*
X-6163552Y3781746D01*
X-6249997Y3745939D01*
X-6327795Y3693956D01*
X-6393956Y3627795D01*
X-6445939Y3549997D01*
X-6481746Y3463552D01*
X-6500000Y3371783D01*
X-6500000Y3300000D01*
X-6521783Y3300000D01*
X-6613552Y3281746D01*
X-6699997Y3245939D01*
X-6777795Y3193956D01*
X-6837016Y3134735D01*
X-6853347Y3159176D01*
X-6990824Y3296653D01*
X-7152480Y3404668D01*
X-7332103Y3479070D01*
X-7522789Y3517000D01*
X-7717211Y3517000D01*
X-7907897Y3479070D01*
X-8087520Y3404668D01*
X-8249176Y3296653D01*
X-8386653Y3159176D01*
X-8494668Y2997520D01*
X-8569070Y2817897D01*
X-8607000Y2627211D01*
X-8770000Y2627211D01*
X-8770000Y4100276D01*
X-8336580Y4100276D01*
X-8262585Y3881025D01*
X-8018281Y3778509D01*
X-7758670Y3725624D01*
X-7493731Y3724403D01*
X-7233644Y3774892D01*
X-6988404Y3875151D01*
X-6977415Y3881025D01*
X-6903420Y4100276D01*
X-7620000Y4816856D01*
X-8336580Y4100276D01*
X-8770000Y4100276D01*
X-8770000Y4414261D01*
X-8589724Y4353420D01*
X-7873144Y5070000D01*
X-7366856Y5070000D01*
X-6650276Y4353420D01*
X-6521790Y4396783D01*
X-6175000Y4396783D01*
X-6175000Y4303217D01*
X-6156746Y4211448D01*
X-6120939Y4125003D01*
X-6068956Y4047205D01*
X-6002795Y3981044D01*
X-5924997Y3929061D01*
X-5838552Y3893254D01*
X-5746783Y3875000D01*
X-5653217Y3875000D01*
X-5561448Y3893254D01*
X-5475003Y3929061D01*
X-5448481Y3946783D01*
X-2075000Y3946783D01*
X-2075000Y3853217D01*
X-2056746Y3761448D01*
X-2020939Y3675003D01*
X-1968956Y3597205D01*
X-1902795Y3531044D01*
X-1880562Y3516189D01*
X-1943956Y3452795D01*
X-1995939Y3374997D01*
X-2031746Y3288552D01*
X-2050000Y3196783D01*
X-2050000Y3103217D01*
X-2031746Y3011448D01*
X-1995939Y2925003D01*
X-1943956Y2847205D01*
X-1877795Y2781044D01*
X-1799997Y2729061D01*
X-1713552Y2693254D01*
X-1621783Y2675000D01*
X-1528217Y2675000D01*
X-1436448Y2693254D01*
X-1350003Y2729061D01*
X-1272205Y2781044D01*
X-1206044Y2847205D01*
X-1154061Y2925003D01*
X-1134684Y2971783D01*
X1250000Y2971783D01*
X1250000Y2878217D01*
X1268254Y2786448D01*
X1304061Y2700003D01*
X1356044Y2622205D01*
X1422205Y2556044D01*
X1500003Y2504061D01*
X1586448Y2468254D01*
X1678217Y2450000D01*
X1771783Y2450000D01*
X1863552Y2468254D01*
X1949997Y2504061D01*
X2027795Y2556044D01*
X2093956Y2622205D01*
X2145939Y2700003D01*
X2181746Y2786448D01*
X2200000Y2878217D01*
X2200000Y2971783D01*
X2181746Y3063552D01*
X2177005Y3075000D01*
X4150000Y3075000D01*
X4150000Y-2375000D01*
X4151441Y-2389632D01*
X4155709Y-2403701D01*
X4162640Y-2416668D01*
X4171967Y-2428033D01*
X4183332Y-2437360D01*
X4196299Y-2444291D01*
X4210368Y-2448559D01*
X4225000Y-2450000D01*
X6350000Y-2450000D01*
X6364632Y-2448559D01*
X6378701Y-2444291D01*
X6391668Y-2437360D01*
X6403033Y-2428033D01*
X6412360Y-2416668D01*
X6419291Y-2403701D01*
X6423559Y-2389632D01*
X6425000Y-2375000D01*
X6425000Y87211D01*
X6633000Y87211D01*
X6633000Y-107211D01*
X6670930Y-297897D01*
X6745332Y-477520D01*
X6853347Y-639176D01*
X6990824Y-776653D01*
X7152480Y-884668D01*
X7332103Y-959070D01*
X7522789Y-997000D01*
X7717211Y-997000D01*
X7907897Y-959070D01*
X8087520Y-884668D01*
X8249176Y-776653D01*
X8386653Y-639176D01*
X8494668Y-477520D01*
X8569070Y-297897D01*
X8607000Y-107211D01*
X8607000Y87211D01*
X8569070Y277897D01*
X8494668Y457520D01*
X8386653Y619176D01*
X8249176Y756653D01*
X8087520Y864668D01*
X7907897Y939070D01*
X7717211Y977000D01*
X7522789Y977000D01*
X7332103Y939070D01*
X7152480Y864668D01*
X6990824Y756653D01*
X6853347Y619176D01*
X6745332Y457520D01*
X6670930Y277897D01*
X6633000Y87211D01*
X6425000Y87211D01*
X6425000Y2627211D01*
X6633000Y2627211D01*
X6633000Y2432789D01*
X6670930Y2242103D01*
X6745332Y2062480D01*
X6853347Y1900824D01*
X6990824Y1763347D01*
X7152480Y1655332D01*
X7332103Y1580930D01*
X7522789Y1543000D01*
X7717211Y1543000D01*
X7907897Y1580930D01*
X8087520Y1655332D01*
X8249176Y1763347D01*
X8386653Y1900824D01*
X8494668Y2062480D01*
X8569070Y2242103D01*
X8607000Y2432789D01*
X8607000Y2627211D01*
X8569070Y2817897D01*
X8494668Y2997520D01*
X8386653Y3159176D01*
X8249176Y3296653D01*
X8087520Y3404668D01*
X7907897Y3479070D01*
X7717211Y3517000D01*
X7522789Y3517000D01*
X7332103Y3479070D01*
X7152480Y3404668D01*
X6990824Y3296653D01*
X6853347Y3159176D01*
X6745332Y2997520D01*
X6670930Y2817897D01*
X6633000Y2627211D01*
X6425000Y2627211D01*
X6425000Y3075000D01*
X6423559Y3089632D01*
X6419291Y3103701D01*
X6412360Y3116668D01*
X6403033Y3128033D01*
X6391668Y3137360D01*
X6378701Y3144291D01*
X6364632Y3148559D01*
X6350000Y3150000D01*
X4225000Y3150000D01*
X4210368Y3148559D01*
X4196299Y3144291D01*
X4183332Y3137360D01*
X4171967Y3128033D01*
X4162640Y3116668D01*
X4155709Y3103701D01*
X4151441Y3089632D01*
X4150000Y3075000D01*
X2177005Y3075000D01*
X2145939Y3149997D01*
X2093956Y3227795D01*
X2027795Y3293956D01*
X1949997Y3345939D01*
X1863552Y3381746D01*
X1771783Y3400000D01*
X1678217Y3400000D01*
X1586448Y3381746D01*
X1500003Y3345939D01*
X1422205Y3293956D01*
X1356044Y3227795D01*
X1304061Y3149997D01*
X1268254Y3063552D01*
X1250000Y2971783D01*
X-1134684Y2971783D01*
X-1118254Y3011448D01*
X-1100000Y3103217D01*
X-1100000Y3196783D01*
X-1118254Y3288552D01*
X-1154061Y3374997D01*
X-1206044Y3452795D01*
X-1272205Y3518956D01*
X-1294438Y3533811D01*
X-1231044Y3597205D01*
X-1179061Y3675003D01*
X-1143254Y3761448D01*
X-1125000Y3853217D01*
X-1125000Y3946783D01*
X-1143254Y4038552D01*
X-1179061Y4124997D01*
X-1231044Y4202795D01*
X-1297205Y4268956D01*
X-1375003Y4320939D01*
X-1461448Y4356746D01*
X-1553217Y4375000D01*
X-1646783Y4375000D01*
X-1738552Y4356746D01*
X-1824997Y4320939D01*
X-1902795Y4268956D01*
X-1968956Y4202795D01*
X-2020939Y4124997D01*
X-2056746Y4038552D01*
X-2075000Y3946783D01*
X-5448481Y3946783D01*
X-5397205Y3981044D01*
X-5331044Y4047205D01*
X-5279061Y4125003D01*
X-5243254Y4211448D01*
X-5225000Y4303217D01*
X-5225000Y4396783D01*
X-1000000Y4396783D01*
X-1000000Y4303217D01*
X-981746Y4211448D01*
X-945939Y4125003D01*
X-893956Y4047205D01*
X-827795Y3981044D01*
X-749997Y3929061D01*
X-663552Y3893254D01*
X-571783Y3875000D01*
X-478217Y3875000D01*
X-386448Y3893254D01*
X-300003Y3929061D01*
X-222205Y3981044D01*
X-156044Y4047205D01*
X-104061Y4125003D01*
X-68254Y4211448D01*
X-50000Y4303217D01*
X-50000Y4396783D01*
X325000Y4396783D01*
X325000Y4303217D01*
X343254Y4211448D01*
X379061Y4125003D01*
X431044Y4047205D01*
X497205Y3981044D01*
X575003Y3929061D01*
X661448Y3893254D01*
X753217Y3875000D01*
X846783Y3875000D01*
X938552Y3893254D01*
X1024997Y3929061D01*
X1102795Y3981044D01*
X1168956Y4047205D01*
X1220939Y4125003D01*
X1256746Y4211448D01*
X1275000Y4303217D01*
X1275000Y4396783D01*
X2675000Y4396783D01*
X2675000Y4303217D01*
X2693254Y4211448D01*
X2729061Y4125003D01*
X2781044Y4047205D01*
X2847205Y3981044D01*
X2925003Y3929061D01*
X3011448Y3893254D01*
X3103217Y3875000D01*
X3196783Y3875000D01*
X3288552Y3893254D01*
X3374997Y3929061D01*
X3452795Y3981044D01*
X3518956Y4047205D01*
X3570939Y4125003D01*
X3606746Y4211448D01*
X3625000Y4303217D01*
X3625000Y4396783D01*
X3606746Y4488552D01*
X3570939Y4574997D01*
X3518956Y4652795D01*
X3452795Y4718956D01*
X3374997Y4770939D01*
X3288552Y4806746D01*
X3196783Y4825000D01*
X3103217Y4825000D01*
X3011448Y4806746D01*
X2925003Y4770939D01*
X2847205Y4718956D01*
X2781044Y4652795D01*
X2729061Y4574997D01*
X2693254Y4488552D01*
X2675000Y4396783D01*
X1275000Y4396783D01*
X1256746Y4488552D01*
X1220939Y4574997D01*
X1168956Y4652795D01*
X1102795Y4718956D01*
X1024997Y4770939D01*
X938552Y4806746D01*
X846783Y4825000D01*
X753217Y4825000D01*
X661448Y4806746D01*
X575003Y4770939D01*
X497205Y4718956D01*
X431044Y4652795D01*
X379061Y4574997D01*
X343254Y4488552D01*
X325000Y4396783D01*
X-50000Y4396783D01*
X-68254Y4488552D01*
X-104061Y4574997D01*
X-156044Y4652795D01*
X-222205Y4718956D01*
X-300003Y4770939D01*
X-386448Y4806746D01*
X-478217Y4825000D01*
X-571783Y4825000D01*
X-663552Y4806746D01*
X-749997Y4770939D01*
X-827795Y4718956D01*
X-893956Y4652795D01*
X-945939Y4574997D01*
X-981746Y4488552D01*
X-1000000Y4396783D01*
X-5225000Y4396783D01*
X-5243254Y4488552D01*
X-5279061Y4574997D01*
X-5331044Y4652795D01*
X-5397205Y4718956D01*
X-5475003Y4770939D01*
X-5561448Y4806746D01*
X-5653217Y4825000D01*
X-5746783Y4825000D01*
X-5838552Y4806746D01*
X-5924997Y4770939D01*
X-6002795Y4718956D01*
X-6068956Y4652795D01*
X-6120939Y4574997D01*
X-6156746Y4488552D01*
X-6175000Y4396783D01*
X-6521790Y4396783D01*
X-6431025Y4427415D01*
X-6328509Y4671719D01*
X-6275624Y4931330D01*
X-6274977Y5071783D01*
X4850000Y5071783D01*
X4850000Y4978217D01*
X4868254Y4886448D01*
X4904061Y4800003D01*
X4956044Y4722205D01*
X5022205Y4656044D01*
X5100003Y4604061D01*
X5186448Y4568254D01*
X5278217Y4550000D01*
X5371783Y4550000D01*
X5463552Y4568254D01*
X5549997Y4604061D01*
X5627795Y4656044D01*
X5693956Y4722205D01*
X5745939Y4800003D01*
X5781746Y4886448D01*
X5800000Y4978217D01*
X5800000Y5071783D01*
X5781746Y5163552D01*
X5780231Y5167211D01*
X6633000Y5167211D01*
X6633000Y4972789D01*
X6670930Y4782103D01*
X6745332Y4602480D01*
X6853347Y4440824D01*
X6990824Y4303347D01*
X7152480Y4195332D01*
X7332103Y4120930D01*
X7522789Y4083000D01*
X7717211Y4083000D01*
X7907897Y4120930D01*
X8087520Y4195332D01*
X8249176Y4303347D01*
X8386653Y4440824D01*
X8494668Y4602480D01*
X8569070Y4782103D01*
X8607000Y4972789D01*
X8607000Y5167211D01*
X8569070Y5357897D01*
X8494668Y5537520D01*
X8386653Y5699176D01*
X8249176Y5836653D01*
X8087520Y5944668D01*
X7907897Y6019070D01*
X7717211Y6057000D01*
X7522789Y6057000D01*
X7332103Y6019070D01*
X7152480Y5944668D01*
X6990824Y5836653D01*
X6853347Y5699176D01*
X6745332Y5537520D01*
X6670930Y5357897D01*
X6633000Y5167211D01*
X5780231Y5167211D01*
X5745939Y5249997D01*
X5693956Y5327795D01*
X5627795Y5393956D01*
X5549997Y5445939D01*
X5463552Y5481746D01*
X5371783Y5500000D01*
X5278217Y5500000D01*
X5186448Y5481746D01*
X5100003Y5445939D01*
X5022205Y5393956D01*
X4956044Y5327795D01*
X4904061Y5249997D01*
X4868254Y5163552D01*
X4850000Y5071783D01*
X-6274977Y5071783D01*
X-6274403Y5196269D01*
X-6324892Y5456356D01*
X-6425151Y5701596D01*
X-6431025Y5712585D01*
X-6650276Y5786580D01*
X-7366856Y5070000D01*
X-7873144Y5070000D01*
X-8589724Y5786580D01*
X-8770000Y5725739D01*
X-8770000Y6640276D01*
X-8336580Y6640276D01*
X-8262585Y6421025D01*
X-8068645Y6339643D01*
X-8251596Y6264849D01*
X-8262585Y6258975D01*
X-8336580Y6039724D01*
X-7620000Y5323144D01*
X-6903420Y6039724D01*
X-6977415Y6258975D01*
X-7171355Y6340357D01*
X-6988404Y6415151D01*
X-6977415Y6421025D01*
X-6934973Y6546783D01*
X-3050000Y6546783D01*
X-3050000Y6453217D01*
X-3031746Y6361448D01*
X-2995939Y6275003D01*
X-2943956Y6197205D01*
X-2877795Y6131044D01*
X-2799997Y6079061D01*
X-2713552Y6043254D01*
X-2621783Y6025000D01*
X-2528217Y6025000D01*
X-2436448Y6043254D01*
X-2350003Y6079061D01*
X-2272205Y6131044D01*
X-2206044Y6197205D01*
X-2154061Y6275003D01*
X-2118254Y6361448D01*
X-2100000Y6453217D01*
X-2100000Y6546783D01*
X-2118254Y6638552D01*
X-2154061Y6724997D01*
X-2206044Y6802795D01*
X-2272205Y6868956D01*
X-2350003Y6920939D01*
X-2436448Y6956746D01*
X-2528217Y6975000D01*
X-2621783Y6975000D01*
X-2713552Y6956746D01*
X-2799997Y6920939D01*
X-2877795Y6868956D01*
X-2943956Y6802795D01*
X-2995939Y6724997D01*
X-3031746Y6638552D01*
X-3050000Y6546783D01*
X-6934973Y6546783D01*
X-6903420Y6640276D01*
X-7620000Y7356856D01*
X-8336580Y6640276D01*
X-8770000Y6640276D01*
X-8770000Y6954261D01*
X-8589724Y6893420D01*
X-7873144Y7610000D01*
X-7366856Y7610000D01*
X-6650276Y6893420D01*
X-6431025Y6967415D01*
X-6328509Y7211719D01*
X-6275624Y7471330D01*
X-6274403Y7736269D01*
X-6324892Y7996356D01*
X-6380944Y8133464D01*
X-1055000Y8133464D01*
X-1055000Y8039898D01*
X-1036746Y7948129D01*
X-1000939Y7861684D01*
X-948956Y7783886D01*
X-882795Y7717725D01*
X-804997Y7665742D01*
X-718552Y7629935D01*
X-626783Y7611681D01*
X-533217Y7611681D01*
X-441448Y7629935D01*
X-355003Y7665742D01*
X-277205Y7717725D01*
X-211044Y7783886D01*
X-159061Y7861684D01*
X-123254Y7948129D01*
X-105000Y8039898D01*
X-105000Y8121783D01*
X75000Y8121783D01*
X75000Y8028217D01*
X93254Y7936448D01*
X129061Y7850003D01*
X181044Y7772205D01*
X247205Y7706044D01*
X306166Y7666648D01*
X272205Y7643956D01*
X206044Y7577795D01*
X154061Y7499997D01*
X118254Y7413552D01*
X100000Y7321783D01*
X100000Y7228217D01*
X118254Y7136448D01*
X154061Y7050003D01*
X206044Y6972205D01*
X272205Y6906044D01*
X350003Y6854061D01*
X436448Y6818254D01*
X528217Y6800000D01*
X621783Y6800000D01*
X713552Y6818254D01*
X799997Y6854061D01*
X863934Y6896783D01*
X1925000Y6896783D01*
X1925000Y6803217D01*
X1943254Y6711448D01*
X1979061Y6625003D01*
X2031044Y6547205D01*
X2097205Y6481044D01*
X2175003Y6429061D01*
X2261448Y6393254D01*
X2353217Y6375000D01*
X2446783Y6375000D01*
X2479325Y6381473D01*
X2493254Y6311448D01*
X2529061Y6225003D01*
X2581044Y6147205D01*
X2647205Y6081044D01*
X2725003Y6029061D01*
X2811448Y5993254D01*
X2903217Y5975000D01*
X2996783Y5975000D01*
X3088552Y5993254D01*
X3174997Y6029061D01*
X3252795Y6081044D01*
X3318956Y6147205D01*
X3370939Y6225003D01*
X3406746Y6311448D01*
X3425000Y6403217D01*
X3425000Y6420162D01*
X3454061Y6350003D01*
X3506044Y6272205D01*
X3572205Y6206044D01*
X3650003Y6154061D01*
X3736448Y6118254D01*
X3828217Y6100000D01*
X3921783Y6100000D01*
X4013552Y6118254D01*
X4099997Y6154061D01*
X4177795Y6206044D01*
X4243956Y6272205D01*
X4295939Y6350003D01*
X4331746Y6436448D01*
X4350000Y6528217D01*
X4350000Y6621783D01*
X4331746Y6713552D01*
X4295939Y6799997D01*
X4243956Y6877795D01*
X4177795Y6943956D01*
X4099997Y6995939D01*
X4013552Y7031746D01*
X3921783Y7050000D01*
X3828217Y7050000D01*
X3736448Y7031746D01*
X3650003Y6995939D01*
X3572205Y6943956D01*
X3506044Y6877795D01*
X3454061Y6799997D01*
X3418254Y6713552D01*
X3400000Y6621783D01*
X3400000Y6604838D01*
X3370939Y6674997D01*
X3318956Y6752795D01*
X3252795Y6818956D01*
X3174997Y6870939D01*
X3088552Y6906746D01*
X2996783Y6925000D01*
X2903217Y6925000D01*
X2870675Y6918527D01*
X2856746Y6988552D01*
X2820939Y7074997D01*
X2768956Y7152795D01*
X2702795Y7218956D01*
X2624997Y7270939D01*
X2538552Y7306746D01*
X2446783Y7325000D01*
X2353217Y7325000D01*
X2261448Y7306746D01*
X2175003Y7270939D01*
X2097205Y7218956D01*
X2031044Y7152795D01*
X1979061Y7074997D01*
X1943254Y6988552D01*
X1925000Y6896783D01*
X863934Y6896783D01*
X877795Y6906044D01*
X943956Y6972205D01*
X995939Y7050003D01*
X1031746Y7136448D01*
X1050000Y7228217D01*
X1050000Y7321783D01*
X1031746Y7413552D01*
X995939Y7499997D01*
X943956Y7577795D01*
X877795Y7643956D01*
X818834Y7683352D01*
X852795Y7706044D01*
X918956Y7772205D01*
X970939Y7850003D01*
X1006746Y7936448D01*
X1025000Y8028217D01*
X1025000Y8121783D01*
X1006746Y8213552D01*
X970939Y8299997D01*
X918956Y8377795D01*
X852795Y8443956D01*
X774997Y8495939D01*
X772960Y8496783D01*
X2550000Y8496783D01*
X2550000Y8403217D01*
X2568254Y8311448D01*
X2604061Y8225003D01*
X2656044Y8147205D01*
X2722205Y8081044D01*
X2800003Y8029061D01*
X2886448Y7993254D01*
X2978217Y7975000D01*
X3071783Y7975000D01*
X3163552Y7993254D01*
X3249997Y8029061D01*
X3313934Y8071783D01*
X4850000Y8071783D01*
X4850000Y7978217D01*
X4868254Y7886448D01*
X4904061Y7800003D01*
X4956044Y7722205D01*
X5022205Y7656044D01*
X5100003Y7604061D01*
X5186448Y7568254D01*
X5278217Y7550000D01*
X5371783Y7550000D01*
X5463552Y7568254D01*
X5549997Y7604061D01*
X5627795Y7656044D01*
X5678962Y7707211D01*
X6633000Y7707211D01*
X6633000Y7512789D01*
X6670930Y7322103D01*
X6745332Y7142480D01*
X6853347Y6980824D01*
X6990824Y6843347D01*
X7152480Y6735332D01*
X7332103Y6660930D01*
X7522789Y6623000D01*
X7717211Y6623000D01*
X7907897Y6660930D01*
X8087520Y6735332D01*
X8249176Y6843347D01*
X8386653Y6980824D01*
X8494668Y7142480D01*
X8569070Y7322103D01*
X8607000Y7512789D01*
X8607000Y7707211D01*
X8569070Y7897897D01*
X8494668Y8077520D01*
X8386653Y8239176D01*
X8249176Y8376653D01*
X8087520Y8484668D01*
X7907897Y8559070D01*
X7717211Y8597000D01*
X7522789Y8597000D01*
X7332103Y8559070D01*
X7152480Y8484668D01*
X6990824Y8376653D01*
X6853347Y8239176D01*
X6745332Y8077520D01*
X6670930Y7897897D01*
X6633000Y7707211D01*
X5678962Y7707211D01*
X5693956Y7722205D01*
X5745939Y7800003D01*
X5781746Y7886448D01*
X5800000Y7978217D01*
X5800000Y8071783D01*
X5781746Y8163552D01*
X5745939Y8249997D01*
X5693956Y8327795D01*
X5627795Y8393956D01*
X5549997Y8445939D01*
X5463552Y8481746D01*
X5371783Y8500000D01*
X5278217Y8500000D01*
X5186448Y8481746D01*
X5100003Y8445939D01*
X5022205Y8393956D01*
X4956044Y8327795D01*
X4904061Y8249997D01*
X4868254Y8163552D01*
X4850000Y8071783D01*
X3313934Y8071783D01*
X3327795Y8081044D01*
X3393956Y8147205D01*
X3445939Y8225003D01*
X3481746Y8311448D01*
X3500000Y8403217D01*
X3500000Y8496783D01*
X3481746Y8588552D01*
X3445939Y8674997D01*
X3393956Y8752795D01*
X3327795Y8818956D01*
X3249997Y8870939D01*
X3163552Y8906746D01*
X3071783Y8925000D01*
X2978217Y8925000D01*
X2886448Y8906746D01*
X2800003Y8870939D01*
X2722205Y8818956D01*
X2656044Y8752795D01*
X2604061Y8674997D01*
X2568254Y8588552D01*
X2550000Y8496783D01*
X772960Y8496783D01*
X688552Y8531746D01*
X596783Y8550000D01*
X503217Y8550000D01*
X411448Y8531746D01*
X325003Y8495939D01*
X247205Y8443956D01*
X181044Y8377795D01*
X129061Y8299997D01*
X93254Y8213552D01*
X75000Y8121783D01*
X-105000Y8121783D01*
X-105000Y8133464D01*
X-123254Y8225233D01*
X-159061Y8311678D01*
X-211044Y8389476D01*
X-277205Y8455637D01*
X-355003Y8507620D01*
X-441448Y8543427D01*
X-533217Y8561681D01*
X-626783Y8561681D01*
X-718552Y8543427D01*
X-804997Y8507620D01*
X-882795Y8455637D01*
X-948956Y8389476D01*
X-1000939Y8311678D01*
X-1036746Y8225233D01*
X-1055000Y8133464D01*
X-6380944Y8133464D01*
X-6425151Y8241596D01*
X-6431025Y8252585D01*
X-6650276Y8326580D01*
X-7366856Y7610000D01*
X-7873144Y7610000D01*
X-8589724Y8326580D01*
X-8770000Y8265739D01*
X-8770000Y8579724D01*
X-8336580Y8579724D01*
X-7620000Y7863144D01*
X-6903420Y8579724D01*
X-6977415Y8798975D01*
X-7221719Y8901491D01*
X-7481330Y8954376D01*
X-7746269Y8955597D01*
X-8006356Y8905108D01*
X-8251596Y8804849D01*
X-8262585Y8798975D01*
X-8336580Y8579724D01*
X-8770000Y8579724D01*
X-8770000Y9014283D01*
X-5167500Y9014283D01*
X-5167500Y8920717D01*
X-5149246Y8828948D01*
X-5113439Y8742503D01*
X-5061456Y8664705D01*
X-4995295Y8598544D01*
X-4917497Y8546561D01*
X-4831052Y8510754D01*
X-4739283Y8492500D01*
X-4645717Y8492500D01*
X-4553948Y8510754D01*
X-4467503Y8546561D01*
X-4389705Y8598544D01*
X-4323544Y8664705D01*
X-4271561Y8742503D01*
X-4235754Y8828948D01*
X-4217500Y8920717D01*
X-4217500Y9014283D01*
X-4235754Y9106052D01*
X-4271561Y9192497D01*
X-4323544Y9270295D01*
X-4389705Y9336456D01*
X-4467503Y9388439D01*
X-4553948Y9424246D01*
X-4645717Y9442500D01*
X-4739283Y9442500D01*
X-4831052Y9424246D01*
X-4917497Y9388439D01*
X-4995295Y9336456D01*
X-5061456Y9270295D01*
X-5113439Y9192497D01*
X-5149246Y9106052D01*
X-5167500Y9014283D01*
X-8770000Y9014283D01*
X-8770000Y10247211D01*
X-8607000Y10247211D01*
X-8607000Y10052789D01*
X-8569070Y9862103D01*
X-8494668Y9682480D01*
X-8386653Y9520824D01*
X-8249176Y9383347D01*
X-8087520Y9275332D01*
X-7907897Y9200930D01*
X-7717211Y9163000D01*
X-7522789Y9163000D01*
X-7332103Y9200930D01*
X-7152480Y9275332D01*
X-6990824Y9383347D01*
X-6853347Y9520824D01*
X-6745332Y9682480D01*
X-6718697Y9746783D01*
X-3000000Y9746783D01*
X-3000000Y9653217D01*
X-2981746Y9561448D01*
X-2945939Y9475003D01*
X-2893956Y9397205D01*
X-2827795Y9331044D01*
X-2749997Y9279061D01*
X-2663552Y9243254D01*
X-2571783Y9225000D01*
X-2478217Y9225000D01*
X-2386448Y9243254D01*
X-2300003Y9279061D01*
X-2222205Y9331044D01*
X-2156044Y9397205D01*
X-2104061Y9475003D01*
X-2068254Y9561448D01*
X-2050000Y9653217D01*
X-2050000Y9746783D01*
X-2067902Y9836783D01*
X-1395000Y9836783D01*
X-1395000Y9743217D01*
X-1376746Y9651448D01*
X-1340939Y9565003D01*
X-1288956Y9487205D01*
X-1222795Y9421044D01*
X-1144997Y9369061D01*
X-1058552Y9333254D01*
X-966783Y9315000D01*
X-873217Y9315000D01*
X-781448Y9333254D01*
X-695003Y9369061D01*
X-617205Y9421044D01*
X-551044Y9487205D01*
X-544645Y9496783D01*
X-225000Y9496783D01*
X-225000Y9403217D01*
X-206746Y9311448D01*
X-170939Y9225003D01*
X-118956Y9147205D01*
X-52795Y9081044D01*
X25003Y9029061D01*
X111448Y8993254D01*
X203217Y8975000D01*
X296783Y8975000D01*
X388552Y8993254D01*
X474997Y9029061D01*
X552795Y9081044D01*
X618956Y9147205D01*
X641053Y9180276D01*
X6903420Y9180276D01*
X6977415Y8961025D01*
X7221719Y8858509D01*
X7481330Y8805624D01*
X7746269Y8804403D01*
X8006356Y8854892D01*
X8251596Y8955151D01*
X8262585Y8961025D01*
X8336580Y9180276D01*
X7620000Y9896856D01*
X6903420Y9180276D01*
X641053Y9180276D01*
X670939Y9225003D01*
X706746Y9311448D01*
X725000Y9403217D01*
X725000Y9496783D01*
X706746Y9588552D01*
X670939Y9674997D01*
X622974Y9746783D01*
X2050000Y9746783D01*
X2050000Y9653217D01*
X2068254Y9561448D01*
X2104061Y9475003D01*
X2156044Y9397205D01*
X2222205Y9331044D01*
X2300003Y9279061D01*
X2386448Y9243254D01*
X2478217Y9225000D01*
X2571783Y9225000D01*
X2663552Y9243254D01*
X2749997Y9279061D01*
X2827795Y9331044D01*
X2893956Y9397205D01*
X2945939Y9475003D01*
X2981746Y9561448D01*
X3000000Y9653217D01*
X3000000Y9746783D01*
X2981746Y9838552D01*
X2945939Y9924997D01*
X2893956Y10002795D01*
X2873020Y10023731D01*
X6274403Y10023731D01*
X6324892Y9763644D01*
X6425151Y9518404D01*
X6431025Y9507415D01*
X6650276Y9433420D01*
X7366856Y10150000D01*
X6650276Y10866580D01*
X6431025Y10792585D01*
X6328509Y10548281D01*
X6275624Y10288670D01*
X6274403Y10023731D01*
X2873020Y10023731D01*
X2827795Y10068956D01*
X2749997Y10120939D01*
X2663552Y10156746D01*
X2571783Y10175000D01*
X2478217Y10175000D01*
X2386448Y10156746D01*
X2300003Y10120939D01*
X2222205Y10068956D01*
X2156044Y10002795D01*
X2104061Y9924997D01*
X2068254Y9838552D01*
X2050000Y9746783D01*
X622974Y9746783D01*
X618956Y9752795D01*
X552795Y9818956D01*
X474997Y9870939D01*
X388552Y9906746D01*
X296783Y9925000D01*
X203217Y9925000D01*
X111448Y9906746D01*
X25003Y9870939D01*
X-52795Y9818956D01*
X-118956Y9752795D01*
X-170939Y9674997D01*
X-206746Y9588552D01*
X-225000Y9496783D01*
X-544645Y9496783D01*
X-499061Y9565003D01*
X-463254Y9651448D01*
X-445000Y9743217D01*
X-445000Y9836783D01*
X-463254Y9928552D01*
X-499061Y10014997D01*
X-551044Y10092795D01*
X-617205Y10158956D01*
X-695003Y10210939D01*
X-781448Y10246746D01*
X-873217Y10265000D01*
X-966783Y10265000D01*
X-1058552Y10246746D01*
X-1144997Y10210939D01*
X-1222795Y10158956D01*
X-1288956Y10092795D01*
X-1340939Y10014997D01*
X-1376746Y9928552D01*
X-1395000Y9836783D01*
X-2067902Y9836783D01*
X-2068254Y9838552D01*
X-2104061Y9924997D01*
X-2156044Y10002795D01*
X-2222205Y10068956D01*
X-2300003Y10120939D01*
X-2386448Y10156746D01*
X-2478217Y10175000D01*
X-2571783Y10175000D01*
X-2663552Y10156746D01*
X-2749997Y10120939D01*
X-2827795Y10068956D01*
X-2893956Y10002795D01*
X-2945939Y9924997D01*
X-2981746Y9838552D01*
X-3000000Y9746783D01*
X-6718697Y9746783D01*
X-6670930Y9862103D01*
X-6633000Y10052789D01*
X-6633000Y10247211D01*
X-6670930Y10437897D01*
X-6745332Y10617520D01*
X-6853347Y10779176D01*
X-6990824Y10916653D01*
X-7152480Y11024668D01*
X-7332103Y11099070D01*
X-7522789Y11137000D01*
X-7717211Y11137000D01*
X-7907897Y11099070D01*
X-8087520Y11024668D01*
X-8249176Y10916653D01*
X-8386653Y10779176D01*
X-8494668Y10617520D01*
X-8569070Y10437897D01*
X-8607000Y10247211D01*
X-8770000Y10247211D01*
X-8770000Y12787211D01*
X-8607000Y12787211D01*
X-8607000Y12592789D01*
X-8569070Y12402103D01*
X-8494668Y12222480D01*
X-8386653Y12060824D01*
X-8249176Y11923347D01*
X-8087520Y11815332D01*
X-7907897Y11740930D01*
X-7717211Y11703000D01*
X-7522789Y11703000D01*
X-7332103Y11740930D01*
X-7152480Y11815332D01*
X-6990824Y11923347D01*
X-6853347Y12060824D01*
X-6745332Y12222480D01*
X-6670930Y12402103D01*
X-6633000Y12592789D01*
X-6633000Y12787211D01*
X-6670930Y12977897D01*
X-6745332Y13157520D01*
X-6853347Y13319176D01*
X-6990824Y13456653D01*
X-7152480Y13564668D01*
X-7332103Y13639070D01*
X-7522789Y13677000D01*
X-7717211Y13677000D01*
X-7907897Y13639070D01*
X-8087520Y13564668D01*
X-8249176Y13456653D01*
X-8386653Y13319176D01*
X-8494668Y13157520D01*
X-8569070Y12977897D01*
X-8607000Y12787211D01*
X-8770000Y12787211D01*
X-8770000Y14260276D01*
X-8336580Y14260276D01*
X-8262585Y14041025D01*
X-8018281Y13938509D01*
X-7758670Y13885624D01*
X-7493731Y13884403D01*
X-7233644Y13934892D01*
X-6988404Y14035151D01*
X-6977415Y14041025D01*
X-6903420Y14260276D01*
X-7620000Y14976856D01*
X-8336580Y14260276D01*
X-8770000Y14260276D01*
X-8770000Y14574261D01*
X-8589724Y14513420D01*
X-7873144Y15230000D01*
X-7887287Y15244143D01*
X-7634143Y15497287D01*
X-7620000Y15483144D01*
X-6903420Y16199724D01*
X-6971011Y16400000D01*
X-6162624Y16400000D01*
X-6180731Y16377936D01*
%TA.AperFunction,Conductor*%
D17*
G36*
X-6180731Y16377936D02*
G01*
X-6248053Y16251987D01*
X-6289509Y16115324D01*
X-6300000Y16008806D01*
X-6300000Y15488126D01*
X-6324892Y15616356D01*
X-6425151Y15861596D01*
X-6431025Y15872585D01*
X-6650276Y15946580D01*
X-7366856Y15230000D01*
X-6650276Y14513420D01*
X-6431025Y14587415D01*
X-6328509Y14831719D01*
X-6299999Y14971673D01*
X-6299999Y14737593D01*
X-6289508Y14631075D01*
X-6248052Y14494412D01*
X-6180730Y14368463D01*
X-6090131Y14258068D01*
X-5979736Y14167469D01*
X-5853787Y14100147D01*
X-5717124Y14058691D01*
X-5575000Y14044693D01*
X-5432875Y14058691D01*
X-5296212Y14100147D01*
X-5170263Y14167469D01*
X-5059868Y14258068D01*
X-4969269Y14368463D01*
X-4901947Y14494412D01*
X-4860491Y14631075D01*
X-4850000Y14737593D01*
X-4849999Y12062284D01*
X-4850000Y12062274D01*
X-4850000Y11908807D01*
X-4860491Y12015325D01*
X-4901947Y12151988D01*
X-4969269Y12277937D01*
X-5059869Y12388332D01*
X-5170264Y12478931D01*
X-5296213Y12546253D01*
X-5432876Y12587709D01*
X-5575000Y12601707D01*
X-5717125Y12587709D01*
X-5853788Y12546253D01*
X-5979737Y12478931D01*
X-6090132Y12388331D01*
X-6180731Y12277936D01*
X-6248053Y12151987D01*
X-6289509Y12015324D01*
X-6300000Y11908806D01*
X-6300000Y11037593D01*
X-6289509Y10931075D01*
X-6248052Y10794412D01*
X-6180730Y10668463D01*
X-6090131Y10558068D01*
X-5979736Y10467469D01*
X-5853787Y10400147D01*
X-5717124Y10358691D01*
X-5575000Y10344693D01*
X-5432875Y10358691D01*
X-5296212Y10400147D01*
X-5170263Y10467469D01*
X-5059868Y10558068D01*
X-4969269Y10668463D01*
X-4901947Y10794412D01*
X-4860491Y10931075D01*
X-4850000Y11037593D01*
X-4850000Y11137726D01*
X-4846382Y11100992D01*
X-4832087Y11053866D01*
X-4808873Y11010436D01*
X-4777632Y10972368D01*
X-4739564Y10941127D01*
X-4696134Y10917913D01*
X-4649008Y10903618D01*
X-4612275Y10900000D01*
X-4600000Y10898791D01*
X-4587725Y10900000D01*
X4587725Y10900000D01*
X4600000Y10898791D01*
X4612275Y10900000D01*
X4649008Y10903618D01*
X4696134Y10917913D01*
X4739564Y10941127D01*
X4777632Y10972368D01*
X4808873Y11010436D01*
X4832087Y11053866D01*
X4846382Y11100992D01*
X4850600Y11143817D01*
X4850600Y11037593D01*
X4861091Y10931075D01*
X4902548Y10794412D01*
X4969870Y10668463D01*
X5060469Y10558068D01*
X5170864Y10467469D01*
X5296813Y10400147D01*
X5433476Y10358691D01*
X5575600Y10344693D01*
X5717725Y10358691D01*
X5854388Y10400147D01*
X5980337Y10467469D01*
X6090732Y10558068D01*
X6181331Y10668463D01*
X6248653Y10794412D01*
X6290109Y10931075D01*
X6300600Y11037593D01*
X6300600Y11119724D01*
X6903420Y11119724D01*
X7620000Y10403144D01*
X8336580Y11119724D01*
X8262585Y11338975D01*
X8018281Y11441491D01*
X7758670Y11494376D01*
X7493731Y11495597D01*
X7233644Y11445108D01*
X6988404Y11344849D01*
X6977415Y11338975D01*
X6903420Y11119724D01*
X6300600Y11119724D01*
X6300600Y11908807D01*
X6290109Y12015325D01*
X6248653Y12151988D01*
X6181331Y12277937D01*
X6090731Y12388332D01*
X5980336Y12478931D01*
X5854387Y12546253D01*
X5717724Y12587709D01*
X5575600Y12601707D01*
X5433475Y12587709D01*
X5296812Y12546253D01*
X5170863Y12478931D01*
X5060468Y12388331D01*
X4969869Y12277936D01*
X4902547Y12151987D01*
X4861091Y12015324D01*
X4850600Y11908806D01*
X4850600Y11156183D01*
X4850000Y11162275D01*
X4850000Y12787211D01*
X6633000Y12787211D01*
X6633000Y12592789D01*
X6670930Y12402103D01*
X6745332Y12222480D01*
X6853347Y12060824D01*
X6990824Y11923347D01*
X7152480Y11815332D01*
X7332103Y11740930D01*
X7522789Y11703000D01*
X7717211Y11703000D01*
X7907897Y11740930D01*
X8087520Y11815332D01*
X8249176Y11923347D01*
X8386653Y12060824D01*
X8494668Y12222480D01*
X8569070Y12402103D01*
X8607000Y12592789D01*
X8607000Y12787211D01*
X8569070Y12977897D01*
X8494668Y13157520D01*
X8386653Y13319176D01*
X8249176Y13456653D01*
X8087520Y13564668D01*
X7907897Y13639070D01*
X7717211Y13677000D01*
X7522789Y13677000D01*
X7332103Y13639070D01*
X7152480Y13564668D01*
X6990824Y13456653D01*
X6853347Y13319176D01*
X6745332Y13157520D01*
X6670930Y12977897D01*
X6633000Y12787211D01*
X4850000Y12787211D01*
X4850000Y16400000D01*
X4987976Y16400000D01*
X4969869Y16377936D01*
X4902547Y16251987D01*
X4861091Y16115324D01*
X4850600Y16008806D01*
X4850601Y14737593D01*
X4861092Y14631075D01*
X4902548Y14494412D01*
X4969870Y14368463D01*
X5060469Y14258068D01*
X5170864Y14167469D01*
X5296813Y14100147D01*
X5433476Y14058691D01*
X5575600Y14044693D01*
X5717725Y14058691D01*
X5854388Y14100147D01*
X5980337Y14167469D01*
X6090732Y14258068D01*
X6181331Y14368463D01*
X6248653Y14494412D01*
X6290109Y14631075D01*
X6300600Y14737593D01*
X6300600Y15327211D01*
X6633000Y15327211D01*
X6633000Y15132789D01*
X6670930Y14942103D01*
X6745332Y14762480D01*
X6853347Y14600824D01*
X6990824Y14463347D01*
X7152480Y14355332D01*
X7332103Y14280930D01*
X7522789Y14243000D01*
X7717211Y14243000D01*
X7907897Y14280930D01*
X8087520Y14355332D01*
X8249176Y14463347D01*
X8386653Y14600824D01*
X8494668Y14762480D01*
X8569070Y14942103D01*
X8607000Y15132789D01*
X8607000Y15327211D01*
X8569070Y15517897D01*
X8494668Y15697520D01*
X8386653Y15859176D01*
X8249176Y15996653D01*
X8087520Y16104668D01*
X7907897Y16179070D01*
X7717211Y16217000D01*
X7522789Y16217000D01*
X7332103Y16179070D01*
X7152480Y16104668D01*
X6990824Y15996653D01*
X6853347Y15859176D01*
X6745332Y15697520D01*
X6670930Y15517897D01*
X6633000Y15327211D01*
X6300600Y15327211D01*
X6300600Y16008807D01*
X6290109Y16115325D01*
X6248653Y16251988D01*
X6181331Y16377937D01*
X6163224Y16400000D01*
X7607771Y16400000D01*
X7843137Y16376922D01*
X8057775Y16312119D01*
X8255739Y16206860D01*
X8429485Y16065156D01*
X8572399Y15892402D01*
X8679036Y15695181D01*
X8745338Y15480994D01*
X8770000Y15246352D01*
X8770000Y10805739D01*
X8589724Y10866580D01*
X7873144Y10150000D01*
X8589724Y9433420D01*
X8770000Y9494261D01*
X8770001Y1987725D01*
X8770086Y1986863D01*
X8770102Y1984563D01*
X8771289Y1973274D01*
X8771289Y1961923D01*
X8771654Y1958451D01*
X8792973Y1768381D01*
X8795000Y1758844D01*
X8795000Y892767D01*
X8793254Y888552D01*
X8775000Y796783D01*
X8775000Y703217D01*
X8793254Y611448D01*
X8795000Y607233D01*
X8795000Y142767D01*
X8793254Y138552D01*
X8775000Y46783D01*
X8775000Y-46783D01*
X8793254Y-138552D01*
X8795000Y-142767D01*
X8795000Y-607233D01*
X8793254Y-611448D01*
X8775000Y-703217D01*
X8775000Y-796783D01*
X8793254Y-888552D01*
X8795000Y-892767D01*
X8795000Y-1759280D01*
X8794935Y-1759610D01*
X8790222Y-1781782D01*
X8789857Y-1785254D01*
X8771193Y-1975604D01*
X8771193Y-1975614D01*
X8770000Y-1987726D01*
X8770001Y-11325000D01*
X5875000Y-11325000D01*
X5875000Y-10072789D01*
X6633000Y-10072789D01*
X6633000Y-10267211D01*
X6670930Y-10457897D01*
X6745332Y-10637520D01*
X6853347Y-10799176D01*
X6990824Y-10936653D01*
X7152480Y-11044668D01*
X7332103Y-11119070D01*
X7522789Y-11157000D01*
X7717211Y-11157000D01*
X7907897Y-11119070D01*
X8087520Y-11044668D01*
X8249176Y-10936653D01*
X8386653Y-10799176D01*
X8494668Y-10637520D01*
X8569070Y-10457897D01*
X8607000Y-10267211D01*
X8607000Y-10072789D01*
X8569070Y-9882103D01*
X8494668Y-9702480D01*
X8386653Y-9540824D01*
X8249176Y-9403347D01*
X8087520Y-9295332D01*
X7907897Y-9220930D01*
X7717211Y-9183000D01*
X7522789Y-9183000D01*
X7332103Y-9220930D01*
X7152480Y-9295332D01*
X6990824Y-9403347D01*
X6853347Y-9540824D01*
X6745332Y-9702480D01*
X6670930Y-9882103D01*
X6633000Y-10072789D01*
X5875000Y-10072789D01*
X5875000Y-8546751D01*
X5918956Y-8502795D01*
X5970939Y-8424997D01*
X6006746Y-8338552D01*
X6025000Y-8246783D01*
X6025000Y-8153217D01*
X6006746Y-8061448D01*
X5970939Y-7975003D01*
X5918956Y-7897205D01*
X5875000Y-7853249D01*
X5875000Y-7532789D01*
X6633000Y-7532789D01*
X6633000Y-7727211D01*
X6670930Y-7917897D01*
X6745332Y-8097520D01*
X6853347Y-8259176D01*
X6990824Y-8396653D01*
X7152480Y-8504668D01*
X7332103Y-8579070D01*
X7522789Y-8617000D01*
X7717211Y-8617000D01*
X7907897Y-8579070D01*
X8087520Y-8504668D01*
X8249176Y-8396653D01*
X8386653Y-8259176D01*
X8494668Y-8097520D01*
X8569070Y-7917897D01*
X8607000Y-7727211D01*
X8607000Y-7532789D01*
X8569070Y-7342103D01*
X8494668Y-7162480D01*
X8386653Y-7000824D01*
X8249176Y-6863347D01*
X8087520Y-6755332D01*
X7907897Y-6680930D01*
X7717211Y-6643000D01*
X7522789Y-6643000D01*
X7332103Y-6680930D01*
X7152480Y-6755332D01*
X6990824Y-6863347D01*
X6853347Y-7000824D01*
X6745332Y-7162480D01*
X6670930Y-7342103D01*
X6633000Y-7532789D01*
X5875000Y-7532789D01*
X5875000Y-7500000D01*
X5873559Y-7485368D01*
X5869291Y-7471299D01*
X5862360Y-7458332D01*
X5853033Y-7446967D01*
X5841668Y-7437640D01*
X5828701Y-7430709D01*
X5814632Y-7426441D01*
X5800000Y-7425000D01*
X3062528Y-7425000D01*
X3043956Y-7397205D01*
X2984251Y-7337500D01*
X3043956Y-7277795D01*
X3095939Y-7199997D01*
X3131746Y-7113552D01*
X3150000Y-7021783D01*
X3150000Y-6928217D01*
X3135082Y-6853217D01*
X3255000Y-6853217D01*
X3255000Y-6946783D01*
X3273254Y-7038552D01*
X3309061Y-7124997D01*
X3361044Y-7202795D01*
X3427205Y-7268956D01*
X3505003Y-7320939D01*
X3591448Y-7356746D01*
X3683217Y-7375000D01*
X3776783Y-7375000D01*
X3868552Y-7356746D01*
X3954997Y-7320939D01*
X4032795Y-7268956D01*
X4098956Y-7202795D01*
X4150939Y-7124997D01*
X4186746Y-7038552D01*
X4205000Y-6946783D01*
X4205000Y-6853217D01*
X4186746Y-6761448D01*
X4150939Y-6675003D01*
X4098956Y-6597205D01*
X4032795Y-6531044D01*
X3954997Y-6479061D01*
X3868552Y-6443254D01*
X3776783Y-6425000D01*
X3846783Y-6425000D01*
X3938552Y-6406746D01*
X4024997Y-6370939D01*
X4102795Y-6318956D01*
X4168956Y-6252795D01*
X4220939Y-6174997D01*
X4256746Y-6088552D01*
X4275000Y-5996783D01*
X4275000Y-5903217D01*
X4256746Y-5811448D01*
X4220939Y-5725003D01*
X4168956Y-5647205D01*
X4102795Y-5581044D01*
X4024997Y-5529061D01*
X3954838Y-5500000D01*
X4024997Y-5470939D01*
X4102795Y-5418956D01*
X4168956Y-5352795D01*
X4220939Y-5274997D01*
X4256746Y-5188552D01*
X4275000Y-5096783D01*
X4275000Y-5003217D01*
X4272926Y-4992789D01*
X6633000Y-4992789D01*
X6633000Y-5187211D01*
X6670930Y-5377897D01*
X6745332Y-5557520D01*
X6853347Y-5719176D01*
X6990824Y-5856653D01*
X7152480Y-5964668D01*
X7332103Y-6039070D01*
X7522789Y-6077000D01*
X7717211Y-6077000D01*
X7907897Y-6039070D01*
X8087520Y-5964668D01*
X8249176Y-5856653D01*
X8386653Y-5719176D01*
X8494668Y-5557520D01*
X8569070Y-5377897D01*
X8607000Y-5187211D01*
X8607000Y-4992789D01*
X8569070Y-4802103D01*
X8494668Y-4622480D01*
X8386653Y-4460824D01*
X8249176Y-4323347D01*
X8087520Y-4215332D01*
X7907897Y-4140930D01*
X7717211Y-4103000D01*
X7522789Y-4103000D01*
X7332103Y-4140930D01*
X7152480Y-4215332D01*
X6990824Y-4323347D01*
X6853347Y-4460824D01*
X6745332Y-4622480D01*
X6670930Y-4802103D01*
X6633000Y-4992789D01*
X4272926Y-4992789D01*
X4256746Y-4911448D01*
X4220939Y-4825003D01*
X4168956Y-4747205D01*
X4102795Y-4681044D01*
X4088426Y-4671443D01*
X4149997Y-4645939D01*
X4227795Y-4593956D01*
X4293956Y-4527795D01*
X4345939Y-4449997D01*
X4381746Y-4363552D01*
X4400000Y-4271783D01*
X4400000Y-4178217D01*
X4381746Y-4086448D01*
X4373758Y-4067163D01*
X4424997Y-4045939D01*
X4502795Y-3993956D01*
X4568956Y-3927795D01*
X4620939Y-3849997D01*
X4656746Y-3763552D01*
X4675000Y-3671783D01*
X4675000Y-3578217D01*
X4656746Y-3486448D01*
X4620939Y-3400003D01*
X4568956Y-3322205D01*
X4502795Y-3256044D01*
X4424997Y-3204061D01*
X4338552Y-3168254D01*
X4246783Y-3150000D01*
X4153217Y-3150000D01*
X4061448Y-3168254D01*
X3975003Y-3204061D01*
X3897205Y-3256044D01*
X3831044Y-3322205D01*
X3779061Y-3400003D01*
X3743254Y-3486448D01*
X3725000Y-3578217D01*
X3725000Y-3671783D01*
X3743254Y-3763552D01*
X3751242Y-3782837D01*
X3700003Y-3804061D01*
X3622205Y-3856044D01*
X3556044Y-3922205D01*
X3504061Y-4000003D01*
X3468254Y-4086448D01*
X3450000Y-4178217D01*
X3450000Y-4271783D01*
X3468254Y-4363552D01*
X3504061Y-4449997D01*
X3556044Y-4527795D01*
X3622205Y-4593956D01*
X3636574Y-4603557D01*
X3575003Y-4629061D01*
X3497205Y-4681044D01*
X3431044Y-4747205D01*
X3379061Y-4825003D01*
X3343254Y-4911448D01*
X3325000Y-5003217D01*
X3325000Y-5096783D01*
X3343254Y-5188552D01*
X3379061Y-5274997D01*
X3431044Y-5352795D01*
X3497205Y-5418956D01*
X3575003Y-5470939D01*
X3645162Y-5500000D01*
X3575003Y-5529061D01*
X3497205Y-5581044D01*
X3431044Y-5647205D01*
X3379061Y-5725003D01*
X3343254Y-5811448D01*
X3325000Y-5903217D01*
X3325000Y-5996783D01*
X3343254Y-6088552D01*
X3379061Y-6174997D01*
X3431044Y-6252795D01*
X3497205Y-6318956D01*
X3575003Y-6370939D01*
X3661448Y-6406746D01*
X3753217Y-6425000D01*
X3683217Y-6425000D01*
X3591448Y-6443254D01*
X3505003Y-6479061D01*
X3427205Y-6531044D01*
X3361044Y-6597205D01*
X3309061Y-6675003D01*
X3273254Y-6761448D01*
X3255000Y-6853217D01*
X3135082Y-6853217D01*
X3131746Y-6836448D01*
X3095939Y-6750003D01*
X3043956Y-6672205D01*
X2977795Y-6606044D01*
X2899997Y-6554061D01*
X2813552Y-6518254D01*
X2721783Y-6500000D01*
X2628217Y-6500000D01*
X2536448Y-6518254D01*
X2450003Y-6554061D01*
X2372205Y-6606044D01*
X2306044Y-6672205D01*
X2254061Y-6750003D01*
X2218254Y-6836448D01*
X2200000Y-6928217D01*
X2200000Y-7021783D01*
X2218254Y-7113552D01*
X2254061Y-7199997D01*
X2306044Y-7277795D01*
X2365749Y-7337500D01*
X2306044Y-7397205D01*
X2287472Y-7425000D01*
X1065000Y-7425000D01*
X1065000Y-7353217D01*
X1046746Y-7261448D01*
X1010939Y-7175003D01*
X958956Y-7097205D01*
X892795Y-7031044D01*
X814997Y-6979061D01*
X728552Y-6943254D01*
X636783Y-6925000D01*
X543217Y-6925000D01*
X451448Y-6943254D01*
X365003Y-6979061D01*
X287205Y-7031044D01*
X221044Y-7097205D01*
X169061Y-7175003D01*
X133254Y-7261448D01*
X122000Y-7318027D01*
X106783Y-7315000D01*
X13217Y-7315000D01*
X-78552Y-7333254D01*
X-164997Y-7369061D01*
X-242795Y-7421044D01*
X-308956Y-7487205D01*
X-360939Y-7565003D01*
X-396746Y-7651448D01*
X-415000Y-7743217D01*
X-415000Y-7836783D01*
X-396746Y-7928552D01*
X-360939Y-8014997D01*
X-308956Y-8092795D01*
X-242795Y-8158956D01*
X-164997Y-8210939D01*
X-78552Y-8246746D01*
X-75000Y-8247453D01*
X-75000Y-11325000D01*
X-8770000Y-11325000D01*
X-8770000Y-10072789D01*
X-8607000Y-10072789D01*
X-8607000Y-10267211D01*
X-8569070Y-10457897D01*
X-8494668Y-10637520D01*
X-8386653Y-10799176D01*
X-8249176Y-10936653D01*
X-8087520Y-11044668D01*
X-7907897Y-11119070D01*
X-7717211Y-11157000D01*
X-7522789Y-11157000D01*
X-7332103Y-11119070D01*
X-7152480Y-11044668D01*
X-6990824Y-10936653D01*
X-6853347Y-10799176D01*
X-6745332Y-10637520D01*
X-6670930Y-10457897D01*
X-6655081Y-10378217D01*
X-3175000Y-10378217D01*
X-3175000Y-10471783D01*
X-3156746Y-10563552D01*
X-3120939Y-10649997D01*
X-3068956Y-10727795D01*
X-3002795Y-10793956D01*
X-2924997Y-10845939D01*
X-2838552Y-10881746D01*
X-2746783Y-10900000D01*
X-2653217Y-10900000D01*
X-2561448Y-10881746D01*
X-2475003Y-10845939D01*
X-2397205Y-10793956D01*
X-2331044Y-10727795D01*
X-2279061Y-10649997D01*
X-2243254Y-10563552D01*
X-2241199Y-10553217D01*
X-1425000Y-10553217D01*
X-1425000Y-10646783D01*
X-1406746Y-10738552D01*
X-1370939Y-10824997D01*
X-1318956Y-10902795D01*
X-1252795Y-10968956D01*
X-1174997Y-11020939D01*
X-1088552Y-11056746D01*
X-996783Y-11075000D01*
X-903217Y-11075000D01*
X-811448Y-11056746D01*
X-725003Y-11020939D01*
X-647205Y-10968956D01*
X-581044Y-10902795D01*
X-529061Y-10824997D01*
X-493254Y-10738552D01*
X-475000Y-10646783D01*
X-475000Y-10553217D01*
X-493254Y-10461448D01*
X-529061Y-10375003D01*
X-581044Y-10297205D01*
X-647205Y-10231044D01*
X-725003Y-10179061D01*
X-811448Y-10143254D01*
X-903217Y-10125000D01*
X-996783Y-10125000D01*
X-1088552Y-10143254D01*
X-1174997Y-10179061D01*
X-1252795Y-10231044D01*
X-1318956Y-10297205D01*
X-1370939Y-10375003D01*
X-1406746Y-10461448D01*
X-1425000Y-10553217D01*
X-2241199Y-10553217D01*
X-2225000Y-10471783D01*
X-2225000Y-10378217D01*
X-2243254Y-10286448D01*
X-2279061Y-10200003D01*
X-2331044Y-10122205D01*
X-2397205Y-10056044D01*
X-2475003Y-10004061D01*
X-2561448Y-9968254D01*
X-2653217Y-9950000D01*
X-2746783Y-9950000D01*
X-2838552Y-9968254D01*
X-2924997Y-10004061D01*
X-3002795Y-10056044D01*
X-3068956Y-10122205D01*
X-3120939Y-10200003D01*
X-3156746Y-10286448D01*
X-3175000Y-10378217D01*
X-6655081Y-10378217D01*
X-6633000Y-10267211D01*
X-6633000Y-10072789D01*
X-6670930Y-9882103D01*
X-6745332Y-9702480D01*
X-6853347Y-9540824D01*
X-6990824Y-9403347D01*
X-7152480Y-9295332D01*
X-7332103Y-9220930D01*
X-7522789Y-9183000D01*
X-7717211Y-9183000D01*
X-7907897Y-9220930D01*
X-8087520Y-9295332D01*
X-8249176Y-9403347D01*
X-8386653Y-9540824D01*
X-8494668Y-9702480D01*
X-8569070Y-9882103D01*
X-8607000Y-10072789D01*
X-8770000Y-10072789D01*
X-8770000Y-7532789D01*
X-8607000Y-7532789D01*
X-8607000Y-7727211D01*
X-8569070Y-7917897D01*
X-8494668Y-8097520D01*
X-8386653Y-8259176D01*
X-8249176Y-8396653D01*
X-8087520Y-8504668D01*
X-7907897Y-8579070D01*
X-7717211Y-8617000D01*
X-7522789Y-8617000D01*
X-7403225Y-8593217D01*
X-2735000Y-8593217D01*
X-2735000Y-8686783D01*
X-2716746Y-8778552D01*
X-2680939Y-8864997D01*
X-2628956Y-8942795D01*
X-2562795Y-9008956D01*
X-2484997Y-9060939D01*
X-2398552Y-9096746D01*
X-2306783Y-9115000D01*
X-2213217Y-9115000D01*
X-2121448Y-9096746D01*
X-2035003Y-9060939D01*
X-1957205Y-9008956D01*
X-1891044Y-8942795D01*
X-1887545Y-8937559D01*
X-1843956Y-9002795D01*
X-1777795Y-9068956D01*
X-1699997Y-9120939D01*
X-1613552Y-9156746D01*
X-1521783Y-9175000D01*
X-1428217Y-9175000D01*
X-1336448Y-9156746D01*
X-1250003Y-9120939D01*
X-1172205Y-9068956D01*
X-1106044Y-9002795D01*
X-1054061Y-8924997D01*
X-1018254Y-8838552D01*
X-1000000Y-8746783D01*
X-1000000Y-8653217D01*
X-1018254Y-8561448D01*
X-1054061Y-8475003D01*
X-1106044Y-8397205D01*
X-1172205Y-8331044D01*
X-1250003Y-8279061D01*
X-1336448Y-8243254D01*
X-1428217Y-8225000D01*
X-1521783Y-8225000D01*
X-1613552Y-8243254D01*
X-1699997Y-8279061D01*
X-1777795Y-8331044D01*
X-1843956Y-8397205D01*
X-1847455Y-8402441D01*
X-1891044Y-8337205D01*
X-1957205Y-8271044D01*
X-2035003Y-8219061D01*
X-2121448Y-8183254D01*
X-2213217Y-8165000D01*
X-2306783Y-8165000D01*
X-2398552Y-8183254D01*
X-2484997Y-8219061D01*
X-2562795Y-8271044D01*
X-2628956Y-8337205D01*
X-2680939Y-8415003D01*
X-2716746Y-8501448D01*
X-2735000Y-8593217D01*
X-7403225Y-8593217D01*
X-7332103Y-8579070D01*
X-7152480Y-8504668D01*
X-6990824Y-8396653D01*
X-6853347Y-8259176D01*
X-6745332Y-8097520D01*
X-6706271Y-8003217D01*
X-6550000Y-8003217D01*
X-6550000Y-8096783D01*
X-6531746Y-8188552D01*
X-6495939Y-8274997D01*
X-6443956Y-8352795D01*
X-6377795Y-8418956D01*
X-6299997Y-8470939D01*
X-6213552Y-8506746D01*
X-6121783Y-8525000D01*
X-6028217Y-8525000D01*
X-5936448Y-8506746D01*
X-5850003Y-8470939D01*
X-5772205Y-8418956D01*
X-5706044Y-8352795D01*
X-5654061Y-8274997D01*
X-5618254Y-8188552D01*
X-5600000Y-8096783D01*
X-5600000Y-8003217D01*
X-5618254Y-7911448D01*
X-5654061Y-7825003D01*
X-5706044Y-7747205D01*
X-5772205Y-7681044D01*
X-5850003Y-7629061D01*
X-5936448Y-7593254D01*
X-6028217Y-7575000D01*
X-6121783Y-7575000D01*
X-6213552Y-7593254D01*
X-6299997Y-7629061D01*
X-6377795Y-7681044D01*
X-6443956Y-7747205D01*
X-6495939Y-7825003D01*
X-6531746Y-7911448D01*
X-6550000Y-8003217D01*
X-6706271Y-8003217D01*
X-6670930Y-7917897D01*
X-6633000Y-7727211D01*
X-6633000Y-7553217D01*
X-5375000Y-7553217D01*
X-5375000Y-7646783D01*
X-5356746Y-7738552D01*
X-5320939Y-7824997D01*
X-5268956Y-7902795D01*
X-5202795Y-7968956D01*
X-5124997Y-8020939D01*
X-5038552Y-8056746D01*
X-4946783Y-8075000D01*
X-4853217Y-8075000D01*
X-4761448Y-8056746D01*
X-4675003Y-8020939D01*
X-4597205Y-7968956D01*
X-4531044Y-7902795D01*
X-4479061Y-7824997D01*
X-4443254Y-7738552D01*
X-4425000Y-7646783D01*
X-4425000Y-7553217D01*
X-4443254Y-7461448D01*
X-4479061Y-7375003D01*
X-4531044Y-7297205D01*
X-4597205Y-7231044D01*
X-4675003Y-7179061D01*
X-4761448Y-7143254D01*
X-4853217Y-7125000D01*
X-4946783Y-7125000D01*
X-5038552Y-7143254D01*
X-5124997Y-7179061D01*
X-5202795Y-7231044D01*
X-5268956Y-7297205D01*
X-5320939Y-7375003D01*
X-5356746Y-7461448D01*
X-5375000Y-7553217D01*
X-6633000Y-7553217D01*
X-6633000Y-7532789D01*
X-6670930Y-7342103D01*
X-6745332Y-7162480D01*
X-6853347Y-7000824D01*
X-6990824Y-6863347D01*
X-7152480Y-6755332D01*
X-7332103Y-6680930D01*
X-7522789Y-6643000D01*
X-7717211Y-6643000D01*
X-7907897Y-6680930D01*
X-8087520Y-6755332D01*
X-8249176Y-6863347D01*
X-8386653Y-7000824D01*
X-8494668Y-7162480D01*
X-8569070Y-7342103D01*
X-8607000Y-7532789D01*
X-8770000Y-7532789D01*
X-8770000Y-4992789D01*
X-8607000Y-4992789D01*
X-8607000Y-5187211D01*
X-8569070Y-5377897D01*
X-8494668Y-5557520D01*
X-8386653Y-5719176D01*
X-8249176Y-5856653D01*
X-8087520Y-5964668D01*
X-7907897Y-6039070D01*
X-7717211Y-6077000D01*
X-7522789Y-6077000D01*
X-7332103Y-6039070D01*
X-7152480Y-5964668D01*
X-6990824Y-5856653D01*
X-6853347Y-5719176D01*
X-6745332Y-5557520D01*
X-6670930Y-5377897D01*
X-6633000Y-5187211D01*
X-6633000Y-4992789D01*
X-6670930Y-4802103D01*
X-6745332Y-4622480D01*
X-6853347Y-4460824D01*
X-6860954Y-4453217D01*
X-5275000Y-4453217D01*
X-5275000Y-4546783D01*
X-5256746Y-4638552D01*
X-5220939Y-4724997D01*
X-5168956Y-4802795D01*
X-5102795Y-4868956D01*
X-5024997Y-4920939D01*
X-4938552Y-4956746D01*
X-4906711Y-4963080D01*
X-4926746Y-5011448D01*
X-4945000Y-5103217D01*
X-4945000Y-5196783D01*
X-4926746Y-5288552D01*
X-4890939Y-5374997D01*
X-4838956Y-5452795D01*
X-4772795Y-5518956D01*
X-4694997Y-5570939D01*
X-4665082Y-5583331D01*
X-4678956Y-5597205D01*
X-4730939Y-5675003D01*
X-4766746Y-5761448D01*
X-4785000Y-5853217D01*
X-4785000Y-5946783D01*
X-4766746Y-6038552D01*
X-4730939Y-6124997D01*
X-4678956Y-6202795D01*
X-4612795Y-6268956D01*
X-4534997Y-6320939D01*
X-4448552Y-6356746D01*
X-4356783Y-6375000D01*
X-4265000Y-6375000D01*
X-4265000Y-6436783D01*
X-4255472Y-6484685D01*
X-4298552Y-6493254D01*
X-4384997Y-6529061D01*
X-4462795Y-6581044D01*
X-4528956Y-6647205D01*
X-4580939Y-6725003D01*
X-4616746Y-6811448D01*
X-4635000Y-6903217D01*
X-4635000Y-6996783D01*
X-4616746Y-7088552D01*
X-4580939Y-7174997D01*
X-4528956Y-7252795D01*
X-4462795Y-7318956D01*
X-4384997Y-7370939D01*
X-4350222Y-7385343D01*
X-4381746Y-7461448D01*
X-4400000Y-7553217D01*
X-4400000Y-7646783D01*
X-4381746Y-7738552D01*
X-4345939Y-7824997D01*
X-4293956Y-7902795D01*
X-4227795Y-7968956D01*
X-4149997Y-8020939D01*
X-4063552Y-8056746D01*
X-3971783Y-8075000D01*
X-3878217Y-8075000D01*
X-3786448Y-8056746D01*
X-3700003Y-8020939D01*
X-3622205Y-7968956D01*
X-3556044Y-7902795D01*
X-3504061Y-7824997D01*
X-3468254Y-7738552D01*
X-3450000Y-7646783D01*
X-3450000Y-7628217D01*
X-3075000Y-7628217D01*
X-3075000Y-7721783D01*
X-3056746Y-7813552D01*
X-3020939Y-7899997D01*
X-2968956Y-7977795D01*
X-2902795Y-8043956D01*
X-2824997Y-8095939D01*
X-2738552Y-8131746D01*
X-2646783Y-8150000D01*
X-2553217Y-8150000D01*
X-2461448Y-8131746D01*
X-2375003Y-8095939D01*
X-2297205Y-8043956D01*
X-2231044Y-7977795D01*
X-2179061Y-7899997D01*
X-2143254Y-7813552D01*
X-2125000Y-7721783D01*
X-2125000Y-7628217D01*
X-2143254Y-7536448D01*
X-2179061Y-7450003D01*
X-2231044Y-7372205D01*
X-2297205Y-7306044D01*
X-2375003Y-7254061D01*
X-2461448Y-7218254D01*
X-2553217Y-7200000D01*
X-2646783Y-7200000D01*
X-2738552Y-7218254D01*
X-2824997Y-7254061D01*
X-2902795Y-7306044D01*
X-2968956Y-7372205D01*
X-3020939Y-7450003D01*
X-3056746Y-7536448D01*
X-3075000Y-7628217D01*
X-3450000Y-7628217D01*
X-3450000Y-7553217D01*
X-3468254Y-7461448D01*
X-3504061Y-7375003D01*
X-3556044Y-7297205D01*
X-3622205Y-7231044D01*
X-3700003Y-7179061D01*
X-3734778Y-7164657D01*
X-3703254Y-7088552D01*
X-3685000Y-6996783D01*
X-3685000Y-6903217D01*
X-3694528Y-6855315D01*
X-3651448Y-6846746D01*
X-3565003Y-6810939D01*
X-3487205Y-6758956D01*
X-3421044Y-6692795D01*
X-3369061Y-6614997D01*
X-3333254Y-6528552D01*
X-3315000Y-6436783D01*
X-3315000Y-6343217D01*
X-3333254Y-6251448D01*
X-3369061Y-6165003D01*
X-3421044Y-6087205D01*
X-3487205Y-6021044D01*
X-3565003Y-5969061D01*
X-3651448Y-5933254D01*
X-3743217Y-5915000D01*
X-3835000Y-5915000D01*
X-3835000Y-5885000D01*
X-3753217Y-5885000D01*
X-3661448Y-5866746D01*
X-3575003Y-5830939D01*
X-3497205Y-5778956D01*
X-3431044Y-5712795D01*
X-3379061Y-5634997D01*
X-3343254Y-5548552D01*
X-3325000Y-5456783D01*
X-3325000Y-5363217D01*
X-3343254Y-5271448D01*
X-3379061Y-5185003D01*
X-3431044Y-5107205D01*
X-3497205Y-5041044D01*
X-3575003Y-4989061D01*
X-3661448Y-4953254D01*
X-3753217Y-4935000D01*
X-3846783Y-4935000D01*
X-3938552Y-4953254D01*
X-4022889Y-4988188D01*
X-4049061Y-4925003D01*
X-4101044Y-4847205D01*
X-4167205Y-4781044D01*
X-4245003Y-4729061D01*
X-4331448Y-4693254D01*
X-4363289Y-4686920D01*
X-4343254Y-4638552D01*
X-4325000Y-4546783D01*
X-4325000Y-4453217D01*
X-4333376Y-4411108D01*
X-4311448Y-4406746D01*
X-4225003Y-4370939D01*
X-4147205Y-4318956D01*
X-4081044Y-4252795D01*
X-4029061Y-4174997D01*
X-3993254Y-4088552D01*
X-3975000Y-3996783D01*
X-3975000Y-3903217D01*
X-3993254Y-3811448D01*
X-4029061Y-3725003D01*
X-4081044Y-3647205D01*
X-4147205Y-3581044D01*
X-4188851Y-3553217D01*
X-2875000Y-3553217D01*
X-2875000Y-3646783D01*
X-2856746Y-3738552D01*
X-2820939Y-3824997D01*
X-2768956Y-3902795D01*
X-2702795Y-3968956D01*
X-2624997Y-4020939D01*
X-2538552Y-4056746D01*
X-2446783Y-4075000D01*
X-2353217Y-4075000D01*
X-2261448Y-4056746D01*
X-2175003Y-4020939D01*
X-2097205Y-3968956D01*
X-2031044Y-3902795D01*
X-1979061Y-3824997D01*
X-1943254Y-3738552D01*
X-1925000Y-3646783D01*
X-1925000Y-3553217D01*
X-1943254Y-3461448D01*
X-1979061Y-3375003D01*
X-2031044Y-3297205D01*
X-2097205Y-3231044D01*
X-2138851Y-3203217D01*
X2725000Y-3203217D01*
X2725000Y-3296783D01*
X2743254Y-3388552D01*
X2779061Y-3474997D01*
X2831044Y-3552795D01*
X2897205Y-3618956D01*
X2975003Y-3670939D01*
X3061448Y-3706746D01*
X3153217Y-3725000D01*
X3246783Y-3725000D01*
X3338552Y-3706746D01*
X3424997Y-3670939D01*
X3502795Y-3618956D01*
X3568956Y-3552795D01*
X3620939Y-3474997D01*
X3656746Y-3388552D01*
X3675000Y-3296783D01*
X3675000Y-3203217D01*
X3656746Y-3111448D01*
X3620939Y-3025003D01*
X3568956Y-2947205D01*
X3502795Y-2881044D01*
X3469292Y-2858658D01*
X3499997Y-2845939D01*
X3577795Y-2793956D01*
X3643956Y-2727795D01*
X3695939Y-2649997D01*
X3731746Y-2563552D01*
X3750000Y-2471783D01*
X3750000Y-2452789D01*
X6633000Y-2452789D01*
X6633000Y-2647211D01*
X6670930Y-2837897D01*
X6745332Y-3017520D01*
X6853347Y-3179176D01*
X6990824Y-3316653D01*
X7152480Y-3424668D01*
X7332103Y-3499070D01*
X7522789Y-3537000D01*
X7717211Y-3537000D01*
X7907897Y-3499070D01*
X8087520Y-3424668D01*
X8249176Y-3316653D01*
X8386653Y-3179176D01*
X8494668Y-3017520D01*
X8569070Y-2837897D01*
X8607000Y-2647211D01*
X8607000Y-2452789D01*
X8569070Y-2262103D01*
X8494668Y-2082480D01*
X8386653Y-1920824D01*
X8249176Y-1783347D01*
X8087520Y-1675332D01*
X7907897Y-1600930D01*
X7717211Y-1563000D01*
X7522789Y-1563000D01*
X7332103Y-1600930D01*
X7152480Y-1675332D01*
X6990824Y-1783347D01*
X6853347Y-1920824D01*
X6745332Y-2082480D01*
X6670930Y-2262103D01*
X6633000Y-2452789D01*
X3750000Y-2452789D01*
X3750000Y-2378217D01*
X3731746Y-2286448D01*
X3695939Y-2200003D01*
X3643956Y-2122205D01*
X3577795Y-2056044D01*
X3499997Y-2004061D01*
X3413552Y-1968254D01*
X3321783Y-1950000D01*
X3228217Y-1950000D01*
X3136448Y-1968254D01*
X3050003Y-2004061D01*
X2972205Y-2056044D01*
X2906044Y-2122205D01*
X2854061Y-2200003D01*
X2818254Y-2286448D01*
X2800000Y-2378217D01*
X2800000Y-2471783D01*
X2818254Y-2563552D01*
X2854061Y-2649997D01*
X2906044Y-2727795D01*
X2972205Y-2793956D01*
X3005708Y-2816342D01*
X2975003Y-2829061D01*
X2897205Y-2881044D01*
X2831044Y-2947205D01*
X2779061Y-3025003D01*
X2743254Y-3111448D01*
X2725000Y-3203217D01*
X-2138851Y-3203217D01*
X-2175003Y-3179061D01*
X-2245162Y-3150000D01*
X-2178217Y-3150000D01*
X-2086448Y-3131746D01*
X-2000003Y-3095939D01*
X-1922205Y-3043956D01*
X-1856044Y-2977795D01*
X-1804061Y-2899997D01*
X-1781775Y-2846195D01*
X-1743956Y-2902795D01*
X-1677795Y-2968956D01*
X-1599997Y-3020939D01*
X-1513552Y-3056746D01*
X-1421783Y-3075000D01*
X-1328217Y-3075000D01*
X-1236448Y-3056746D01*
X-1150003Y-3020939D01*
X-1072205Y-2968956D01*
X-1006044Y-2902795D01*
X-954061Y-2824997D01*
X-918254Y-2738552D01*
X-900000Y-2646783D01*
X-900000Y-2643217D01*
X1815000Y-2643217D01*
X1815000Y-2736783D01*
X1833254Y-2828552D01*
X1869061Y-2914997D01*
X1921044Y-2992795D01*
X1987205Y-3058956D01*
X2065003Y-3110939D01*
X2151448Y-3146746D01*
X2243217Y-3165000D01*
X2336783Y-3165000D01*
X2428552Y-3146746D01*
X2514997Y-3110939D01*
X2592795Y-3058956D01*
X2658956Y-2992795D01*
X2710939Y-2914997D01*
X2746746Y-2828552D01*
X2765000Y-2736783D01*
X2765000Y-2643217D01*
X2746746Y-2551448D01*
X2710939Y-2465003D01*
X2658956Y-2387205D01*
X2592795Y-2321044D01*
X2514997Y-2269061D01*
X2428552Y-2233254D01*
X2336783Y-2215000D01*
X2243217Y-2215000D01*
X2151448Y-2233254D01*
X2065003Y-2269061D01*
X1987205Y-2321044D01*
X1921044Y-2387205D01*
X1869061Y-2465003D01*
X1833254Y-2551448D01*
X1815000Y-2643217D01*
X-900000Y-2643217D01*
X-900000Y-2553217D01*
X-918254Y-2461448D01*
X-954061Y-2375003D01*
X-1006044Y-2297205D01*
X-1072205Y-2231044D01*
X-1150003Y-2179061D01*
X-1236448Y-2143254D01*
X-1328217Y-2125000D01*
X-1421783Y-2125000D01*
X-1513552Y-2143254D01*
X-1599997Y-2179061D01*
X-1677795Y-2231044D01*
X-1743956Y-2297205D01*
X-1795939Y-2375003D01*
X-1818225Y-2428805D01*
X-1856044Y-2372205D01*
X-1922205Y-2306044D01*
X-2000003Y-2254061D01*
X-2086448Y-2218254D01*
X-2178217Y-2200000D01*
X-2271783Y-2200000D01*
X-2363552Y-2218254D01*
X-2449997Y-2254061D01*
X-2527795Y-2306044D01*
X-2593956Y-2372205D01*
X-2645939Y-2450003D01*
X-2681746Y-2536448D01*
X-2700000Y-2628217D01*
X-2700000Y-2721783D01*
X-2681746Y-2813552D01*
X-2645939Y-2899997D01*
X-2593956Y-2977795D01*
X-2527795Y-3043956D01*
X-2449997Y-3095939D01*
X-2379838Y-3125000D01*
X-2446783Y-3125000D01*
X-2538552Y-3143254D01*
X-2624997Y-3179061D01*
X-2702795Y-3231044D01*
X-2768956Y-3297205D01*
X-2820939Y-3375003D01*
X-2856746Y-3461448D01*
X-2875000Y-3553217D01*
X-4188851Y-3553217D01*
X-4225003Y-3529061D01*
X-4311448Y-3493254D01*
X-4403217Y-3475000D01*
X-4496783Y-3475000D01*
X-4588552Y-3493254D01*
X-4674997Y-3529061D01*
X-4752795Y-3581044D01*
X-4818956Y-3647205D01*
X-4870939Y-3725003D01*
X-4906746Y-3811448D01*
X-4925000Y-3903217D01*
X-4925000Y-3996783D01*
X-4916624Y-4038892D01*
X-4938552Y-4043254D01*
X-5024997Y-4079061D01*
X-5102795Y-4131044D01*
X-5168956Y-4197205D01*
X-5220939Y-4275003D01*
X-5256746Y-4361448D01*
X-5275000Y-4453217D01*
X-6860954Y-4453217D01*
X-6990824Y-4323347D01*
X-7152480Y-4215332D01*
X-7332103Y-4140930D01*
X-7522789Y-4103000D01*
X-7717211Y-4103000D01*
X-7907897Y-4140930D01*
X-8087520Y-4215332D01*
X-8249176Y-4323347D01*
X-8386653Y-4460824D01*
X-8494668Y-4622480D01*
X-8569070Y-4802103D01*
X-8607000Y-4992789D01*
X-8770000Y-4992789D01*
X-8770000Y-2452789D01*
X-8607000Y-2452789D01*
X-8607000Y-2647211D01*
X-8569070Y-2837897D01*
X-8494668Y-3017520D01*
X-8386653Y-3179176D01*
X-8249176Y-3316653D01*
X-8087520Y-3424668D01*
X-7907897Y-3499070D01*
X-7717211Y-3537000D01*
X-7522789Y-3537000D01*
X-7332103Y-3499070D01*
X-7152480Y-3424668D01*
X-6990824Y-3316653D01*
X-6853347Y-3179176D01*
X-6745332Y-3017520D01*
X-6670930Y-2837897D01*
X-6639168Y-2678217D01*
X-5975000Y-2678217D01*
X-5975000Y-2771783D01*
X-5956746Y-2863552D01*
X-5920939Y-2949997D01*
X-5868956Y-3027795D01*
X-5834251Y-3062500D01*
X-5843956Y-3072205D01*
X-5895939Y-3150003D01*
X-5931746Y-3236448D01*
X-5950000Y-3328217D01*
X-5950000Y-3421783D01*
X-5931746Y-3513552D01*
X-5895939Y-3599997D01*
X-5843956Y-3677795D01*
X-5777795Y-3743956D01*
X-5699997Y-3795939D01*
X-5613552Y-3831746D01*
X-5521783Y-3850000D01*
X-5428217Y-3850000D01*
X-5336448Y-3831746D01*
X-5250003Y-3795939D01*
X-5172205Y-3743956D01*
X-5106044Y-3677795D01*
X-5054061Y-3599997D01*
X-5018254Y-3513552D01*
X-5000000Y-3421783D01*
X-5000000Y-3328217D01*
X-5018254Y-3236448D01*
X-5054061Y-3150003D01*
X-5106044Y-3072205D01*
X-5140749Y-3037500D01*
X-5131044Y-3027795D01*
X-5079061Y-2949997D01*
X-5043254Y-2863552D01*
X-5025000Y-2771783D01*
X-5025000Y-2678217D01*
X-5043254Y-2586448D01*
X-5079061Y-2500003D01*
X-5131044Y-2422205D01*
X-5197205Y-2356044D01*
X-5275003Y-2304061D01*
X-5361448Y-2268254D01*
X-5453217Y-2250000D01*
X-5546783Y-2250000D01*
X-5638552Y-2268254D01*
X-5724997Y-2304061D01*
X-5802795Y-2356044D01*
X-5868956Y-2422205D01*
X-5920939Y-2500003D01*
X-5956746Y-2586448D01*
X-5975000Y-2678217D01*
X-6639168Y-2678217D01*
X-6633000Y-2647211D01*
X-6633000Y-2452789D01*
X-6670930Y-2262103D01*
X-6745332Y-2082480D01*
X-6853347Y-1920824D01*
X-6990824Y-1783347D01*
X-7095781Y-1713217D01*
X-5162500Y-1713217D01*
X-5162500Y-1806783D01*
X-5144246Y-1898552D01*
X-5108439Y-1984997D01*
X-5056456Y-2062795D01*
X-4990295Y-2128956D01*
X-4912497Y-2180939D01*
X-4826052Y-2216746D01*
X-4734283Y-2235000D01*
X-4640717Y-2235000D01*
X-4548948Y-2216746D01*
X-4462503Y-2180939D01*
X-4384705Y-2128956D01*
X-4348750Y-2093001D01*
X-4312795Y-2128956D01*
X-4234997Y-2180939D01*
X-4148552Y-2216746D01*
X-4056783Y-2235000D01*
X-3963217Y-2235000D01*
X-3871448Y-2216746D01*
X-3785003Y-2180939D01*
X-3707205Y-2128956D01*
X-3641044Y-2062795D01*
X-3589061Y-1984997D01*
X-3553254Y-1898552D01*
X-3535000Y-1806783D01*
X-3535000Y-1782453D01*
X-3446783Y-1800000D01*
X-3353217Y-1800000D01*
X-3261448Y-1781746D01*
X-3175003Y-1745939D01*
X-3097205Y-1693956D01*
X-3031044Y-1627795D01*
X-2997918Y-1578217D01*
X-2775000Y-1578217D01*
X-2775000Y-1671783D01*
X-2756746Y-1763552D01*
X-2720939Y-1849997D01*
X-2668956Y-1927795D01*
X-2602795Y-1993956D01*
X-2524997Y-2045939D01*
X-2438552Y-2081746D01*
X-2346783Y-2100000D01*
X-2253217Y-2100000D01*
X-2161448Y-2081746D01*
X-2075003Y-2045939D01*
X-1997205Y-1993956D01*
X-1931044Y-1927795D01*
X-1879061Y-1849997D01*
X-1843254Y-1763552D01*
X-1825000Y-1671783D01*
X-1825000Y-1578217D01*
X-1843254Y-1486448D01*
X-1879061Y-1400003D01*
X-1931044Y-1322205D01*
X-1997205Y-1256044D01*
X-2075003Y-1204061D01*
X-2161448Y-1168254D01*
X-2253217Y-1150000D01*
X-2346783Y-1150000D01*
X-2438552Y-1168254D01*
X-2524997Y-1204061D01*
X-2602795Y-1256044D01*
X-2668956Y-1322205D01*
X-2720939Y-1400003D01*
X-2756746Y-1486448D01*
X-2775000Y-1578217D01*
X-2997918Y-1578217D01*
X-2979061Y-1549997D01*
X-2943254Y-1463552D01*
X-2925000Y-1371783D01*
X-2925000Y-1278217D01*
X-2943254Y-1186448D01*
X-2979061Y-1100003D01*
X-3027026Y-1028217D01*
X-500000Y-1028217D01*
X-500000Y-1121783D01*
X-481746Y-1213552D01*
X-445939Y-1299997D01*
X-393956Y-1377795D01*
X-327795Y-1443956D01*
X-249997Y-1495939D01*
X-163552Y-1531746D01*
X-71783Y-1550000D01*
X21783Y-1550000D01*
X113552Y-1531746D01*
X199997Y-1495939D01*
X277795Y-1443956D01*
X343956Y-1377795D01*
X395939Y-1299997D01*
X425671Y-1228217D01*
X3075000Y-1228217D01*
X3075000Y-1321783D01*
X3093254Y-1413552D01*
X3129061Y-1499997D01*
X3181044Y-1577795D01*
X3247205Y-1643956D01*
X3325003Y-1695939D01*
X3411448Y-1731746D01*
X3503217Y-1750000D01*
X3596783Y-1750000D01*
X3688552Y-1731746D01*
X3774997Y-1695939D01*
X3852795Y-1643956D01*
X3918956Y-1577795D01*
X3970939Y-1499997D01*
X4006746Y-1413552D01*
X4025000Y-1321783D01*
X4025000Y-1228217D01*
X4006746Y-1136448D01*
X3970939Y-1050003D01*
X3918956Y-972205D01*
X3852795Y-906044D01*
X3774997Y-854061D01*
X3688552Y-818254D01*
X3596783Y-800000D01*
X3503217Y-800000D01*
X3411448Y-818254D01*
X3325003Y-854061D01*
X3247205Y-906044D01*
X3181044Y-972205D01*
X3129061Y-1050003D01*
X3093254Y-1136448D01*
X3075000Y-1228217D01*
X425671Y-1228217D01*
X431746Y-1213552D01*
X441843Y-1162792D01*
X503217Y-1175000D01*
X596783Y-1175000D01*
X688552Y-1156746D01*
X774997Y-1120939D01*
X852795Y-1068956D01*
X918956Y-1002795D01*
X970939Y-924997D01*
X1006746Y-838552D01*
X1025000Y-746783D01*
X1025000Y-653217D01*
X1006746Y-561448D01*
X970939Y-475003D01*
X918956Y-397205D01*
X852795Y-331044D01*
X774997Y-279061D01*
X688552Y-243254D01*
X596783Y-225000D01*
X503217Y-225000D01*
X411448Y-243254D01*
X325003Y-279061D01*
X247205Y-331044D01*
X181044Y-397205D01*
X129061Y-475003D01*
X93254Y-561448D01*
X83157Y-612208D01*
X21783Y-600000D01*
X-71783Y-600000D01*
X-163552Y-618254D01*
X-249997Y-654061D01*
X-327795Y-706044D01*
X-393956Y-772205D01*
X-445939Y-850003D01*
X-481746Y-936448D01*
X-500000Y-1028217D01*
X-3027026Y-1028217D01*
X-3031044Y-1022205D01*
X-3097205Y-956044D01*
X-3175003Y-904061D01*
X-3215525Y-887276D01*
X-3206044Y-877795D01*
X-3154061Y-799997D01*
X-3118254Y-713552D01*
X-3100000Y-621783D01*
X-3100000Y-528217D01*
X-3118254Y-436448D01*
X-3154061Y-350003D01*
X-3206044Y-272205D01*
X-3272205Y-206044D01*
X-3306166Y-183352D01*
X-3247205Y-143956D01*
X-3181044Y-77795D01*
X-3129061Y3D01*
X-3093254Y86448D01*
X-3075000Y178217D01*
X-3075000Y271783D01*
X-3093254Y363552D01*
X-3129061Y449997D01*
X-3181044Y527795D01*
X-3247205Y593956D01*
X-3307558Y634283D01*
X-2387500Y634283D01*
X-2387500Y540717D01*
X-2369246Y448948D01*
X-2333439Y362503D01*
X-2281456Y284705D01*
X-2215295Y218544D01*
X-2137497Y166561D01*
X-2051052Y130754D01*
X-1959283Y112500D01*
X-1865717Y112500D01*
X-1773948Y130754D01*
X-1687503Y166561D01*
X-1609705Y218544D01*
X-1543544Y284705D01*
X-1491561Y362503D01*
X-1455754Y448948D01*
X-1437500Y540717D01*
X-1437500Y634283D01*
X-1444959Y671783D01*
X-850000Y671783D01*
X-850000Y578217D01*
X-831746Y486448D01*
X-795939Y400003D01*
X-743956Y322205D01*
X-677795Y256044D01*
X-599997Y204061D01*
X-513552Y168254D01*
X-421783Y150000D01*
X-328217Y150000D01*
X-236448Y168254D01*
X-150003Y204061D01*
X-72205Y256044D01*
X-6044Y322205D01*
X45939Y400003D01*
X81746Y486448D01*
X100000Y578217D01*
X100000Y671783D01*
X81746Y763552D01*
X45939Y849997D01*
X-6044Y927795D01*
X-72205Y993956D01*
X-150003Y1045939D01*
X-236448Y1081746D01*
X-328217Y1100000D01*
X-421783Y1100000D01*
X-513552Y1081746D01*
X-599997Y1045939D01*
X-677795Y993956D01*
X-743956Y927795D01*
X-795939Y849997D01*
X-831746Y763552D01*
X-850000Y671783D01*
X-1444959Y671783D01*
X-1455754Y726052D01*
X-1491561Y812497D01*
X-1543544Y890295D01*
X-1609705Y956456D01*
X-1687503Y1008439D01*
X-1773948Y1044246D01*
X-1865717Y1062500D01*
X-1959283Y1062500D01*
X-2051052Y1044246D01*
X-2137497Y1008439D01*
X-2215295Y956456D01*
X-2281456Y890295D01*
X-2333439Y812497D01*
X-2369246Y726052D01*
X-2387500Y634283D01*
X-3307558Y634283D01*
X-3325003Y645939D01*
X-3411448Y681746D01*
X-3503217Y700000D01*
X-3596783Y700000D01*
X-3688552Y681746D01*
X-3774997Y645939D01*
X-3852795Y593956D01*
X-3918956Y527795D01*
X-3970939Y449997D01*
X-4006746Y363552D01*
X-4025000Y271783D01*
X-4025000Y178217D01*
X-4006746Y86448D01*
X-3970939Y3D01*
X-3918956Y-77795D01*
X-3852795Y-143956D01*
X-3818834Y-166648D01*
X-3877795Y-206044D01*
X-3943956Y-272205D01*
X-3995939Y-350003D01*
X-4031746Y-436448D01*
X-4050000Y-528217D01*
X-4050000Y-621783D01*
X-4031746Y-713552D01*
X-3995939Y-799997D01*
X-3943956Y-877795D01*
X-3877795Y-943956D01*
X-3799997Y-995939D01*
X-3759475Y-1012724D01*
X-3768956Y-1022205D01*
X-3820939Y-1100003D01*
X-3856746Y-1186448D01*
X-3875000Y-1278217D01*
X-3875000Y-1302547D01*
X-3963217Y-1285000D01*
X-4056783Y-1285000D01*
X-4148552Y-1303254D01*
X-4234997Y-1339061D01*
X-4312795Y-1391044D01*
X-4348750Y-1426999D01*
X-4384705Y-1391044D01*
X-4462503Y-1339061D01*
X-4548948Y-1303254D01*
X-4640717Y-1285000D01*
X-4734283Y-1285000D01*
X-4826052Y-1303254D01*
X-4912497Y-1339061D01*
X-4990295Y-1391044D01*
X-5056456Y-1457205D01*
X-5108439Y-1535003D01*
X-5144246Y-1621448D01*
X-5162500Y-1713217D01*
X-7095781Y-1713217D01*
X-7152480Y-1675332D01*
X-7332103Y-1600930D01*
X-7522789Y-1563000D01*
X-7717211Y-1563000D01*
X-7907897Y-1600930D01*
X-8087520Y-1675332D01*
X-8249176Y-1783347D01*
X-8386653Y-1920824D01*
X-8494668Y-2082480D01*
X-8569070Y-2262103D01*
X-8607000Y-2452789D01*
X-8770000Y-2452789D01*
X-8770000Y-1987725D01*
X-8770086Y-1986852D01*
X-8770102Y-1984563D01*
X-8771289Y-1973274D01*
X-8771289Y-1961923D01*
X-8771654Y-1958451D01*
X-8792973Y-1768381D01*
X-8795000Y-1758844D01*
X-8795000Y-892767D01*
X-8793254Y-888552D01*
X-8775000Y-796783D01*
X-8775000Y-703217D01*
X-8793254Y-611448D01*
X-8795000Y-607233D01*
X-8795000Y-142767D01*
X-8793254Y-138552D01*
X-8775000Y-46783D01*
X-8775000Y46783D01*
X-8783041Y87211D01*
X-8607000Y87211D01*
X-8607000Y-107211D01*
X-8569070Y-297897D01*
X-8494668Y-477520D01*
X-8386653Y-639176D01*
X-8249176Y-776653D01*
X-8087520Y-884668D01*
X-7907897Y-959070D01*
X-7717211Y-997000D01*
X-7522789Y-997000D01*
X-7332103Y-959070D01*
X-7152480Y-884668D01*
X-6990824Y-776653D01*
X-6853347Y-639176D01*
X-6745332Y-477520D01*
X-6670930Y-297897D01*
X-6633000Y-107211D01*
X-6633000Y87211D01*
X-6670930Y277897D01*
X-6745332Y457520D01*
X-6853347Y619176D01*
X-6990824Y756653D01*
X-7152480Y864668D01*
X-7332103Y939070D01*
X-7522789Y977000D01*
X-7717211Y977000D01*
X-7907897Y939070D01*
X-8087520Y864668D01*
X-8249176Y756653D01*
X-8386653Y619176D01*
X-8494668Y457520D01*
X-8569070Y277897D01*
X-8607000Y87211D01*
X-8783041Y87211D01*
X-8793254Y138552D01*
X-8795000Y142767D01*
X-8795000Y607233D01*
X-8793254Y611448D01*
X-8775000Y703217D01*
X-8775000Y796783D01*
X-8793254Y888552D01*
X-8795000Y892767D01*
X-8795000Y1759280D01*
X-8794935Y1759610D01*
X-8790222Y1781782D01*
X-8789857Y1785254D01*
X-8771193Y1975604D01*
X-8771193Y1975613D01*
X-8770000Y1987725D01*
X-8770000Y2627211D01*
X-8607000Y2627211D01*
X-8607000Y2432789D01*
X-8569070Y2242103D01*
X-8494668Y2062480D01*
X-8386653Y1900824D01*
X-8249176Y1763347D01*
X-8087520Y1655332D01*
X-7907897Y1580930D01*
X-7717211Y1543000D01*
X-7522789Y1543000D01*
X-7332103Y1580930D01*
X-7152480Y1655332D01*
X-6990824Y1763347D01*
X-6853347Y1900824D01*
X-6745332Y2062480D01*
X-6689703Y2196783D01*
X-5950000Y2196783D01*
X-5950000Y2103217D01*
X-5931746Y2011448D01*
X-5895939Y1925003D01*
X-5843956Y1847205D01*
X-5777795Y1781044D01*
X-5699997Y1729061D01*
X-5613552Y1693254D01*
X-5521783Y1675000D01*
X-5428217Y1675000D01*
X-5336448Y1693254D01*
X-5250003Y1729061D01*
X-5172205Y1781044D01*
X-5106466Y1846783D01*
X3000000Y1846783D01*
X3000000Y1753217D01*
X3018254Y1661448D01*
X3054061Y1575003D01*
X3106044Y1497205D01*
X3172205Y1431044D01*
X3250003Y1379061D01*
X3336448Y1343254D01*
X3428217Y1325000D01*
X3521783Y1325000D01*
X3613552Y1343254D01*
X3699997Y1379061D01*
X3777795Y1431044D01*
X3843956Y1497205D01*
X3895939Y1575003D01*
X3931746Y1661448D01*
X3950000Y1753217D01*
X3950000Y1846783D01*
X3931746Y1938552D01*
X3895939Y2024997D01*
X3843956Y2102795D01*
X3777795Y2168956D01*
X3699997Y2220939D01*
X3613552Y2256746D01*
X3521783Y2275000D01*
X3428217Y2275000D01*
X3336448Y2256746D01*
X3250003Y2220939D01*
X3172205Y2168956D01*
X3106044Y2102795D01*
X3054061Y2024997D01*
X3018254Y1938552D01*
X3000000Y1846783D01*
X-5106466Y1846783D01*
X-5106044Y1847205D01*
X-5054061Y1925003D01*
X-5018254Y2011448D01*
X-5000000Y2103217D01*
X-5000000Y2196783D01*
X-5018254Y2288552D01*
X-5054061Y2374997D01*
X-5106044Y2452795D01*
X-5172205Y2518956D01*
X-5250003Y2570939D01*
X-5336448Y2606746D01*
X-5428217Y2625000D01*
X-5521783Y2625000D01*
X-5613552Y2606746D01*
X-5699997Y2570939D01*
X-5777795Y2518956D01*
X-5843956Y2452795D01*
X-5895939Y2374997D01*
X-5931746Y2288552D01*
X-5950000Y2196783D01*
X-6689703Y2196783D01*
X-6670930Y2242103D01*
X-6643379Y2380609D01*
X-6613552Y2368254D01*
X-6521783Y2350000D01*
X-6428217Y2350000D01*
X-6336448Y2368254D01*
X-6250003Y2404061D01*
X-6172205Y2456044D01*
X-6106044Y2522205D01*
X-6054061Y2600003D01*
X-6018254Y2686448D01*
X-6000000Y2778217D01*
X-6000000Y2850000D01*
X-5978217Y2850000D01*
X-5886448Y2868254D01*
X-5800003Y2904061D01*
X-5722205Y2956044D01*
X-5656466Y3021783D01*
X-3975000Y3021783D01*
X-3975000Y2928217D01*
X-3956746Y2836448D01*
X-3920939Y2750003D01*
X-3868956Y2672205D01*
X-3802795Y2606044D01*
X-3724997Y2554061D01*
X-3638552Y2518254D01*
X-3546783Y2500000D01*
X-3453217Y2500000D01*
X-3361448Y2518254D01*
X-3275003Y2554061D01*
X-3197205Y2606044D01*
X-3131044Y2672205D01*
X-3079061Y2750003D01*
X-3043254Y2836448D01*
X-3025000Y2928217D01*
X-3025000Y3021783D01*
X-3043254Y3113552D01*
X-3079061Y3199997D01*
X-3131044Y3277795D01*
X-3197205Y3343956D01*
X-3275003Y3395939D01*
X-3361448Y3431746D01*
X-3453217Y3450000D01*
X-3546783Y3450000D01*
X-3638552Y3431746D01*
X-3724997Y3395939D01*
X-3802795Y3343956D01*
X-3868956Y3277795D01*
X-3920939Y3199997D01*
X-3956746Y3113552D01*
X-3975000Y3021783D01*
X-5656466Y3021783D01*
X-5656044Y3022205D01*
X-5604061Y3100003D01*
X-5568254Y3186448D01*
X-5550000Y3278217D01*
X-5550000Y3371783D01*
X-5568254Y3463552D01*
X-5604061Y3549997D01*
X-5656044Y3627795D01*
X-5722205Y3693956D01*
X-5800003Y3745939D01*
X-5886448Y3781746D01*
X-5978217Y3800000D01*
X-6071783Y3800000D01*
X-6163552Y3781746D01*
X-6249997Y3745939D01*
X-6327795Y3693956D01*
X-6393956Y3627795D01*
X-6445939Y3549997D01*
X-6481746Y3463552D01*
X-6500000Y3371783D01*
X-6500000Y3300000D01*
X-6521783Y3300000D01*
X-6613552Y3281746D01*
X-6699997Y3245939D01*
X-6777795Y3193956D01*
X-6837016Y3134735D01*
X-6853347Y3159176D01*
X-6990824Y3296653D01*
X-7152480Y3404668D01*
X-7332103Y3479070D01*
X-7522789Y3517000D01*
X-7717211Y3517000D01*
X-7907897Y3479070D01*
X-8087520Y3404668D01*
X-8249176Y3296653D01*
X-8386653Y3159176D01*
X-8494668Y2997520D01*
X-8569070Y2817897D01*
X-8607000Y2627211D01*
X-8770000Y2627211D01*
X-8770000Y4100276D01*
X-8336580Y4100276D01*
X-8262585Y3881025D01*
X-8018281Y3778509D01*
X-7758670Y3725624D01*
X-7493731Y3724403D01*
X-7233644Y3774892D01*
X-6988404Y3875151D01*
X-6977415Y3881025D01*
X-6903420Y4100276D01*
X-7620000Y4816856D01*
X-8336580Y4100276D01*
X-8770000Y4100276D01*
X-8770000Y4414261D01*
X-8589724Y4353420D01*
X-7873144Y5070000D01*
X-7366856Y5070000D01*
X-6650276Y4353420D01*
X-6521790Y4396783D01*
X-6175000Y4396783D01*
X-6175000Y4303217D01*
X-6156746Y4211448D01*
X-6120939Y4125003D01*
X-6068956Y4047205D01*
X-6002795Y3981044D01*
X-5924997Y3929061D01*
X-5838552Y3893254D01*
X-5746783Y3875000D01*
X-5653217Y3875000D01*
X-5561448Y3893254D01*
X-5475003Y3929061D01*
X-5448481Y3946783D01*
X-2075000Y3946783D01*
X-2075000Y3853217D01*
X-2056746Y3761448D01*
X-2020939Y3675003D01*
X-1968956Y3597205D01*
X-1902795Y3531044D01*
X-1880562Y3516189D01*
X-1943956Y3452795D01*
X-1995939Y3374997D01*
X-2031746Y3288552D01*
X-2050000Y3196783D01*
X-2050000Y3103217D01*
X-2031746Y3011448D01*
X-1995939Y2925003D01*
X-1943956Y2847205D01*
X-1877795Y2781044D01*
X-1799997Y2729061D01*
X-1713552Y2693254D01*
X-1621783Y2675000D01*
X-1528217Y2675000D01*
X-1436448Y2693254D01*
X-1350003Y2729061D01*
X-1272205Y2781044D01*
X-1206044Y2847205D01*
X-1154061Y2925003D01*
X-1134684Y2971783D01*
X1250000Y2971783D01*
X1250000Y2878217D01*
X1268254Y2786448D01*
X1304061Y2700003D01*
X1356044Y2622205D01*
X1422205Y2556044D01*
X1500003Y2504061D01*
X1586448Y2468254D01*
X1678217Y2450000D01*
X1771783Y2450000D01*
X1863552Y2468254D01*
X1949997Y2504061D01*
X2027795Y2556044D01*
X2093956Y2622205D01*
X2145939Y2700003D01*
X2181746Y2786448D01*
X2200000Y2878217D01*
X2200000Y2971783D01*
X2181746Y3063552D01*
X2177005Y3075000D01*
X4150000Y3075000D01*
X4150000Y-2375000D01*
X4151441Y-2389632D01*
X4155709Y-2403701D01*
X4162640Y-2416668D01*
X4171967Y-2428033D01*
X4183332Y-2437360D01*
X4196299Y-2444291D01*
X4210368Y-2448559D01*
X4225000Y-2450000D01*
X6350000Y-2450000D01*
X6364632Y-2448559D01*
X6378701Y-2444291D01*
X6391668Y-2437360D01*
X6403033Y-2428033D01*
X6412360Y-2416668D01*
X6419291Y-2403701D01*
X6423559Y-2389632D01*
X6425000Y-2375000D01*
X6425000Y87211D01*
X6633000Y87211D01*
X6633000Y-107211D01*
X6670930Y-297897D01*
X6745332Y-477520D01*
X6853347Y-639176D01*
X6990824Y-776653D01*
X7152480Y-884668D01*
X7332103Y-959070D01*
X7522789Y-997000D01*
X7717211Y-997000D01*
X7907897Y-959070D01*
X8087520Y-884668D01*
X8249176Y-776653D01*
X8386653Y-639176D01*
X8494668Y-477520D01*
X8569070Y-297897D01*
X8607000Y-107211D01*
X8607000Y87211D01*
X8569070Y277897D01*
X8494668Y457520D01*
X8386653Y619176D01*
X8249176Y756653D01*
X8087520Y864668D01*
X7907897Y939070D01*
X7717211Y977000D01*
X7522789Y977000D01*
X7332103Y939070D01*
X7152480Y864668D01*
X6990824Y756653D01*
X6853347Y619176D01*
X6745332Y457520D01*
X6670930Y277897D01*
X6633000Y87211D01*
X6425000Y87211D01*
X6425000Y2627211D01*
X6633000Y2627211D01*
X6633000Y2432789D01*
X6670930Y2242103D01*
X6745332Y2062480D01*
X6853347Y1900824D01*
X6990824Y1763347D01*
X7152480Y1655332D01*
X7332103Y1580930D01*
X7522789Y1543000D01*
X7717211Y1543000D01*
X7907897Y1580930D01*
X8087520Y1655332D01*
X8249176Y1763347D01*
X8386653Y1900824D01*
X8494668Y2062480D01*
X8569070Y2242103D01*
X8607000Y2432789D01*
X8607000Y2627211D01*
X8569070Y2817897D01*
X8494668Y2997520D01*
X8386653Y3159176D01*
X8249176Y3296653D01*
X8087520Y3404668D01*
X7907897Y3479070D01*
X7717211Y3517000D01*
X7522789Y3517000D01*
X7332103Y3479070D01*
X7152480Y3404668D01*
X6990824Y3296653D01*
X6853347Y3159176D01*
X6745332Y2997520D01*
X6670930Y2817897D01*
X6633000Y2627211D01*
X6425000Y2627211D01*
X6425000Y3075000D01*
X6423559Y3089632D01*
X6419291Y3103701D01*
X6412360Y3116668D01*
X6403033Y3128033D01*
X6391668Y3137360D01*
X6378701Y3144291D01*
X6364632Y3148559D01*
X6350000Y3150000D01*
X4225000Y3150000D01*
X4210368Y3148559D01*
X4196299Y3144291D01*
X4183332Y3137360D01*
X4171967Y3128033D01*
X4162640Y3116668D01*
X4155709Y3103701D01*
X4151441Y3089632D01*
X4150000Y3075000D01*
X2177005Y3075000D01*
X2145939Y3149997D01*
X2093956Y3227795D01*
X2027795Y3293956D01*
X1949997Y3345939D01*
X1863552Y3381746D01*
X1771783Y3400000D01*
X1678217Y3400000D01*
X1586448Y3381746D01*
X1500003Y3345939D01*
X1422205Y3293956D01*
X1356044Y3227795D01*
X1304061Y3149997D01*
X1268254Y3063552D01*
X1250000Y2971783D01*
X-1134684Y2971783D01*
X-1118254Y3011448D01*
X-1100000Y3103217D01*
X-1100000Y3196783D01*
X-1118254Y3288552D01*
X-1154061Y3374997D01*
X-1206044Y3452795D01*
X-1272205Y3518956D01*
X-1294438Y3533811D01*
X-1231044Y3597205D01*
X-1179061Y3675003D01*
X-1143254Y3761448D01*
X-1125000Y3853217D01*
X-1125000Y3946783D01*
X-1143254Y4038552D01*
X-1179061Y4124997D01*
X-1231044Y4202795D01*
X-1297205Y4268956D01*
X-1375003Y4320939D01*
X-1461448Y4356746D01*
X-1553217Y4375000D01*
X-1646783Y4375000D01*
X-1738552Y4356746D01*
X-1824997Y4320939D01*
X-1902795Y4268956D01*
X-1968956Y4202795D01*
X-2020939Y4124997D01*
X-2056746Y4038552D01*
X-2075000Y3946783D01*
X-5448481Y3946783D01*
X-5397205Y3981044D01*
X-5331044Y4047205D01*
X-5279061Y4125003D01*
X-5243254Y4211448D01*
X-5225000Y4303217D01*
X-5225000Y4396783D01*
X-1000000Y4396783D01*
X-1000000Y4303217D01*
X-981746Y4211448D01*
X-945939Y4125003D01*
X-893956Y4047205D01*
X-827795Y3981044D01*
X-749997Y3929061D01*
X-663552Y3893254D01*
X-571783Y3875000D01*
X-478217Y3875000D01*
X-386448Y3893254D01*
X-300003Y3929061D01*
X-222205Y3981044D01*
X-156044Y4047205D01*
X-104061Y4125003D01*
X-68254Y4211448D01*
X-50000Y4303217D01*
X-50000Y4396783D01*
X325000Y4396783D01*
X325000Y4303217D01*
X343254Y4211448D01*
X379061Y4125003D01*
X431044Y4047205D01*
X497205Y3981044D01*
X575003Y3929061D01*
X661448Y3893254D01*
X753217Y3875000D01*
X846783Y3875000D01*
X938552Y3893254D01*
X1024997Y3929061D01*
X1102795Y3981044D01*
X1168956Y4047205D01*
X1220939Y4125003D01*
X1256746Y4211448D01*
X1275000Y4303217D01*
X1275000Y4396783D01*
X2675000Y4396783D01*
X2675000Y4303217D01*
X2693254Y4211448D01*
X2729061Y4125003D01*
X2781044Y4047205D01*
X2847205Y3981044D01*
X2925003Y3929061D01*
X3011448Y3893254D01*
X3103217Y3875000D01*
X3196783Y3875000D01*
X3288552Y3893254D01*
X3374997Y3929061D01*
X3452795Y3981044D01*
X3518956Y4047205D01*
X3570939Y4125003D01*
X3606746Y4211448D01*
X3625000Y4303217D01*
X3625000Y4396783D01*
X3606746Y4488552D01*
X3570939Y4574997D01*
X3518956Y4652795D01*
X3452795Y4718956D01*
X3374997Y4770939D01*
X3288552Y4806746D01*
X3196783Y4825000D01*
X3103217Y4825000D01*
X3011448Y4806746D01*
X2925003Y4770939D01*
X2847205Y4718956D01*
X2781044Y4652795D01*
X2729061Y4574997D01*
X2693254Y4488552D01*
X2675000Y4396783D01*
X1275000Y4396783D01*
X1256746Y4488552D01*
X1220939Y4574997D01*
X1168956Y4652795D01*
X1102795Y4718956D01*
X1024997Y4770939D01*
X938552Y4806746D01*
X846783Y4825000D01*
X753217Y4825000D01*
X661448Y4806746D01*
X575003Y4770939D01*
X497205Y4718956D01*
X431044Y4652795D01*
X379061Y4574997D01*
X343254Y4488552D01*
X325000Y4396783D01*
X-50000Y4396783D01*
X-68254Y4488552D01*
X-104061Y4574997D01*
X-156044Y4652795D01*
X-222205Y4718956D01*
X-300003Y4770939D01*
X-386448Y4806746D01*
X-478217Y4825000D01*
X-571783Y4825000D01*
X-663552Y4806746D01*
X-749997Y4770939D01*
X-827795Y4718956D01*
X-893956Y4652795D01*
X-945939Y4574997D01*
X-981746Y4488552D01*
X-1000000Y4396783D01*
X-5225000Y4396783D01*
X-5243254Y4488552D01*
X-5279061Y4574997D01*
X-5331044Y4652795D01*
X-5397205Y4718956D01*
X-5475003Y4770939D01*
X-5561448Y4806746D01*
X-5653217Y4825000D01*
X-5746783Y4825000D01*
X-5838552Y4806746D01*
X-5924997Y4770939D01*
X-6002795Y4718956D01*
X-6068956Y4652795D01*
X-6120939Y4574997D01*
X-6156746Y4488552D01*
X-6175000Y4396783D01*
X-6521790Y4396783D01*
X-6431025Y4427415D01*
X-6328509Y4671719D01*
X-6275624Y4931330D01*
X-6274977Y5071783D01*
X4850000Y5071783D01*
X4850000Y4978217D01*
X4868254Y4886448D01*
X4904061Y4800003D01*
X4956044Y4722205D01*
X5022205Y4656044D01*
X5100003Y4604061D01*
X5186448Y4568254D01*
X5278217Y4550000D01*
X5371783Y4550000D01*
X5463552Y4568254D01*
X5549997Y4604061D01*
X5627795Y4656044D01*
X5693956Y4722205D01*
X5745939Y4800003D01*
X5781746Y4886448D01*
X5800000Y4978217D01*
X5800000Y5071783D01*
X5781746Y5163552D01*
X5780231Y5167211D01*
X6633000Y5167211D01*
X6633000Y4972789D01*
X6670930Y4782103D01*
X6745332Y4602480D01*
X6853347Y4440824D01*
X6990824Y4303347D01*
X7152480Y4195332D01*
X7332103Y4120930D01*
X7522789Y4083000D01*
X7717211Y4083000D01*
X7907897Y4120930D01*
X8087520Y4195332D01*
X8249176Y4303347D01*
X8386653Y4440824D01*
X8494668Y4602480D01*
X8569070Y4782103D01*
X8607000Y4972789D01*
X8607000Y5167211D01*
X8569070Y5357897D01*
X8494668Y5537520D01*
X8386653Y5699176D01*
X8249176Y5836653D01*
X8087520Y5944668D01*
X7907897Y6019070D01*
X7717211Y6057000D01*
X7522789Y6057000D01*
X7332103Y6019070D01*
X7152480Y5944668D01*
X6990824Y5836653D01*
X6853347Y5699176D01*
X6745332Y5537520D01*
X6670930Y5357897D01*
X6633000Y5167211D01*
X5780231Y5167211D01*
X5745939Y5249997D01*
X5693956Y5327795D01*
X5627795Y5393956D01*
X5549997Y5445939D01*
X5463552Y5481746D01*
X5371783Y5500000D01*
X5278217Y5500000D01*
X5186448Y5481746D01*
X5100003Y5445939D01*
X5022205Y5393956D01*
X4956044Y5327795D01*
X4904061Y5249997D01*
X4868254Y5163552D01*
X4850000Y5071783D01*
X-6274977Y5071783D01*
X-6274403Y5196269D01*
X-6324892Y5456356D01*
X-6425151Y5701596D01*
X-6431025Y5712585D01*
X-6650276Y5786580D01*
X-7366856Y5070000D01*
X-7873144Y5070000D01*
X-8589724Y5786580D01*
X-8770000Y5725739D01*
X-8770000Y6640276D01*
X-8336580Y6640276D01*
X-8262585Y6421025D01*
X-8068645Y6339643D01*
X-8251596Y6264849D01*
X-8262585Y6258975D01*
X-8336580Y6039724D01*
X-7620000Y5323144D01*
X-6903420Y6039724D01*
X-6977415Y6258975D01*
X-7171355Y6340357D01*
X-6988404Y6415151D01*
X-6977415Y6421025D01*
X-6934973Y6546783D01*
X-3050000Y6546783D01*
X-3050000Y6453217D01*
X-3031746Y6361448D01*
X-2995939Y6275003D01*
X-2943956Y6197205D01*
X-2877795Y6131044D01*
X-2799997Y6079061D01*
X-2713552Y6043254D01*
X-2621783Y6025000D01*
X-2528217Y6025000D01*
X-2436448Y6043254D01*
X-2350003Y6079061D01*
X-2272205Y6131044D01*
X-2206044Y6197205D01*
X-2154061Y6275003D01*
X-2118254Y6361448D01*
X-2100000Y6453217D01*
X-2100000Y6546783D01*
X-2118254Y6638552D01*
X-2154061Y6724997D01*
X-2206044Y6802795D01*
X-2272205Y6868956D01*
X-2350003Y6920939D01*
X-2436448Y6956746D01*
X-2528217Y6975000D01*
X-2621783Y6975000D01*
X-2713552Y6956746D01*
X-2799997Y6920939D01*
X-2877795Y6868956D01*
X-2943956Y6802795D01*
X-2995939Y6724997D01*
X-3031746Y6638552D01*
X-3050000Y6546783D01*
X-6934973Y6546783D01*
X-6903420Y6640276D01*
X-7620000Y7356856D01*
X-8336580Y6640276D01*
X-8770000Y6640276D01*
X-8770000Y6954261D01*
X-8589724Y6893420D01*
X-7873144Y7610000D01*
X-7366856Y7610000D01*
X-6650276Y6893420D01*
X-6431025Y6967415D01*
X-6328509Y7211719D01*
X-6275624Y7471330D01*
X-6274403Y7736269D01*
X-6324892Y7996356D01*
X-6380944Y8133464D01*
X-1055000Y8133464D01*
X-1055000Y8039898D01*
X-1036746Y7948129D01*
X-1000939Y7861684D01*
X-948956Y7783886D01*
X-882795Y7717725D01*
X-804997Y7665742D01*
X-718552Y7629935D01*
X-626783Y7611681D01*
X-533217Y7611681D01*
X-441448Y7629935D01*
X-355003Y7665742D01*
X-277205Y7717725D01*
X-211044Y7783886D01*
X-159061Y7861684D01*
X-123254Y7948129D01*
X-105000Y8039898D01*
X-105000Y8121783D01*
X75000Y8121783D01*
X75000Y8028217D01*
X93254Y7936448D01*
X129061Y7850003D01*
X181044Y7772205D01*
X247205Y7706044D01*
X306166Y7666648D01*
X272205Y7643956D01*
X206044Y7577795D01*
X154061Y7499997D01*
X118254Y7413552D01*
X100000Y7321783D01*
X100000Y7228217D01*
X118254Y7136448D01*
X154061Y7050003D01*
X206044Y6972205D01*
X272205Y6906044D01*
X350003Y6854061D01*
X436448Y6818254D01*
X528217Y6800000D01*
X621783Y6800000D01*
X713552Y6818254D01*
X799997Y6854061D01*
X863934Y6896783D01*
X1925000Y6896783D01*
X1925000Y6803217D01*
X1943254Y6711448D01*
X1979061Y6625003D01*
X2031044Y6547205D01*
X2097205Y6481044D01*
X2175003Y6429061D01*
X2261448Y6393254D01*
X2353217Y6375000D01*
X2446783Y6375000D01*
X2479325Y6381473D01*
X2493254Y6311448D01*
X2529061Y6225003D01*
X2581044Y6147205D01*
X2647205Y6081044D01*
X2725003Y6029061D01*
X2811448Y5993254D01*
X2903217Y5975000D01*
X2996783Y5975000D01*
X3088552Y5993254D01*
X3174997Y6029061D01*
X3252795Y6081044D01*
X3318956Y6147205D01*
X3370939Y6225003D01*
X3406746Y6311448D01*
X3425000Y6403217D01*
X3425000Y6420162D01*
X3454061Y6350003D01*
X3506044Y6272205D01*
X3572205Y6206044D01*
X3650003Y6154061D01*
X3736448Y6118254D01*
X3828217Y6100000D01*
X3921783Y6100000D01*
X4013552Y6118254D01*
X4099997Y6154061D01*
X4177795Y6206044D01*
X4243956Y6272205D01*
X4295939Y6350003D01*
X4331746Y6436448D01*
X4350000Y6528217D01*
X4350000Y6621783D01*
X4331746Y6713552D01*
X4295939Y6799997D01*
X4243956Y6877795D01*
X4177795Y6943956D01*
X4099997Y6995939D01*
X4013552Y7031746D01*
X3921783Y7050000D01*
X3828217Y7050000D01*
X3736448Y7031746D01*
X3650003Y6995939D01*
X3572205Y6943956D01*
X3506044Y6877795D01*
X3454061Y6799997D01*
X3418254Y6713552D01*
X3400000Y6621783D01*
X3400000Y6604838D01*
X3370939Y6674997D01*
X3318956Y6752795D01*
X3252795Y6818956D01*
X3174997Y6870939D01*
X3088552Y6906746D01*
X2996783Y6925000D01*
X2903217Y6925000D01*
X2870675Y6918527D01*
X2856746Y6988552D01*
X2820939Y7074997D01*
X2768956Y7152795D01*
X2702795Y7218956D01*
X2624997Y7270939D01*
X2538552Y7306746D01*
X2446783Y7325000D01*
X2353217Y7325000D01*
X2261448Y7306746D01*
X2175003Y7270939D01*
X2097205Y7218956D01*
X2031044Y7152795D01*
X1979061Y7074997D01*
X1943254Y6988552D01*
X1925000Y6896783D01*
X863934Y6896783D01*
X877795Y6906044D01*
X943956Y6972205D01*
X995939Y7050003D01*
X1031746Y7136448D01*
X1050000Y7228217D01*
X1050000Y7321783D01*
X1031746Y7413552D01*
X995939Y7499997D01*
X943956Y7577795D01*
X877795Y7643956D01*
X818834Y7683352D01*
X852795Y7706044D01*
X918956Y7772205D01*
X970939Y7850003D01*
X1006746Y7936448D01*
X1025000Y8028217D01*
X1025000Y8121783D01*
X1006746Y8213552D01*
X970939Y8299997D01*
X918956Y8377795D01*
X852795Y8443956D01*
X774997Y8495939D01*
X772960Y8496783D01*
X2550000Y8496783D01*
X2550000Y8403217D01*
X2568254Y8311448D01*
X2604061Y8225003D01*
X2656044Y8147205D01*
X2722205Y8081044D01*
X2800003Y8029061D01*
X2886448Y7993254D01*
X2978217Y7975000D01*
X3071783Y7975000D01*
X3163552Y7993254D01*
X3249997Y8029061D01*
X3313934Y8071783D01*
X4850000Y8071783D01*
X4850000Y7978217D01*
X4868254Y7886448D01*
X4904061Y7800003D01*
X4956044Y7722205D01*
X5022205Y7656044D01*
X5100003Y7604061D01*
X5186448Y7568254D01*
X5278217Y7550000D01*
X5371783Y7550000D01*
X5463552Y7568254D01*
X5549997Y7604061D01*
X5627795Y7656044D01*
X5678962Y7707211D01*
X6633000Y7707211D01*
X6633000Y7512789D01*
X6670930Y7322103D01*
X6745332Y7142480D01*
X6853347Y6980824D01*
X6990824Y6843347D01*
X7152480Y6735332D01*
X7332103Y6660930D01*
X7522789Y6623000D01*
X7717211Y6623000D01*
X7907897Y6660930D01*
X8087520Y6735332D01*
X8249176Y6843347D01*
X8386653Y6980824D01*
X8494668Y7142480D01*
X8569070Y7322103D01*
X8607000Y7512789D01*
X8607000Y7707211D01*
X8569070Y7897897D01*
X8494668Y8077520D01*
X8386653Y8239176D01*
X8249176Y8376653D01*
X8087520Y8484668D01*
X7907897Y8559070D01*
X7717211Y8597000D01*
X7522789Y8597000D01*
X7332103Y8559070D01*
X7152480Y8484668D01*
X6990824Y8376653D01*
X6853347Y8239176D01*
X6745332Y8077520D01*
X6670930Y7897897D01*
X6633000Y7707211D01*
X5678962Y7707211D01*
X5693956Y7722205D01*
X5745939Y7800003D01*
X5781746Y7886448D01*
X5800000Y7978217D01*
X5800000Y8071783D01*
X5781746Y8163552D01*
X5745939Y8249997D01*
X5693956Y8327795D01*
X5627795Y8393956D01*
X5549997Y8445939D01*
X5463552Y8481746D01*
X5371783Y8500000D01*
X5278217Y8500000D01*
X5186448Y8481746D01*
X5100003Y8445939D01*
X5022205Y8393956D01*
X4956044Y8327795D01*
X4904061Y8249997D01*
X4868254Y8163552D01*
X4850000Y8071783D01*
X3313934Y8071783D01*
X3327795Y8081044D01*
X3393956Y8147205D01*
X3445939Y8225003D01*
X3481746Y8311448D01*
X3500000Y8403217D01*
X3500000Y8496783D01*
X3481746Y8588552D01*
X3445939Y8674997D01*
X3393956Y8752795D01*
X3327795Y8818956D01*
X3249997Y8870939D01*
X3163552Y8906746D01*
X3071783Y8925000D01*
X2978217Y8925000D01*
X2886448Y8906746D01*
X2800003Y8870939D01*
X2722205Y8818956D01*
X2656044Y8752795D01*
X2604061Y8674997D01*
X2568254Y8588552D01*
X2550000Y8496783D01*
X772960Y8496783D01*
X688552Y8531746D01*
X596783Y8550000D01*
X503217Y8550000D01*
X411448Y8531746D01*
X325003Y8495939D01*
X247205Y8443956D01*
X181044Y8377795D01*
X129061Y8299997D01*
X93254Y8213552D01*
X75000Y8121783D01*
X-105000Y8121783D01*
X-105000Y8133464D01*
X-123254Y8225233D01*
X-159061Y8311678D01*
X-211044Y8389476D01*
X-277205Y8455637D01*
X-355003Y8507620D01*
X-441448Y8543427D01*
X-533217Y8561681D01*
X-626783Y8561681D01*
X-718552Y8543427D01*
X-804997Y8507620D01*
X-882795Y8455637D01*
X-948956Y8389476D01*
X-1000939Y8311678D01*
X-1036746Y8225233D01*
X-1055000Y8133464D01*
X-6380944Y8133464D01*
X-6425151Y8241596D01*
X-6431025Y8252585D01*
X-6650276Y8326580D01*
X-7366856Y7610000D01*
X-7873144Y7610000D01*
X-8589724Y8326580D01*
X-8770000Y8265739D01*
X-8770000Y8579724D01*
X-8336580Y8579724D01*
X-7620000Y7863144D01*
X-6903420Y8579724D01*
X-6977415Y8798975D01*
X-7221719Y8901491D01*
X-7481330Y8954376D01*
X-7746269Y8955597D01*
X-8006356Y8905108D01*
X-8251596Y8804849D01*
X-8262585Y8798975D01*
X-8336580Y8579724D01*
X-8770000Y8579724D01*
X-8770000Y9014283D01*
X-5167500Y9014283D01*
X-5167500Y8920717D01*
X-5149246Y8828948D01*
X-5113439Y8742503D01*
X-5061456Y8664705D01*
X-4995295Y8598544D01*
X-4917497Y8546561D01*
X-4831052Y8510754D01*
X-4739283Y8492500D01*
X-4645717Y8492500D01*
X-4553948Y8510754D01*
X-4467503Y8546561D01*
X-4389705Y8598544D01*
X-4323544Y8664705D01*
X-4271561Y8742503D01*
X-4235754Y8828948D01*
X-4217500Y8920717D01*
X-4217500Y9014283D01*
X-4235754Y9106052D01*
X-4271561Y9192497D01*
X-4323544Y9270295D01*
X-4389705Y9336456D01*
X-4467503Y9388439D01*
X-4553948Y9424246D01*
X-4645717Y9442500D01*
X-4739283Y9442500D01*
X-4831052Y9424246D01*
X-4917497Y9388439D01*
X-4995295Y9336456D01*
X-5061456Y9270295D01*
X-5113439Y9192497D01*
X-5149246Y9106052D01*
X-5167500Y9014283D01*
X-8770000Y9014283D01*
X-8770000Y10247211D01*
X-8607000Y10247211D01*
X-8607000Y10052789D01*
X-8569070Y9862103D01*
X-8494668Y9682480D01*
X-8386653Y9520824D01*
X-8249176Y9383347D01*
X-8087520Y9275332D01*
X-7907897Y9200930D01*
X-7717211Y9163000D01*
X-7522789Y9163000D01*
X-7332103Y9200930D01*
X-7152480Y9275332D01*
X-6990824Y9383347D01*
X-6853347Y9520824D01*
X-6745332Y9682480D01*
X-6718697Y9746783D01*
X-3000000Y9746783D01*
X-3000000Y9653217D01*
X-2981746Y9561448D01*
X-2945939Y9475003D01*
X-2893956Y9397205D01*
X-2827795Y9331044D01*
X-2749997Y9279061D01*
X-2663552Y9243254D01*
X-2571783Y9225000D01*
X-2478217Y9225000D01*
X-2386448Y9243254D01*
X-2300003Y9279061D01*
X-2222205Y9331044D01*
X-2156044Y9397205D01*
X-2104061Y9475003D01*
X-2068254Y9561448D01*
X-2050000Y9653217D01*
X-2050000Y9746783D01*
X-2067902Y9836783D01*
X-1395000Y9836783D01*
X-1395000Y9743217D01*
X-1376746Y9651448D01*
X-1340939Y9565003D01*
X-1288956Y9487205D01*
X-1222795Y9421044D01*
X-1144997Y9369061D01*
X-1058552Y9333254D01*
X-966783Y9315000D01*
X-873217Y9315000D01*
X-781448Y9333254D01*
X-695003Y9369061D01*
X-617205Y9421044D01*
X-551044Y9487205D01*
X-544645Y9496783D01*
X-225000Y9496783D01*
X-225000Y9403217D01*
X-206746Y9311448D01*
X-170939Y9225003D01*
X-118956Y9147205D01*
X-52795Y9081044D01*
X25003Y9029061D01*
X111448Y8993254D01*
X203217Y8975000D01*
X296783Y8975000D01*
X388552Y8993254D01*
X474997Y9029061D01*
X552795Y9081044D01*
X618956Y9147205D01*
X641053Y9180276D01*
X6903420Y9180276D01*
X6977415Y8961025D01*
X7221719Y8858509D01*
X7481330Y8805624D01*
X7746269Y8804403D01*
X8006356Y8854892D01*
X8251596Y8955151D01*
X8262585Y8961025D01*
X8336580Y9180276D01*
X7620000Y9896856D01*
X6903420Y9180276D01*
X641053Y9180276D01*
X670939Y9225003D01*
X706746Y9311448D01*
X725000Y9403217D01*
X725000Y9496783D01*
X706746Y9588552D01*
X670939Y9674997D01*
X622974Y9746783D01*
X2050000Y9746783D01*
X2050000Y9653217D01*
X2068254Y9561448D01*
X2104061Y9475003D01*
X2156044Y9397205D01*
X2222205Y9331044D01*
X2300003Y9279061D01*
X2386448Y9243254D01*
X2478217Y9225000D01*
X2571783Y9225000D01*
X2663552Y9243254D01*
X2749997Y9279061D01*
X2827795Y9331044D01*
X2893956Y9397205D01*
X2945939Y9475003D01*
X2981746Y9561448D01*
X3000000Y9653217D01*
X3000000Y9746783D01*
X2981746Y9838552D01*
X2945939Y9924997D01*
X2893956Y10002795D01*
X2873020Y10023731D01*
X6274403Y10023731D01*
X6324892Y9763644D01*
X6425151Y9518404D01*
X6431025Y9507415D01*
X6650276Y9433420D01*
X7366856Y10150000D01*
X6650276Y10866580D01*
X6431025Y10792585D01*
X6328509Y10548281D01*
X6275624Y10288670D01*
X6274403Y10023731D01*
X2873020Y10023731D01*
X2827795Y10068956D01*
X2749997Y10120939D01*
X2663552Y10156746D01*
X2571783Y10175000D01*
X2478217Y10175000D01*
X2386448Y10156746D01*
X2300003Y10120939D01*
X2222205Y10068956D01*
X2156044Y10002795D01*
X2104061Y9924997D01*
X2068254Y9838552D01*
X2050000Y9746783D01*
X622974Y9746783D01*
X618956Y9752795D01*
X552795Y9818956D01*
X474997Y9870939D01*
X388552Y9906746D01*
X296783Y9925000D01*
X203217Y9925000D01*
X111448Y9906746D01*
X25003Y9870939D01*
X-52795Y9818956D01*
X-118956Y9752795D01*
X-170939Y9674997D01*
X-206746Y9588552D01*
X-225000Y9496783D01*
X-544645Y9496783D01*
X-499061Y9565003D01*
X-463254Y9651448D01*
X-445000Y9743217D01*
X-445000Y9836783D01*
X-463254Y9928552D01*
X-499061Y10014997D01*
X-551044Y10092795D01*
X-617205Y10158956D01*
X-695003Y10210939D01*
X-781448Y10246746D01*
X-873217Y10265000D01*
X-966783Y10265000D01*
X-1058552Y10246746D01*
X-1144997Y10210939D01*
X-1222795Y10158956D01*
X-1288956Y10092795D01*
X-1340939Y10014997D01*
X-1376746Y9928552D01*
X-1395000Y9836783D01*
X-2067902Y9836783D01*
X-2068254Y9838552D01*
X-2104061Y9924997D01*
X-2156044Y10002795D01*
X-2222205Y10068956D01*
X-2300003Y10120939D01*
X-2386448Y10156746D01*
X-2478217Y10175000D01*
X-2571783Y10175000D01*
X-2663552Y10156746D01*
X-2749997Y10120939D01*
X-2827795Y10068956D01*
X-2893956Y10002795D01*
X-2945939Y9924997D01*
X-2981746Y9838552D01*
X-3000000Y9746783D01*
X-6718697Y9746783D01*
X-6670930Y9862103D01*
X-6633000Y10052789D01*
X-6633000Y10247211D01*
X-6670930Y10437897D01*
X-6745332Y10617520D01*
X-6853347Y10779176D01*
X-6990824Y10916653D01*
X-7152480Y11024668D01*
X-7332103Y11099070D01*
X-7522789Y11137000D01*
X-7717211Y11137000D01*
X-7907897Y11099070D01*
X-8087520Y11024668D01*
X-8249176Y10916653D01*
X-8386653Y10779176D01*
X-8494668Y10617520D01*
X-8569070Y10437897D01*
X-8607000Y10247211D01*
X-8770000Y10247211D01*
X-8770000Y12787211D01*
X-8607000Y12787211D01*
X-8607000Y12592789D01*
X-8569070Y12402103D01*
X-8494668Y12222480D01*
X-8386653Y12060824D01*
X-8249176Y11923347D01*
X-8087520Y11815332D01*
X-7907897Y11740930D01*
X-7717211Y11703000D01*
X-7522789Y11703000D01*
X-7332103Y11740930D01*
X-7152480Y11815332D01*
X-6990824Y11923347D01*
X-6853347Y12060824D01*
X-6745332Y12222480D01*
X-6670930Y12402103D01*
X-6633000Y12592789D01*
X-6633000Y12787211D01*
X-6670930Y12977897D01*
X-6745332Y13157520D01*
X-6853347Y13319176D01*
X-6990824Y13456653D01*
X-7152480Y13564668D01*
X-7332103Y13639070D01*
X-7522789Y13677000D01*
X-7717211Y13677000D01*
X-7907897Y13639070D01*
X-8087520Y13564668D01*
X-8249176Y13456653D01*
X-8386653Y13319176D01*
X-8494668Y13157520D01*
X-8569070Y12977897D01*
X-8607000Y12787211D01*
X-8770000Y12787211D01*
X-8770000Y14260276D01*
X-8336580Y14260276D01*
X-8262585Y14041025D01*
X-8018281Y13938509D01*
X-7758670Y13885624D01*
X-7493731Y13884403D01*
X-7233644Y13934892D01*
X-6988404Y14035151D01*
X-6977415Y14041025D01*
X-6903420Y14260276D01*
X-7620000Y14976856D01*
X-8336580Y14260276D01*
X-8770000Y14260276D01*
X-8770000Y14574261D01*
X-8589724Y14513420D01*
X-7873144Y15230000D01*
X-7887287Y15244143D01*
X-7634143Y15497287D01*
X-7620000Y15483144D01*
X-6903420Y16199724D01*
X-6971011Y16400000D01*
X-6162624Y16400000D01*
X-6180731Y16377936D01*
G37*
%TD.AperFunction*%
%TD*%
M02*
