%TF.GenerationSoftware,KiCad,Pcbnew,(5.1.9)-1*%
%TF.CreationDate,2021-01-29T15:47:36+08:00*%
%TF.ProjectId,akami,616b616d-692e-46b6-9963-61645f706362,rev?*%
%TF.SameCoordinates,Original*%
%TF.FileFunction,Copper,L4,Bot*%
%TF.FilePolarity,Positive*%
%FSLAX46Y46*%
G04 Gerber Fmt 4.6, Leading zero omitted, Abs format (unit mm)*
G04 Created by KiCad (PCBNEW (5.1.9)-1) date 2021-01-29 15:47:36*
%MOMM*%
%LPD*%
G01*
G04 APERTURE LIST*
%TA.AperFunction,SMDPad,CuDef*%
%ADD10R,0.500000X1.600000*%
%TD*%
%TA.AperFunction,ComponentPad*%
%ADD11C,0.500000*%
%TD*%
%TA.AperFunction,ComponentPad*%
%ADD12C,1.524000*%
%TD*%
%TA.AperFunction,SMDPad,CuDef*%
%ADD13R,1.000000X1.000000*%
%TD*%
%TA.AperFunction,ComponentPad*%
%ADD14O,1.000000X1.800000*%
%TD*%
%TA.AperFunction,ComponentPad*%
%ADD15O,1.000000X2.200000*%
%TD*%
%TA.AperFunction,ViaPad*%
%ADD16C,0.500000*%
%TD*%
%TA.AperFunction,ViaPad*%
%ADD17C,0.600000*%
%TD*%
%TA.AperFunction,Conductor*%
%ADD18C,0.300000*%
%TD*%
%TA.AperFunction,Conductor*%
%ADD19C,0.150000*%
%TD*%
%TA.AperFunction,Conductor*%
%ADD20C,0.261112*%
%TD*%
%TA.AperFunction,Conductor*%
%ADD21C,0.261100*%
%TD*%
%TA.AperFunction,Conductor*%
%ADD22C,0.100000*%
%TD*%
G04 APERTURE END LIST*
D10*
%TO.P,U3,7*%
%TO.N,GND*%
X-2375000Y2100000D03*
D11*
X-2375000Y2650000D03*
X-2375000Y1550000D03*
%TD*%
D12*
%TO.P,U4,24*%
%TO.N,VBAT*%
X7620000Y12690000D03*
%TO.P,U4,23*%
%TO.N,GND*%
X7620000Y10150000D03*
%TO.P,U4,22*%
%TO.N,RESET*%
X7620000Y7610000D03*
%TO.P,U4,21*%
%TO.N,PPH_VCC*%
X7620000Y5070000D03*
%TO.P,U4,20*%
%TO.N,P0.31*%
X7620000Y2530000D03*
%TO.P,U4,19*%
%TO.N,P0.29*%
X7620000Y-10000D03*
%TO.P,U4,18*%
%TO.N,P0.02*%
X7620000Y-2550000D03*
%TO.P,U4,17*%
%TO.N,P1.15*%
X7620000Y-5090000D03*
%TO.P,U4,16*%
%TO.N,P1.13*%
X7620000Y-7630000D03*
%TO.P,U4,15*%
%TO.N,P1.11*%
X7620000Y-10170000D03*
%TO.P,U4,14*%
%TO.N,P0.10*%
X7620000Y-12710000D03*
%TO.P,U4,13*%
%TO.N,P0.09*%
X7620000Y-15250000D03*
%TO.P,U4,12*%
%TO.N,P1.06*%
X-7620000Y-15250000D03*
%TO.P,U4,11*%
%TO.N,P1.04*%
X-7620000Y-12710000D03*
%TO.P,U4,10*%
%TO.N,P0.11*%
X-7620000Y-10170000D03*
%TO.P,U4,9*%
%TO.N,P1.00*%
X-7620000Y-7630000D03*
%TO.P,U4,8*%
%TO.N,P0.24*%
X-7620000Y-5090000D03*
%TO.P,U4,7*%
%TO.N,P0.22*%
X-7620000Y-2550000D03*
%TO.P,U4,6*%
%TO.N,P0.20*%
X-7620000Y-10000D03*
%TO.P,U4,5*%
%TO.N,P0.17*%
X-7620000Y2530000D03*
%TO.P,U4,4*%
%TO.N,GND*%
X-7620000Y5070000D03*
%TO.P,U4,3*%
X-7620000Y7610000D03*
%TO.P,U4,2*%
%TO.N,P0.08*%
X-7620000Y10150000D03*
%TO.P,U4,1*%
%TO.N,P0.06*%
X-7620000Y12690000D03*
%TD*%
%TO.P,J2,1*%
%TO.N,VBUS*%
X7620000Y15230000D03*
%TD*%
%TO.P,J3,1*%
%TO.N,EXT_VCC*%
X-7620000Y15230000D03*
%TD*%
D13*
%TO.P,TP3,1*%
%TO.N,VDD_NRF*%
X-4600000Y-6800000D03*
%TD*%
%TO.P,TP1,1*%
%TO.N,SWC*%
X-1500000Y-10600000D03*
%TD*%
%TO.P,TP2,1*%
%TO.N,SWD*%
X-3500000Y-10600000D03*
%TD*%
D14*
%TO.P,J1,S1*%
%TO.N,Net-(J1-PadS1)*%
X-5575000Y11473200D03*
X5575600Y11473200D03*
D15*
X5575600Y15373200D03*
X-5575000Y15373200D03*
%TD*%
D16*
%TO.N,VDD_NRF*%
X-4100000Y-7725000D03*
X-5300000Y-4500000D03*
X5100000Y5950000D03*
X4375000Y4725000D03*
X2075000Y475000D03*
X-1200000Y175000D03*
X-4225000Y6800000D03*
X-2275000Y4950000D03*
X4325000Y-4100000D03*
%TO.N,VBUS*%
X-2400000Y9575000D03*
X2400000Y9575000D03*
X1125000Y6200000D03*
X-3850000Y-325000D03*
X-800000Y7750000D03*
X-2300000Y4175000D03*
%TO.N,Net-(C15-Pad2)*%
X3300000Y-1800000D03*
X2000000Y-7900000D03*
%TO.N,BAT_VOLT*%
X587500Y-562500D03*
X-3350000Y-8250000D03*
%TO.N,VBAT*%
X-4525000Y-9500000D03*
X-1275000Y6550000D03*
X2325000Y6850000D03*
X2575000Y8550000D03*
%TO.N,Net-(D3-Pad1)*%
X2325000Y6075000D03*
X4750000Y9050000D03*
%TO.N,USB_D+*%
X-1367844Y8932156D03*
X225000Y9100000D03*
X-4650000Y-2600000D03*
%TO.N,USB_D-*%
X-500000Y8400000D03*
X-4650000Y-1950000D03*
%TO.N,SWD*%
X-1750000Y-8850000D03*
%TO.N,SWC*%
X-1750000Y-8050000D03*
%TO.N,RESET*%
X-2500000Y-2750000D03*
D17*
%TO.N,GND*%
X-1212500Y-4000000D03*
X1212500Y-4000000D03*
X0Y-4000000D03*
X0Y-5212500D03*
X0Y-2787500D03*
X-1212500Y-2787500D03*
X-1212500Y-5212500D03*
X1212500Y-2787500D03*
D16*
X4575000Y10175000D03*
X-4575000Y10175000D03*
X-7620000Y-8900000D03*
D17*
X1212500Y-5212500D03*
D16*
X-7620000Y-6360000D03*
X7620000Y1260000D03*
X7620000Y3800000D03*
X7620000Y6340000D03*
X7620000Y8880000D03*
X-7620000Y8880000D03*
X-7620000Y6340000D03*
X-7620000Y3800000D03*
X-7620000Y1260000D03*
X-7620000Y-1280000D03*
X-7620000Y-3820000D03*
X-7620000Y11420000D03*
X-7620000Y13960000D03*
X7620000Y11420000D03*
X7620000Y13960000D03*
X7620000Y-3820000D03*
X7620000Y-6360000D03*
X7620000Y-8900000D03*
X7620000Y-1280000D03*
X3150000Y-8925000D03*
X4690000Y-2410000D03*
X4600000Y-925000D03*
X-250000Y-9800000D03*
X-1750000Y-9600000D03*
X-5060000Y-7725000D03*
X4400000Y6750000D03*
X0Y4100000D03*
X2325000Y5250000D03*
X-3250000Y6875000D03*
X2500000Y7650000D03*
X2525000Y-11100000D03*
X-250000Y-11025000D03*
X-3275000Y775000D03*
X-5400000Y-10475000D03*
%TO.N,P0.09*%
X-50000Y-6650000D03*
%TO.N,P0.10*%
X500000Y-7050000D03*
%TO.N,P1.11*%
X2750000Y-6350000D03*
%TO.N,P1.13*%
X3775000Y-5675000D03*
%TO.N,P1.15*%
X3775000Y-4725000D03*
%TO.N,P1.06*%
X-525000Y-10400000D03*
%TO.N,P0.11*%
X-1500000Y-1750000D03*
%TO.N,P0.22*%
X-3825000Y-5500000D03*
%TO.N,P0.17*%
X-5875000Y-4025000D03*
%TO.N,EXT_VCC*%
X-6450000Y5450000D03*
%TO.N,Net-(C20-Pad2)*%
X-2275000Y3400000D03*
X-2000000Y7250000D03*
%TO.N,PPH_VCC_CTRL*%
X5175000Y4750000D03*
X-3725000Y-3025000D03*
%TO.N,EXT_VCC_CTRL*%
X-525000Y475000D03*
X-2800000Y6275000D03*
%TO.N,Net-(D1-Pad2)*%
X-5800000Y7575000D03*
X-6050000Y2925000D03*
%TD*%
D18*
%TO.N,VDD_NRF*%
X-4100000Y-7300000D02*
X-4600000Y-6800000D01*
X-4100000Y-7725000D02*
X-4100000Y-7300000D01*
%TO.N,VBUS*%
X1725000Y10250000D02*
X2400000Y9575000D01*
X-2400000Y9575000D02*
X-1725000Y10250000D01*
X575000Y7750000D02*
X-800000Y7750000D01*
X-625000Y6200000D02*
X1125000Y6200000D01*
X-1200000Y5625000D02*
X-625000Y6200000D01*
X575000Y7750000D02*
X1100000Y8275000D01*
X1100000Y10250000D02*
X1725000Y10250000D01*
X1100000Y8275000D02*
X1100000Y10250000D01*
X-1725000Y10250000D02*
X1100000Y10250000D01*
X-1200000Y4275000D02*
X-2200000Y4275000D01*
X-2200000Y4275000D02*
X-2300000Y4175000D01*
X-1200000Y4275000D02*
X-1200000Y5625000D01*
X-1200000Y3075000D02*
X-1200000Y4275000D01*
X-3075000Y-325000D02*
X-1200000Y1550000D01*
X-1200000Y1550000D02*
X-1200000Y3075000D01*
X-3850000Y-325000D02*
X-3075000Y-325000D01*
D19*
%TO.N,Net-(C15-Pad2)*%
X3300000Y-2550000D02*
X3300000Y-1800000D01*
X2200000Y-7700000D02*
X2200000Y-3650000D01*
X2200000Y-3650000D02*
X3300000Y-2550000D01*
X2000000Y-7900000D02*
X2200000Y-7700000D01*
%TO.N,BAT_VOLT*%
X-2050000Y-1500000D02*
X-1800000Y-1250000D01*
X-100000Y-1250000D02*
X587500Y-562500D01*
X-2050000Y-3025000D02*
X-2050000Y-1500000D01*
X-3025000Y-4000000D02*
X-2050000Y-3025000D01*
X-1800000Y-1250000D02*
X-100000Y-1250000D01*
X-3350000Y-8250000D02*
X-3025000Y-7925000D01*
X-3025000Y-7925000D02*
X-3025000Y-4000000D01*
D18*
%TO.N,VBAT*%
X-975000Y6850000D02*
X-1275000Y6550000D01*
X1650000Y6850000D02*
X-975000Y6850000D01*
X2325000Y6850000D02*
X1650000Y6850000D01*
D19*
X-4525000Y-9500000D02*
X-4550000Y-9475000D01*
D18*
X6475000Y11545000D02*
X7620000Y12690000D01*
X6475000Y10525000D02*
X6475000Y11545000D01*
X5525000Y9575000D02*
X6475000Y10525000D01*
X3600000Y9575000D02*
X5525000Y9575000D01*
X2575000Y8550000D02*
X3600000Y9575000D01*
D19*
X1650000Y5950000D02*
X1650000Y6850000D01*
X1350000Y5650000D02*
X1650000Y5950000D01*
X-400000Y5650000D02*
X1350000Y5650000D01*
X-800000Y5250000D02*
X-400000Y5650000D01*
X-4525000Y-9500000D02*
X-6125000Y-7900000D01*
X-25000Y300000D02*
X-25000Y875000D01*
X-3625000Y-6025000D02*
X-3325000Y-5725000D01*
X-3325000Y-5725000D02*
X-3325000Y-5200000D01*
X-3325000Y-5200000D02*
X-4175000Y-4350000D01*
X-750000Y-425000D02*
X-25000Y300000D01*
X-4175000Y-2425000D02*
X-2175000Y-425000D01*
X-4175000Y-4350000D02*
X-4175000Y-2425000D01*
X-2175000Y-425000D02*
X-750000Y-425000D01*
X-25000Y875000D02*
X-800000Y1650000D01*
X-800000Y1650000D02*
X-800000Y5250000D01*
X-3625000Y-6025000D02*
X-5350000Y-6025000D01*
X-6125000Y-6800000D02*
X-6125000Y-7900000D01*
X-5350000Y-6025000D02*
X-6125000Y-6800000D01*
%TO.N,Net-(D3-Pad1)*%
X2575000Y6325000D02*
X2325000Y6075000D01*
X3125000Y6875000D02*
X2575000Y6325000D01*
X3125000Y7425000D02*
X3125000Y6875000D01*
X4750000Y9050000D02*
X3125000Y7425000D01*
%TO.N,Net-(J1-PadS1)*%
X-5575000Y15373200D02*
X-5575000Y11473200D01*
X5575600Y15373200D02*
X5575600Y11473200D01*
X5575600Y11125600D02*
X5575600Y11473200D01*
X5200000Y10750000D02*
X5575600Y11125600D01*
X-5200000Y10750000D02*
X5200000Y10750000D01*
X-5575000Y11125000D02*
X-5200000Y10750000D01*
X-5575000Y11473200D02*
X-5575000Y11125000D01*
D20*
%TO.N,USB_D+*%
X-1367844Y8932156D02*
X-1367844Y8932156D01*
D21*
X57156Y8932156D02*
X-1367844Y8932156D01*
X225000Y9100000D02*
X57156Y8932156D01*
D20*
X-3671164Y8932156D02*
X-1367844Y8932156D01*
X-5332156Y7271164D02*
X-3671164Y8932156D01*
X-5332156Y-2042844D02*
X-5332156Y7271164D01*
X-4892844Y-2482156D02*
X-5332156Y-2042844D01*
X-4767844Y-2482156D02*
X-4892844Y-2482156D01*
X-4650000Y-2600000D02*
X-4767844Y-2482156D01*
%TO.N,USB_D-*%
X-4867844Y7078836D02*
X-3546680Y8400000D01*
X-4867844Y-1728836D02*
X-4867844Y7078836D01*
X-3546680Y8400000D02*
X-500000Y8400000D01*
X-4650000Y-1946680D02*
X-4867844Y-1728836D01*
X-4650000Y-1950000D02*
X-4650000Y-1946680D01*
D19*
%TO.N,SWD*%
X-2200000Y-8850000D02*
X-3500000Y-10150000D01*
X-3500000Y-10150000D02*
X-3500000Y-10600000D01*
X-1750000Y-8850000D02*
X-2200000Y-8850000D01*
%TO.N,SWC*%
X-1250000Y-10350000D02*
X-1500000Y-10600000D01*
X-1250000Y-8550000D02*
X-1250000Y-10350000D01*
X-1750000Y-8050000D02*
X-1250000Y-8550000D01*
%TO.N,RESET*%
X6660000Y7610000D02*
X7620000Y7610000D01*
X6200000Y7150000D02*
X6660000Y7610000D01*
X6200000Y250000D02*
X6200000Y7150000D01*
X5525000Y-425000D02*
X6200000Y250000D01*
X1225000Y-425000D02*
X5525000Y-425000D01*
X875000Y-75000D02*
X1225000Y-425000D01*
X425000Y-75000D02*
X875000Y-75000D01*
X-475000Y-975000D02*
X425000Y-75000D01*
X-1925000Y-975000D02*
X-475000Y-975000D01*
X-2500000Y-1550000D02*
X-1925000Y-975000D01*
X-2500000Y-2750000D02*
X-2500000Y-1550000D01*
%TO.N,P0.09*%
X6200000Y-9350000D02*
X6200000Y-13830000D01*
X5075000Y-8225000D02*
X6200000Y-9350000D01*
X2550000Y-8625000D02*
X2950000Y-8225000D01*
X1325000Y-8625000D02*
X2550000Y-8625000D01*
X2950000Y-8225000D02*
X5075000Y-8225000D01*
X-50000Y-7250000D02*
X1325000Y-8625000D01*
X6200000Y-13830000D02*
X7620000Y-15250000D01*
X-50000Y-6650000D02*
X-50000Y-7250000D01*
%TO.N,P0.10*%
X6500000Y-9250000D02*
X6500000Y-11590000D01*
X5200000Y-7950000D02*
X6500000Y-9250000D01*
X2425000Y-8350000D02*
X2825000Y-7950000D01*
X2825000Y-7950000D02*
X5200000Y-7950000D01*
X1450000Y-8350000D02*
X2425000Y-8350000D01*
X6500000Y-11590000D02*
X7620000Y-12710000D01*
X500000Y-7400000D02*
X1450000Y-8350000D01*
X500000Y-7050000D02*
X500000Y-7400000D01*
%TO.N,P1.11*%
X5325000Y-7675000D02*
X7620000Y-9970000D01*
X7620000Y-9970000D02*
X7620000Y-10170000D01*
X3150000Y-7675000D02*
X5325000Y-7675000D01*
X2750000Y-7275000D02*
X3150000Y-7675000D01*
X2750000Y-6350000D02*
X2750000Y-7275000D01*
%TO.N,P1.13*%
X5665000Y-5675000D02*
X7620000Y-7630000D01*
X3775000Y-5675000D02*
X5665000Y-5675000D01*
%TO.N,P1.15*%
X7255000Y-4725000D02*
X7620000Y-5090000D01*
X3775000Y-4725000D02*
X7255000Y-4725000D01*
%TO.N,P1.06*%
X-6475000Y-14105000D02*
X-7620000Y-15250000D01*
X-6475000Y-11675000D02*
X-6475000Y-14105000D01*
X-6175000Y-11375000D02*
X-6475000Y-11675000D01*
X-975000Y-11375000D02*
X-6175000Y-11375000D01*
X-700000Y-11100000D02*
X-975000Y-11375000D01*
X-700000Y-10575000D02*
X-700000Y-11100000D01*
X-525000Y-10400000D02*
X-700000Y-10575000D01*
%TO.N,P0.11*%
X-4325000Y-9950000D02*
X-7400000Y-9950000D01*
X-4125000Y-9750000D02*
X-4325000Y-9950000D01*
X-3600000Y-9750000D02*
X-4125000Y-9750000D01*
X-2750000Y-4125000D02*
X-2750000Y-8900000D01*
X-7400000Y-9950000D02*
X-7620000Y-10170000D01*
X-1750000Y-3125000D02*
X-2750000Y-4125000D01*
X-2750000Y-8900000D02*
X-3600000Y-9750000D01*
X-1750000Y-2000000D02*
X-1750000Y-3125000D01*
X-1500000Y-1750000D02*
X-1750000Y-2000000D01*
%TO.N,P0.22*%
X-7620000Y-3080000D02*
X-7620000Y-2550000D01*
X-5600000Y-5100000D02*
X-7620000Y-3080000D01*
X-4225000Y-5100000D02*
X-5600000Y-5100000D01*
X-3825000Y-5500000D02*
X-4225000Y-5100000D01*
%TO.N,P0.17*%
X-5875000Y-4025000D02*
X-6350000Y-3550000D01*
X-6350000Y1260000D02*
X-7620000Y2530000D01*
X-6350000Y-3550000D02*
X-6350000Y1260000D01*
D18*
%TO.N,EXT_VCC*%
X-6450000Y14060000D02*
X-7620000Y15230000D01*
X-6450000Y5450000D02*
X-6450000Y14060000D01*
%TO.N,Net-(C20-Pad2)*%
X-2275000Y3400000D02*
X-2700000Y3400000D01*
X-2700000Y3400000D02*
X-3075000Y3775000D01*
X-3075000Y3775000D02*
X-3075000Y5050000D01*
X-2000000Y6125000D02*
X-2000000Y7250000D01*
X-3075000Y5050000D02*
X-2000000Y6125000D01*
D19*
%TO.N,PPH_VCC_CTRL*%
X-3725000Y-2375000D02*
X-3725000Y-3025000D01*
X-2050000Y-700000D02*
X-3725000Y-2375000D01*
X-600000Y-700000D02*
X-2050000Y-700000D01*
X300000Y200000D02*
X-600000Y-700000D01*
X987500Y200000D02*
X300000Y200000D01*
X5375000Y-150000D02*
X1337500Y-150000D01*
X1337500Y-150000D02*
X987500Y200000D01*
X5900000Y375000D02*
X5375000Y-150000D01*
X5900000Y4025000D02*
X5900000Y375000D01*
X5175000Y4750000D02*
X5900000Y4025000D01*
%TO.N,EXT_VCC_CTRL*%
X-1525000Y625000D02*
X-675000Y625000D01*
X-3250000Y-1100000D02*
X-1525000Y625000D01*
X-675000Y625000D02*
X-525000Y475000D01*
X-4375000Y-750000D02*
X-4025000Y-1100000D01*
X-4375000Y5125000D02*
X-4375000Y-750000D01*
X-3225000Y6275000D02*
X-4375000Y5125000D01*
X-4025000Y-1100000D02*
X-3250000Y-1100000D01*
X-2800000Y6275000D02*
X-3225000Y6275000D01*
%TO.N,Net-(D1-Pad2)*%
X-5975000Y3000000D02*
X-5975000Y7400000D01*
X-6050000Y2925000D02*
X-5975000Y3000000D01*
X-5975000Y7400000D02*
X-5800000Y7575000D01*
%TD*%
%TO.N,GND*%
X-6180731Y16377936D02*
X-6248053Y16251987D01*
X-6289509Y16115324D01*
X-6300000Y16008806D01*
X-6299999Y14737593D01*
X-6289508Y14631075D01*
X-6248052Y14494412D01*
X-6180730Y14368463D01*
X-6090131Y14258068D01*
X-5979736Y14167469D01*
X-5875000Y14111486D01*
X-5874999Y12534915D01*
X-5979737Y12478931D01*
X-6075000Y12400750D01*
X-6075000Y14041584D01*
X-6073186Y14060000D01*
X-6077140Y14100147D01*
X-6080426Y14133513D01*
X-6101869Y14204200D01*
X-6136691Y14269347D01*
X-6183552Y14326448D01*
X-6197861Y14338191D01*
X-6709253Y14849583D01*
X-6670930Y14942103D01*
X-6633000Y15132789D01*
X-6633000Y15327211D01*
X-6670930Y15517897D01*
X-6745332Y15697520D01*
X-6853347Y15859176D01*
X-6990824Y15996653D01*
X-7152480Y16104668D01*
X-7332103Y16179070D01*
X-7522789Y16217000D01*
X-7717211Y16217000D01*
X-7907897Y16179070D01*
X-8087520Y16104668D01*
X-8249176Y15996653D01*
X-8386653Y15859176D01*
X-8494668Y15697520D01*
X-8569070Y15517897D01*
X-8607000Y15327211D01*
X-8607000Y15132789D01*
X-8569070Y14942103D01*
X-8494668Y14762480D01*
X-8386653Y14600824D01*
X-8249176Y14463347D01*
X-8087520Y14355332D01*
X-7907897Y14280930D01*
X-7717211Y14243000D01*
X-7522789Y14243000D01*
X-7332103Y14280930D01*
X-7239583Y14319253D01*
X-6824999Y13904669D01*
X-6824999Y13276750D01*
X-6853347Y13319176D01*
X-6990824Y13456653D01*
X-7152480Y13564668D01*
X-7332103Y13639070D01*
X-7522789Y13677000D01*
X-7717211Y13677000D01*
X-7907897Y13639070D01*
X-8087520Y13564668D01*
X-8249176Y13456653D01*
X-8386653Y13319176D01*
X-8494668Y13157520D01*
X-8569070Y12977897D01*
X-8607000Y12787211D01*
X-8607000Y12592789D01*
X-8569070Y12402103D01*
X-8494668Y12222480D01*
X-8386653Y12060824D01*
X-8249176Y11923347D01*
X-8087520Y11815332D01*
X-7907897Y11740930D01*
X-7717211Y11703000D01*
X-7522789Y11703000D01*
X-7332103Y11740930D01*
X-7152480Y11815332D01*
X-6990824Y11923347D01*
X-6853347Y12060824D01*
X-6824999Y12103249D01*
X-6824999Y10736751D01*
X-6853347Y10779176D01*
X-6990824Y10916653D01*
X-7152480Y11024668D01*
X-7332103Y11099070D01*
X-7522789Y11137000D01*
X-7717211Y11137000D01*
X-7907897Y11099070D01*
X-8087520Y11024668D01*
X-8249176Y10916653D01*
X-8386653Y10779176D01*
X-8494668Y10617520D01*
X-8569070Y10437897D01*
X-8607000Y10247211D01*
X-8607000Y10052789D01*
X-8569070Y9862103D01*
X-8494668Y9682480D01*
X-8386653Y9520824D01*
X-8249176Y9383347D01*
X-8087520Y9275332D01*
X-7907897Y9200930D01*
X-7717211Y9163000D01*
X-7522789Y9163000D01*
X-7332103Y9200930D01*
X-7152480Y9275332D01*
X-6990824Y9383347D01*
X-6853347Y9520824D01*
X-6825000Y9563249D01*
X-6825000Y8151856D01*
X-7366856Y7610000D01*
X-6825000Y7068144D01*
X-6825000Y5743750D01*
X-6870939Y5674997D01*
X-6906746Y5588552D01*
X-6921257Y5515599D01*
X-7366856Y5070000D01*
X-6816963Y4520107D01*
X-6684308Y4611436D01*
X-6612825Y4802792D01*
X-6582071Y4991965D01*
X-6496783Y4975000D01*
X-6403217Y4975000D01*
X-6311448Y4993254D01*
X-6275000Y5008352D01*
X-6275000Y3345937D01*
X-6352795Y3293956D01*
X-6418956Y3227795D01*
X-6470939Y3149997D01*
X-6506746Y3063552D01*
X-6525000Y2971783D01*
X-6525000Y2878217D01*
X-6506746Y2786448D01*
X-6470939Y2700003D01*
X-6418956Y2622205D01*
X-6352795Y2556044D01*
X-6274997Y2504061D01*
X-6188552Y2468254D01*
X-6096783Y2450000D01*
X-6003217Y2450000D01*
X-5911448Y2468254D01*
X-5825003Y2504061D01*
X-5747205Y2556044D01*
X-5687711Y2615538D01*
X-5687712Y-2025388D01*
X-5689431Y-2042844D01*
X-5687712Y-2060299D01*
X-5687712Y-2060306D01*
X-5684111Y-2096870D01*
X-5682567Y-2112544D01*
X-5662236Y-2179567D01*
X-5629220Y-2241335D01*
X-5597422Y-2280080D01*
X-5584788Y-2295475D01*
X-5571224Y-2306607D01*
X-5156609Y-2721223D01*
X-5145476Y-2734788D01*
X-5131913Y-2745919D01*
X-5131912Y-2745920D01*
X-5108990Y-2764732D01*
X-5091336Y-2779220D01*
X-5089492Y-2780205D01*
X-5070939Y-2824997D01*
X-5018956Y-2902795D01*
X-4952795Y-2968956D01*
X-4874997Y-3020939D01*
X-4788552Y-3056746D01*
X-4696783Y-3075000D01*
X-4603217Y-3075000D01*
X-4511448Y-3056746D01*
X-4474999Y-3041648D01*
X-4475000Y-4335277D01*
X-4476450Y-4350000D01*
X-4475000Y-4364723D01*
X-4475000Y-4364732D01*
X-4470659Y-4408809D01*
X-4453504Y-4465359D01*
X-4444745Y-4481746D01*
X-4425647Y-4517477D01*
X-4408642Y-4538198D01*
X-4388158Y-4563158D01*
X-4376710Y-4572553D01*
X-4135661Y-4813602D01*
X-4166190Y-4804341D01*
X-4210267Y-4800000D01*
X-4210277Y-4800000D01*
X-4225000Y-4798550D01*
X-4239723Y-4800000D01*
X-4929176Y-4800000D01*
X-4879061Y-4724997D01*
X-4843254Y-4638552D01*
X-4825000Y-4546783D01*
X-4825000Y-4453217D01*
X-4843254Y-4361448D01*
X-4879061Y-4275003D01*
X-4931044Y-4197205D01*
X-4997205Y-4131044D01*
X-5075003Y-4079061D01*
X-5161448Y-4043254D01*
X-5253217Y-4025000D01*
X-5346783Y-4025000D01*
X-5400000Y-4035586D01*
X-5400000Y-3978217D01*
X-5418254Y-3886448D01*
X-5454061Y-3800003D01*
X-5506044Y-3722205D01*
X-5572205Y-3656044D01*
X-5650003Y-3604061D01*
X-5736448Y-3568254D01*
X-5828217Y-3550000D01*
X-5921783Y-3550000D01*
X-5925081Y-3550656D01*
X-6050000Y-3425737D01*
X-6050000Y1245278D01*
X-6048550Y1260001D01*
X-6050000Y1274724D01*
X-6050000Y1274733D01*
X-6054341Y1318810D01*
X-6071496Y1375360D01*
X-6088651Y1407455D01*
X-6099353Y1427478D01*
X-6127451Y1461715D01*
X-6136842Y1473158D01*
X-6148285Y1482549D01*
X-6740319Y2074583D01*
X-6670930Y2242103D01*
X-6633000Y2432789D01*
X-6633000Y2627211D01*
X-6670930Y2817897D01*
X-6745332Y2997520D01*
X-6853347Y3159176D01*
X-6990824Y3296653D01*
X-7152480Y3404668D01*
X-7332103Y3479070D01*
X-7522789Y3517000D01*
X-7717211Y3517000D01*
X-7907897Y3479070D01*
X-8087520Y3404668D01*
X-8249176Y3296653D01*
X-8386653Y3159176D01*
X-8494668Y2997520D01*
X-8569070Y2817897D01*
X-8607000Y2627211D01*
X-8607000Y2432789D01*
X-8569070Y2242103D01*
X-8494668Y2062480D01*
X-8386653Y1900824D01*
X-8249176Y1763347D01*
X-8087520Y1655332D01*
X-7907897Y1580930D01*
X-7717211Y1543000D01*
X-7522789Y1543000D01*
X-7332103Y1580930D01*
X-7164583Y1650319D01*
X-6649999Y1135735D01*
X-6649999Y172671D01*
X-6670930Y277897D01*
X-6745332Y457520D01*
X-6853347Y619176D01*
X-6990824Y756653D01*
X-7152480Y864668D01*
X-7332103Y939070D01*
X-7522789Y977000D01*
X-7717211Y977000D01*
X-7907897Y939070D01*
X-8087520Y864668D01*
X-8249176Y756653D01*
X-8386653Y619176D01*
X-8494668Y457520D01*
X-8569070Y277897D01*
X-8607000Y87211D01*
X-8607000Y-107211D01*
X-8569070Y-297897D01*
X-8494668Y-477520D01*
X-8386653Y-639176D01*
X-8249176Y-776653D01*
X-8087520Y-884668D01*
X-7907897Y-959070D01*
X-7717211Y-997000D01*
X-7522789Y-997000D01*
X-7332103Y-959070D01*
X-7152480Y-884668D01*
X-6990824Y-776653D01*
X-6853347Y-639176D01*
X-6745332Y-477520D01*
X-6670930Y-297897D01*
X-6649999Y-192672D01*
X-6650000Y-2367326D01*
X-6670930Y-2262103D01*
X-6745332Y-2082480D01*
X-6853347Y-1920824D01*
X-6990824Y-1783347D01*
X-7152480Y-1675332D01*
X-7332103Y-1600930D01*
X-7522789Y-1563000D01*
X-7717211Y-1563000D01*
X-7907897Y-1600930D01*
X-8087520Y-1675332D01*
X-8249176Y-1783347D01*
X-8386653Y-1920824D01*
X-8494668Y-2082480D01*
X-8569070Y-2262103D01*
X-8607000Y-2452789D01*
X-8607000Y-2647211D01*
X-8569070Y-2837897D01*
X-8494668Y-3017520D01*
X-8386653Y-3179176D01*
X-8249176Y-3316653D01*
X-8087520Y-3424668D01*
X-7907897Y-3499070D01*
X-7717211Y-3537000D01*
X-7587263Y-3537000D01*
X-5822550Y-5301714D01*
X-5813158Y-5313158D01*
X-5801715Y-5322549D01*
X-5767478Y-5350647D01*
X-5747270Y-5361448D01*
X-5715360Y-5378504D01*
X-5658810Y-5395659D01*
X-5614733Y-5400000D01*
X-5614724Y-5400000D01*
X-5600001Y-5401450D01*
X-5585278Y-5400000D01*
X-4349263Y-5400000D01*
X-4299344Y-5449919D01*
X-4300000Y-5453217D01*
X-4300000Y-5546783D01*
X-4281746Y-5638552D01*
X-4245939Y-5724997D01*
X-4245937Y-5725000D01*
X-5335270Y-5725000D01*
X-5350000Y-5723549D01*
X-5364730Y-5725000D01*
X-5364733Y-5725000D01*
X-5408810Y-5729341D01*
X-5465360Y-5746496D01*
X-5517478Y-5774353D01*
X-5551714Y-5802450D01*
X-5563158Y-5811842D01*
X-5572549Y-5823285D01*
X-6326710Y-6577447D01*
X-6338158Y-6586842D01*
X-6351596Y-6603217D01*
X-6375647Y-6632523D01*
X-6377114Y-6635268D01*
X-6403504Y-6684641D01*
X-6420659Y-6741191D01*
X-6425000Y-6785268D01*
X-6425000Y-6785277D01*
X-6426450Y-6800000D01*
X-6425000Y-6814723D01*
X-6424999Y-7885267D01*
X-6426450Y-7900000D01*
X-6424999Y-7914733D01*
X-6421801Y-7947205D01*
X-6420658Y-7958810D01*
X-6403503Y-8015360D01*
X-6375647Y-8067477D01*
X-6347549Y-8101714D01*
X-6338157Y-8113158D01*
X-6326715Y-8122548D01*
X-4999344Y-9449920D01*
X-5000000Y-9453217D01*
X-5000000Y-9546783D01*
X-4981746Y-9638552D01*
X-4977004Y-9650000D01*
X-6780398Y-9650000D01*
X-6853347Y-9540824D01*
X-6990824Y-9403347D01*
X-7152480Y-9295332D01*
X-7332103Y-9220930D01*
X-7522789Y-9183000D01*
X-7717211Y-9183000D01*
X-7907897Y-9220930D01*
X-8087520Y-9295332D01*
X-8249176Y-9403347D01*
X-8386653Y-9540824D01*
X-8494668Y-9702480D01*
X-8569070Y-9882103D01*
X-8607000Y-10072789D01*
X-8607000Y-10267211D01*
X-8569070Y-10457897D01*
X-8494668Y-10637520D01*
X-8386653Y-10799176D01*
X-8249176Y-10936653D01*
X-8087520Y-11044668D01*
X-7907897Y-11119070D01*
X-7717211Y-11157000D01*
X-7522789Y-11157000D01*
X-7332103Y-11119070D01*
X-7152480Y-11044668D01*
X-6990824Y-10936653D01*
X-6853347Y-10799176D01*
X-6745332Y-10637520D01*
X-6670930Y-10457897D01*
X-6633000Y-10267211D01*
X-6633000Y-10250000D01*
X-4339723Y-10250000D01*
X-4325000Y-10251450D01*
X-4310277Y-10250000D01*
X-4310267Y-10250000D01*
X-4266190Y-10245659D01*
X-4226088Y-10233494D01*
X-4226088Y-11075000D01*
X-6160278Y-11075000D01*
X-6175001Y-11073550D01*
X-6189724Y-11075000D01*
X-6189733Y-11075000D01*
X-6233810Y-11079341D01*
X-6290360Y-11096496D01*
X-6314621Y-11109464D01*
X-6342478Y-11124353D01*
X-6366549Y-11144108D01*
X-6388158Y-11161842D01*
X-6397549Y-11173285D01*
X-6549263Y-11325000D01*
X-8770000Y-11325000D01*
X-8770000Y-7532789D01*
X-8607000Y-7532789D01*
X-8607000Y-7727211D01*
X-8569070Y-7917897D01*
X-8494668Y-8097520D01*
X-8386653Y-8259176D01*
X-8249176Y-8396653D01*
X-8087520Y-8504668D01*
X-7907897Y-8579070D01*
X-7717211Y-8617000D01*
X-7522789Y-8617000D01*
X-7332103Y-8579070D01*
X-7152480Y-8504668D01*
X-6990824Y-8396653D01*
X-6853347Y-8259176D01*
X-6745332Y-8097520D01*
X-6670930Y-7917897D01*
X-6633000Y-7727211D01*
X-6633000Y-7532789D01*
X-6670930Y-7342103D01*
X-6745332Y-7162480D01*
X-6853347Y-7000824D01*
X-6990824Y-6863347D01*
X-7152480Y-6755332D01*
X-7332103Y-6680930D01*
X-7522789Y-6643000D01*
X-7717211Y-6643000D01*
X-7907897Y-6680930D01*
X-8087520Y-6755332D01*
X-8249176Y-6863347D01*
X-8386653Y-7000824D01*
X-8494668Y-7162480D01*
X-8569070Y-7342103D01*
X-8607000Y-7532789D01*
X-8770000Y-7532789D01*
X-8770000Y-4992789D01*
X-8607000Y-4992789D01*
X-8607000Y-5187211D01*
X-8569070Y-5377897D01*
X-8494668Y-5557520D01*
X-8386653Y-5719176D01*
X-8249176Y-5856653D01*
X-8087520Y-5964668D01*
X-7907897Y-6039070D01*
X-7717211Y-6077000D01*
X-7522789Y-6077000D01*
X-7332103Y-6039070D01*
X-7152480Y-5964668D01*
X-6990824Y-5856653D01*
X-6853347Y-5719176D01*
X-6745332Y-5557520D01*
X-6670930Y-5377897D01*
X-6633000Y-5187211D01*
X-6633000Y-4992789D01*
X-6670930Y-4802103D01*
X-6745332Y-4622480D01*
X-6853347Y-4460824D01*
X-6990824Y-4323347D01*
X-7152480Y-4215332D01*
X-7332103Y-4140930D01*
X-7522789Y-4103000D01*
X-7717211Y-4103000D01*
X-7907897Y-4140930D01*
X-8087520Y-4215332D01*
X-8249176Y-4323347D01*
X-8386653Y-4460824D01*
X-8494668Y-4622480D01*
X-8569070Y-4802103D01*
X-8607000Y-4992789D01*
X-8770000Y-4992789D01*
X-8770000Y-2076364D01*
X-8766441Y-2064632D01*
X-8765000Y-2050000D01*
X-8765000Y2050000D01*
X-8766441Y2064632D01*
X-8770000Y2076364D01*
X-8770000Y4266963D01*
X-8169893Y4266963D01*
X-8078564Y4134308D01*
X-7887208Y4062825D01*
X-7685583Y4030047D01*
X-7481438Y4037235D01*
X-7282618Y4084112D01*
X-7161436Y4134308D01*
X-7070107Y4266963D01*
X-7620000Y4816856D01*
X-8169893Y4266963D01*
X-8770000Y4266963D01*
X-8770000Y5135583D01*
X-8659953Y5135583D01*
X-8652765Y4931438D01*
X-8605888Y4732618D01*
X-8555692Y4611436D01*
X-8423037Y4520107D01*
X-7873144Y5070000D01*
X-8423037Y5619893D01*
X-8555692Y5528564D01*
X-8627175Y5337208D01*
X-8659953Y5135583D01*
X-8770000Y5135583D01*
X-8770000Y5873037D01*
X-8169893Y5873037D01*
X-7620000Y5323144D01*
X-7070107Y5873037D01*
X-7161436Y6005692D01*
X-7352792Y6077175D01*
X-7554417Y6109953D01*
X-7758562Y6102765D01*
X-7957382Y6055888D01*
X-8078564Y6005692D01*
X-8169893Y5873037D01*
X-8770000Y5873037D01*
X-8770000Y6806963D01*
X-8169893Y6806963D01*
X-8078564Y6674308D01*
X-7887208Y6602825D01*
X-7685583Y6570047D01*
X-7481438Y6577235D01*
X-7282618Y6624112D01*
X-7161436Y6674308D01*
X-7070107Y6806963D01*
X-7620000Y7356856D01*
X-8169893Y6806963D01*
X-8770000Y6806963D01*
X-8770000Y7675583D01*
X-8659953Y7675583D01*
X-8652765Y7471438D01*
X-8605888Y7272618D01*
X-8555692Y7151436D01*
X-8423037Y7060107D01*
X-7873144Y7610000D01*
X-8423037Y8159893D01*
X-8555692Y8068564D01*
X-8627175Y7877208D01*
X-8659953Y7675583D01*
X-8770000Y7675583D01*
X-8770000Y8413037D01*
X-8169893Y8413037D01*
X-7620000Y7863144D01*
X-7070107Y8413037D01*
X-7161436Y8545692D01*
X-7352792Y8617175D01*
X-7554417Y8649953D01*
X-7758562Y8642765D01*
X-7957382Y8595888D01*
X-8078564Y8545692D01*
X-8169893Y8413037D01*
X-8770000Y8413037D01*
X-8770000Y15237771D01*
X-8746922Y15473137D01*
X-8682119Y15687775D01*
X-8576860Y15885739D01*
X-8435156Y16059485D01*
X-8262402Y16202399D01*
X-8065181Y16309036D01*
X-7850994Y16375338D01*
X-7616352Y16400000D01*
X-6162624Y16400000D01*
X-6180731Y16377936D01*
%TA.AperFunction,Conductor*%
D22*
G36*
X-6180731Y16377936D02*
G01*
X-6248053Y16251987D01*
X-6289509Y16115324D01*
X-6300000Y16008806D01*
X-6299999Y14737593D01*
X-6289508Y14631075D01*
X-6248052Y14494412D01*
X-6180730Y14368463D01*
X-6090131Y14258068D01*
X-5979736Y14167469D01*
X-5875000Y14111486D01*
X-5874999Y12534915D01*
X-5979737Y12478931D01*
X-6075000Y12400750D01*
X-6075000Y14041584D01*
X-6073186Y14060000D01*
X-6077140Y14100147D01*
X-6080426Y14133513D01*
X-6101869Y14204200D01*
X-6136691Y14269347D01*
X-6183552Y14326448D01*
X-6197861Y14338191D01*
X-6709253Y14849583D01*
X-6670930Y14942103D01*
X-6633000Y15132789D01*
X-6633000Y15327211D01*
X-6670930Y15517897D01*
X-6745332Y15697520D01*
X-6853347Y15859176D01*
X-6990824Y15996653D01*
X-7152480Y16104668D01*
X-7332103Y16179070D01*
X-7522789Y16217000D01*
X-7717211Y16217000D01*
X-7907897Y16179070D01*
X-8087520Y16104668D01*
X-8249176Y15996653D01*
X-8386653Y15859176D01*
X-8494668Y15697520D01*
X-8569070Y15517897D01*
X-8607000Y15327211D01*
X-8607000Y15132789D01*
X-8569070Y14942103D01*
X-8494668Y14762480D01*
X-8386653Y14600824D01*
X-8249176Y14463347D01*
X-8087520Y14355332D01*
X-7907897Y14280930D01*
X-7717211Y14243000D01*
X-7522789Y14243000D01*
X-7332103Y14280930D01*
X-7239583Y14319253D01*
X-6824999Y13904669D01*
X-6824999Y13276750D01*
X-6853347Y13319176D01*
X-6990824Y13456653D01*
X-7152480Y13564668D01*
X-7332103Y13639070D01*
X-7522789Y13677000D01*
X-7717211Y13677000D01*
X-7907897Y13639070D01*
X-8087520Y13564668D01*
X-8249176Y13456653D01*
X-8386653Y13319176D01*
X-8494668Y13157520D01*
X-8569070Y12977897D01*
X-8607000Y12787211D01*
X-8607000Y12592789D01*
X-8569070Y12402103D01*
X-8494668Y12222480D01*
X-8386653Y12060824D01*
X-8249176Y11923347D01*
X-8087520Y11815332D01*
X-7907897Y11740930D01*
X-7717211Y11703000D01*
X-7522789Y11703000D01*
X-7332103Y11740930D01*
X-7152480Y11815332D01*
X-6990824Y11923347D01*
X-6853347Y12060824D01*
X-6824999Y12103249D01*
X-6824999Y10736751D01*
X-6853347Y10779176D01*
X-6990824Y10916653D01*
X-7152480Y11024668D01*
X-7332103Y11099070D01*
X-7522789Y11137000D01*
X-7717211Y11137000D01*
X-7907897Y11099070D01*
X-8087520Y11024668D01*
X-8249176Y10916653D01*
X-8386653Y10779176D01*
X-8494668Y10617520D01*
X-8569070Y10437897D01*
X-8607000Y10247211D01*
X-8607000Y10052789D01*
X-8569070Y9862103D01*
X-8494668Y9682480D01*
X-8386653Y9520824D01*
X-8249176Y9383347D01*
X-8087520Y9275332D01*
X-7907897Y9200930D01*
X-7717211Y9163000D01*
X-7522789Y9163000D01*
X-7332103Y9200930D01*
X-7152480Y9275332D01*
X-6990824Y9383347D01*
X-6853347Y9520824D01*
X-6825000Y9563249D01*
X-6825000Y8151856D01*
X-7366856Y7610000D01*
X-6825000Y7068144D01*
X-6825000Y5743750D01*
X-6870939Y5674997D01*
X-6906746Y5588552D01*
X-6921257Y5515599D01*
X-7366856Y5070000D01*
X-6816963Y4520107D01*
X-6684308Y4611436D01*
X-6612825Y4802792D01*
X-6582071Y4991965D01*
X-6496783Y4975000D01*
X-6403217Y4975000D01*
X-6311448Y4993254D01*
X-6275000Y5008352D01*
X-6275000Y3345937D01*
X-6352795Y3293956D01*
X-6418956Y3227795D01*
X-6470939Y3149997D01*
X-6506746Y3063552D01*
X-6525000Y2971783D01*
X-6525000Y2878217D01*
X-6506746Y2786448D01*
X-6470939Y2700003D01*
X-6418956Y2622205D01*
X-6352795Y2556044D01*
X-6274997Y2504061D01*
X-6188552Y2468254D01*
X-6096783Y2450000D01*
X-6003217Y2450000D01*
X-5911448Y2468254D01*
X-5825003Y2504061D01*
X-5747205Y2556044D01*
X-5687711Y2615538D01*
X-5687712Y-2025388D01*
X-5689431Y-2042844D01*
X-5687712Y-2060299D01*
X-5687712Y-2060306D01*
X-5684111Y-2096870D01*
X-5682567Y-2112544D01*
X-5662236Y-2179567D01*
X-5629220Y-2241335D01*
X-5597422Y-2280080D01*
X-5584788Y-2295475D01*
X-5571224Y-2306607D01*
X-5156609Y-2721223D01*
X-5145476Y-2734788D01*
X-5131913Y-2745919D01*
X-5131912Y-2745920D01*
X-5108990Y-2764732D01*
X-5091336Y-2779220D01*
X-5089492Y-2780205D01*
X-5070939Y-2824997D01*
X-5018956Y-2902795D01*
X-4952795Y-2968956D01*
X-4874997Y-3020939D01*
X-4788552Y-3056746D01*
X-4696783Y-3075000D01*
X-4603217Y-3075000D01*
X-4511448Y-3056746D01*
X-4474999Y-3041648D01*
X-4475000Y-4335277D01*
X-4476450Y-4350000D01*
X-4475000Y-4364723D01*
X-4475000Y-4364732D01*
X-4470659Y-4408809D01*
X-4453504Y-4465359D01*
X-4444745Y-4481746D01*
X-4425647Y-4517477D01*
X-4408642Y-4538198D01*
X-4388158Y-4563158D01*
X-4376710Y-4572553D01*
X-4135661Y-4813602D01*
X-4166190Y-4804341D01*
X-4210267Y-4800000D01*
X-4210277Y-4800000D01*
X-4225000Y-4798550D01*
X-4239723Y-4800000D01*
X-4929176Y-4800000D01*
X-4879061Y-4724997D01*
X-4843254Y-4638552D01*
X-4825000Y-4546783D01*
X-4825000Y-4453217D01*
X-4843254Y-4361448D01*
X-4879061Y-4275003D01*
X-4931044Y-4197205D01*
X-4997205Y-4131044D01*
X-5075003Y-4079061D01*
X-5161448Y-4043254D01*
X-5253217Y-4025000D01*
X-5346783Y-4025000D01*
X-5400000Y-4035586D01*
X-5400000Y-3978217D01*
X-5418254Y-3886448D01*
X-5454061Y-3800003D01*
X-5506044Y-3722205D01*
X-5572205Y-3656044D01*
X-5650003Y-3604061D01*
X-5736448Y-3568254D01*
X-5828217Y-3550000D01*
X-5921783Y-3550000D01*
X-5925081Y-3550656D01*
X-6050000Y-3425737D01*
X-6050000Y1245278D01*
X-6048550Y1260001D01*
X-6050000Y1274724D01*
X-6050000Y1274733D01*
X-6054341Y1318810D01*
X-6071496Y1375360D01*
X-6088651Y1407455D01*
X-6099353Y1427478D01*
X-6127451Y1461715D01*
X-6136842Y1473158D01*
X-6148285Y1482549D01*
X-6740319Y2074583D01*
X-6670930Y2242103D01*
X-6633000Y2432789D01*
X-6633000Y2627211D01*
X-6670930Y2817897D01*
X-6745332Y2997520D01*
X-6853347Y3159176D01*
X-6990824Y3296653D01*
X-7152480Y3404668D01*
X-7332103Y3479070D01*
X-7522789Y3517000D01*
X-7717211Y3517000D01*
X-7907897Y3479070D01*
X-8087520Y3404668D01*
X-8249176Y3296653D01*
X-8386653Y3159176D01*
X-8494668Y2997520D01*
X-8569070Y2817897D01*
X-8607000Y2627211D01*
X-8607000Y2432789D01*
X-8569070Y2242103D01*
X-8494668Y2062480D01*
X-8386653Y1900824D01*
X-8249176Y1763347D01*
X-8087520Y1655332D01*
X-7907897Y1580930D01*
X-7717211Y1543000D01*
X-7522789Y1543000D01*
X-7332103Y1580930D01*
X-7164583Y1650319D01*
X-6649999Y1135735D01*
X-6649999Y172671D01*
X-6670930Y277897D01*
X-6745332Y457520D01*
X-6853347Y619176D01*
X-6990824Y756653D01*
X-7152480Y864668D01*
X-7332103Y939070D01*
X-7522789Y977000D01*
X-7717211Y977000D01*
X-7907897Y939070D01*
X-8087520Y864668D01*
X-8249176Y756653D01*
X-8386653Y619176D01*
X-8494668Y457520D01*
X-8569070Y277897D01*
X-8607000Y87211D01*
X-8607000Y-107211D01*
X-8569070Y-297897D01*
X-8494668Y-477520D01*
X-8386653Y-639176D01*
X-8249176Y-776653D01*
X-8087520Y-884668D01*
X-7907897Y-959070D01*
X-7717211Y-997000D01*
X-7522789Y-997000D01*
X-7332103Y-959070D01*
X-7152480Y-884668D01*
X-6990824Y-776653D01*
X-6853347Y-639176D01*
X-6745332Y-477520D01*
X-6670930Y-297897D01*
X-6649999Y-192672D01*
X-6650000Y-2367326D01*
X-6670930Y-2262103D01*
X-6745332Y-2082480D01*
X-6853347Y-1920824D01*
X-6990824Y-1783347D01*
X-7152480Y-1675332D01*
X-7332103Y-1600930D01*
X-7522789Y-1563000D01*
X-7717211Y-1563000D01*
X-7907897Y-1600930D01*
X-8087520Y-1675332D01*
X-8249176Y-1783347D01*
X-8386653Y-1920824D01*
X-8494668Y-2082480D01*
X-8569070Y-2262103D01*
X-8607000Y-2452789D01*
X-8607000Y-2647211D01*
X-8569070Y-2837897D01*
X-8494668Y-3017520D01*
X-8386653Y-3179176D01*
X-8249176Y-3316653D01*
X-8087520Y-3424668D01*
X-7907897Y-3499070D01*
X-7717211Y-3537000D01*
X-7587263Y-3537000D01*
X-5822550Y-5301714D01*
X-5813158Y-5313158D01*
X-5801715Y-5322549D01*
X-5767478Y-5350647D01*
X-5747270Y-5361448D01*
X-5715360Y-5378504D01*
X-5658810Y-5395659D01*
X-5614733Y-5400000D01*
X-5614724Y-5400000D01*
X-5600001Y-5401450D01*
X-5585278Y-5400000D01*
X-4349263Y-5400000D01*
X-4299344Y-5449919D01*
X-4300000Y-5453217D01*
X-4300000Y-5546783D01*
X-4281746Y-5638552D01*
X-4245939Y-5724997D01*
X-4245937Y-5725000D01*
X-5335270Y-5725000D01*
X-5350000Y-5723549D01*
X-5364730Y-5725000D01*
X-5364733Y-5725000D01*
X-5408810Y-5729341D01*
X-5465360Y-5746496D01*
X-5517478Y-5774353D01*
X-5551714Y-5802450D01*
X-5563158Y-5811842D01*
X-5572549Y-5823285D01*
X-6326710Y-6577447D01*
X-6338158Y-6586842D01*
X-6351596Y-6603217D01*
X-6375647Y-6632523D01*
X-6377114Y-6635268D01*
X-6403504Y-6684641D01*
X-6420659Y-6741191D01*
X-6425000Y-6785268D01*
X-6425000Y-6785277D01*
X-6426450Y-6800000D01*
X-6425000Y-6814723D01*
X-6424999Y-7885267D01*
X-6426450Y-7900000D01*
X-6424999Y-7914733D01*
X-6421801Y-7947205D01*
X-6420658Y-7958810D01*
X-6403503Y-8015360D01*
X-6375647Y-8067477D01*
X-6347549Y-8101714D01*
X-6338157Y-8113158D01*
X-6326715Y-8122548D01*
X-4999344Y-9449920D01*
X-5000000Y-9453217D01*
X-5000000Y-9546783D01*
X-4981746Y-9638552D01*
X-4977004Y-9650000D01*
X-6780398Y-9650000D01*
X-6853347Y-9540824D01*
X-6990824Y-9403347D01*
X-7152480Y-9295332D01*
X-7332103Y-9220930D01*
X-7522789Y-9183000D01*
X-7717211Y-9183000D01*
X-7907897Y-9220930D01*
X-8087520Y-9295332D01*
X-8249176Y-9403347D01*
X-8386653Y-9540824D01*
X-8494668Y-9702480D01*
X-8569070Y-9882103D01*
X-8607000Y-10072789D01*
X-8607000Y-10267211D01*
X-8569070Y-10457897D01*
X-8494668Y-10637520D01*
X-8386653Y-10799176D01*
X-8249176Y-10936653D01*
X-8087520Y-11044668D01*
X-7907897Y-11119070D01*
X-7717211Y-11157000D01*
X-7522789Y-11157000D01*
X-7332103Y-11119070D01*
X-7152480Y-11044668D01*
X-6990824Y-10936653D01*
X-6853347Y-10799176D01*
X-6745332Y-10637520D01*
X-6670930Y-10457897D01*
X-6633000Y-10267211D01*
X-6633000Y-10250000D01*
X-4339723Y-10250000D01*
X-4325000Y-10251450D01*
X-4310277Y-10250000D01*
X-4310267Y-10250000D01*
X-4266190Y-10245659D01*
X-4226088Y-10233494D01*
X-4226088Y-11075000D01*
X-6160278Y-11075000D01*
X-6175001Y-11073550D01*
X-6189724Y-11075000D01*
X-6189733Y-11075000D01*
X-6233810Y-11079341D01*
X-6290360Y-11096496D01*
X-6314621Y-11109464D01*
X-6342478Y-11124353D01*
X-6366549Y-11144108D01*
X-6388158Y-11161842D01*
X-6397549Y-11173285D01*
X-6549263Y-11325000D01*
X-8770000Y-11325000D01*
X-8770000Y-7532789D01*
X-8607000Y-7532789D01*
X-8607000Y-7727211D01*
X-8569070Y-7917897D01*
X-8494668Y-8097520D01*
X-8386653Y-8259176D01*
X-8249176Y-8396653D01*
X-8087520Y-8504668D01*
X-7907897Y-8579070D01*
X-7717211Y-8617000D01*
X-7522789Y-8617000D01*
X-7332103Y-8579070D01*
X-7152480Y-8504668D01*
X-6990824Y-8396653D01*
X-6853347Y-8259176D01*
X-6745332Y-8097520D01*
X-6670930Y-7917897D01*
X-6633000Y-7727211D01*
X-6633000Y-7532789D01*
X-6670930Y-7342103D01*
X-6745332Y-7162480D01*
X-6853347Y-7000824D01*
X-6990824Y-6863347D01*
X-7152480Y-6755332D01*
X-7332103Y-6680930D01*
X-7522789Y-6643000D01*
X-7717211Y-6643000D01*
X-7907897Y-6680930D01*
X-8087520Y-6755332D01*
X-8249176Y-6863347D01*
X-8386653Y-7000824D01*
X-8494668Y-7162480D01*
X-8569070Y-7342103D01*
X-8607000Y-7532789D01*
X-8770000Y-7532789D01*
X-8770000Y-4992789D01*
X-8607000Y-4992789D01*
X-8607000Y-5187211D01*
X-8569070Y-5377897D01*
X-8494668Y-5557520D01*
X-8386653Y-5719176D01*
X-8249176Y-5856653D01*
X-8087520Y-5964668D01*
X-7907897Y-6039070D01*
X-7717211Y-6077000D01*
X-7522789Y-6077000D01*
X-7332103Y-6039070D01*
X-7152480Y-5964668D01*
X-6990824Y-5856653D01*
X-6853347Y-5719176D01*
X-6745332Y-5557520D01*
X-6670930Y-5377897D01*
X-6633000Y-5187211D01*
X-6633000Y-4992789D01*
X-6670930Y-4802103D01*
X-6745332Y-4622480D01*
X-6853347Y-4460824D01*
X-6990824Y-4323347D01*
X-7152480Y-4215332D01*
X-7332103Y-4140930D01*
X-7522789Y-4103000D01*
X-7717211Y-4103000D01*
X-7907897Y-4140930D01*
X-8087520Y-4215332D01*
X-8249176Y-4323347D01*
X-8386653Y-4460824D01*
X-8494668Y-4622480D01*
X-8569070Y-4802103D01*
X-8607000Y-4992789D01*
X-8770000Y-4992789D01*
X-8770000Y-2076364D01*
X-8766441Y-2064632D01*
X-8765000Y-2050000D01*
X-8765000Y2050000D01*
X-8766441Y2064632D01*
X-8770000Y2076364D01*
X-8770000Y4266963D01*
X-8169893Y4266963D01*
X-8078564Y4134308D01*
X-7887208Y4062825D01*
X-7685583Y4030047D01*
X-7481438Y4037235D01*
X-7282618Y4084112D01*
X-7161436Y4134308D01*
X-7070107Y4266963D01*
X-7620000Y4816856D01*
X-8169893Y4266963D01*
X-8770000Y4266963D01*
X-8770000Y5135583D01*
X-8659953Y5135583D01*
X-8652765Y4931438D01*
X-8605888Y4732618D01*
X-8555692Y4611436D01*
X-8423037Y4520107D01*
X-7873144Y5070000D01*
X-8423037Y5619893D01*
X-8555692Y5528564D01*
X-8627175Y5337208D01*
X-8659953Y5135583D01*
X-8770000Y5135583D01*
X-8770000Y5873037D01*
X-8169893Y5873037D01*
X-7620000Y5323144D01*
X-7070107Y5873037D01*
X-7161436Y6005692D01*
X-7352792Y6077175D01*
X-7554417Y6109953D01*
X-7758562Y6102765D01*
X-7957382Y6055888D01*
X-8078564Y6005692D01*
X-8169893Y5873037D01*
X-8770000Y5873037D01*
X-8770000Y6806963D01*
X-8169893Y6806963D01*
X-8078564Y6674308D01*
X-7887208Y6602825D01*
X-7685583Y6570047D01*
X-7481438Y6577235D01*
X-7282618Y6624112D01*
X-7161436Y6674308D01*
X-7070107Y6806963D01*
X-7620000Y7356856D01*
X-8169893Y6806963D01*
X-8770000Y6806963D01*
X-8770000Y7675583D01*
X-8659953Y7675583D01*
X-8652765Y7471438D01*
X-8605888Y7272618D01*
X-8555692Y7151436D01*
X-8423037Y7060107D01*
X-7873144Y7610000D01*
X-8423037Y8159893D01*
X-8555692Y8068564D01*
X-8627175Y7877208D01*
X-8659953Y7675583D01*
X-8770000Y7675583D01*
X-8770000Y8413037D01*
X-8169893Y8413037D01*
X-7620000Y7863144D01*
X-7070107Y8413037D01*
X-7161436Y8545692D01*
X-7352792Y8617175D01*
X-7554417Y8649953D01*
X-7758562Y8642765D01*
X-7957382Y8595888D01*
X-8078564Y8545692D01*
X-8169893Y8413037D01*
X-8770000Y8413037D01*
X-8770000Y15237771D01*
X-8746922Y15473137D01*
X-8682119Y15687775D01*
X-8576860Y15885739D01*
X-8435156Y16059485D01*
X-8262402Y16202399D01*
X-8065181Y16309036D01*
X-7850994Y16375338D01*
X-7616352Y16400000D01*
X-6162624Y16400000D01*
X-6180731Y16377936D01*
G37*
%TD.AperFunction*%
D19*
X7843137Y16376922D02*
X8057775Y16312119D01*
X8255739Y16206860D01*
X8429485Y16065156D01*
X8572399Y15892402D01*
X8679036Y15695181D01*
X8745338Y15480994D01*
X8770000Y15246352D01*
X8770001Y2076367D01*
X8766441Y2064632D01*
X8765000Y2050000D01*
X8765000Y-2050000D01*
X8766441Y-2064632D01*
X8770000Y-2076364D01*
X8770001Y-11325000D01*
X6800000Y-11325000D01*
X6800000Y-10719337D01*
X6853347Y-10799176D01*
X6990824Y-10936653D01*
X7152480Y-11044668D01*
X7332103Y-11119070D01*
X7522789Y-11157000D01*
X7717211Y-11157000D01*
X7907897Y-11119070D01*
X8087520Y-11044668D01*
X8249176Y-10936653D01*
X8386653Y-10799176D01*
X8494668Y-10637520D01*
X8569070Y-10457897D01*
X8607000Y-10267211D01*
X8607000Y-10072789D01*
X8569070Y-9882103D01*
X8494668Y-9702480D01*
X8386653Y-9540824D01*
X8249176Y-9403347D01*
X8087520Y-9295332D01*
X7907897Y-9220930D01*
X7717211Y-9183000D01*
X7522789Y-9183000D01*
X7332103Y-9220930D01*
X7306004Y-9231740D01*
X5547553Y-7473290D01*
X5538158Y-7461842D01*
X5492477Y-7424353D01*
X5440360Y-7396496D01*
X5383810Y-7379341D01*
X5339733Y-7375000D01*
X5339723Y-7375000D01*
X5325000Y-7373550D01*
X5310277Y-7375000D01*
X3274264Y-7375000D01*
X3050000Y-7150737D01*
X3050000Y-6720824D01*
X3052795Y-6718956D01*
X3118956Y-6652795D01*
X3170939Y-6574997D01*
X3206746Y-6488552D01*
X3225000Y-6396783D01*
X3225000Y-6303217D01*
X3206746Y-6211448D01*
X3170939Y-6125003D01*
X3118956Y-6047205D01*
X3052795Y-5981044D01*
X2974997Y-5929061D01*
X2888552Y-5893254D01*
X2796783Y-5875000D01*
X2703217Y-5875000D01*
X2611448Y-5893254D01*
X2525003Y-5929061D01*
X2500000Y-5945767D01*
X2500000Y-4678217D01*
X3300000Y-4678217D01*
X3300000Y-4771783D01*
X3318254Y-4863552D01*
X3354061Y-4949997D01*
X3406044Y-5027795D01*
X3472205Y-5093956D01*
X3550003Y-5145939D01*
X3636448Y-5181746D01*
X3728217Y-5200000D01*
X3636448Y-5218254D01*
X3550003Y-5254061D01*
X3472205Y-5306044D01*
X3406044Y-5372205D01*
X3354061Y-5450003D01*
X3318254Y-5536448D01*
X3300000Y-5628217D01*
X3300000Y-5721783D01*
X3318254Y-5813552D01*
X3354061Y-5899997D01*
X3406044Y-5977795D01*
X3472205Y-6043956D01*
X3550003Y-6095939D01*
X3636448Y-6131746D01*
X3728217Y-6150000D01*
X3821783Y-6150000D01*
X3913552Y-6131746D01*
X3999997Y-6095939D01*
X4077795Y-6043956D01*
X4143956Y-5977795D01*
X4145824Y-5975000D01*
X5540737Y-5975000D01*
X6740319Y-7174583D01*
X6670930Y-7342103D01*
X6633000Y-7532789D01*
X6633000Y-7727211D01*
X6670930Y-7917897D01*
X6745332Y-8097520D01*
X6853347Y-8259176D01*
X6990824Y-8396653D01*
X7152480Y-8504668D01*
X7332103Y-8579070D01*
X7522789Y-8617000D01*
X7717211Y-8617000D01*
X7907897Y-8579070D01*
X8087520Y-8504668D01*
X8249176Y-8396653D01*
X8386653Y-8259176D01*
X8494668Y-8097520D01*
X8569070Y-7917897D01*
X8607000Y-7727211D01*
X8607000Y-7532789D01*
X8569070Y-7342103D01*
X8494668Y-7162480D01*
X8386653Y-7000824D01*
X8249176Y-6863347D01*
X8087520Y-6755332D01*
X7907897Y-6680930D01*
X7717211Y-6643000D01*
X7522789Y-6643000D01*
X7332103Y-6680930D01*
X7164583Y-6750319D01*
X5887553Y-5473290D01*
X5878158Y-5461842D01*
X5832477Y-5424353D01*
X5780360Y-5396496D01*
X5723810Y-5379341D01*
X5679733Y-5375000D01*
X5679723Y-5375000D01*
X5665000Y-5373550D01*
X5650277Y-5375000D01*
X4145824Y-5375000D01*
X4143956Y-5372205D01*
X4077795Y-5306044D01*
X3999997Y-5254061D01*
X3913552Y-5218254D01*
X3821783Y-5200000D01*
X3913552Y-5181746D01*
X3999997Y-5145939D01*
X4077795Y-5093956D01*
X4143956Y-5027795D01*
X4145824Y-5025000D01*
X6633000Y-5025000D01*
X6633000Y-5187211D01*
X6670930Y-5377897D01*
X6745332Y-5557520D01*
X6853347Y-5719176D01*
X6990824Y-5856653D01*
X7152480Y-5964668D01*
X7332103Y-6039070D01*
X7522789Y-6077000D01*
X7717211Y-6077000D01*
X7907897Y-6039070D01*
X8087520Y-5964668D01*
X8249176Y-5856653D01*
X8386653Y-5719176D01*
X8494668Y-5557520D01*
X8569070Y-5377897D01*
X8607000Y-5187211D01*
X8607000Y-4992789D01*
X8569070Y-4802103D01*
X8494668Y-4622480D01*
X8386653Y-4460824D01*
X8249176Y-4323347D01*
X8087520Y-4215332D01*
X7907897Y-4140930D01*
X7717211Y-4103000D01*
X7522789Y-4103000D01*
X7332103Y-4140930D01*
X7152480Y-4215332D01*
X6990824Y-4323347D01*
X6889171Y-4425000D01*
X4671751Y-4425000D01*
X4693956Y-4402795D01*
X4745939Y-4324997D01*
X4781746Y-4238552D01*
X4800000Y-4146783D01*
X4800000Y-4053217D01*
X4781746Y-3961448D01*
X4745939Y-3875003D01*
X4693956Y-3797205D01*
X4627795Y-3731044D01*
X4549997Y-3679061D01*
X4463552Y-3643254D01*
X4371783Y-3625000D01*
X4278217Y-3625000D01*
X4186448Y-3643254D01*
X4100003Y-3679061D01*
X4022205Y-3731044D01*
X3956044Y-3797205D01*
X3904061Y-3875003D01*
X3868254Y-3961448D01*
X3850000Y-4053217D01*
X3850000Y-4146783D01*
X3868254Y-4238552D01*
X3877594Y-4261102D01*
X3821783Y-4250000D01*
X3728217Y-4250000D01*
X3636448Y-4268254D01*
X3550003Y-4304061D01*
X3472205Y-4356044D01*
X3406044Y-4422205D01*
X3354061Y-4500003D01*
X3318254Y-4586448D01*
X3300000Y-4678217D01*
X2500000Y-4678217D01*
X2500000Y-3774263D01*
X3501716Y-2772547D01*
X3513158Y-2763158D01*
X3527305Y-2745920D01*
X3550647Y-2717478D01*
X3572576Y-2676450D01*
X3578504Y-2665360D01*
X3595659Y-2608810D01*
X3600000Y-2564733D01*
X3600000Y-2564723D01*
X3601450Y-2550000D01*
X3600000Y-2535277D01*
X3600000Y-2452789D01*
X6633000Y-2452789D01*
X6633000Y-2647211D01*
X6670930Y-2837897D01*
X6745332Y-3017520D01*
X6853347Y-3179176D01*
X6990824Y-3316653D01*
X7152480Y-3424668D01*
X7332103Y-3499070D01*
X7522789Y-3537000D01*
X7717211Y-3537000D01*
X7907897Y-3499070D01*
X8087520Y-3424668D01*
X8249176Y-3316653D01*
X8386653Y-3179176D01*
X8494668Y-3017520D01*
X8569070Y-2837897D01*
X8607000Y-2647211D01*
X8607000Y-2452789D01*
X8569070Y-2262103D01*
X8494668Y-2082480D01*
X8386653Y-1920824D01*
X8249176Y-1783347D01*
X8087520Y-1675332D01*
X7907897Y-1600930D01*
X7717211Y-1563000D01*
X7522789Y-1563000D01*
X7332103Y-1600930D01*
X7152480Y-1675332D01*
X6990824Y-1783347D01*
X6853347Y-1920824D01*
X6745332Y-2082480D01*
X6670930Y-2262103D01*
X6633000Y-2452789D01*
X3600000Y-2452789D01*
X3600000Y-2170824D01*
X3602795Y-2168956D01*
X3668956Y-2102795D01*
X3720939Y-2024997D01*
X3756746Y-1938552D01*
X3775000Y-1846783D01*
X3775000Y-1753217D01*
X3756746Y-1661448D01*
X3720939Y-1575003D01*
X3668956Y-1497205D01*
X3602795Y-1431044D01*
X3524997Y-1379061D01*
X3438552Y-1343254D01*
X3346783Y-1325000D01*
X3253217Y-1325000D01*
X3161448Y-1343254D01*
X3075003Y-1379061D01*
X2997205Y-1431044D01*
X2931044Y-1497205D01*
X2879061Y-1575003D01*
X2843254Y-1661448D01*
X2825000Y-1753217D01*
X2825000Y-1846783D01*
X2843254Y-1938552D01*
X2879061Y-2024997D01*
X2931044Y-2102795D01*
X2997205Y-2168956D01*
X3000001Y-2170824D01*
X3000000Y-2425736D01*
X1998285Y-3427452D01*
X1986843Y-3436842D01*
X1977452Y-3448285D01*
X1977451Y-3448286D01*
X1949353Y-3482523D01*
X1921497Y-3534640D01*
X1904342Y-3591190D01*
X1898550Y-3650000D01*
X1900001Y-3664733D01*
X1900000Y-7435586D01*
X1861448Y-7443254D01*
X1775003Y-7479061D01*
X1697205Y-7531044D01*
X1631044Y-7597205D01*
X1579061Y-7675003D01*
X1543254Y-7761448D01*
X1525000Y-7853217D01*
X1525000Y-7946783D01*
X1538397Y-8014133D01*
X872201Y-7347938D01*
X920939Y-7274997D01*
X956746Y-7188552D01*
X975000Y-7096783D01*
X975000Y-7003217D01*
X956746Y-6911448D01*
X920939Y-6825003D01*
X868956Y-6747205D01*
X802795Y-6681044D01*
X724997Y-6629061D01*
X638552Y-6593254D01*
X546783Y-6575000D01*
X453217Y-6575000D01*
X420675Y-6581473D01*
X406746Y-6511448D01*
X370939Y-6425003D01*
X318956Y-6347205D01*
X252795Y-6281044D01*
X174997Y-6229061D01*
X88552Y-6193254D01*
X-3217Y-6175000D01*
X-96783Y-6175000D01*
X-188552Y-6193254D01*
X-274997Y-6229061D01*
X-352795Y-6281044D01*
X-418956Y-6347205D01*
X-470939Y-6425003D01*
X-506746Y-6511448D01*
X-525000Y-6603217D01*
X-525000Y-6696783D01*
X-506746Y-6788552D01*
X-470939Y-6874997D01*
X-418956Y-6952795D01*
X-352795Y-7018956D01*
X-349999Y-7020824D01*
X-349999Y-7235268D01*
X-351450Y-7250000D01*
X-345658Y-7308810D01*
X-328503Y-7365360D01*
X-300647Y-7417477D01*
X-272549Y-7451714D01*
X-263157Y-7463158D01*
X-251715Y-7472548D01*
X1102451Y-8826715D01*
X1111842Y-8838158D01*
X1123285Y-8847549D01*
X1123286Y-8847550D01*
X1157522Y-8875647D01*
X1197066Y-8896783D01*
X1209640Y-8903504D01*
X1266190Y-8920659D01*
X1310267Y-8925000D01*
X1310270Y-8925000D01*
X1325000Y-8926451D01*
X1339730Y-8925000D01*
X2535277Y-8925000D01*
X2550000Y-8926450D01*
X2564723Y-8925000D01*
X2564733Y-8925000D01*
X2608810Y-8920659D01*
X2665360Y-8903504D01*
X2717477Y-8875647D01*
X2763158Y-8838158D01*
X2772553Y-8826710D01*
X3074264Y-8525000D01*
X4950737Y-8525000D01*
X5900000Y-9474264D01*
X5900000Y-11325000D01*
X-500735Y-11325000D01*
X-498280Y-11322545D01*
X-486842Y-11313158D01*
X-477456Y-11301721D01*
X-477450Y-11301715D01*
X-449353Y-11267478D01*
X-421496Y-11215361D01*
X-412747Y-11186520D01*
X-404341Y-11158810D01*
X-400000Y-11114733D01*
X-400000Y-11114730D01*
X-398549Y-11100000D01*
X-400000Y-11085270D01*
X-400000Y-10859442D01*
X-386448Y-10856746D01*
X-300003Y-10820939D01*
X-222205Y-10768956D01*
X-156044Y-10702795D01*
X-104061Y-10624997D01*
X-68254Y-10538552D01*
X-50000Y-10446783D01*
X-50000Y-10353217D01*
X-68254Y-10261448D01*
X-104061Y-10175003D01*
X-156044Y-10097205D01*
X-222205Y-10031044D01*
X-300003Y-9979061D01*
X-386448Y-9943254D01*
X-478217Y-9925000D01*
X-571783Y-9925000D01*
X-663552Y-9943254D01*
X-749997Y-9979061D01*
X-793855Y-10008366D01*
X-812015Y-9974392D01*
X-840132Y-9940132D01*
X-874392Y-9912015D01*
X-913480Y-9891122D01*
X-950000Y-9880043D01*
X-950000Y-8564730D01*
X-948549Y-8550000D01*
X-950000Y-8535267D01*
X-954341Y-8491190D01*
X-970429Y-8438158D01*
X-971496Y-8434639D01*
X-999353Y-8382522D01*
X-1027451Y-8348285D01*
X-1036842Y-8336842D01*
X-1048284Y-8327452D01*
X-1275656Y-8100081D01*
X-1275000Y-8096783D01*
X-1275000Y-8003217D01*
X-1293254Y-7911448D01*
X-1329061Y-7825003D01*
X-1381044Y-7747205D01*
X-1447205Y-7681044D01*
X-1525003Y-7629061D01*
X-1611448Y-7593254D01*
X-1703217Y-7575000D01*
X-1796783Y-7575000D01*
X-1888552Y-7593254D01*
X-1974997Y-7629061D01*
X-2052795Y-7681044D01*
X-2118956Y-7747205D01*
X-2170939Y-7825003D01*
X-2206746Y-7911448D01*
X-2225000Y-8003217D01*
X-2225000Y-8096783D01*
X-2206746Y-8188552D01*
X-2170939Y-8274997D01*
X-2118956Y-8352795D01*
X-2052795Y-8418956D01*
X-2006334Y-8450000D01*
X-2052795Y-8481044D01*
X-2118956Y-8547205D01*
X-2120824Y-8550000D01*
X-2185270Y-8550000D01*
X-2200000Y-8548549D01*
X-2214730Y-8550000D01*
X-2214733Y-8550000D01*
X-2258810Y-8554341D01*
X-2315360Y-8571496D01*
X-2367478Y-8599353D01*
X-2398732Y-8625003D01*
X-2413158Y-8636842D01*
X-2422549Y-8648285D01*
X-2450000Y-8675736D01*
X-2450000Y-4249263D01*
X-1548285Y-3347549D01*
X-1536842Y-3338158D01*
X-1522481Y-3320659D01*
X-1499353Y-3292478D01*
X-1471496Y-3240360D01*
X-1467357Y-3226715D01*
X-1454341Y-3183810D01*
X-1450000Y-3139733D01*
X-1450000Y-3139730D01*
X-1448549Y-3125000D01*
X-1450000Y-3110270D01*
X-1450000Y-2224360D01*
X-1361448Y-2206746D01*
X-1275003Y-2170939D01*
X-1197205Y-2118956D01*
X-1131044Y-2052795D01*
X-1079061Y-1974997D01*
X-1043254Y-1888552D01*
X-1025000Y-1796783D01*
X-1025000Y-1703217D01*
X-1043254Y-1611448D01*
X-1068707Y-1550000D01*
X-114723Y-1550000D01*
X-100000Y-1551450D01*
X-85277Y-1550000D01*
X-85267Y-1550000D01*
X-41190Y-1545659D01*
X15360Y-1528504D01*
X67477Y-1500647D01*
X113158Y-1463158D01*
X122553Y-1451710D01*
X537420Y-1036844D01*
X540717Y-1037500D01*
X634283Y-1037500D01*
X726052Y-1019246D01*
X812497Y-983439D01*
X890295Y-931456D01*
X956456Y-865295D01*
X1008439Y-787497D01*
X1044246Y-701052D01*
X1050453Y-669846D01*
X1057522Y-675647D01*
X1109639Y-703504D01*
X1122801Y-707497D01*
X1166190Y-720659D01*
X1210267Y-725000D01*
X1210270Y-725000D01*
X1225000Y-726451D01*
X1239730Y-725000D01*
X5510277Y-725000D01*
X5525000Y-726450D01*
X5539723Y-725000D01*
X5539733Y-725000D01*
X5583810Y-720659D01*
X5640360Y-703504D01*
X5692477Y-675647D01*
X5738158Y-638158D01*
X5747553Y-626710D01*
X6401716Y27452D01*
X6413158Y36842D01*
X6434755Y63158D01*
X6450647Y82522D01*
X6453153Y87211D01*
X6633000Y87211D01*
X6633000Y-107211D01*
X6670930Y-297897D01*
X6745332Y-477520D01*
X6853347Y-639176D01*
X6990824Y-776653D01*
X7152480Y-884668D01*
X7332103Y-959070D01*
X7522789Y-997000D01*
X7717211Y-997000D01*
X7907897Y-959070D01*
X8087520Y-884668D01*
X8249176Y-776653D01*
X8386653Y-639176D01*
X8494668Y-477520D01*
X8569070Y-297897D01*
X8607000Y-107211D01*
X8607000Y87211D01*
X8569070Y277897D01*
X8494668Y457520D01*
X8386653Y619176D01*
X8249176Y756653D01*
X8087520Y864668D01*
X7907897Y939070D01*
X7717211Y977000D01*
X7522789Y977000D01*
X7332103Y939070D01*
X7152480Y864668D01*
X6990824Y756653D01*
X6853347Y619176D01*
X6745332Y457520D01*
X6670930Y277897D01*
X6633000Y87211D01*
X6453153Y87211D01*
X6465536Y110379D01*
X6478504Y134640D01*
X6495659Y191190D01*
X6500000Y235267D01*
X6500000Y235276D01*
X6501450Y249999D01*
X6500000Y264722D01*
X6500000Y2627211D01*
X6633000Y2627211D01*
X6633000Y2432789D01*
X6670930Y2242103D01*
X6745332Y2062480D01*
X6853347Y1900824D01*
X6990824Y1763347D01*
X7152480Y1655332D01*
X7332103Y1580930D01*
X7522789Y1543000D01*
X7717211Y1543000D01*
X7907897Y1580930D01*
X8087520Y1655332D01*
X8249176Y1763347D01*
X8386653Y1900824D01*
X8494668Y2062480D01*
X8569070Y2242103D01*
X8607000Y2432789D01*
X8607000Y2627211D01*
X8569070Y2817897D01*
X8494668Y2997520D01*
X8386653Y3159176D01*
X8249176Y3296653D01*
X8087520Y3404668D01*
X7907897Y3479070D01*
X7717211Y3517000D01*
X7522789Y3517000D01*
X7332103Y3479070D01*
X7152480Y3404668D01*
X6990824Y3296653D01*
X6853347Y3159176D01*
X6745332Y2997520D01*
X6670930Y2817897D01*
X6633000Y2627211D01*
X6500000Y2627211D01*
X6500000Y5167211D01*
X6633000Y5167211D01*
X6633000Y4972789D01*
X6670930Y4782103D01*
X6745332Y4602480D01*
X6853347Y4440824D01*
X6990824Y4303347D01*
X7152480Y4195332D01*
X7332103Y4120930D01*
X7522789Y4083000D01*
X7717211Y4083000D01*
X7907897Y4120930D01*
X8087520Y4195332D01*
X8249176Y4303347D01*
X8386653Y4440824D01*
X8494668Y4602480D01*
X8569070Y4782103D01*
X8607000Y4972789D01*
X8607000Y5167211D01*
X8569070Y5357897D01*
X8494668Y5537520D01*
X8386653Y5699176D01*
X8249176Y5836653D01*
X8087520Y5944668D01*
X7907897Y6019070D01*
X7717211Y6057000D01*
X7522789Y6057000D01*
X7332103Y6019070D01*
X7152480Y5944668D01*
X6990824Y5836653D01*
X6853347Y5699176D01*
X6745332Y5537520D01*
X6670930Y5357897D01*
X6633000Y5167211D01*
X6500000Y5167211D01*
X6500000Y7025737D01*
X6707669Y7233406D01*
X6745332Y7142480D01*
X6853347Y6980824D01*
X6990824Y6843347D01*
X7152480Y6735332D01*
X7332103Y6660930D01*
X7522789Y6623000D01*
X7717211Y6623000D01*
X7907897Y6660930D01*
X8087520Y6735332D01*
X8249176Y6843347D01*
X8386653Y6980824D01*
X8494668Y7142480D01*
X8569070Y7322103D01*
X8607000Y7512789D01*
X8607000Y7707211D01*
X8569070Y7897897D01*
X8494668Y8077520D01*
X8386653Y8239176D01*
X8249176Y8376653D01*
X8087520Y8484668D01*
X7907897Y8559070D01*
X7717211Y8597000D01*
X7522789Y8597000D01*
X7332103Y8559070D01*
X7152480Y8484668D01*
X6990824Y8376653D01*
X6853347Y8239176D01*
X6745332Y8077520D01*
X6675943Y7910000D01*
X6674722Y7910000D01*
X6659999Y7911450D01*
X6645276Y7910000D01*
X6645267Y7910000D01*
X6601190Y7905659D01*
X6544640Y7888504D01*
X6520379Y7875536D01*
X6492522Y7860647D01*
X6458285Y7832549D01*
X6446842Y7823158D01*
X6437451Y7811715D01*
X5998285Y7372548D01*
X5986843Y7363158D01*
X5977452Y7351715D01*
X5977451Y7351714D01*
X5949353Y7317477D01*
X5921497Y7265360D01*
X5904342Y7208810D01*
X5898550Y7150000D01*
X5900001Y7135267D01*
X5900001Y4449263D01*
X5649344Y4699919D01*
X5650000Y4703217D01*
X5650000Y4796783D01*
X5631746Y4888552D01*
X5595939Y4974997D01*
X5543956Y5052795D01*
X5477795Y5118956D01*
X5399997Y5170939D01*
X5313552Y5206746D01*
X5221783Y5225000D01*
X5128217Y5225000D01*
X5036448Y5206746D01*
X4950003Y5170939D01*
X4872205Y5118956D01*
X4806044Y5052795D01*
X4766648Y4993834D01*
X4743956Y5027795D01*
X4677795Y5093956D01*
X4599997Y5145939D01*
X4513552Y5181746D01*
X4421783Y5200000D01*
X4328217Y5200000D01*
X4236448Y5181746D01*
X4150003Y5145939D01*
X4072205Y5093956D01*
X4006044Y5027795D01*
X3954061Y4949997D01*
X3918254Y4863552D01*
X3900000Y4771783D01*
X3900000Y4678217D01*
X3918254Y4586448D01*
X3954061Y4500003D01*
X4006044Y4422205D01*
X4072205Y4356044D01*
X4150003Y4304061D01*
X4236448Y4268254D01*
X4328217Y4250000D01*
X4421783Y4250000D01*
X4513552Y4268254D01*
X4599997Y4304061D01*
X4677795Y4356044D01*
X4743956Y4422205D01*
X4783352Y4481166D01*
X4806044Y4447205D01*
X4872205Y4381044D01*
X4950003Y4329061D01*
X5036448Y4293254D01*
X5128217Y4275000D01*
X5221783Y4275000D01*
X5225081Y4275656D01*
X5600000Y3900736D01*
X5600001Y499265D01*
X5250737Y150000D01*
X2421751Y150000D01*
X2443956Y172205D01*
X2495939Y250003D01*
X2531746Y336448D01*
X2550000Y428217D01*
X2550000Y521783D01*
X2531746Y613552D01*
X2495939Y699997D01*
X2443956Y777795D01*
X2377795Y843956D01*
X2299997Y895939D01*
X2213552Y931746D01*
X2121783Y950000D01*
X2028217Y950000D01*
X1936448Y931746D01*
X1850003Y895939D01*
X1772205Y843956D01*
X1706044Y777795D01*
X1654061Y699997D01*
X1618254Y613552D01*
X1600000Y521783D01*
X1600000Y428217D01*
X1618254Y336448D01*
X1654061Y250003D01*
X1706044Y172205D01*
X1728249Y150000D01*
X1461764Y150000D01*
X1210053Y401710D01*
X1200658Y413158D01*
X1154977Y450647D01*
X1102860Y478504D01*
X1046310Y495659D01*
X1002233Y500000D01*
X1002223Y500000D01*
X987500Y501450D01*
X972777Y500000D01*
X314722Y500000D01*
X299999Y501450D01*
X285276Y500000D01*
X285267Y500000D01*
X275000Y498989D01*
X275000Y860270D01*
X276451Y875000D01*
X275000Y889733D01*
X270659Y933810D01*
X253504Y990360D01*
X241423Y1012962D01*
X225647Y1042478D01*
X197550Y1076714D01*
X197549Y1076715D01*
X188158Y1088158D01*
X176715Y1097549D01*
X-500000Y1774263D01*
X-500000Y5125737D01*
X-275736Y5350000D01*
X1335277Y5350000D01*
X1350000Y5348550D01*
X1364723Y5350000D01*
X1364733Y5350000D01*
X1408810Y5354341D01*
X1465360Y5371496D01*
X1517477Y5399353D01*
X1563158Y5436842D01*
X1572553Y5448290D01*
X1851716Y5727452D01*
X1863158Y5736842D01*
X1876250Y5752795D01*
X1900647Y5782522D01*
X1919330Y5817477D01*
X1922203Y5822852D01*
X1956044Y5772205D01*
X2022205Y5706044D01*
X2100003Y5654061D01*
X2186448Y5618254D01*
X2278217Y5600000D01*
X2371783Y5600000D01*
X2463552Y5618254D01*
X2549997Y5654061D01*
X2627795Y5706044D01*
X2693956Y5772205D01*
X2745939Y5850003D01*
X2781746Y5936448D01*
X2793747Y5996783D01*
X4625000Y5996783D01*
X4625000Y5903217D01*
X4643254Y5811448D01*
X4679061Y5725003D01*
X4731044Y5647205D01*
X4797205Y5581044D01*
X4875003Y5529061D01*
X4961448Y5493254D01*
X5053217Y5475000D01*
X5146783Y5475000D01*
X5238552Y5493254D01*
X5324997Y5529061D01*
X5402795Y5581044D01*
X5468956Y5647205D01*
X5520939Y5725003D01*
X5556746Y5811448D01*
X5575000Y5903217D01*
X5575000Y5996783D01*
X5556746Y6088552D01*
X5520939Y6174997D01*
X5468956Y6252795D01*
X5402795Y6318956D01*
X5324997Y6370939D01*
X5238552Y6406746D01*
X5146783Y6425000D01*
X5053217Y6425000D01*
X4961448Y6406746D01*
X4875003Y6370939D01*
X4797205Y6318956D01*
X4731044Y6252795D01*
X4679061Y6174997D01*
X4643254Y6088552D01*
X4625000Y5996783D01*
X2793747Y5996783D01*
X2800000Y6028217D01*
X2800000Y6121783D01*
X2799344Y6125081D01*
X3326715Y6652451D01*
X3338158Y6661842D01*
X3347549Y6673285D01*
X3375647Y6707522D01*
X3400071Y6753217D01*
X3403504Y6759640D01*
X3420659Y6816190D01*
X3425000Y6860267D01*
X3425000Y6860279D01*
X3426450Y6874999D01*
X3425000Y6889719D01*
X3425000Y7300737D01*
X4699920Y8575656D01*
X4703217Y8575000D01*
X4796783Y8575000D01*
X4888552Y8593254D01*
X4974997Y8629061D01*
X5052795Y8681044D01*
X5118956Y8747205D01*
X5170939Y8825003D01*
X5206746Y8911448D01*
X5225000Y9003217D01*
X5225000Y9096783D01*
X5206746Y9188552D01*
X5202004Y9200000D01*
X5506584Y9200000D01*
X5525000Y9198186D01*
X5543416Y9200000D01*
X5543419Y9200000D01*
X5598513Y9205426D01*
X5669200Y9226869D01*
X5734347Y9261691D01*
X5791448Y9308552D01*
X5803195Y9322866D01*
X5827292Y9346963D01*
X7070107Y9346963D01*
X7161436Y9214308D01*
X7352792Y9142825D01*
X7554417Y9110047D01*
X7758562Y9117235D01*
X7957382Y9164112D01*
X8078564Y9214308D01*
X8169893Y9346963D01*
X7620000Y9896856D01*
X7070107Y9346963D01*
X5827292Y9346963D01*
X6583988Y10103658D01*
X6587235Y10011438D01*
X6634112Y9812618D01*
X6684308Y9691436D01*
X6816963Y9600107D01*
X7366856Y10150000D01*
X7873144Y10150000D01*
X8423037Y9600107D01*
X8555692Y9691436D01*
X8627175Y9882792D01*
X8659953Y10084417D01*
X8652765Y10288562D01*
X8605888Y10487382D01*
X8555692Y10608564D01*
X8423037Y10699893D01*
X7873144Y10150000D01*
X7366856Y10150000D01*
X6850000Y10666856D01*
X6850000Y10953037D01*
X7070107Y10953037D01*
X7620000Y10403144D01*
X8169893Y10953037D01*
X8078564Y11085692D01*
X7887208Y11157175D01*
X7685583Y11189953D01*
X7481438Y11182765D01*
X7282618Y11135888D01*
X7161436Y11085692D01*
X7070107Y10953037D01*
X6850000Y10953037D01*
X6850000Y11389671D01*
X7239583Y11779253D01*
X7332103Y11740930D01*
X7522789Y11703000D01*
X7717211Y11703000D01*
X7907897Y11740930D01*
X8087520Y11815332D01*
X8249176Y11923347D01*
X8386653Y12060824D01*
X8494668Y12222480D01*
X8569070Y12402103D01*
X8607000Y12592789D01*
X8607000Y12787211D01*
X8569070Y12977897D01*
X8494668Y13157520D01*
X8386653Y13319176D01*
X8249176Y13456653D01*
X8087520Y13564668D01*
X7907897Y13639070D01*
X7717211Y13677000D01*
X7522789Y13677000D01*
X7332103Y13639070D01*
X7152480Y13564668D01*
X6990824Y13456653D01*
X6853347Y13319176D01*
X6745332Y13157520D01*
X6670930Y12977897D01*
X6633000Y12787211D01*
X6633000Y12592789D01*
X6670930Y12402103D01*
X6709253Y12309583D01*
X6300600Y11900929D01*
X6300600Y11908807D01*
X6290109Y12015325D01*
X6248653Y12151988D01*
X6181331Y12277937D01*
X6090731Y12388332D01*
X5980336Y12478931D01*
X5875600Y12534914D01*
X5875600Y14111485D01*
X5980337Y14167469D01*
X6090732Y14258068D01*
X6181331Y14368463D01*
X6248653Y14494412D01*
X6290109Y14631075D01*
X6300600Y14737593D01*
X6300600Y15327211D01*
X6633000Y15327211D01*
X6633000Y15132789D01*
X6670930Y14942103D01*
X6745332Y14762480D01*
X6853347Y14600824D01*
X6990824Y14463347D01*
X7152480Y14355332D01*
X7332103Y14280930D01*
X7522789Y14243000D01*
X7717211Y14243000D01*
X7907897Y14280930D01*
X8087520Y14355332D01*
X8249176Y14463347D01*
X8386653Y14600824D01*
X8494668Y14762480D01*
X8569070Y14942103D01*
X8607000Y15132789D01*
X8607000Y15327211D01*
X8569070Y15517897D01*
X8494668Y15697520D01*
X8386653Y15859176D01*
X8249176Y15996653D01*
X8087520Y16104668D01*
X7907897Y16179070D01*
X7717211Y16217000D01*
X7522789Y16217000D01*
X7332103Y16179070D01*
X7152480Y16104668D01*
X6990824Y15996653D01*
X6853347Y15859176D01*
X6745332Y15697520D01*
X6670930Y15517897D01*
X6633000Y15327211D01*
X6300600Y15327211D01*
X6300600Y16008807D01*
X6290109Y16115325D01*
X6248653Y16251988D01*
X6181331Y16377937D01*
X6163224Y16400000D01*
X7607771Y16400000D01*
X7843137Y16376922D01*
%TA.AperFunction,Conductor*%
D22*
G36*
X7843137Y16376922D02*
G01*
X8057775Y16312119D01*
X8255739Y16206860D01*
X8429485Y16065156D01*
X8572399Y15892402D01*
X8679036Y15695181D01*
X8745338Y15480994D01*
X8770000Y15246352D01*
X8770001Y2076367D01*
X8766441Y2064632D01*
X8765000Y2050000D01*
X8765000Y-2050000D01*
X8766441Y-2064632D01*
X8770000Y-2076364D01*
X8770001Y-11325000D01*
X6800000Y-11325000D01*
X6800000Y-10719337D01*
X6853347Y-10799176D01*
X6990824Y-10936653D01*
X7152480Y-11044668D01*
X7332103Y-11119070D01*
X7522789Y-11157000D01*
X7717211Y-11157000D01*
X7907897Y-11119070D01*
X8087520Y-11044668D01*
X8249176Y-10936653D01*
X8386653Y-10799176D01*
X8494668Y-10637520D01*
X8569070Y-10457897D01*
X8607000Y-10267211D01*
X8607000Y-10072789D01*
X8569070Y-9882103D01*
X8494668Y-9702480D01*
X8386653Y-9540824D01*
X8249176Y-9403347D01*
X8087520Y-9295332D01*
X7907897Y-9220930D01*
X7717211Y-9183000D01*
X7522789Y-9183000D01*
X7332103Y-9220930D01*
X7306004Y-9231740D01*
X5547553Y-7473290D01*
X5538158Y-7461842D01*
X5492477Y-7424353D01*
X5440360Y-7396496D01*
X5383810Y-7379341D01*
X5339733Y-7375000D01*
X5339723Y-7375000D01*
X5325000Y-7373550D01*
X5310277Y-7375000D01*
X3274264Y-7375000D01*
X3050000Y-7150737D01*
X3050000Y-6720824D01*
X3052795Y-6718956D01*
X3118956Y-6652795D01*
X3170939Y-6574997D01*
X3206746Y-6488552D01*
X3225000Y-6396783D01*
X3225000Y-6303217D01*
X3206746Y-6211448D01*
X3170939Y-6125003D01*
X3118956Y-6047205D01*
X3052795Y-5981044D01*
X2974997Y-5929061D01*
X2888552Y-5893254D01*
X2796783Y-5875000D01*
X2703217Y-5875000D01*
X2611448Y-5893254D01*
X2525003Y-5929061D01*
X2500000Y-5945767D01*
X2500000Y-4678217D01*
X3300000Y-4678217D01*
X3300000Y-4771783D01*
X3318254Y-4863552D01*
X3354061Y-4949997D01*
X3406044Y-5027795D01*
X3472205Y-5093956D01*
X3550003Y-5145939D01*
X3636448Y-5181746D01*
X3728217Y-5200000D01*
X3636448Y-5218254D01*
X3550003Y-5254061D01*
X3472205Y-5306044D01*
X3406044Y-5372205D01*
X3354061Y-5450003D01*
X3318254Y-5536448D01*
X3300000Y-5628217D01*
X3300000Y-5721783D01*
X3318254Y-5813552D01*
X3354061Y-5899997D01*
X3406044Y-5977795D01*
X3472205Y-6043956D01*
X3550003Y-6095939D01*
X3636448Y-6131746D01*
X3728217Y-6150000D01*
X3821783Y-6150000D01*
X3913552Y-6131746D01*
X3999997Y-6095939D01*
X4077795Y-6043956D01*
X4143956Y-5977795D01*
X4145824Y-5975000D01*
X5540737Y-5975000D01*
X6740319Y-7174583D01*
X6670930Y-7342103D01*
X6633000Y-7532789D01*
X6633000Y-7727211D01*
X6670930Y-7917897D01*
X6745332Y-8097520D01*
X6853347Y-8259176D01*
X6990824Y-8396653D01*
X7152480Y-8504668D01*
X7332103Y-8579070D01*
X7522789Y-8617000D01*
X7717211Y-8617000D01*
X7907897Y-8579070D01*
X8087520Y-8504668D01*
X8249176Y-8396653D01*
X8386653Y-8259176D01*
X8494668Y-8097520D01*
X8569070Y-7917897D01*
X8607000Y-7727211D01*
X8607000Y-7532789D01*
X8569070Y-7342103D01*
X8494668Y-7162480D01*
X8386653Y-7000824D01*
X8249176Y-6863347D01*
X8087520Y-6755332D01*
X7907897Y-6680930D01*
X7717211Y-6643000D01*
X7522789Y-6643000D01*
X7332103Y-6680930D01*
X7164583Y-6750319D01*
X5887553Y-5473290D01*
X5878158Y-5461842D01*
X5832477Y-5424353D01*
X5780360Y-5396496D01*
X5723810Y-5379341D01*
X5679733Y-5375000D01*
X5679723Y-5375000D01*
X5665000Y-5373550D01*
X5650277Y-5375000D01*
X4145824Y-5375000D01*
X4143956Y-5372205D01*
X4077795Y-5306044D01*
X3999997Y-5254061D01*
X3913552Y-5218254D01*
X3821783Y-5200000D01*
X3913552Y-5181746D01*
X3999997Y-5145939D01*
X4077795Y-5093956D01*
X4143956Y-5027795D01*
X4145824Y-5025000D01*
X6633000Y-5025000D01*
X6633000Y-5187211D01*
X6670930Y-5377897D01*
X6745332Y-5557520D01*
X6853347Y-5719176D01*
X6990824Y-5856653D01*
X7152480Y-5964668D01*
X7332103Y-6039070D01*
X7522789Y-6077000D01*
X7717211Y-6077000D01*
X7907897Y-6039070D01*
X8087520Y-5964668D01*
X8249176Y-5856653D01*
X8386653Y-5719176D01*
X8494668Y-5557520D01*
X8569070Y-5377897D01*
X8607000Y-5187211D01*
X8607000Y-4992789D01*
X8569070Y-4802103D01*
X8494668Y-4622480D01*
X8386653Y-4460824D01*
X8249176Y-4323347D01*
X8087520Y-4215332D01*
X7907897Y-4140930D01*
X7717211Y-4103000D01*
X7522789Y-4103000D01*
X7332103Y-4140930D01*
X7152480Y-4215332D01*
X6990824Y-4323347D01*
X6889171Y-4425000D01*
X4671751Y-4425000D01*
X4693956Y-4402795D01*
X4745939Y-4324997D01*
X4781746Y-4238552D01*
X4800000Y-4146783D01*
X4800000Y-4053217D01*
X4781746Y-3961448D01*
X4745939Y-3875003D01*
X4693956Y-3797205D01*
X4627795Y-3731044D01*
X4549997Y-3679061D01*
X4463552Y-3643254D01*
X4371783Y-3625000D01*
X4278217Y-3625000D01*
X4186448Y-3643254D01*
X4100003Y-3679061D01*
X4022205Y-3731044D01*
X3956044Y-3797205D01*
X3904061Y-3875003D01*
X3868254Y-3961448D01*
X3850000Y-4053217D01*
X3850000Y-4146783D01*
X3868254Y-4238552D01*
X3877594Y-4261102D01*
X3821783Y-4250000D01*
X3728217Y-4250000D01*
X3636448Y-4268254D01*
X3550003Y-4304061D01*
X3472205Y-4356044D01*
X3406044Y-4422205D01*
X3354061Y-4500003D01*
X3318254Y-4586448D01*
X3300000Y-4678217D01*
X2500000Y-4678217D01*
X2500000Y-3774263D01*
X3501716Y-2772547D01*
X3513158Y-2763158D01*
X3527305Y-2745920D01*
X3550647Y-2717478D01*
X3572576Y-2676450D01*
X3578504Y-2665360D01*
X3595659Y-2608810D01*
X3600000Y-2564733D01*
X3600000Y-2564723D01*
X3601450Y-2550000D01*
X3600000Y-2535277D01*
X3600000Y-2452789D01*
X6633000Y-2452789D01*
X6633000Y-2647211D01*
X6670930Y-2837897D01*
X6745332Y-3017520D01*
X6853347Y-3179176D01*
X6990824Y-3316653D01*
X7152480Y-3424668D01*
X7332103Y-3499070D01*
X7522789Y-3537000D01*
X7717211Y-3537000D01*
X7907897Y-3499070D01*
X8087520Y-3424668D01*
X8249176Y-3316653D01*
X8386653Y-3179176D01*
X8494668Y-3017520D01*
X8569070Y-2837897D01*
X8607000Y-2647211D01*
X8607000Y-2452789D01*
X8569070Y-2262103D01*
X8494668Y-2082480D01*
X8386653Y-1920824D01*
X8249176Y-1783347D01*
X8087520Y-1675332D01*
X7907897Y-1600930D01*
X7717211Y-1563000D01*
X7522789Y-1563000D01*
X7332103Y-1600930D01*
X7152480Y-1675332D01*
X6990824Y-1783347D01*
X6853347Y-1920824D01*
X6745332Y-2082480D01*
X6670930Y-2262103D01*
X6633000Y-2452789D01*
X3600000Y-2452789D01*
X3600000Y-2170824D01*
X3602795Y-2168956D01*
X3668956Y-2102795D01*
X3720939Y-2024997D01*
X3756746Y-1938552D01*
X3775000Y-1846783D01*
X3775000Y-1753217D01*
X3756746Y-1661448D01*
X3720939Y-1575003D01*
X3668956Y-1497205D01*
X3602795Y-1431044D01*
X3524997Y-1379061D01*
X3438552Y-1343254D01*
X3346783Y-1325000D01*
X3253217Y-1325000D01*
X3161448Y-1343254D01*
X3075003Y-1379061D01*
X2997205Y-1431044D01*
X2931044Y-1497205D01*
X2879061Y-1575003D01*
X2843254Y-1661448D01*
X2825000Y-1753217D01*
X2825000Y-1846783D01*
X2843254Y-1938552D01*
X2879061Y-2024997D01*
X2931044Y-2102795D01*
X2997205Y-2168956D01*
X3000001Y-2170824D01*
X3000000Y-2425736D01*
X1998285Y-3427452D01*
X1986843Y-3436842D01*
X1977452Y-3448285D01*
X1977451Y-3448286D01*
X1949353Y-3482523D01*
X1921497Y-3534640D01*
X1904342Y-3591190D01*
X1898550Y-3650000D01*
X1900001Y-3664733D01*
X1900000Y-7435586D01*
X1861448Y-7443254D01*
X1775003Y-7479061D01*
X1697205Y-7531044D01*
X1631044Y-7597205D01*
X1579061Y-7675003D01*
X1543254Y-7761448D01*
X1525000Y-7853217D01*
X1525000Y-7946783D01*
X1538397Y-8014133D01*
X872201Y-7347938D01*
X920939Y-7274997D01*
X956746Y-7188552D01*
X975000Y-7096783D01*
X975000Y-7003217D01*
X956746Y-6911448D01*
X920939Y-6825003D01*
X868956Y-6747205D01*
X802795Y-6681044D01*
X724997Y-6629061D01*
X638552Y-6593254D01*
X546783Y-6575000D01*
X453217Y-6575000D01*
X420675Y-6581473D01*
X406746Y-6511448D01*
X370939Y-6425003D01*
X318956Y-6347205D01*
X252795Y-6281044D01*
X174997Y-6229061D01*
X88552Y-6193254D01*
X-3217Y-6175000D01*
X-96783Y-6175000D01*
X-188552Y-6193254D01*
X-274997Y-6229061D01*
X-352795Y-6281044D01*
X-418956Y-6347205D01*
X-470939Y-6425003D01*
X-506746Y-6511448D01*
X-525000Y-6603217D01*
X-525000Y-6696783D01*
X-506746Y-6788552D01*
X-470939Y-6874997D01*
X-418956Y-6952795D01*
X-352795Y-7018956D01*
X-349999Y-7020824D01*
X-349999Y-7235268D01*
X-351450Y-7250000D01*
X-345658Y-7308810D01*
X-328503Y-7365360D01*
X-300647Y-7417477D01*
X-272549Y-7451714D01*
X-263157Y-7463158D01*
X-251715Y-7472548D01*
X1102451Y-8826715D01*
X1111842Y-8838158D01*
X1123285Y-8847549D01*
X1123286Y-8847550D01*
X1157522Y-8875647D01*
X1197066Y-8896783D01*
X1209640Y-8903504D01*
X1266190Y-8920659D01*
X1310267Y-8925000D01*
X1310270Y-8925000D01*
X1325000Y-8926451D01*
X1339730Y-8925000D01*
X2535277Y-8925000D01*
X2550000Y-8926450D01*
X2564723Y-8925000D01*
X2564733Y-8925000D01*
X2608810Y-8920659D01*
X2665360Y-8903504D01*
X2717477Y-8875647D01*
X2763158Y-8838158D01*
X2772553Y-8826710D01*
X3074264Y-8525000D01*
X4950737Y-8525000D01*
X5900000Y-9474264D01*
X5900000Y-11325000D01*
X-500735Y-11325000D01*
X-498280Y-11322545D01*
X-486842Y-11313158D01*
X-477456Y-11301721D01*
X-477450Y-11301715D01*
X-449353Y-11267478D01*
X-421496Y-11215361D01*
X-412747Y-11186520D01*
X-404341Y-11158810D01*
X-400000Y-11114733D01*
X-400000Y-11114730D01*
X-398549Y-11100000D01*
X-400000Y-11085270D01*
X-400000Y-10859442D01*
X-386448Y-10856746D01*
X-300003Y-10820939D01*
X-222205Y-10768956D01*
X-156044Y-10702795D01*
X-104061Y-10624997D01*
X-68254Y-10538552D01*
X-50000Y-10446783D01*
X-50000Y-10353217D01*
X-68254Y-10261448D01*
X-104061Y-10175003D01*
X-156044Y-10097205D01*
X-222205Y-10031044D01*
X-300003Y-9979061D01*
X-386448Y-9943254D01*
X-478217Y-9925000D01*
X-571783Y-9925000D01*
X-663552Y-9943254D01*
X-749997Y-9979061D01*
X-793855Y-10008366D01*
X-812015Y-9974392D01*
X-840132Y-9940132D01*
X-874392Y-9912015D01*
X-913480Y-9891122D01*
X-950000Y-9880043D01*
X-950000Y-8564730D01*
X-948549Y-8550000D01*
X-950000Y-8535267D01*
X-954341Y-8491190D01*
X-970429Y-8438158D01*
X-971496Y-8434639D01*
X-999353Y-8382522D01*
X-1027451Y-8348285D01*
X-1036842Y-8336842D01*
X-1048284Y-8327452D01*
X-1275656Y-8100081D01*
X-1275000Y-8096783D01*
X-1275000Y-8003217D01*
X-1293254Y-7911448D01*
X-1329061Y-7825003D01*
X-1381044Y-7747205D01*
X-1447205Y-7681044D01*
X-1525003Y-7629061D01*
X-1611448Y-7593254D01*
X-1703217Y-7575000D01*
X-1796783Y-7575000D01*
X-1888552Y-7593254D01*
X-1974997Y-7629061D01*
X-2052795Y-7681044D01*
X-2118956Y-7747205D01*
X-2170939Y-7825003D01*
X-2206746Y-7911448D01*
X-2225000Y-8003217D01*
X-2225000Y-8096783D01*
X-2206746Y-8188552D01*
X-2170939Y-8274997D01*
X-2118956Y-8352795D01*
X-2052795Y-8418956D01*
X-2006334Y-8450000D01*
X-2052795Y-8481044D01*
X-2118956Y-8547205D01*
X-2120824Y-8550000D01*
X-2185270Y-8550000D01*
X-2200000Y-8548549D01*
X-2214730Y-8550000D01*
X-2214733Y-8550000D01*
X-2258810Y-8554341D01*
X-2315360Y-8571496D01*
X-2367478Y-8599353D01*
X-2398732Y-8625003D01*
X-2413158Y-8636842D01*
X-2422549Y-8648285D01*
X-2450000Y-8675736D01*
X-2450000Y-4249263D01*
X-1548285Y-3347549D01*
X-1536842Y-3338158D01*
X-1522481Y-3320659D01*
X-1499353Y-3292478D01*
X-1471496Y-3240360D01*
X-1467357Y-3226715D01*
X-1454341Y-3183810D01*
X-1450000Y-3139733D01*
X-1450000Y-3139730D01*
X-1448549Y-3125000D01*
X-1450000Y-3110270D01*
X-1450000Y-2224360D01*
X-1361448Y-2206746D01*
X-1275003Y-2170939D01*
X-1197205Y-2118956D01*
X-1131044Y-2052795D01*
X-1079061Y-1974997D01*
X-1043254Y-1888552D01*
X-1025000Y-1796783D01*
X-1025000Y-1703217D01*
X-1043254Y-1611448D01*
X-1068707Y-1550000D01*
X-114723Y-1550000D01*
X-100000Y-1551450D01*
X-85277Y-1550000D01*
X-85267Y-1550000D01*
X-41190Y-1545659D01*
X15360Y-1528504D01*
X67477Y-1500647D01*
X113158Y-1463158D01*
X122553Y-1451710D01*
X537420Y-1036844D01*
X540717Y-1037500D01*
X634283Y-1037500D01*
X726052Y-1019246D01*
X812497Y-983439D01*
X890295Y-931456D01*
X956456Y-865295D01*
X1008439Y-787497D01*
X1044246Y-701052D01*
X1050453Y-669846D01*
X1057522Y-675647D01*
X1109639Y-703504D01*
X1122801Y-707497D01*
X1166190Y-720659D01*
X1210267Y-725000D01*
X1210270Y-725000D01*
X1225000Y-726451D01*
X1239730Y-725000D01*
X5510277Y-725000D01*
X5525000Y-726450D01*
X5539723Y-725000D01*
X5539733Y-725000D01*
X5583810Y-720659D01*
X5640360Y-703504D01*
X5692477Y-675647D01*
X5738158Y-638158D01*
X5747553Y-626710D01*
X6401716Y27452D01*
X6413158Y36842D01*
X6434755Y63158D01*
X6450647Y82522D01*
X6453153Y87211D01*
X6633000Y87211D01*
X6633000Y-107211D01*
X6670930Y-297897D01*
X6745332Y-477520D01*
X6853347Y-639176D01*
X6990824Y-776653D01*
X7152480Y-884668D01*
X7332103Y-959070D01*
X7522789Y-997000D01*
X7717211Y-997000D01*
X7907897Y-959070D01*
X8087520Y-884668D01*
X8249176Y-776653D01*
X8386653Y-639176D01*
X8494668Y-477520D01*
X8569070Y-297897D01*
X8607000Y-107211D01*
X8607000Y87211D01*
X8569070Y277897D01*
X8494668Y457520D01*
X8386653Y619176D01*
X8249176Y756653D01*
X8087520Y864668D01*
X7907897Y939070D01*
X7717211Y977000D01*
X7522789Y977000D01*
X7332103Y939070D01*
X7152480Y864668D01*
X6990824Y756653D01*
X6853347Y619176D01*
X6745332Y457520D01*
X6670930Y277897D01*
X6633000Y87211D01*
X6453153Y87211D01*
X6465536Y110379D01*
X6478504Y134640D01*
X6495659Y191190D01*
X6500000Y235267D01*
X6500000Y235276D01*
X6501450Y249999D01*
X6500000Y264722D01*
X6500000Y2627211D01*
X6633000Y2627211D01*
X6633000Y2432789D01*
X6670930Y2242103D01*
X6745332Y2062480D01*
X6853347Y1900824D01*
X6990824Y1763347D01*
X7152480Y1655332D01*
X7332103Y1580930D01*
X7522789Y1543000D01*
X7717211Y1543000D01*
X7907897Y1580930D01*
X8087520Y1655332D01*
X8249176Y1763347D01*
X8386653Y1900824D01*
X8494668Y2062480D01*
X8569070Y2242103D01*
X8607000Y2432789D01*
X8607000Y2627211D01*
X8569070Y2817897D01*
X8494668Y2997520D01*
X8386653Y3159176D01*
X8249176Y3296653D01*
X8087520Y3404668D01*
X7907897Y3479070D01*
X7717211Y3517000D01*
X7522789Y3517000D01*
X7332103Y3479070D01*
X7152480Y3404668D01*
X6990824Y3296653D01*
X6853347Y3159176D01*
X6745332Y2997520D01*
X6670930Y2817897D01*
X6633000Y2627211D01*
X6500000Y2627211D01*
X6500000Y5167211D01*
X6633000Y5167211D01*
X6633000Y4972789D01*
X6670930Y4782103D01*
X6745332Y4602480D01*
X6853347Y4440824D01*
X6990824Y4303347D01*
X7152480Y4195332D01*
X7332103Y4120930D01*
X7522789Y4083000D01*
X7717211Y4083000D01*
X7907897Y4120930D01*
X8087520Y4195332D01*
X8249176Y4303347D01*
X8386653Y4440824D01*
X8494668Y4602480D01*
X8569070Y4782103D01*
X8607000Y4972789D01*
X8607000Y5167211D01*
X8569070Y5357897D01*
X8494668Y5537520D01*
X8386653Y5699176D01*
X8249176Y5836653D01*
X8087520Y5944668D01*
X7907897Y6019070D01*
X7717211Y6057000D01*
X7522789Y6057000D01*
X7332103Y6019070D01*
X7152480Y5944668D01*
X6990824Y5836653D01*
X6853347Y5699176D01*
X6745332Y5537520D01*
X6670930Y5357897D01*
X6633000Y5167211D01*
X6500000Y5167211D01*
X6500000Y7025737D01*
X6707669Y7233406D01*
X6745332Y7142480D01*
X6853347Y6980824D01*
X6990824Y6843347D01*
X7152480Y6735332D01*
X7332103Y6660930D01*
X7522789Y6623000D01*
X7717211Y6623000D01*
X7907897Y6660930D01*
X8087520Y6735332D01*
X8249176Y6843347D01*
X8386653Y6980824D01*
X8494668Y7142480D01*
X8569070Y7322103D01*
X8607000Y7512789D01*
X8607000Y7707211D01*
X8569070Y7897897D01*
X8494668Y8077520D01*
X8386653Y8239176D01*
X8249176Y8376653D01*
X8087520Y8484668D01*
X7907897Y8559070D01*
X7717211Y8597000D01*
X7522789Y8597000D01*
X7332103Y8559070D01*
X7152480Y8484668D01*
X6990824Y8376653D01*
X6853347Y8239176D01*
X6745332Y8077520D01*
X6675943Y7910000D01*
X6674722Y7910000D01*
X6659999Y7911450D01*
X6645276Y7910000D01*
X6645267Y7910000D01*
X6601190Y7905659D01*
X6544640Y7888504D01*
X6520379Y7875536D01*
X6492522Y7860647D01*
X6458285Y7832549D01*
X6446842Y7823158D01*
X6437451Y7811715D01*
X5998285Y7372548D01*
X5986843Y7363158D01*
X5977452Y7351715D01*
X5977451Y7351714D01*
X5949353Y7317477D01*
X5921497Y7265360D01*
X5904342Y7208810D01*
X5898550Y7150000D01*
X5900001Y7135267D01*
X5900001Y4449263D01*
X5649344Y4699919D01*
X5650000Y4703217D01*
X5650000Y4796783D01*
X5631746Y4888552D01*
X5595939Y4974997D01*
X5543956Y5052795D01*
X5477795Y5118956D01*
X5399997Y5170939D01*
X5313552Y5206746D01*
X5221783Y5225000D01*
X5128217Y5225000D01*
X5036448Y5206746D01*
X4950003Y5170939D01*
X4872205Y5118956D01*
X4806044Y5052795D01*
X4766648Y4993834D01*
X4743956Y5027795D01*
X4677795Y5093956D01*
X4599997Y5145939D01*
X4513552Y5181746D01*
X4421783Y5200000D01*
X4328217Y5200000D01*
X4236448Y5181746D01*
X4150003Y5145939D01*
X4072205Y5093956D01*
X4006044Y5027795D01*
X3954061Y4949997D01*
X3918254Y4863552D01*
X3900000Y4771783D01*
X3900000Y4678217D01*
X3918254Y4586448D01*
X3954061Y4500003D01*
X4006044Y4422205D01*
X4072205Y4356044D01*
X4150003Y4304061D01*
X4236448Y4268254D01*
X4328217Y4250000D01*
X4421783Y4250000D01*
X4513552Y4268254D01*
X4599997Y4304061D01*
X4677795Y4356044D01*
X4743956Y4422205D01*
X4783352Y4481166D01*
X4806044Y4447205D01*
X4872205Y4381044D01*
X4950003Y4329061D01*
X5036448Y4293254D01*
X5128217Y4275000D01*
X5221783Y4275000D01*
X5225081Y4275656D01*
X5600000Y3900736D01*
X5600001Y499265D01*
X5250737Y150000D01*
X2421751Y150000D01*
X2443956Y172205D01*
X2495939Y250003D01*
X2531746Y336448D01*
X2550000Y428217D01*
X2550000Y521783D01*
X2531746Y613552D01*
X2495939Y699997D01*
X2443956Y777795D01*
X2377795Y843956D01*
X2299997Y895939D01*
X2213552Y931746D01*
X2121783Y950000D01*
X2028217Y950000D01*
X1936448Y931746D01*
X1850003Y895939D01*
X1772205Y843956D01*
X1706044Y777795D01*
X1654061Y699997D01*
X1618254Y613552D01*
X1600000Y521783D01*
X1600000Y428217D01*
X1618254Y336448D01*
X1654061Y250003D01*
X1706044Y172205D01*
X1728249Y150000D01*
X1461764Y150000D01*
X1210053Y401710D01*
X1200658Y413158D01*
X1154977Y450647D01*
X1102860Y478504D01*
X1046310Y495659D01*
X1002233Y500000D01*
X1002223Y500000D01*
X987500Y501450D01*
X972777Y500000D01*
X314722Y500000D01*
X299999Y501450D01*
X285276Y500000D01*
X285267Y500000D01*
X275000Y498989D01*
X275000Y860270D01*
X276451Y875000D01*
X275000Y889733D01*
X270659Y933810D01*
X253504Y990360D01*
X241423Y1012962D01*
X225647Y1042478D01*
X197550Y1076714D01*
X197549Y1076715D01*
X188158Y1088158D01*
X176715Y1097549D01*
X-500000Y1774263D01*
X-500000Y5125737D01*
X-275736Y5350000D01*
X1335277Y5350000D01*
X1350000Y5348550D01*
X1364723Y5350000D01*
X1364733Y5350000D01*
X1408810Y5354341D01*
X1465360Y5371496D01*
X1517477Y5399353D01*
X1563158Y5436842D01*
X1572553Y5448290D01*
X1851716Y5727452D01*
X1863158Y5736842D01*
X1876250Y5752795D01*
X1900647Y5782522D01*
X1919330Y5817477D01*
X1922203Y5822852D01*
X1956044Y5772205D01*
X2022205Y5706044D01*
X2100003Y5654061D01*
X2186448Y5618254D01*
X2278217Y5600000D01*
X2371783Y5600000D01*
X2463552Y5618254D01*
X2549997Y5654061D01*
X2627795Y5706044D01*
X2693956Y5772205D01*
X2745939Y5850003D01*
X2781746Y5936448D01*
X2793747Y5996783D01*
X4625000Y5996783D01*
X4625000Y5903217D01*
X4643254Y5811448D01*
X4679061Y5725003D01*
X4731044Y5647205D01*
X4797205Y5581044D01*
X4875003Y5529061D01*
X4961448Y5493254D01*
X5053217Y5475000D01*
X5146783Y5475000D01*
X5238552Y5493254D01*
X5324997Y5529061D01*
X5402795Y5581044D01*
X5468956Y5647205D01*
X5520939Y5725003D01*
X5556746Y5811448D01*
X5575000Y5903217D01*
X5575000Y5996783D01*
X5556746Y6088552D01*
X5520939Y6174997D01*
X5468956Y6252795D01*
X5402795Y6318956D01*
X5324997Y6370939D01*
X5238552Y6406746D01*
X5146783Y6425000D01*
X5053217Y6425000D01*
X4961448Y6406746D01*
X4875003Y6370939D01*
X4797205Y6318956D01*
X4731044Y6252795D01*
X4679061Y6174997D01*
X4643254Y6088552D01*
X4625000Y5996783D01*
X2793747Y5996783D01*
X2800000Y6028217D01*
X2800000Y6121783D01*
X2799344Y6125081D01*
X3326715Y6652451D01*
X3338158Y6661842D01*
X3347549Y6673285D01*
X3375647Y6707522D01*
X3400071Y6753217D01*
X3403504Y6759640D01*
X3420659Y6816190D01*
X3425000Y6860267D01*
X3425000Y6860279D01*
X3426450Y6874999D01*
X3425000Y6889719D01*
X3425000Y7300737D01*
X4699920Y8575656D01*
X4703217Y8575000D01*
X4796783Y8575000D01*
X4888552Y8593254D01*
X4974997Y8629061D01*
X5052795Y8681044D01*
X5118956Y8747205D01*
X5170939Y8825003D01*
X5206746Y8911448D01*
X5225000Y9003217D01*
X5225000Y9096783D01*
X5206746Y9188552D01*
X5202004Y9200000D01*
X5506584Y9200000D01*
X5525000Y9198186D01*
X5543416Y9200000D01*
X5543419Y9200000D01*
X5598513Y9205426D01*
X5669200Y9226869D01*
X5734347Y9261691D01*
X5791448Y9308552D01*
X5803195Y9322866D01*
X5827292Y9346963D01*
X7070107Y9346963D01*
X7161436Y9214308D01*
X7352792Y9142825D01*
X7554417Y9110047D01*
X7758562Y9117235D01*
X7957382Y9164112D01*
X8078564Y9214308D01*
X8169893Y9346963D01*
X7620000Y9896856D01*
X7070107Y9346963D01*
X5827292Y9346963D01*
X6583988Y10103658D01*
X6587235Y10011438D01*
X6634112Y9812618D01*
X6684308Y9691436D01*
X6816963Y9600107D01*
X7366856Y10150000D01*
X7873144Y10150000D01*
X8423037Y9600107D01*
X8555692Y9691436D01*
X8627175Y9882792D01*
X8659953Y10084417D01*
X8652765Y10288562D01*
X8605888Y10487382D01*
X8555692Y10608564D01*
X8423037Y10699893D01*
X7873144Y10150000D01*
X7366856Y10150000D01*
X6850000Y10666856D01*
X6850000Y10953037D01*
X7070107Y10953037D01*
X7620000Y10403144D01*
X8169893Y10953037D01*
X8078564Y11085692D01*
X7887208Y11157175D01*
X7685583Y11189953D01*
X7481438Y11182765D01*
X7282618Y11135888D01*
X7161436Y11085692D01*
X7070107Y10953037D01*
X6850000Y10953037D01*
X6850000Y11389671D01*
X7239583Y11779253D01*
X7332103Y11740930D01*
X7522789Y11703000D01*
X7717211Y11703000D01*
X7907897Y11740930D01*
X8087520Y11815332D01*
X8249176Y11923347D01*
X8386653Y12060824D01*
X8494668Y12222480D01*
X8569070Y12402103D01*
X8607000Y12592789D01*
X8607000Y12787211D01*
X8569070Y12977897D01*
X8494668Y13157520D01*
X8386653Y13319176D01*
X8249176Y13456653D01*
X8087520Y13564668D01*
X7907897Y13639070D01*
X7717211Y13677000D01*
X7522789Y13677000D01*
X7332103Y13639070D01*
X7152480Y13564668D01*
X6990824Y13456653D01*
X6853347Y13319176D01*
X6745332Y13157520D01*
X6670930Y12977897D01*
X6633000Y12787211D01*
X6633000Y12592789D01*
X6670930Y12402103D01*
X6709253Y12309583D01*
X6300600Y11900929D01*
X6300600Y11908807D01*
X6290109Y12015325D01*
X6248653Y12151988D01*
X6181331Y12277937D01*
X6090731Y12388332D01*
X5980336Y12478931D01*
X5875600Y12534914D01*
X5875600Y14111485D01*
X5980337Y14167469D01*
X6090732Y14258068D01*
X6181331Y14368463D01*
X6248653Y14494412D01*
X6290109Y14631075D01*
X6300600Y14737593D01*
X6300600Y15327211D01*
X6633000Y15327211D01*
X6633000Y15132789D01*
X6670930Y14942103D01*
X6745332Y14762480D01*
X6853347Y14600824D01*
X6990824Y14463347D01*
X7152480Y14355332D01*
X7332103Y14280930D01*
X7522789Y14243000D01*
X7717211Y14243000D01*
X7907897Y14280930D01*
X8087520Y14355332D01*
X8249176Y14463347D01*
X8386653Y14600824D01*
X8494668Y14762480D01*
X8569070Y14942103D01*
X8607000Y15132789D01*
X8607000Y15327211D01*
X8569070Y15517897D01*
X8494668Y15697520D01*
X8386653Y15859176D01*
X8249176Y15996653D01*
X8087520Y16104668D01*
X7907897Y16179070D01*
X7717211Y16217000D01*
X7522789Y16217000D01*
X7332103Y16179070D01*
X7152480Y16104668D01*
X6990824Y15996653D01*
X6853347Y15859176D01*
X6745332Y15697520D01*
X6670930Y15517897D01*
X6633000Y15327211D01*
X6300600Y15327211D01*
X6300600Y16008807D01*
X6290109Y16115325D01*
X6248653Y16251988D01*
X6181331Y16377937D01*
X6163224Y16400000D01*
X7607771Y16400000D01*
X7843137Y16376922D01*
G37*
%TD.AperFunction*%
D19*
X-2052795Y-9218956D02*
X-1974997Y-9270939D01*
X-1888552Y-9306746D01*
X-1796783Y-9325000D01*
X-1703217Y-9325000D01*
X-1611448Y-9306746D01*
X-1550000Y-9281293D01*
X-1549999Y-9873912D01*
X-2000000Y-9873912D01*
X-2044108Y-9878256D01*
X-2086520Y-9891122D01*
X-2125608Y-9912015D01*
X-2159868Y-9940132D01*
X-2187985Y-9974392D01*
X-2208878Y-10013480D01*
X-2221744Y-10055892D01*
X-2226088Y-10100000D01*
X-2226088Y-11075000D01*
X-2773912Y-11075000D01*
X-2773912Y-10100000D01*
X-2778256Y-10055892D01*
X-2791122Y-10013480D01*
X-2812015Y-9974392D01*
X-2840132Y-9940132D01*
X-2854268Y-9928531D01*
X-2098744Y-9173007D01*
X-2052795Y-9218956D01*
%TA.AperFunction,Conductor*%
D22*
G36*
X-2052795Y-9218956D02*
G01*
X-1974997Y-9270939D01*
X-1888552Y-9306746D01*
X-1796783Y-9325000D01*
X-1703217Y-9325000D01*
X-1611448Y-9306746D01*
X-1550000Y-9281293D01*
X-1549999Y-9873912D01*
X-2000000Y-9873912D01*
X-2044108Y-9878256D01*
X-2086520Y-9891122D01*
X-2125608Y-9912015D01*
X-2159868Y-9940132D01*
X-2187985Y-9974392D01*
X-2208878Y-10013480D01*
X-2221744Y-10055892D01*
X-2226088Y-10100000D01*
X-2226088Y-11075000D01*
X-2773912Y-11075000D01*
X-2773912Y-10100000D01*
X-2778256Y-10055892D01*
X-2791122Y-10013480D01*
X-2812015Y-9974392D01*
X-2840132Y-9940132D01*
X-2854268Y-9928531D01*
X-2098744Y-9173007D01*
X-2052795Y-9218956D01*
G37*
%TD.AperFunction*%
D19*
X-5326088Y-7300000D02*
X-5321744Y-7344108D01*
X-5308878Y-7386520D01*
X-5287985Y-7425608D01*
X-5259868Y-7459868D01*
X-5225608Y-7487985D01*
X-5186520Y-7508878D01*
X-5144108Y-7521744D01*
X-5100000Y-7526088D01*
X-4531744Y-7526088D01*
X-4556746Y-7586448D01*
X-4575000Y-7678217D01*
X-4575000Y-7771783D01*
X-4556746Y-7863552D01*
X-4520939Y-7949997D01*
X-4468956Y-8027795D01*
X-4402795Y-8093956D01*
X-4324997Y-8145939D01*
X-4238552Y-8181746D01*
X-4146783Y-8200000D01*
X-4053217Y-8200000D01*
X-3961448Y-8181746D01*
X-3875003Y-8145939D01*
X-3800379Y-8096077D01*
X-3806746Y-8111448D01*
X-3825000Y-8203217D01*
X-3825000Y-8296783D01*
X-3806746Y-8388552D01*
X-3770939Y-8474997D01*
X-3718956Y-8552795D01*
X-3652795Y-8618956D01*
X-3574997Y-8670939D01*
X-3488552Y-8706746D01*
X-3396783Y-8725000D01*
X-3303217Y-8725000D01*
X-3211448Y-8706746D01*
X-3125003Y-8670939D01*
X-3049999Y-8620823D01*
X-3049999Y-8775735D01*
X-3724263Y-9450000D01*
X-4050640Y-9450000D01*
X-4068254Y-9361448D01*
X-4104061Y-9275003D01*
X-4156044Y-9197205D01*
X-4222205Y-9131044D01*
X-4300003Y-9079061D01*
X-4386448Y-9043254D01*
X-4478217Y-9025000D01*
X-4571783Y-9025000D01*
X-4575080Y-9025656D01*
X-5825000Y-7775737D01*
X-5825000Y-6924263D01*
X-5326088Y-6425352D01*
X-5326088Y-7300000D01*
%TA.AperFunction,Conductor*%
D22*
G36*
X-5326088Y-7300000D02*
G01*
X-5321744Y-7344108D01*
X-5308878Y-7386520D01*
X-5287985Y-7425608D01*
X-5259868Y-7459868D01*
X-5225608Y-7487985D01*
X-5186520Y-7508878D01*
X-5144108Y-7521744D01*
X-5100000Y-7526088D01*
X-4531744Y-7526088D01*
X-4556746Y-7586448D01*
X-4575000Y-7678217D01*
X-4575000Y-7771783D01*
X-4556746Y-7863552D01*
X-4520939Y-7949997D01*
X-4468956Y-8027795D01*
X-4402795Y-8093956D01*
X-4324997Y-8145939D01*
X-4238552Y-8181746D01*
X-4146783Y-8200000D01*
X-4053217Y-8200000D01*
X-3961448Y-8181746D01*
X-3875003Y-8145939D01*
X-3800379Y-8096077D01*
X-3806746Y-8111448D01*
X-3825000Y-8203217D01*
X-3825000Y-8296783D01*
X-3806746Y-8388552D01*
X-3770939Y-8474997D01*
X-3718956Y-8552795D01*
X-3652795Y-8618956D01*
X-3574997Y-8670939D01*
X-3488552Y-8706746D01*
X-3396783Y-8725000D01*
X-3303217Y-8725000D01*
X-3211448Y-8706746D01*
X-3125003Y-8670939D01*
X-3049999Y-8620823D01*
X-3049999Y-8775735D01*
X-3724263Y-9450000D01*
X-4050640Y-9450000D01*
X-4068254Y-9361448D01*
X-4104061Y-9275003D01*
X-4156044Y-9197205D01*
X-4222205Y-9131044D01*
X-4300003Y-9079061D01*
X-4386448Y-9043254D01*
X-4478217Y-9025000D01*
X-4571783Y-9025000D01*
X-4575080Y-9025656D01*
X-5825000Y-7775737D01*
X-5825000Y-6924263D01*
X-5326088Y-6425352D01*
X-5326088Y-7300000D01*
G37*
%TD.AperFunction*%
D19*
X-3102795Y5906044D02*
X-3024997Y5854061D01*
X-2938552Y5818254D01*
X-2853912Y5801418D01*
X-3327138Y5328191D01*
X-3341447Y5316448D01*
X-3353189Y5302140D01*
X-3388309Y5259346D01*
X-3406667Y5225000D01*
X-3423130Y5194200D01*
X-3441197Y5134640D01*
X-3444573Y5123512D01*
X-3451814Y5050000D01*
X-3449999Y5031574D01*
X-3450000Y3793416D01*
X-3451814Y3775000D01*
X-3450000Y3756584D01*
X-3450000Y3756582D01*
X-3444574Y3701488D01*
X-3423131Y3630801D01*
X-3388309Y3565654D01*
X-3341448Y3508552D01*
X-3327134Y3496805D01*
X-2978191Y3147861D01*
X-2966448Y3133552D01*
X-2919954Y3095396D01*
X-2909347Y3086691D01*
X-2853015Y3056581D01*
X-2852483Y3056297D01*
X-2854761Y3053521D01*
X-2880297Y3005747D01*
X-2896021Y2953910D01*
X-2901331Y2900000D01*
X-2900000Y2347750D01*
X-2831250Y2279000D01*
X-2550000Y2279000D01*
X-2550000Y2299000D01*
X-2478512Y2299000D01*
X-2551142Y2226370D01*
X-2525944Y2144516D01*
X-2424428Y2124781D01*
X-2321013Y2125230D01*
X-2224056Y2144516D01*
X-2198858Y2226370D01*
X-2271488Y2299000D01*
X-2200000Y2299000D01*
X-2200000Y2279000D01*
X-1918750Y2279000D01*
X-1850000Y2347750D01*
X-1848669Y2900000D01*
X-1853979Y2953910D01*
X-1869703Y3005747D01*
X-1895239Y3053521D01*
X-1919800Y3083449D01*
X-1906044Y3097205D01*
X-1854061Y3175003D01*
X-1818254Y3261448D01*
X-1800000Y3353217D01*
X-1800000Y3446783D01*
X-1818254Y3538552D01*
X-1854061Y3624997D01*
X-1906044Y3702795D01*
X-1972205Y3768956D01*
X-2012458Y3795852D01*
X-1997205Y3806044D01*
X-1931044Y3872205D01*
X-1912472Y3900000D01*
X-1574999Y3900000D01*
X-1575000Y3056582D01*
X-1574999Y3056572D01*
X-1575000Y1705330D01*
X-1848986Y1431344D01*
X-1850000Y1852250D01*
X-1918750Y1921000D01*
X-2200000Y1921000D01*
X-2200000Y1901000D01*
X-2271488Y1901000D01*
X-2198858Y1973630D01*
X-2224056Y2055484D01*
X-2325572Y2075219D01*
X-2428987Y2074770D01*
X-2525944Y2055484D01*
X-2551142Y1973630D01*
X-2478512Y1901000D01*
X-2550000Y1901000D01*
X-2550000Y1921000D01*
X-2831250Y1921000D01*
X-2900000Y1852250D01*
X-2901331Y1300000D01*
X-2896021Y1246090D01*
X-2880297Y1194253D01*
X-2854761Y1146479D01*
X-2820396Y1104604D01*
X-2778521Y1070239D01*
X-2730747Y1044703D01*
X-2678910Y1028979D01*
X-2625000Y1023669D01*
X-2618750Y1025000D01*
X-2554002Y1089748D01*
X-2554002Y1025000D01*
X-2425555Y1025000D01*
X-2424428Y1024781D01*
X-2373987Y1025000D01*
X-2255330Y1025000D01*
X-3230329Y50000D01*
X-3556250Y50000D01*
X-3625003Y95939D01*
X-3711448Y131746D01*
X-3803217Y150000D01*
X-3896783Y150000D01*
X-3988552Y131746D01*
X-4074997Y95939D01*
X-4075000Y95937D01*
X-4075000Y5000737D01*
X-3136244Y5939493D01*
X-3102795Y5906044D01*
%TA.AperFunction,Conductor*%
D22*
G36*
X-3102795Y5906044D02*
G01*
X-3024997Y5854061D01*
X-2938552Y5818254D01*
X-2853912Y5801418D01*
X-3327138Y5328191D01*
X-3341447Y5316448D01*
X-3353189Y5302140D01*
X-3388309Y5259346D01*
X-3406667Y5225000D01*
X-3423130Y5194200D01*
X-3441197Y5134640D01*
X-3444573Y5123512D01*
X-3451814Y5050000D01*
X-3449999Y5031574D01*
X-3450000Y3793416D01*
X-3451814Y3775000D01*
X-3450000Y3756584D01*
X-3450000Y3756582D01*
X-3444574Y3701488D01*
X-3423131Y3630801D01*
X-3388309Y3565654D01*
X-3341448Y3508552D01*
X-3327134Y3496805D01*
X-2978191Y3147861D01*
X-2966448Y3133552D01*
X-2919954Y3095396D01*
X-2909347Y3086691D01*
X-2853015Y3056581D01*
X-2852483Y3056297D01*
X-2854761Y3053521D01*
X-2880297Y3005747D01*
X-2896021Y2953910D01*
X-2901331Y2900000D01*
X-2900000Y2347750D01*
X-2831250Y2279000D01*
X-2550000Y2279000D01*
X-2550000Y2299000D01*
X-2478512Y2299000D01*
X-2551142Y2226370D01*
X-2525944Y2144516D01*
X-2424428Y2124781D01*
X-2321013Y2125230D01*
X-2224056Y2144516D01*
X-2198858Y2226370D01*
X-2271488Y2299000D01*
X-2200000Y2299000D01*
X-2200000Y2279000D01*
X-1918750Y2279000D01*
X-1850000Y2347750D01*
X-1848669Y2900000D01*
X-1853979Y2953910D01*
X-1869703Y3005747D01*
X-1895239Y3053521D01*
X-1919800Y3083449D01*
X-1906044Y3097205D01*
X-1854061Y3175003D01*
X-1818254Y3261448D01*
X-1800000Y3353217D01*
X-1800000Y3446783D01*
X-1818254Y3538552D01*
X-1854061Y3624997D01*
X-1906044Y3702795D01*
X-1972205Y3768956D01*
X-2012458Y3795852D01*
X-1997205Y3806044D01*
X-1931044Y3872205D01*
X-1912472Y3900000D01*
X-1574999Y3900000D01*
X-1575000Y3056582D01*
X-1574999Y3056572D01*
X-1575000Y1705330D01*
X-1848986Y1431344D01*
X-1850000Y1852250D01*
X-1918750Y1921000D01*
X-2200000Y1921000D01*
X-2200000Y1901000D01*
X-2271488Y1901000D01*
X-2198858Y1973630D01*
X-2224056Y2055484D01*
X-2325572Y2075219D01*
X-2428987Y2074770D01*
X-2525944Y2055484D01*
X-2551142Y1973630D01*
X-2478512Y1901000D01*
X-2550000Y1901000D01*
X-2550000Y1921000D01*
X-2831250Y1921000D01*
X-2900000Y1852250D01*
X-2901331Y1300000D01*
X-2896021Y1246090D01*
X-2880297Y1194253D01*
X-2854761Y1146479D01*
X-2820396Y1104604D01*
X-2778521Y1070239D01*
X-2730747Y1044703D01*
X-2678910Y1028979D01*
X-2625000Y1023669D01*
X-2618750Y1025000D01*
X-2554002Y1089748D01*
X-2554002Y1025000D01*
X-2425555Y1025000D01*
X-2424428Y1024781D01*
X-2373987Y1025000D01*
X-2255330Y1025000D01*
X-3230329Y50000D01*
X-3556250Y50000D01*
X-3625003Y95939D01*
X-3711448Y131746D01*
X-3803217Y150000D01*
X-3896783Y150000D01*
X-3988552Y131746D01*
X-4074997Y95939D01*
X-4075000Y95937D01*
X-4075000Y5000737D01*
X-3136244Y5939493D01*
X-3102795Y5906044D01*
G37*
%TD.AperFunction*%
D19*
X1927122Y9517548D02*
X1943254Y9436448D01*
X1979061Y9350003D01*
X2031044Y9272205D01*
X2097205Y9206044D01*
X2175003Y9154061D01*
X2261448Y9118254D01*
X2353217Y9100000D01*
X2446783Y9100000D01*
X2538552Y9118254D01*
X2624997Y9154061D01*
X2696525Y9201855D01*
X2517549Y9022878D01*
X2436448Y9006746D01*
X2350003Y8970939D01*
X2272205Y8918956D01*
X2206044Y8852795D01*
X2154061Y8774997D01*
X2118254Y8688552D01*
X2100000Y8596783D01*
X2100000Y8503217D01*
X2118254Y8411448D01*
X2154061Y8325003D01*
X2206044Y8247205D01*
X2272205Y8181044D01*
X2350003Y8129061D01*
X2436448Y8093254D01*
X2528217Y8075000D01*
X2621783Y8075000D01*
X2713552Y8093254D01*
X2799997Y8129061D01*
X2877795Y8181044D01*
X2943956Y8247205D01*
X2995939Y8325003D01*
X3031746Y8411448D01*
X3047878Y8492549D01*
X3755330Y9200000D01*
X4297996Y9200000D01*
X4293254Y9188552D01*
X4275000Y9096783D01*
X4275000Y9003217D01*
X4275656Y8999920D01*
X2923290Y7647553D01*
X2911842Y7638158D01*
X2898404Y7621783D01*
X2874353Y7592477D01*
X2865011Y7574999D01*
X2846496Y7540359D01*
X2829341Y7483809D01*
X2825000Y7439732D01*
X2825000Y7439723D01*
X2823550Y7425000D01*
X2825000Y7410277D01*
X2825001Y6999265D01*
X2787145Y6961409D01*
X2781746Y6988552D01*
X2745939Y7074997D01*
X2693956Y7152795D01*
X2627795Y7218956D01*
X2549997Y7270939D01*
X2463552Y7306746D01*
X2371783Y7325000D01*
X2278217Y7325000D01*
X2186448Y7306746D01*
X2100003Y7270939D01*
X2031250Y7225000D01*
X-956585Y7225000D01*
X-975001Y7226814D01*
X-993417Y7225000D01*
X-993419Y7225000D01*
X-1048513Y7219574D01*
X-1119200Y7198131D01*
X-1184347Y7163309D01*
X-1241448Y7116448D01*
X-1253191Y7102139D01*
X-1332452Y7022878D01*
X-1413552Y7006746D01*
X-1499997Y6970939D01*
X-1577795Y6918956D01*
X-1625000Y6871751D01*
X-1625000Y6956250D01*
X-1579061Y7025003D01*
X-1543254Y7111448D01*
X-1525000Y7203217D01*
X-1525000Y7296783D01*
X-1543254Y7388552D01*
X-1579061Y7474997D01*
X-1631044Y7552795D01*
X-1697205Y7618956D01*
X-1775003Y7670939D01*
X-1861448Y7706746D01*
X-1953217Y7725000D01*
X-2046783Y7725000D01*
X-2138552Y7706746D01*
X-2224997Y7670939D01*
X-2302795Y7618956D01*
X-2368956Y7552795D01*
X-2420939Y7474997D01*
X-2456746Y7388552D01*
X-2475000Y7296783D01*
X-2475000Y7203217D01*
X-2456746Y7111448D01*
X-2420939Y7025003D01*
X-2374999Y6956249D01*
X-2375000Y6490192D01*
X-2379061Y6499997D01*
X-2431044Y6577795D01*
X-2497205Y6643956D01*
X-2575003Y6695939D01*
X-2661448Y6731746D01*
X-2753217Y6750000D01*
X-2846783Y6750000D01*
X-2938552Y6731746D01*
X-3024997Y6695939D01*
X-3102795Y6643956D01*
X-3168956Y6577795D01*
X-3170824Y6575000D01*
X-3210270Y6575000D01*
X-3225000Y6576451D01*
X-3239730Y6575000D01*
X-3239733Y6575000D01*
X-3283810Y6570659D01*
X-3340360Y6553504D01*
X-3392478Y6525647D01*
X-3420323Y6502795D01*
X-3438158Y6488158D01*
X-3447549Y6476715D01*
X-4512288Y5411975D01*
X-4512288Y6420683D01*
X-4449997Y6379061D01*
X-4363552Y6343254D01*
X-4271783Y6325000D01*
X-4178217Y6325000D01*
X-4086448Y6343254D01*
X-4000003Y6379061D01*
X-3922205Y6431044D01*
X-3856044Y6497205D01*
X-3804061Y6575003D01*
X-3768254Y6661448D01*
X-3750000Y6753217D01*
X-3750000Y6846783D01*
X-3768254Y6938552D01*
X-3804061Y7024997D01*
X-3856044Y7102795D01*
X-3922205Y7168956D01*
X-4000003Y7220939D01*
X-4086448Y7256746D01*
X-4170403Y7273446D01*
X-3399404Y8044444D01*
X-1174536Y8044444D01*
X-1220939Y7974997D01*
X-1256746Y7888552D01*
X-1275000Y7796783D01*
X-1275000Y7703217D01*
X-1256746Y7611448D01*
X-1220939Y7525003D01*
X-1168956Y7447205D01*
X-1102795Y7381044D01*
X-1024997Y7329061D01*
X-938552Y7293254D01*
X-846783Y7275000D01*
X-753217Y7275000D01*
X-661448Y7293254D01*
X-575003Y7329061D01*
X-506250Y7375000D01*
X556584Y7375000D01*
X575000Y7373186D01*
X593416Y7375000D01*
X593419Y7375000D01*
X648513Y7380426D01*
X719200Y7401869D01*
X784347Y7436691D01*
X841448Y7483552D01*
X853195Y7497866D01*
X1352140Y7996810D01*
X1366448Y8008552D01*
X1413309Y8065653D01*
X1445031Y8125000D01*
X1448130Y8130798D01*
X1448131Y8130801D01*
X1469574Y8201487D01*
X1475000Y8256581D01*
X1475000Y8256583D01*
X1476814Y8274999D01*
X1475000Y8293415D01*
X1475000Y9875000D01*
X1569671Y9875000D01*
X1927122Y9517548D01*
%TA.AperFunction,Conductor*%
D22*
G36*
X1927122Y9517548D02*
G01*
X1943254Y9436448D01*
X1979061Y9350003D01*
X2031044Y9272205D01*
X2097205Y9206044D01*
X2175003Y9154061D01*
X2261448Y9118254D01*
X2353217Y9100000D01*
X2446783Y9100000D01*
X2538552Y9118254D01*
X2624997Y9154061D01*
X2696525Y9201855D01*
X2517549Y9022878D01*
X2436448Y9006746D01*
X2350003Y8970939D01*
X2272205Y8918956D01*
X2206044Y8852795D01*
X2154061Y8774997D01*
X2118254Y8688552D01*
X2100000Y8596783D01*
X2100000Y8503217D01*
X2118254Y8411448D01*
X2154061Y8325003D01*
X2206044Y8247205D01*
X2272205Y8181044D01*
X2350003Y8129061D01*
X2436448Y8093254D01*
X2528217Y8075000D01*
X2621783Y8075000D01*
X2713552Y8093254D01*
X2799997Y8129061D01*
X2877795Y8181044D01*
X2943956Y8247205D01*
X2995939Y8325003D01*
X3031746Y8411448D01*
X3047878Y8492549D01*
X3755330Y9200000D01*
X4297996Y9200000D01*
X4293254Y9188552D01*
X4275000Y9096783D01*
X4275000Y9003217D01*
X4275656Y8999920D01*
X2923290Y7647553D01*
X2911842Y7638158D01*
X2898404Y7621783D01*
X2874353Y7592477D01*
X2865011Y7574999D01*
X2846496Y7540359D01*
X2829341Y7483809D01*
X2825000Y7439732D01*
X2825000Y7439723D01*
X2823550Y7425000D01*
X2825000Y7410277D01*
X2825001Y6999265D01*
X2787145Y6961409D01*
X2781746Y6988552D01*
X2745939Y7074997D01*
X2693956Y7152795D01*
X2627795Y7218956D01*
X2549997Y7270939D01*
X2463552Y7306746D01*
X2371783Y7325000D01*
X2278217Y7325000D01*
X2186448Y7306746D01*
X2100003Y7270939D01*
X2031250Y7225000D01*
X-956585Y7225000D01*
X-975001Y7226814D01*
X-993417Y7225000D01*
X-993419Y7225000D01*
X-1048513Y7219574D01*
X-1119200Y7198131D01*
X-1184347Y7163309D01*
X-1241448Y7116448D01*
X-1253191Y7102139D01*
X-1332452Y7022878D01*
X-1413552Y7006746D01*
X-1499997Y6970939D01*
X-1577795Y6918956D01*
X-1625000Y6871751D01*
X-1625000Y6956250D01*
X-1579061Y7025003D01*
X-1543254Y7111448D01*
X-1525000Y7203217D01*
X-1525000Y7296783D01*
X-1543254Y7388552D01*
X-1579061Y7474997D01*
X-1631044Y7552795D01*
X-1697205Y7618956D01*
X-1775003Y7670939D01*
X-1861448Y7706746D01*
X-1953217Y7725000D01*
X-2046783Y7725000D01*
X-2138552Y7706746D01*
X-2224997Y7670939D01*
X-2302795Y7618956D01*
X-2368956Y7552795D01*
X-2420939Y7474997D01*
X-2456746Y7388552D01*
X-2475000Y7296783D01*
X-2475000Y7203217D01*
X-2456746Y7111448D01*
X-2420939Y7025003D01*
X-2374999Y6956249D01*
X-2375000Y6490192D01*
X-2379061Y6499997D01*
X-2431044Y6577795D01*
X-2497205Y6643956D01*
X-2575003Y6695939D01*
X-2661448Y6731746D01*
X-2753217Y6750000D01*
X-2846783Y6750000D01*
X-2938552Y6731746D01*
X-3024997Y6695939D01*
X-3102795Y6643956D01*
X-3168956Y6577795D01*
X-3170824Y6575000D01*
X-3210270Y6575000D01*
X-3225000Y6576451D01*
X-3239730Y6575000D01*
X-3239733Y6575000D01*
X-3283810Y6570659D01*
X-3340360Y6553504D01*
X-3392478Y6525647D01*
X-3420323Y6502795D01*
X-3438158Y6488158D01*
X-3447549Y6476715D01*
X-4512288Y5411975D01*
X-4512288Y6420683D01*
X-4449997Y6379061D01*
X-4363552Y6343254D01*
X-4271783Y6325000D01*
X-4178217Y6325000D01*
X-4086448Y6343254D01*
X-4000003Y6379061D01*
X-3922205Y6431044D01*
X-3856044Y6497205D01*
X-3804061Y6575003D01*
X-3768254Y6661448D01*
X-3750000Y6753217D01*
X-3750000Y6846783D01*
X-3768254Y6938552D01*
X-3804061Y7024997D01*
X-3856044Y7102795D01*
X-3922205Y7168956D01*
X-4000003Y7220939D01*
X-4086448Y7256746D01*
X-4170403Y7273446D01*
X-3399404Y8044444D01*
X-1174536Y8044444D01*
X-1220939Y7974997D01*
X-1256746Y7888552D01*
X-1275000Y7796783D01*
X-1275000Y7703217D01*
X-1256746Y7611448D01*
X-1220939Y7525003D01*
X-1168956Y7447205D01*
X-1102795Y7381044D01*
X-1024997Y7329061D01*
X-938552Y7293254D01*
X-846783Y7275000D01*
X-753217Y7275000D01*
X-661448Y7293254D01*
X-575003Y7329061D01*
X-506250Y7375000D01*
X556584Y7375000D01*
X575000Y7373186D01*
X593416Y7375000D01*
X593419Y7375000D01*
X648513Y7380426D01*
X719200Y7401869D01*
X784347Y7436691D01*
X841448Y7483552D01*
X853195Y7497866D01*
X1352140Y7996810D01*
X1366448Y8008552D01*
X1413309Y8065653D01*
X1445031Y8125000D01*
X1448130Y8130798D01*
X1448131Y8130801D01*
X1469574Y8201487D01*
X1475000Y8256581D01*
X1475000Y8256583D01*
X1476814Y8274999D01*
X1475000Y8293415D01*
X1475000Y9875000D01*
X1569671Y9875000D01*
X1927122Y9517548D01*
G37*
%TD.AperFunction*%
D19*
X-5979736Y10467469D02*
X-5853787Y10400147D01*
X-5717124Y10358691D01*
X-5575000Y10344693D01*
X-5432875Y10358691D01*
X-5296212Y10400147D01*
X-5204777Y10449020D01*
X-5200001Y10448550D01*
X-5185278Y10450000D01*
X-2055330Y10450000D01*
X-2457451Y10047878D01*
X-2538552Y10031746D01*
X-2624997Y9995939D01*
X-2702795Y9943956D01*
X-2768956Y9877795D01*
X-2820939Y9799997D01*
X-2856746Y9713552D01*
X-2875000Y9621783D01*
X-2875000Y9528217D01*
X-2856746Y9436448D01*
X-2820939Y9350003D01*
X-2779317Y9287712D01*
X-3653712Y9287712D01*
X-3671165Y9289431D01*
X-3688618Y9287712D01*
X-3688627Y9287712D01*
X-3740865Y9282567D01*
X-3807888Y9262236D01*
X-3869656Y9229220D01*
X-3923796Y9184788D01*
X-3934927Y9171225D01*
X-5357707Y7748444D01*
X-5379061Y7799997D01*
X-5431044Y7877795D01*
X-5497205Y7943956D01*
X-5575003Y7995939D01*
X-5661448Y8031746D01*
X-5753217Y8050000D01*
X-5846783Y8050000D01*
X-5938552Y8031746D01*
X-6024997Y7995939D01*
X-6075000Y7962528D01*
X-6075000Y10545650D01*
X-5979736Y10467469D01*
%TA.AperFunction,Conductor*%
D22*
G36*
X-5979736Y10467469D02*
G01*
X-5853787Y10400147D01*
X-5717124Y10358691D01*
X-5575000Y10344693D01*
X-5432875Y10358691D01*
X-5296212Y10400147D01*
X-5204777Y10449020D01*
X-5200001Y10448550D01*
X-5185278Y10450000D01*
X-2055330Y10450000D01*
X-2457451Y10047878D01*
X-2538552Y10031746D01*
X-2624997Y9995939D01*
X-2702795Y9943956D01*
X-2768956Y9877795D01*
X-2820939Y9799997D01*
X-2856746Y9713552D01*
X-2875000Y9621783D01*
X-2875000Y9528217D01*
X-2856746Y9436448D01*
X-2820939Y9350003D01*
X-2779317Y9287712D01*
X-3653712Y9287712D01*
X-3671165Y9289431D01*
X-3688618Y9287712D01*
X-3688627Y9287712D01*
X-3740865Y9282567D01*
X-3807888Y9262236D01*
X-3869656Y9229220D01*
X-3923796Y9184788D01*
X-3934927Y9171225D01*
X-5357707Y7748444D01*
X-5379061Y7799997D01*
X-5431044Y7877795D01*
X-5497205Y7943956D01*
X-5575003Y7995939D01*
X-5661448Y8031746D01*
X-5753217Y8050000D01*
X-5846783Y8050000D01*
X-5938552Y8031746D01*
X-6024997Y7995939D01*
X-6075000Y7962528D01*
X-6075000Y10545650D01*
X-5979736Y10467469D01*
G37*
%TD.AperFunction*%
D19*
X5200000Y10448550D02*
X5205285Y10449070D01*
X5296813Y10400147D01*
X5433476Y10358691D01*
X5575600Y10344693D01*
X5717725Y10358691D01*
X5804764Y10385094D01*
X5369671Y9950000D01*
X3618416Y9950000D01*
X3600000Y9951814D01*
X3581584Y9950000D01*
X3581581Y9950000D01*
X3526487Y9944574D01*
X3455800Y9923131D01*
X3390653Y9888309D01*
X3333552Y9841448D01*
X3321811Y9827141D01*
X2773145Y9278475D01*
X2820939Y9350003D01*
X2856746Y9436448D01*
X2875000Y9528217D01*
X2875000Y9621783D01*
X2856746Y9713552D01*
X2820939Y9799997D01*
X2768956Y9877795D01*
X2702795Y9943956D01*
X2624997Y9995939D01*
X2538552Y10031746D01*
X2457452Y10047878D01*
X2055329Y10450000D01*
X5185277Y10450000D01*
X5200000Y10448550D01*
%TA.AperFunction,Conductor*%
D22*
G36*
X5200000Y10448550D02*
G01*
X5205285Y10449070D01*
X5296813Y10400147D01*
X5433476Y10358691D01*
X5575600Y10344693D01*
X5717725Y10358691D01*
X5804764Y10385094D01*
X5369671Y9950000D01*
X3618416Y9950000D01*
X3600000Y9951814D01*
X3581584Y9950000D01*
X3581581Y9950000D01*
X3526487Y9944574D01*
X3455800Y9923131D01*
X3390653Y9888309D01*
X3333552Y9841448D01*
X3321811Y9827141D01*
X2773145Y9278475D01*
X2820939Y9350003D01*
X2856746Y9436448D01*
X2875000Y9528217D01*
X2875000Y9621783D01*
X2856746Y9713552D01*
X2820939Y9799997D01*
X2768956Y9877795D01*
X2702795Y9943956D01*
X2624997Y9995939D01*
X2538552Y10031746D01*
X2457452Y10047878D01*
X2055329Y10450000D01*
X5185277Y10450000D01*
X5200000Y10448550D01*
G37*
%TD.AperFunction*%
%TD*%
M02*
