%TF.GenerationSoftware,KiCad,Pcbnew,(5.1.9)-1*%
%TF.CreationDate,2021-01-29T15:47:36+08:00*%
%TF.ProjectId,akami,616b616d-692e-46b6-9963-61645f706362,rev?*%
%TF.SameCoordinates,Original*%
%TF.FileFunction,Legend,Bot*%
%TF.FilePolarity,Positive*%
%FSLAX46Y46*%
G04 Gerber Fmt 4.6, Leading zero omitted, Abs format (unit mm)*
G04 Created by KiCad (PCBNEW (5.1.9)-1) date 2021-01-29 15:47:36*
%MOMM*%
%LPD*%
G01*
G04 APERTURE LIST*
%ADD10C,0.130000*%
%ADD11C,0.010000*%
G04 APERTURE END LIST*
D10*
X-1775000Y-6389285D02*
X-2025000Y-7139285D01*
X-2275000Y-6389285D01*
X-2953571Y-7067857D02*
X-2917857Y-7103571D01*
X-2810714Y-7139285D01*
X-2739285Y-7139285D01*
X-2632142Y-7103571D01*
X-2560714Y-7032142D01*
X-2525000Y-6960714D01*
X-2489285Y-6817857D01*
X-2489285Y-6710714D01*
X-2525000Y-6567857D01*
X-2560714Y-6496428D01*
X-2632142Y-6425000D01*
X-2739285Y-6389285D01*
X-2810714Y-6389285D01*
X-2917857Y-6425000D01*
X-2953571Y-6460714D01*
X-3703571Y-7067857D02*
X-3667857Y-7103571D01*
X-3560714Y-7139285D01*
X-3489285Y-7139285D01*
X-3382142Y-7103571D01*
X-3310714Y-7032142D01*
X-3275000Y-6960714D01*
X-3239285Y-6817857D01*
X-3239285Y-6710714D01*
X-3275000Y-6567857D01*
X-3310714Y-6496428D01*
X-3382142Y-6425000D01*
X-3489285Y-6389285D01*
X-3560714Y-6389285D01*
X-3667857Y-6425000D01*
X-3703571Y-6460714D01*
X-3839285Y-11896428D02*
X-3089285Y-11896428D01*
X-3089285Y-11717857D01*
X-3125000Y-11610714D01*
X-3196428Y-11539285D01*
X-3267857Y-11503571D01*
X-3410714Y-11467857D01*
X-3517857Y-11467857D01*
X-3660714Y-11503571D01*
X-3732142Y-11539285D01*
X-3803571Y-11610714D01*
X-3839285Y-11717857D01*
X-3839285Y-11896428D01*
X-1767857Y-11467857D02*
X-1803571Y-11503571D01*
X-1839285Y-11610714D01*
X-1839285Y-11682142D01*
X-1803571Y-11789285D01*
X-1732142Y-11860714D01*
X-1660714Y-11896428D01*
X-1517857Y-11932142D01*
X-1410714Y-11932142D01*
X-1267857Y-11896428D01*
X-1196428Y-11860714D01*
X-1125000Y-11789285D01*
X-1089285Y-11682142D01*
X-1089285Y-11610714D01*
X-1125000Y-11503571D01*
X-1160714Y-11467857D01*
D11*
%TO.C,DUMMY2*%
G36*
X2798966Y-13361365D02*
G01*
X2769272Y-13372282D01*
X2751478Y-13385552D01*
X2739851Y-13398315D01*
X2733550Y-13410085D01*
X2730967Y-13425558D01*
X2730492Y-13446852D01*
X2730977Y-13467707D01*
X2732319Y-13497776D01*
X2734332Y-13533612D01*
X2736835Y-13571773D01*
X2737949Y-13587138D01*
X2740329Y-13621288D01*
X2742053Y-13650680D01*
X2743018Y-13673122D01*
X2743121Y-13686426D01*
X2742721Y-13689116D01*
X2735768Y-13689527D01*
X2718407Y-13689319D01*
X2692912Y-13688552D01*
X2661557Y-13687289D01*
X2644775Y-13686507D01*
X2469605Y-13676584D01*
X2300147Y-13664145D01*
X2138446Y-13649365D01*
X1986543Y-13632418D01*
X1936518Y-13626066D01*
X1886085Y-13619764D01*
X1846447Y-13615788D01*
X1815882Y-13614320D01*
X1792668Y-13615541D01*
X1775084Y-13619634D01*
X1761406Y-13626780D01*
X1749912Y-13637161D01*
X1742144Y-13646581D01*
X1729671Y-13670870D01*
X1722142Y-13701732D01*
X1720525Y-13733680D01*
X1723340Y-13753405D01*
X1734017Y-13773816D01*
X1754061Y-13793347D01*
X1771861Y-13804664D01*
X1786688Y-13809506D01*
X1813150Y-13814879D01*
X1850196Y-13820688D01*
X1896777Y-13826834D01*
X1951842Y-13833220D01*
X2014342Y-13839748D01*
X2083226Y-13846321D01*
X2157445Y-13852842D01*
X2235948Y-13859212D01*
X2317686Y-13865334D01*
X2401609Y-13871111D01*
X2486666Y-13876444D01*
X2571808Y-13881238D01*
X2625184Y-13883944D01*
X2664779Y-13885931D01*
X2699789Y-13887822D01*
X2728335Y-13889504D01*
X2748537Y-13890865D01*
X2758516Y-13891792D01*
X2759240Y-13891974D01*
X2760343Y-13899312D01*
X2761384Y-13917097D01*
X2762343Y-13943311D01*
X2763196Y-13975936D01*
X2763920Y-14012954D01*
X2764493Y-14052348D01*
X2764892Y-14092098D01*
X2765094Y-14130189D01*
X2765078Y-14164601D01*
X2764819Y-14193317D01*
X2764296Y-14214319D01*
X2763486Y-14225588D01*
X2763001Y-14226950D01*
X2754701Y-14225734D01*
X2736922Y-14222460D01*
X2712613Y-14217685D01*
X2694687Y-14214035D01*
X2638551Y-14203817D01*
X2577700Y-14195075D01*
X2516431Y-14188289D01*
X2459043Y-14183939D01*
X2412229Y-14182500D01*
X2377595Y-14181648D01*
X2355205Y-14179065D01*
X2344720Y-14174712D01*
X2344593Y-14174562D01*
X2340447Y-14164986D01*
X2334998Y-14146345D01*
X2329211Y-14122071D01*
X2327236Y-14112650D01*
X2321110Y-14085502D01*
X2314470Y-14061124D01*
X2308508Y-14043775D01*
X2307100Y-14040712D01*
X2291299Y-14022893D01*
X2267340Y-14011047D01*
X2238374Y-14005364D01*
X2207550Y-14006034D01*
X2178019Y-14013247D01*
X2152930Y-14027194D01*
X2148387Y-14031122D01*
X2132561Y-14052518D01*
X2125046Y-14080021D01*
X2125592Y-14115159D01*
X2130056Y-14142365D01*
X2135659Y-14169790D01*
X2138563Y-14187090D01*
X2138550Y-14196595D01*
X2135401Y-14200636D01*
X2128897Y-14201543D01*
X2124505Y-14201550D01*
X2106731Y-14203604D01*
X2079905Y-14209221D01*
X2046894Y-14217582D01*
X2010565Y-14227870D01*
X1973785Y-14239265D01*
X1939423Y-14250948D01*
X1910345Y-14262103D01*
X1906205Y-14263857D01*
X1822395Y-14306020D01*
X1748441Y-14355922D01*
X1684509Y-14413384D01*
X1630766Y-14478224D01*
X1587377Y-14550264D01*
X1554509Y-14629322D01*
X1546963Y-14653558D01*
X1528143Y-14739520D01*
X1520232Y-14827805D01*
X1523024Y-14916420D01*
X1536310Y-15003375D01*
X1559884Y-15086681D01*
X1593539Y-15164347D01*
X1601697Y-15179450D01*
X1652238Y-15256818D01*
X1713351Y-15327893D01*
X1784303Y-15392164D01*
X1864359Y-15449120D01*
X1952785Y-15498249D01*
X2048846Y-15539043D01*
X2151808Y-15570989D01*
X2171700Y-15575923D01*
X2226675Y-15587788D01*
X2281361Y-15597284D01*
X2333831Y-15604251D01*
X2382158Y-15608526D01*
X2424414Y-15609949D01*
X2458671Y-15608359D01*
X2483003Y-15603596D01*
X2486564Y-15602224D01*
X2511569Y-15584883D01*
X2530210Y-15559285D01*
X2541572Y-15528642D01*
X2544737Y-15496167D01*
X2538791Y-15465076D01*
X2530421Y-15448350D01*
X2512018Y-15428553D01*
X2485995Y-15414996D01*
X2450561Y-15406884D01*
X2432705Y-15404930D01*
X2323468Y-15391433D01*
X2222369Y-15369963D01*
X2129789Y-15340725D01*
X2046108Y-15303924D01*
X1971707Y-15259764D01*
X1906965Y-15208450D01*
X1852263Y-15150187D01*
X1807980Y-15085179D01*
X1795565Y-15061975D01*
X1767761Y-14993197D01*
X1750743Y-14920760D01*
X1744458Y-14846612D01*
X1748854Y-14772699D01*
X1763877Y-14700969D01*
X1789475Y-14633371D01*
X1808145Y-14598485D01*
X1823283Y-14576593D01*
X1844271Y-14550585D01*
X1867502Y-14524822D01*
X1877187Y-14515000D01*
X1931346Y-14470486D01*
X1995393Y-14433306D01*
X2068614Y-14403796D01*
X2150298Y-14382294D01*
X2162424Y-14379931D01*
X2180550Y-14377422D01*
X2189096Y-14378956D01*
X2190750Y-14382988D01*
X2192842Y-14393467D01*
X2198613Y-14413631D01*
X2207304Y-14441268D01*
X2218158Y-14474163D01*
X2230418Y-14510102D01*
X2243325Y-14546870D01*
X2256123Y-14582255D01*
X2268053Y-14614042D01*
X2278358Y-14640017D01*
X2280306Y-14644672D01*
X2328766Y-14751028D01*
X2382269Y-14853922D01*
X2439524Y-14951197D01*
X2499238Y-15040693D01*
X2560119Y-15120253D01*
X2576966Y-15140186D01*
X2611669Y-15180298D01*
X2585360Y-15240677D01*
X2567959Y-15287285D01*
X2560084Y-15326250D01*
X2561896Y-15358503D01*
X2573553Y-15384979D01*
X2595218Y-15406611D01*
X2616010Y-15419162D01*
X2652016Y-15432014D01*
X2684560Y-15432680D01*
X2713219Y-15421305D01*
X2737573Y-15398035D01*
X2753138Y-15372074D01*
X2762484Y-15352724D01*
X2769487Y-15338528D01*
X2772489Y-15332808D01*
X2778056Y-15335239D01*
X2792030Y-15343497D01*
X2812301Y-15356287D01*
X2836762Y-15372312D01*
X2836789Y-15372329D01*
X2904746Y-15414360D01*
X2968468Y-15446603D01*
X3030562Y-15469970D01*
X3093635Y-15485375D01*
X3160292Y-15493729D01*
X3188029Y-15495280D01*
X3237646Y-15496117D01*
X3278175Y-15493979D01*
X3312991Y-15488328D01*
X3345469Y-15478626D01*
X3377400Y-15465086D01*
X3427814Y-15434344D01*
X3471931Y-15393274D01*
X3508974Y-15342989D01*
X3538165Y-15284597D01*
X3558729Y-15219211D01*
X3562770Y-15200140D01*
X3567223Y-15162820D01*
X3568584Y-15116959D01*
X3567247Y-15072453D01*
X3364628Y-15072453D01*
X3363489Y-15118556D01*
X3357936Y-15159711D01*
X3348057Y-15192410D01*
X3348023Y-15192487D01*
X3324602Y-15231982D01*
X3293774Y-15261215D01*
X3255668Y-15280144D01*
X3210417Y-15288726D01*
X3158153Y-15286919D01*
X3099007Y-15274681D01*
X3095625Y-15273724D01*
X3049659Y-15257132D01*
X2999091Y-15232999D01*
X2947706Y-15203323D01*
X2899286Y-15170102D01*
X2898940Y-15169842D01*
X2877838Y-15153688D01*
X2860795Y-15140132D01*
X2850247Y-15131136D01*
X2848130Y-15128899D01*
X2848437Y-15120919D01*
X2851929Y-15103930D01*
X2857927Y-15081020D01*
X2860937Y-15070686D01*
X2876231Y-15014023D01*
X2891276Y-14947880D01*
X2905520Y-14875475D01*
X2918417Y-14800024D01*
X2929418Y-14724743D01*
X2937973Y-14652850D01*
X2943535Y-14587562D01*
X2943650Y-14585725D01*
X2945795Y-14556622D01*
X2948237Y-14531865D01*
X2950645Y-14514426D01*
X2952336Y-14507721D01*
X2959254Y-14507217D01*
X2974214Y-14513657D01*
X2995497Y-14525862D01*
X3021382Y-14542651D01*
X3050149Y-14562845D01*
X3080079Y-14585264D01*
X3109453Y-14608729D01*
X3136549Y-14632060D01*
X3145204Y-14640003D01*
X3206400Y-14704041D01*
X3259259Y-14773327D01*
X3302662Y-14846033D01*
X3335489Y-14920334D01*
X3353319Y-14979425D01*
X3361267Y-15024907D01*
X3364628Y-15072453D01*
X3567247Y-15072453D01*
X3567061Y-15066284D01*
X3562862Y-15014517D01*
X3556198Y-14965383D01*
X3547276Y-14922606D01*
X3547190Y-14922275D01*
X3522948Y-14848948D01*
X3488426Y-14773252D01*
X3445051Y-14697736D01*
X3394250Y-14624952D01*
X3352031Y-14573573D01*
X3307327Y-14527868D01*
X3253085Y-14480560D01*
X3191950Y-14433625D01*
X3159992Y-14411831D01*
X2761378Y-14411831D01*
X2758342Y-14470203D01*
X2754268Y-14530338D01*
X2748208Y-14595226D01*
X2740513Y-14662425D01*
X2731540Y-14729491D01*
X2721640Y-14793979D01*
X2711169Y-14853445D01*
X2700481Y-14905447D01*
X2689928Y-14947541D01*
X2688506Y-14952422D01*
X2685802Y-14956948D01*
X2681051Y-14956143D01*
X2673211Y-14948889D01*
X2661240Y-14934069D01*
X2644094Y-14910567D01*
X2627756Y-14887350D01*
X2581910Y-14816545D01*
X2536550Y-14736925D01*
X2493474Y-14652190D01*
X2454481Y-14566037D01*
X2421371Y-14482168D01*
X2400758Y-14420625D01*
X2393603Y-14397115D01*
X2387575Y-14377343D01*
X2383923Y-14365405D01*
X2383817Y-14365062D01*
X2383363Y-14359480D01*
X2387814Y-14356159D01*
X2399516Y-14354543D01*
X2420816Y-14354073D01*
X2430035Y-14354073D01*
X2482794Y-14356392D01*
X2542434Y-14362627D01*
X2604418Y-14372057D01*
X2664208Y-14383960D01*
X2717268Y-14397612D01*
X2731652Y-14402090D01*
X2761378Y-14411831D01*
X3159992Y-14411831D01*
X3126569Y-14389038D01*
X3059589Y-14348774D01*
X3027960Y-14331725D01*
X2966645Y-14299975D01*
X2963116Y-14098657D01*
X2959587Y-13897340D01*
X3203279Y-13898632D01*
X3265366Y-13898941D01*
X3316027Y-13899107D01*
X3356534Y-13899072D01*
X3388163Y-13898777D01*
X3412185Y-13898166D01*
X3429875Y-13897180D01*
X3442506Y-13895762D01*
X3451351Y-13893855D01*
X3457684Y-13891400D01*
X3462778Y-13888339D01*
X3464973Y-13886773D01*
X3487211Y-13863253D01*
X3500520Y-13833718D01*
X3504901Y-13801185D01*
X3500351Y-13768673D01*
X3486869Y-13739201D01*
X3465057Y-13716226D01*
X3460105Y-13712906D01*
X3454334Y-13710184D01*
X3446490Y-13707988D01*
X3435314Y-13706249D01*
X3419551Y-13704895D01*
X3397943Y-13703857D01*
X3369235Y-13703063D01*
X3332170Y-13702443D01*
X3285491Y-13701926D01*
X3227942Y-13701443D01*
X3197743Y-13701214D01*
X2948347Y-13699353D01*
X2944036Y-13596439D01*
X2941160Y-13538465D01*
X2937789Y-13491940D01*
X2933748Y-13455617D01*
X2928862Y-13428249D01*
X2922956Y-13408589D01*
X2915890Y-13395435D01*
X2893809Y-13375671D01*
X2864671Y-13363266D01*
X2831911Y-13358429D01*
X2798966Y-13361365D01*
G37*
X2798966Y-13361365D02*
X2769272Y-13372282D01*
X2751478Y-13385552D01*
X2739851Y-13398315D01*
X2733550Y-13410085D01*
X2730967Y-13425558D01*
X2730492Y-13446852D01*
X2730977Y-13467707D01*
X2732319Y-13497776D01*
X2734332Y-13533612D01*
X2736835Y-13571773D01*
X2737949Y-13587138D01*
X2740329Y-13621288D01*
X2742053Y-13650680D01*
X2743018Y-13673122D01*
X2743121Y-13686426D01*
X2742721Y-13689116D01*
X2735768Y-13689527D01*
X2718407Y-13689319D01*
X2692912Y-13688552D01*
X2661557Y-13687289D01*
X2644775Y-13686507D01*
X2469605Y-13676584D01*
X2300147Y-13664145D01*
X2138446Y-13649365D01*
X1986543Y-13632418D01*
X1936518Y-13626066D01*
X1886085Y-13619764D01*
X1846447Y-13615788D01*
X1815882Y-13614320D01*
X1792668Y-13615541D01*
X1775084Y-13619634D01*
X1761406Y-13626780D01*
X1749912Y-13637161D01*
X1742144Y-13646581D01*
X1729671Y-13670870D01*
X1722142Y-13701732D01*
X1720525Y-13733680D01*
X1723340Y-13753405D01*
X1734017Y-13773816D01*
X1754061Y-13793347D01*
X1771861Y-13804664D01*
X1786688Y-13809506D01*
X1813150Y-13814879D01*
X1850196Y-13820688D01*
X1896777Y-13826834D01*
X1951842Y-13833220D01*
X2014342Y-13839748D01*
X2083226Y-13846321D01*
X2157445Y-13852842D01*
X2235948Y-13859212D01*
X2317686Y-13865334D01*
X2401609Y-13871111D01*
X2486666Y-13876444D01*
X2571808Y-13881238D01*
X2625184Y-13883944D01*
X2664779Y-13885931D01*
X2699789Y-13887822D01*
X2728335Y-13889504D01*
X2748537Y-13890865D01*
X2758516Y-13891792D01*
X2759240Y-13891974D01*
X2760343Y-13899312D01*
X2761384Y-13917097D01*
X2762343Y-13943311D01*
X2763196Y-13975936D01*
X2763920Y-14012954D01*
X2764493Y-14052348D01*
X2764892Y-14092098D01*
X2765094Y-14130189D01*
X2765078Y-14164601D01*
X2764819Y-14193317D01*
X2764296Y-14214319D01*
X2763486Y-14225588D01*
X2763001Y-14226950D01*
X2754701Y-14225734D01*
X2736922Y-14222460D01*
X2712613Y-14217685D01*
X2694687Y-14214035D01*
X2638551Y-14203817D01*
X2577700Y-14195075D01*
X2516431Y-14188289D01*
X2459043Y-14183939D01*
X2412229Y-14182500D01*
X2377595Y-14181648D01*
X2355205Y-14179065D01*
X2344720Y-14174712D01*
X2344593Y-14174562D01*
X2340447Y-14164986D01*
X2334998Y-14146345D01*
X2329211Y-14122071D01*
X2327236Y-14112650D01*
X2321110Y-14085502D01*
X2314470Y-14061124D01*
X2308508Y-14043775D01*
X2307100Y-14040712D01*
X2291299Y-14022893D01*
X2267340Y-14011047D01*
X2238374Y-14005364D01*
X2207550Y-14006034D01*
X2178019Y-14013247D01*
X2152930Y-14027194D01*
X2148387Y-14031122D01*
X2132561Y-14052518D01*
X2125046Y-14080021D01*
X2125592Y-14115159D01*
X2130056Y-14142365D01*
X2135659Y-14169790D01*
X2138563Y-14187090D01*
X2138550Y-14196595D01*
X2135401Y-14200636D01*
X2128897Y-14201543D01*
X2124505Y-14201550D01*
X2106731Y-14203604D01*
X2079905Y-14209221D01*
X2046894Y-14217582D01*
X2010565Y-14227870D01*
X1973785Y-14239265D01*
X1939423Y-14250948D01*
X1910345Y-14262103D01*
X1906205Y-14263857D01*
X1822395Y-14306020D01*
X1748441Y-14355922D01*
X1684509Y-14413384D01*
X1630766Y-14478224D01*
X1587377Y-14550264D01*
X1554509Y-14629322D01*
X1546963Y-14653558D01*
X1528143Y-14739520D01*
X1520232Y-14827805D01*
X1523024Y-14916420D01*
X1536310Y-15003375D01*
X1559884Y-15086681D01*
X1593539Y-15164347D01*
X1601697Y-15179450D01*
X1652238Y-15256818D01*
X1713351Y-15327893D01*
X1784303Y-15392164D01*
X1864359Y-15449120D01*
X1952785Y-15498249D01*
X2048846Y-15539043D01*
X2151808Y-15570989D01*
X2171700Y-15575923D01*
X2226675Y-15587788D01*
X2281361Y-15597284D01*
X2333831Y-15604251D01*
X2382158Y-15608526D01*
X2424414Y-15609949D01*
X2458671Y-15608359D01*
X2483003Y-15603596D01*
X2486564Y-15602224D01*
X2511569Y-15584883D01*
X2530210Y-15559285D01*
X2541572Y-15528642D01*
X2544737Y-15496167D01*
X2538791Y-15465076D01*
X2530421Y-15448350D01*
X2512018Y-15428553D01*
X2485995Y-15414996D01*
X2450561Y-15406884D01*
X2432705Y-15404930D01*
X2323468Y-15391433D01*
X2222369Y-15369963D01*
X2129789Y-15340725D01*
X2046108Y-15303924D01*
X1971707Y-15259764D01*
X1906965Y-15208450D01*
X1852263Y-15150187D01*
X1807980Y-15085179D01*
X1795565Y-15061975D01*
X1767761Y-14993197D01*
X1750743Y-14920760D01*
X1744458Y-14846612D01*
X1748854Y-14772699D01*
X1763877Y-14700969D01*
X1789475Y-14633371D01*
X1808145Y-14598485D01*
X1823283Y-14576593D01*
X1844271Y-14550585D01*
X1867502Y-14524822D01*
X1877187Y-14515000D01*
X1931346Y-14470486D01*
X1995393Y-14433306D01*
X2068614Y-14403796D01*
X2150298Y-14382294D01*
X2162424Y-14379931D01*
X2180550Y-14377422D01*
X2189096Y-14378956D01*
X2190750Y-14382988D01*
X2192842Y-14393467D01*
X2198613Y-14413631D01*
X2207304Y-14441268D01*
X2218158Y-14474163D01*
X2230418Y-14510102D01*
X2243325Y-14546870D01*
X2256123Y-14582255D01*
X2268053Y-14614042D01*
X2278358Y-14640017D01*
X2280306Y-14644672D01*
X2328766Y-14751028D01*
X2382269Y-14853922D01*
X2439524Y-14951197D01*
X2499238Y-15040693D01*
X2560119Y-15120253D01*
X2576966Y-15140186D01*
X2611669Y-15180298D01*
X2585360Y-15240677D01*
X2567959Y-15287285D01*
X2560084Y-15326250D01*
X2561896Y-15358503D01*
X2573553Y-15384979D01*
X2595218Y-15406611D01*
X2616010Y-15419162D01*
X2652016Y-15432014D01*
X2684560Y-15432680D01*
X2713219Y-15421305D01*
X2737573Y-15398035D01*
X2753138Y-15372074D01*
X2762484Y-15352724D01*
X2769487Y-15338528D01*
X2772489Y-15332808D01*
X2778056Y-15335239D01*
X2792030Y-15343497D01*
X2812301Y-15356287D01*
X2836762Y-15372312D01*
X2836789Y-15372329D01*
X2904746Y-15414360D01*
X2968468Y-15446603D01*
X3030562Y-15469970D01*
X3093635Y-15485375D01*
X3160292Y-15493729D01*
X3188029Y-15495280D01*
X3237646Y-15496117D01*
X3278175Y-15493979D01*
X3312991Y-15488328D01*
X3345469Y-15478626D01*
X3377400Y-15465086D01*
X3427814Y-15434344D01*
X3471931Y-15393274D01*
X3508974Y-15342989D01*
X3538165Y-15284597D01*
X3558729Y-15219211D01*
X3562770Y-15200140D01*
X3567223Y-15162820D01*
X3568584Y-15116959D01*
X3567247Y-15072453D01*
X3364628Y-15072453D01*
X3363489Y-15118556D01*
X3357936Y-15159711D01*
X3348057Y-15192410D01*
X3348023Y-15192487D01*
X3324602Y-15231982D01*
X3293774Y-15261215D01*
X3255668Y-15280144D01*
X3210417Y-15288726D01*
X3158153Y-15286919D01*
X3099007Y-15274681D01*
X3095625Y-15273724D01*
X3049659Y-15257132D01*
X2999091Y-15232999D01*
X2947706Y-15203323D01*
X2899286Y-15170102D01*
X2898940Y-15169842D01*
X2877838Y-15153688D01*
X2860795Y-15140132D01*
X2850247Y-15131136D01*
X2848130Y-15128899D01*
X2848437Y-15120919D01*
X2851929Y-15103930D01*
X2857927Y-15081020D01*
X2860937Y-15070686D01*
X2876231Y-15014023D01*
X2891276Y-14947880D01*
X2905520Y-14875475D01*
X2918417Y-14800024D01*
X2929418Y-14724743D01*
X2937973Y-14652850D01*
X2943535Y-14587562D01*
X2943650Y-14585725D01*
X2945795Y-14556622D01*
X2948237Y-14531865D01*
X2950645Y-14514426D01*
X2952336Y-14507721D01*
X2959254Y-14507217D01*
X2974214Y-14513657D01*
X2995497Y-14525862D01*
X3021382Y-14542651D01*
X3050149Y-14562845D01*
X3080079Y-14585264D01*
X3109453Y-14608729D01*
X3136549Y-14632060D01*
X3145204Y-14640003D01*
X3206400Y-14704041D01*
X3259259Y-14773327D01*
X3302662Y-14846033D01*
X3335489Y-14920334D01*
X3353319Y-14979425D01*
X3361267Y-15024907D01*
X3364628Y-15072453D01*
X3567247Y-15072453D01*
X3567061Y-15066284D01*
X3562862Y-15014517D01*
X3556198Y-14965383D01*
X3547276Y-14922606D01*
X3547190Y-14922275D01*
X3522948Y-14848948D01*
X3488426Y-14773252D01*
X3445051Y-14697736D01*
X3394250Y-14624952D01*
X3352031Y-14573573D01*
X3307327Y-14527868D01*
X3253085Y-14480560D01*
X3191950Y-14433625D01*
X3159992Y-14411831D01*
X2761378Y-14411831D01*
X2758342Y-14470203D01*
X2754268Y-14530338D01*
X2748208Y-14595226D01*
X2740513Y-14662425D01*
X2731540Y-14729491D01*
X2721640Y-14793979D01*
X2711169Y-14853445D01*
X2700481Y-14905447D01*
X2689928Y-14947541D01*
X2688506Y-14952422D01*
X2685802Y-14956948D01*
X2681051Y-14956143D01*
X2673211Y-14948889D01*
X2661240Y-14934069D01*
X2644094Y-14910567D01*
X2627756Y-14887350D01*
X2581910Y-14816545D01*
X2536550Y-14736925D01*
X2493474Y-14652190D01*
X2454481Y-14566037D01*
X2421371Y-14482168D01*
X2400758Y-14420625D01*
X2393603Y-14397115D01*
X2387575Y-14377343D01*
X2383923Y-14365405D01*
X2383817Y-14365062D01*
X2383363Y-14359480D01*
X2387814Y-14356159D01*
X2399516Y-14354543D01*
X2420816Y-14354073D01*
X2430035Y-14354073D01*
X2482794Y-14356392D01*
X2542434Y-14362627D01*
X2604418Y-14372057D01*
X2664208Y-14383960D01*
X2717268Y-14397612D01*
X2731652Y-14402090D01*
X2761378Y-14411831D01*
X3159992Y-14411831D01*
X3126569Y-14389038D01*
X3059589Y-14348774D01*
X3027960Y-14331725D01*
X2966645Y-14299975D01*
X2963116Y-14098657D01*
X2959587Y-13897340D01*
X3203279Y-13898632D01*
X3265366Y-13898941D01*
X3316027Y-13899107D01*
X3356534Y-13899072D01*
X3388163Y-13898777D01*
X3412185Y-13898166D01*
X3429875Y-13897180D01*
X3442506Y-13895762D01*
X3451351Y-13893855D01*
X3457684Y-13891400D01*
X3462778Y-13888339D01*
X3464973Y-13886773D01*
X3487211Y-13863253D01*
X3500520Y-13833718D01*
X3504901Y-13801185D01*
X3500351Y-13768673D01*
X3486869Y-13739201D01*
X3465057Y-13716226D01*
X3460105Y-13712906D01*
X3454334Y-13710184D01*
X3446490Y-13707988D01*
X3435314Y-13706249D01*
X3419551Y-13704895D01*
X3397943Y-13703857D01*
X3369235Y-13703063D01*
X3332170Y-13702443D01*
X3285491Y-13701926D01*
X3227942Y-13701443D01*
X3197743Y-13701214D01*
X2948347Y-13699353D01*
X2944036Y-13596439D01*
X2941160Y-13538465D01*
X2937789Y-13491940D01*
X2933748Y-13455617D01*
X2928862Y-13428249D01*
X2922956Y-13408589D01*
X2915890Y-13395435D01*
X2893809Y-13375671D01*
X2864671Y-13363266D01*
X2831911Y-13358429D01*
X2798966Y-13361365D01*
G36*
X-2406947Y-13489122D02*
G01*
X-2440982Y-13489888D01*
X-2469018Y-13491196D01*
X-2491892Y-13493084D01*
X-2510443Y-13495589D01*
X-2525507Y-13498748D01*
X-2537922Y-13502598D01*
X-2548525Y-13507175D01*
X-2558153Y-13512518D01*
X-2567644Y-13518661D01*
X-2575957Y-13524354D01*
X-2609124Y-13553722D01*
X-2632352Y-13589694D01*
X-2645846Y-13632856D01*
X-2649816Y-13683799D01*
X-2646932Y-13725300D01*
X-2641952Y-13756795D01*
X-2633351Y-13799191D01*
X-2621421Y-13851308D01*
X-2606451Y-13911963D01*
X-2588733Y-13979974D01*
X-2568556Y-14054161D01*
X-2549409Y-14122175D01*
X-2537828Y-14162909D01*
X-2527372Y-14200074D01*
X-2518570Y-14231751D01*
X-2511954Y-14256024D01*
X-2508053Y-14270976D01*
X-2507285Y-14274372D01*
X-2507742Y-14281854D01*
X-2514204Y-14286699D01*
X-2529379Y-14290372D01*
X-2540000Y-14292067D01*
X-2633636Y-14309537D01*
X-2733997Y-14334800D01*
X-2838464Y-14367047D01*
X-2944417Y-14405470D01*
X-3048862Y-14449092D01*
X-3116400Y-14479263D01*
X-3120423Y-14443594D01*
X-3125475Y-14390977D01*
X-3130097Y-14326953D01*
X-3134218Y-14252809D01*
X-3137766Y-14169834D01*
X-3140670Y-14079315D01*
X-3140785Y-14075054D01*
X-3142378Y-14020315D01*
X-3144087Y-13976742D01*
X-3146207Y-13942799D01*
X-3149031Y-13916954D01*
X-3152853Y-13897672D01*
X-3157967Y-13883419D01*
X-3164668Y-13872663D01*
X-3173248Y-13863868D01*
X-3182674Y-13856470D01*
X-3205636Y-13845944D01*
X-3235538Y-13840863D01*
X-3267707Y-13841537D01*
X-3297467Y-13848279D01*
X-3298736Y-13848753D01*
X-3321659Y-13860448D01*
X-3338049Y-13876634D01*
X-3348933Y-13899358D01*
X-3355340Y-13930670D01*
X-3358095Y-13967065D01*
X-3358842Y-14007601D01*
X-3358380Y-14058139D01*
X-3356846Y-14116326D01*
X-3354372Y-14179809D01*
X-3351095Y-14246236D01*
X-3347148Y-14313251D01*
X-3342666Y-14378504D01*
X-3337784Y-14439640D01*
X-3332636Y-14494306D01*
X-3327358Y-14540150D01*
X-3323934Y-14564022D01*
X-3320293Y-14586769D01*
X-3377151Y-14622814D01*
X-3435825Y-14661996D01*
X-3498706Y-14707472D01*
X-3561565Y-14756046D01*
X-3620174Y-14804517D01*
X-3638036Y-14820101D01*
X-3672456Y-14852050D01*
X-3697463Y-14879180D01*
X-3714331Y-14903527D01*
X-3724336Y-14927133D01*
X-3728753Y-14952034D01*
X-3729264Y-14965989D01*
X-3724958Y-15001172D01*
X-3710983Y-15031004D01*
X-3689923Y-15055219D01*
X-3675175Y-15066828D01*
X-3658708Y-15073224D01*
X-3635236Y-15076395D01*
X-3633224Y-15076546D01*
X-3611499Y-15077071D01*
X-3592715Y-15074369D01*
X-3574551Y-15067222D01*
X-3554682Y-15054416D01*
X-3530784Y-15034733D01*
X-3500877Y-15007281D01*
X-3468303Y-14977485D01*
X-3434005Y-14947665D01*
X-3399392Y-14918891D01*
X-3365879Y-14892234D01*
X-3334876Y-14868764D01*
X-3307795Y-14849554D01*
X-3286049Y-14835675D01*
X-3271049Y-14828196D01*
X-3264401Y-14827914D01*
X-3260374Y-14836460D01*
X-3254401Y-14853530D01*
X-3248001Y-14874650D01*
X-3212801Y-14977906D01*
X-3166811Y-15078914D01*
X-3111831Y-15173753D01*
X-3108095Y-15179450D01*
X-3047097Y-15262393D01*
X-2978945Y-15336895D01*
X-2902502Y-15403928D01*
X-2816633Y-15464466D01*
X-2720203Y-15519481D01*
X-2698750Y-15530303D01*
X-2665346Y-15546500D01*
X-2640167Y-15557704D01*
X-2620238Y-15564913D01*
X-2602585Y-15569125D01*
X-2584234Y-15571337D01*
X-2574575Y-15571968D01*
X-2550350Y-15572852D01*
X-2534525Y-15571588D01*
X-2522849Y-15567186D01*
X-2511075Y-15558659D01*
X-2508624Y-15556615D01*
X-2485577Y-15529432D01*
X-2472735Y-15496847D01*
X-2470653Y-15461713D01*
X-2479886Y-15426885D01*
X-2482385Y-15421659D01*
X-2488307Y-15410367D01*
X-2494143Y-15401379D01*
X-2501693Y-15393420D01*
X-2512757Y-15385216D01*
X-2529137Y-15375494D01*
X-2552631Y-15362980D01*
X-2585041Y-15346399D01*
X-2598141Y-15339746D01*
X-2655498Y-15309290D01*
X-2703894Y-15280345D01*
X-2746518Y-15250734D01*
X-2786560Y-15218279D01*
X-2818140Y-15189505D01*
X-2880778Y-15122118D01*
X-2936228Y-15045558D01*
X-2985272Y-14958734D01*
X-2987609Y-14954025D01*
X-3002705Y-14921412D01*
X-3018257Y-14884336D01*
X-3033402Y-14845251D01*
X-3047278Y-14806611D01*
X-3059022Y-14770873D01*
X-3067771Y-14740491D01*
X-3072665Y-14717920D01*
X-3073400Y-14709837D01*
X-3070057Y-14703275D01*
X-3059238Y-14694475D01*
X-3039753Y-14682682D01*
X-3010413Y-14667145D01*
X-2989262Y-14656541D01*
X-2863261Y-14599234D01*
X-2739558Y-14553288D01*
X-2616304Y-14518056D01*
X-2550366Y-14503475D01*
X-2511810Y-14495422D01*
X-2483144Y-14489668D01*
X-2462339Y-14487423D01*
X-2447371Y-14489898D01*
X-2436213Y-14498301D01*
X-2426838Y-14513843D01*
X-2417221Y-14537734D01*
X-2405334Y-14571184D01*
X-2396673Y-14595250D01*
X-2350968Y-14715368D01*
X-2305489Y-14825823D01*
X-2260455Y-14926187D01*
X-2216086Y-15016033D01*
X-2172604Y-15094933D01*
X-2130229Y-15162460D01*
X-2089180Y-15218187D01*
X-2056361Y-15255086D01*
X-2005854Y-15300296D01*
X-1954424Y-15333910D01*
X-1899935Y-15356976D01*
X-1840254Y-15370540D01*
X-1814779Y-15373510D01*
X-1752652Y-15373184D01*
X-1694301Y-15360748D01*
X-1639669Y-15336178D01*
X-1588698Y-15299454D01*
X-1568751Y-15280785D01*
X-1526949Y-15230633D01*
X-1494309Y-15173005D01*
X-1470623Y-15107357D01*
X-1455688Y-15033146D01*
X-1449879Y-14966725D01*
X-1450275Y-14944575D01*
X-1658736Y-14944575D01*
X-1662813Y-14992094D01*
X-1666446Y-15011033D01*
X-1682116Y-15058923D01*
X-1703792Y-15097009D01*
X-1730675Y-15124793D01*
X-1761966Y-15141775D01*
X-1796867Y-15147456D01*
X-1834577Y-15141337D01*
X-1859009Y-15131403D01*
X-1890181Y-15111534D01*
X-1921730Y-15082566D01*
X-1954020Y-15043963D01*
X-1987412Y-14995186D01*
X-2022268Y-14935698D01*
X-2058951Y-14864960D01*
X-2097822Y-14782436D01*
X-2105504Y-14765336D01*
X-2134009Y-14699967D01*
X-2158974Y-14639154D01*
X-2183010Y-14576402D01*
X-2197869Y-14535685D01*
X-2222714Y-14466595D01*
X-2165457Y-14471074D01*
X-2089227Y-14480963D01*
X-2014451Y-14498133D01*
X-1943954Y-14521677D01*
X-1880556Y-14550687D01*
X-1838297Y-14576218D01*
X-1787058Y-14618518D01*
X-1742017Y-14669725D01*
X-1705252Y-14727025D01*
X-1678847Y-14787602D01*
X-1676375Y-14795275D01*
X-1665741Y-14841295D01*
X-1659787Y-14892685D01*
X-1658736Y-14944575D01*
X-1450275Y-14944575D01*
X-1451535Y-14874126D01*
X-1464660Y-14786580D01*
X-1488902Y-14704497D01*
X-1523907Y-14628291D01*
X-1569322Y-14558374D01*
X-1624795Y-14495159D01*
X-1689972Y-14439058D01*
X-1764501Y-14390485D01*
X-1848028Y-14349850D01*
X-1940200Y-14317568D01*
X-2022475Y-14297521D01*
X-2075920Y-14288020D01*
X-2131399Y-14280234D01*
X-2184758Y-14274640D01*
X-2231845Y-14271717D01*
X-2249476Y-14271400D01*
X-2289653Y-14271400D01*
X-2300702Y-14231712D01*
X-2321368Y-14156173D01*
X-2340635Y-14083189D01*
X-2358258Y-14013841D01*
X-2373997Y-13949207D01*
X-2387608Y-13890365D01*
X-2398849Y-13838395D01*
X-2407477Y-13794375D01*
X-2413250Y-13759385D01*
X-2415925Y-13734503D01*
X-2415423Y-13721391D01*
X-2407132Y-13705928D01*
X-2396262Y-13695575D01*
X-2390911Y-13692808D01*
X-2383443Y-13690732D01*
X-2372461Y-13689332D01*
X-2356568Y-13688590D01*
X-2334366Y-13688491D01*
X-2304460Y-13689019D01*
X-2265451Y-13690158D01*
X-2215944Y-13691892D01*
X-2182729Y-13693132D01*
X-2125051Y-13695171D01*
X-2063681Y-13697091D01*
X-2001909Y-13698805D01*
X-1943024Y-13700229D01*
X-1890316Y-13701276D01*
X-1847850Y-13701854D01*
X-1802799Y-13702214D01*
X-1768574Y-13702270D01*
X-1743300Y-13701861D01*
X-1725105Y-13700821D01*
X-1712115Y-13698989D01*
X-1702455Y-13696201D01*
X-1694253Y-13692293D01*
X-1686783Y-13687819D01*
X-1664059Y-13666667D01*
X-1649663Y-13638298D01*
X-1644192Y-13605575D01*
X-1648246Y-13571359D01*
X-1657412Y-13547377D01*
X-1663659Y-13535661D01*
X-1670136Y-13526071D01*
X-1678127Y-13518365D01*
X-1688913Y-13512299D01*
X-1703779Y-13507633D01*
X-1724007Y-13504124D01*
X-1750882Y-13501530D01*
X-1785686Y-13499608D01*
X-1829703Y-13498117D01*
X-1884216Y-13496814D01*
X-1930400Y-13495863D01*
X-2029872Y-13493862D01*
X-2117483Y-13492146D01*
X-2194072Y-13490751D01*
X-2260476Y-13489714D01*
X-2317531Y-13489072D01*
X-2366076Y-13488863D01*
X-2406947Y-13489122D01*
G37*
X-2406947Y-13489122D02*
X-2440982Y-13489888D01*
X-2469018Y-13491196D01*
X-2491892Y-13493084D01*
X-2510443Y-13495589D01*
X-2525507Y-13498748D01*
X-2537922Y-13502598D01*
X-2548525Y-13507175D01*
X-2558153Y-13512518D01*
X-2567644Y-13518661D01*
X-2575957Y-13524354D01*
X-2609124Y-13553722D01*
X-2632352Y-13589694D01*
X-2645846Y-13632856D01*
X-2649816Y-13683799D01*
X-2646932Y-13725300D01*
X-2641952Y-13756795D01*
X-2633351Y-13799191D01*
X-2621421Y-13851308D01*
X-2606451Y-13911963D01*
X-2588733Y-13979974D01*
X-2568556Y-14054161D01*
X-2549409Y-14122175D01*
X-2537828Y-14162909D01*
X-2527372Y-14200074D01*
X-2518570Y-14231751D01*
X-2511954Y-14256024D01*
X-2508053Y-14270976D01*
X-2507285Y-14274372D01*
X-2507742Y-14281854D01*
X-2514204Y-14286699D01*
X-2529379Y-14290372D01*
X-2540000Y-14292067D01*
X-2633636Y-14309537D01*
X-2733997Y-14334800D01*
X-2838464Y-14367047D01*
X-2944417Y-14405470D01*
X-3048862Y-14449092D01*
X-3116400Y-14479263D01*
X-3120423Y-14443594D01*
X-3125475Y-14390977D01*
X-3130097Y-14326953D01*
X-3134218Y-14252809D01*
X-3137766Y-14169834D01*
X-3140670Y-14079315D01*
X-3140785Y-14075054D01*
X-3142378Y-14020315D01*
X-3144087Y-13976742D01*
X-3146207Y-13942799D01*
X-3149031Y-13916954D01*
X-3152853Y-13897672D01*
X-3157967Y-13883419D01*
X-3164668Y-13872663D01*
X-3173248Y-13863868D01*
X-3182674Y-13856470D01*
X-3205636Y-13845944D01*
X-3235538Y-13840863D01*
X-3267707Y-13841537D01*
X-3297467Y-13848279D01*
X-3298736Y-13848753D01*
X-3321659Y-13860448D01*
X-3338049Y-13876634D01*
X-3348933Y-13899358D01*
X-3355340Y-13930670D01*
X-3358095Y-13967065D01*
X-3358842Y-14007601D01*
X-3358380Y-14058139D01*
X-3356846Y-14116326D01*
X-3354372Y-14179809D01*
X-3351095Y-14246236D01*
X-3347148Y-14313251D01*
X-3342666Y-14378504D01*
X-3337784Y-14439640D01*
X-3332636Y-14494306D01*
X-3327358Y-14540150D01*
X-3323934Y-14564022D01*
X-3320293Y-14586769D01*
X-3377151Y-14622814D01*
X-3435825Y-14661996D01*
X-3498706Y-14707472D01*
X-3561565Y-14756046D01*
X-3620174Y-14804517D01*
X-3638036Y-14820101D01*
X-3672456Y-14852050D01*
X-3697463Y-14879180D01*
X-3714331Y-14903527D01*
X-3724336Y-14927133D01*
X-3728753Y-14952034D01*
X-3729264Y-14965989D01*
X-3724958Y-15001172D01*
X-3710983Y-15031004D01*
X-3689923Y-15055219D01*
X-3675175Y-15066828D01*
X-3658708Y-15073224D01*
X-3635236Y-15076395D01*
X-3633224Y-15076546D01*
X-3611499Y-15077071D01*
X-3592715Y-15074369D01*
X-3574551Y-15067222D01*
X-3554682Y-15054416D01*
X-3530784Y-15034733D01*
X-3500877Y-15007281D01*
X-3468303Y-14977485D01*
X-3434005Y-14947665D01*
X-3399392Y-14918891D01*
X-3365879Y-14892234D01*
X-3334876Y-14868764D01*
X-3307795Y-14849554D01*
X-3286049Y-14835675D01*
X-3271049Y-14828196D01*
X-3264401Y-14827914D01*
X-3260374Y-14836460D01*
X-3254401Y-14853530D01*
X-3248001Y-14874650D01*
X-3212801Y-14977906D01*
X-3166811Y-15078914D01*
X-3111831Y-15173753D01*
X-3108095Y-15179450D01*
X-3047097Y-15262393D01*
X-2978945Y-15336895D01*
X-2902502Y-15403928D01*
X-2816633Y-15464466D01*
X-2720203Y-15519481D01*
X-2698750Y-15530303D01*
X-2665346Y-15546500D01*
X-2640167Y-15557704D01*
X-2620238Y-15564913D01*
X-2602585Y-15569125D01*
X-2584234Y-15571337D01*
X-2574575Y-15571968D01*
X-2550350Y-15572852D01*
X-2534525Y-15571588D01*
X-2522849Y-15567186D01*
X-2511075Y-15558659D01*
X-2508624Y-15556615D01*
X-2485577Y-15529432D01*
X-2472735Y-15496847D01*
X-2470653Y-15461713D01*
X-2479886Y-15426885D01*
X-2482385Y-15421659D01*
X-2488307Y-15410367D01*
X-2494143Y-15401379D01*
X-2501693Y-15393420D01*
X-2512757Y-15385216D01*
X-2529137Y-15375494D01*
X-2552631Y-15362980D01*
X-2585041Y-15346399D01*
X-2598141Y-15339746D01*
X-2655498Y-15309290D01*
X-2703894Y-15280345D01*
X-2746518Y-15250734D01*
X-2786560Y-15218279D01*
X-2818140Y-15189505D01*
X-2880778Y-15122118D01*
X-2936228Y-15045558D01*
X-2985272Y-14958734D01*
X-2987609Y-14954025D01*
X-3002705Y-14921412D01*
X-3018257Y-14884336D01*
X-3033402Y-14845251D01*
X-3047278Y-14806611D01*
X-3059022Y-14770873D01*
X-3067771Y-14740491D01*
X-3072665Y-14717920D01*
X-3073400Y-14709837D01*
X-3070057Y-14703275D01*
X-3059238Y-14694475D01*
X-3039753Y-14682682D01*
X-3010413Y-14667145D01*
X-2989262Y-14656541D01*
X-2863261Y-14599234D01*
X-2739558Y-14553288D01*
X-2616304Y-14518056D01*
X-2550366Y-14503475D01*
X-2511810Y-14495422D01*
X-2483144Y-14489668D01*
X-2462339Y-14487423D01*
X-2447371Y-14489898D01*
X-2436213Y-14498301D01*
X-2426838Y-14513843D01*
X-2417221Y-14537734D01*
X-2405334Y-14571184D01*
X-2396673Y-14595250D01*
X-2350968Y-14715368D01*
X-2305489Y-14825823D01*
X-2260455Y-14926187D01*
X-2216086Y-15016033D01*
X-2172604Y-15094933D01*
X-2130229Y-15162460D01*
X-2089180Y-15218187D01*
X-2056361Y-15255086D01*
X-2005854Y-15300296D01*
X-1954424Y-15333910D01*
X-1899935Y-15356976D01*
X-1840254Y-15370540D01*
X-1814779Y-15373510D01*
X-1752652Y-15373184D01*
X-1694301Y-15360748D01*
X-1639669Y-15336178D01*
X-1588698Y-15299454D01*
X-1568751Y-15280785D01*
X-1526949Y-15230633D01*
X-1494309Y-15173005D01*
X-1470623Y-15107357D01*
X-1455688Y-15033146D01*
X-1449879Y-14966725D01*
X-1450275Y-14944575D01*
X-1658736Y-14944575D01*
X-1662813Y-14992094D01*
X-1666446Y-15011033D01*
X-1682116Y-15058923D01*
X-1703792Y-15097009D01*
X-1730675Y-15124793D01*
X-1761966Y-15141775D01*
X-1796867Y-15147456D01*
X-1834577Y-15141337D01*
X-1859009Y-15131403D01*
X-1890181Y-15111534D01*
X-1921730Y-15082566D01*
X-1954020Y-15043963D01*
X-1987412Y-14995186D01*
X-2022268Y-14935698D01*
X-2058951Y-14864960D01*
X-2097822Y-14782436D01*
X-2105504Y-14765336D01*
X-2134009Y-14699967D01*
X-2158974Y-14639154D01*
X-2183010Y-14576402D01*
X-2197869Y-14535685D01*
X-2222714Y-14466595D01*
X-2165457Y-14471074D01*
X-2089227Y-14480963D01*
X-2014451Y-14498133D01*
X-1943954Y-14521677D01*
X-1880556Y-14550687D01*
X-1838297Y-14576218D01*
X-1787058Y-14618518D01*
X-1742017Y-14669725D01*
X-1705252Y-14727025D01*
X-1678847Y-14787602D01*
X-1676375Y-14795275D01*
X-1665741Y-14841295D01*
X-1659787Y-14892685D01*
X-1658736Y-14944575D01*
X-1450275Y-14944575D01*
X-1451535Y-14874126D01*
X-1464660Y-14786580D01*
X-1488902Y-14704497D01*
X-1523907Y-14628291D01*
X-1569322Y-14558374D01*
X-1624795Y-14495159D01*
X-1689972Y-14439058D01*
X-1764501Y-14390485D01*
X-1848028Y-14349850D01*
X-1940200Y-14317568D01*
X-2022475Y-14297521D01*
X-2075920Y-14288020D01*
X-2131399Y-14280234D01*
X-2184758Y-14274640D01*
X-2231845Y-14271717D01*
X-2249476Y-14271400D01*
X-2289653Y-14271400D01*
X-2300702Y-14231712D01*
X-2321368Y-14156173D01*
X-2340635Y-14083189D01*
X-2358258Y-14013841D01*
X-2373997Y-13949207D01*
X-2387608Y-13890365D01*
X-2398849Y-13838395D01*
X-2407477Y-13794375D01*
X-2413250Y-13759385D01*
X-2415925Y-13734503D01*
X-2415423Y-13721391D01*
X-2407132Y-13705928D01*
X-2396262Y-13695575D01*
X-2390911Y-13692808D01*
X-2383443Y-13690732D01*
X-2372461Y-13689332D01*
X-2356568Y-13688590D01*
X-2334366Y-13688491D01*
X-2304460Y-13689019D01*
X-2265451Y-13690158D01*
X-2215944Y-13691892D01*
X-2182729Y-13693132D01*
X-2125051Y-13695171D01*
X-2063681Y-13697091D01*
X-2001909Y-13698805D01*
X-1943024Y-13700229D01*
X-1890316Y-13701276D01*
X-1847850Y-13701854D01*
X-1802799Y-13702214D01*
X-1768574Y-13702270D01*
X-1743300Y-13701861D01*
X-1725105Y-13700821D01*
X-1712115Y-13698989D01*
X-1702455Y-13696201D01*
X-1694253Y-13692293D01*
X-1686783Y-13687819D01*
X-1664059Y-13666667D01*
X-1649663Y-13638298D01*
X-1644192Y-13605575D01*
X-1648246Y-13571359D01*
X-1657412Y-13547377D01*
X-1663659Y-13535661D01*
X-1670136Y-13526071D01*
X-1678127Y-13518365D01*
X-1688913Y-13512299D01*
X-1703779Y-13507633D01*
X-1724007Y-13504124D01*
X-1750882Y-13501530D01*
X-1785686Y-13499608D01*
X-1829703Y-13498117D01*
X-1884216Y-13496814D01*
X-1930400Y-13495863D01*
X-2029872Y-13493862D01*
X-2117483Y-13492146D01*
X-2194072Y-13490751D01*
X-2260476Y-13489714D01*
X-2317531Y-13489072D01*
X-2366076Y-13488863D01*
X-2406947Y-13489122D01*
G36*
X288027Y-13392532D02*
G01*
X256663Y-13401581D01*
X232506Y-13415147D01*
X231454Y-13416033D01*
X220149Y-13428135D01*
X212605Y-13442842D01*
X208690Y-13461990D01*
X208274Y-13487415D01*
X211225Y-13520956D01*
X217413Y-13564449D01*
X219804Y-13579250D01*
X229098Y-13633397D01*
X239839Y-13692186D01*
X251321Y-13752016D01*
X262843Y-13809289D01*
X273700Y-13860404D01*
X281230Y-13893575D01*
X290229Y-13931675D01*
X140352Y-13931675D01*
X88928Y-13931845D01*
X48088Y-13932440D01*
X15720Y-13933582D01*
X-10288Y-13935395D01*
X-32049Y-13938004D01*
X-51674Y-13941532D01*
X-60325Y-13943442D01*
X-132605Y-13965221D01*
X-195462Y-13995097D01*
X-249281Y-14033476D01*
X-294448Y-14080762D01*
X-331349Y-14137358D01*
X-360370Y-14203671D01*
X-381897Y-14280103D01*
X-381947Y-14280329D01*
X-392491Y-14343259D01*
X-399142Y-14416313D01*
X-402037Y-14497574D01*
X-401315Y-14585122D01*
X-397117Y-14677040D01*
X-389580Y-14771410D01*
X-378843Y-14866313D01*
X-365046Y-14959830D01*
X-348327Y-15050045D01*
X-328826Y-15135038D01*
X-316825Y-15179349D01*
X-289268Y-15260416D01*
X-256325Y-15330127D01*
X-217603Y-15388802D01*
X-172713Y-15436760D01*
X-121263Y-15474322D01*
X-62862Y-15501807D01*
X2880Y-15519536D01*
X76356Y-15527828D01*
X109953Y-15528574D01*
X207177Y-15522949D01*
X301512Y-15506118D01*
X395676Y-15477566D01*
X413045Y-15471053D01*
X458433Y-15451076D01*
X492261Y-15430084D01*
X515667Y-15406847D01*
X529790Y-15380136D01*
X535768Y-15348722D01*
X536144Y-15338148D01*
X531172Y-15300487D01*
X516707Y-15270076D01*
X494198Y-15247717D01*
X465096Y-15234215D01*
X430850Y-15230372D01*
X392911Y-15236992D01*
X369780Y-15245944D01*
X313490Y-15268848D01*
X255355Y-15286496D01*
X197471Y-15298648D01*
X141932Y-15305068D01*
X90833Y-15305514D01*
X46269Y-15299749D01*
X10333Y-15287535D01*
X9340Y-15287030D01*
X-19805Y-15267091D01*
X-46108Y-15238419D01*
X-69813Y-15200421D01*
X-91159Y-15152504D01*
X-110388Y-15094074D01*
X-127742Y-15024538D01*
X-143462Y-14943302D01*
X-151936Y-14890525D01*
X-162913Y-14811824D01*
X-170866Y-14740178D01*
X-176174Y-14670661D01*
X-179212Y-14598345D01*
X-180354Y-14519050D01*
X-179991Y-14457540D01*
X-178158Y-14406646D01*
X-174543Y-14364337D01*
X-168831Y-14328581D01*
X-160710Y-14297347D01*
X-149865Y-14268605D01*
X-137912Y-14243929D01*
X-116729Y-14210674D01*
X-90949Y-14183546D01*
X-59463Y-14162175D01*
X-21161Y-14146191D01*
X25064Y-14135224D01*
X80323Y-14128904D01*
X145725Y-14126862D01*
X209075Y-14128171D01*
X245916Y-14129886D01*
X278815Y-14131967D01*
X305470Y-14134225D01*
X323574Y-14136471D01*
X330350Y-14138130D01*
X336990Y-14147145D01*
X345756Y-14167768D01*
X356319Y-14199145D01*
X364946Y-14228246D01*
X412295Y-14386942D01*
X463642Y-14543995D01*
X518403Y-14697990D01*
X575994Y-14847516D01*
X635830Y-14991158D01*
X697327Y-15127503D01*
X759901Y-15255140D01*
X822967Y-15372654D01*
X874339Y-15459983D01*
X901451Y-15498604D01*
X928362Y-15525263D01*
X956205Y-15540629D01*
X986110Y-15545372D01*
X1012825Y-15541836D01*
X1039245Y-15532801D01*
X1061031Y-15518118D01*
X1078316Y-15500503D01*
X1095171Y-15476705D01*
X1103773Y-15451877D01*
X1103942Y-15424390D01*
X1095498Y-15392611D01*
X1078260Y-15354911D01*
X1058301Y-15319861D01*
X995374Y-15210969D01*
X932430Y-15092767D01*
X871044Y-14968549D01*
X812791Y-14841606D01*
X759246Y-14715230D01*
X717587Y-14607950D01*
X705525Y-14574708D01*
X691104Y-14533889D01*
X675060Y-14487674D01*
X658126Y-14438242D01*
X641036Y-14387775D01*
X624526Y-14338452D01*
X609329Y-14292455D01*
X596179Y-14251963D01*
X585812Y-14219158D01*
X579122Y-14196790D01*
X566131Y-14150756D01*
X589453Y-14153866D01*
X604340Y-14155718D01*
X628740Y-14158604D01*
X659542Y-14162164D01*
X693637Y-14166034D01*
X701675Y-14166937D01*
X739727Y-14171403D01*
X785684Y-14177111D01*
X834886Y-14183465D01*
X882672Y-14189868D01*
X904875Y-14192943D01*
X958699Y-14200066D01*
X1001610Y-14204455D01*
X1035158Y-14205828D01*
X1060891Y-14203902D01*
X1080360Y-14198394D01*
X1095112Y-14189020D01*
X1106698Y-14175497D01*
X1116665Y-14157542D01*
X1118358Y-14153925D01*
X1128130Y-14120202D01*
X1127713Y-14086687D01*
X1117860Y-14056093D01*
X1099321Y-14031133D01*
X1080690Y-14018006D01*
X1062919Y-14011784D01*
X1032851Y-14004882D01*
X990865Y-13997356D01*
X937343Y-13989261D01*
X872664Y-13980654D01*
X797210Y-13971591D01*
X711361Y-13962126D01*
X667879Y-13957590D01*
X625919Y-13953176D01*
X588318Y-13949010D01*
X556872Y-13945310D01*
X533377Y-13942290D01*
X519626Y-13940168D01*
X516788Y-13939404D01*
X513627Y-13931330D01*
X508590Y-13912452D01*
X502025Y-13884469D01*
X494282Y-13849080D01*
X485710Y-13807985D01*
X476661Y-13762882D01*
X467482Y-13715472D01*
X458524Y-13667452D01*
X450136Y-13620523D01*
X445039Y-13590712D01*
X436140Y-13538674D01*
X428545Y-13497686D01*
X421744Y-13466228D01*
X415226Y-13442781D01*
X408483Y-13425824D01*
X401003Y-13413838D01*
X392279Y-13405302D01*
X381798Y-13398698D01*
X380373Y-13397950D01*
X354380Y-13390170D01*
X322099Y-13388546D01*
X288027Y-13392532D01*
G37*
X288027Y-13392532D02*
X256663Y-13401581D01*
X232506Y-13415147D01*
X231454Y-13416033D01*
X220149Y-13428135D01*
X212605Y-13442842D01*
X208690Y-13461990D01*
X208274Y-13487415D01*
X211225Y-13520956D01*
X217413Y-13564449D01*
X219804Y-13579250D01*
X229098Y-13633397D01*
X239839Y-13692186D01*
X251321Y-13752016D01*
X262843Y-13809289D01*
X273700Y-13860404D01*
X281230Y-13893575D01*
X290229Y-13931675D01*
X140352Y-13931675D01*
X88928Y-13931845D01*
X48088Y-13932440D01*
X15720Y-13933582D01*
X-10288Y-13935395D01*
X-32049Y-13938004D01*
X-51674Y-13941532D01*
X-60325Y-13943442D01*
X-132605Y-13965221D01*
X-195462Y-13995097D01*
X-249281Y-14033476D01*
X-294448Y-14080762D01*
X-331349Y-14137358D01*
X-360370Y-14203671D01*
X-381897Y-14280103D01*
X-381947Y-14280329D01*
X-392491Y-14343259D01*
X-399142Y-14416313D01*
X-402037Y-14497574D01*
X-401315Y-14585122D01*
X-397117Y-14677040D01*
X-389580Y-14771410D01*
X-378843Y-14866313D01*
X-365046Y-14959830D01*
X-348327Y-15050045D01*
X-328826Y-15135038D01*
X-316825Y-15179349D01*
X-289268Y-15260416D01*
X-256325Y-15330127D01*
X-217603Y-15388802D01*
X-172713Y-15436760D01*
X-121263Y-15474322D01*
X-62862Y-15501807D01*
X2880Y-15519536D01*
X76356Y-15527828D01*
X109953Y-15528574D01*
X207177Y-15522949D01*
X301512Y-15506118D01*
X395676Y-15477566D01*
X413045Y-15471053D01*
X458433Y-15451076D01*
X492261Y-15430084D01*
X515667Y-15406847D01*
X529790Y-15380136D01*
X535768Y-15348722D01*
X536144Y-15338148D01*
X531172Y-15300487D01*
X516707Y-15270076D01*
X494198Y-15247717D01*
X465096Y-15234215D01*
X430850Y-15230372D01*
X392911Y-15236992D01*
X369780Y-15245944D01*
X313490Y-15268848D01*
X255355Y-15286496D01*
X197471Y-15298648D01*
X141932Y-15305068D01*
X90833Y-15305514D01*
X46269Y-15299749D01*
X10333Y-15287535D01*
X9340Y-15287030D01*
X-19805Y-15267091D01*
X-46108Y-15238419D01*
X-69813Y-15200421D01*
X-91159Y-15152504D01*
X-110388Y-15094074D01*
X-127742Y-15024538D01*
X-143462Y-14943302D01*
X-151936Y-14890525D01*
X-162913Y-14811824D01*
X-170866Y-14740178D01*
X-176174Y-14670661D01*
X-179212Y-14598345D01*
X-180354Y-14519050D01*
X-179991Y-14457540D01*
X-178158Y-14406646D01*
X-174543Y-14364337D01*
X-168831Y-14328581D01*
X-160710Y-14297347D01*
X-149865Y-14268605D01*
X-137912Y-14243929D01*
X-116729Y-14210674D01*
X-90949Y-14183546D01*
X-59463Y-14162175D01*
X-21161Y-14146191D01*
X25064Y-14135224D01*
X80323Y-14128904D01*
X145725Y-14126862D01*
X209075Y-14128171D01*
X245916Y-14129886D01*
X278815Y-14131967D01*
X305470Y-14134225D01*
X323574Y-14136471D01*
X330350Y-14138130D01*
X336990Y-14147145D01*
X345756Y-14167768D01*
X356319Y-14199145D01*
X364946Y-14228246D01*
X412295Y-14386942D01*
X463642Y-14543995D01*
X518403Y-14697990D01*
X575994Y-14847516D01*
X635830Y-14991158D01*
X697327Y-15127503D01*
X759901Y-15255140D01*
X822967Y-15372654D01*
X874339Y-15459983D01*
X901451Y-15498604D01*
X928362Y-15525263D01*
X956205Y-15540629D01*
X986110Y-15545372D01*
X1012825Y-15541836D01*
X1039245Y-15532801D01*
X1061031Y-15518118D01*
X1078316Y-15500503D01*
X1095171Y-15476705D01*
X1103773Y-15451877D01*
X1103942Y-15424390D01*
X1095498Y-15392611D01*
X1078260Y-15354911D01*
X1058301Y-15319861D01*
X995374Y-15210969D01*
X932430Y-15092767D01*
X871044Y-14968549D01*
X812791Y-14841606D01*
X759246Y-14715230D01*
X717587Y-14607950D01*
X705525Y-14574708D01*
X691104Y-14533889D01*
X675060Y-14487674D01*
X658126Y-14438242D01*
X641036Y-14387775D01*
X624526Y-14338452D01*
X609329Y-14292455D01*
X596179Y-14251963D01*
X585812Y-14219158D01*
X579122Y-14196790D01*
X566131Y-14150756D01*
X589453Y-14153866D01*
X604340Y-14155718D01*
X628740Y-14158604D01*
X659542Y-14162164D01*
X693637Y-14166034D01*
X701675Y-14166937D01*
X739727Y-14171403D01*
X785684Y-14177111D01*
X834886Y-14183465D01*
X882672Y-14189868D01*
X904875Y-14192943D01*
X958699Y-14200066D01*
X1001610Y-14204455D01*
X1035158Y-14205828D01*
X1060891Y-14203902D01*
X1080360Y-14198394D01*
X1095112Y-14189020D01*
X1106698Y-14175497D01*
X1116665Y-14157542D01*
X1118358Y-14153925D01*
X1128130Y-14120202D01*
X1127713Y-14086687D01*
X1117860Y-14056093D01*
X1099321Y-14031133D01*
X1080690Y-14018006D01*
X1062919Y-14011784D01*
X1032851Y-14004882D01*
X990865Y-13997356D01*
X937343Y-13989261D01*
X872664Y-13980654D01*
X797210Y-13971591D01*
X711361Y-13962126D01*
X667879Y-13957590D01*
X625919Y-13953176D01*
X588318Y-13949010D01*
X556872Y-13945310D01*
X533377Y-13942290D01*
X519626Y-13940168D01*
X516788Y-13939404D01*
X513627Y-13931330D01*
X508590Y-13912452D01*
X502025Y-13884469D01*
X494282Y-13849080D01*
X485710Y-13807985D01*
X476661Y-13762882D01*
X467482Y-13715472D01*
X458524Y-13667452D01*
X450136Y-13620523D01*
X445039Y-13590712D01*
X436140Y-13538674D01*
X428545Y-13497686D01*
X421744Y-13466228D01*
X415226Y-13442781D01*
X408483Y-13425824D01*
X401003Y-13413838D01*
X392279Y-13405302D01*
X381798Y-13398698D01*
X380373Y-13397950D01*
X354380Y-13390170D01*
X322099Y-13388546D01*
X288027Y-13392532D01*
G36*
X-546567Y-13707513D02*
G01*
X-570856Y-13711163D01*
X-592185Y-13719330D01*
X-612725Y-13733590D01*
X-634648Y-13755516D01*
X-660125Y-13786683D01*
X-665572Y-13793814D01*
X-737458Y-13894888D01*
X-808122Y-14006313D01*
X-876358Y-14125740D01*
X-940958Y-14250818D01*
X-1000714Y-14379199D01*
X-1054420Y-14508533D01*
X-1100867Y-14636470D01*
X-1104964Y-14648788D01*
X-1119174Y-14699554D01*
X-1125109Y-14741465D01*
X-1122632Y-14775416D01*
X-1111606Y-14802303D01*
X-1091895Y-14823018D01*
X-1076897Y-14832317D01*
X-1051658Y-14841522D01*
X-1022190Y-14846611D01*
X-993709Y-14847081D01*
X-971550Y-14842479D01*
X-946730Y-14826837D01*
X-926053Y-14801821D01*
X-908426Y-14766011D01*
X-904191Y-14754710D01*
X-848932Y-14607955D01*
X-789813Y-14466957D01*
X-727433Y-14332882D01*
X-662394Y-14206898D01*
X-595297Y-14090171D01*
X-526742Y-13983870D01*
X-461080Y-13893945D01*
X-438387Y-13861031D01*
X-425804Y-13832559D01*
X-422602Y-13806350D01*
X-425674Y-13787747D01*
X-440931Y-13754298D01*
X-465143Y-13729043D01*
X-496797Y-13712985D01*
X-534376Y-13707130D01*
X-546567Y-13707513D01*
G37*
X-546567Y-13707513D02*
X-570856Y-13711163D01*
X-592185Y-13719330D01*
X-612725Y-13733590D01*
X-634648Y-13755516D01*
X-660125Y-13786683D01*
X-665572Y-13793814D01*
X-737458Y-13894888D01*
X-808122Y-14006313D01*
X-876358Y-14125740D01*
X-940958Y-14250818D01*
X-1000714Y-14379199D01*
X-1054420Y-14508533D01*
X-1100867Y-14636470D01*
X-1104964Y-14648788D01*
X-1119174Y-14699554D01*
X-1125109Y-14741465D01*
X-1122632Y-14775416D01*
X-1111606Y-14802303D01*
X-1091895Y-14823018D01*
X-1076897Y-14832317D01*
X-1051658Y-14841522D01*
X-1022190Y-14846611D01*
X-993709Y-14847081D01*
X-971550Y-14842479D01*
X-946730Y-14826837D01*
X-926053Y-14801821D01*
X-908426Y-14766011D01*
X-904191Y-14754710D01*
X-848932Y-14607955D01*
X-789813Y-14466957D01*
X-727433Y-14332882D01*
X-662394Y-14206898D01*
X-595297Y-14090171D01*
X-526742Y-13983870D01*
X-461080Y-13893945D01*
X-438387Y-13861031D01*
X-425804Y-13832559D01*
X-422602Y-13806350D01*
X-425674Y-13787747D01*
X-440931Y-13754298D01*
X-465143Y-13729043D01*
X-496797Y-13712985D01*
X-534376Y-13707130D01*
X-546567Y-13707513D01*
%TO.C,U4*%
D10*
X-5725000Y4498571D02*
X-5689285Y4427142D01*
X-5689285Y4320000D01*
X-5725000Y4212857D01*
X-5796428Y4141428D01*
X-5867857Y4105714D01*
X-6010714Y4070000D01*
X-6117857Y4070000D01*
X-6260714Y4105714D01*
X-6332142Y4141428D01*
X-6403571Y4212857D01*
X-6439285Y4320000D01*
X-6439285Y4391428D01*
X-6403571Y4498571D01*
X-6367857Y4534285D01*
X-6117857Y4534285D01*
X-6117857Y4391428D01*
X-6439285Y4855714D02*
X-5689285Y4855714D01*
X-6439285Y5284285D01*
X-5689285Y5284285D01*
X-6439285Y5641428D02*
X-5689285Y5641428D01*
X-5689285Y5820000D01*
X-5725000Y5927142D01*
X-5796428Y5998571D01*
X-5867857Y6034285D01*
X-6010714Y6070000D01*
X-6117857Y6070000D01*
X-6260714Y6034285D01*
X-6332142Y5998571D01*
X-6403571Y5927142D01*
X-6439285Y5820000D01*
X-6439285Y5641428D01*
X-5725000Y7038571D02*
X-5689285Y6967142D01*
X-5689285Y6860000D01*
X-5725000Y6752857D01*
X-5796428Y6681428D01*
X-5867857Y6645714D01*
X-6010714Y6610000D01*
X-6117857Y6610000D01*
X-6260714Y6645714D01*
X-6332142Y6681428D01*
X-6403571Y6752857D01*
X-6439285Y6860000D01*
X-6439285Y6931428D01*
X-6403571Y7038571D01*
X-6367857Y7074285D01*
X-6117857Y7074285D01*
X-6117857Y6931428D01*
X-6439285Y7395714D02*
X-5689285Y7395714D01*
X-6439285Y7824285D01*
X-5689285Y7824285D01*
X-6439285Y8181428D02*
X-5689285Y8181428D01*
X-5689285Y8360000D01*
X-5725000Y8467142D01*
X-5796428Y8538571D01*
X-5867857Y8574285D01*
X-6010714Y8610000D01*
X-6117857Y8610000D01*
X-6260714Y8574285D01*
X-6332142Y8538571D01*
X-6403571Y8467142D01*
X-6439285Y8360000D01*
X-6439285Y8181428D01*
X5689285Y-1800000D02*
X5689285Y-1871428D01*
X5725000Y-1942857D01*
X5760714Y-1978571D01*
X5832142Y-2014285D01*
X5975000Y-2050000D01*
X6153571Y-2050000D01*
X6296428Y-2014285D01*
X6367857Y-1978571D01*
X6403571Y-1942857D01*
X6439285Y-1871428D01*
X6439285Y-1800000D01*
X6403571Y-1728571D01*
X6367857Y-1692857D01*
X6296428Y-1657142D01*
X6153571Y-1621428D01*
X5975000Y-1621428D01*
X5832142Y-1657142D01*
X5760714Y-1692857D01*
X5725000Y-1728571D01*
X5689285Y-1800000D01*
X5689285Y-2514285D02*
X5689285Y-2585714D01*
X5725000Y-2657142D01*
X5760714Y-2692857D01*
X5832142Y-2728571D01*
X5975000Y-2764285D01*
X6153571Y-2764285D01*
X6296428Y-2728571D01*
X6367857Y-2692857D01*
X6403571Y-2657142D01*
X6439285Y-2585714D01*
X6439285Y-2514285D01*
X6403571Y-2442857D01*
X6367857Y-2407142D01*
X6296428Y-2371428D01*
X6153571Y-2335714D01*
X5975000Y-2335714D01*
X5832142Y-2371428D01*
X5760714Y-2407142D01*
X5725000Y-2442857D01*
X5689285Y-2514285D01*
X5760714Y-3049999D02*
X5725000Y-3085714D01*
X5689285Y-3157142D01*
X5689285Y-3335714D01*
X5725000Y-3407142D01*
X5760714Y-3442857D01*
X5832142Y-3478571D01*
X5903571Y-3478571D01*
X6010714Y-3442857D01*
X6439285Y-3014285D01*
X6439285Y-3478571D01*
X5689285Y740000D02*
X5689285Y668571D01*
X5725000Y597142D01*
X5760714Y561428D01*
X5832142Y525714D01*
X5975000Y490000D01*
X6153571Y490000D01*
X6296428Y525714D01*
X6367857Y561428D01*
X6403571Y597142D01*
X6439285Y668571D01*
X6439285Y740000D01*
X6403571Y811428D01*
X6367857Y847142D01*
X6296428Y882857D01*
X6153571Y918571D01*
X5975000Y918571D01*
X5832142Y882857D01*
X5760714Y847142D01*
X5725000Y811428D01*
X5689285Y740000D01*
X5760714Y204285D02*
X5725000Y168571D01*
X5689285Y97142D01*
X5689285Y-81428D01*
X5725000Y-152857D01*
X5760714Y-188571D01*
X5832142Y-224285D01*
X5903571Y-224285D01*
X6010714Y-188571D01*
X6439285Y240000D01*
X6439285Y-224285D01*
X6439285Y-581428D02*
X6439285Y-724285D01*
X6403571Y-795714D01*
X6367857Y-831428D01*
X6260714Y-902857D01*
X6117857Y-938571D01*
X5832142Y-938571D01*
X5760714Y-902857D01*
X5725000Y-867142D01*
X5689285Y-795714D01*
X5689285Y-652857D01*
X5725000Y-581428D01*
X5760714Y-545714D01*
X5832142Y-509999D01*
X6010714Y-509999D01*
X6082142Y-545714D01*
X6117857Y-581428D01*
X6153571Y-652857D01*
X6153571Y-795714D01*
X6117857Y-867142D01*
X6082142Y-902857D01*
X6010714Y-938571D01*
X6439285Y8020714D02*
X6082142Y8270714D01*
X6439285Y8449285D02*
X5689285Y8449285D01*
X5689285Y8163571D01*
X5725000Y8092142D01*
X5760714Y8056428D01*
X5832142Y8020714D01*
X5939285Y8020714D01*
X6010714Y8056428D01*
X6046428Y8092142D01*
X6082142Y8163571D01*
X6082142Y8449285D01*
X6403571Y7735000D02*
X6439285Y7627857D01*
X6439285Y7449285D01*
X6403571Y7377857D01*
X6367857Y7342142D01*
X6296428Y7306428D01*
X6225000Y7306428D01*
X6153571Y7342142D01*
X6117857Y7377857D01*
X6082142Y7449285D01*
X6046428Y7592142D01*
X6010714Y7663571D01*
X5975000Y7699285D01*
X5903571Y7735000D01*
X5832142Y7735000D01*
X5760714Y7699285D01*
X5725000Y7663571D01*
X5689285Y7592142D01*
X5689285Y7413571D01*
X5725000Y7306428D01*
X5689285Y7092142D02*
X5689285Y6663571D01*
X6439285Y6877857D02*
X5689285Y6877857D01*
X6439285Y-4590000D02*
X6439285Y-4161428D01*
X6439285Y-4375714D02*
X5689285Y-4375714D01*
X5796428Y-4304285D01*
X5867857Y-4232857D01*
X5903571Y-4161428D01*
X6439285Y-5304285D02*
X6439285Y-4875714D01*
X6439285Y-5089999D02*
X5689285Y-5089999D01*
X5796428Y-5018571D01*
X5867857Y-4947142D01*
X5903571Y-4875714D01*
X5689285Y-5982857D02*
X5689285Y-5625714D01*
X6046428Y-5589999D01*
X6010714Y-5625714D01*
X5975000Y-5697142D01*
X5975000Y-5875714D01*
X6010714Y-5947142D01*
X6046428Y-5982857D01*
X6117857Y-6018571D01*
X6296428Y-6018571D01*
X6367857Y-5982857D01*
X6403571Y-5947142D01*
X6439285Y-5875714D01*
X6439285Y-5697142D01*
X6403571Y-5625714D01*
X6367857Y-5589999D01*
X5689285Y-14500000D02*
X5689285Y-14571428D01*
X5725000Y-14642857D01*
X5760714Y-14678571D01*
X5832142Y-14714285D01*
X5975000Y-14750000D01*
X6153571Y-14750000D01*
X6296428Y-14714285D01*
X6367857Y-14678571D01*
X6403571Y-14642857D01*
X6439285Y-14571428D01*
X6439285Y-14500000D01*
X6403571Y-14428571D01*
X6367857Y-14392857D01*
X6296428Y-14357142D01*
X6153571Y-14321428D01*
X5975000Y-14321428D01*
X5832142Y-14357142D01*
X5760714Y-14392857D01*
X5725000Y-14428571D01*
X5689285Y-14500000D01*
X5689285Y-15214285D02*
X5689285Y-15285714D01*
X5725000Y-15357142D01*
X5760714Y-15392857D01*
X5832142Y-15428571D01*
X5975000Y-15464285D01*
X6153571Y-15464285D01*
X6296428Y-15428571D01*
X6367857Y-15392857D01*
X6403571Y-15357142D01*
X6439285Y-15285714D01*
X6439285Y-15214285D01*
X6403571Y-15142857D01*
X6367857Y-15107142D01*
X6296428Y-15071428D01*
X6153571Y-15035714D01*
X5975000Y-15035714D01*
X5832142Y-15071428D01*
X5760714Y-15107142D01*
X5725000Y-15142857D01*
X5689285Y-15214285D01*
X6439285Y-15821428D02*
X6439285Y-15964285D01*
X6403571Y-16035714D01*
X6367857Y-16071428D01*
X6260714Y-16142857D01*
X6117857Y-16178571D01*
X5832142Y-16178571D01*
X5760714Y-16142857D01*
X5725000Y-16107142D01*
X5689285Y-16035714D01*
X5689285Y-15892857D01*
X5725000Y-15821428D01*
X5760714Y-15785714D01*
X5832142Y-15750000D01*
X6010714Y-15750000D01*
X6082142Y-15785714D01*
X6117857Y-15821428D01*
X6153571Y-15892857D01*
X6153571Y-16035714D01*
X6117857Y-16107142D01*
X6082142Y-16142857D01*
X6010714Y-16178571D01*
X6439285Y-7130000D02*
X6439285Y-6701428D01*
X6439285Y-6915714D02*
X5689285Y-6915714D01*
X5796428Y-6844285D01*
X5867857Y-6772857D01*
X5903571Y-6701428D01*
X6439285Y-7844285D02*
X6439285Y-7415714D01*
X6439285Y-7629999D02*
X5689285Y-7629999D01*
X5796428Y-7558571D01*
X5867857Y-7487142D01*
X5903571Y-7415714D01*
X5689285Y-8094285D02*
X5689285Y-8558571D01*
X5975000Y-8308571D01*
X5975000Y-8415714D01*
X6010714Y-8487142D01*
X6046428Y-8522857D01*
X6117857Y-8558571D01*
X6296428Y-8558571D01*
X6367857Y-8522857D01*
X6403571Y-8487142D01*
X6439285Y-8415714D01*
X6439285Y-8201428D01*
X6403571Y-8129999D01*
X6367857Y-8094285D01*
X5689285Y3280000D02*
X5689285Y3208571D01*
X5725000Y3137142D01*
X5760714Y3101428D01*
X5832142Y3065714D01*
X5975000Y3030000D01*
X6153571Y3030000D01*
X6296428Y3065714D01*
X6367857Y3101428D01*
X6403571Y3137142D01*
X6439285Y3208571D01*
X6439285Y3280000D01*
X6403571Y3351428D01*
X6367857Y3387142D01*
X6296428Y3422857D01*
X6153571Y3458571D01*
X5975000Y3458571D01*
X5832142Y3422857D01*
X5760714Y3387142D01*
X5725000Y3351428D01*
X5689285Y3280000D01*
X5689285Y2780000D02*
X5689285Y2315714D01*
X5975000Y2565714D01*
X5975000Y2458571D01*
X6010714Y2387142D01*
X6046428Y2351428D01*
X6117857Y2315714D01*
X6296428Y2315714D01*
X6367857Y2351428D01*
X6403571Y2387142D01*
X6439285Y2458571D01*
X6439285Y2672857D01*
X6403571Y2744285D01*
X6367857Y2780000D01*
X6439285Y1601428D02*
X6439285Y2030000D01*
X6439285Y1815714D02*
X5689285Y1815714D01*
X5796428Y1887142D01*
X5867857Y1958571D01*
X5903571Y2030000D01*
X5689285Y6070000D02*
X6439285Y5820000D01*
X5689285Y5570000D01*
X6367857Y4891428D02*
X6403571Y4927142D01*
X6439285Y5034285D01*
X6439285Y5105714D01*
X6403571Y5212857D01*
X6332142Y5284285D01*
X6260714Y5320000D01*
X6117857Y5355714D01*
X6010714Y5355714D01*
X5867857Y5320000D01*
X5796428Y5284285D01*
X5725000Y5212857D01*
X5689285Y5105714D01*
X5689285Y5034285D01*
X5725000Y4927142D01*
X5760714Y4891428D01*
X6367857Y4141428D02*
X6403571Y4177142D01*
X6439285Y4284285D01*
X6439285Y4355714D01*
X6403571Y4462857D01*
X6332142Y4534285D01*
X6260714Y4570000D01*
X6117857Y4605714D01*
X6010714Y4605714D01*
X5867857Y4570000D01*
X5796428Y4534285D01*
X5725000Y4462857D01*
X5689285Y4355714D01*
X5689285Y4284285D01*
X5725000Y4177142D01*
X5760714Y4141428D01*
X5689285Y-11960000D02*
X5689285Y-12031428D01*
X5725000Y-12102857D01*
X5760714Y-12138571D01*
X5832142Y-12174285D01*
X5975000Y-12210000D01*
X6153571Y-12210000D01*
X6296428Y-12174285D01*
X6367857Y-12138571D01*
X6403571Y-12102857D01*
X6439285Y-12031428D01*
X6439285Y-11960000D01*
X6403571Y-11888571D01*
X6367857Y-11852857D01*
X6296428Y-11817142D01*
X6153571Y-11781428D01*
X5975000Y-11781428D01*
X5832142Y-11817142D01*
X5760714Y-11852857D01*
X5725000Y-11888571D01*
X5689285Y-11960000D01*
X6439285Y-12924285D02*
X6439285Y-12495714D01*
X6439285Y-12710000D02*
X5689285Y-12709999D01*
X5796428Y-12638571D01*
X5867857Y-12567142D01*
X5903571Y-12495714D01*
X5689285Y-13388571D02*
X5689285Y-13460000D01*
X5725000Y-13531428D01*
X5760714Y-13567142D01*
X5832142Y-13602857D01*
X5975000Y-13638571D01*
X6153571Y-13638571D01*
X6296428Y-13602857D01*
X6367857Y-13567142D01*
X6403571Y-13531428D01*
X6439285Y-13460000D01*
X6439285Y-13388571D01*
X6403571Y-13317142D01*
X6367857Y-13281428D01*
X6296428Y-13245714D01*
X6153571Y-13210000D01*
X5975000Y-13210000D01*
X5832142Y-13245714D01*
X5760714Y-13281428D01*
X5725000Y-13317142D01*
X5689285Y-13388571D01*
X6439285Y-9670000D02*
X6439285Y-9241428D01*
X6439285Y-9455714D02*
X5689285Y-9455714D01*
X5796428Y-9384285D01*
X5867857Y-9312857D01*
X5903571Y-9241428D01*
X6439285Y-10384285D02*
X6439285Y-9955714D01*
X6439285Y-10170000D02*
X5689285Y-10169999D01*
X5796428Y-10098571D01*
X5867857Y-10027142D01*
X5903571Y-9955714D01*
X6439285Y-11098571D02*
X6439285Y-10670000D01*
X6439285Y-10884285D02*
X5689285Y-10884285D01*
X5796428Y-10812857D01*
X5867857Y-10741428D01*
X5903571Y-10670000D01*
X6253571Y13273571D02*
X6146428Y13237857D01*
X6110714Y13202142D01*
X6075000Y13130714D01*
X6075000Y13023571D01*
X6110714Y12952142D01*
X6146428Y12916428D01*
X6217857Y12880714D01*
X6503571Y12880714D01*
X6503571Y13630714D01*
X6253571Y13630714D01*
X6182142Y13595000D01*
X6146428Y13559285D01*
X6110714Y13487857D01*
X6110714Y13416428D01*
X6146428Y13345000D01*
X6182142Y13309285D01*
X6253571Y13273571D01*
X6503571Y13273571D01*
X5789285Y13095000D02*
X5432142Y13095000D01*
X5860714Y12880714D02*
X5610714Y13630714D01*
X5360714Y12880714D01*
X5217857Y13630714D02*
X4789285Y13630714D01*
X5003571Y12880714D02*
X5003571Y13630714D01*
X-6439285Y-15750000D02*
X-6439285Y-16178571D01*
X-6439285Y-15964285D02*
X-5689285Y-15964285D01*
X-5796428Y-16035714D01*
X-5867857Y-16107142D01*
X-5903571Y-16178571D01*
X-5689285Y-15285714D02*
X-5689285Y-15214285D01*
X-5725000Y-15142857D01*
X-5760714Y-15107142D01*
X-5832142Y-15071428D01*
X-5975000Y-15035714D01*
X-6153571Y-15035714D01*
X-6296428Y-15071428D01*
X-6367857Y-15107142D01*
X-6403571Y-15142857D01*
X-6439285Y-15214285D01*
X-6439285Y-15285714D01*
X-6403571Y-15357142D01*
X-6367857Y-15392857D01*
X-6296428Y-15428571D01*
X-6153571Y-15464285D01*
X-5975000Y-15464285D01*
X-5832142Y-15428571D01*
X-5760714Y-15392857D01*
X-5725000Y-15357142D01*
X-5689285Y-15285714D01*
X-5689285Y-14392857D02*
X-5689285Y-14535714D01*
X-5725000Y-14607142D01*
X-5760714Y-14642857D01*
X-5867857Y-14714285D01*
X-6010714Y-14750000D01*
X-6296428Y-14750000D01*
X-6367857Y-14714285D01*
X-6403571Y-14678571D01*
X-6439285Y-14607142D01*
X-6439285Y-14464285D01*
X-6403571Y-14392857D01*
X-6367857Y-14357142D01*
X-6296428Y-14321428D01*
X-6117857Y-14321428D01*
X-6046428Y-14357142D01*
X-6010714Y-14392857D01*
X-5975000Y-14464285D01*
X-5975000Y-14607142D01*
X-6010714Y-14678571D01*
X-6046428Y-14714285D01*
X-6117857Y-14750000D01*
X-6439285Y-8130000D02*
X-6439285Y-8558571D01*
X-6439285Y-8344285D02*
X-5689285Y-8344285D01*
X-5796428Y-8415714D01*
X-5867857Y-8487142D01*
X-5903571Y-8558571D01*
X-5689285Y-7665714D02*
X-5689285Y-7594285D01*
X-5725000Y-7522857D01*
X-5760714Y-7487142D01*
X-5832142Y-7451428D01*
X-5975000Y-7415714D01*
X-6153571Y-7415714D01*
X-6296428Y-7451428D01*
X-6367857Y-7487142D01*
X-6403571Y-7522857D01*
X-6439285Y-7594285D01*
X-6439285Y-7665714D01*
X-6403571Y-7737142D01*
X-6367857Y-7772857D01*
X-6296428Y-7808571D01*
X-6153571Y-7844285D01*
X-5975000Y-7844285D01*
X-5832142Y-7808571D01*
X-5760714Y-7772857D01*
X-5725000Y-7737142D01*
X-5689285Y-7665714D01*
X-5689285Y-6951428D02*
X-5689285Y-6880000D01*
X-5725000Y-6808571D01*
X-5760714Y-6772857D01*
X-5832142Y-6737142D01*
X-5975000Y-6701428D01*
X-6153571Y-6701428D01*
X-6296428Y-6737142D01*
X-6367857Y-6772857D01*
X-6403571Y-6808571D01*
X-6439285Y-6880000D01*
X-6439285Y-6951428D01*
X-6403571Y-7022857D01*
X-6367857Y-7058571D01*
X-6296428Y-7094285D01*
X-6153571Y-7130000D01*
X-5975000Y-7130000D01*
X-5832142Y-7094285D01*
X-5760714Y-7058571D01*
X-5725000Y-7022857D01*
X-5689285Y-6951428D01*
X-5689285Y-10920000D02*
X-5689285Y-10848571D01*
X-5725000Y-10777142D01*
X-5760714Y-10741428D01*
X-5832142Y-10705714D01*
X-5975000Y-10670000D01*
X-6153571Y-10670000D01*
X-6296428Y-10705714D01*
X-6367857Y-10741428D01*
X-6403571Y-10777142D01*
X-6439285Y-10848571D01*
X-6439285Y-10920000D01*
X-6403571Y-10991428D01*
X-6367857Y-11027142D01*
X-6296428Y-11062857D01*
X-6153571Y-11098571D01*
X-5975000Y-11098571D01*
X-5832142Y-11062857D01*
X-5760714Y-11027142D01*
X-5725000Y-10991428D01*
X-5689285Y-10920000D01*
X-6439285Y-9955714D02*
X-6439285Y-10384285D01*
X-6439285Y-10170000D02*
X-5689285Y-10170000D01*
X-5796428Y-10241428D01*
X-5867857Y-10312857D01*
X-5903571Y-10384285D01*
X-6439285Y-9241428D02*
X-6439285Y-9670000D01*
X-6439285Y-9455714D02*
X-5689285Y-9455714D01*
X-5796428Y-9527142D01*
X-5867857Y-9598571D01*
X-5903571Y-9670000D01*
X-5689285Y-5840000D02*
X-5689285Y-5768571D01*
X-5725000Y-5697142D01*
X-5760714Y-5661428D01*
X-5832142Y-5625714D01*
X-5975000Y-5590000D01*
X-6153571Y-5590000D01*
X-6296428Y-5625714D01*
X-6367857Y-5661428D01*
X-6403571Y-5697142D01*
X-6439285Y-5768571D01*
X-6439285Y-5840000D01*
X-6403571Y-5911428D01*
X-6367857Y-5947142D01*
X-6296428Y-5982857D01*
X-6153571Y-6018571D01*
X-5975000Y-6018571D01*
X-5832142Y-5982857D01*
X-5760714Y-5947142D01*
X-5725000Y-5911428D01*
X-5689285Y-5840000D01*
X-5760714Y-5304285D02*
X-5725000Y-5268571D01*
X-5689285Y-5197142D01*
X-5689285Y-5018571D01*
X-5725000Y-4947142D01*
X-5760714Y-4911428D01*
X-5832142Y-4875714D01*
X-5903571Y-4875714D01*
X-6010714Y-4911428D01*
X-6439285Y-5340000D01*
X-6439285Y-4875714D01*
X-5939285Y-4232857D02*
X-6439285Y-4232857D01*
X-5653571Y-4411428D02*
X-6189285Y-4590000D01*
X-6189285Y-4125714D01*
X-5689285Y1780000D02*
X-5689285Y1851428D01*
X-5725000Y1922857D01*
X-5760714Y1958571D01*
X-5832142Y1994285D01*
X-5975000Y2030000D01*
X-6153571Y2030000D01*
X-6296428Y1994285D01*
X-6367857Y1958571D01*
X-6403571Y1922857D01*
X-6439285Y1851428D01*
X-6439285Y1780000D01*
X-6403571Y1708571D01*
X-6367857Y1672857D01*
X-6296428Y1637142D01*
X-6153571Y1601428D01*
X-5975000Y1601428D01*
X-5832142Y1637142D01*
X-5760714Y1672857D01*
X-5725000Y1708571D01*
X-5689285Y1780000D01*
X-6439285Y2744285D02*
X-6439285Y2315714D01*
X-6439285Y2529999D02*
X-5689285Y2529999D01*
X-5796428Y2458571D01*
X-5867857Y2387142D01*
X-5903571Y2315714D01*
X-5689285Y2994285D02*
X-5689285Y3494285D01*
X-6439285Y3172857D01*
X-5689285Y-3300000D02*
X-5689285Y-3228571D01*
X-5725000Y-3157142D01*
X-5760714Y-3121428D01*
X-5832142Y-3085714D01*
X-5975000Y-3050000D01*
X-6153571Y-3050000D01*
X-6296428Y-3085714D01*
X-6367857Y-3121428D01*
X-6403571Y-3157142D01*
X-6439285Y-3228571D01*
X-6439285Y-3300000D01*
X-6403571Y-3371428D01*
X-6367857Y-3407142D01*
X-6296428Y-3442857D01*
X-6153571Y-3478571D01*
X-5975000Y-3478571D01*
X-5832142Y-3442857D01*
X-5760714Y-3407142D01*
X-5725000Y-3371428D01*
X-5689285Y-3300000D01*
X-5760714Y-2764285D02*
X-5725000Y-2728571D01*
X-5689285Y-2657142D01*
X-5689285Y-2478571D01*
X-5725000Y-2407142D01*
X-5760714Y-2371428D01*
X-5832142Y-2335714D01*
X-5903571Y-2335714D01*
X-6010714Y-2371428D01*
X-6439285Y-2800000D01*
X-6439285Y-2335714D01*
X-5760714Y-2050000D02*
X-5725000Y-2014285D01*
X-5689285Y-1942857D01*
X-5689285Y-1764285D01*
X-5725000Y-1692857D01*
X-5760714Y-1657142D01*
X-5832142Y-1621428D01*
X-5903571Y-1621428D01*
X-6010714Y-1657142D01*
X-6439285Y-2085714D01*
X-6439285Y-1621428D01*
X-4950000Y10130714D02*
X-5021428Y10130714D01*
X-5092857Y10095000D01*
X-5128571Y10059285D01*
X-5164285Y9987857D01*
X-5200000Y9845000D01*
X-5200000Y9666428D01*
X-5164285Y9523571D01*
X-5128571Y9452142D01*
X-5092857Y9416428D01*
X-5021428Y9380714D01*
X-4950000Y9380714D01*
X-4878571Y9416428D01*
X-4842857Y9452142D01*
X-4807142Y9523571D01*
X-4771428Y9666428D01*
X-4771428Y9845000D01*
X-4807142Y9987857D01*
X-4842857Y10059285D01*
X-4878571Y10095000D01*
X-4950000Y10130714D01*
X-5664285Y10130714D02*
X-5735714Y10130714D01*
X-5807142Y10095000D01*
X-5842857Y10059285D01*
X-5878571Y9987857D01*
X-5914285Y9845000D01*
X-5914285Y9666428D01*
X-5878571Y9523571D01*
X-5842857Y9452142D01*
X-5807142Y9416428D01*
X-5735714Y9380714D01*
X-5664285Y9380714D01*
X-5592857Y9416428D01*
X-5557142Y9452142D01*
X-5521428Y9523571D01*
X-5485714Y9666428D01*
X-5485714Y9845000D01*
X-5521428Y9987857D01*
X-5557142Y10059285D01*
X-5592857Y10095000D01*
X-5664285Y10130714D01*
X-6342857Y9809285D02*
X-6271428Y9845000D01*
X-6235714Y9880714D01*
X-6199999Y9952142D01*
X-6199999Y9987857D01*
X-6235714Y10059285D01*
X-6271428Y10095000D01*
X-6342857Y10130714D01*
X-6485714Y10130714D01*
X-6557142Y10095000D01*
X-6592857Y10059285D01*
X-6628571Y9987857D01*
X-6628571Y9952142D01*
X-6592857Y9880714D01*
X-6557142Y9845000D01*
X-6485714Y9809285D01*
X-6342857Y9809285D01*
X-6271428Y9773571D01*
X-6235714Y9737857D01*
X-6199999Y9666428D01*
X-6199999Y9523571D01*
X-6235714Y9452142D01*
X-6271428Y9416428D01*
X-6342857Y9380714D01*
X-6485714Y9380714D01*
X-6557142Y9416428D01*
X-6592857Y9452142D01*
X-6628571Y9523571D01*
X-6628571Y9666428D01*
X-6592857Y9737857D01*
X-6557142Y9773571D01*
X-6485714Y9809285D01*
X-5689285Y-760000D02*
X-5689285Y-688571D01*
X-5725000Y-617142D01*
X-5760714Y-581428D01*
X-5832142Y-545714D01*
X-5975000Y-510000D01*
X-6153571Y-510000D01*
X-6296428Y-545714D01*
X-6367857Y-581428D01*
X-6403571Y-617142D01*
X-6439285Y-688571D01*
X-6439285Y-759999D01*
X-6403571Y-831428D01*
X-6367857Y-867142D01*
X-6296428Y-902857D01*
X-6153571Y-938571D01*
X-5975000Y-938571D01*
X-5832142Y-902857D01*
X-5760714Y-867142D01*
X-5725000Y-831428D01*
X-5689285Y-760000D01*
X-5760714Y-224285D02*
X-5725000Y-188571D01*
X-5689285Y-117142D01*
X-5689285Y61428D01*
X-5725000Y132857D01*
X-5760714Y168571D01*
X-5832142Y204285D01*
X-5903571Y204285D01*
X-6010714Y168571D01*
X-6439285Y-260000D01*
X-6439285Y204285D01*
X-5689285Y668571D02*
X-5689285Y739999D01*
X-5725000Y811428D01*
X-5760714Y847142D01*
X-5832142Y882857D01*
X-5975000Y918571D01*
X-6153571Y918571D01*
X-6296428Y882857D01*
X-6367857Y847142D01*
X-6403571Y811428D01*
X-6439285Y739999D01*
X-6439285Y668571D01*
X-6403571Y597142D01*
X-6367857Y561428D01*
X-6296428Y525714D01*
X-6153571Y489999D01*
X-5975000Y489999D01*
X-5832142Y525714D01*
X-5760714Y561428D01*
X-5725000Y597142D01*
X-5689285Y668571D01*
X-6439285Y-13083000D02*
X-6439285Y-13511571D01*
X-6439285Y-13297285D02*
X-5689285Y-13297285D01*
X-5796428Y-13368714D01*
X-5867857Y-13440142D01*
X-5903571Y-13511571D01*
X-5689285Y-12618714D02*
X-5689285Y-12547285D01*
X-5725000Y-12475857D01*
X-5760714Y-12440142D01*
X-5832142Y-12404428D01*
X-5975000Y-12368714D01*
X-6153571Y-12368714D01*
X-6296428Y-12404428D01*
X-6367857Y-12440142D01*
X-6403571Y-12475857D01*
X-6439285Y-12547285D01*
X-6439285Y-12618714D01*
X-6403571Y-12690142D01*
X-6367857Y-12725857D01*
X-6296428Y-12761571D01*
X-6153571Y-12797285D01*
X-5975000Y-12797285D01*
X-5832142Y-12761571D01*
X-5760714Y-12725857D01*
X-5725000Y-12690142D01*
X-5689285Y-12618714D01*
X-5939285Y-11725857D02*
X-6439285Y-11725857D01*
X-5653571Y-11904428D02*
X-6189285Y-12083000D01*
X-6189285Y-11618714D01*
X-4950000Y13630714D02*
X-5021428Y13630714D01*
X-5092857Y13595000D01*
X-5128571Y13559285D01*
X-5164285Y13487857D01*
X-5200000Y13345000D01*
X-5200000Y13166428D01*
X-5164285Y13023571D01*
X-5128571Y12952142D01*
X-5092857Y12916428D01*
X-5021428Y12880714D01*
X-4950000Y12880714D01*
X-4878571Y12916428D01*
X-4842857Y12952142D01*
X-4807142Y13023571D01*
X-4771428Y13166428D01*
X-4771428Y13345000D01*
X-4807142Y13487857D01*
X-4842857Y13559285D01*
X-4878571Y13595000D01*
X-4950000Y13630714D01*
X-5664285Y13630714D02*
X-5735714Y13630714D01*
X-5807142Y13595000D01*
X-5842857Y13559285D01*
X-5878571Y13487857D01*
X-5914285Y13345000D01*
X-5914285Y13166428D01*
X-5878571Y13023571D01*
X-5842857Y12952142D01*
X-5807142Y12916428D01*
X-5735714Y12880714D01*
X-5664285Y12880714D01*
X-5592857Y12916428D01*
X-5557142Y12952142D01*
X-5521428Y13023571D01*
X-5485714Y13166428D01*
X-5485714Y13345000D01*
X-5521428Y13487857D01*
X-5557142Y13559285D01*
X-5592857Y13595000D01*
X-5664285Y13630714D01*
X-6557142Y13630714D02*
X-6414285Y13630714D01*
X-6342857Y13595000D01*
X-6307142Y13559285D01*
X-6235714Y13452142D01*
X-6199999Y13309285D01*
X-6199999Y13023571D01*
X-6235714Y12952142D01*
X-6271428Y12916428D01*
X-6342857Y12880714D01*
X-6485714Y12880714D01*
X-6557142Y12916428D01*
X-6592857Y12952142D01*
X-6628571Y13023571D01*
X-6628571Y13202142D01*
X-6592857Y13273571D01*
X-6557142Y13309285D01*
X-6485714Y13345000D01*
X-6342857Y13345000D01*
X-6271428Y13309285D01*
X-6235714Y13273571D01*
X-6199999Y13202142D01*
X6271428Y10095000D02*
X6342857Y10130714D01*
X6450000Y10130714D01*
X6557142Y10095000D01*
X6628571Y10023571D01*
X6664285Y9952142D01*
X6700000Y9809285D01*
X6700000Y9702142D01*
X6664285Y9559285D01*
X6628571Y9487857D01*
X6557142Y9416428D01*
X6450000Y9380714D01*
X6378571Y9380714D01*
X6271428Y9416428D01*
X6235714Y9452142D01*
X6235714Y9702142D01*
X6378571Y9702142D01*
X5914285Y9380714D02*
X5914285Y10130714D01*
X5485714Y9380714D01*
X5485714Y10130714D01*
X5128571Y9380714D02*
X5128571Y10130714D01*
X4950000Y10130714D01*
X4842857Y10095000D01*
X4771428Y10023571D01*
X4735714Y9952142D01*
X4700000Y9809285D01*
X4700000Y9702142D01*
X4735714Y9559285D01*
X4771428Y9487857D01*
X4842857Y9416428D01*
X4950000Y9380714D01*
X5128571Y9380714D01*
%TD*%
M02*
