%TF.GenerationSoftware,KiCad,Pcbnew,(5.1.9)-1*%
%TF.CreationDate,2021-01-04T01:20:58+08:00*%
%TF.ProjectId,akami,616b616d-692e-46b6-9963-61645f706362,rev?*%
%TF.SameCoordinates,Original*%
%TF.FileFunction,Legend,Bot*%
%TF.FilePolarity,Positive*%
%FSLAX46Y46*%
G04 Gerber Fmt 4.6, Leading zero omitted, Abs format (unit mm)*
G04 Created by KiCad (PCBNEW (5.1.9)-1) date 2021-01-04 01:20:58*
%MOMM*%
%LPD*%
G01*
G04 APERTURE LIST*
%ADD10C,0.130000*%
G04 APERTURE END LIST*
D10*
X-725000Y6260714D02*
X-975000Y5510714D01*
X-1225000Y6260714D01*
X-1475000Y5510714D02*
X-1475000Y6260714D01*
X-1653571Y6260714D01*
X-1760714Y6225000D01*
X-1832142Y6153571D01*
X-1867857Y6082142D01*
X-1903571Y5939285D01*
X-1903571Y5832142D01*
X-1867857Y5689285D01*
X-1832142Y5617857D01*
X-1760714Y5546428D01*
X-1653571Y5510714D01*
X-1475000Y5510714D01*
X-2225000Y5510714D02*
X-2225000Y6260714D01*
X-2403571Y6260714D01*
X-2510714Y6225000D01*
X-2582142Y6153571D01*
X-2617857Y6082142D01*
X-2653571Y5939285D01*
X-2653571Y5832142D01*
X-2617857Y5689285D01*
X-2582142Y5617857D01*
X-2510714Y5546428D01*
X-2403571Y5510714D01*
X-2225000Y5510714D01*
X-4376428Y-10482142D02*
X-4340714Y-10589285D01*
X-4340714Y-10767857D01*
X-4376428Y-10839285D01*
X-4412142Y-10875000D01*
X-4483571Y-10910714D01*
X-4555000Y-10910714D01*
X-4626428Y-10875000D01*
X-4662142Y-10839285D01*
X-4697857Y-10767857D01*
X-4733571Y-10625000D01*
X-4769285Y-10553571D01*
X-4805000Y-10517857D01*
X-4876428Y-10482142D01*
X-4947857Y-10482142D01*
X-5019285Y-10517857D01*
X-5055000Y-10553571D01*
X-5090714Y-10625000D01*
X-5090714Y-10803571D01*
X-5055000Y-10910714D01*
X-5090714Y-11160714D02*
X-4340714Y-11339285D01*
X-4876428Y-11482142D01*
X-4340714Y-11625000D01*
X-5090714Y-11803571D01*
X-4340714Y-12089285D02*
X-5090714Y-12089285D01*
X-5090714Y-12267857D01*
X-5055000Y-12375000D01*
X-4983571Y-12446428D01*
X-4912142Y-12482142D01*
X-4769285Y-12517857D01*
X-4662142Y-12517857D01*
X-4519285Y-12482142D01*
X-4447857Y-12446428D01*
X-4376428Y-12375000D01*
X-4340714Y-12267857D01*
X-4340714Y-12089285D01*
X-2866428Y-10482142D02*
X-2830714Y-10589285D01*
X-2830714Y-10767857D01*
X-2866428Y-10839285D01*
X-2902142Y-10875000D01*
X-2973571Y-10910714D01*
X-3045000Y-10910714D01*
X-3116428Y-10875000D01*
X-3152142Y-10839285D01*
X-3187857Y-10767857D01*
X-3223571Y-10625000D01*
X-3259285Y-10553571D01*
X-3295000Y-10517857D01*
X-3366428Y-10482142D01*
X-3437857Y-10482142D01*
X-3509285Y-10517857D01*
X-3545000Y-10553571D01*
X-3580714Y-10625000D01*
X-3580714Y-10803571D01*
X-3545000Y-10910714D01*
X-3580714Y-11160714D02*
X-2830714Y-11339285D01*
X-3366428Y-11482142D01*
X-2830714Y-11625000D01*
X-3580714Y-11803571D01*
X-2902142Y-12517857D02*
X-2866428Y-12482142D01*
X-2830714Y-12375000D01*
X-2830714Y-12303571D01*
X-2866428Y-12196428D01*
X-2937857Y-12125000D01*
X-3009285Y-12089285D01*
X-3152142Y-12053571D01*
X-3259285Y-12053571D01*
X-3402142Y-12089285D01*
X-3473571Y-12125000D01*
X-3545000Y-12196428D01*
X-3580714Y-12303571D01*
X-3580714Y-12375000D01*
X-3545000Y-12482142D01*
X-3509285Y-12517857D01*
%TO.C,U4*%
X6359523Y10550000D02*
X6435714Y10588095D01*
X6550000Y10588095D01*
X6664285Y10550000D01*
X6740476Y10473809D01*
X6778571Y10397619D01*
X6816666Y10245238D01*
X6816666Y10130952D01*
X6778571Y9978571D01*
X6740476Y9902380D01*
X6664285Y9826190D01*
X6550000Y9788095D01*
X6473809Y9788095D01*
X6359523Y9826190D01*
X6321428Y9864285D01*
X6321428Y10130952D01*
X6473809Y10130952D01*
X5978571Y9788095D02*
X5978571Y10588095D01*
X5521428Y9788095D01*
X5521428Y10588095D01*
X5140476Y9788095D02*
X5140476Y10588095D01*
X4950000Y10588095D01*
X4835714Y10550000D01*
X4759523Y10473809D01*
X4721428Y10397619D01*
X4683333Y10245238D01*
X4683333Y10130952D01*
X4721428Y9978571D01*
X4759523Y9902380D01*
X4835714Y9826190D01*
X4950000Y9788095D01*
X5140476Y9788095D01*
X-5509523Y12328095D02*
X-5509523Y13128095D01*
X-5700000Y13128095D01*
X-5814285Y13090000D01*
X-5890476Y13013809D01*
X-5928571Y12937619D01*
X-5966666Y12785238D01*
X-5966666Y12670952D01*
X-5928571Y12518571D01*
X-5890476Y12442380D01*
X-5814285Y12366190D01*
X-5700000Y12328095D01*
X-5509523Y12328095D01*
X-6233333Y13128095D02*
X-6728571Y13128095D01*
X-6461904Y12823333D01*
X-6576190Y12823333D01*
X-6652380Y12785238D01*
X-6690476Y12747142D01*
X-6728571Y12670952D01*
X-6728571Y12480476D01*
X-6690476Y12404285D01*
X-6652380Y12366190D01*
X-6576190Y12328095D01*
X-6347619Y12328095D01*
X-6271428Y12366190D01*
X-6233333Y12404285D01*
X-5776190Y-12525857D02*
X-5890476Y-12563952D01*
X-5928571Y-12602047D01*
X-5966666Y-12678238D01*
X-5966666Y-12792523D01*
X-5928571Y-12868714D01*
X-5890476Y-12906809D01*
X-5814285Y-12944904D01*
X-5509523Y-12944904D01*
X-5509523Y-12144904D01*
X-5776190Y-12144904D01*
X-5852380Y-12183000D01*
X-5890476Y-12221095D01*
X-5928571Y-12297285D01*
X-5928571Y-12373476D01*
X-5890476Y-12449666D01*
X-5852380Y-12487761D01*
X-5776190Y-12525857D01*
X-5509523Y-12525857D01*
X-6652380Y-12411571D02*
X-6652380Y-12944904D01*
X-6461904Y-12106809D02*
X-6271428Y-12678238D01*
X-6766666Y-12678238D01*
X-5509523Y-371904D02*
X-5509523Y428095D01*
X-5700000Y428095D01*
X-5814285Y390000D01*
X-5890476Y313809D01*
X-5928571Y237619D01*
X-5966666Y85238D01*
X-5966666Y-29047D01*
X-5928571Y-181428D01*
X-5890476Y-257619D01*
X-5814285Y-333809D01*
X-5700000Y-371904D01*
X-5509523Y-371904D01*
X-6461904Y428095D02*
X-6538095Y428095D01*
X-6614285Y390000D01*
X-6652380Y351904D01*
X-6690476Y275714D01*
X-6728571Y123333D01*
X-6728571Y-67142D01*
X-6690476Y-219523D01*
X-6652380Y-295714D01*
X-6614285Y-333809D01*
X-6538095Y-371904D01*
X-6461904Y-371904D01*
X-6385714Y-333809D01*
X-6347619Y-295714D01*
X-6309523Y-219523D01*
X-6271428Y-67142D01*
X-6271428Y123333D01*
X-6309523Y275714D01*
X-6347619Y351904D01*
X-6385714Y390000D01*
X-6461904Y428095D01*
X-5509523Y9788095D02*
X-5509523Y10588095D01*
X-5700000Y10588095D01*
X-5814285Y10550000D01*
X-5890476Y10473809D01*
X-5928571Y10397619D01*
X-5966666Y10245238D01*
X-5966666Y10130952D01*
X-5928571Y9978571D01*
X-5890476Y9902380D01*
X-5814285Y9826190D01*
X-5700000Y9788095D01*
X-5509523Y9788095D01*
X-6271428Y10511904D02*
X-6309523Y10550000D01*
X-6385714Y10588095D01*
X-6576190Y10588095D01*
X-6652380Y10550000D01*
X-6690476Y10511904D01*
X-6728571Y10435714D01*
X-6728571Y10359523D01*
X-6690476Y10245238D01*
X-6233333Y9788095D01*
X-6728571Y9788095D01*
X-5509523Y-2911904D02*
X-5509523Y-2111904D01*
X-5700000Y-2111904D01*
X-5814285Y-2150000D01*
X-5890476Y-2226190D01*
X-5928571Y-2302380D01*
X-5966666Y-2454761D01*
X-5966666Y-2569047D01*
X-5928571Y-2721428D01*
X-5890476Y-2797619D01*
X-5814285Y-2873809D01*
X-5700000Y-2911904D01*
X-5509523Y-2911904D01*
X-6652380Y-2378571D02*
X-6652380Y-2911904D01*
X-6461904Y-2073809D02*
X-6271428Y-2645238D01*
X-6766666Y-2645238D01*
X-5509523Y2168095D02*
X-5509523Y2968095D01*
X-5700000Y2968095D01*
X-5814285Y2930000D01*
X-5890476Y2853809D01*
X-5928571Y2777619D01*
X-5966666Y2625238D01*
X-5966666Y2510952D01*
X-5928571Y2358571D01*
X-5890476Y2282380D01*
X-5814285Y2206190D01*
X-5700000Y2168095D01*
X-5509523Y2168095D01*
X-6728571Y2168095D02*
X-6271428Y2168095D01*
X-6500000Y2168095D02*
X-6500000Y2968095D01*
X-6423809Y2853809D01*
X-6347619Y2777619D01*
X-6271428Y2739523D01*
X-5966666Y-5375714D02*
X-5928571Y-5413809D01*
X-5814285Y-5451904D01*
X-5738095Y-5451904D01*
X-5623809Y-5413809D01*
X-5547619Y-5337619D01*
X-5509523Y-5261428D01*
X-5471428Y-5109047D01*
X-5471428Y-4994761D01*
X-5509523Y-4842380D01*
X-5547619Y-4766190D01*
X-5623809Y-4690000D01*
X-5738095Y-4651904D01*
X-5814285Y-4651904D01*
X-5928571Y-4690000D01*
X-5966666Y-4728095D01*
X-6652380Y-4651904D02*
X-6500000Y-4651904D01*
X-6423809Y-4690000D01*
X-6385714Y-4728095D01*
X-6309523Y-4842380D01*
X-6271428Y-4994761D01*
X-6271428Y-5299523D01*
X-6309523Y-5375714D01*
X-6347619Y-5413809D01*
X-6423809Y-5451904D01*
X-6576190Y-5451904D01*
X-6652380Y-5413809D01*
X-6690476Y-5375714D01*
X-6728571Y-5299523D01*
X-6728571Y-5109047D01*
X-6690476Y-5032857D01*
X-6652380Y-4994761D01*
X-6576190Y-4956666D01*
X-6423809Y-4956666D01*
X-6347619Y-4994761D01*
X-6309523Y-5032857D01*
X-6271428Y-5109047D01*
X-5547619Y-10112857D02*
X-5814285Y-10112857D01*
X-5928571Y-10531904D02*
X-5547619Y-10531904D01*
X-5547619Y-9731904D01*
X-5928571Y-9731904D01*
X-6614285Y-9731904D02*
X-6461904Y-9731904D01*
X-6385714Y-9770000D01*
X-6347619Y-9808095D01*
X-6271428Y-9922380D01*
X-6233333Y-10074761D01*
X-6233333Y-10379523D01*
X-6271428Y-10455714D01*
X-6309523Y-10493809D01*
X-6385714Y-10531904D01*
X-6538095Y-10531904D01*
X-6614285Y-10493809D01*
X-6652380Y-10455714D01*
X-6690476Y-10379523D01*
X-6690476Y-10189047D01*
X-6652380Y-10112857D01*
X-6614285Y-10074761D01*
X-6538095Y-10036666D01*
X-6385714Y-10036666D01*
X-6309523Y-10074761D01*
X-6271428Y-10112857D01*
X-6233333Y-10189047D01*
X-5509523Y-7991904D02*
X-5509523Y-7191904D01*
X-5700000Y-7191904D01*
X-5814285Y-7230000D01*
X-5890476Y-7306190D01*
X-5928571Y-7382380D01*
X-5966666Y-7534761D01*
X-5966666Y-7649047D01*
X-5928571Y-7801428D01*
X-5890476Y-7877619D01*
X-5814285Y-7953809D01*
X-5700000Y-7991904D01*
X-5509523Y-7991904D01*
X-6233333Y-7191904D02*
X-6766666Y-7191904D01*
X-6423809Y-7991904D01*
X-5776190Y-15192857D02*
X-5890476Y-15230952D01*
X-5928571Y-15269047D01*
X-5966666Y-15345238D01*
X-5966666Y-15459523D01*
X-5928571Y-15535714D01*
X-5890476Y-15573809D01*
X-5814285Y-15611904D01*
X-5509523Y-15611904D01*
X-5509523Y-14811904D01*
X-5776190Y-14811904D01*
X-5852380Y-14850000D01*
X-5890476Y-14888095D01*
X-5928571Y-14964285D01*
X-5928571Y-15040476D01*
X-5890476Y-15116666D01*
X-5852380Y-15154761D01*
X-5776190Y-15192857D01*
X-5509523Y-15192857D01*
X-6690476Y-14811904D02*
X-6309523Y-14811904D01*
X-6271428Y-15192857D01*
X-6309523Y-15154761D01*
X-6385714Y-15116666D01*
X-6576190Y-15116666D01*
X-6652380Y-15154761D01*
X-6690476Y-15192857D01*
X-6728571Y-15269047D01*
X-6728571Y-15459523D01*
X-6690476Y-15535714D01*
X-6652380Y-15573809D01*
X-6576190Y-15611904D01*
X-6385714Y-15611904D01*
X-6309523Y-15573809D01*
X-6271428Y-15535714D01*
X6302380Y12328095D02*
X6569047Y12709047D01*
X6759523Y12328095D02*
X6759523Y13128095D01*
X6454761Y13128095D01*
X6378571Y13090000D01*
X6340476Y13051904D01*
X6302380Y12975714D01*
X6302380Y12861428D01*
X6340476Y12785238D01*
X6378571Y12747142D01*
X6454761Y12709047D01*
X6759523Y12709047D01*
X5997619Y12556666D02*
X5616666Y12556666D01*
X6073809Y12328095D02*
X5807142Y13128095D01*
X5540476Y12328095D01*
X5350000Y13128095D02*
X5159523Y12328095D01*
X5007142Y12899523D01*
X4854761Y12328095D01*
X4664285Y13128095D01*
X6423809Y-10112857D02*
X6309523Y-10150952D01*
X6271428Y-10189047D01*
X6233333Y-10265238D01*
X6233333Y-10379523D01*
X6271428Y-10455714D01*
X6309523Y-10493809D01*
X6385714Y-10531904D01*
X6690476Y-10531904D01*
X6690476Y-9731904D01*
X6423809Y-9731904D01*
X6347619Y-9770000D01*
X6309523Y-9808095D01*
X6271428Y-9884285D01*
X6271428Y-9960476D01*
X6309523Y-10036666D01*
X6347619Y-10074761D01*
X6423809Y-10112857D01*
X6690476Y-10112857D01*
X5966666Y-9731904D02*
X5471428Y-9731904D01*
X5738095Y-10036666D01*
X5623809Y-10036666D01*
X5547619Y-10074761D01*
X5509523Y-10112857D01*
X5471428Y-10189047D01*
X5471428Y-10379523D01*
X5509523Y-10455714D01*
X5547619Y-10493809D01*
X5623809Y-10531904D01*
X5852380Y-10531904D01*
X5928571Y-10493809D01*
X5966666Y-10455714D01*
X6423809Y-12652857D02*
X6309523Y-12690952D01*
X6271428Y-12729047D01*
X6233333Y-12805238D01*
X6233333Y-12919523D01*
X6271428Y-12995714D01*
X6309523Y-13033809D01*
X6385714Y-13071904D01*
X6690476Y-13071904D01*
X6690476Y-12271904D01*
X6423809Y-12271904D01*
X6347619Y-12310000D01*
X6309523Y-12348095D01*
X6271428Y-12424285D01*
X6271428Y-12500476D01*
X6309523Y-12576666D01*
X6347619Y-12614761D01*
X6423809Y-12652857D01*
X6690476Y-12652857D01*
X5928571Y-12348095D02*
X5890476Y-12310000D01*
X5814285Y-12271904D01*
X5623809Y-12271904D01*
X5547619Y-12310000D01*
X5509523Y-12348095D01*
X5471428Y-12424285D01*
X5471428Y-12500476D01*
X5509523Y-12614761D01*
X5966666Y-13071904D01*
X5471428Y-13071904D01*
X6816666Y5508095D02*
X6550000Y4708095D01*
X6283333Y5508095D01*
X5559523Y4784285D02*
X5597619Y4746190D01*
X5711904Y4708095D01*
X5788095Y4708095D01*
X5902380Y4746190D01*
X5978571Y4822380D01*
X6016666Y4898571D01*
X6054761Y5050952D01*
X6054761Y5165238D01*
X6016666Y5317619D01*
X5978571Y5393809D01*
X5902380Y5470000D01*
X5788095Y5508095D01*
X5711904Y5508095D01*
X5597619Y5470000D01*
X5559523Y5431904D01*
X4759523Y4784285D02*
X4797619Y4746190D01*
X4911904Y4708095D01*
X4988095Y4708095D01*
X5102380Y4746190D01*
X5178571Y4822380D01*
X5216666Y4898571D01*
X5254761Y5050952D01*
X5254761Y5165238D01*
X5216666Y5317619D01*
X5178571Y5393809D01*
X5102380Y5470000D01*
X4988095Y5508095D01*
X4911904Y5508095D01*
X4797619Y5470000D01*
X4759523Y5431904D01*
X6366666Y2587142D02*
X6633333Y2587142D01*
X6633333Y2168095D02*
X6633333Y2968095D01*
X6252380Y2968095D01*
X5604761Y2701428D02*
X5604761Y2168095D01*
X5795238Y3006190D02*
X5985714Y2434761D01*
X5490476Y2434761D01*
X6423809Y-7572857D02*
X6309523Y-7610952D01*
X6271428Y-7649047D01*
X6233333Y-7725238D01*
X6233333Y-7839523D01*
X6271428Y-7915714D01*
X6309523Y-7953809D01*
X6385714Y-7991904D01*
X6690476Y-7991904D01*
X6690476Y-7191904D01*
X6423809Y-7191904D01*
X6347619Y-7230000D01*
X6309523Y-7268095D01*
X6271428Y-7344285D01*
X6271428Y-7420476D01*
X6309523Y-7496666D01*
X6347619Y-7534761D01*
X6423809Y-7572857D01*
X6690476Y-7572857D01*
X5471428Y-7991904D02*
X5928571Y-7991904D01*
X5700000Y-7991904D02*
X5700000Y-7191904D01*
X5776190Y-7306190D01*
X5852380Y-7382380D01*
X5928571Y-7420476D01*
X6423809Y-15192857D02*
X6309523Y-15230952D01*
X6271428Y-15269047D01*
X6233333Y-15345238D01*
X6233333Y-15459523D01*
X6271428Y-15535714D01*
X6309523Y-15573809D01*
X6385714Y-15611904D01*
X6690476Y-15611904D01*
X6690476Y-14811904D01*
X6423809Y-14811904D01*
X6347619Y-14850000D01*
X6309523Y-14888095D01*
X6271428Y-14964285D01*
X6271428Y-15040476D01*
X6309523Y-15116666D01*
X6347619Y-15154761D01*
X6423809Y-15192857D01*
X6690476Y-15192857D01*
X5547619Y-14811904D02*
X5700000Y-14811904D01*
X5776190Y-14850000D01*
X5814285Y-14888095D01*
X5890476Y-15002380D01*
X5928571Y-15154761D01*
X5928571Y-15459523D01*
X5890476Y-15535714D01*
X5852380Y-15573809D01*
X5776190Y-15611904D01*
X5623809Y-15611904D01*
X5547619Y-15573809D01*
X5509523Y-15535714D01*
X5471428Y-15459523D01*
X5471428Y-15269047D01*
X5509523Y-15192857D01*
X5547619Y-15154761D01*
X5623809Y-15116666D01*
X5776190Y-15116666D01*
X5852380Y-15154761D01*
X5890476Y-15192857D01*
X5928571Y-15269047D01*
X6366666Y-5032857D02*
X6633333Y-5032857D01*
X6633333Y-5451904D02*
X6633333Y-4651904D01*
X6252380Y-4651904D01*
X6023809Y-4651904D02*
X5490476Y-4651904D01*
X5833333Y-5451904D01*
X6188095Y7248095D02*
X6454761Y7629047D01*
X6645238Y7248095D02*
X6645238Y8048095D01*
X6340476Y8048095D01*
X6264285Y8010000D01*
X6226190Y7971904D01*
X6188095Y7895714D01*
X6188095Y7781428D01*
X6226190Y7705238D01*
X6264285Y7667142D01*
X6340476Y7629047D01*
X6645238Y7629047D01*
X5883333Y7286190D02*
X5769047Y7248095D01*
X5578571Y7248095D01*
X5502380Y7286190D01*
X5464285Y7324285D01*
X5426190Y7400476D01*
X5426190Y7476666D01*
X5464285Y7552857D01*
X5502380Y7590952D01*
X5578571Y7629047D01*
X5730952Y7667142D01*
X5807142Y7705238D01*
X5845238Y7743333D01*
X5883333Y7819523D01*
X5883333Y7895714D01*
X5845238Y7971904D01*
X5807142Y8010000D01*
X5730952Y8048095D01*
X5540476Y8048095D01*
X5426190Y8010000D01*
X5197619Y8048095D02*
X4740476Y8048095D01*
X4969047Y7248095D02*
X4969047Y8048095D01*
X6366666Y47142D02*
X6633333Y47142D01*
X6633333Y-371904D02*
X6633333Y428095D01*
X6252380Y428095D01*
X5566666Y428095D02*
X5947619Y428095D01*
X5985714Y47142D01*
X5947619Y85238D01*
X5871428Y123333D01*
X5680952Y123333D01*
X5604761Y85238D01*
X5566666Y47142D01*
X5528571Y-29047D01*
X5528571Y-219523D01*
X5566666Y-295714D01*
X5604761Y-333809D01*
X5680952Y-371904D01*
X5871428Y-371904D01*
X5947619Y-333809D01*
X5985714Y-295714D01*
X6366666Y-2492857D02*
X6633333Y-2492857D01*
X6633333Y-2911904D02*
X6633333Y-2111904D01*
X6252380Y-2111904D01*
X5604761Y-2111904D02*
X5757142Y-2111904D01*
X5833333Y-2150000D01*
X5871428Y-2188095D01*
X5947619Y-2302380D01*
X5985714Y-2454761D01*
X5985714Y-2759523D01*
X5947619Y-2835714D01*
X5909523Y-2873809D01*
X5833333Y-2911904D01*
X5680952Y-2911904D01*
X5604761Y-2873809D01*
X5566666Y-2835714D01*
X5528571Y-2759523D01*
X5528571Y-2569047D01*
X5566666Y-2492857D01*
X5604761Y-2454761D01*
X5680952Y-2416666D01*
X5833333Y-2416666D01*
X5909523Y-2454761D01*
X5947619Y-2492857D01*
X5985714Y-2569047D01*
X-5140476Y8010000D02*
X-5064285Y8048095D01*
X-4950000Y8048095D01*
X-4835714Y8010000D01*
X-4759523Y7933809D01*
X-4721428Y7857619D01*
X-4683333Y7705238D01*
X-4683333Y7590952D01*
X-4721428Y7438571D01*
X-4759523Y7362380D01*
X-4835714Y7286190D01*
X-4950000Y7248095D01*
X-5026190Y7248095D01*
X-5140476Y7286190D01*
X-5178571Y7324285D01*
X-5178571Y7590952D01*
X-5026190Y7590952D01*
X-5521428Y7248095D02*
X-5521428Y8048095D01*
X-5978571Y7248095D01*
X-5978571Y8048095D01*
X-6359523Y7248095D02*
X-6359523Y8048095D01*
X-6550000Y8048095D01*
X-6664285Y8010000D01*
X-6740476Y7933809D01*
X-6778571Y7857619D01*
X-6816666Y7705238D01*
X-6816666Y7590952D01*
X-6778571Y7438571D01*
X-6740476Y7362380D01*
X-6664285Y7286190D01*
X-6550000Y7248095D01*
X-6359523Y7248095D01*
X-5140476Y5470000D02*
X-5064285Y5508095D01*
X-4950000Y5508095D01*
X-4835714Y5470000D01*
X-4759523Y5393809D01*
X-4721428Y5317619D01*
X-4683333Y5165238D01*
X-4683333Y5050952D01*
X-4721428Y4898571D01*
X-4759523Y4822380D01*
X-4835714Y4746190D01*
X-4950000Y4708095D01*
X-5026190Y4708095D01*
X-5140476Y4746190D01*
X-5178571Y4784285D01*
X-5178571Y5050952D01*
X-5026190Y5050952D01*
X-5521428Y4708095D02*
X-5521428Y5508095D01*
X-5978571Y4708095D01*
X-5978571Y5508095D01*
X-6359523Y4708095D02*
X-6359523Y5508095D01*
X-6550000Y5508095D01*
X-6664285Y5470000D01*
X-6740476Y5393809D01*
X-6778571Y5317619D01*
X-6816666Y5165238D01*
X-6816666Y5050952D01*
X-6778571Y4898571D01*
X-6740476Y4822380D01*
X-6664285Y4746190D01*
X-6550000Y4708095D01*
X-6359523Y4708095D01*
%TD*%
M02*
