%TF.GenerationSoftware,KiCad,Pcbnew,(5.1.9)-1*%
%TF.CreationDate,2021-01-22T02:53:34+08:00*%
%TF.ProjectId,akami,616b616d-692e-46b6-9963-61645f706362,rev?*%
%TF.SameCoordinates,Original*%
%TF.FileFunction,Legend,Top*%
%TF.FilePolarity,Positive*%
%FSLAX46Y46*%
G04 Gerber Fmt 4.6, Leading zero omitted, Abs format (unit mm)*
G04 Created by KiCad (PCBNEW (5.1.9)-1) date 2021-01-22 02:53:34*
%MOMM*%
%LPD*%
G01*
G04 APERTURE LIST*
%ADD10C,0.150000*%
%ADD11C,0.120000*%
%ADD12C,0.110000*%
%ADD13C,0.200000*%
%ADD14C,0.010000*%
%ADD15C,0.070000*%
G04 APERTURE END LIST*
D10*
X4285714Y3121428D02*
X4000000Y2907142D01*
X3714285Y3121428D01*
X-3714285Y3121428D02*
X-4000000Y2907142D01*
X-4285714Y3121428D01*
D11*
X-1920000Y2130000D02*
G75*
G03*
X-1920000Y2130000I-50000J0D01*
G01*
D12*
X4883578Y13016332D02*
X5519974Y12698134D01*
X5201776Y13334530D01*
X5747258Y13425444D02*
X5838172Y13470900D01*
X5883629Y13470900D01*
X5951814Y13448172D01*
X6020000Y13379987D01*
X6042728Y13311801D01*
X6042728Y13266345D01*
X6020000Y13198159D01*
X5838172Y13016332D01*
X5360875Y13493629D01*
X5519974Y13652728D01*
X5588159Y13675456D01*
X5633616Y13675456D01*
X5701801Y13652728D01*
X5747258Y13607271D01*
X5769987Y13539086D01*
X5769987Y13493629D01*
X5747258Y13425444D01*
X5588159Y13266345D01*
X5838172Y13970926D02*
X6224555Y13584543D01*
X6292741Y13561814D01*
X6338198Y13561814D01*
X6406383Y13584543D01*
X6497297Y13675456D01*
X6520025Y13743642D01*
X6520025Y13789099D01*
X6497297Y13857284D01*
X6110913Y14243667D01*
X6770038Y13993654D02*
X6860951Y14039111D01*
X6974594Y14152753D01*
X6997322Y14220939D01*
X6997322Y14266396D01*
X6974594Y14334581D01*
X6929137Y14380038D01*
X6860951Y14402766D01*
X6815495Y14402766D01*
X6747309Y14380038D01*
X6633667Y14311852D01*
X6565482Y14289124D01*
X6520025Y14289124D01*
X6451840Y14311852D01*
X6406383Y14357309D01*
X6383654Y14425495D01*
X6383654Y14470951D01*
X6406383Y14539137D01*
X6520025Y14652779D01*
X6610939Y14698236D01*
X-6549562Y14682316D02*
X-6254092Y14386846D01*
X-6595019Y14364118D01*
X-6526833Y14295932D01*
X-6504105Y14227747D01*
X-6504105Y14182290D01*
X-6526833Y14114105D01*
X-6640475Y14000463D01*
X-6708661Y13977734D01*
X-6754118Y13977734D01*
X-6822303Y14000463D01*
X-6958674Y14136833D01*
X-6981402Y14205019D01*
X-6981402Y14250475D01*
X-6117722Y14250475D02*
X-6435920Y13614079D01*
X-5799524Y13932277D01*
X-5685881Y13818635D02*
X-5390412Y13523166D01*
X-5731338Y13500437D01*
X-5663153Y13432252D01*
X-5640424Y13364067D01*
X-5640424Y13318610D01*
X-5663153Y13250424D01*
X-5776795Y13136782D01*
X-5844980Y13114054D01*
X-5890437Y13114054D01*
X-5958623Y13136782D01*
X-6094993Y13273153D01*
X-6117722Y13341338D01*
X-6117722Y13386795D01*
D10*
X-1297619Y8290476D02*
X-1154761Y8100000D01*
X-1297619Y7909523D01*
X-1738095Y-15952380D02*
X-1738095Y-15285714D01*
X-1738095Y-15476190D02*
X-1690476Y-15380952D01*
X-1642857Y-15333333D01*
X-1547619Y-15285714D01*
X-1452380Y-15285714D01*
X-738095Y-15904761D02*
X-833333Y-15952380D01*
X-1023809Y-15952380D01*
X-1119047Y-15904761D01*
X-1166666Y-15809523D01*
X-1166666Y-15428571D01*
X-1119047Y-15333333D01*
X-1023809Y-15285714D01*
X-833333Y-15285714D01*
X-738095Y-15333333D01*
X-690476Y-15428571D01*
X-690476Y-15523809D01*
X-1166666Y-15619047D01*
X-357142Y-15285714D02*
X-119047Y-15952380D01*
X119047Y-15285714D01*
X1166666Y-14952380D02*
X1785714Y-14952380D01*
X1452380Y-15333333D01*
X1595238Y-15333333D01*
X1690476Y-15380952D01*
X1738095Y-15428571D01*
X1785714Y-15523809D01*
X1785714Y-15761904D01*
X1738095Y-15857142D01*
X1690476Y-15904761D01*
X1595238Y-15952380D01*
X1309523Y-15952380D01*
X1214285Y-15904761D01*
X1166666Y-15857142D01*
D13*
X-13547619Y-4619047D02*
X-12833333Y-4619047D01*
X-12690476Y-4666666D01*
X-12595238Y-4761904D01*
X-12547619Y-4904761D01*
X-12547619Y-5000000D01*
X-12547619Y-3666666D02*
X-12547619Y-4142857D01*
X-13547619Y-4142857D01*
X-12642857Y-2761904D02*
X-12595238Y-2809523D01*
X-12547619Y-2952380D01*
X-12547619Y-3047619D01*
X-12595238Y-3190476D01*
X-12690476Y-3285714D01*
X-12785714Y-3333333D01*
X-12976190Y-3380952D01*
X-13119047Y-3380952D01*
X-13309523Y-3333333D01*
X-13404761Y-3285714D01*
X-13500000Y-3190476D01*
X-13547619Y-3047619D01*
X-13547619Y-2952380D01*
X-13500000Y-2809523D01*
X-13452380Y-2761904D01*
X-13547619Y-2047619D02*
X-12833333Y-2047619D01*
X-12690476Y-2095238D01*
X-12595238Y-2190476D01*
X-12547619Y-2333333D01*
X-12547619Y-2428571D01*
X-12547619Y-1095238D02*
X-12547619Y-1571428D01*
X-13547619Y-1571428D01*
X-12642857Y-190476D02*
X-12595238Y-238095D01*
X-12547619Y-380952D01*
X-12547619Y-476190D01*
X-12595238Y-619047D01*
X-12690476Y-714285D01*
X-12785714Y-761904D01*
X-12976190Y-809523D01*
X-13119047Y-809523D01*
X-13309523Y-761904D01*
X-13404761Y-714285D01*
X-13500000Y-619047D01*
X-13547619Y-476190D01*
X-13547619Y-380952D01*
X-13500000Y-238095D01*
X-13452380Y-190476D01*
X-13547619Y523809D02*
X-12833333Y523809D01*
X-12690476Y476190D01*
X-12595238Y380952D01*
X-12547619Y238095D01*
X-12547619Y142857D01*
X-12547619Y1476190D02*
X-12547619Y1000000D01*
X-13547619Y1000000D01*
X-12642857Y2380952D02*
X-12595238Y2333333D01*
X-12547619Y2190476D01*
X-12547619Y2095238D01*
X-12595238Y1952380D01*
X-12690476Y1857142D01*
X-12785714Y1809523D01*
X-12976190Y1761904D01*
X-13119047Y1761904D01*
X-13309523Y1809523D01*
X-13404761Y1857142D01*
X-13500000Y1952380D01*
X-13547619Y2095238D01*
X-13547619Y2190476D01*
X-13500000Y2333333D01*
X-13452380Y2380952D01*
X-13547619Y3095238D02*
X-12833333Y3095238D01*
X-12690476Y3047619D01*
X-12595238Y2952380D01*
X-12547619Y2809523D01*
X-12547619Y2714285D01*
X-12547619Y4047619D02*
X-12547619Y3571428D01*
X-13547619Y3571428D01*
X-12642857Y4952380D02*
X-12595238Y4904761D01*
X-12547619Y4761904D01*
X-12547619Y4666666D01*
X-12595238Y4523809D01*
X-12690476Y4428571D01*
X-12785714Y4380952D01*
X-12976190Y4333333D01*
X-13119047Y4333333D01*
X-13309523Y4380952D01*
X-13404761Y4428571D01*
X-13500000Y4523809D01*
X-13547619Y4666666D01*
X-13547619Y4761904D01*
X-13500000Y4904761D01*
X-13452380Y4952380D01*
D11*
X2540000Y6340000D02*
G75*
G03*
X2540000Y6340000I-50000J0D01*
G01*
D10*
X190476Y6277619D02*
X0Y6134761D01*
X-190476Y6277619D01*
D11*
X3150000Y-1350000D02*
G75*
G03*
X3150000Y-1350000I-50000J0D01*
G01*
%TO.C,R2*%
X-4456359Y6090000D02*
X-4763641Y6090000D01*
X-4456359Y6850000D02*
X-4763641Y6850000D01*
%TO.C,R1*%
X4816359Y9020000D02*
X5123641Y9020000D01*
X4816359Y8260000D02*
X5123641Y8260000D01*
D14*
%TO.C,DUMMY1*%
G36*
X-2798966Y-12361365D02*
G01*
X-2769272Y-12372282D01*
X-2751478Y-12385552D01*
X-2739851Y-12398315D01*
X-2733550Y-12410085D01*
X-2730967Y-12425558D01*
X-2730492Y-12446852D01*
X-2730977Y-12467707D01*
X-2732319Y-12497776D01*
X-2734332Y-12533612D01*
X-2736835Y-12571773D01*
X-2737949Y-12587138D01*
X-2740329Y-12621288D01*
X-2742053Y-12650680D01*
X-2743018Y-12673122D01*
X-2743121Y-12686426D01*
X-2742721Y-12689116D01*
X-2735768Y-12689527D01*
X-2718407Y-12689319D01*
X-2692912Y-12688552D01*
X-2661557Y-12687289D01*
X-2644775Y-12686507D01*
X-2469605Y-12676584D01*
X-2300147Y-12664145D01*
X-2138446Y-12649365D01*
X-1986543Y-12632418D01*
X-1936518Y-12626066D01*
X-1886085Y-12619764D01*
X-1846447Y-12615788D01*
X-1815882Y-12614320D01*
X-1792668Y-12615541D01*
X-1775084Y-12619634D01*
X-1761406Y-12626780D01*
X-1749912Y-12637161D01*
X-1742144Y-12646581D01*
X-1729671Y-12670870D01*
X-1722142Y-12701732D01*
X-1720525Y-12733680D01*
X-1723340Y-12753405D01*
X-1734017Y-12773816D01*
X-1754061Y-12793347D01*
X-1771861Y-12804664D01*
X-1786688Y-12809506D01*
X-1813150Y-12814879D01*
X-1850196Y-12820688D01*
X-1896777Y-12826834D01*
X-1951842Y-12833220D01*
X-2014342Y-12839748D01*
X-2083226Y-12846321D01*
X-2157445Y-12852842D01*
X-2235948Y-12859212D01*
X-2317686Y-12865334D01*
X-2401609Y-12871111D01*
X-2486666Y-12876444D01*
X-2571808Y-12881238D01*
X-2625184Y-12883944D01*
X-2664779Y-12885931D01*
X-2699789Y-12887822D01*
X-2728335Y-12889504D01*
X-2748537Y-12890865D01*
X-2758516Y-12891792D01*
X-2759240Y-12891974D01*
X-2760343Y-12899312D01*
X-2761384Y-12917097D01*
X-2762343Y-12943311D01*
X-2763196Y-12975936D01*
X-2763920Y-13012954D01*
X-2764493Y-13052348D01*
X-2764892Y-13092098D01*
X-2765094Y-13130189D01*
X-2765078Y-13164601D01*
X-2764819Y-13193317D01*
X-2764296Y-13214319D01*
X-2763486Y-13225588D01*
X-2763001Y-13226950D01*
X-2754701Y-13225734D01*
X-2736922Y-13222460D01*
X-2712613Y-13217685D01*
X-2694687Y-13214035D01*
X-2638551Y-13203817D01*
X-2577700Y-13195075D01*
X-2516431Y-13188289D01*
X-2459043Y-13183939D01*
X-2412229Y-13182500D01*
X-2377595Y-13181648D01*
X-2355205Y-13179065D01*
X-2344720Y-13174712D01*
X-2344593Y-13174562D01*
X-2340447Y-13164986D01*
X-2334998Y-13146345D01*
X-2329211Y-13122071D01*
X-2327236Y-13112650D01*
X-2321110Y-13085502D01*
X-2314470Y-13061124D01*
X-2308508Y-13043775D01*
X-2307100Y-13040712D01*
X-2291299Y-13022893D01*
X-2267340Y-13011047D01*
X-2238374Y-13005364D01*
X-2207550Y-13006034D01*
X-2178019Y-13013247D01*
X-2152930Y-13027194D01*
X-2148387Y-13031122D01*
X-2132561Y-13052518D01*
X-2125046Y-13080021D01*
X-2125592Y-13115159D01*
X-2130056Y-13142365D01*
X-2135659Y-13169790D01*
X-2138563Y-13187090D01*
X-2138550Y-13196595D01*
X-2135401Y-13200636D01*
X-2128897Y-13201543D01*
X-2124505Y-13201550D01*
X-2106731Y-13203604D01*
X-2079905Y-13209221D01*
X-2046894Y-13217582D01*
X-2010565Y-13227870D01*
X-1973785Y-13239265D01*
X-1939423Y-13250948D01*
X-1910345Y-13262103D01*
X-1906205Y-13263857D01*
X-1822395Y-13306020D01*
X-1748441Y-13355922D01*
X-1684509Y-13413384D01*
X-1630766Y-13478224D01*
X-1587377Y-13550264D01*
X-1554509Y-13629322D01*
X-1546963Y-13653558D01*
X-1528143Y-13739520D01*
X-1520232Y-13827805D01*
X-1523024Y-13916420D01*
X-1536310Y-14003375D01*
X-1559884Y-14086681D01*
X-1593539Y-14164347D01*
X-1601697Y-14179450D01*
X-1652238Y-14256818D01*
X-1713351Y-14327893D01*
X-1784303Y-14392164D01*
X-1864359Y-14449120D01*
X-1952785Y-14498249D01*
X-2048846Y-14539043D01*
X-2151808Y-14570989D01*
X-2171700Y-14575923D01*
X-2226675Y-14587788D01*
X-2281361Y-14597284D01*
X-2333831Y-14604251D01*
X-2382158Y-14608526D01*
X-2424414Y-14609949D01*
X-2458671Y-14608359D01*
X-2483003Y-14603596D01*
X-2486564Y-14602224D01*
X-2511569Y-14584883D01*
X-2530210Y-14559285D01*
X-2541572Y-14528642D01*
X-2544737Y-14496167D01*
X-2538791Y-14465076D01*
X-2530421Y-14448350D01*
X-2512018Y-14428553D01*
X-2485995Y-14414996D01*
X-2450561Y-14406884D01*
X-2432705Y-14404930D01*
X-2323468Y-14391433D01*
X-2222369Y-14369963D01*
X-2129789Y-14340725D01*
X-2046108Y-14303924D01*
X-1971707Y-14259764D01*
X-1906965Y-14208450D01*
X-1852263Y-14150187D01*
X-1807980Y-14085179D01*
X-1795565Y-14061975D01*
X-1767761Y-13993197D01*
X-1750743Y-13920760D01*
X-1744458Y-13846612D01*
X-1748854Y-13772699D01*
X-1763877Y-13700969D01*
X-1789475Y-13633371D01*
X-1808145Y-13598485D01*
X-1823283Y-13576593D01*
X-1844271Y-13550585D01*
X-1867502Y-13524822D01*
X-1877187Y-13515000D01*
X-1931346Y-13470486D01*
X-1995393Y-13433306D01*
X-2068614Y-13403796D01*
X-2150298Y-13382294D01*
X-2162424Y-13379931D01*
X-2180550Y-13377422D01*
X-2189096Y-13378956D01*
X-2190750Y-13382988D01*
X-2192842Y-13393467D01*
X-2198613Y-13413631D01*
X-2207304Y-13441268D01*
X-2218158Y-13474163D01*
X-2230418Y-13510102D01*
X-2243325Y-13546870D01*
X-2256123Y-13582255D01*
X-2268053Y-13614042D01*
X-2278358Y-13640017D01*
X-2280306Y-13644672D01*
X-2328766Y-13751028D01*
X-2382269Y-13853922D01*
X-2439524Y-13951197D01*
X-2499238Y-14040693D01*
X-2560119Y-14120253D01*
X-2576966Y-14140186D01*
X-2611669Y-14180298D01*
X-2585360Y-14240677D01*
X-2567959Y-14287285D01*
X-2560084Y-14326250D01*
X-2561896Y-14358503D01*
X-2573553Y-14384979D01*
X-2595218Y-14406611D01*
X-2616010Y-14419162D01*
X-2652016Y-14432014D01*
X-2684560Y-14432680D01*
X-2713219Y-14421305D01*
X-2737573Y-14398035D01*
X-2753138Y-14372074D01*
X-2762484Y-14352724D01*
X-2769487Y-14338528D01*
X-2772489Y-14332808D01*
X-2778056Y-14335239D01*
X-2792030Y-14343497D01*
X-2812301Y-14356287D01*
X-2836762Y-14372312D01*
X-2836789Y-14372329D01*
X-2904746Y-14414360D01*
X-2968468Y-14446603D01*
X-3030562Y-14469970D01*
X-3093635Y-14485375D01*
X-3160292Y-14493729D01*
X-3188029Y-14495280D01*
X-3237646Y-14496117D01*
X-3278175Y-14493979D01*
X-3312991Y-14488328D01*
X-3345469Y-14478626D01*
X-3377400Y-14465086D01*
X-3427814Y-14434344D01*
X-3471931Y-14393274D01*
X-3508974Y-14342989D01*
X-3538165Y-14284597D01*
X-3558729Y-14219211D01*
X-3562770Y-14200140D01*
X-3567223Y-14162820D01*
X-3568584Y-14116959D01*
X-3567247Y-14072453D01*
X-3364628Y-14072453D01*
X-3363489Y-14118556D01*
X-3357936Y-14159711D01*
X-3348057Y-14192410D01*
X-3348023Y-14192487D01*
X-3324602Y-14231982D01*
X-3293774Y-14261215D01*
X-3255668Y-14280144D01*
X-3210417Y-14288726D01*
X-3158153Y-14286919D01*
X-3099007Y-14274681D01*
X-3095625Y-14273724D01*
X-3049659Y-14257132D01*
X-2999091Y-14232999D01*
X-2947706Y-14203323D01*
X-2899286Y-14170102D01*
X-2898940Y-14169842D01*
X-2877838Y-14153688D01*
X-2860795Y-14140132D01*
X-2850247Y-14131136D01*
X-2848130Y-14128899D01*
X-2848437Y-14120919D01*
X-2851929Y-14103930D01*
X-2857927Y-14081020D01*
X-2860937Y-14070686D01*
X-2876231Y-14014023D01*
X-2891276Y-13947880D01*
X-2905520Y-13875475D01*
X-2918417Y-13800024D01*
X-2929418Y-13724743D01*
X-2937973Y-13652850D01*
X-2943535Y-13587562D01*
X-2943650Y-13585725D01*
X-2945795Y-13556622D01*
X-2948237Y-13531865D01*
X-2950645Y-13514426D01*
X-2952336Y-13507721D01*
X-2959254Y-13507217D01*
X-2974214Y-13513657D01*
X-2995497Y-13525862D01*
X-3021382Y-13542651D01*
X-3050149Y-13562845D01*
X-3080079Y-13585264D01*
X-3109453Y-13608729D01*
X-3136549Y-13632060D01*
X-3145204Y-13640003D01*
X-3206400Y-13704041D01*
X-3259259Y-13773327D01*
X-3302662Y-13846033D01*
X-3335489Y-13920334D01*
X-3353319Y-13979425D01*
X-3361267Y-14024907D01*
X-3364628Y-14072453D01*
X-3567247Y-14072453D01*
X-3567061Y-14066284D01*
X-3562862Y-14014517D01*
X-3556198Y-13965383D01*
X-3547276Y-13922606D01*
X-3547190Y-13922275D01*
X-3522948Y-13848948D01*
X-3488426Y-13773252D01*
X-3445051Y-13697736D01*
X-3394250Y-13624952D01*
X-3352031Y-13573573D01*
X-3307327Y-13527868D01*
X-3253085Y-13480560D01*
X-3191950Y-13433625D01*
X-3159992Y-13411831D01*
X-2761378Y-13411831D01*
X-2758342Y-13470203D01*
X-2754268Y-13530338D01*
X-2748208Y-13595226D01*
X-2740513Y-13662425D01*
X-2731540Y-13729491D01*
X-2721640Y-13793979D01*
X-2711169Y-13853445D01*
X-2700481Y-13905447D01*
X-2689928Y-13947541D01*
X-2688506Y-13952422D01*
X-2685802Y-13956948D01*
X-2681051Y-13956143D01*
X-2673211Y-13948889D01*
X-2661240Y-13934069D01*
X-2644094Y-13910567D01*
X-2627756Y-13887350D01*
X-2581910Y-13816545D01*
X-2536550Y-13736925D01*
X-2493474Y-13652190D01*
X-2454481Y-13566037D01*
X-2421371Y-13482168D01*
X-2400758Y-13420625D01*
X-2393603Y-13397115D01*
X-2387575Y-13377343D01*
X-2383923Y-13365405D01*
X-2383817Y-13365062D01*
X-2383363Y-13359480D01*
X-2387814Y-13356159D01*
X-2399516Y-13354543D01*
X-2420816Y-13354073D01*
X-2430035Y-13354073D01*
X-2482794Y-13356392D01*
X-2542434Y-13362627D01*
X-2604418Y-13372057D01*
X-2664208Y-13383960D01*
X-2717268Y-13397612D01*
X-2731652Y-13402090D01*
X-2761378Y-13411831D01*
X-3159992Y-13411831D01*
X-3126569Y-13389038D01*
X-3059589Y-13348774D01*
X-3027960Y-13331725D01*
X-2966645Y-13299975D01*
X-2963116Y-13098657D01*
X-2959587Y-12897340D01*
X-3203279Y-12898632D01*
X-3265366Y-12898941D01*
X-3316027Y-12899107D01*
X-3356534Y-12899072D01*
X-3388163Y-12898777D01*
X-3412185Y-12898166D01*
X-3429875Y-12897180D01*
X-3442506Y-12895762D01*
X-3451351Y-12893855D01*
X-3457684Y-12891400D01*
X-3462778Y-12888339D01*
X-3464973Y-12886773D01*
X-3487211Y-12863253D01*
X-3500520Y-12833718D01*
X-3504901Y-12801185D01*
X-3500351Y-12768673D01*
X-3486869Y-12739201D01*
X-3465057Y-12716226D01*
X-3460105Y-12712906D01*
X-3454334Y-12710184D01*
X-3446490Y-12707988D01*
X-3435314Y-12706249D01*
X-3419551Y-12704895D01*
X-3397943Y-12703857D01*
X-3369235Y-12703063D01*
X-3332170Y-12702443D01*
X-3285491Y-12701926D01*
X-3227942Y-12701443D01*
X-3197743Y-12701214D01*
X-2948347Y-12699353D01*
X-2944036Y-12596439D01*
X-2941160Y-12538465D01*
X-2937789Y-12491940D01*
X-2933748Y-12455617D01*
X-2928862Y-12428249D01*
X-2922956Y-12408589D01*
X-2915890Y-12395435D01*
X-2893809Y-12375671D01*
X-2864671Y-12363266D01*
X-2831911Y-12358429D01*
X-2798966Y-12361365D01*
G37*
X-2798966Y-12361365D02*
X-2769272Y-12372282D01*
X-2751478Y-12385552D01*
X-2739851Y-12398315D01*
X-2733550Y-12410085D01*
X-2730967Y-12425558D01*
X-2730492Y-12446852D01*
X-2730977Y-12467707D01*
X-2732319Y-12497776D01*
X-2734332Y-12533612D01*
X-2736835Y-12571773D01*
X-2737949Y-12587138D01*
X-2740329Y-12621288D01*
X-2742053Y-12650680D01*
X-2743018Y-12673122D01*
X-2743121Y-12686426D01*
X-2742721Y-12689116D01*
X-2735768Y-12689527D01*
X-2718407Y-12689319D01*
X-2692912Y-12688552D01*
X-2661557Y-12687289D01*
X-2644775Y-12686507D01*
X-2469605Y-12676584D01*
X-2300147Y-12664145D01*
X-2138446Y-12649365D01*
X-1986543Y-12632418D01*
X-1936518Y-12626066D01*
X-1886085Y-12619764D01*
X-1846447Y-12615788D01*
X-1815882Y-12614320D01*
X-1792668Y-12615541D01*
X-1775084Y-12619634D01*
X-1761406Y-12626780D01*
X-1749912Y-12637161D01*
X-1742144Y-12646581D01*
X-1729671Y-12670870D01*
X-1722142Y-12701732D01*
X-1720525Y-12733680D01*
X-1723340Y-12753405D01*
X-1734017Y-12773816D01*
X-1754061Y-12793347D01*
X-1771861Y-12804664D01*
X-1786688Y-12809506D01*
X-1813150Y-12814879D01*
X-1850196Y-12820688D01*
X-1896777Y-12826834D01*
X-1951842Y-12833220D01*
X-2014342Y-12839748D01*
X-2083226Y-12846321D01*
X-2157445Y-12852842D01*
X-2235948Y-12859212D01*
X-2317686Y-12865334D01*
X-2401609Y-12871111D01*
X-2486666Y-12876444D01*
X-2571808Y-12881238D01*
X-2625184Y-12883944D01*
X-2664779Y-12885931D01*
X-2699789Y-12887822D01*
X-2728335Y-12889504D01*
X-2748537Y-12890865D01*
X-2758516Y-12891792D01*
X-2759240Y-12891974D01*
X-2760343Y-12899312D01*
X-2761384Y-12917097D01*
X-2762343Y-12943311D01*
X-2763196Y-12975936D01*
X-2763920Y-13012954D01*
X-2764493Y-13052348D01*
X-2764892Y-13092098D01*
X-2765094Y-13130189D01*
X-2765078Y-13164601D01*
X-2764819Y-13193317D01*
X-2764296Y-13214319D01*
X-2763486Y-13225588D01*
X-2763001Y-13226950D01*
X-2754701Y-13225734D01*
X-2736922Y-13222460D01*
X-2712613Y-13217685D01*
X-2694687Y-13214035D01*
X-2638551Y-13203817D01*
X-2577700Y-13195075D01*
X-2516431Y-13188289D01*
X-2459043Y-13183939D01*
X-2412229Y-13182500D01*
X-2377595Y-13181648D01*
X-2355205Y-13179065D01*
X-2344720Y-13174712D01*
X-2344593Y-13174562D01*
X-2340447Y-13164986D01*
X-2334998Y-13146345D01*
X-2329211Y-13122071D01*
X-2327236Y-13112650D01*
X-2321110Y-13085502D01*
X-2314470Y-13061124D01*
X-2308508Y-13043775D01*
X-2307100Y-13040712D01*
X-2291299Y-13022893D01*
X-2267340Y-13011047D01*
X-2238374Y-13005364D01*
X-2207550Y-13006034D01*
X-2178019Y-13013247D01*
X-2152930Y-13027194D01*
X-2148387Y-13031122D01*
X-2132561Y-13052518D01*
X-2125046Y-13080021D01*
X-2125592Y-13115159D01*
X-2130056Y-13142365D01*
X-2135659Y-13169790D01*
X-2138563Y-13187090D01*
X-2138550Y-13196595D01*
X-2135401Y-13200636D01*
X-2128897Y-13201543D01*
X-2124505Y-13201550D01*
X-2106731Y-13203604D01*
X-2079905Y-13209221D01*
X-2046894Y-13217582D01*
X-2010565Y-13227870D01*
X-1973785Y-13239265D01*
X-1939423Y-13250948D01*
X-1910345Y-13262103D01*
X-1906205Y-13263857D01*
X-1822395Y-13306020D01*
X-1748441Y-13355922D01*
X-1684509Y-13413384D01*
X-1630766Y-13478224D01*
X-1587377Y-13550264D01*
X-1554509Y-13629322D01*
X-1546963Y-13653558D01*
X-1528143Y-13739520D01*
X-1520232Y-13827805D01*
X-1523024Y-13916420D01*
X-1536310Y-14003375D01*
X-1559884Y-14086681D01*
X-1593539Y-14164347D01*
X-1601697Y-14179450D01*
X-1652238Y-14256818D01*
X-1713351Y-14327893D01*
X-1784303Y-14392164D01*
X-1864359Y-14449120D01*
X-1952785Y-14498249D01*
X-2048846Y-14539043D01*
X-2151808Y-14570989D01*
X-2171700Y-14575923D01*
X-2226675Y-14587788D01*
X-2281361Y-14597284D01*
X-2333831Y-14604251D01*
X-2382158Y-14608526D01*
X-2424414Y-14609949D01*
X-2458671Y-14608359D01*
X-2483003Y-14603596D01*
X-2486564Y-14602224D01*
X-2511569Y-14584883D01*
X-2530210Y-14559285D01*
X-2541572Y-14528642D01*
X-2544737Y-14496167D01*
X-2538791Y-14465076D01*
X-2530421Y-14448350D01*
X-2512018Y-14428553D01*
X-2485995Y-14414996D01*
X-2450561Y-14406884D01*
X-2432705Y-14404930D01*
X-2323468Y-14391433D01*
X-2222369Y-14369963D01*
X-2129789Y-14340725D01*
X-2046108Y-14303924D01*
X-1971707Y-14259764D01*
X-1906965Y-14208450D01*
X-1852263Y-14150187D01*
X-1807980Y-14085179D01*
X-1795565Y-14061975D01*
X-1767761Y-13993197D01*
X-1750743Y-13920760D01*
X-1744458Y-13846612D01*
X-1748854Y-13772699D01*
X-1763877Y-13700969D01*
X-1789475Y-13633371D01*
X-1808145Y-13598485D01*
X-1823283Y-13576593D01*
X-1844271Y-13550585D01*
X-1867502Y-13524822D01*
X-1877187Y-13515000D01*
X-1931346Y-13470486D01*
X-1995393Y-13433306D01*
X-2068614Y-13403796D01*
X-2150298Y-13382294D01*
X-2162424Y-13379931D01*
X-2180550Y-13377422D01*
X-2189096Y-13378956D01*
X-2190750Y-13382988D01*
X-2192842Y-13393467D01*
X-2198613Y-13413631D01*
X-2207304Y-13441268D01*
X-2218158Y-13474163D01*
X-2230418Y-13510102D01*
X-2243325Y-13546870D01*
X-2256123Y-13582255D01*
X-2268053Y-13614042D01*
X-2278358Y-13640017D01*
X-2280306Y-13644672D01*
X-2328766Y-13751028D01*
X-2382269Y-13853922D01*
X-2439524Y-13951197D01*
X-2499238Y-14040693D01*
X-2560119Y-14120253D01*
X-2576966Y-14140186D01*
X-2611669Y-14180298D01*
X-2585360Y-14240677D01*
X-2567959Y-14287285D01*
X-2560084Y-14326250D01*
X-2561896Y-14358503D01*
X-2573553Y-14384979D01*
X-2595218Y-14406611D01*
X-2616010Y-14419162D01*
X-2652016Y-14432014D01*
X-2684560Y-14432680D01*
X-2713219Y-14421305D01*
X-2737573Y-14398035D01*
X-2753138Y-14372074D01*
X-2762484Y-14352724D01*
X-2769487Y-14338528D01*
X-2772489Y-14332808D01*
X-2778056Y-14335239D01*
X-2792030Y-14343497D01*
X-2812301Y-14356287D01*
X-2836762Y-14372312D01*
X-2836789Y-14372329D01*
X-2904746Y-14414360D01*
X-2968468Y-14446603D01*
X-3030562Y-14469970D01*
X-3093635Y-14485375D01*
X-3160292Y-14493729D01*
X-3188029Y-14495280D01*
X-3237646Y-14496117D01*
X-3278175Y-14493979D01*
X-3312991Y-14488328D01*
X-3345469Y-14478626D01*
X-3377400Y-14465086D01*
X-3427814Y-14434344D01*
X-3471931Y-14393274D01*
X-3508974Y-14342989D01*
X-3538165Y-14284597D01*
X-3558729Y-14219211D01*
X-3562770Y-14200140D01*
X-3567223Y-14162820D01*
X-3568584Y-14116959D01*
X-3567247Y-14072453D01*
X-3364628Y-14072453D01*
X-3363489Y-14118556D01*
X-3357936Y-14159711D01*
X-3348057Y-14192410D01*
X-3348023Y-14192487D01*
X-3324602Y-14231982D01*
X-3293774Y-14261215D01*
X-3255668Y-14280144D01*
X-3210417Y-14288726D01*
X-3158153Y-14286919D01*
X-3099007Y-14274681D01*
X-3095625Y-14273724D01*
X-3049659Y-14257132D01*
X-2999091Y-14232999D01*
X-2947706Y-14203323D01*
X-2899286Y-14170102D01*
X-2898940Y-14169842D01*
X-2877838Y-14153688D01*
X-2860795Y-14140132D01*
X-2850247Y-14131136D01*
X-2848130Y-14128899D01*
X-2848437Y-14120919D01*
X-2851929Y-14103930D01*
X-2857927Y-14081020D01*
X-2860937Y-14070686D01*
X-2876231Y-14014023D01*
X-2891276Y-13947880D01*
X-2905520Y-13875475D01*
X-2918417Y-13800024D01*
X-2929418Y-13724743D01*
X-2937973Y-13652850D01*
X-2943535Y-13587562D01*
X-2943650Y-13585725D01*
X-2945795Y-13556622D01*
X-2948237Y-13531865D01*
X-2950645Y-13514426D01*
X-2952336Y-13507721D01*
X-2959254Y-13507217D01*
X-2974214Y-13513657D01*
X-2995497Y-13525862D01*
X-3021382Y-13542651D01*
X-3050149Y-13562845D01*
X-3080079Y-13585264D01*
X-3109453Y-13608729D01*
X-3136549Y-13632060D01*
X-3145204Y-13640003D01*
X-3206400Y-13704041D01*
X-3259259Y-13773327D01*
X-3302662Y-13846033D01*
X-3335489Y-13920334D01*
X-3353319Y-13979425D01*
X-3361267Y-14024907D01*
X-3364628Y-14072453D01*
X-3567247Y-14072453D01*
X-3567061Y-14066284D01*
X-3562862Y-14014517D01*
X-3556198Y-13965383D01*
X-3547276Y-13922606D01*
X-3547190Y-13922275D01*
X-3522948Y-13848948D01*
X-3488426Y-13773252D01*
X-3445051Y-13697736D01*
X-3394250Y-13624952D01*
X-3352031Y-13573573D01*
X-3307327Y-13527868D01*
X-3253085Y-13480560D01*
X-3191950Y-13433625D01*
X-3159992Y-13411831D01*
X-2761378Y-13411831D01*
X-2758342Y-13470203D01*
X-2754268Y-13530338D01*
X-2748208Y-13595226D01*
X-2740513Y-13662425D01*
X-2731540Y-13729491D01*
X-2721640Y-13793979D01*
X-2711169Y-13853445D01*
X-2700481Y-13905447D01*
X-2689928Y-13947541D01*
X-2688506Y-13952422D01*
X-2685802Y-13956948D01*
X-2681051Y-13956143D01*
X-2673211Y-13948889D01*
X-2661240Y-13934069D01*
X-2644094Y-13910567D01*
X-2627756Y-13887350D01*
X-2581910Y-13816545D01*
X-2536550Y-13736925D01*
X-2493474Y-13652190D01*
X-2454481Y-13566037D01*
X-2421371Y-13482168D01*
X-2400758Y-13420625D01*
X-2393603Y-13397115D01*
X-2387575Y-13377343D01*
X-2383923Y-13365405D01*
X-2383817Y-13365062D01*
X-2383363Y-13359480D01*
X-2387814Y-13356159D01*
X-2399516Y-13354543D01*
X-2420816Y-13354073D01*
X-2430035Y-13354073D01*
X-2482794Y-13356392D01*
X-2542434Y-13362627D01*
X-2604418Y-13372057D01*
X-2664208Y-13383960D01*
X-2717268Y-13397612D01*
X-2731652Y-13402090D01*
X-2761378Y-13411831D01*
X-3159992Y-13411831D01*
X-3126569Y-13389038D01*
X-3059589Y-13348774D01*
X-3027960Y-13331725D01*
X-2966645Y-13299975D01*
X-2963116Y-13098657D01*
X-2959587Y-12897340D01*
X-3203279Y-12898632D01*
X-3265366Y-12898941D01*
X-3316027Y-12899107D01*
X-3356534Y-12899072D01*
X-3388163Y-12898777D01*
X-3412185Y-12898166D01*
X-3429875Y-12897180D01*
X-3442506Y-12895762D01*
X-3451351Y-12893855D01*
X-3457684Y-12891400D01*
X-3462778Y-12888339D01*
X-3464973Y-12886773D01*
X-3487211Y-12863253D01*
X-3500520Y-12833718D01*
X-3504901Y-12801185D01*
X-3500351Y-12768673D01*
X-3486869Y-12739201D01*
X-3465057Y-12716226D01*
X-3460105Y-12712906D01*
X-3454334Y-12710184D01*
X-3446490Y-12707988D01*
X-3435314Y-12706249D01*
X-3419551Y-12704895D01*
X-3397943Y-12703857D01*
X-3369235Y-12703063D01*
X-3332170Y-12702443D01*
X-3285491Y-12701926D01*
X-3227942Y-12701443D01*
X-3197743Y-12701214D01*
X-2948347Y-12699353D01*
X-2944036Y-12596439D01*
X-2941160Y-12538465D01*
X-2937789Y-12491940D01*
X-2933748Y-12455617D01*
X-2928862Y-12428249D01*
X-2922956Y-12408589D01*
X-2915890Y-12395435D01*
X-2893809Y-12375671D01*
X-2864671Y-12363266D01*
X-2831911Y-12358429D01*
X-2798966Y-12361365D01*
G36*
X2406947Y-12489122D02*
G01*
X2440982Y-12489888D01*
X2469018Y-12491196D01*
X2491892Y-12493084D01*
X2510443Y-12495589D01*
X2525507Y-12498748D01*
X2537922Y-12502598D01*
X2548525Y-12507175D01*
X2558153Y-12512518D01*
X2567644Y-12518661D01*
X2575957Y-12524354D01*
X2609124Y-12553722D01*
X2632352Y-12589694D01*
X2645846Y-12632856D01*
X2649816Y-12683799D01*
X2646932Y-12725300D01*
X2641952Y-12756795D01*
X2633351Y-12799191D01*
X2621421Y-12851308D01*
X2606451Y-12911963D01*
X2588733Y-12979974D01*
X2568556Y-13054161D01*
X2549409Y-13122175D01*
X2537828Y-13162909D01*
X2527372Y-13200074D01*
X2518570Y-13231751D01*
X2511954Y-13256024D01*
X2508053Y-13270976D01*
X2507285Y-13274372D01*
X2507742Y-13281854D01*
X2514204Y-13286699D01*
X2529379Y-13290372D01*
X2540000Y-13292067D01*
X2633636Y-13309537D01*
X2733997Y-13334800D01*
X2838464Y-13367047D01*
X2944417Y-13405470D01*
X3048862Y-13449092D01*
X3116400Y-13479263D01*
X3120423Y-13443594D01*
X3125475Y-13390977D01*
X3130097Y-13326953D01*
X3134218Y-13252809D01*
X3137766Y-13169834D01*
X3140670Y-13079315D01*
X3140785Y-13075054D01*
X3142378Y-13020315D01*
X3144087Y-12976742D01*
X3146207Y-12942799D01*
X3149031Y-12916954D01*
X3152853Y-12897672D01*
X3157967Y-12883419D01*
X3164668Y-12872663D01*
X3173248Y-12863868D01*
X3182674Y-12856470D01*
X3205636Y-12845944D01*
X3235538Y-12840863D01*
X3267707Y-12841537D01*
X3297467Y-12848279D01*
X3298736Y-12848753D01*
X3321659Y-12860448D01*
X3338049Y-12876634D01*
X3348933Y-12899358D01*
X3355340Y-12930670D01*
X3358095Y-12967065D01*
X3358842Y-13007601D01*
X3358380Y-13058139D01*
X3356846Y-13116326D01*
X3354372Y-13179809D01*
X3351095Y-13246236D01*
X3347148Y-13313251D01*
X3342666Y-13378504D01*
X3337784Y-13439640D01*
X3332636Y-13494306D01*
X3327358Y-13540150D01*
X3323934Y-13564022D01*
X3320293Y-13586769D01*
X3377151Y-13622814D01*
X3435825Y-13661996D01*
X3498706Y-13707472D01*
X3561565Y-13756046D01*
X3620174Y-13804517D01*
X3638036Y-13820101D01*
X3672456Y-13852050D01*
X3697463Y-13879180D01*
X3714331Y-13903527D01*
X3724336Y-13927133D01*
X3728753Y-13952034D01*
X3729264Y-13965989D01*
X3724958Y-14001172D01*
X3710983Y-14031004D01*
X3689923Y-14055219D01*
X3675175Y-14066828D01*
X3658708Y-14073224D01*
X3635236Y-14076395D01*
X3633224Y-14076546D01*
X3611499Y-14077071D01*
X3592715Y-14074369D01*
X3574551Y-14067222D01*
X3554682Y-14054416D01*
X3530784Y-14034733D01*
X3500877Y-14007281D01*
X3468303Y-13977485D01*
X3434005Y-13947665D01*
X3399392Y-13918891D01*
X3365879Y-13892234D01*
X3334876Y-13868764D01*
X3307795Y-13849554D01*
X3286049Y-13835675D01*
X3271049Y-13828196D01*
X3264401Y-13827914D01*
X3260374Y-13836460D01*
X3254401Y-13853530D01*
X3248001Y-13874650D01*
X3212801Y-13977906D01*
X3166811Y-14078914D01*
X3111831Y-14173753D01*
X3108095Y-14179450D01*
X3047097Y-14262393D01*
X2978945Y-14336895D01*
X2902502Y-14403928D01*
X2816633Y-14464466D01*
X2720203Y-14519481D01*
X2698750Y-14530303D01*
X2665346Y-14546500D01*
X2640167Y-14557704D01*
X2620238Y-14564913D01*
X2602585Y-14569125D01*
X2584234Y-14571337D01*
X2574575Y-14571968D01*
X2550350Y-14572852D01*
X2534525Y-14571588D01*
X2522849Y-14567186D01*
X2511075Y-14558659D01*
X2508624Y-14556615D01*
X2485577Y-14529432D01*
X2472735Y-14496847D01*
X2470653Y-14461713D01*
X2479886Y-14426885D01*
X2482385Y-14421659D01*
X2488307Y-14410367D01*
X2494143Y-14401379D01*
X2501693Y-14393420D01*
X2512757Y-14385216D01*
X2529137Y-14375494D01*
X2552631Y-14362980D01*
X2585041Y-14346399D01*
X2598141Y-14339746D01*
X2655498Y-14309290D01*
X2703894Y-14280345D01*
X2746518Y-14250734D01*
X2786560Y-14218279D01*
X2818140Y-14189505D01*
X2880778Y-14122118D01*
X2936228Y-14045558D01*
X2985272Y-13958734D01*
X2987609Y-13954025D01*
X3002705Y-13921412D01*
X3018257Y-13884336D01*
X3033402Y-13845251D01*
X3047278Y-13806611D01*
X3059022Y-13770873D01*
X3067771Y-13740491D01*
X3072665Y-13717920D01*
X3073400Y-13709837D01*
X3070057Y-13703275D01*
X3059238Y-13694475D01*
X3039753Y-13682682D01*
X3010413Y-13667145D01*
X2989262Y-13656541D01*
X2863261Y-13599234D01*
X2739558Y-13553288D01*
X2616304Y-13518056D01*
X2550366Y-13503475D01*
X2511810Y-13495422D01*
X2483144Y-13489668D01*
X2462339Y-13487423D01*
X2447371Y-13489898D01*
X2436213Y-13498301D01*
X2426838Y-13513843D01*
X2417221Y-13537734D01*
X2405334Y-13571184D01*
X2396673Y-13595250D01*
X2350968Y-13715368D01*
X2305489Y-13825823D01*
X2260455Y-13926187D01*
X2216086Y-14016033D01*
X2172604Y-14094933D01*
X2130229Y-14162460D01*
X2089180Y-14218187D01*
X2056361Y-14255086D01*
X2005854Y-14300296D01*
X1954424Y-14333910D01*
X1899935Y-14356976D01*
X1840254Y-14370540D01*
X1814779Y-14373510D01*
X1752652Y-14373184D01*
X1694301Y-14360748D01*
X1639669Y-14336178D01*
X1588698Y-14299454D01*
X1568751Y-14280785D01*
X1526949Y-14230633D01*
X1494309Y-14173005D01*
X1470623Y-14107357D01*
X1455688Y-14033146D01*
X1449879Y-13966725D01*
X1450275Y-13944575D01*
X1658736Y-13944575D01*
X1662813Y-13992094D01*
X1666446Y-14011033D01*
X1682116Y-14058923D01*
X1703792Y-14097009D01*
X1730675Y-14124793D01*
X1761966Y-14141775D01*
X1796867Y-14147456D01*
X1834577Y-14141337D01*
X1859009Y-14131403D01*
X1890181Y-14111534D01*
X1921730Y-14082566D01*
X1954020Y-14043963D01*
X1987412Y-13995186D01*
X2022268Y-13935698D01*
X2058951Y-13864960D01*
X2097822Y-13782436D01*
X2105504Y-13765336D01*
X2134009Y-13699967D01*
X2158974Y-13639154D01*
X2183010Y-13576402D01*
X2197869Y-13535685D01*
X2222714Y-13466595D01*
X2165457Y-13471074D01*
X2089227Y-13480963D01*
X2014451Y-13498133D01*
X1943954Y-13521677D01*
X1880556Y-13550687D01*
X1838297Y-13576218D01*
X1787058Y-13618518D01*
X1742017Y-13669725D01*
X1705252Y-13727025D01*
X1678847Y-13787602D01*
X1676375Y-13795275D01*
X1665741Y-13841295D01*
X1659787Y-13892685D01*
X1658736Y-13944575D01*
X1450275Y-13944575D01*
X1451535Y-13874126D01*
X1464660Y-13786580D01*
X1488902Y-13704497D01*
X1523907Y-13628291D01*
X1569322Y-13558374D01*
X1624795Y-13495159D01*
X1689972Y-13439058D01*
X1764501Y-13390485D01*
X1848028Y-13349850D01*
X1940200Y-13317568D01*
X2022475Y-13297521D01*
X2075920Y-13288020D01*
X2131399Y-13280234D01*
X2184758Y-13274640D01*
X2231845Y-13271717D01*
X2249476Y-13271400D01*
X2289653Y-13271400D01*
X2300702Y-13231712D01*
X2321368Y-13156173D01*
X2340635Y-13083189D01*
X2358258Y-13013841D01*
X2373997Y-12949207D01*
X2387608Y-12890365D01*
X2398849Y-12838395D01*
X2407477Y-12794375D01*
X2413250Y-12759385D01*
X2415925Y-12734503D01*
X2415423Y-12721391D01*
X2407132Y-12705928D01*
X2396262Y-12695575D01*
X2390911Y-12692808D01*
X2383443Y-12690732D01*
X2372461Y-12689332D01*
X2356568Y-12688590D01*
X2334366Y-12688491D01*
X2304460Y-12689019D01*
X2265451Y-12690158D01*
X2215944Y-12691892D01*
X2182729Y-12693132D01*
X2125051Y-12695171D01*
X2063681Y-12697091D01*
X2001909Y-12698805D01*
X1943024Y-12700229D01*
X1890316Y-12701276D01*
X1847850Y-12701854D01*
X1802799Y-12702214D01*
X1768574Y-12702270D01*
X1743300Y-12701861D01*
X1725105Y-12700821D01*
X1712115Y-12698989D01*
X1702455Y-12696201D01*
X1694253Y-12692293D01*
X1686783Y-12687819D01*
X1664059Y-12666667D01*
X1649663Y-12638298D01*
X1644192Y-12605575D01*
X1648246Y-12571359D01*
X1657412Y-12547377D01*
X1663659Y-12535661D01*
X1670136Y-12526071D01*
X1678127Y-12518365D01*
X1688913Y-12512299D01*
X1703779Y-12507633D01*
X1724007Y-12504124D01*
X1750882Y-12501530D01*
X1785686Y-12499608D01*
X1829703Y-12498117D01*
X1884216Y-12496814D01*
X1930400Y-12495863D01*
X2029872Y-12493862D01*
X2117483Y-12492146D01*
X2194072Y-12490751D01*
X2260476Y-12489714D01*
X2317531Y-12489072D01*
X2366076Y-12488863D01*
X2406947Y-12489122D01*
G37*
X2406947Y-12489122D02*
X2440982Y-12489888D01*
X2469018Y-12491196D01*
X2491892Y-12493084D01*
X2510443Y-12495589D01*
X2525507Y-12498748D01*
X2537922Y-12502598D01*
X2548525Y-12507175D01*
X2558153Y-12512518D01*
X2567644Y-12518661D01*
X2575957Y-12524354D01*
X2609124Y-12553722D01*
X2632352Y-12589694D01*
X2645846Y-12632856D01*
X2649816Y-12683799D01*
X2646932Y-12725300D01*
X2641952Y-12756795D01*
X2633351Y-12799191D01*
X2621421Y-12851308D01*
X2606451Y-12911963D01*
X2588733Y-12979974D01*
X2568556Y-13054161D01*
X2549409Y-13122175D01*
X2537828Y-13162909D01*
X2527372Y-13200074D01*
X2518570Y-13231751D01*
X2511954Y-13256024D01*
X2508053Y-13270976D01*
X2507285Y-13274372D01*
X2507742Y-13281854D01*
X2514204Y-13286699D01*
X2529379Y-13290372D01*
X2540000Y-13292067D01*
X2633636Y-13309537D01*
X2733997Y-13334800D01*
X2838464Y-13367047D01*
X2944417Y-13405470D01*
X3048862Y-13449092D01*
X3116400Y-13479263D01*
X3120423Y-13443594D01*
X3125475Y-13390977D01*
X3130097Y-13326953D01*
X3134218Y-13252809D01*
X3137766Y-13169834D01*
X3140670Y-13079315D01*
X3140785Y-13075054D01*
X3142378Y-13020315D01*
X3144087Y-12976742D01*
X3146207Y-12942799D01*
X3149031Y-12916954D01*
X3152853Y-12897672D01*
X3157967Y-12883419D01*
X3164668Y-12872663D01*
X3173248Y-12863868D01*
X3182674Y-12856470D01*
X3205636Y-12845944D01*
X3235538Y-12840863D01*
X3267707Y-12841537D01*
X3297467Y-12848279D01*
X3298736Y-12848753D01*
X3321659Y-12860448D01*
X3338049Y-12876634D01*
X3348933Y-12899358D01*
X3355340Y-12930670D01*
X3358095Y-12967065D01*
X3358842Y-13007601D01*
X3358380Y-13058139D01*
X3356846Y-13116326D01*
X3354372Y-13179809D01*
X3351095Y-13246236D01*
X3347148Y-13313251D01*
X3342666Y-13378504D01*
X3337784Y-13439640D01*
X3332636Y-13494306D01*
X3327358Y-13540150D01*
X3323934Y-13564022D01*
X3320293Y-13586769D01*
X3377151Y-13622814D01*
X3435825Y-13661996D01*
X3498706Y-13707472D01*
X3561565Y-13756046D01*
X3620174Y-13804517D01*
X3638036Y-13820101D01*
X3672456Y-13852050D01*
X3697463Y-13879180D01*
X3714331Y-13903527D01*
X3724336Y-13927133D01*
X3728753Y-13952034D01*
X3729264Y-13965989D01*
X3724958Y-14001172D01*
X3710983Y-14031004D01*
X3689923Y-14055219D01*
X3675175Y-14066828D01*
X3658708Y-14073224D01*
X3635236Y-14076395D01*
X3633224Y-14076546D01*
X3611499Y-14077071D01*
X3592715Y-14074369D01*
X3574551Y-14067222D01*
X3554682Y-14054416D01*
X3530784Y-14034733D01*
X3500877Y-14007281D01*
X3468303Y-13977485D01*
X3434005Y-13947665D01*
X3399392Y-13918891D01*
X3365879Y-13892234D01*
X3334876Y-13868764D01*
X3307795Y-13849554D01*
X3286049Y-13835675D01*
X3271049Y-13828196D01*
X3264401Y-13827914D01*
X3260374Y-13836460D01*
X3254401Y-13853530D01*
X3248001Y-13874650D01*
X3212801Y-13977906D01*
X3166811Y-14078914D01*
X3111831Y-14173753D01*
X3108095Y-14179450D01*
X3047097Y-14262393D01*
X2978945Y-14336895D01*
X2902502Y-14403928D01*
X2816633Y-14464466D01*
X2720203Y-14519481D01*
X2698750Y-14530303D01*
X2665346Y-14546500D01*
X2640167Y-14557704D01*
X2620238Y-14564913D01*
X2602585Y-14569125D01*
X2584234Y-14571337D01*
X2574575Y-14571968D01*
X2550350Y-14572852D01*
X2534525Y-14571588D01*
X2522849Y-14567186D01*
X2511075Y-14558659D01*
X2508624Y-14556615D01*
X2485577Y-14529432D01*
X2472735Y-14496847D01*
X2470653Y-14461713D01*
X2479886Y-14426885D01*
X2482385Y-14421659D01*
X2488307Y-14410367D01*
X2494143Y-14401379D01*
X2501693Y-14393420D01*
X2512757Y-14385216D01*
X2529137Y-14375494D01*
X2552631Y-14362980D01*
X2585041Y-14346399D01*
X2598141Y-14339746D01*
X2655498Y-14309290D01*
X2703894Y-14280345D01*
X2746518Y-14250734D01*
X2786560Y-14218279D01*
X2818140Y-14189505D01*
X2880778Y-14122118D01*
X2936228Y-14045558D01*
X2985272Y-13958734D01*
X2987609Y-13954025D01*
X3002705Y-13921412D01*
X3018257Y-13884336D01*
X3033402Y-13845251D01*
X3047278Y-13806611D01*
X3059022Y-13770873D01*
X3067771Y-13740491D01*
X3072665Y-13717920D01*
X3073400Y-13709837D01*
X3070057Y-13703275D01*
X3059238Y-13694475D01*
X3039753Y-13682682D01*
X3010413Y-13667145D01*
X2989262Y-13656541D01*
X2863261Y-13599234D01*
X2739558Y-13553288D01*
X2616304Y-13518056D01*
X2550366Y-13503475D01*
X2511810Y-13495422D01*
X2483144Y-13489668D01*
X2462339Y-13487423D01*
X2447371Y-13489898D01*
X2436213Y-13498301D01*
X2426838Y-13513843D01*
X2417221Y-13537734D01*
X2405334Y-13571184D01*
X2396673Y-13595250D01*
X2350968Y-13715368D01*
X2305489Y-13825823D01*
X2260455Y-13926187D01*
X2216086Y-14016033D01*
X2172604Y-14094933D01*
X2130229Y-14162460D01*
X2089180Y-14218187D01*
X2056361Y-14255086D01*
X2005854Y-14300296D01*
X1954424Y-14333910D01*
X1899935Y-14356976D01*
X1840254Y-14370540D01*
X1814779Y-14373510D01*
X1752652Y-14373184D01*
X1694301Y-14360748D01*
X1639669Y-14336178D01*
X1588698Y-14299454D01*
X1568751Y-14280785D01*
X1526949Y-14230633D01*
X1494309Y-14173005D01*
X1470623Y-14107357D01*
X1455688Y-14033146D01*
X1449879Y-13966725D01*
X1450275Y-13944575D01*
X1658736Y-13944575D01*
X1662813Y-13992094D01*
X1666446Y-14011033D01*
X1682116Y-14058923D01*
X1703792Y-14097009D01*
X1730675Y-14124793D01*
X1761966Y-14141775D01*
X1796867Y-14147456D01*
X1834577Y-14141337D01*
X1859009Y-14131403D01*
X1890181Y-14111534D01*
X1921730Y-14082566D01*
X1954020Y-14043963D01*
X1987412Y-13995186D01*
X2022268Y-13935698D01*
X2058951Y-13864960D01*
X2097822Y-13782436D01*
X2105504Y-13765336D01*
X2134009Y-13699967D01*
X2158974Y-13639154D01*
X2183010Y-13576402D01*
X2197869Y-13535685D01*
X2222714Y-13466595D01*
X2165457Y-13471074D01*
X2089227Y-13480963D01*
X2014451Y-13498133D01*
X1943954Y-13521677D01*
X1880556Y-13550687D01*
X1838297Y-13576218D01*
X1787058Y-13618518D01*
X1742017Y-13669725D01*
X1705252Y-13727025D01*
X1678847Y-13787602D01*
X1676375Y-13795275D01*
X1665741Y-13841295D01*
X1659787Y-13892685D01*
X1658736Y-13944575D01*
X1450275Y-13944575D01*
X1451535Y-13874126D01*
X1464660Y-13786580D01*
X1488902Y-13704497D01*
X1523907Y-13628291D01*
X1569322Y-13558374D01*
X1624795Y-13495159D01*
X1689972Y-13439058D01*
X1764501Y-13390485D01*
X1848028Y-13349850D01*
X1940200Y-13317568D01*
X2022475Y-13297521D01*
X2075920Y-13288020D01*
X2131399Y-13280234D01*
X2184758Y-13274640D01*
X2231845Y-13271717D01*
X2249476Y-13271400D01*
X2289653Y-13271400D01*
X2300702Y-13231712D01*
X2321368Y-13156173D01*
X2340635Y-13083189D01*
X2358258Y-13013841D01*
X2373997Y-12949207D01*
X2387608Y-12890365D01*
X2398849Y-12838395D01*
X2407477Y-12794375D01*
X2413250Y-12759385D01*
X2415925Y-12734503D01*
X2415423Y-12721391D01*
X2407132Y-12705928D01*
X2396262Y-12695575D01*
X2390911Y-12692808D01*
X2383443Y-12690732D01*
X2372461Y-12689332D01*
X2356568Y-12688590D01*
X2334366Y-12688491D01*
X2304460Y-12689019D01*
X2265451Y-12690158D01*
X2215944Y-12691892D01*
X2182729Y-12693132D01*
X2125051Y-12695171D01*
X2063681Y-12697091D01*
X2001909Y-12698805D01*
X1943024Y-12700229D01*
X1890316Y-12701276D01*
X1847850Y-12701854D01*
X1802799Y-12702214D01*
X1768574Y-12702270D01*
X1743300Y-12701861D01*
X1725105Y-12700821D01*
X1712115Y-12698989D01*
X1702455Y-12696201D01*
X1694253Y-12692293D01*
X1686783Y-12687819D01*
X1664059Y-12666667D01*
X1649663Y-12638298D01*
X1644192Y-12605575D01*
X1648246Y-12571359D01*
X1657412Y-12547377D01*
X1663659Y-12535661D01*
X1670136Y-12526071D01*
X1678127Y-12518365D01*
X1688913Y-12512299D01*
X1703779Y-12507633D01*
X1724007Y-12504124D01*
X1750882Y-12501530D01*
X1785686Y-12499608D01*
X1829703Y-12498117D01*
X1884216Y-12496814D01*
X1930400Y-12495863D01*
X2029872Y-12493862D01*
X2117483Y-12492146D01*
X2194072Y-12490751D01*
X2260476Y-12489714D01*
X2317531Y-12489072D01*
X2366076Y-12488863D01*
X2406947Y-12489122D01*
G36*
X-288027Y-12392532D02*
G01*
X-256663Y-12401581D01*
X-232506Y-12415147D01*
X-231454Y-12416033D01*
X-220149Y-12428135D01*
X-212605Y-12442842D01*
X-208690Y-12461990D01*
X-208274Y-12487415D01*
X-211225Y-12520956D01*
X-217413Y-12564449D01*
X-219804Y-12579250D01*
X-229098Y-12633397D01*
X-239839Y-12692186D01*
X-251321Y-12752016D01*
X-262843Y-12809289D01*
X-273700Y-12860404D01*
X-281230Y-12893575D01*
X-290229Y-12931675D01*
X-140352Y-12931675D01*
X-88928Y-12931845D01*
X-48088Y-12932440D01*
X-15720Y-12933582D01*
X10288Y-12935395D01*
X32049Y-12938004D01*
X51674Y-12941532D01*
X60325Y-12943442D01*
X132605Y-12965221D01*
X195462Y-12995097D01*
X249281Y-13033476D01*
X294448Y-13080762D01*
X331349Y-13137358D01*
X360370Y-13203671D01*
X381897Y-13280103D01*
X381947Y-13280329D01*
X392491Y-13343259D01*
X399142Y-13416313D01*
X402037Y-13497574D01*
X401315Y-13585122D01*
X397117Y-13677040D01*
X389580Y-13771410D01*
X378843Y-13866313D01*
X365046Y-13959830D01*
X348327Y-14050045D01*
X328826Y-14135038D01*
X316825Y-14179349D01*
X289268Y-14260416D01*
X256325Y-14330127D01*
X217603Y-14388802D01*
X172713Y-14436760D01*
X121263Y-14474322D01*
X62862Y-14501807D01*
X-2880Y-14519536D01*
X-76356Y-14527828D01*
X-109953Y-14528574D01*
X-207177Y-14522949D01*
X-301512Y-14506118D01*
X-395676Y-14477566D01*
X-413045Y-14471053D01*
X-458433Y-14451076D01*
X-492261Y-14430084D01*
X-515667Y-14406847D01*
X-529790Y-14380136D01*
X-535768Y-14348722D01*
X-536144Y-14338148D01*
X-531172Y-14300487D01*
X-516707Y-14270076D01*
X-494198Y-14247717D01*
X-465096Y-14234215D01*
X-430850Y-14230372D01*
X-392911Y-14236992D01*
X-369780Y-14245944D01*
X-313490Y-14268848D01*
X-255355Y-14286496D01*
X-197471Y-14298648D01*
X-141932Y-14305068D01*
X-90833Y-14305514D01*
X-46269Y-14299749D01*
X-10333Y-14287535D01*
X-9340Y-14287030D01*
X19805Y-14267091D01*
X46108Y-14238419D01*
X69813Y-14200421D01*
X91159Y-14152504D01*
X110388Y-14094074D01*
X127742Y-14024538D01*
X143462Y-13943302D01*
X151936Y-13890525D01*
X162913Y-13811824D01*
X170866Y-13740178D01*
X176174Y-13670661D01*
X179212Y-13598345D01*
X180354Y-13519050D01*
X179991Y-13457540D01*
X178158Y-13406646D01*
X174543Y-13364337D01*
X168831Y-13328581D01*
X160710Y-13297347D01*
X149865Y-13268605D01*
X137912Y-13243929D01*
X116729Y-13210674D01*
X90949Y-13183546D01*
X59463Y-13162175D01*
X21161Y-13146191D01*
X-25064Y-13135224D01*
X-80323Y-13128904D01*
X-145725Y-13126862D01*
X-209075Y-13128171D01*
X-245916Y-13129886D01*
X-278815Y-13131967D01*
X-305470Y-13134225D01*
X-323574Y-13136471D01*
X-330350Y-13138130D01*
X-336990Y-13147145D01*
X-345756Y-13167768D01*
X-356319Y-13199145D01*
X-364946Y-13228246D01*
X-412295Y-13386942D01*
X-463642Y-13543995D01*
X-518403Y-13697990D01*
X-575994Y-13847516D01*
X-635830Y-13991158D01*
X-697327Y-14127503D01*
X-759901Y-14255140D01*
X-822967Y-14372654D01*
X-874339Y-14459983D01*
X-901451Y-14498604D01*
X-928362Y-14525263D01*
X-956205Y-14540629D01*
X-986110Y-14545372D01*
X-1012825Y-14541836D01*
X-1039245Y-14532801D01*
X-1061031Y-14518118D01*
X-1078316Y-14500503D01*
X-1095171Y-14476705D01*
X-1103773Y-14451877D01*
X-1103942Y-14424390D01*
X-1095498Y-14392611D01*
X-1078260Y-14354911D01*
X-1058301Y-14319861D01*
X-995374Y-14210969D01*
X-932430Y-14092767D01*
X-871044Y-13968549D01*
X-812791Y-13841606D01*
X-759246Y-13715230D01*
X-717587Y-13607950D01*
X-705525Y-13574708D01*
X-691104Y-13533889D01*
X-675060Y-13487674D01*
X-658126Y-13438242D01*
X-641036Y-13387775D01*
X-624526Y-13338452D01*
X-609329Y-13292455D01*
X-596179Y-13251963D01*
X-585812Y-13219158D01*
X-579122Y-13196790D01*
X-566131Y-13150756D01*
X-589453Y-13153866D01*
X-604340Y-13155718D01*
X-628740Y-13158604D01*
X-659542Y-13162164D01*
X-693637Y-13166034D01*
X-701675Y-13166937D01*
X-739727Y-13171403D01*
X-785684Y-13177111D01*
X-834886Y-13183465D01*
X-882672Y-13189868D01*
X-904875Y-13192943D01*
X-958699Y-13200066D01*
X-1001610Y-13204455D01*
X-1035158Y-13205828D01*
X-1060891Y-13203902D01*
X-1080360Y-13198394D01*
X-1095112Y-13189020D01*
X-1106698Y-13175497D01*
X-1116665Y-13157542D01*
X-1118358Y-13153925D01*
X-1128130Y-13120202D01*
X-1127713Y-13086687D01*
X-1117860Y-13056093D01*
X-1099321Y-13031133D01*
X-1080690Y-13018006D01*
X-1062919Y-13011784D01*
X-1032851Y-13004882D01*
X-990865Y-12997356D01*
X-937343Y-12989261D01*
X-872664Y-12980654D01*
X-797210Y-12971591D01*
X-711361Y-12962126D01*
X-667879Y-12957590D01*
X-625919Y-12953176D01*
X-588318Y-12949010D01*
X-556872Y-12945310D01*
X-533377Y-12942290D01*
X-519626Y-12940168D01*
X-516788Y-12939404D01*
X-513627Y-12931330D01*
X-508590Y-12912452D01*
X-502025Y-12884469D01*
X-494282Y-12849080D01*
X-485710Y-12807985D01*
X-476661Y-12762882D01*
X-467482Y-12715472D01*
X-458524Y-12667452D01*
X-450136Y-12620523D01*
X-445039Y-12590712D01*
X-436140Y-12538674D01*
X-428545Y-12497686D01*
X-421744Y-12466228D01*
X-415226Y-12442781D01*
X-408483Y-12425824D01*
X-401003Y-12413838D01*
X-392279Y-12405302D01*
X-381798Y-12398698D01*
X-380373Y-12397950D01*
X-354380Y-12390170D01*
X-322099Y-12388546D01*
X-288027Y-12392532D01*
G37*
X-288027Y-12392532D02*
X-256663Y-12401581D01*
X-232506Y-12415147D01*
X-231454Y-12416033D01*
X-220149Y-12428135D01*
X-212605Y-12442842D01*
X-208690Y-12461990D01*
X-208274Y-12487415D01*
X-211225Y-12520956D01*
X-217413Y-12564449D01*
X-219804Y-12579250D01*
X-229098Y-12633397D01*
X-239839Y-12692186D01*
X-251321Y-12752016D01*
X-262843Y-12809289D01*
X-273700Y-12860404D01*
X-281230Y-12893575D01*
X-290229Y-12931675D01*
X-140352Y-12931675D01*
X-88928Y-12931845D01*
X-48088Y-12932440D01*
X-15720Y-12933582D01*
X10288Y-12935395D01*
X32049Y-12938004D01*
X51674Y-12941532D01*
X60325Y-12943442D01*
X132605Y-12965221D01*
X195462Y-12995097D01*
X249281Y-13033476D01*
X294448Y-13080762D01*
X331349Y-13137358D01*
X360370Y-13203671D01*
X381897Y-13280103D01*
X381947Y-13280329D01*
X392491Y-13343259D01*
X399142Y-13416313D01*
X402037Y-13497574D01*
X401315Y-13585122D01*
X397117Y-13677040D01*
X389580Y-13771410D01*
X378843Y-13866313D01*
X365046Y-13959830D01*
X348327Y-14050045D01*
X328826Y-14135038D01*
X316825Y-14179349D01*
X289268Y-14260416D01*
X256325Y-14330127D01*
X217603Y-14388802D01*
X172713Y-14436760D01*
X121263Y-14474322D01*
X62862Y-14501807D01*
X-2880Y-14519536D01*
X-76356Y-14527828D01*
X-109953Y-14528574D01*
X-207177Y-14522949D01*
X-301512Y-14506118D01*
X-395676Y-14477566D01*
X-413045Y-14471053D01*
X-458433Y-14451076D01*
X-492261Y-14430084D01*
X-515667Y-14406847D01*
X-529790Y-14380136D01*
X-535768Y-14348722D01*
X-536144Y-14338148D01*
X-531172Y-14300487D01*
X-516707Y-14270076D01*
X-494198Y-14247717D01*
X-465096Y-14234215D01*
X-430850Y-14230372D01*
X-392911Y-14236992D01*
X-369780Y-14245944D01*
X-313490Y-14268848D01*
X-255355Y-14286496D01*
X-197471Y-14298648D01*
X-141932Y-14305068D01*
X-90833Y-14305514D01*
X-46269Y-14299749D01*
X-10333Y-14287535D01*
X-9340Y-14287030D01*
X19805Y-14267091D01*
X46108Y-14238419D01*
X69813Y-14200421D01*
X91159Y-14152504D01*
X110388Y-14094074D01*
X127742Y-14024538D01*
X143462Y-13943302D01*
X151936Y-13890525D01*
X162913Y-13811824D01*
X170866Y-13740178D01*
X176174Y-13670661D01*
X179212Y-13598345D01*
X180354Y-13519050D01*
X179991Y-13457540D01*
X178158Y-13406646D01*
X174543Y-13364337D01*
X168831Y-13328581D01*
X160710Y-13297347D01*
X149865Y-13268605D01*
X137912Y-13243929D01*
X116729Y-13210674D01*
X90949Y-13183546D01*
X59463Y-13162175D01*
X21161Y-13146191D01*
X-25064Y-13135224D01*
X-80323Y-13128904D01*
X-145725Y-13126862D01*
X-209075Y-13128171D01*
X-245916Y-13129886D01*
X-278815Y-13131967D01*
X-305470Y-13134225D01*
X-323574Y-13136471D01*
X-330350Y-13138130D01*
X-336990Y-13147145D01*
X-345756Y-13167768D01*
X-356319Y-13199145D01*
X-364946Y-13228246D01*
X-412295Y-13386942D01*
X-463642Y-13543995D01*
X-518403Y-13697990D01*
X-575994Y-13847516D01*
X-635830Y-13991158D01*
X-697327Y-14127503D01*
X-759901Y-14255140D01*
X-822967Y-14372654D01*
X-874339Y-14459983D01*
X-901451Y-14498604D01*
X-928362Y-14525263D01*
X-956205Y-14540629D01*
X-986110Y-14545372D01*
X-1012825Y-14541836D01*
X-1039245Y-14532801D01*
X-1061031Y-14518118D01*
X-1078316Y-14500503D01*
X-1095171Y-14476705D01*
X-1103773Y-14451877D01*
X-1103942Y-14424390D01*
X-1095498Y-14392611D01*
X-1078260Y-14354911D01*
X-1058301Y-14319861D01*
X-995374Y-14210969D01*
X-932430Y-14092767D01*
X-871044Y-13968549D01*
X-812791Y-13841606D01*
X-759246Y-13715230D01*
X-717587Y-13607950D01*
X-705525Y-13574708D01*
X-691104Y-13533889D01*
X-675060Y-13487674D01*
X-658126Y-13438242D01*
X-641036Y-13387775D01*
X-624526Y-13338452D01*
X-609329Y-13292455D01*
X-596179Y-13251963D01*
X-585812Y-13219158D01*
X-579122Y-13196790D01*
X-566131Y-13150756D01*
X-589453Y-13153866D01*
X-604340Y-13155718D01*
X-628740Y-13158604D01*
X-659542Y-13162164D01*
X-693637Y-13166034D01*
X-701675Y-13166937D01*
X-739727Y-13171403D01*
X-785684Y-13177111D01*
X-834886Y-13183465D01*
X-882672Y-13189868D01*
X-904875Y-13192943D01*
X-958699Y-13200066D01*
X-1001610Y-13204455D01*
X-1035158Y-13205828D01*
X-1060891Y-13203902D01*
X-1080360Y-13198394D01*
X-1095112Y-13189020D01*
X-1106698Y-13175497D01*
X-1116665Y-13157542D01*
X-1118358Y-13153925D01*
X-1128130Y-13120202D01*
X-1127713Y-13086687D01*
X-1117860Y-13056093D01*
X-1099321Y-13031133D01*
X-1080690Y-13018006D01*
X-1062919Y-13011784D01*
X-1032851Y-13004882D01*
X-990865Y-12997356D01*
X-937343Y-12989261D01*
X-872664Y-12980654D01*
X-797210Y-12971591D01*
X-711361Y-12962126D01*
X-667879Y-12957590D01*
X-625919Y-12953176D01*
X-588318Y-12949010D01*
X-556872Y-12945310D01*
X-533377Y-12942290D01*
X-519626Y-12940168D01*
X-516788Y-12939404D01*
X-513627Y-12931330D01*
X-508590Y-12912452D01*
X-502025Y-12884469D01*
X-494282Y-12849080D01*
X-485710Y-12807985D01*
X-476661Y-12762882D01*
X-467482Y-12715472D01*
X-458524Y-12667452D01*
X-450136Y-12620523D01*
X-445039Y-12590712D01*
X-436140Y-12538674D01*
X-428545Y-12497686D01*
X-421744Y-12466228D01*
X-415226Y-12442781D01*
X-408483Y-12425824D01*
X-401003Y-12413838D01*
X-392279Y-12405302D01*
X-381798Y-12398698D01*
X-380373Y-12397950D01*
X-354380Y-12390170D01*
X-322099Y-12388546D01*
X-288027Y-12392532D01*
G36*
X546567Y-12707513D02*
G01*
X570856Y-12711163D01*
X592185Y-12719330D01*
X612725Y-12733590D01*
X634648Y-12755516D01*
X660125Y-12786683D01*
X665572Y-12793814D01*
X737458Y-12894888D01*
X808122Y-13006313D01*
X876358Y-13125740D01*
X940958Y-13250818D01*
X1000714Y-13379199D01*
X1054420Y-13508533D01*
X1100867Y-13636470D01*
X1104964Y-13648788D01*
X1119174Y-13699554D01*
X1125109Y-13741465D01*
X1122632Y-13775416D01*
X1111606Y-13802303D01*
X1091895Y-13823018D01*
X1076897Y-13832317D01*
X1051658Y-13841522D01*
X1022190Y-13846611D01*
X993709Y-13847081D01*
X971550Y-13842479D01*
X946730Y-13826837D01*
X926053Y-13801821D01*
X908426Y-13766011D01*
X904191Y-13754710D01*
X848932Y-13607955D01*
X789813Y-13466957D01*
X727433Y-13332882D01*
X662394Y-13206898D01*
X595297Y-13090171D01*
X526742Y-12983870D01*
X461080Y-12893945D01*
X438387Y-12861031D01*
X425804Y-12832559D01*
X422602Y-12806350D01*
X425674Y-12787747D01*
X440931Y-12754298D01*
X465143Y-12729043D01*
X496797Y-12712985D01*
X534376Y-12707130D01*
X546567Y-12707513D01*
G37*
X546567Y-12707513D02*
X570856Y-12711163D01*
X592185Y-12719330D01*
X612725Y-12733590D01*
X634648Y-12755516D01*
X660125Y-12786683D01*
X665572Y-12793814D01*
X737458Y-12894888D01*
X808122Y-13006313D01*
X876358Y-13125740D01*
X940958Y-13250818D01*
X1000714Y-13379199D01*
X1054420Y-13508533D01*
X1100867Y-13636470D01*
X1104964Y-13648788D01*
X1119174Y-13699554D01*
X1125109Y-13741465D01*
X1122632Y-13775416D01*
X1111606Y-13802303D01*
X1091895Y-13823018D01*
X1076897Y-13832317D01*
X1051658Y-13841522D01*
X1022190Y-13846611D01*
X993709Y-13847081D01*
X971550Y-13842479D01*
X946730Y-13826837D01*
X926053Y-13801821D01*
X908426Y-13766011D01*
X904191Y-13754710D01*
X848932Y-13607955D01*
X789813Y-13466957D01*
X727433Y-13332882D01*
X662394Y-13206898D01*
X595297Y-13090171D01*
X526742Y-12983870D01*
X461080Y-12893945D01*
X438387Y-12861031D01*
X425804Y-12832559D01*
X422602Y-12806350D01*
X425674Y-12787747D01*
X440931Y-12754298D01*
X465143Y-12729043D01*
X496797Y-12712985D01*
X534376Y-12707130D01*
X546567Y-12707513D01*
D11*
%TO.C,C24*%
X-937836Y1470000D02*
X-722164Y1470000D01*
X-937836Y2190000D02*
X-722164Y2190000D01*
%TO.C,Y2*%
X4375000Y1025000D02*
X4375000Y-325000D01*
X6125000Y1025000D02*
X6125000Y-325000D01*
%TO.C,R11*%
X247500Y1502258D02*
X247500Y1027742D01*
X1292500Y1502258D02*
X1292500Y1027742D01*
%TO.C,C16*%
X-5034420Y-9115000D02*
X-5315580Y-9115000D01*
X-5034420Y-10135000D02*
X-5315580Y-10135000D01*
%TO.C,C22*%
X4260000Y-9117164D02*
X4260000Y-9332836D01*
X3540000Y-9117164D02*
X3540000Y-9332836D01*
%TO.C,R4*%
X2453641Y1705000D02*
X2146359Y1705000D01*
X2453641Y945000D02*
X2146359Y945000D01*
%TO.C,R3*%
X-456359Y5110000D02*
X-763641Y5110000D01*
X-456359Y5870000D02*
X-763641Y5870000D01*
%TO.C,R10*%
X3243641Y8390000D02*
X2936359Y8390000D01*
X3243641Y7630000D02*
X2936359Y7630000D01*
%TO.C,Y1*%
X6550000Y-6275000D02*
X6550000Y-3575000D01*
X4250000Y-6275000D02*
X6550000Y-6275000D01*
%TO.C,U1*%
X3610000Y-8610000D02*
X3610000Y-8050000D01*
X3610000Y-8610000D02*
X3050000Y-8610000D01*
X-3610000Y-8610000D02*
X-3050000Y-8610000D01*
X-3610000Y-8610000D02*
X-3610000Y-8050000D01*
X-3610000Y-1390000D02*
X-3610000Y-1950000D01*
X-3610000Y-1390000D02*
X-3050000Y-1390000D01*
X3610000Y-1390000D02*
X3610000Y-1950000D01*
%TO.C,R9*%
X1220000Y8653641D02*
X1220000Y8346359D01*
X1980000Y8653641D02*
X1980000Y8346359D01*
%TO.C,R8*%
X4720000Y5153641D02*
X4720000Y4846359D01*
X5480000Y5153641D02*
X5480000Y4846359D01*
%TO.C,R7*%
X4080000Y1606359D02*
X4080000Y1913641D01*
X3320000Y1606359D02*
X3320000Y1913641D01*
%TO.C,R6*%
X-5710000Y1463641D02*
X-5710000Y1156359D01*
X-4950000Y1463641D02*
X-4950000Y1156359D01*
%TO.C,R5*%
X-4720000Y5153641D02*
X-4720000Y4846359D01*
X-5480000Y5153641D02*
X-5480000Y4846359D01*
%TO.C,L3*%
X-5215000Y-5237779D02*
X-5215000Y-4912221D01*
X-6235000Y-5237779D02*
X-6235000Y-4912221D01*
%TO.C,C21*%
X2234420Y6430000D02*
X2515580Y6430000D01*
X2234420Y7450000D02*
X2515580Y7450000D01*
%TO.C,C20*%
X-2165000Y3859420D02*
X-2165000Y4140580D01*
X-3185000Y3859420D02*
X-3185000Y4140580D01*
%TO.C,C19*%
X2192164Y2560000D02*
X2407836Y2560000D01*
X2192164Y1840000D02*
X2407836Y1840000D01*
%TO.C,C18*%
X5362836Y2290000D02*
X5147164Y2290000D01*
X5362836Y3010000D02*
X5147164Y3010000D01*
%TO.C,C17*%
X5357836Y-1590000D02*
X5142164Y-1590000D01*
X5357836Y-2310000D02*
X5142164Y-2310000D01*
%TO.C,C15*%
X-5372164Y-10615000D02*
X-5587836Y-10615000D01*
X-5372164Y-11335000D02*
X-5587836Y-11335000D01*
%TO.C,C14*%
X-3655580Y1300000D02*
X-3374420Y1300000D01*
X-3655580Y280000D02*
X-3374420Y280000D01*
%TO.C,C13*%
X-3359420Y-930000D02*
X-3640580Y-930000D01*
X-3359420Y90000D02*
X-3640580Y90000D01*
%TO.C,C12*%
X-660000Y-9292164D02*
X-660000Y-9507836D01*
X60000Y-9292164D02*
X60000Y-9507836D01*
%TO.C,C11*%
X4970000Y-8162164D02*
X4970000Y-8377836D01*
X5690000Y-8162164D02*
X5690000Y-8377836D01*
%TO.C,C10*%
X3038896Y-1020221D02*
X3191399Y-867718D01*
X2529779Y-511104D02*
X2682282Y-358601D01*
%TO.C,C9*%
X1357836Y-8660000D02*
X1142164Y-8660000D01*
X1357836Y-9380000D02*
X1142164Y-9380000D01*
%TO.C,C8*%
X-1307836Y185000D02*
X-1092164Y185000D01*
X-1307836Y-535000D02*
X-1092164Y-535000D01*
%TO.C,C7*%
X5392164Y-2790000D02*
X5607836Y-2790000D01*
X5392164Y-3510000D02*
X5607836Y-3510000D01*
%TO.C,C6*%
X5607836Y-7060000D02*
X5392164Y-7060000D01*
X5607836Y-6340000D02*
X5392164Y-6340000D01*
%TO.C,C5*%
X4562164Y-11360000D02*
X4777836Y-11360000D01*
X4562164Y-10640000D02*
X4777836Y-10640000D01*
%TO.C,C4*%
X4285000Y-2322164D02*
X4285000Y-2537836D01*
X3565000Y-2322164D02*
X3565000Y-2537836D01*
%TO.C,C3*%
X-5012836Y-8535000D02*
X-4797164Y-8535000D01*
X-5012836Y-7815000D02*
X-4797164Y-7815000D01*
%TO.C,C2*%
X-1092164Y-665000D02*
X-1307836Y-665000D01*
X-1092164Y-1385000D02*
X-1307836Y-1385000D01*
%TO.C,C1*%
X-2284420Y-9115000D02*
X-2565580Y-9115000D01*
X-2284420Y-10135000D02*
X-2565580Y-10135000D01*
%TO.C,DUMMY8*%
D15*
X11790000Y-15980952D02*
X12018571Y-15980952D01*
X11904285Y-16380952D02*
X11904285Y-15980952D01*
X12228095Y-15980952D02*
X12304285Y-15980952D01*
X12342380Y-16000000D01*
X12380476Y-16038095D01*
X12399523Y-16114285D01*
X12399523Y-16247619D01*
X12380476Y-16323809D01*
X12342380Y-16361904D01*
X12304285Y-16380952D01*
X12228095Y-16380952D01*
X12190000Y-16361904D01*
X12151904Y-16323809D01*
X12132857Y-16247619D01*
X12132857Y-16114285D01*
X12151904Y-16038095D01*
X12190000Y-16000000D01*
X12228095Y-15980952D01*
X12647142Y-15980952D02*
X12723333Y-15980952D01*
X12761428Y-16000000D01*
X12799523Y-16038095D01*
X12818571Y-16114285D01*
X12818571Y-16247619D01*
X12799523Y-16323809D01*
X12761428Y-16361904D01*
X12723333Y-16380952D01*
X12647142Y-16380952D01*
X12609047Y-16361904D01*
X12570952Y-16323809D01*
X12551904Y-16247619D01*
X12551904Y-16114285D01*
X12570952Y-16038095D01*
X12609047Y-16000000D01*
X12647142Y-15980952D01*
X13180476Y-16380952D02*
X12990000Y-16380952D01*
X12990000Y-15980952D01*
X13313809Y-16380952D02*
X13313809Y-15980952D01*
X13504285Y-16380952D02*
X13504285Y-15980952D01*
X13732857Y-16380952D01*
X13732857Y-15980952D01*
X14132857Y-16000000D02*
X14094761Y-15980952D01*
X14037619Y-15980952D01*
X13980476Y-16000000D01*
X13942380Y-16038095D01*
X13923333Y-16076190D01*
X13904285Y-16152380D01*
X13904285Y-16209523D01*
X13923333Y-16285714D01*
X13942380Y-16323809D01*
X13980476Y-16361904D01*
X14037619Y-16380952D01*
X14075714Y-16380952D01*
X14132857Y-16361904D01*
X14151904Y-16342857D01*
X14151904Y-16209523D01*
X14075714Y-16209523D01*
%TO.C,DUMMY7*%
X11790000Y13019047D02*
X12018571Y13019047D01*
X11904285Y12619047D02*
X11904285Y13019047D01*
X12228095Y13019047D02*
X12304285Y13019047D01*
X12342380Y13000000D01*
X12380476Y12961904D01*
X12399523Y12885714D01*
X12399523Y12752380D01*
X12380476Y12676190D01*
X12342380Y12638095D01*
X12304285Y12619047D01*
X12228095Y12619047D01*
X12190000Y12638095D01*
X12151904Y12676190D01*
X12132857Y12752380D01*
X12132857Y12885714D01*
X12151904Y12961904D01*
X12190000Y13000000D01*
X12228095Y13019047D01*
X12647142Y13019047D02*
X12723333Y13019047D01*
X12761428Y13000000D01*
X12799523Y12961904D01*
X12818571Y12885714D01*
X12818571Y12752380D01*
X12799523Y12676190D01*
X12761428Y12638095D01*
X12723333Y12619047D01*
X12647142Y12619047D01*
X12609047Y12638095D01*
X12570952Y12676190D01*
X12551904Y12752380D01*
X12551904Y12885714D01*
X12570952Y12961904D01*
X12609047Y13000000D01*
X12647142Y13019047D01*
X13180476Y12619047D02*
X12990000Y12619047D01*
X12990000Y13019047D01*
X13313809Y12619047D02*
X13313809Y13019047D01*
X13504285Y12619047D02*
X13504285Y13019047D01*
X13732857Y12619047D01*
X13732857Y13019047D01*
X14132857Y13000000D02*
X14094761Y13019047D01*
X14037619Y13019047D01*
X13980476Y13000000D01*
X13942380Y12961904D01*
X13923333Y12923809D01*
X13904285Y12847619D01*
X13904285Y12790476D01*
X13923333Y12714285D01*
X13942380Y12676190D01*
X13980476Y12638095D01*
X14037619Y12619047D01*
X14075714Y12619047D01*
X14132857Y12638095D01*
X14151904Y12657142D01*
X14151904Y12790476D01*
X14075714Y12790476D01*
%TO.C,DUMMY6*%
X-14190000Y-15980952D02*
X-13961428Y-15980952D01*
X-14075714Y-16380952D02*
X-14075714Y-15980952D01*
X-13751904Y-15980952D02*
X-13675714Y-15980952D01*
X-13637619Y-16000000D01*
X-13599523Y-16038095D01*
X-13580476Y-16114285D01*
X-13580476Y-16247619D01*
X-13599523Y-16323809D01*
X-13637619Y-16361904D01*
X-13675714Y-16380952D01*
X-13751904Y-16380952D01*
X-13790000Y-16361904D01*
X-13828095Y-16323809D01*
X-13847142Y-16247619D01*
X-13847142Y-16114285D01*
X-13828095Y-16038095D01*
X-13790000Y-16000000D01*
X-13751904Y-15980952D01*
X-13332857Y-15980952D02*
X-13256666Y-15980952D01*
X-13218571Y-16000000D01*
X-13180476Y-16038095D01*
X-13161428Y-16114285D01*
X-13161428Y-16247619D01*
X-13180476Y-16323809D01*
X-13218571Y-16361904D01*
X-13256666Y-16380952D01*
X-13332857Y-16380952D01*
X-13370952Y-16361904D01*
X-13409047Y-16323809D01*
X-13428095Y-16247619D01*
X-13428095Y-16114285D01*
X-13409047Y-16038095D01*
X-13370952Y-16000000D01*
X-13332857Y-15980952D01*
X-12799523Y-16380952D02*
X-12990000Y-16380952D01*
X-12990000Y-15980952D01*
X-12666190Y-16380952D02*
X-12666190Y-15980952D01*
X-12475714Y-16380952D02*
X-12475714Y-15980952D01*
X-12247142Y-16380952D01*
X-12247142Y-15980952D01*
X-11847142Y-16000000D02*
X-11885238Y-15980952D01*
X-11942380Y-15980952D01*
X-11999523Y-16000000D01*
X-12037619Y-16038095D01*
X-12056666Y-16076190D01*
X-12075714Y-16152380D01*
X-12075714Y-16209523D01*
X-12056666Y-16285714D01*
X-12037619Y-16323809D01*
X-11999523Y-16361904D01*
X-11942380Y-16380952D01*
X-11904285Y-16380952D01*
X-11847142Y-16361904D01*
X-11828095Y-16342857D01*
X-11828095Y-16209523D01*
X-11904285Y-16209523D01*
%TO.C,DUMMY5*%
X-14190000Y13019047D02*
X-13961428Y13019047D01*
X-14075714Y12619047D02*
X-14075714Y13019047D01*
X-13751904Y13019047D02*
X-13675714Y13019047D01*
X-13637619Y13000000D01*
X-13599523Y12961904D01*
X-13580476Y12885714D01*
X-13580476Y12752380D01*
X-13599523Y12676190D01*
X-13637619Y12638095D01*
X-13675714Y12619047D01*
X-13751904Y12619047D01*
X-13790000Y12638095D01*
X-13828095Y12676190D01*
X-13847142Y12752380D01*
X-13847142Y12885714D01*
X-13828095Y12961904D01*
X-13790000Y13000000D01*
X-13751904Y13019047D01*
X-13332857Y13019047D02*
X-13256666Y13019047D01*
X-13218571Y13000000D01*
X-13180476Y12961904D01*
X-13161428Y12885714D01*
X-13161428Y12752380D01*
X-13180476Y12676190D01*
X-13218571Y12638095D01*
X-13256666Y12619047D01*
X-13332857Y12619047D01*
X-13370952Y12638095D01*
X-13409047Y12676190D01*
X-13428095Y12752380D01*
X-13428095Y12885714D01*
X-13409047Y12961904D01*
X-13370952Y13000000D01*
X-13332857Y13019047D01*
X-12799523Y12619047D02*
X-12990000Y12619047D01*
X-12990000Y13019047D01*
X-12666190Y12619047D02*
X-12666190Y13019047D01*
X-12475714Y12619047D02*
X-12475714Y13019047D01*
X-12247142Y12619047D01*
X-12247142Y13019047D01*
X-11847142Y13000000D02*
X-11885238Y13019047D01*
X-11942380Y13019047D01*
X-11999523Y13000000D01*
X-12037619Y12961904D01*
X-12056666Y12923809D01*
X-12075714Y12847619D01*
X-12075714Y12790476D01*
X-12056666Y12714285D01*
X-12037619Y12676190D01*
X-11999523Y12638095D01*
X-11942380Y12619047D01*
X-11904285Y12619047D01*
X-11847142Y12638095D01*
X-11828095Y12657142D01*
X-11828095Y12790476D01*
X-11904285Y12790476D01*
%TD*%
M02*
