%TF.GenerationSoftware,KiCad,Pcbnew,(5.1.9)-1*%
%TF.CreationDate,2021-01-22T02:53:34+08:00*%
%TF.ProjectId,akami,616b616d-692e-46b6-9963-61645f706362,rev?*%
%TF.SameCoordinates,Original*%
%TF.FileFunction,Copper,L4,Bot*%
%TF.FilePolarity,Positive*%
%FSLAX46Y46*%
G04 Gerber Fmt 4.6, Leading zero omitted, Abs format (unit mm)*
G04 Created by KiCad (PCBNEW (5.1.9)-1) date 2021-01-22 02:53:34*
%MOMM*%
%LPD*%
G01*
G04 APERTURE LIST*
%TA.AperFunction,SMDPad,CuDef*%
%ADD10R,1.600000X0.500000*%
%TD*%
%TA.AperFunction,ComponentPad*%
%ADD11C,0.500000*%
%TD*%
%TA.AperFunction,ComponentPad*%
%ADD12C,1.524000*%
%TD*%
%TA.AperFunction,WasherPad*%
%ADD13C,2.000000*%
%TD*%
%TA.AperFunction,SMDPad,CuDef*%
%ADD14R,1.000000X1.000000*%
%TD*%
%TA.AperFunction,ComponentPad*%
%ADD15O,1.000000X1.800000*%
%TD*%
%TA.AperFunction,ComponentPad*%
%ADD16O,1.000000X2.200000*%
%TD*%
%TA.AperFunction,ViaPad*%
%ADD17C,0.500000*%
%TD*%
%TA.AperFunction,ViaPad*%
%ADD18C,0.600000*%
%TD*%
%TA.AperFunction,Conductor*%
%ADD19C,0.300000*%
%TD*%
%TA.AperFunction,Conductor*%
%ADD20C,0.150000*%
%TD*%
%TA.AperFunction,Conductor*%
%ADD21C,0.261112*%
%TD*%
%TA.AperFunction,Conductor*%
%ADD22C,0.261100*%
%TD*%
%TA.AperFunction,Conductor*%
%ADD23C,0.100000*%
%TD*%
G04 APERTURE END LIST*
D10*
%TO.P,U3,7*%
%TO.N,GND*%
X-1000000Y3500000D03*
D11*
X-450000Y3500000D03*
X-1550000Y3500000D03*
%TD*%
D12*
%TO.P,U4,24*%
%TO.N,VBAT*%
X7620000Y12690000D03*
%TO.P,U4,23*%
%TO.N,GND*%
X7620000Y10150000D03*
%TO.P,U4,22*%
%TO.N,RESET*%
X7620000Y7610000D03*
%TO.P,U4,21*%
%TO.N,PPH_VCC*%
X7620000Y5070000D03*
%TO.P,U4,20*%
%TO.N,P0.31*%
X7620000Y2530000D03*
%TO.P,U4,19*%
%TO.N,P0.29*%
X7620000Y-10000D03*
%TO.P,U4,18*%
%TO.N,P0.02*%
X7620000Y-2550000D03*
%TO.P,U4,17*%
%TO.N,P1.15*%
X7620000Y-5090000D03*
%TO.P,U4,16*%
%TO.N,P1.13*%
X7620000Y-7630000D03*
%TO.P,U4,15*%
%TO.N,P1.11*%
X7620000Y-10170000D03*
%TO.P,U4,14*%
%TO.N,P0.10*%
X7620000Y-12710000D03*
%TO.P,U4,13*%
%TO.N,P0.09*%
X7620000Y-15250000D03*
%TO.P,U4,12*%
%TO.N,P1.06*%
X-7620000Y-15250000D03*
%TO.P,U4,11*%
%TO.N,P1.04*%
X-7620000Y-12710000D03*
%TO.P,U4,10*%
%TO.N,P0.11*%
X-7620000Y-10170000D03*
%TO.P,U4,9*%
%TO.N,P1.00*%
X-7620000Y-7630000D03*
%TO.P,U4,8*%
%TO.N,P0.24*%
X-7620000Y-5090000D03*
%TO.P,U4,7*%
%TO.N,P0.22*%
X-7620000Y-2550000D03*
%TO.P,U4,6*%
%TO.N,P0.20*%
X-7620000Y-10000D03*
%TO.P,U4,5*%
%TO.N,P0.17*%
X-7620000Y2530000D03*
%TO.P,U4,4*%
%TO.N,GND*%
X-7620000Y5070000D03*
%TO.P,U4,3*%
X-7620000Y7610000D03*
%TO.P,U4,2*%
%TO.N,P0.08*%
X-7620000Y10150000D03*
%TO.P,U4,1*%
%TO.N,P0.06*%
X-7620000Y12690000D03*
%TD*%
D13*
%TO.P,DUMMY8,*%
%TO.N,*%
X12990000Y-14500000D03*
%TD*%
%TO.P,DUMMY7,*%
%TO.N,*%
X12990000Y14500000D03*
%TD*%
%TO.P,DUMMY6,*%
%TO.N,*%
X-12990000Y-14500000D03*
%TD*%
%TO.P,DUMMY5,*%
%TO.N,*%
X-12990000Y14500000D03*
%TD*%
D12*
%TO.P,J2,1*%
%TO.N,VBUS*%
X7620000Y15230000D03*
%TD*%
%TO.P,J3,1*%
%TO.N,EXT_VCC*%
X-7620000Y15230000D03*
%TD*%
D14*
%TO.P,TP3,1*%
%TO.N,VDD_NRF*%
X0Y5500000D03*
%TD*%
%TO.P,TP1,1*%
%TO.N,SWC*%
X-3170000Y-9400000D03*
%TD*%
%TO.P,TP2,1*%
%TO.N,SWD*%
X-4680000Y-9400000D03*
%TD*%
D15*
%TO.P,J1,S1*%
%TO.N,Net-(J1-PadS1)*%
X-5575000Y11473200D03*
X5575600Y11473200D03*
D16*
X5575600Y15373200D03*
X-5575000Y15373200D03*
%TD*%
D17*
%TO.N,VDD_NRF*%
X-3800000Y-5410000D03*
X-4900000Y-7600000D03*
X3550000Y-1275000D03*
X-890000Y1080000D03*
X-4610000Y8020000D03*
X3780000Y8880000D03*
X-1910000Y5500000D03*
X-2300000Y-1325000D03*
X3760000Y-6880000D03*
X-3140000Y-10570000D03*
%TO.N,Net-(C11-Pad1)*%
X2675000Y-7700000D03*
X6040000Y-7970000D03*
%TO.N,VBUS*%
X-2525000Y9700000D03*
X0Y7470000D03*
X3160000Y9510000D03*
X-1970000Y790000D03*
X1740000Y3560000D03*
X4420000Y4600000D03*
%TO.N,Net-(C15-Pad2)*%
X2225000Y-8250000D03*
X3275000Y-2425000D03*
X-6070000Y-7640000D03*
%TO.N,VBAT*%
X2740000Y4270000D03*
X4160000Y6940000D03*
%TO.N,BLUE_LED*%
X-5170000Y3780000D03*
X-5450000Y-1520000D03*
%TO.N,USB_D+*%
X-4687500Y-1760000D03*
X250000Y9175000D03*
X-1100000Y9330000D03*
%TO.N,USB_D-*%
X-850000Y8075000D03*
X850000Y8375000D03*
X-4010000Y-1760000D03*
%TO.N,Net-(J1-PadB5)*%
X-1749700Y9550300D03*
X2350000Y9490000D03*
%TO.N,Net-(L3-Pad2)*%
X2290000Y-2690000D03*
X-4800000Y-4500000D03*
%TO.N,SWD*%
X-2600000Y-7675000D03*
%TO.N,SWC*%
X-2260000Y-8640000D03*
%TO.N,RESET*%
X-2400000Y-3600000D03*
D18*
%TO.N,GND*%
X-1212500Y-5000000D03*
X1212500Y-5000000D03*
X0Y-5000000D03*
X0Y-6212500D03*
X0Y-3787500D03*
X-1212500Y-3787500D03*
X-1212500Y-6212500D03*
X1212500Y-3787500D03*
D17*
X4575000Y10175000D03*
X-4575000Y10175000D03*
X3500000Y-10990000D03*
X-7620000Y-8900000D03*
D18*
X1212500Y-6212500D03*
D17*
X1550000Y-9750000D03*
X2850000Y-10990000D03*
X-7620000Y-6360000D03*
X7620000Y-1280000D03*
X7620000Y1260000D03*
X7620000Y3800000D03*
X7620000Y6340000D03*
X7620000Y8880000D03*
X-7620000Y8880000D03*
X-7620000Y6340000D03*
X-7620000Y3800000D03*
X-7620000Y1260000D03*
X-7620000Y-1280000D03*
X-7620000Y-3820000D03*
X-75000Y-10800000D03*
X-7620000Y11420000D03*
X-7620000Y13960000D03*
X7620000Y11420000D03*
X7620000Y13960000D03*
X3825000Y-675000D03*
X-2150000Y-10475000D03*
X-5175000Y-10325000D03*
X-2200000Y3980000D03*
X0Y-100000D03*
X1820000Y2890000D03*
X-5150000Y-800000D03*
X-5140000Y0D03*
X-2280000Y2430000D03*
X2330000Y7330000D03*
X1870000Y4650000D03*
X4500000Y-2630000D03*
X7620000Y-3820000D03*
X7620000Y-6360000D03*
X7620000Y-8900000D03*
X4600000Y-8480000D03*
X5260000Y3360000D03*
X-5550000Y-8790000D03*
X-5270000Y-2800000D03*
X-3910000Y-10600000D03*
%TO.N,P0.09*%
X60000Y-7790000D03*
%TO.N,P0.10*%
X590000Y-7400000D03*
%TO.N,P1.11*%
X2675000Y-6975000D03*
%TO.N,P1.13*%
X3760000Y-5750000D03*
%TO.N,P1.15*%
X3760000Y-5090000D03*
%TO.N,P0.02*%
X3760000Y-4390000D03*
%TO.N,P0.29*%
X3760000Y-3735000D03*
%TO.N,P0.31*%
X3200000Y-3250000D03*
%TO.N,P1.04*%
X-1475000Y-8700000D03*
%TO.N,P1.06*%
X-950000Y-10600000D03*
%TO.N,P0.11*%
X-1375000Y-2600000D03*
X-5050000Y-3530000D03*
%TO.N,P1.00*%
X-3925000Y-7600000D03*
%TO.N,P0.24*%
X-4160000Y-6950000D03*
%TO.N,P0.22*%
X-3790000Y-6390000D03*
%TO.N,P0.20*%
X-4310000Y-5900000D03*
%TO.N,P0.17*%
X-4470000Y-5150000D03*
%TO.N,P0.06*%
X-2950000Y1750000D03*
X550000Y-700000D03*
%TO.N,P0.08*%
X-25000Y-1075000D03*
%TO.N,EXT_VCC*%
X-5280000Y8660000D03*
%TO.N,PPH_VCC_CTRL*%
X5200000Y7140000D03*
X-3960000Y-3750000D03*
%TD*%
D19*
%TO.N,VDD_NRF*%
X0Y5500000D02*
X-1910000Y5500000D01*
D20*
%TO.N,Net-(C11-Pad1)*%
X5325000Y-7375000D02*
X3000000Y-7375000D01*
X5920000Y-7970000D02*
X5325000Y-7375000D01*
X6040000Y-7970000D02*
X5920000Y-7970000D01*
X3000000Y-7375000D02*
X2675000Y-7700000D01*
D19*
%TO.N,VBUS*%
X-1855000Y10370000D02*
X-2525000Y9700000D01*
X3160000Y9510000D02*
X2300000Y10370000D01*
X2300000Y10370000D02*
X-1855000Y10370000D01*
X2750000Y9100000D02*
X3160000Y9510000D01*
X1120000Y7470000D02*
X2750000Y9100000D01*
X0Y7470000D02*
X1120000Y7470000D01*
X1120000Y7470000D02*
X1120000Y4230000D01*
X-1970000Y790000D02*
X-1680000Y500000D01*
X-1680000Y500000D02*
X-360000Y500000D01*
X-360000Y500000D02*
X1120000Y1980000D01*
X1530000Y3770000D02*
X1740000Y3560000D01*
X1120000Y3770000D02*
X1530000Y3770000D01*
X1120000Y1980000D02*
X1120000Y3770000D01*
X1120000Y3770000D02*
X1120000Y4230000D01*
D20*
X3380000Y3560000D02*
X1740000Y3560000D01*
X4420000Y4600000D02*
X3380000Y3560000D01*
%TO.N,Net-(C15-Pad2)*%
X2225000Y-6875000D02*
X2225000Y-8250000D01*
X2575000Y-6250000D02*
X2225000Y-6600000D01*
X2575000Y-3125000D02*
X2575000Y-6250000D01*
X3275000Y-2425000D02*
X2575000Y-3125000D01*
X2225000Y-6600000D02*
X2225000Y-6875000D01*
X-3675000Y-8050000D02*
X-2475000Y-6850000D01*
X-5660000Y-8050000D02*
X-3675000Y-8050000D01*
X-6070000Y-7640000D02*
X-5660000Y-8050000D01*
X2200000Y-6850000D02*
X2225000Y-6875000D01*
X-2475000Y-6850000D02*
X2200000Y-6850000D01*
D19*
%TO.N,VBAT*%
X4160000Y5690000D02*
X2740000Y4270000D01*
X4160000Y6940000D02*
X4160000Y5690000D01*
X4160000Y8170000D02*
X4160000Y6940000D01*
X6530000Y10540000D02*
X4160000Y8170000D01*
X6525000Y10745000D02*
X6530000Y10740000D01*
X6530000Y10740000D02*
X6530000Y10540000D01*
X6525000Y12175000D02*
X6525000Y10745000D01*
X7040000Y12690000D02*
X6525000Y12175000D01*
X7620000Y12690000D02*
X7040000Y12690000D01*
D20*
%TO.N,BLUE_LED*%
X-5170000Y1470000D02*
X-5170000Y3780000D01*
X-5640000Y1000000D02*
X-5170000Y1470000D01*
X-5640000Y-1330000D02*
X-5640000Y1000000D01*
X-5450000Y-1520000D02*
X-5640000Y-1330000D01*
%TO.N,Net-(J1-PadS1)*%
X-5575000Y15373200D02*
X-5575000Y11473200D01*
X5575600Y15373200D02*
X5575600Y11473200D01*
X5575600Y11125600D02*
X5575600Y11473200D01*
X5200000Y10750000D02*
X5575600Y11125600D01*
X-5200000Y10750000D02*
X5200000Y10750000D01*
X-5575000Y11125000D02*
X-5200000Y10750000D01*
X-5575000Y11473200D02*
X-5575000Y11125000D01*
D21*
%TO.N,USB_D+*%
X-4582156Y-1657156D02*
X-4582156Y6696164D01*
X-4687500Y-1762500D02*
X-4582156Y-1657156D01*
X-4582156Y6696164D02*
X-2533320Y8745000D01*
D22*
X95000Y8745000D02*
X-920000Y8745000D01*
X250000Y8900000D02*
X95000Y8745000D01*
X250000Y9175000D02*
X250000Y8900000D01*
X-1100000Y8760000D02*
X-1085000Y8745000D01*
X-1100000Y9330000D02*
X-1100000Y8760000D01*
D21*
X-1085000Y8745000D02*
X-920000Y8745000D01*
X-2533320Y8745000D02*
X-1085000Y8745000D01*
D22*
%TO.N,USB_D-*%
X-850000Y8075000D02*
X550000Y8075000D01*
X850000Y8375000D02*
X545000Y8070000D01*
X550000Y8075000D02*
X850000Y8375000D01*
D21*
X-3452100Y5799634D02*
X-3388691Y5777446D01*
X-3331810Y5741705D02*
X-3284307Y5694202D01*
X-3388691Y5236865D02*
X-3452100Y5214677D01*
X-3518856Y5207156D02*
X-3817844Y5207156D01*
X-3248566Y5637321D02*
X-3226378Y5573912D01*
X-3218856Y5507156D02*
X-3226378Y5440399D01*
X-3248566Y5376990D02*
X-3284307Y5320109D01*
X-3331810Y5272606D02*
X-3388691Y5236865D01*
X-850000Y8075000D02*
X-2546680Y8075000D01*
X-3388691Y5777446D02*
X-3331810Y5741705D01*
X-4117844Y-1652156D02*
X-4010000Y-1760000D01*
X-3284307Y5694202D02*
X-3248566Y5637321D01*
X-3817844Y5207156D02*
X-3884601Y5199634D01*
X-3948010Y5836865D02*
X-3884601Y5814677D01*
X-3884601Y5199634D02*
X-3948010Y5177446D01*
X-3226378Y5440399D02*
X-3248566Y5376990D01*
X-3948010Y5177446D02*
X-4004891Y5141705D01*
X-3284307Y5320109D02*
X-3331810Y5272606D01*
X-3518856Y5807156D02*
X-3452100Y5799634D01*
X-3452100Y5214677D02*
X-3518856Y5207156D01*
X-4117844Y4907156D02*
X-4117844Y-1652156D01*
X-4088135Y5037321D02*
X-4110323Y4973912D01*
X-3226378Y5573912D02*
X-3218856Y5507156D01*
X-4110323Y4973912D02*
X-4117844Y4907156D01*
X-4004891Y5141705D02*
X-4052394Y5094202D01*
X-4052394Y5094202D02*
X-4088135Y5037321D01*
X-3817844Y5807156D02*
X-3518856Y5807156D01*
X-3884601Y5814677D02*
X-3817844Y5807156D01*
X-4117844Y6107156D02*
X-4110323Y6040399D01*
X-4004891Y5872606D02*
X-3948010Y5836865D01*
X-4052394Y5920109D02*
X-4004891Y5872606D01*
X-4088135Y5976990D02*
X-4052394Y5920109D01*
X-4110323Y6040399D02*
X-4088135Y5976990D01*
X-4117844Y6503836D02*
X-4117844Y6107156D01*
X-2546680Y8075000D02*
X-4117844Y6503836D01*
D20*
%TO.N,Net-(J1-PadB5)*%
X-1749700Y9550300D02*
X-1360000Y9940000D01*
X-1360000Y9940000D02*
X-1350000Y9930000D01*
X-1360000Y9940000D02*
X1900000Y9940000D01*
X1900000Y9940000D02*
X2350000Y9490000D01*
%TO.N,Net-(L3-Pad2)*%
X2300000Y-2700000D02*
X2290000Y-2690000D01*
X2300000Y-5325000D02*
X2300000Y-2700000D01*
X-2125000Y-5600000D02*
X2025000Y-5600000D01*
X2025000Y-5600000D02*
X2300000Y-5325000D01*
X-3225000Y-4500000D02*
X-2125000Y-5600000D01*
X-4800000Y-4500000D02*
X-3225000Y-4500000D01*
%TO.N,SWD*%
X-4475000Y-9400000D02*
X-4680000Y-9400000D01*
X-2750000Y-7675000D02*
X-4475000Y-9400000D01*
X-2600000Y-7675000D02*
X-2750000Y-7675000D01*
%TO.N,SWC*%
X-3020000Y-9400000D02*
X-3170000Y-9400000D01*
X-2260000Y-8640000D02*
X-3020000Y-9400000D01*
%TO.N,RESET*%
X5090000Y7960000D02*
X7270000Y7960000D01*
X4890000Y5010000D02*
X4620000Y5280000D01*
X4890000Y4390000D02*
X4890000Y5010000D01*
X-1090000Y-3150000D02*
X1790000Y-270000D01*
X7270000Y7960000D02*
X7620000Y7610000D01*
X1790000Y1290000D02*
X4890000Y4390000D01*
X-1400000Y-3150000D02*
X-1090000Y-3150000D01*
X1790000Y-270000D02*
X1790000Y1290000D01*
X-1850000Y-3600000D02*
X-1400000Y-3150000D01*
X4620000Y7490000D02*
X5090000Y7960000D01*
X4620000Y5280000D02*
X4620000Y7490000D01*
X-2400000Y-3600000D02*
X-1850000Y-3600000D01*
%TO.N,P0.09*%
X1245000Y-8975000D02*
X60000Y-7790000D01*
X2550000Y-8975000D02*
X1245000Y-8975000D01*
X5075000Y-8025000D02*
X3500000Y-8025000D01*
X6550000Y-11225000D02*
X6300000Y-10975000D01*
X6300000Y-10975000D02*
X6300000Y-9250000D01*
X6550000Y-14180000D02*
X6550000Y-11225000D01*
X3500000Y-8025000D02*
X2550000Y-8975000D01*
X6300000Y-9250000D02*
X5075000Y-8025000D01*
X7620000Y-15250000D02*
X6550000Y-14180000D01*
%TO.N,P0.10*%
X7620000Y-11895000D02*
X7620000Y-12710000D01*
X6575000Y-10850000D02*
X7620000Y-11895000D01*
X6575000Y-9135000D02*
X6575000Y-10850000D01*
X5190000Y-7750000D02*
X6575000Y-9135000D01*
X3375000Y-7750000D02*
X5190000Y-7750000D01*
X1750000Y-8700000D02*
X2425000Y-8700000D01*
X2425000Y-8700000D02*
X3375000Y-7750000D01*
X590000Y-7540000D02*
X1750000Y-8700000D01*
X590000Y-7400000D02*
X590000Y-7540000D01*
%TO.N,P1.11*%
X7620000Y-9560000D02*
X7620000Y-10170000D01*
X6525000Y-8465000D02*
X7620000Y-9560000D01*
X6525000Y-7000000D02*
X6525000Y-8465000D01*
X2935000Y-6425000D02*
X5950000Y-6425000D01*
X2675000Y-6685000D02*
X2935000Y-6425000D01*
X5950000Y-6425000D02*
X6525000Y-7000000D01*
X2675000Y-6975000D02*
X2675000Y-6685000D01*
%TO.N,P1.13*%
X3760000Y-5750000D02*
X5740000Y-5750000D01*
X5740000Y-5750000D02*
X7620000Y-7630000D01*
%TO.N,P1.15*%
X6530000Y-4000000D02*
X7620000Y-5090000D01*
X4875000Y-4000000D02*
X6530000Y-4000000D01*
X3760000Y-5090000D02*
X3785000Y-5090000D01*
X3785000Y-5090000D02*
X4875000Y-4000000D01*
%TO.N,P0.02*%
X7400000Y-2550000D02*
X7620000Y-2550000D01*
X6250000Y-3700000D02*
X7400000Y-2550000D01*
X4775000Y-3700000D02*
X6250000Y-3700000D01*
X4085000Y-4390000D02*
X4775000Y-3700000D01*
X3760000Y-4390000D02*
X4085000Y-4390000D01*
%TO.N,P0.29*%
X4070000Y-3425000D02*
X3760000Y-3735000D01*
X6025000Y-3425000D02*
X4070000Y-3425000D01*
X6510000Y-2940000D02*
X6025000Y-3425000D01*
X6510000Y-540000D02*
X6510000Y-2940000D01*
X7040000Y-10000D02*
X6510000Y-540000D01*
X7620000Y-10000D02*
X7040000Y-10000D01*
%TO.N,P0.31*%
X4275000Y2375000D02*
X4430000Y2530000D01*
X4275000Y-2175000D02*
X4275000Y2375000D01*
X3200000Y-3250000D02*
X4275000Y-2175000D01*
X4430000Y2530000D02*
X7620000Y2530000D01*
%TO.N,P1.04*%
X-7620000Y-12570000D02*
X-7620000Y-12710000D01*
X-6100000Y-11050000D02*
X-7620000Y-12570000D01*
X-1850000Y-11050000D02*
X-6100000Y-11050000D01*
X-1475000Y-10675000D02*
X-1850000Y-11050000D01*
X-1475000Y-8700000D02*
X-1475000Y-10675000D01*
%TO.N,P1.06*%
X-6550000Y-14180000D02*
X-7620000Y-15250000D01*
X-6550000Y-11940000D02*
X-6550000Y-14180000D01*
X-5930000Y-11320000D02*
X-6550000Y-11940000D01*
X-1645000Y-11320000D02*
X-5930000Y-11320000D01*
X-950000Y-10625000D02*
X-1645000Y-11320000D01*
X-950000Y-10600000D02*
X-950000Y-10625000D01*
%TO.N,P0.11*%
X-1375000Y-2625000D02*
X-1375000Y-2600000D01*
X-4480000Y-2960000D02*
X-1710000Y-2960000D01*
X-5050000Y-3530000D02*
X-4480000Y-2960000D01*
X-1710000Y-2960000D02*
X-1375000Y-2625000D01*
%TO.N,P1.00*%
X-6965000Y-6975000D02*
X-7620000Y-7630000D01*
X-4775000Y-6975000D02*
X-6965000Y-6975000D01*
X-4150000Y-7600000D02*
X-4775000Y-6975000D01*
X-3925000Y-7600000D02*
X-4150000Y-7600000D01*
%TO.N,P0.24*%
X-4405000Y-6705000D02*
X-4160000Y-6950000D01*
X-4820000Y-6705000D02*
X-4405000Y-6705000D01*
X-6430000Y-5095000D02*
X-4820000Y-6705000D01*
X-7615000Y-5095000D02*
X-6430000Y-5095000D01*
X-7620000Y-5090000D02*
X-7615000Y-5095000D01*
%TO.N,P0.22*%
X-6850000Y-4245000D02*
X-6850000Y-3320000D01*
X-4675000Y-6420000D02*
X-6850000Y-4245000D01*
X-3820000Y-6420000D02*
X-4675000Y-6420000D01*
X-6850000Y-3320000D02*
X-7620000Y-2550000D01*
X-3790000Y-6390000D02*
X-3820000Y-6420000D01*
%TO.N,P0.20*%
X-7415000Y-10000D02*
X-7620000Y-10000D01*
X-6560000Y-865000D02*
X-7415000Y-10000D01*
X-4760000Y-5900000D02*
X-6560000Y-4100000D01*
X-6560000Y-4100000D02*
X-6560000Y-865000D01*
X-4310000Y-5900000D02*
X-4760000Y-5900000D01*
%TO.N,P0.17*%
X-7620000Y2445000D02*
X-7620000Y2530000D01*
X-6550000Y-475000D02*
X-6550000Y1375000D01*
X-6260000Y-765000D02*
X-6550000Y-475000D01*
X-6260000Y-3930000D02*
X-6260000Y-765000D01*
X-6550000Y1375000D02*
X-7620000Y2445000D01*
X-5040000Y-5150000D02*
X-6260000Y-3930000D01*
X-4470000Y-5150000D02*
X-5040000Y-5150000D01*
%TO.N,P0.06*%
X475000Y-625000D02*
X550000Y-700000D01*
X-1535000Y-625000D02*
X475000Y-625000D01*
X-2950000Y790000D02*
X-1535000Y-625000D01*
X-2950000Y1750000D02*
X-2950000Y790000D01*
%TO.N,P0.08*%
X-6475000Y8575000D02*
X-7620000Y9720000D01*
X-6210000Y-290000D02*
X-6210000Y2540000D01*
X-5950000Y-550000D02*
X-6210000Y-290000D01*
X-7620000Y9720000D02*
X-7620000Y10150000D01*
X-6475000Y2805000D02*
X-6475000Y8575000D01*
X-5950000Y-2000000D02*
X-5950000Y-550000D01*
X-5710000Y-2240000D02*
X-5950000Y-2000000D01*
X-2400000Y-2240000D02*
X-5710000Y-2240000D01*
X-1235000Y-1075000D02*
X-2400000Y-2240000D01*
X-6210000Y2540000D02*
X-6475000Y2805000D01*
X-25000Y-1075000D02*
X-1235000Y-1075000D01*
D19*
%TO.N,EXT_VCC*%
X-5280000Y8660000D02*
X-6470000Y9850000D01*
X-6470000Y14080000D02*
X-7620000Y15230000D01*
X-6470000Y9850000D02*
X-6470000Y14080000D01*
D20*
%TO.N,PPH_VCC_CTRL*%
X2150000Y1230000D02*
X5200000Y4280000D01*
X-630000Y-3220000D02*
X2150000Y-440000D01*
X-630000Y-4120000D02*
X-630000Y-3220000D01*
X5200000Y4280000D02*
X5200000Y7140000D01*
X-860000Y-4350000D02*
X-630000Y-4120000D01*
X-1870000Y-4130000D02*
X-1650000Y-4350000D01*
X2150000Y-440000D02*
X2150000Y1230000D01*
X-3580000Y-4130000D02*
X-1870000Y-4130000D01*
X-1650000Y-4350000D02*
X-860000Y-4350000D01*
X-3960000Y-3750000D02*
X-3580000Y-4130000D01*
%TD*%
%TO.N,GND*%
X7843137Y16376922D02*
X8057775Y16312119D01*
X8255739Y16206860D01*
X8429485Y16065156D01*
X8572399Y15892402D01*
X8679036Y15695181D01*
X8745338Y15480994D01*
X8770000Y15246352D01*
X8770001Y2076367D01*
X8766441Y2064632D01*
X8765000Y2050000D01*
X8765000Y-2050000D01*
X8766441Y-2064632D01*
X8770000Y-2076364D01*
X8770001Y-11325000D01*
X7474264Y-11325000D01*
X7223242Y-11073978D01*
X7332103Y-11119070D01*
X7522789Y-11157000D01*
X7717211Y-11157000D01*
X7907897Y-11119070D01*
X8087520Y-11044668D01*
X8249176Y-10936653D01*
X8386653Y-10799176D01*
X8494668Y-10637520D01*
X8569070Y-10457897D01*
X8607000Y-10267211D01*
X8607000Y-10072789D01*
X8569070Y-9882103D01*
X8494668Y-9702480D01*
X8386653Y-9540824D01*
X8249176Y-9403347D01*
X8087520Y-9295332D01*
X7907897Y-9220930D01*
X7717211Y-9183000D01*
X7667264Y-9183000D01*
X6825000Y-8340737D01*
X6825000Y-8216752D01*
X6853347Y-8259176D01*
X6990824Y-8396653D01*
X7152480Y-8504668D01*
X7332103Y-8579070D01*
X7522789Y-8617000D01*
X7717211Y-8617000D01*
X7907897Y-8579070D01*
X8087520Y-8504668D01*
X8249176Y-8396653D01*
X8386653Y-8259176D01*
X8494668Y-8097520D01*
X8569070Y-7917897D01*
X8607000Y-7727211D01*
X8607000Y-7532789D01*
X8569070Y-7342103D01*
X8494668Y-7162480D01*
X8386653Y-7000824D01*
X8249176Y-6863347D01*
X8087520Y-6755332D01*
X7907897Y-6680930D01*
X7717211Y-6643000D01*
X7522789Y-6643000D01*
X7332103Y-6680930D01*
X7164583Y-6750319D01*
X5962553Y-5548290D01*
X5953158Y-5536842D01*
X5907477Y-5499353D01*
X5855360Y-5471496D01*
X5798810Y-5454341D01*
X5754733Y-5450000D01*
X5754723Y-5450000D01*
X5740000Y-5448550D01*
X5725277Y-5450000D01*
X4130824Y-5450000D01*
X4128956Y-5447205D01*
X4101751Y-5420000D01*
X4128956Y-5392795D01*
X4180939Y-5314997D01*
X4216746Y-5228552D01*
X4235000Y-5136783D01*
X4235000Y-5064263D01*
X4999264Y-4300000D01*
X6405737Y-4300000D01*
X6740319Y-4634582D01*
X6670930Y-4802103D01*
X6633000Y-4992789D01*
X6633000Y-5187211D01*
X6670930Y-5377897D01*
X6745332Y-5557520D01*
X6853347Y-5719176D01*
X6990824Y-5856653D01*
X7152480Y-5964668D01*
X7332103Y-6039070D01*
X7522789Y-6077000D01*
X7717211Y-6077000D01*
X7907897Y-6039070D01*
X8087520Y-5964668D01*
X8249176Y-5856653D01*
X8386653Y-5719176D01*
X8494668Y-5557520D01*
X8569070Y-5377897D01*
X8607000Y-5187211D01*
X8607000Y-4992789D01*
X8569070Y-4802103D01*
X8494668Y-4622480D01*
X8386653Y-4460824D01*
X8249176Y-4323347D01*
X8087520Y-4215332D01*
X7907897Y-4140930D01*
X7717211Y-4103000D01*
X7522789Y-4103000D01*
X7332103Y-4140930D01*
X7164582Y-4210319D01*
X6752553Y-3798290D01*
X6743158Y-3786842D01*
X6697477Y-3749353D01*
X6650187Y-3724076D01*
X7030860Y-3343404D01*
X7152480Y-3424668D01*
X7332103Y-3499070D01*
X7522789Y-3537000D01*
X7717211Y-3537000D01*
X7907897Y-3499070D01*
X8087520Y-3424668D01*
X8249176Y-3316653D01*
X8386653Y-3179176D01*
X8494668Y-3017520D01*
X8569070Y-2837897D01*
X8607000Y-2647211D01*
X8607000Y-2452789D01*
X8569070Y-2262103D01*
X8494668Y-2082480D01*
X8386653Y-1920824D01*
X8249176Y-1783347D01*
X8087520Y-1675332D01*
X7907897Y-1600930D01*
X7717211Y-1563000D01*
X7522789Y-1563000D01*
X7332103Y-1600930D01*
X7152480Y-1675332D01*
X6990824Y-1783347D01*
X6853347Y-1920824D01*
X6810000Y-1985697D01*
X6810000Y-664263D01*
X6846033Y-628230D01*
X6853347Y-639176D01*
X6990824Y-776653D01*
X7152480Y-884668D01*
X7332103Y-959070D01*
X7522789Y-997000D01*
X7717211Y-997000D01*
X7907897Y-959070D01*
X8087520Y-884668D01*
X8249176Y-776653D01*
X8386653Y-639176D01*
X8494668Y-477520D01*
X8569070Y-297897D01*
X8607000Y-107211D01*
X8607000Y87211D01*
X8569070Y277897D01*
X8494668Y457520D01*
X8386653Y619176D01*
X8249176Y756653D01*
X8087520Y864668D01*
X7907897Y939070D01*
X7717211Y977000D01*
X7522789Y977000D01*
X7332103Y939070D01*
X7152480Y864668D01*
X6990824Y756653D01*
X6853347Y619176D01*
X6745332Y457520D01*
X6670930Y277897D01*
X6633000Y87211D01*
X6633000Y7264D01*
X6308290Y-317447D01*
X6296842Y-326842D01*
X6280713Y-346496D01*
X6259353Y-372523D01*
X6246161Y-397205D01*
X6231496Y-424641D01*
X6214341Y-481191D01*
X6210000Y-525268D01*
X6210000Y-525277D01*
X6208550Y-540000D01*
X6210000Y-554723D01*
X6210001Y-2815735D01*
X5900737Y-3125000D01*
X4084722Y-3125000D01*
X4069999Y-3123550D01*
X4055276Y-3125000D01*
X4055267Y-3125000D01*
X4011190Y-3129341D01*
X3954640Y-3146496D01*
X3930379Y-3159464D01*
X3902522Y-3174353D01*
X3868285Y-3202451D01*
X3856842Y-3211842D01*
X3847451Y-3223285D01*
X3810080Y-3260656D01*
X3806783Y-3260000D01*
X3713217Y-3260000D01*
X3675000Y-3267602D01*
X3675000Y-3203217D01*
X3674344Y-3199919D01*
X4476716Y-2397547D01*
X4488158Y-2388158D01*
X4498954Y-2375003D01*
X4525647Y-2342478D01*
X4553504Y-2290360D01*
X4554691Y-2286448D01*
X4570659Y-2233810D01*
X4575000Y-2189733D01*
X4575000Y-2189730D01*
X4576451Y-2175000D01*
X4575000Y-2160270D01*
X4575000Y2230000D01*
X6675943Y2230000D01*
X6745332Y2062480D01*
X6853347Y1900824D01*
X6990824Y1763347D01*
X7152480Y1655332D01*
X7332103Y1580930D01*
X7522789Y1543000D01*
X7717211Y1543000D01*
X7907897Y1580930D01*
X8087520Y1655332D01*
X8249176Y1763347D01*
X8386653Y1900824D01*
X8494668Y2062480D01*
X8569070Y2242103D01*
X8607000Y2432789D01*
X8607000Y2627211D01*
X8569070Y2817897D01*
X8494668Y2997520D01*
X8386653Y3159176D01*
X8249176Y3296653D01*
X8087520Y3404668D01*
X7907897Y3479070D01*
X7717211Y3517000D01*
X7522789Y3517000D01*
X7332103Y3479070D01*
X7152480Y3404668D01*
X6990824Y3296653D01*
X6853347Y3159176D01*
X6745332Y2997520D01*
X6675943Y2830000D01*
X4444722Y2830000D01*
X4429999Y2831450D01*
X4415276Y2830000D01*
X4415267Y2830000D01*
X4371190Y2825659D01*
X4314640Y2808504D01*
X4262523Y2780647D01*
X4216842Y2743158D01*
X4207447Y2731710D01*
X4073286Y2597549D01*
X4061843Y2588158D01*
X4052452Y2576715D01*
X4052451Y2576714D01*
X4024353Y2542477D01*
X3996497Y2490360D01*
X3979342Y2433810D01*
X3973550Y2375000D01*
X3975001Y2360267D01*
X3975000Y-1059808D01*
X3970939Y-1050003D01*
X3918956Y-972205D01*
X3852795Y-906044D01*
X3774997Y-854061D01*
X3688552Y-818254D01*
X3596783Y-800000D01*
X3503217Y-800000D01*
X3411448Y-818254D01*
X3325003Y-854061D01*
X3247205Y-906044D01*
X3181044Y-972205D01*
X3129061Y-1050003D01*
X3093254Y-1136448D01*
X3075000Y-1228217D01*
X3075000Y-1321783D01*
X3093254Y-1413552D01*
X3129061Y-1499997D01*
X3181044Y-1577795D01*
X3247205Y-1643956D01*
X3325003Y-1695939D01*
X3411448Y-1731746D01*
X3503217Y-1750000D01*
X3596783Y-1750000D01*
X3688552Y-1731746D01*
X3774997Y-1695939D01*
X3852795Y-1643956D01*
X3918956Y-1577795D01*
X3970939Y-1499997D01*
X3975000Y-1490193D01*
X3975000Y-2050736D01*
X3732997Y-2292739D01*
X3731746Y-2286448D01*
X3695939Y-2200003D01*
X3643956Y-2122205D01*
X3577795Y-2056044D01*
X3499997Y-2004061D01*
X3413552Y-1968254D01*
X3321783Y-1950000D01*
X3228217Y-1950000D01*
X3136448Y-1968254D01*
X3050003Y-2004061D01*
X2972205Y-2056044D01*
X2906044Y-2122205D01*
X2854061Y-2200003D01*
X2818254Y-2286448D01*
X2800000Y-2378217D01*
X2800000Y-2471783D01*
X2800656Y-2475080D01*
X2740168Y-2535568D01*
X2710939Y-2465003D01*
X2658956Y-2387205D01*
X2592795Y-2321044D01*
X2514997Y-2269061D01*
X2428552Y-2233254D01*
X2336783Y-2215000D01*
X2243217Y-2215000D01*
X2151448Y-2233254D01*
X2065003Y-2269061D01*
X1987205Y-2321044D01*
X1921044Y-2387205D01*
X1869061Y-2465003D01*
X1833254Y-2551448D01*
X1815000Y-2643217D01*
X1815000Y-2736783D01*
X1833254Y-2828552D01*
X1869061Y-2914997D01*
X1921044Y-2992795D01*
X1987205Y-3058956D01*
X2000001Y-3067506D01*
X2000000Y-5200736D01*
X1900736Y-5300000D01*
X-2000736Y-5300000D01*
X-2870737Y-4430000D01*
X-1994263Y-4430000D01*
X-1872549Y-4551715D01*
X-1863158Y-4563158D01*
X-1851715Y-4572549D01*
X-1817478Y-4600647D01*
X-1795210Y-4612549D01*
X-1765360Y-4628504D01*
X-1708810Y-4645659D01*
X-1664733Y-4650000D01*
X-1664723Y-4650000D01*
X-1650000Y-4651450D01*
X-1635277Y-4650000D01*
X-874723Y-4650000D01*
X-860000Y-4651450D01*
X-845277Y-4650000D01*
X-845267Y-4650000D01*
X-801190Y-4645659D01*
X-744640Y-4628504D01*
X-692523Y-4600647D01*
X-646842Y-4563158D01*
X-637447Y-4551710D01*
X-428284Y-4342548D01*
X-416842Y-4333158D01*
X-407451Y-4321715D01*
X-379353Y-4287478D01*
X-359667Y-4250647D01*
X-351496Y-4235360D01*
X-334341Y-4178810D01*
X-330000Y-4134733D01*
X-330000Y-4134724D01*
X-328550Y-4120001D01*
X-330000Y-4105278D01*
X-330000Y-3344263D01*
X2351722Y-662543D01*
X2363158Y-653158D01*
X2372544Y-641721D01*
X2372550Y-641715D01*
X2400647Y-607478D01*
X2428504Y-555361D01*
X2435432Y-532523D01*
X2445659Y-498810D01*
X2450000Y-454733D01*
X2450000Y-454730D01*
X2451451Y-440000D01*
X2450000Y-425270D01*
X2450000Y1105737D01*
X5401717Y4057453D01*
X5413158Y4066842D01*
X5426250Y4082795D01*
X5450647Y4112522D01*
X5478503Y4164639D01*
X5478504Y4164640D01*
X5495659Y4221190D01*
X5500000Y4265267D01*
X5500000Y4265276D01*
X5501450Y4279999D01*
X5500000Y4294722D01*
X5500000Y5167211D01*
X6633000Y5167211D01*
X6633000Y4972789D01*
X6670930Y4782103D01*
X6745332Y4602480D01*
X6853347Y4440824D01*
X6990824Y4303347D01*
X7152480Y4195332D01*
X7332103Y4120930D01*
X7522789Y4083000D01*
X7717211Y4083000D01*
X7907897Y4120930D01*
X8087520Y4195332D01*
X8249176Y4303347D01*
X8386653Y4440824D01*
X8494668Y4602480D01*
X8569070Y4782103D01*
X8607000Y4972789D01*
X8607000Y5167211D01*
X8569070Y5357897D01*
X8494668Y5537520D01*
X8386653Y5699176D01*
X8249176Y5836653D01*
X8087520Y5944668D01*
X7907897Y6019070D01*
X7717211Y6057000D01*
X7522789Y6057000D01*
X7332103Y6019070D01*
X7152480Y5944668D01*
X6990824Y5836653D01*
X6853347Y5699176D01*
X6745332Y5537520D01*
X6670930Y5357897D01*
X6633000Y5167211D01*
X5500000Y5167211D01*
X5500000Y6769176D01*
X5502795Y6771044D01*
X5568956Y6837205D01*
X5620939Y6915003D01*
X5656746Y7001448D01*
X5675000Y7093217D01*
X5675000Y7186783D01*
X5656746Y7278552D01*
X5620939Y7364997D01*
X5568956Y7442795D01*
X5502795Y7508956D01*
X5424997Y7560939D01*
X5338552Y7596746D01*
X5246783Y7615000D01*
X5169264Y7615000D01*
X5214264Y7660000D01*
X6633000Y7660000D01*
X6633000Y7512789D01*
X6670930Y7322103D01*
X6745332Y7142480D01*
X6853347Y6980824D01*
X6990824Y6843347D01*
X7152480Y6735332D01*
X7332103Y6660930D01*
X7522789Y6623000D01*
X7717211Y6623000D01*
X7907897Y6660930D01*
X8087520Y6735332D01*
X8249176Y6843347D01*
X8386653Y6980824D01*
X8494668Y7142480D01*
X8569070Y7322103D01*
X8607000Y7512789D01*
X8607000Y7707211D01*
X8569070Y7897897D01*
X8494668Y8077520D01*
X8386653Y8239176D01*
X8249176Y8376653D01*
X8087520Y8484668D01*
X7907897Y8559070D01*
X7717211Y8597000D01*
X7522789Y8597000D01*
X7332103Y8559070D01*
X7152480Y8484668D01*
X6990824Y8376653D01*
X6874171Y8260000D01*
X5104722Y8260000D01*
X5089999Y8261450D01*
X5075276Y8260000D01*
X5075267Y8260000D01*
X5031190Y8255659D01*
X4974640Y8238504D01*
X4950379Y8225536D01*
X4922522Y8210647D01*
X4891272Y8185000D01*
X4876842Y8173158D01*
X4867451Y8161715D01*
X4535000Y7829263D01*
X4535000Y8014671D01*
X5867292Y9346963D01*
X7070107Y9346963D01*
X7161436Y9214308D01*
X7352792Y9142825D01*
X7554417Y9110047D01*
X7758562Y9117235D01*
X7957382Y9164112D01*
X8078564Y9214308D01*
X8169893Y9346963D01*
X7620000Y9896856D01*
X7070107Y9346963D01*
X5867292Y9346963D01*
X6585348Y10065019D01*
X6587235Y10011438D01*
X6634112Y9812618D01*
X6684308Y9691436D01*
X6816963Y9600107D01*
X7366856Y10150000D01*
X7873144Y10150000D01*
X8423037Y9600107D01*
X8555692Y9691436D01*
X8627175Y9882792D01*
X8659953Y10084417D01*
X8652765Y10288562D01*
X8605888Y10487382D01*
X8555692Y10608564D01*
X8423037Y10699893D01*
X7873144Y10150000D01*
X7366856Y10150000D01*
X7352714Y10164143D01*
X7605858Y10417287D01*
X7620000Y10403144D01*
X8169893Y10953037D01*
X8078564Y11085692D01*
X7887208Y11157175D01*
X7685583Y11189953D01*
X7481438Y11182765D01*
X7282618Y11135888D01*
X7161436Y11085692D01*
X7070108Y10953039D01*
X7010012Y11013135D01*
X6900000Y10903123D01*
X6900000Y12014171D01*
X6990824Y11923347D01*
X7152480Y11815332D01*
X7332103Y11740930D01*
X7522789Y11703000D01*
X7717211Y11703000D01*
X7907897Y11740930D01*
X8087520Y11815332D01*
X8249176Y11923347D01*
X8386653Y12060824D01*
X8494668Y12222480D01*
X8569070Y12402103D01*
X8607000Y12592789D01*
X8607000Y12787211D01*
X8569070Y12977897D01*
X8494668Y13157520D01*
X8386653Y13319176D01*
X8249176Y13456653D01*
X8087520Y13564668D01*
X7907897Y13639070D01*
X7717211Y13677000D01*
X7522789Y13677000D01*
X7332103Y13639070D01*
X7152480Y13564668D01*
X6990824Y13456653D01*
X6853347Y13319176D01*
X6745332Y13157520D01*
X6670930Y12977897D01*
X6639485Y12819815D01*
X6272866Y12453195D01*
X6258552Y12441448D01*
X6211691Y12384346D01*
X6176869Y12319199D01*
X6168934Y12293042D01*
X6090731Y12388332D01*
X5980336Y12478931D01*
X5875600Y12534914D01*
X5875600Y14111485D01*
X5980337Y14167469D01*
X6090732Y14258068D01*
X6181331Y14368463D01*
X6248653Y14494412D01*
X6290109Y14631075D01*
X6300600Y14737593D01*
X6300600Y15327211D01*
X6633000Y15327211D01*
X6633000Y15132789D01*
X6670930Y14942103D01*
X6745332Y14762480D01*
X6853347Y14600824D01*
X6990824Y14463347D01*
X7152480Y14355332D01*
X7332103Y14280930D01*
X7522789Y14243000D01*
X7717211Y14243000D01*
X7907897Y14280930D01*
X8087520Y14355332D01*
X8249176Y14463347D01*
X8386653Y14600824D01*
X8494668Y14762480D01*
X8569070Y14942103D01*
X8607000Y15132789D01*
X8607000Y15327211D01*
X8569070Y15517897D01*
X8494668Y15697520D01*
X8386653Y15859176D01*
X8249176Y15996653D01*
X8087520Y16104668D01*
X7907897Y16179070D01*
X7717211Y16217000D01*
X7522789Y16217000D01*
X7332103Y16179070D01*
X7152480Y16104668D01*
X6990824Y15996653D01*
X6853347Y15859176D01*
X6745332Y15697520D01*
X6670930Y15517897D01*
X6633000Y15327211D01*
X6300600Y15327211D01*
X6300600Y16008807D01*
X6290109Y16115325D01*
X6248653Y16251988D01*
X6181331Y16377937D01*
X6163224Y16400000D01*
X7607771Y16400000D01*
X7843137Y16376922D01*
%TA.AperFunction,Conductor*%
D23*
G36*
X7843137Y16376922D02*
G01*
X8057775Y16312119D01*
X8255739Y16206860D01*
X8429485Y16065156D01*
X8572399Y15892402D01*
X8679036Y15695181D01*
X8745338Y15480994D01*
X8770000Y15246352D01*
X8770001Y2076367D01*
X8766441Y2064632D01*
X8765000Y2050000D01*
X8765000Y-2050000D01*
X8766441Y-2064632D01*
X8770000Y-2076364D01*
X8770001Y-11325000D01*
X7474264Y-11325000D01*
X7223242Y-11073978D01*
X7332103Y-11119070D01*
X7522789Y-11157000D01*
X7717211Y-11157000D01*
X7907897Y-11119070D01*
X8087520Y-11044668D01*
X8249176Y-10936653D01*
X8386653Y-10799176D01*
X8494668Y-10637520D01*
X8569070Y-10457897D01*
X8607000Y-10267211D01*
X8607000Y-10072789D01*
X8569070Y-9882103D01*
X8494668Y-9702480D01*
X8386653Y-9540824D01*
X8249176Y-9403347D01*
X8087520Y-9295332D01*
X7907897Y-9220930D01*
X7717211Y-9183000D01*
X7667264Y-9183000D01*
X6825000Y-8340737D01*
X6825000Y-8216752D01*
X6853347Y-8259176D01*
X6990824Y-8396653D01*
X7152480Y-8504668D01*
X7332103Y-8579070D01*
X7522789Y-8617000D01*
X7717211Y-8617000D01*
X7907897Y-8579070D01*
X8087520Y-8504668D01*
X8249176Y-8396653D01*
X8386653Y-8259176D01*
X8494668Y-8097520D01*
X8569070Y-7917897D01*
X8607000Y-7727211D01*
X8607000Y-7532789D01*
X8569070Y-7342103D01*
X8494668Y-7162480D01*
X8386653Y-7000824D01*
X8249176Y-6863347D01*
X8087520Y-6755332D01*
X7907897Y-6680930D01*
X7717211Y-6643000D01*
X7522789Y-6643000D01*
X7332103Y-6680930D01*
X7164583Y-6750319D01*
X5962553Y-5548290D01*
X5953158Y-5536842D01*
X5907477Y-5499353D01*
X5855360Y-5471496D01*
X5798810Y-5454341D01*
X5754733Y-5450000D01*
X5754723Y-5450000D01*
X5740000Y-5448550D01*
X5725277Y-5450000D01*
X4130824Y-5450000D01*
X4128956Y-5447205D01*
X4101751Y-5420000D01*
X4128956Y-5392795D01*
X4180939Y-5314997D01*
X4216746Y-5228552D01*
X4235000Y-5136783D01*
X4235000Y-5064263D01*
X4999264Y-4300000D01*
X6405737Y-4300000D01*
X6740319Y-4634582D01*
X6670930Y-4802103D01*
X6633000Y-4992789D01*
X6633000Y-5187211D01*
X6670930Y-5377897D01*
X6745332Y-5557520D01*
X6853347Y-5719176D01*
X6990824Y-5856653D01*
X7152480Y-5964668D01*
X7332103Y-6039070D01*
X7522789Y-6077000D01*
X7717211Y-6077000D01*
X7907897Y-6039070D01*
X8087520Y-5964668D01*
X8249176Y-5856653D01*
X8386653Y-5719176D01*
X8494668Y-5557520D01*
X8569070Y-5377897D01*
X8607000Y-5187211D01*
X8607000Y-4992789D01*
X8569070Y-4802103D01*
X8494668Y-4622480D01*
X8386653Y-4460824D01*
X8249176Y-4323347D01*
X8087520Y-4215332D01*
X7907897Y-4140930D01*
X7717211Y-4103000D01*
X7522789Y-4103000D01*
X7332103Y-4140930D01*
X7164582Y-4210319D01*
X6752553Y-3798290D01*
X6743158Y-3786842D01*
X6697477Y-3749353D01*
X6650187Y-3724076D01*
X7030860Y-3343404D01*
X7152480Y-3424668D01*
X7332103Y-3499070D01*
X7522789Y-3537000D01*
X7717211Y-3537000D01*
X7907897Y-3499070D01*
X8087520Y-3424668D01*
X8249176Y-3316653D01*
X8386653Y-3179176D01*
X8494668Y-3017520D01*
X8569070Y-2837897D01*
X8607000Y-2647211D01*
X8607000Y-2452789D01*
X8569070Y-2262103D01*
X8494668Y-2082480D01*
X8386653Y-1920824D01*
X8249176Y-1783347D01*
X8087520Y-1675332D01*
X7907897Y-1600930D01*
X7717211Y-1563000D01*
X7522789Y-1563000D01*
X7332103Y-1600930D01*
X7152480Y-1675332D01*
X6990824Y-1783347D01*
X6853347Y-1920824D01*
X6810000Y-1985697D01*
X6810000Y-664263D01*
X6846033Y-628230D01*
X6853347Y-639176D01*
X6990824Y-776653D01*
X7152480Y-884668D01*
X7332103Y-959070D01*
X7522789Y-997000D01*
X7717211Y-997000D01*
X7907897Y-959070D01*
X8087520Y-884668D01*
X8249176Y-776653D01*
X8386653Y-639176D01*
X8494668Y-477520D01*
X8569070Y-297897D01*
X8607000Y-107211D01*
X8607000Y87211D01*
X8569070Y277897D01*
X8494668Y457520D01*
X8386653Y619176D01*
X8249176Y756653D01*
X8087520Y864668D01*
X7907897Y939070D01*
X7717211Y977000D01*
X7522789Y977000D01*
X7332103Y939070D01*
X7152480Y864668D01*
X6990824Y756653D01*
X6853347Y619176D01*
X6745332Y457520D01*
X6670930Y277897D01*
X6633000Y87211D01*
X6633000Y7264D01*
X6308290Y-317447D01*
X6296842Y-326842D01*
X6280713Y-346496D01*
X6259353Y-372523D01*
X6246161Y-397205D01*
X6231496Y-424641D01*
X6214341Y-481191D01*
X6210000Y-525268D01*
X6210000Y-525277D01*
X6208550Y-540000D01*
X6210000Y-554723D01*
X6210001Y-2815735D01*
X5900737Y-3125000D01*
X4084722Y-3125000D01*
X4069999Y-3123550D01*
X4055276Y-3125000D01*
X4055267Y-3125000D01*
X4011190Y-3129341D01*
X3954640Y-3146496D01*
X3930379Y-3159464D01*
X3902522Y-3174353D01*
X3868285Y-3202451D01*
X3856842Y-3211842D01*
X3847451Y-3223285D01*
X3810080Y-3260656D01*
X3806783Y-3260000D01*
X3713217Y-3260000D01*
X3675000Y-3267602D01*
X3675000Y-3203217D01*
X3674344Y-3199919D01*
X4476716Y-2397547D01*
X4488158Y-2388158D01*
X4498954Y-2375003D01*
X4525647Y-2342478D01*
X4553504Y-2290360D01*
X4554691Y-2286448D01*
X4570659Y-2233810D01*
X4575000Y-2189733D01*
X4575000Y-2189730D01*
X4576451Y-2175000D01*
X4575000Y-2160270D01*
X4575000Y2230000D01*
X6675943Y2230000D01*
X6745332Y2062480D01*
X6853347Y1900824D01*
X6990824Y1763347D01*
X7152480Y1655332D01*
X7332103Y1580930D01*
X7522789Y1543000D01*
X7717211Y1543000D01*
X7907897Y1580930D01*
X8087520Y1655332D01*
X8249176Y1763347D01*
X8386653Y1900824D01*
X8494668Y2062480D01*
X8569070Y2242103D01*
X8607000Y2432789D01*
X8607000Y2627211D01*
X8569070Y2817897D01*
X8494668Y2997520D01*
X8386653Y3159176D01*
X8249176Y3296653D01*
X8087520Y3404668D01*
X7907897Y3479070D01*
X7717211Y3517000D01*
X7522789Y3517000D01*
X7332103Y3479070D01*
X7152480Y3404668D01*
X6990824Y3296653D01*
X6853347Y3159176D01*
X6745332Y2997520D01*
X6675943Y2830000D01*
X4444722Y2830000D01*
X4429999Y2831450D01*
X4415276Y2830000D01*
X4415267Y2830000D01*
X4371190Y2825659D01*
X4314640Y2808504D01*
X4262523Y2780647D01*
X4216842Y2743158D01*
X4207447Y2731710D01*
X4073286Y2597549D01*
X4061843Y2588158D01*
X4052452Y2576715D01*
X4052451Y2576714D01*
X4024353Y2542477D01*
X3996497Y2490360D01*
X3979342Y2433810D01*
X3973550Y2375000D01*
X3975001Y2360267D01*
X3975000Y-1059808D01*
X3970939Y-1050003D01*
X3918956Y-972205D01*
X3852795Y-906044D01*
X3774997Y-854061D01*
X3688552Y-818254D01*
X3596783Y-800000D01*
X3503217Y-800000D01*
X3411448Y-818254D01*
X3325003Y-854061D01*
X3247205Y-906044D01*
X3181044Y-972205D01*
X3129061Y-1050003D01*
X3093254Y-1136448D01*
X3075000Y-1228217D01*
X3075000Y-1321783D01*
X3093254Y-1413552D01*
X3129061Y-1499997D01*
X3181044Y-1577795D01*
X3247205Y-1643956D01*
X3325003Y-1695939D01*
X3411448Y-1731746D01*
X3503217Y-1750000D01*
X3596783Y-1750000D01*
X3688552Y-1731746D01*
X3774997Y-1695939D01*
X3852795Y-1643956D01*
X3918956Y-1577795D01*
X3970939Y-1499997D01*
X3975000Y-1490193D01*
X3975000Y-2050736D01*
X3732997Y-2292739D01*
X3731746Y-2286448D01*
X3695939Y-2200003D01*
X3643956Y-2122205D01*
X3577795Y-2056044D01*
X3499997Y-2004061D01*
X3413552Y-1968254D01*
X3321783Y-1950000D01*
X3228217Y-1950000D01*
X3136448Y-1968254D01*
X3050003Y-2004061D01*
X2972205Y-2056044D01*
X2906044Y-2122205D01*
X2854061Y-2200003D01*
X2818254Y-2286448D01*
X2800000Y-2378217D01*
X2800000Y-2471783D01*
X2800656Y-2475080D01*
X2740168Y-2535568D01*
X2710939Y-2465003D01*
X2658956Y-2387205D01*
X2592795Y-2321044D01*
X2514997Y-2269061D01*
X2428552Y-2233254D01*
X2336783Y-2215000D01*
X2243217Y-2215000D01*
X2151448Y-2233254D01*
X2065003Y-2269061D01*
X1987205Y-2321044D01*
X1921044Y-2387205D01*
X1869061Y-2465003D01*
X1833254Y-2551448D01*
X1815000Y-2643217D01*
X1815000Y-2736783D01*
X1833254Y-2828552D01*
X1869061Y-2914997D01*
X1921044Y-2992795D01*
X1987205Y-3058956D01*
X2000001Y-3067506D01*
X2000000Y-5200736D01*
X1900736Y-5300000D01*
X-2000736Y-5300000D01*
X-2870737Y-4430000D01*
X-1994263Y-4430000D01*
X-1872549Y-4551715D01*
X-1863158Y-4563158D01*
X-1851715Y-4572549D01*
X-1817478Y-4600647D01*
X-1795210Y-4612549D01*
X-1765360Y-4628504D01*
X-1708810Y-4645659D01*
X-1664733Y-4650000D01*
X-1664723Y-4650000D01*
X-1650000Y-4651450D01*
X-1635277Y-4650000D01*
X-874723Y-4650000D01*
X-860000Y-4651450D01*
X-845277Y-4650000D01*
X-845267Y-4650000D01*
X-801190Y-4645659D01*
X-744640Y-4628504D01*
X-692523Y-4600647D01*
X-646842Y-4563158D01*
X-637447Y-4551710D01*
X-428284Y-4342548D01*
X-416842Y-4333158D01*
X-407451Y-4321715D01*
X-379353Y-4287478D01*
X-359667Y-4250647D01*
X-351496Y-4235360D01*
X-334341Y-4178810D01*
X-330000Y-4134733D01*
X-330000Y-4134724D01*
X-328550Y-4120001D01*
X-330000Y-4105278D01*
X-330000Y-3344263D01*
X2351722Y-662543D01*
X2363158Y-653158D01*
X2372544Y-641721D01*
X2372550Y-641715D01*
X2400647Y-607478D01*
X2428504Y-555361D01*
X2435432Y-532523D01*
X2445659Y-498810D01*
X2450000Y-454733D01*
X2450000Y-454730D01*
X2451451Y-440000D01*
X2450000Y-425270D01*
X2450000Y1105737D01*
X5401717Y4057453D01*
X5413158Y4066842D01*
X5426250Y4082795D01*
X5450647Y4112522D01*
X5478503Y4164639D01*
X5478504Y4164640D01*
X5495659Y4221190D01*
X5500000Y4265267D01*
X5500000Y4265276D01*
X5501450Y4279999D01*
X5500000Y4294722D01*
X5500000Y5167211D01*
X6633000Y5167211D01*
X6633000Y4972789D01*
X6670930Y4782103D01*
X6745332Y4602480D01*
X6853347Y4440824D01*
X6990824Y4303347D01*
X7152480Y4195332D01*
X7332103Y4120930D01*
X7522789Y4083000D01*
X7717211Y4083000D01*
X7907897Y4120930D01*
X8087520Y4195332D01*
X8249176Y4303347D01*
X8386653Y4440824D01*
X8494668Y4602480D01*
X8569070Y4782103D01*
X8607000Y4972789D01*
X8607000Y5167211D01*
X8569070Y5357897D01*
X8494668Y5537520D01*
X8386653Y5699176D01*
X8249176Y5836653D01*
X8087520Y5944668D01*
X7907897Y6019070D01*
X7717211Y6057000D01*
X7522789Y6057000D01*
X7332103Y6019070D01*
X7152480Y5944668D01*
X6990824Y5836653D01*
X6853347Y5699176D01*
X6745332Y5537520D01*
X6670930Y5357897D01*
X6633000Y5167211D01*
X5500000Y5167211D01*
X5500000Y6769176D01*
X5502795Y6771044D01*
X5568956Y6837205D01*
X5620939Y6915003D01*
X5656746Y7001448D01*
X5675000Y7093217D01*
X5675000Y7186783D01*
X5656746Y7278552D01*
X5620939Y7364997D01*
X5568956Y7442795D01*
X5502795Y7508956D01*
X5424997Y7560939D01*
X5338552Y7596746D01*
X5246783Y7615000D01*
X5169264Y7615000D01*
X5214264Y7660000D01*
X6633000Y7660000D01*
X6633000Y7512789D01*
X6670930Y7322103D01*
X6745332Y7142480D01*
X6853347Y6980824D01*
X6990824Y6843347D01*
X7152480Y6735332D01*
X7332103Y6660930D01*
X7522789Y6623000D01*
X7717211Y6623000D01*
X7907897Y6660930D01*
X8087520Y6735332D01*
X8249176Y6843347D01*
X8386653Y6980824D01*
X8494668Y7142480D01*
X8569070Y7322103D01*
X8607000Y7512789D01*
X8607000Y7707211D01*
X8569070Y7897897D01*
X8494668Y8077520D01*
X8386653Y8239176D01*
X8249176Y8376653D01*
X8087520Y8484668D01*
X7907897Y8559070D01*
X7717211Y8597000D01*
X7522789Y8597000D01*
X7332103Y8559070D01*
X7152480Y8484668D01*
X6990824Y8376653D01*
X6874171Y8260000D01*
X5104722Y8260000D01*
X5089999Y8261450D01*
X5075276Y8260000D01*
X5075267Y8260000D01*
X5031190Y8255659D01*
X4974640Y8238504D01*
X4950379Y8225536D01*
X4922522Y8210647D01*
X4891272Y8185000D01*
X4876842Y8173158D01*
X4867451Y8161715D01*
X4535000Y7829263D01*
X4535000Y8014671D01*
X5867292Y9346963D01*
X7070107Y9346963D01*
X7161436Y9214308D01*
X7352792Y9142825D01*
X7554417Y9110047D01*
X7758562Y9117235D01*
X7957382Y9164112D01*
X8078564Y9214308D01*
X8169893Y9346963D01*
X7620000Y9896856D01*
X7070107Y9346963D01*
X5867292Y9346963D01*
X6585348Y10065019D01*
X6587235Y10011438D01*
X6634112Y9812618D01*
X6684308Y9691436D01*
X6816963Y9600107D01*
X7366856Y10150000D01*
X7873144Y10150000D01*
X8423037Y9600107D01*
X8555692Y9691436D01*
X8627175Y9882792D01*
X8659953Y10084417D01*
X8652765Y10288562D01*
X8605888Y10487382D01*
X8555692Y10608564D01*
X8423037Y10699893D01*
X7873144Y10150000D01*
X7366856Y10150000D01*
X7352714Y10164143D01*
X7605858Y10417287D01*
X7620000Y10403144D01*
X8169893Y10953037D01*
X8078564Y11085692D01*
X7887208Y11157175D01*
X7685583Y11189953D01*
X7481438Y11182765D01*
X7282618Y11135888D01*
X7161436Y11085692D01*
X7070108Y10953039D01*
X7010012Y11013135D01*
X6900000Y10903123D01*
X6900000Y12014171D01*
X6990824Y11923347D01*
X7152480Y11815332D01*
X7332103Y11740930D01*
X7522789Y11703000D01*
X7717211Y11703000D01*
X7907897Y11740930D01*
X8087520Y11815332D01*
X8249176Y11923347D01*
X8386653Y12060824D01*
X8494668Y12222480D01*
X8569070Y12402103D01*
X8607000Y12592789D01*
X8607000Y12787211D01*
X8569070Y12977897D01*
X8494668Y13157520D01*
X8386653Y13319176D01*
X8249176Y13456653D01*
X8087520Y13564668D01*
X7907897Y13639070D01*
X7717211Y13677000D01*
X7522789Y13677000D01*
X7332103Y13639070D01*
X7152480Y13564668D01*
X6990824Y13456653D01*
X6853347Y13319176D01*
X6745332Y13157520D01*
X6670930Y12977897D01*
X6639485Y12819815D01*
X6272866Y12453195D01*
X6258552Y12441448D01*
X6211691Y12384346D01*
X6176869Y12319199D01*
X6168934Y12293042D01*
X6090731Y12388332D01*
X5980336Y12478931D01*
X5875600Y12534914D01*
X5875600Y14111485D01*
X5980337Y14167469D01*
X6090732Y14258068D01*
X6181331Y14368463D01*
X6248653Y14494412D01*
X6290109Y14631075D01*
X6300600Y14737593D01*
X6300600Y15327211D01*
X6633000Y15327211D01*
X6633000Y15132789D01*
X6670930Y14942103D01*
X6745332Y14762480D01*
X6853347Y14600824D01*
X6990824Y14463347D01*
X7152480Y14355332D01*
X7332103Y14280930D01*
X7522789Y14243000D01*
X7717211Y14243000D01*
X7907897Y14280930D01*
X8087520Y14355332D01*
X8249176Y14463347D01*
X8386653Y14600824D01*
X8494668Y14762480D01*
X8569070Y14942103D01*
X8607000Y15132789D01*
X8607000Y15327211D01*
X8569070Y15517897D01*
X8494668Y15697520D01*
X8386653Y15859176D01*
X8249176Y15996653D01*
X8087520Y16104668D01*
X7907897Y16179070D01*
X7717211Y16217000D01*
X7522789Y16217000D01*
X7332103Y16179070D01*
X7152480Y16104668D01*
X6990824Y15996653D01*
X6853347Y15859176D01*
X6745332Y15697520D01*
X6670930Y15517897D01*
X6633000Y15327211D01*
X6300600Y15327211D01*
X6300600Y16008807D01*
X6290109Y16115325D01*
X6248653Y16251988D01*
X6181331Y16377937D01*
X6163224Y16400000D01*
X7607771Y16400000D01*
X7843137Y16376922D01*
G37*
%TD.AperFunction*%
D20*
X-6180731Y16377936D02*
X-6248053Y16251987D01*
X-6289509Y16115324D01*
X-6300000Y16008806D01*
X-6299999Y14737593D01*
X-6289508Y14631075D01*
X-6248052Y14494412D01*
X-6180730Y14368463D01*
X-6090131Y14258068D01*
X-5979736Y14167469D01*
X-5875000Y14111486D01*
X-5874999Y12534915D01*
X-5979737Y12478931D01*
X-6090132Y12388331D01*
X-6095000Y12382399D01*
X-6095000Y14061584D01*
X-6093186Y14080000D01*
X-6095170Y14100147D01*
X-6100426Y14153513D01*
X-6121869Y14224200D01*
X-6139972Y14258068D01*
X-6156690Y14289347D01*
X-6191811Y14332141D01*
X-6203552Y14346448D01*
X-6217861Y14358191D01*
X-6709253Y14849583D01*
X-6670930Y14942103D01*
X-6633000Y15132789D01*
X-6633000Y15327211D01*
X-6670930Y15517897D01*
X-6745332Y15697520D01*
X-6853347Y15859176D01*
X-6990824Y15996653D01*
X-7152480Y16104668D01*
X-7332103Y16179070D01*
X-7522789Y16217000D01*
X-7717211Y16217000D01*
X-7907897Y16179070D01*
X-8087520Y16104668D01*
X-8249176Y15996653D01*
X-8386653Y15859176D01*
X-8494668Y15697520D01*
X-8569070Y15517897D01*
X-8607000Y15327211D01*
X-8607000Y15132789D01*
X-8569070Y14942103D01*
X-8494668Y14762480D01*
X-8386653Y14600824D01*
X-8249176Y14463347D01*
X-8087520Y14355332D01*
X-7907897Y14280930D01*
X-7717211Y14243000D01*
X-7522789Y14243000D01*
X-7332103Y14280930D01*
X-7239583Y14319253D01*
X-6844999Y13924669D01*
X-6844999Y13306683D01*
X-6853347Y13319176D01*
X-6990824Y13456653D01*
X-7152480Y13564668D01*
X-7332103Y13639070D01*
X-7522789Y13677000D01*
X-7717211Y13677000D01*
X-7907897Y13639070D01*
X-8087520Y13564668D01*
X-8249176Y13456653D01*
X-8386653Y13319176D01*
X-8494668Y13157520D01*
X-8569070Y12977897D01*
X-8607000Y12787211D01*
X-8607000Y12592789D01*
X-8569070Y12402103D01*
X-8494668Y12222480D01*
X-8386653Y12060824D01*
X-8249176Y11923347D01*
X-8087520Y11815332D01*
X-7907897Y11740930D01*
X-7717211Y11703000D01*
X-7522789Y11703000D01*
X-7332103Y11740930D01*
X-7152480Y11815332D01*
X-6990824Y11923347D01*
X-6853347Y12060824D01*
X-6844999Y12073317D01*
X-6845000Y10766683D01*
X-6853347Y10779176D01*
X-6990824Y10916653D01*
X-7152480Y11024668D01*
X-7332103Y11099070D01*
X-7522789Y11137000D01*
X-7717211Y11137000D01*
X-7907897Y11099070D01*
X-8087520Y11024668D01*
X-8249176Y10916653D01*
X-8386653Y10779176D01*
X-8494668Y10617520D01*
X-8569070Y10437897D01*
X-8607000Y10247211D01*
X-8607000Y10052789D01*
X-8569070Y9862103D01*
X-8494668Y9682480D01*
X-8386653Y9520824D01*
X-8249176Y9383347D01*
X-8087520Y9275332D01*
X-7907897Y9200930D01*
X-7717211Y9163000D01*
X-7522789Y9163000D01*
X-7493157Y9168894D01*
X-6774999Y8450735D01*
X-6774999Y8131002D01*
X-6816963Y8159893D01*
X-7366856Y7610000D01*
X-6816963Y7060107D01*
X-6774999Y7088998D01*
X-6775000Y5591002D01*
X-6816963Y5619893D01*
X-7366856Y5070000D01*
X-6816963Y4520107D01*
X-6775000Y4548997D01*
X-6775000Y3041921D01*
X-6853347Y3159176D01*
X-6990824Y3296653D01*
X-7152480Y3404668D01*
X-7332103Y3479070D01*
X-7522789Y3517000D01*
X-7717211Y3517000D01*
X-7907897Y3479070D01*
X-8087520Y3404668D01*
X-8249176Y3296653D01*
X-8386653Y3159176D01*
X-8494668Y2997520D01*
X-8569070Y2817897D01*
X-8607000Y2627211D01*
X-8607000Y2432789D01*
X-8569070Y2242103D01*
X-8494668Y2062480D01*
X-8386653Y1900824D01*
X-8249176Y1763347D01*
X-8087520Y1655332D01*
X-7907897Y1580930D01*
X-7717211Y1543000D01*
X-7522789Y1543000D01*
X-7332103Y1580930D01*
X-7224687Y1625423D01*
X-6849999Y1250735D01*
X-6849999Y614166D01*
X-6853347Y619176D01*
X-6990824Y756653D01*
X-7152480Y864668D01*
X-7332103Y939070D01*
X-7522789Y977000D01*
X-7717211Y977000D01*
X-7907897Y939070D01*
X-8087520Y864668D01*
X-8249176Y756653D01*
X-8386653Y619176D01*
X-8494668Y457520D01*
X-8569070Y277897D01*
X-8607000Y87211D01*
X-8607000Y-107211D01*
X-8569070Y-297897D01*
X-8494668Y-477520D01*
X-8386653Y-639176D01*
X-8249176Y-776653D01*
X-8087520Y-884668D01*
X-7907897Y-959070D01*
X-7717211Y-997000D01*
X-7522789Y-997000D01*
X-7332103Y-959070D01*
X-7152480Y-884668D01*
X-7039852Y-809412D01*
X-6859999Y-989265D01*
X-6859999Y-1914172D01*
X-6990824Y-1783347D01*
X-7152480Y-1675332D01*
X-7332103Y-1600930D01*
X-7522789Y-1563000D01*
X-7717211Y-1563000D01*
X-7907897Y-1600930D01*
X-8087520Y-1675332D01*
X-8249176Y-1783347D01*
X-8386653Y-1920824D01*
X-8494668Y-2082480D01*
X-8569070Y-2262103D01*
X-8607000Y-2452789D01*
X-8607000Y-2647211D01*
X-8569070Y-2837897D01*
X-8494668Y-3017520D01*
X-8386653Y-3179176D01*
X-8249176Y-3316653D01*
X-8087520Y-3424668D01*
X-7907897Y-3499070D01*
X-7717211Y-3537000D01*
X-7522789Y-3537000D01*
X-7332103Y-3499070D01*
X-7164583Y-3429681D01*
X-7149999Y-3444265D01*
X-7150000Y-4216989D01*
X-7152480Y-4215332D01*
X-7332103Y-4140930D01*
X-7522789Y-4103000D01*
X-7717211Y-4103000D01*
X-7907897Y-4140930D01*
X-8087520Y-4215332D01*
X-8249176Y-4323347D01*
X-8386653Y-4460824D01*
X-8494668Y-4622480D01*
X-8569070Y-4802103D01*
X-8607000Y-4992789D01*
X-8607000Y-5187211D01*
X-8569070Y-5377897D01*
X-8494668Y-5557520D01*
X-8386653Y-5719176D01*
X-8249176Y-5856653D01*
X-8087520Y-5964668D01*
X-7907897Y-6039070D01*
X-7717211Y-6077000D01*
X-7522789Y-6077000D01*
X-7332103Y-6039070D01*
X-7152480Y-5964668D01*
X-6990824Y-5856653D01*
X-6853347Y-5719176D01*
X-6745332Y-5557520D01*
X-6678014Y-5395000D01*
X-6554263Y-5395000D01*
X-5274264Y-6675000D01*
X-6950270Y-6675000D01*
X-6965000Y-6673549D01*
X-6979730Y-6675000D01*
X-6979733Y-6675000D01*
X-7023810Y-6679341D01*
X-7080360Y-6696496D01*
X-7093471Y-6703504D01*
X-7132478Y-6724353D01*
X-7153308Y-6741448D01*
X-7164273Y-6750447D01*
X-7332103Y-6680930D01*
X-7522789Y-6643000D01*
X-7717211Y-6643000D01*
X-7907897Y-6680930D01*
X-8087520Y-6755332D01*
X-8249176Y-6863347D01*
X-8386653Y-7000824D01*
X-8494668Y-7162480D01*
X-8569070Y-7342103D01*
X-8607000Y-7532789D01*
X-8607000Y-7727211D01*
X-8569070Y-7917897D01*
X-8494668Y-8097520D01*
X-8386653Y-8259176D01*
X-8249176Y-8396653D01*
X-8087520Y-8504668D01*
X-7907897Y-8579070D01*
X-7717211Y-8617000D01*
X-7522789Y-8617000D01*
X-7332103Y-8579070D01*
X-7152480Y-8504668D01*
X-6990824Y-8396653D01*
X-6853347Y-8259176D01*
X-6745332Y-8097520D01*
X-6670930Y-7917897D01*
X-6633000Y-7727211D01*
X-6633000Y-7532789D01*
X-6670930Y-7342103D01*
X-6698725Y-7275000D01*
X-6376751Y-7275000D01*
X-6438956Y-7337205D01*
X-6490939Y-7415003D01*
X-6526746Y-7501448D01*
X-6545000Y-7593217D01*
X-6545000Y-7686783D01*
X-6526746Y-7778552D01*
X-6490939Y-7864997D01*
X-6438956Y-7942795D01*
X-6372795Y-8008956D01*
X-6294997Y-8060939D01*
X-6208552Y-8096746D01*
X-6116783Y-8115000D01*
X-6023217Y-8115000D01*
X-6019920Y-8114344D01*
X-5882549Y-8251715D01*
X-5873158Y-8263158D01*
X-5861715Y-8272549D01*
X-5861714Y-8272550D01*
X-5827478Y-8300647D01*
X-5790037Y-8320659D01*
X-5775360Y-8328504D01*
X-5718810Y-8345659D01*
X-5674733Y-8350000D01*
X-5674730Y-8350000D01*
X-5660000Y-8351451D01*
X-5645270Y-8350000D01*
X-3849263Y-8350000D01*
X-4173787Y-8674524D01*
X-4180000Y-8673912D01*
X-5180000Y-8673912D01*
X-5224108Y-8678256D01*
X-5266520Y-8691122D01*
X-5305608Y-8712015D01*
X-5339868Y-8740132D01*
X-5367985Y-8774392D01*
X-5388878Y-8813480D01*
X-5401744Y-8855892D01*
X-5406088Y-8900000D01*
X-5406088Y-9900000D01*
X-5401744Y-9944108D01*
X-5388878Y-9986520D01*
X-5367985Y-10025608D01*
X-5339868Y-10059868D01*
X-5305608Y-10087985D01*
X-5266520Y-10108878D01*
X-5224108Y-10121744D01*
X-5180000Y-10126088D01*
X-4180000Y-10126088D01*
X-4135892Y-10121744D01*
X-4093480Y-10108878D01*
X-4054392Y-10087985D01*
X-4020132Y-10059868D01*
X-3992015Y-10025608D01*
X-3971122Y-9986520D01*
X-3958256Y-9944108D01*
X-3953912Y-9900000D01*
X-3953912Y-9303175D01*
X-3896088Y-9245351D01*
X-3896088Y-9900000D01*
X-3891744Y-9944108D01*
X-3878878Y-9986520D01*
X-3857985Y-10025608D01*
X-3829868Y-10059868D01*
X-3795608Y-10087985D01*
X-3756520Y-10108878D01*
X-3714108Y-10121744D01*
X-3670000Y-10126088D01*
X-3309536Y-10126088D01*
X-3364997Y-10149061D01*
X-3442795Y-10201044D01*
X-3508956Y-10267205D01*
X-3560939Y-10345003D01*
X-3596746Y-10431448D01*
X-3615000Y-10523217D01*
X-3615000Y-10616783D01*
X-3596746Y-10708552D01*
X-3579578Y-10750000D01*
X-6085270Y-10750000D01*
X-6100000Y-10748549D01*
X-6114730Y-10750000D01*
X-6114733Y-10750000D01*
X-6158810Y-10754341D01*
X-6215360Y-10771496D01*
X-6267478Y-10799353D01*
X-6298725Y-10824997D01*
X-6313158Y-10836842D01*
X-6322549Y-10848285D01*
X-6799264Y-11325000D01*
X-8770000Y-11325000D01*
X-8770000Y-10072789D01*
X-8607000Y-10072789D01*
X-8607000Y-10267211D01*
X-8569070Y-10457897D01*
X-8494668Y-10637520D01*
X-8386653Y-10799176D01*
X-8249176Y-10936653D01*
X-8087520Y-11044668D01*
X-7907897Y-11119070D01*
X-7717211Y-11157000D01*
X-7522789Y-11157000D01*
X-7332103Y-11119070D01*
X-7152480Y-11044668D01*
X-6990824Y-10936653D01*
X-6853347Y-10799176D01*
X-6745332Y-10637520D01*
X-6670930Y-10457897D01*
X-6633000Y-10267211D01*
X-6633000Y-10072789D01*
X-6670930Y-9882103D01*
X-6745332Y-9702480D01*
X-6853347Y-9540824D01*
X-6990824Y-9403347D01*
X-7152480Y-9295332D01*
X-7332103Y-9220930D01*
X-7522789Y-9183000D01*
X-7717211Y-9183000D01*
X-7907897Y-9220930D01*
X-8087520Y-9295332D01*
X-8249176Y-9403347D01*
X-8386653Y-9540824D01*
X-8494668Y-9702480D01*
X-8569070Y-9882103D01*
X-8607000Y-10072789D01*
X-8770000Y-10072789D01*
X-8770000Y-2076364D01*
X-8766441Y-2064632D01*
X-8765000Y-2050000D01*
X-8765000Y2050000D01*
X-8766441Y2064632D01*
X-8770000Y2076364D01*
X-8770000Y4266963D01*
X-8169893Y4266963D01*
X-8078564Y4134308D01*
X-7887208Y4062825D01*
X-7685583Y4030047D01*
X-7481438Y4037235D01*
X-7282618Y4084112D01*
X-7161436Y4134308D01*
X-7070107Y4266963D01*
X-7620000Y4816856D01*
X-8169893Y4266963D01*
X-8770000Y4266963D01*
X-8770000Y5135583D01*
X-8659953Y5135583D01*
X-8652765Y4931438D01*
X-8605888Y4732618D01*
X-8555692Y4611436D01*
X-8423037Y4520107D01*
X-7873144Y5070000D01*
X-8423037Y5619893D01*
X-8555692Y5528564D01*
X-8627175Y5337208D01*
X-8659953Y5135583D01*
X-8770000Y5135583D01*
X-8770000Y5873037D01*
X-8169893Y5873037D01*
X-7620000Y5323144D01*
X-7070107Y5873037D01*
X-7161436Y6005692D01*
X-7352792Y6077175D01*
X-7554417Y6109953D01*
X-7758562Y6102765D01*
X-7957382Y6055888D01*
X-8078564Y6005692D01*
X-8169893Y5873037D01*
X-8770000Y5873037D01*
X-8770000Y6806963D01*
X-8169893Y6806963D01*
X-8078564Y6674308D01*
X-7887208Y6602825D01*
X-7685583Y6570047D01*
X-7481438Y6577235D01*
X-7282618Y6624112D01*
X-7161436Y6674308D01*
X-7070107Y6806963D01*
X-7620000Y7356856D01*
X-8169893Y6806963D01*
X-8770000Y6806963D01*
X-8770000Y7675583D01*
X-8659953Y7675583D01*
X-8652765Y7471438D01*
X-8605888Y7272618D01*
X-8555692Y7151436D01*
X-8423037Y7060107D01*
X-7873144Y7610000D01*
X-8423037Y8159893D01*
X-8555692Y8068564D01*
X-8627175Y7877208D01*
X-8659953Y7675583D01*
X-8770000Y7675583D01*
X-8770000Y8413037D01*
X-8169893Y8413037D01*
X-7620000Y7863144D01*
X-7070107Y8413037D01*
X-7161436Y8545692D01*
X-7352792Y8617175D01*
X-7554417Y8649953D01*
X-7758562Y8642765D01*
X-7957382Y8595888D01*
X-8078564Y8545692D01*
X-8169893Y8413037D01*
X-8770000Y8413037D01*
X-8770000Y15237771D01*
X-8746922Y15473137D01*
X-8682119Y15687775D01*
X-8576860Y15885739D01*
X-8435156Y16059485D01*
X-8262402Y16202399D01*
X-8065181Y16309036D01*
X-7850994Y16375338D01*
X-7616352Y16400000D01*
X-6162624Y16400000D01*
X-6180731Y16377936D01*
%TA.AperFunction,Conductor*%
D23*
G36*
X-6180731Y16377936D02*
G01*
X-6248053Y16251987D01*
X-6289509Y16115324D01*
X-6300000Y16008806D01*
X-6299999Y14737593D01*
X-6289508Y14631075D01*
X-6248052Y14494412D01*
X-6180730Y14368463D01*
X-6090131Y14258068D01*
X-5979736Y14167469D01*
X-5875000Y14111486D01*
X-5874999Y12534915D01*
X-5979737Y12478931D01*
X-6090132Y12388331D01*
X-6095000Y12382399D01*
X-6095000Y14061584D01*
X-6093186Y14080000D01*
X-6095170Y14100147D01*
X-6100426Y14153513D01*
X-6121869Y14224200D01*
X-6139972Y14258068D01*
X-6156690Y14289347D01*
X-6191811Y14332141D01*
X-6203552Y14346448D01*
X-6217861Y14358191D01*
X-6709253Y14849583D01*
X-6670930Y14942103D01*
X-6633000Y15132789D01*
X-6633000Y15327211D01*
X-6670930Y15517897D01*
X-6745332Y15697520D01*
X-6853347Y15859176D01*
X-6990824Y15996653D01*
X-7152480Y16104668D01*
X-7332103Y16179070D01*
X-7522789Y16217000D01*
X-7717211Y16217000D01*
X-7907897Y16179070D01*
X-8087520Y16104668D01*
X-8249176Y15996653D01*
X-8386653Y15859176D01*
X-8494668Y15697520D01*
X-8569070Y15517897D01*
X-8607000Y15327211D01*
X-8607000Y15132789D01*
X-8569070Y14942103D01*
X-8494668Y14762480D01*
X-8386653Y14600824D01*
X-8249176Y14463347D01*
X-8087520Y14355332D01*
X-7907897Y14280930D01*
X-7717211Y14243000D01*
X-7522789Y14243000D01*
X-7332103Y14280930D01*
X-7239583Y14319253D01*
X-6844999Y13924669D01*
X-6844999Y13306683D01*
X-6853347Y13319176D01*
X-6990824Y13456653D01*
X-7152480Y13564668D01*
X-7332103Y13639070D01*
X-7522789Y13677000D01*
X-7717211Y13677000D01*
X-7907897Y13639070D01*
X-8087520Y13564668D01*
X-8249176Y13456653D01*
X-8386653Y13319176D01*
X-8494668Y13157520D01*
X-8569070Y12977897D01*
X-8607000Y12787211D01*
X-8607000Y12592789D01*
X-8569070Y12402103D01*
X-8494668Y12222480D01*
X-8386653Y12060824D01*
X-8249176Y11923347D01*
X-8087520Y11815332D01*
X-7907897Y11740930D01*
X-7717211Y11703000D01*
X-7522789Y11703000D01*
X-7332103Y11740930D01*
X-7152480Y11815332D01*
X-6990824Y11923347D01*
X-6853347Y12060824D01*
X-6844999Y12073317D01*
X-6845000Y10766683D01*
X-6853347Y10779176D01*
X-6990824Y10916653D01*
X-7152480Y11024668D01*
X-7332103Y11099070D01*
X-7522789Y11137000D01*
X-7717211Y11137000D01*
X-7907897Y11099070D01*
X-8087520Y11024668D01*
X-8249176Y10916653D01*
X-8386653Y10779176D01*
X-8494668Y10617520D01*
X-8569070Y10437897D01*
X-8607000Y10247211D01*
X-8607000Y10052789D01*
X-8569070Y9862103D01*
X-8494668Y9682480D01*
X-8386653Y9520824D01*
X-8249176Y9383347D01*
X-8087520Y9275332D01*
X-7907897Y9200930D01*
X-7717211Y9163000D01*
X-7522789Y9163000D01*
X-7493157Y9168894D01*
X-6774999Y8450735D01*
X-6774999Y8131002D01*
X-6816963Y8159893D01*
X-7366856Y7610000D01*
X-6816963Y7060107D01*
X-6774999Y7088998D01*
X-6775000Y5591002D01*
X-6816963Y5619893D01*
X-7366856Y5070000D01*
X-6816963Y4520107D01*
X-6775000Y4548997D01*
X-6775000Y3041921D01*
X-6853347Y3159176D01*
X-6990824Y3296653D01*
X-7152480Y3404668D01*
X-7332103Y3479070D01*
X-7522789Y3517000D01*
X-7717211Y3517000D01*
X-7907897Y3479070D01*
X-8087520Y3404668D01*
X-8249176Y3296653D01*
X-8386653Y3159176D01*
X-8494668Y2997520D01*
X-8569070Y2817897D01*
X-8607000Y2627211D01*
X-8607000Y2432789D01*
X-8569070Y2242103D01*
X-8494668Y2062480D01*
X-8386653Y1900824D01*
X-8249176Y1763347D01*
X-8087520Y1655332D01*
X-7907897Y1580930D01*
X-7717211Y1543000D01*
X-7522789Y1543000D01*
X-7332103Y1580930D01*
X-7224687Y1625423D01*
X-6849999Y1250735D01*
X-6849999Y614166D01*
X-6853347Y619176D01*
X-6990824Y756653D01*
X-7152480Y864668D01*
X-7332103Y939070D01*
X-7522789Y977000D01*
X-7717211Y977000D01*
X-7907897Y939070D01*
X-8087520Y864668D01*
X-8249176Y756653D01*
X-8386653Y619176D01*
X-8494668Y457520D01*
X-8569070Y277897D01*
X-8607000Y87211D01*
X-8607000Y-107211D01*
X-8569070Y-297897D01*
X-8494668Y-477520D01*
X-8386653Y-639176D01*
X-8249176Y-776653D01*
X-8087520Y-884668D01*
X-7907897Y-959070D01*
X-7717211Y-997000D01*
X-7522789Y-997000D01*
X-7332103Y-959070D01*
X-7152480Y-884668D01*
X-7039852Y-809412D01*
X-6859999Y-989265D01*
X-6859999Y-1914172D01*
X-6990824Y-1783347D01*
X-7152480Y-1675332D01*
X-7332103Y-1600930D01*
X-7522789Y-1563000D01*
X-7717211Y-1563000D01*
X-7907897Y-1600930D01*
X-8087520Y-1675332D01*
X-8249176Y-1783347D01*
X-8386653Y-1920824D01*
X-8494668Y-2082480D01*
X-8569070Y-2262103D01*
X-8607000Y-2452789D01*
X-8607000Y-2647211D01*
X-8569070Y-2837897D01*
X-8494668Y-3017520D01*
X-8386653Y-3179176D01*
X-8249176Y-3316653D01*
X-8087520Y-3424668D01*
X-7907897Y-3499070D01*
X-7717211Y-3537000D01*
X-7522789Y-3537000D01*
X-7332103Y-3499070D01*
X-7164583Y-3429681D01*
X-7149999Y-3444265D01*
X-7150000Y-4216989D01*
X-7152480Y-4215332D01*
X-7332103Y-4140930D01*
X-7522789Y-4103000D01*
X-7717211Y-4103000D01*
X-7907897Y-4140930D01*
X-8087520Y-4215332D01*
X-8249176Y-4323347D01*
X-8386653Y-4460824D01*
X-8494668Y-4622480D01*
X-8569070Y-4802103D01*
X-8607000Y-4992789D01*
X-8607000Y-5187211D01*
X-8569070Y-5377897D01*
X-8494668Y-5557520D01*
X-8386653Y-5719176D01*
X-8249176Y-5856653D01*
X-8087520Y-5964668D01*
X-7907897Y-6039070D01*
X-7717211Y-6077000D01*
X-7522789Y-6077000D01*
X-7332103Y-6039070D01*
X-7152480Y-5964668D01*
X-6990824Y-5856653D01*
X-6853347Y-5719176D01*
X-6745332Y-5557520D01*
X-6678014Y-5395000D01*
X-6554263Y-5395000D01*
X-5274264Y-6675000D01*
X-6950270Y-6675000D01*
X-6965000Y-6673549D01*
X-6979730Y-6675000D01*
X-6979733Y-6675000D01*
X-7023810Y-6679341D01*
X-7080360Y-6696496D01*
X-7093471Y-6703504D01*
X-7132478Y-6724353D01*
X-7153308Y-6741448D01*
X-7164273Y-6750447D01*
X-7332103Y-6680930D01*
X-7522789Y-6643000D01*
X-7717211Y-6643000D01*
X-7907897Y-6680930D01*
X-8087520Y-6755332D01*
X-8249176Y-6863347D01*
X-8386653Y-7000824D01*
X-8494668Y-7162480D01*
X-8569070Y-7342103D01*
X-8607000Y-7532789D01*
X-8607000Y-7727211D01*
X-8569070Y-7917897D01*
X-8494668Y-8097520D01*
X-8386653Y-8259176D01*
X-8249176Y-8396653D01*
X-8087520Y-8504668D01*
X-7907897Y-8579070D01*
X-7717211Y-8617000D01*
X-7522789Y-8617000D01*
X-7332103Y-8579070D01*
X-7152480Y-8504668D01*
X-6990824Y-8396653D01*
X-6853347Y-8259176D01*
X-6745332Y-8097520D01*
X-6670930Y-7917897D01*
X-6633000Y-7727211D01*
X-6633000Y-7532789D01*
X-6670930Y-7342103D01*
X-6698725Y-7275000D01*
X-6376751Y-7275000D01*
X-6438956Y-7337205D01*
X-6490939Y-7415003D01*
X-6526746Y-7501448D01*
X-6545000Y-7593217D01*
X-6545000Y-7686783D01*
X-6526746Y-7778552D01*
X-6490939Y-7864997D01*
X-6438956Y-7942795D01*
X-6372795Y-8008956D01*
X-6294997Y-8060939D01*
X-6208552Y-8096746D01*
X-6116783Y-8115000D01*
X-6023217Y-8115000D01*
X-6019920Y-8114344D01*
X-5882549Y-8251715D01*
X-5873158Y-8263158D01*
X-5861715Y-8272549D01*
X-5861714Y-8272550D01*
X-5827478Y-8300647D01*
X-5790037Y-8320659D01*
X-5775360Y-8328504D01*
X-5718810Y-8345659D01*
X-5674733Y-8350000D01*
X-5674730Y-8350000D01*
X-5660000Y-8351451D01*
X-5645270Y-8350000D01*
X-3849263Y-8350000D01*
X-4173787Y-8674524D01*
X-4180000Y-8673912D01*
X-5180000Y-8673912D01*
X-5224108Y-8678256D01*
X-5266520Y-8691122D01*
X-5305608Y-8712015D01*
X-5339868Y-8740132D01*
X-5367985Y-8774392D01*
X-5388878Y-8813480D01*
X-5401744Y-8855892D01*
X-5406088Y-8900000D01*
X-5406088Y-9900000D01*
X-5401744Y-9944108D01*
X-5388878Y-9986520D01*
X-5367985Y-10025608D01*
X-5339868Y-10059868D01*
X-5305608Y-10087985D01*
X-5266520Y-10108878D01*
X-5224108Y-10121744D01*
X-5180000Y-10126088D01*
X-4180000Y-10126088D01*
X-4135892Y-10121744D01*
X-4093480Y-10108878D01*
X-4054392Y-10087985D01*
X-4020132Y-10059868D01*
X-3992015Y-10025608D01*
X-3971122Y-9986520D01*
X-3958256Y-9944108D01*
X-3953912Y-9900000D01*
X-3953912Y-9303175D01*
X-3896088Y-9245351D01*
X-3896088Y-9900000D01*
X-3891744Y-9944108D01*
X-3878878Y-9986520D01*
X-3857985Y-10025608D01*
X-3829868Y-10059868D01*
X-3795608Y-10087985D01*
X-3756520Y-10108878D01*
X-3714108Y-10121744D01*
X-3670000Y-10126088D01*
X-3309536Y-10126088D01*
X-3364997Y-10149061D01*
X-3442795Y-10201044D01*
X-3508956Y-10267205D01*
X-3560939Y-10345003D01*
X-3596746Y-10431448D01*
X-3615000Y-10523217D01*
X-3615000Y-10616783D01*
X-3596746Y-10708552D01*
X-3579578Y-10750000D01*
X-6085270Y-10750000D01*
X-6100000Y-10748549D01*
X-6114730Y-10750000D01*
X-6114733Y-10750000D01*
X-6158810Y-10754341D01*
X-6215360Y-10771496D01*
X-6267478Y-10799353D01*
X-6298725Y-10824997D01*
X-6313158Y-10836842D01*
X-6322549Y-10848285D01*
X-6799264Y-11325000D01*
X-8770000Y-11325000D01*
X-8770000Y-10072789D01*
X-8607000Y-10072789D01*
X-8607000Y-10267211D01*
X-8569070Y-10457897D01*
X-8494668Y-10637520D01*
X-8386653Y-10799176D01*
X-8249176Y-10936653D01*
X-8087520Y-11044668D01*
X-7907897Y-11119070D01*
X-7717211Y-11157000D01*
X-7522789Y-11157000D01*
X-7332103Y-11119070D01*
X-7152480Y-11044668D01*
X-6990824Y-10936653D01*
X-6853347Y-10799176D01*
X-6745332Y-10637520D01*
X-6670930Y-10457897D01*
X-6633000Y-10267211D01*
X-6633000Y-10072789D01*
X-6670930Y-9882103D01*
X-6745332Y-9702480D01*
X-6853347Y-9540824D01*
X-6990824Y-9403347D01*
X-7152480Y-9295332D01*
X-7332103Y-9220930D01*
X-7522789Y-9183000D01*
X-7717211Y-9183000D01*
X-7907897Y-9220930D01*
X-8087520Y-9295332D01*
X-8249176Y-9403347D01*
X-8386653Y-9540824D01*
X-8494668Y-9702480D01*
X-8569070Y-9882103D01*
X-8607000Y-10072789D01*
X-8770000Y-10072789D01*
X-8770000Y-2076364D01*
X-8766441Y-2064632D01*
X-8765000Y-2050000D01*
X-8765000Y2050000D01*
X-8766441Y2064632D01*
X-8770000Y2076364D01*
X-8770000Y4266963D01*
X-8169893Y4266963D01*
X-8078564Y4134308D01*
X-7887208Y4062825D01*
X-7685583Y4030047D01*
X-7481438Y4037235D01*
X-7282618Y4084112D01*
X-7161436Y4134308D01*
X-7070107Y4266963D01*
X-7620000Y4816856D01*
X-8169893Y4266963D01*
X-8770000Y4266963D01*
X-8770000Y5135583D01*
X-8659953Y5135583D01*
X-8652765Y4931438D01*
X-8605888Y4732618D01*
X-8555692Y4611436D01*
X-8423037Y4520107D01*
X-7873144Y5070000D01*
X-8423037Y5619893D01*
X-8555692Y5528564D01*
X-8627175Y5337208D01*
X-8659953Y5135583D01*
X-8770000Y5135583D01*
X-8770000Y5873037D01*
X-8169893Y5873037D01*
X-7620000Y5323144D01*
X-7070107Y5873037D01*
X-7161436Y6005692D01*
X-7352792Y6077175D01*
X-7554417Y6109953D01*
X-7758562Y6102765D01*
X-7957382Y6055888D01*
X-8078564Y6005692D01*
X-8169893Y5873037D01*
X-8770000Y5873037D01*
X-8770000Y6806963D01*
X-8169893Y6806963D01*
X-8078564Y6674308D01*
X-7887208Y6602825D01*
X-7685583Y6570047D01*
X-7481438Y6577235D01*
X-7282618Y6624112D01*
X-7161436Y6674308D01*
X-7070107Y6806963D01*
X-7620000Y7356856D01*
X-8169893Y6806963D01*
X-8770000Y6806963D01*
X-8770000Y7675583D01*
X-8659953Y7675583D01*
X-8652765Y7471438D01*
X-8605888Y7272618D01*
X-8555692Y7151436D01*
X-8423037Y7060107D01*
X-7873144Y7610000D01*
X-8423037Y8159893D01*
X-8555692Y8068564D01*
X-8627175Y7877208D01*
X-8659953Y7675583D01*
X-8770000Y7675583D01*
X-8770000Y8413037D01*
X-8169893Y8413037D01*
X-7620000Y7863144D01*
X-7070107Y8413037D01*
X-7161436Y8545692D01*
X-7352792Y8617175D01*
X-7554417Y8649953D01*
X-7758562Y8642765D01*
X-7957382Y8595888D01*
X-8078564Y8545692D01*
X-8169893Y8413037D01*
X-8770000Y8413037D01*
X-8770000Y15237771D01*
X-8746922Y15473137D01*
X-8682119Y15687775D01*
X-8576860Y15885739D01*
X-8435156Y16059485D01*
X-8262402Y16202399D01*
X-8065181Y16309036D01*
X-7850994Y16375338D01*
X-7616352Y16400000D01*
X-6162624Y16400000D01*
X-6180731Y16377936D01*
G37*
%TD.AperFunction*%
D20*
X169061Y-7175003D02*
X133254Y-7261448D01*
X122000Y-7318027D01*
X106783Y-7315000D01*
X13217Y-7315000D01*
X-78552Y-7333254D01*
X-164997Y-7369061D01*
X-242795Y-7421044D01*
X-308956Y-7487205D01*
X-360939Y-7565003D01*
X-396746Y-7651448D01*
X-415000Y-7743217D01*
X-415000Y-7836783D01*
X-396746Y-7928552D01*
X-360939Y-8014997D01*
X-308956Y-8092795D01*
X-242795Y-8158956D01*
X-164997Y-8210939D01*
X-78552Y-8246746D01*
X13217Y-8265000D01*
X106783Y-8265000D01*
X110081Y-8264344D01*
X1022451Y-9176715D01*
X1031842Y-9188158D01*
X1043285Y-9197549D01*
X1077522Y-9225647D01*
X1105379Y-9240536D01*
X1129640Y-9253504D01*
X1186190Y-9270659D01*
X1230267Y-9275000D01*
X1230276Y-9275000D01*
X1244999Y-9276450D01*
X1259722Y-9275000D01*
X2535277Y-9275000D01*
X2550000Y-9276450D01*
X2564723Y-9275000D01*
X2564733Y-9275000D01*
X2608810Y-9270659D01*
X2665360Y-9253504D01*
X2717477Y-9225647D01*
X2763158Y-9188158D01*
X2772553Y-9176710D01*
X3624264Y-8325000D01*
X4950737Y-8325000D01*
X6000001Y-9374265D01*
X6000000Y-10960277D01*
X5998550Y-10975000D01*
X6000000Y-10989723D01*
X6000000Y-10989732D01*
X6004341Y-11033809D01*
X6021496Y-11090359D01*
X6021497Y-11090360D01*
X6049353Y-11142477D01*
X6056718Y-11151451D01*
X6086842Y-11188158D01*
X6098290Y-11197553D01*
X6225736Y-11325000D01*
X-1225737Y-11325000D01*
X-975736Y-11075000D01*
X-903217Y-11075000D01*
X-811448Y-11056746D01*
X-725003Y-11020939D01*
X-647205Y-10968956D01*
X-581044Y-10902795D01*
X-529061Y-10824997D01*
X-493254Y-10738552D01*
X-475000Y-10646783D01*
X-475000Y-10553217D01*
X-493254Y-10461448D01*
X-529061Y-10375003D01*
X-581044Y-10297205D01*
X-647205Y-10231044D01*
X-725003Y-10179061D01*
X-811448Y-10143254D01*
X-903217Y-10125000D01*
X-996783Y-10125000D01*
X-1088552Y-10143254D01*
X-1174997Y-10179061D01*
X-1175000Y-10179063D01*
X-1175000Y-9070824D01*
X-1172205Y-9068956D01*
X-1106044Y-9002795D01*
X-1054061Y-8924997D01*
X-1018254Y-8838552D01*
X-1000000Y-8746783D01*
X-1000000Y-8653217D01*
X-1018254Y-8561448D01*
X-1054061Y-8475003D01*
X-1106044Y-8397205D01*
X-1172205Y-8331044D01*
X-1250003Y-8279061D01*
X-1336448Y-8243254D01*
X-1428217Y-8225000D01*
X-1521783Y-8225000D01*
X-1613552Y-8243254D01*
X-1699997Y-8279061D01*
X-1777795Y-8331044D01*
X-1843956Y-8397205D01*
X-1847455Y-8402441D01*
X-1891044Y-8337205D01*
X-1957205Y-8271044D01*
X-2035003Y-8219061D01*
X-2121448Y-8183254D01*
X-2213217Y-8165000D01*
X-2306783Y-8165000D01*
X-2398552Y-8183254D01*
X-2484997Y-8219061D01*
X-2562795Y-8271044D01*
X-2628956Y-8337205D01*
X-2680939Y-8415003D01*
X-2716746Y-8501448D01*
X-2735000Y-8593217D01*
X-2735000Y-8673912D01*
X-3324648Y-8673912D01*
X-2769615Y-8118879D01*
X-2738552Y-8131746D01*
X-2646783Y-8150000D01*
X-2553217Y-8150000D01*
X-2461448Y-8131746D01*
X-2375003Y-8095939D01*
X-2297205Y-8043956D01*
X-2231044Y-7977795D01*
X-2179061Y-7899997D01*
X-2143254Y-7813552D01*
X-2125000Y-7721783D01*
X-2125000Y-7628217D01*
X-2143254Y-7536448D01*
X-2179061Y-7450003D01*
X-2231044Y-7372205D01*
X-2297205Y-7306044D01*
X-2375003Y-7254061D01*
X-2431426Y-7230690D01*
X-2350736Y-7150000D01*
X185767Y-7150000D01*
X169061Y-7175003D01*
%TA.AperFunction,Conductor*%
D23*
G36*
X169061Y-7175003D02*
G01*
X133254Y-7261448D01*
X122000Y-7318027D01*
X106783Y-7315000D01*
X13217Y-7315000D01*
X-78552Y-7333254D01*
X-164997Y-7369061D01*
X-242795Y-7421044D01*
X-308956Y-7487205D01*
X-360939Y-7565003D01*
X-396746Y-7651448D01*
X-415000Y-7743217D01*
X-415000Y-7836783D01*
X-396746Y-7928552D01*
X-360939Y-8014997D01*
X-308956Y-8092795D01*
X-242795Y-8158956D01*
X-164997Y-8210939D01*
X-78552Y-8246746D01*
X13217Y-8265000D01*
X106783Y-8265000D01*
X110081Y-8264344D01*
X1022451Y-9176715D01*
X1031842Y-9188158D01*
X1043285Y-9197549D01*
X1077522Y-9225647D01*
X1105379Y-9240536D01*
X1129640Y-9253504D01*
X1186190Y-9270659D01*
X1230267Y-9275000D01*
X1230276Y-9275000D01*
X1244999Y-9276450D01*
X1259722Y-9275000D01*
X2535277Y-9275000D01*
X2550000Y-9276450D01*
X2564723Y-9275000D01*
X2564733Y-9275000D01*
X2608810Y-9270659D01*
X2665360Y-9253504D01*
X2717477Y-9225647D01*
X2763158Y-9188158D01*
X2772553Y-9176710D01*
X3624264Y-8325000D01*
X4950737Y-8325000D01*
X6000001Y-9374265D01*
X6000000Y-10960277D01*
X5998550Y-10975000D01*
X6000000Y-10989723D01*
X6000000Y-10989732D01*
X6004341Y-11033809D01*
X6021496Y-11090359D01*
X6021497Y-11090360D01*
X6049353Y-11142477D01*
X6056718Y-11151451D01*
X6086842Y-11188158D01*
X6098290Y-11197553D01*
X6225736Y-11325000D01*
X-1225737Y-11325000D01*
X-975736Y-11075000D01*
X-903217Y-11075000D01*
X-811448Y-11056746D01*
X-725003Y-11020939D01*
X-647205Y-10968956D01*
X-581044Y-10902795D01*
X-529061Y-10824997D01*
X-493254Y-10738552D01*
X-475000Y-10646783D01*
X-475000Y-10553217D01*
X-493254Y-10461448D01*
X-529061Y-10375003D01*
X-581044Y-10297205D01*
X-647205Y-10231044D01*
X-725003Y-10179061D01*
X-811448Y-10143254D01*
X-903217Y-10125000D01*
X-996783Y-10125000D01*
X-1088552Y-10143254D01*
X-1174997Y-10179061D01*
X-1175000Y-10179063D01*
X-1175000Y-9070824D01*
X-1172205Y-9068956D01*
X-1106044Y-9002795D01*
X-1054061Y-8924997D01*
X-1018254Y-8838552D01*
X-1000000Y-8746783D01*
X-1000000Y-8653217D01*
X-1018254Y-8561448D01*
X-1054061Y-8475003D01*
X-1106044Y-8397205D01*
X-1172205Y-8331044D01*
X-1250003Y-8279061D01*
X-1336448Y-8243254D01*
X-1428217Y-8225000D01*
X-1521783Y-8225000D01*
X-1613552Y-8243254D01*
X-1699997Y-8279061D01*
X-1777795Y-8331044D01*
X-1843956Y-8397205D01*
X-1847455Y-8402441D01*
X-1891044Y-8337205D01*
X-1957205Y-8271044D01*
X-2035003Y-8219061D01*
X-2121448Y-8183254D01*
X-2213217Y-8165000D01*
X-2306783Y-8165000D01*
X-2398552Y-8183254D01*
X-2484997Y-8219061D01*
X-2562795Y-8271044D01*
X-2628956Y-8337205D01*
X-2680939Y-8415003D01*
X-2716746Y-8501448D01*
X-2735000Y-8593217D01*
X-2735000Y-8673912D01*
X-3324648Y-8673912D01*
X-2769615Y-8118879D01*
X-2738552Y-8131746D01*
X-2646783Y-8150000D01*
X-2553217Y-8150000D01*
X-2461448Y-8131746D01*
X-2375003Y-8095939D01*
X-2297205Y-8043956D01*
X-2231044Y-7977795D01*
X-2179061Y-7899997D01*
X-2143254Y-7813552D01*
X-2125000Y-7721783D01*
X-2125000Y-7628217D01*
X-2143254Y-7536448D01*
X-2179061Y-7450003D01*
X-2231044Y-7372205D01*
X-2297205Y-7306044D01*
X-2375003Y-7254061D01*
X-2431426Y-7230690D01*
X-2350736Y-7150000D01*
X185767Y-7150000D01*
X169061Y-7175003D01*
G37*
%TD.AperFunction*%
D20*
X-1843956Y-9002795D02*
X-1777795Y-9068956D01*
X-1775000Y-9070824D01*
X-1774999Y-10550735D01*
X-1974263Y-10750000D01*
X-2700422Y-10750000D01*
X-2683254Y-10708552D01*
X-2665000Y-10616783D01*
X-2665000Y-10523217D01*
X-2683254Y-10431448D01*
X-2719061Y-10345003D01*
X-2771044Y-10267205D01*
X-2837205Y-10201044D01*
X-2915003Y-10149061D01*
X-2970464Y-10126088D01*
X-2670000Y-10126088D01*
X-2625892Y-10121744D01*
X-2583480Y-10108878D01*
X-2544392Y-10087985D01*
X-2510132Y-10059868D01*
X-2482015Y-10025608D01*
X-2461122Y-9986520D01*
X-2448256Y-9944108D01*
X-2443912Y-9900000D01*
X-2443912Y-9248175D01*
X-2310080Y-9114344D01*
X-2306783Y-9115000D01*
X-2213217Y-9115000D01*
X-2121448Y-9096746D01*
X-2035003Y-9060939D01*
X-1957205Y-9008956D01*
X-1891044Y-8942795D01*
X-1887545Y-8937559D01*
X-1843956Y-9002795D01*
%TA.AperFunction,Conductor*%
D23*
G36*
X-1843956Y-9002795D02*
G01*
X-1777795Y-9068956D01*
X-1775000Y-9070824D01*
X-1774999Y-10550735D01*
X-1974263Y-10750000D01*
X-2700422Y-10750000D01*
X-2683254Y-10708552D01*
X-2665000Y-10616783D01*
X-2665000Y-10523217D01*
X-2683254Y-10431448D01*
X-2719061Y-10345003D01*
X-2771044Y-10267205D01*
X-2837205Y-10201044D01*
X-2915003Y-10149061D01*
X-2970464Y-10126088D01*
X-2670000Y-10126088D01*
X-2625892Y-10121744D01*
X-2583480Y-10108878D01*
X-2544392Y-10087985D01*
X-2510132Y-10059868D01*
X-2482015Y-10025608D01*
X-2461122Y-9986520D01*
X-2448256Y-9944108D01*
X-2443912Y-9900000D01*
X-2443912Y-9248175D01*
X-2310080Y-9114344D01*
X-2306783Y-9115000D01*
X-2213217Y-9115000D01*
X-2121448Y-9096746D01*
X-2035003Y-9060939D01*
X-1957205Y-9008956D01*
X-1891044Y-8942795D01*
X-1887545Y-8937559D01*
X-1843956Y-9002795D01*
G37*
%TD.AperFunction*%
D20*
X-2347549Y-5801715D02*
X-2338158Y-5813158D01*
X-2326715Y-5822549D01*
X-2292478Y-5850647D01*
X-2281241Y-5856653D01*
X-2240360Y-5878504D01*
X-2183810Y-5895659D01*
X-2139733Y-5900000D01*
X-2139723Y-5900000D01*
X-2125000Y-5901450D01*
X-2110277Y-5900000D01*
X2010277Y-5900000D01*
X2025000Y-5901450D01*
X2039723Y-5900000D01*
X2039733Y-5900000D01*
X2083810Y-5895659D01*
X2140360Y-5878504D01*
X2192477Y-5850647D01*
X2238158Y-5813158D01*
X2247552Y-5801711D01*
X2275001Y-5774262D01*
X2275001Y-6125735D01*
X2023290Y-6377447D01*
X2011842Y-6386842D01*
X1998131Y-6403550D01*
X1974353Y-6432523D01*
X1965648Y-6448810D01*
X1946496Y-6484641D01*
X1929341Y-6541191D01*
X1928473Y-6550000D01*
X-2460278Y-6550000D01*
X-2475001Y-6548550D01*
X-2489724Y-6550000D01*
X-2489733Y-6550000D01*
X-2533810Y-6554341D01*
X-2590360Y-6571496D01*
X-2605037Y-6579341D01*
X-2642478Y-6599353D01*
X-2672940Y-6624353D01*
X-2688158Y-6636842D01*
X-2697549Y-6648285D01*
X-3480690Y-7431426D01*
X-3504061Y-7375003D01*
X-3556044Y-7297205D01*
X-3622205Y-7231044D01*
X-3700003Y-7179061D01*
X-3734778Y-7164657D01*
X-3703254Y-7088552D01*
X-3685000Y-6996783D01*
X-3685000Y-6903217D01*
X-3694528Y-6855315D01*
X-3651448Y-6846746D01*
X-3565003Y-6810939D01*
X-3487205Y-6758956D01*
X-3421044Y-6692795D01*
X-3369061Y-6614997D01*
X-3333254Y-6528552D01*
X-3315000Y-6436783D01*
X-3315000Y-6343217D01*
X-3333254Y-6251448D01*
X-3369061Y-6165003D01*
X-3421044Y-6087205D01*
X-3487205Y-6021044D01*
X-3565003Y-5969061D01*
X-3651448Y-5933254D01*
X-3743217Y-5915000D01*
X-3835000Y-5915000D01*
X-3835000Y-5885000D01*
X-3753217Y-5885000D01*
X-3661448Y-5866746D01*
X-3575003Y-5830939D01*
X-3497205Y-5778956D01*
X-3431044Y-5712795D01*
X-3379061Y-5634997D01*
X-3343254Y-5548552D01*
X-3325000Y-5456783D01*
X-3325000Y-5363217D01*
X-3343254Y-5271448D01*
X-3379061Y-5185003D01*
X-3431044Y-5107205D01*
X-3497205Y-5041044D01*
X-3575003Y-4989061D01*
X-3661448Y-4953254D01*
X-3753217Y-4935000D01*
X-3846783Y-4935000D01*
X-3938552Y-4953254D01*
X-4022889Y-4988188D01*
X-4049061Y-4925003D01*
X-4101044Y-4847205D01*
X-4148249Y-4800000D01*
X-3349263Y-4800000D01*
X-2347549Y-5801715D01*
%TA.AperFunction,Conductor*%
D23*
G36*
X-2347549Y-5801715D02*
G01*
X-2338158Y-5813158D01*
X-2326715Y-5822549D01*
X-2292478Y-5850647D01*
X-2281241Y-5856653D01*
X-2240360Y-5878504D01*
X-2183810Y-5895659D01*
X-2139733Y-5900000D01*
X-2139723Y-5900000D01*
X-2125000Y-5901450D01*
X-2110277Y-5900000D01*
X2010277Y-5900000D01*
X2025000Y-5901450D01*
X2039723Y-5900000D01*
X2039733Y-5900000D01*
X2083810Y-5895659D01*
X2140360Y-5878504D01*
X2192477Y-5850647D01*
X2238158Y-5813158D01*
X2247552Y-5801711D01*
X2275001Y-5774262D01*
X2275001Y-6125735D01*
X2023290Y-6377447D01*
X2011842Y-6386842D01*
X1998131Y-6403550D01*
X1974353Y-6432523D01*
X1965648Y-6448810D01*
X1946496Y-6484641D01*
X1929341Y-6541191D01*
X1928473Y-6550000D01*
X-2460278Y-6550000D01*
X-2475001Y-6548550D01*
X-2489724Y-6550000D01*
X-2489733Y-6550000D01*
X-2533810Y-6554341D01*
X-2590360Y-6571496D01*
X-2605037Y-6579341D01*
X-2642478Y-6599353D01*
X-2672940Y-6624353D01*
X-2688158Y-6636842D01*
X-2697549Y-6648285D01*
X-3480690Y-7431426D01*
X-3504061Y-7375003D01*
X-3556044Y-7297205D01*
X-3622205Y-7231044D01*
X-3700003Y-7179061D01*
X-3734778Y-7164657D01*
X-3703254Y-7088552D01*
X-3685000Y-6996783D01*
X-3685000Y-6903217D01*
X-3694528Y-6855315D01*
X-3651448Y-6846746D01*
X-3565003Y-6810939D01*
X-3487205Y-6758956D01*
X-3421044Y-6692795D01*
X-3369061Y-6614997D01*
X-3333254Y-6528552D01*
X-3315000Y-6436783D01*
X-3315000Y-6343217D01*
X-3333254Y-6251448D01*
X-3369061Y-6165003D01*
X-3421044Y-6087205D01*
X-3487205Y-6021044D01*
X-3565003Y-5969061D01*
X-3651448Y-5933254D01*
X-3743217Y-5915000D01*
X-3835000Y-5915000D01*
X-3835000Y-5885000D01*
X-3753217Y-5885000D01*
X-3661448Y-5866746D01*
X-3575003Y-5830939D01*
X-3497205Y-5778956D01*
X-3431044Y-5712795D01*
X-3379061Y-5634997D01*
X-3343254Y-5548552D01*
X-3325000Y-5456783D01*
X-3325000Y-5363217D01*
X-3343254Y-5271448D01*
X-3379061Y-5185003D01*
X-3431044Y-5107205D01*
X-3497205Y-5041044D01*
X-3575003Y-4989061D01*
X-3661448Y-4953254D01*
X-3753217Y-4935000D01*
X-3846783Y-4935000D01*
X-3938552Y-4953254D01*
X-4022889Y-4988188D01*
X-4049061Y-4925003D01*
X-4101044Y-4847205D01*
X-4148249Y-4800000D01*
X-3349263Y-4800000D01*
X-2347549Y-5801715D01*
G37*
%TD.AperFunction*%
D20*
X-393956Y-1377795D02*
X-327795Y-1443956D01*
X-249997Y-1495939D01*
X-163552Y-1531746D01*
X-71783Y-1550000D01*
X21783Y-1550000D01*
X101616Y-1534120D01*
X-902900Y-2538637D01*
X-918254Y-2461448D01*
X-954061Y-2375003D01*
X-1006044Y-2297205D01*
X-1072205Y-2231044D01*
X-1150003Y-2179061D01*
X-1236448Y-2143254D01*
X-1328217Y-2125000D01*
X-1421783Y-2125000D01*
X-1513552Y-2143254D01*
X-1599997Y-2179061D01*
X-1677795Y-2231044D01*
X-1743956Y-2297205D01*
X-1795939Y-2375003D01*
X-1831746Y-2461448D01*
X-1850000Y-2553217D01*
X-1850000Y-2646783D01*
X-1847371Y-2660000D01*
X-4465270Y-2660000D01*
X-4480000Y-2658549D01*
X-4494730Y-2660000D01*
X-4494733Y-2660000D01*
X-4538810Y-2664341D01*
X-4582199Y-2677503D01*
X-4595361Y-2681496D01*
X-4647478Y-2709353D01*
X-4681715Y-2737450D01*
X-4681721Y-2737456D01*
X-4693158Y-2746842D01*
X-4702544Y-2758279D01*
X-4999920Y-3055656D01*
X-5003217Y-3055000D01*
X-5096783Y-3055000D01*
X-5188552Y-3073254D01*
X-5274997Y-3109061D01*
X-5352795Y-3161044D01*
X-5418956Y-3227205D01*
X-5470939Y-3305003D01*
X-5506746Y-3391448D01*
X-5525000Y-3483217D01*
X-5525000Y-3576783D01*
X-5506746Y-3668552D01*
X-5470939Y-3754997D01*
X-5418956Y-3832795D01*
X-5352795Y-3898956D01*
X-5274997Y-3950939D01*
X-5188552Y-3986746D01*
X-5096783Y-4005000D01*
X-5003217Y-4005000D01*
X-4911448Y-3986746D01*
X-4825003Y-3950939D01*
X-4747205Y-3898956D01*
X-4681044Y-3832795D01*
X-4629061Y-3754997D01*
X-4593254Y-3668552D01*
X-4575000Y-3576783D01*
X-4575000Y-3483217D01*
X-4575656Y-3479920D01*
X-4355735Y-3260000D01*
X-2731751Y-3260000D01*
X-2768956Y-3297205D01*
X-2820939Y-3375003D01*
X-2856746Y-3461448D01*
X-2875000Y-3553217D01*
X-2875000Y-3646783D01*
X-2856746Y-3738552D01*
X-2820939Y-3824997D01*
X-2817596Y-3830000D01*
X-3455736Y-3830000D01*
X-3485656Y-3800080D01*
X-3485000Y-3796783D01*
X-3485000Y-3703217D01*
X-3503254Y-3611448D01*
X-3539061Y-3525003D01*
X-3591044Y-3447205D01*
X-3657205Y-3381044D01*
X-3735003Y-3329061D01*
X-3821448Y-3293254D01*
X-3913217Y-3275000D01*
X-4006783Y-3275000D01*
X-4098552Y-3293254D01*
X-4184997Y-3329061D01*
X-4262795Y-3381044D01*
X-4328956Y-3447205D01*
X-4380939Y-3525003D01*
X-4416746Y-3611448D01*
X-4435000Y-3703217D01*
X-4435000Y-3796783D01*
X-4416746Y-3888552D01*
X-4380939Y-3974997D01*
X-4328956Y-4052795D01*
X-4262795Y-4118956D01*
X-4184997Y-4170939D01*
X-4114838Y-4200000D01*
X-4429176Y-4200000D01*
X-4431044Y-4197205D01*
X-4497205Y-4131044D01*
X-4575003Y-4079061D01*
X-4661448Y-4043254D01*
X-4753217Y-4025000D01*
X-4846783Y-4025000D01*
X-4938552Y-4043254D01*
X-5024997Y-4079061D01*
X-5102795Y-4131044D01*
X-5168956Y-4197205D01*
X-5220939Y-4275003D01*
X-5256746Y-4361448D01*
X-5275000Y-4453217D01*
X-5275000Y-4490736D01*
X-5960000Y-3805737D01*
X-5960000Y-2414264D01*
X-5932549Y-2441715D01*
X-5923158Y-2453158D01*
X-5911715Y-2462549D01*
X-5877478Y-2490647D01*
X-5849621Y-2505536D01*
X-5825360Y-2518504D01*
X-5768810Y-2535659D01*
X-5724733Y-2540000D01*
X-5724724Y-2540000D01*
X-5710001Y-2541450D01*
X-5695278Y-2540000D01*
X-2414723Y-2540000D01*
X-2400000Y-2541450D01*
X-2385277Y-2540000D01*
X-2385267Y-2540000D01*
X-2341190Y-2535659D01*
X-2284640Y-2518504D01*
X-2232523Y-2490647D01*
X-2186842Y-2453158D01*
X-2177447Y-2441710D01*
X-1110736Y-1375000D01*
X-395824Y-1375000D01*
X-393956Y-1377795D01*
%TA.AperFunction,Conductor*%
D23*
G36*
X-393956Y-1377795D02*
G01*
X-327795Y-1443956D01*
X-249997Y-1495939D01*
X-163552Y-1531746D01*
X-71783Y-1550000D01*
X21783Y-1550000D01*
X101616Y-1534120D01*
X-902900Y-2538637D01*
X-918254Y-2461448D01*
X-954061Y-2375003D01*
X-1006044Y-2297205D01*
X-1072205Y-2231044D01*
X-1150003Y-2179061D01*
X-1236448Y-2143254D01*
X-1328217Y-2125000D01*
X-1421783Y-2125000D01*
X-1513552Y-2143254D01*
X-1599997Y-2179061D01*
X-1677795Y-2231044D01*
X-1743956Y-2297205D01*
X-1795939Y-2375003D01*
X-1831746Y-2461448D01*
X-1850000Y-2553217D01*
X-1850000Y-2646783D01*
X-1847371Y-2660000D01*
X-4465270Y-2660000D01*
X-4480000Y-2658549D01*
X-4494730Y-2660000D01*
X-4494733Y-2660000D01*
X-4538810Y-2664341D01*
X-4582199Y-2677503D01*
X-4595361Y-2681496D01*
X-4647478Y-2709353D01*
X-4681715Y-2737450D01*
X-4681721Y-2737456D01*
X-4693158Y-2746842D01*
X-4702544Y-2758279D01*
X-4999920Y-3055656D01*
X-5003217Y-3055000D01*
X-5096783Y-3055000D01*
X-5188552Y-3073254D01*
X-5274997Y-3109061D01*
X-5352795Y-3161044D01*
X-5418956Y-3227205D01*
X-5470939Y-3305003D01*
X-5506746Y-3391448D01*
X-5525000Y-3483217D01*
X-5525000Y-3576783D01*
X-5506746Y-3668552D01*
X-5470939Y-3754997D01*
X-5418956Y-3832795D01*
X-5352795Y-3898956D01*
X-5274997Y-3950939D01*
X-5188552Y-3986746D01*
X-5096783Y-4005000D01*
X-5003217Y-4005000D01*
X-4911448Y-3986746D01*
X-4825003Y-3950939D01*
X-4747205Y-3898956D01*
X-4681044Y-3832795D01*
X-4629061Y-3754997D01*
X-4593254Y-3668552D01*
X-4575000Y-3576783D01*
X-4575000Y-3483217D01*
X-4575656Y-3479920D01*
X-4355735Y-3260000D01*
X-2731751Y-3260000D01*
X-2768956Y-3297205D01*
X-2820939Y-3375003D01*
X-2856746Y-3461448D01*
X-2875000Y-3553217D01*
X-2875000Y-3646783D01*
X-2856746Y-3738552D01*
X-2820939Y-3824997D01*
X-2817596Y-3830000D01*
X-3455736Y-3830000D01*
X-3485656Y-3800080D01*
X-3485000Y-3796783D01*
X-3485000Y-3703217D01*
X-3503254Y-3611448D01*
X-3539061Y-3525003D01*
X-3591044Y-3447205D01*
X-3657205Y-3381044D01*
X-3735003Y-3329061D01*
X-3821448Y-3293254D01*
X-3913217Y-3275000D01*
X-4006783Y-3275000D01*
X-4098552Y-3293254D01*
X-4184997Y-3329061D01*
X-4262795Y-3381044D01*
X-4328956Y-3447205D01*
X-4380939Y-3525003D01*
X-4416746Y-3611448D01*
X-4435000Y-3703217D01*
X-4435000Y-3796783D01*
X-4416746Y-3888552D01*
X-4380939Y-3974997D01*
X-4328956Y-4052795D01*
X-4262795Y-4118956D01*
X-4184997Y-4170939D01*
X-4114838Y-4200000D01*
X-4429176Y-4200000D01*
X-4431044Y-4197205D01*
X-4497205Y-4131044D01*
X-4575003Y-4079061D01*
X-4661448Y-4043254D01*
X-4753217Y-4025000D01*
X-4846783Y-4025000D01*
X-4938552Y-4043254D01*
X-5024997Y-4079061D01*
X-5102795Y-4131044D01*
X-5168956Y-4197205D01*
X-5220939Y-4275003D01*
X-5256746Y-4361448D01*
X-5275000Y-4453217D01*
X-5275000Y-4490736D01*
X-5960000Y-3805737D01*
X-5960000Y-2414264D01*
X-5932549Y-2441715D01*
X-5923158Y-2453158D01*
X-5911715Y-2462549D01*
X-5877478Y-2490647D01*
X-5849621Y-2505536D01*
X-5825360Y-2518504D01*
X-5768810Y-2535659D01*
X-5724733Y-2540000D01*
X-5724724Y-2540000D01*
X-5710001Y-2541450D01*
X-5695278Y-2540000D01*
X-2414723Y-2540000D01*
X-2400000Y-2541450D01*
X-2385277Y-2540000D01*
X-2385267Y-2540000D01*
X-2341190Y-2535659D01*
X-2284640Y-2518504D01*
X-2232523Y-2490647D01*
X-2186842Y-2453158D01*
X-2177447Y-2441710D01*
X-1110736Y-1375000D01*
X-395824Y-1375000D01*
X-393956Y-1377795D01*
G37*
%TD.AperFunction*%
D20*
X-930000Y-3995736D02*
X-984263Y-4050000D01*
X-1525736Y-4050000D01*
X-1647447Y-3928290D01*
X-1656842Y-3916842D01*
X-1702523Y-3879353D01*
X-1719376Y-3870345D01*
X-1682523Y-3850647D01*
X-1636842Y-3813158D01*
X-1627447Y-3801710D01*
X-1275736Y-3450000D01*
X-1104723Y-3450000D01*
X-1090000Y-3451450D01*
X-1075277Y-3450000D01*
X-1075267Y-3450000D01*
X-1031190Y-3445659D01*
X-974640Y-3428504D01*
X-929999Y-3404643D01*
X-930000Y-3995736D01*
%TA.AperFunction,Conductor*%
D23*
G36*
X-930000Y-3995736D02*
G01*
X-984263Y-4050000D01*
X-1525736Y-4050000D01*
X-1647447Y-3928290D01*
X-1656842Y-3916842D01*
X-1702523Y-3879353D01*
X-1719376Y-3870345D01*
X-1682523Y-3850647D01*
X-1636842Y-3813158D01*
X-1627447Y-3801710D01*
X-1275736Y-3450000D01*
X-1104723Y-3450000D01*
X-1090000Y-3451450D01*
X-1075277Y-3450000D01*
X-1075267Y-3450000D01*
X-1031190Y-3445659D01*
X-974640Y-3428504D01*
X-929999Y-3404643D01*
X-930000Y-3995736D01*
G37*
%TD.AperFunction*%
D20*
X1588286Y1512549D02*
X1576843Y1503158D01*
X1567452Y1491715D01*
X1567451Y1491714D01*
X1539353Y1457477D01*
X1511497Y1405360D01*
X1494342Y1348810D01*
X1488550Y1290000D01*
X1490001Y1275267D01*
X1490000Y-145736D01*
X1017952Y-617784D01*
X1006746Y-561448D01*
X970939Y-475003D01*
X918956Y-397205D01*
X852795Y-331044D01*
X774997Y-279061D01*
X688552Y-243254D01*
X596783Y-225000D01*
X503217Y-225000D01*
X411448Y-243254D01*
X325003Y-279061D01*
X256250Y-325000D01*
X-1410736Y-325000D01*
X-2059167Y323431D01*
X-2027452Y317122D01*
X-1958191Y247861D01*
X-1946448Y233552D01*
X-1889347Y186691D01*
X-1824200Y151869D01*
X-1753513Y130426D01*
X-1698419Y125000D01*
X-1698416Y125000D01*
X-1680000Y123186D01*
X-1661584Y125000D01*
X-378416Y125000D01*
X-360000Y123186D01*
X-341584Y125000D01*
X-341581Y125000D01*
X-286487Y130426D01*
X-215800Y151869D01*
X-150653Y186691D01*
X-93552Y233552D01*
X-81805Y247866D01*
X1372140Y1701810D01*
X1386448Y1713552D01*
X1433309Y1770653D01*
X1447276Y1796783D01*
X1468130Y1835798D01*
X1468131Y1835801D01*
X1489574Y1906487D01*
X1495000Y1961581D01*
X1495000Y1961583D01*
X1496814Y1979999D01*
X1495000Y1998415D01*
X1495000Y3152427D01*
X1515003Y3139061D01*
X1601448Y3103254D01*
X1693217Y3085000D01*
X1786783Y3085000D01*
X1878552Y3103254D01*
X1964997Y3139061D01*
X2042795Y3191044D01*
X2108956Y3257205D01*
X2110824Y3260000D01*
X3335736Y3260000D01*
X1588286Y1512549D01*
%TA.AperFunction,Conductor*%
D23*
G36*
X1588286Y1512549D02*
G01*
X1576843Y1503158D01*
X1567452Y1491715D01*
X1567451Y1491714D01*
X1539353Y1457477D01*
X1511497Y1405360D01*
X1494342Y1348810D01*
X1488550Y1290000D01*
X1490001Y1275267D01*
X1490000Y-145736D01*
X1017952Y-617784D01*
X1006746Y-561448D01*
X970939Y-475003D01*
X918956Y-397205D01*
X852795Y-331044D01*
X774997Y-279061D01*
X688552Y-243254D01*
X596783Y-225000D01*
X503217Y-225000D01*
X411448Y-243254D01*
X325003Y-279061D01*
X256250Y-325000D01*
X-1410736Y-325000D01*
X-2059167Y323431D01*
X-2027452Y317122D01*
X-1958191Y247861D01*
X-1946448Y233552D01*
X-1889347Y186691D01*
X-1824200Y151869D01*
X-1753513Y130426D01*
X-1698419Y125000D01*
X-1698416Y125000D01*
X-1680000Y123186D01*
X-1661584Y125000D01*
X-378416Y125000D01*
X-360000Y123186D01*
X-341584Y125000D01*
X-341581Y125000D01*
X-286487Y130426D01*
X-215800Y151869D01*
X-150653Y186691D01*
X-93552Y233552D01*
X-81805Y247866D01*
X1372140Y1701810D01*
X1386448Y1713552D01*
X1433309Y1770653D01*
X1447276Y1796783D01*
X1468130Y1835798D01*
X1468131Y1835801D01*
X1489574Y1906487D01*
X1495000Y1961581D01*
X1495000Y1961583D01*
X1496814Y1979999D01*
X1495000Y1998415D01*
X1495000Y3152427D01*
X1515003Y3139061D01*
X1601448Y3103254D01*
X1693217Y3085000D01*
X1786783Y3085000D01*
X1878552Y3103254D01*
X1964997Y3139061D01*
X2042795Y3191044D01*
X2108956Y3257205D01*
X2110824Y3260000D01*
X3335736Y3260000D01*
X1588286Y1512549D01*
G37*
%TD.AperFunction*%
D20*
X-224997Y7049061D02*
X-138552Y7013254D01*
X-46783Y6995000D01*
X46783Y6995000D01*
X138552Y7013254D01*
X224997Y7049061D01*
X226402Y7050000D01*
X745000Y7050000D01*
X745001Y4248419D01*
X745000Y3788420D01*
X743186Y3770000D01*
X745001Y3751571D01*
X745000Y2135330D01*
X-429374Y960955D01*
X-415000Y1033217D01*
X-415000Y1126783D01*
X-433254Y1218552D01*
X-469061Y1304997D01*
X-521044Y1382795D01*
X-587205Y1448956D01*
X-665003Y1500939D01*
X-751448Y1536746D01*
X-843217Y1555000D01*
X-936783Y1555000D01*
X-1028552Y1536746D01*
X-1114997Y1500939D01*
X-1192795Y1448956D01*
X-1258956Y1382795D01*
X-1310939Y1304997D01*
X-1346746Y1218552D01*
X-1365000Y1126783D01*
X-1365000Y1033217D01*
X-1346746Y941448D01*
X-1319222Y875000D01*
X-1502602Y875000D01*
X-1513254Y928552D01*
X-1549061Y1014997D01*
X-1601044Y1092795D01*
X-1667205Y1158956D01*
X-1745003Y1210939D01*
X-1831448Y1246746D01*
X-1923217Y1265000D01*
X-2016783Y1265000D01*
X-2108552Y1246746D01*
X-2194997Y1210939D01*
X-2272795Y1158956D01*
X-2338956Y1092795D01*
X-2390939Y1014997D01*
X-2426746Y928552D01*
X-2445000Y836783D01*
X-2445000Y743217D01*
X-2436569Y700832D01*
X-2650000Y914263D01*
X-2650000Y1379176D01*
X-2647205Y1381044D01*
X-2581044Y1447205D01*
X-2529061Y1525003D01*
X-2493254Y1611448D01*
X-2475000Y1703217D01*
X-2475000Y1796783D01*
X-2493254Y1888552D01*
X-2529061Y1974997D01*
X-2581044Y2052795D01*
X-2647205Y2118956D01*
X-2725003Y2170939D01*
X-2811448Y2206746D01*
X-2903217Y2225000D01*
X-2996783Y2225000D01*
X-3088552Y2206746D01*
X-3135000Y2187506D01*
X-3135000Y3595000D01*
X-2500000Y3595000D01*
X-2485368Y3596441D01*
X-2471299Y3600709D01*
X-2458332Y3607640D01*
X-2446967Y3616967D01*
X-2437640Y3628332D01*
X-2430709Y3641299D01*
X-2426441Y3655368D01*
X-2425000Y3670000D01*
X-2425000Y3750000D01*
X-2076331Y3750000D01*
X-2075000Y3743750D01*
X-2010252Y3679002D01*
X-2075000Y3679002D01*
X-2075000Y3550555D01*
X-2075219Y3549428D01*
X-2075000Y3498987D01*
X-2075000Y3320998D01*
X-2010252Y3320998D01*
X-2075000Y3256250D01*
X-2076331Y3250000D01*
X-2071021Y3196090D01*
X-2055297Y3144253D01*
X-2029761Y3096479D01*
X-1995396Y3054604D01*
X-1953521Y3020239D01*
X-1905747Y2994703D01*
X-1853910Y2978979D01*
X-1800000Y2973669D01*
X-1247750Y2975000D01*
X-1179000Y3043750D01*
X-1179000Y3325000D01*
X-1199000Y3325000D01*
X-1199000Y3396488D01*
X-1126370Y3323858D01*
X-1044516Y3349056D01*
X-1024781Y3450572D01*
X-1025210Y3549428D01*
X-975219Y3549428D01*
X-974770Y3446013D01*
X-955484Y3349056D01*
X-873630Y3323858D01*
X-801000Y3396488D01*
X-801000Y3325000D01*
X-821000Y3325000D01*
X-821000Y3043750D01*
X-752250Y2975000D01*
X-200000Y2973669D01*
X-146090Y2978979D01*
X-94253Y2994703D01*
X-46479Y3020239D01*
X-4604Y3054604D01*
X29761Y3096479D01*
X55297Y3144253D01*
X71021Y3196090D01*
X76331Y3250000D01*
X75000Y3256250D01*
X10252Y3320998D01*
X75000Y3320998D01*
X75000Y3449445D01*
X75219Y3450572D01*
X75000Y3501013D01*
X75000Y3679002D01*
X10252Y3679002D01*
X75000Y3743750D01*
X76331Y3750000D01*
X71021Y3803910D01*
X55297Y3855747D01*
X29761Y3903521D01*
X-4604Y3945396D01*
X-46479Y3979761D01*
X-94253Y4005297D01*
X-146090Y4021021D01*
X-200000Y4026331D01*
X-752250Y4025000D01*
X-821000Y3956250D01*
X-821000Y3675000D01*
X-801000Y3675000D01*
X-801000Y3603512D01*
X-873630Y3676142D01*
X-955484Y3650944D01*
X-975219Y3549428D01*
X-1025210Y3549428D01*
X-1025230Y3553987D01*
X-1044516Y3650944D01*
X-1126370Y3676142D01*
X-1199000Y3603512D01*
X-1199000Y3675000D01*
X-1179000Y3675000D01*
X-1179000Y3956250D01*
X-1247750Y4025000D01*
X-1800000Y4026331D01*
X-1853910Y4021021D01*
X-1905747Y4005297D01*
X-1953521Y3979761D01*
X-1995396Y3945396D01*
X-2029761Y3903521D01*
X-2055297Y3855747D01*
X-2071021Y3803910D01*
X-2076331Y3750000D01*
X-2425000Y3750000D01*
X-2425000Y5546783D01*
X-2385000Y5546783D01*
X-2385000Y5453217D01*
X-2366746Y5361448D01*
X-2330939Y5275003D01*
X-2278956Y5197205D01*
X-2212795Y5131044D01*
X-2134997Y5079061D01*
X-2048552Y5043254D01*
X-1956783Y5025000D01*
X-1863217Y5025000D01*
X-1771448Y5043254D01*
X-1685003Y5079061D01*
X-1616250Y5125000D01*
X-726088Y5125000D01*
X-726088Y5000000D01*
X-721744Y4955892D01*
X-708878Y4913480D01*
X-687985Y4874392D01*
X-659868Y4840132D01*
X-625608Y4812015D01*
X-586520Y4791122D01*
X-544108Y4778256D01*
X-500000Y4773912D01*
X500000Y4773912D01*
X544108Y4778256D01*
X586520Y4791122D01*
X625608Y4812015D01*
X659868Y4840132D01*
X687985Y4874392D01*
X708878Y4913480D01*
X721744Y4955892D01*
X726088Y5000000D01*
X726088Y6000000D01*
X721744Y6044108D01*
X708878Y6086520D01*
X687985Y6125608D01*
X659868Y6159868D01*
X625608Y6187985D01*
X586520Y6208878D01*
X544108Y6221744D01*
X500000Y6226088D01*
X-500000Y6226088D01*
X-544108Y6221744D01*
X-586520Y6208878D01*
X-625608Y6187985D01*
X-659868Y6159868D01*
X-687985Y6125608D01*
X-708878Y6086520D01*
X-721744Y6044108D01*
X-726088Y6000000D01*
X-726088Y5875000D01*
X-1616250Y5875000D01*
X-1685003Y5920939D01*
X-1771448Y5956746D01*
X-1863217Y5975000D01*
X-1956783Y5975000D01*
X-2048552Y5956746D01*
X-2134997Y5920939D01*
X-2212795Y5868956D01*
X-2278956Y5802795D01*
X-2330939Y5724997D01*
X-2366746Y5638552D01*
X-2385000Y5546783D01*
X-2425000Y5546783D01*
X-2425000Y6393934D01*
X-1768934Y7050000D01*
X-226402Y7050000D01*
X-224997Y7049061D01*
%TA.AperFunction,Conductor*%
D23*
G36*
X-224997Y7049061D02*
G01*
X-138552Y7013254D01*
X-46783Y6995000D01*
X46783Y6995000D01*
X138552Y7013254D01*
X224997Y7049061D01*
X226402Y7050000D01*
X745000Y7050000D01*
X745001Y4248419D01*
X745000Y3788420D01*
X743186Y3770000D01*
X745001Y3751571D01*
X745000Y2135330D01*
X-429374Y960955D01*
X-415000Y1033217D01*
X-415000Y1126783D01*
X-433254Y1218552D01*
X-469061Y1304997D01*
X-521044Y1382795D01*
X-587205Y1448956D01*
X-665003Y1500939D01*
X-751448Y1536746D01*
X-843217Y1555000D01*
X-936783Y1555000D01*
X-1028552Y1536746D01*
X-1114997Y1500939D01*
X-1192795Y1448956D01*
X-1258956Y1382795D01*
X-1310939Y1304997D01*
X-1346746Y1218552D01*
X-1365000Y1126783D01*
X-1365000Y1033217D01*
X-1346746Y941448D01*
X-1319222Y875000D01*
X-1502602Y875000D01*
X-1513254Y928552D01*
X-1549061Y1014997D01*
X-1601044Y1092795D01*
X-1667205Y1158956D01*
X-1745003Y1210939D01*
X-1831448Y1246746D01*
X-1923217Y1265000D01*
X-2016783Y1265000D01*
X-2108552Y1246746D01*
X-2194997Y1210939D01*
X-2272795Y1158956D01*
X-2338956Y1092795D01*
X-2390939Y1014997D01*
X-2426746Y928552D01*
X-2445000Y836783D01*
X-2445000Y743217D01*
X-2436569Y700832D01*
X-2650000Y914263D01*
X-2650000Y1379176D01*
X-2647205Y1381044D01*
X-2581044Y1447205D01*
X-2529061Y1525003D01*
X-2493254Y1611448D01*
X-2475000Y1703217D01*
X-2475000Y1796783D01*
X-2493254Y1888552D01*
X-2529061Y1974997D01*
X-2581044Y2052795D01*
X-2647205Y2118956D01*
X-2725003Y2170939D01*
X-2811448Y2206746D01*
X-2903217Y2225000D01*
X-2996783Y2225000D01*
X-3088552Y2206746D01*
X-3135000Y2187506D01*
X-3135000Y3595000D01*
X-2500000Y3595000D01*
X-2485368Y3596441D01*
X-2471299Y3600709D01*
X-2458332Y3607640D01*
X-2446967Y3616967D01*
X-2437640Y3628332D01*
X-2430709Y3641299D01*
X-2426441Y3655368D01*
X-2425000Y3670000D01*
X-2425000Y3750000D01*
X-2076331Y3750000D01*
X-2075000Y3743750D01*
X-2010252Y3679002D01*
X-2075000Y3679002D01*
X-2075000Y3550555D01*
X-2075219Y3549428D01*
X-2075000Y3498987D01*
X-2075000Y3320998D01*
X-2010252Y3320998D01*
X-2075000Y3256250D01*
X-2076331Y3250000D01*
X-2071021Y3196090D01*
X-2055297Y3144253D01*
X-2029761Y3096479D01*
X-1995396Y3054604D01*
X-1953521Y3020239D01*
X-1905747Y2994703D01*
X-1853910Y2978979D01*
X-1800000Y2973669D01*
X-1247750Y2975000D01*
X-1179000Y3043750D01*
X-1179000Y3325000D01*
X-1199000Y3325000D01*
X-1199000Y3396488D01*
X-1126370Y3323858D01*
X-1044516Y3349056D01*
X-1024781Y3450572D01*
X-1025210Y3549428D01*
X-975219Y3549428D01*
X-974770Y3446013D01*
X-955484Y3349056D01*
X-873630Y3323858D01*
X-801000Y3396488D01*
X-801000Y3325000D01*
X-821000Y3325000D01*
X-821000Y3043750D01*
X-752250Y2975000D01*
X-200000Y2973669D01*
X-146090Y2978979D01*
X-94253Y2994703D01*
X-46479Y3020239D01*
X-4604Y3054604D01*
X29761Y3096479D01*
X55297Y3144253D01*
X71021Y3196090D01*
X76331Y3250000D01*
X75000Y3256250D01*
X10252Y3320998D01*
X75000Y3320998D01*
X75000Y3449445D01*
X75219Y3450572D01*
X75000Y3501013D01*
X75000Y3679002D01*
X10252Y3679002D01*
X75000Y3743750D01*
X76331Y3750000D01*
X71021Y3803910D01*
X55297Y3855747D01*
X29761Y3903521D01*
X-4604Y3945396D01*
X-46479Y3979761D01*
X-94253Y4005297D01*
X-146090Y4021021D01*
X-200000Y4026331D01*
X-752250Y4025000D01*
X-821000Y3956250D01*
X-821000Y3675000D01*
X-801000Y3675000D01*
X-801000Y3603512D01*
X-873630Y3676142D01*
X-955484Y3650944D01*
X-975219Y3549428D01*
X-1025210Y3549428D01*
X-1025230Y3553987D01*
X-1044516Y3650944D01*
X-1126370Y3676142D01*
X-1199000Y3603512D01*
X-1199000Y3675000D01*
X-1179000Y3675000D01*
X-1179000Y3956250D01*
X-1247750Y4025000D01*
X-1800000Y4026331D01*
X-1853910Y4021021D01*
X-1905747Y4005297D01*
X-1953521Y3979761D01*
X-1995396Y3945396D01*
X-2029761Y3903521D01*
X-2055297Y3855747D01*
X-2071021Y3803910D01*
X-2076331Y3750000D01*
X-2425000Y3750000D01*
X-2425000Y5546783D01*
X-2385000Y5546783D01*
X-2385000Y5453217D01*
X-2366746Y5361448D01*
X-2330939Y5275003D01*
X-2278956Y5197205D01*
X-2212795Y5131044D01*
X-2134997Y5079061D01*
X-2048552Y5043254D01*
X-1956783Y5025000D01*
X-1863217Y5025000D01*
X-1771448Y5043254D01*
X-1685003Y5079061D01*
X-1616250Y5125000D01*
X-726088Y5125000D01*
X-726088Y5000000D01*
X-721744Y4955892D01*
X-708878Y4913480D01*
X-687985Y4874392D01*
X-659868Y4840132D01*
X-625608Y4812015D01*
X-586520Y4791122D01*
X-544108Y4778256D01*
X-500000Y4773912D01*
X500000Y4773912D01*
X544108Y4778256D01*
X586520Y4791122D01*
X625608Y4812015D01*
X659868Y4840132D01*
X687985Y4874392D01*
X708878Y4913480D01*
X721744Y4955892D01*
X726088Y5000000D01*
X726088Y6000000D01*
X721744Y6044108D01*
X708878Y6086520D01*
X687985Y6125608D01*
X659868Y6159868D01*
X625608Y6187985D01*
X586520Y6208878D01*
X544108Y6221744D01*
X500000Y6226088D01*
X-500000Y6226088D01*
X-544108Y6221744D01*
X-586520Y6208878D01*
X-625608Y6187985D01*
X-659868Y6159868D01*
X-687985Y6125608D01*
X-708878Y6086520D01*
X-721744Y6044108D01*
X-726088Y6000000D01*
X-726088Y5875000D01*
X-1616250Y5875000D01*
X-1685003Y5920939D01*
X-1771448Y5956746D01*
X-1863217Y5975000D01*
X-1956783Y5975000D01*
X-2048552Y5956746D01*
X-2134997Y5920939D01*
X-2212795Y5868956D01*
X-2278956Y5802795D01*
X-2330939Y5724997D01*
X-2366746Y5638552D01*
X-2385000Y5546783D01*
X-2425000Y5546783D01*
X-2425000Y6393934D01*
X-1768934Y7050000D01*
X-226402Y7050000D01*
X-224997Y7049061D01*
G37*
%TD.AperFunction*%
D20*
X3323254Y9018552D02*
X3305000Y8926783D01*
X3305000Y8833217D01*
X3323254Y8741448D01*
X3359061Y8655003D01*
X3411044Y8577205D01*
X3477205Y8511044D01*
X3555003Y8459061D01*
X3641448Y8423254D01*
X3733217Y8405000D01*
X3826783Y8405000D01*
X3875735Y8414737D01*
X3846691Y8379346D01*
X3811869Y8314199D01*
X3790426Y8243512D01*
X3785000Y8188419D01*
X3783186Y8170000D01*
X3785000Y8151584D01*
X3785001Y7233751D01*
X3739061Y7164997D01*
X3703254Y7078552D01*
X3685000Y6986783D01*
X3685000Y6893217D01*
X3703254Y6801448D01*
X3739061Y6715003D01*
X3785000Y6646250D01*
X3785001Y5845332D01*
X2682549Y4742878D01*
X2601448Y4726746D01*
X2515003Y4690939D01*
X2437205Y4638956D01*
X2371044Y4572795D01*
X2319061Y4494997D01*
X2283254Y4408552D01*
X2265000Y4316783D01*
X2265000Y4223217D01*
X2283254Y4131448D01*
X2319061Y4045003D01*
X2371044Y3967205D01*
X2437205Y3901044D01*
X2498632Y3860000D01*
X2110824Y3860000D01*
X2108956Y3862795D01*
X2042795Y3928956D01*
X1964997Y3980939D01*
X1878552Y4016746D01*
X1799754Y4032420D01*
X1796448Y4036448D01*
X1739347Y4083309D01*
X1674200Y4118131D01*
X1603513Y4139574D01*
X1548419Y4145000D01*
X1548416Y4145000D01*
X1530000Y4146814D01*
X1511584Y4145000D01*
X1495000Y4145000D01*
X1495000Y7314671D01*
X3028189Y8847859D01*
X3028193Y8847864D01*
X3217452Y9037122D01*
X3298552Y9053254D01*
X3345721Y9072792D01*
X3323254Y9018552D01*
%TA.AperFunction,Conductor*%
D23*
G36*
X3323254Y9018552D02*
G01*
X3305000Y8926783D01*
X3305000Y8833217D01*
X3323254Y8741448D01*
X3359061Y8655003D01*
X3411044Y8577205D01*
X3477205Y8511044D01*
X3555003Y8459061D01*
X3641448Y8423254D01*
X3733217Y8405000D01*
X3826783Y8405000D01*
X3875735Y8414737D01*
X3846691Y8379346D01*
X3811869Y8314199D01*
X3790426Y8243512D01*
X3785000Y8188419D01*
X3783186Y8170000D01*
X3785000Y8151584D01*
X3785001Y7233751D01*
X3739061Y7164997D01*
X3703254Y7078552D01*
X3685000Y6986783D01*
X3685000Y6893217D01*
X3703254Y6801448D01*
X3739061Y6715003D01*
X3785000Y6646250D01*
X3785001Y5845332D01*
X2682549Y4742878D01*
X2601448Y4726746D01*
X2515003Y4690939D01*
X2437205Y4638956D01*
X2371044Y4572795D01*
X2319061Y4494997D01*
X2283254Y4408552D01*
X2265000Y4316783D01*
X2265000Y4223217D01*
X2283254Y4131448D01*
X2319061Y4045003D01*
X2371044Y3967205D01*
X2437205Y3901044D01*
X2498632Y3860000D01*
X2110824Y3860000D01*
X2108956Y3862795D01*
X2042795Y3928956D01*
X1964997Y3980939D01*
X1878552Y4016746D01*
X1799754Y4032420D01*
X1796448Y4036448D01*
X1739347Y4083309D01*
X1674200Y4118131D01*
X1603513Y4139574D01*
X1548419Y4145000D01*
X1548416Y4145000D01*
X1530000Y4146814D01*
X1511584Y4145000D01*
X1495000Y4145000D01*
X1495000Y7314671D01*
X3028189Y8847859D01*
X3028193Y8847864D01*
X3217452Y9037122D01*
X3298552Y9053254D01*
X3345721Y9072792D01*
X3323254Y9018552D01*
G37*
%TD.AperFunction*%
D20*
X-6090131Y10558068D02*
X-5979736Y10467469D01*
X-5853787Y10400147D01*
X-5717124Y10358691D01*
X-5575000Y10344693D01*
X-5432875Y10358691D01*
X-5296212Y10400147D01*
X-5204777Y10449020D01*
X-5200001Y10448550D01*
X-5185278Y10450000D01*
X-2305330Y10450000D01*
X-2582451Y10172878D01*
X-2663552Y10156746D01*
X-2749997Y10120939D01*
X-2827795Y10068956D01*
X-2893956Y10002795D01*
X-2945939Y9924997D01*
X-2981746Y9838552D01*
X-3000000Y9746783D01*
X-3000000Y9653217D01*
X-2981746Y9561448D01*
X-2945939Y9475003D01*
X-2929967Y9451099D01*
X-4173540Y8207526D01*
X-4189061Y8244997D01*
X-4241044Y8322795D01*
X-4307205Y8388956D01*
X-4385003Y8440939D01*
X-4471448Y8476746D01*
X-4563217Y8495000D01*
X-4656783Y8495000D01*
X-4748552Y8476746D01*
X-4834997Y8440939D01*
X-4871305Y8416679D01*
X-4859061Y8435003D01*
X-4823254Y8521448D01*
X-4805000Y8613217D01*
X-4805000Y8706783D01*
X-4823254Y8798552D01*
X-4859061Y8884997D01*
X-4911044Y8962795D01*
X-4977205Y9028956D01*
X-5055003Y9080939D01*
X-5141448Y9116746D01*
X-5222548Y9132878D01*
X-6095000Y10005329D01*
X-6095000Y10564001D01*
X-6090131Y10558068D01*
%TA.AperFunction,Conductor*%
D23*
G36*
X-6090131Y10558068D02*
G01*
X-5979736Y10467469D01*
X-5853787Y10400147D01*
X-5717124Y10358691D01*
X-5575000Y10344693D01*
X-5432875Y10358691D01*
X-5296212Y10400147D01*
X-5204777Y10449020D01*
X-5200001Y10448550D01*
X-5185278Y10450000D01*
X-2305330Y10450000D01*
X-2582451Y10172878D01*
X-2663552Y10156746D01*
X-2749997Y10120939D01*
X-2827795Y10068956D01*
X-2893956Y10002795D01*
X-2945939Y9924997D01*
X-2981746Y9838552D01*
X-3000000Y9746783D01*
X-3000000Y9653217D01*
X-2981746Y9561448D01*
X-2945939Y9475003D01*
X-2929967Y9451099D01*
X-4173540Y8207526D01*
X-4189061Y8244997D01*
X-4241044Y8322795D01*
X-4307205Y8388956D01*
X-4385003Y8440939D01*
X-4471448Y8476746D01*
X-4563217Y8495000D01*
X-4656783Y8495000D01*
X-4748552Y8476746D01*
X-4834997Y8440939D01*
X-4871305Y8416679D01*
X-4859061Y8435003D01*
X-4823254Y8521448D01*
X-4805000Y8613217D01*
X-4805000Y8706783D01*
X-4823254Y8798552D01*
X-4859061Y8884997D01*
X-4911044Y8962795D01*
X-4977205Y9028956D01*
X-5055003Y9080939D01*
X-5141448Y9116746D01*
X-5222548Y9132878D01*
X-6095000Y10005329D01*
X-6095000Y10564001D01*
X-6090131Y10558068D01*
G37*
%TD.AperFunction*%
D20*
X5200000Y10448550D02*
X5205285Y10449070D01*
X5296813Y10400147D01*
X5433476Y10358691D01*
X5575600Y10344693D01*
X5717725Y10358691D01*
X5854388Y10400147D01*
X5866052Y10406381D01*
X4245592Y8785921D01*
X4255000Y8833217D01*
X4255000Y8926783D01*
X4236746Y9018552D01*
X4200939Y9104997D01*
X4148956Y9182795D01*
X4082795Y9248956D01*
X4004997Y9300939D01*
X3918552Y9336746D01*
X3826783Y9355000D01*
X3733217Y9355000D01*
X3641448Y9336746D01*
X3594279Y9317208D01*
X3616746Y9371448D01*
X3635000Y9463217D01*
X3635000Y9556783D01*
X3616746Y9648552D01*
X3580939Y9734997D01*
X3528956Y9812795D01*
X3462795Y9878956D01*
X3384997Y9930939D01*
X3298552Y9966746D01*
X3217452Y9982878D01*
X2750329Y10450000D01*
X5185277Y10450000D01*
X5200000Y10448550D01*
%TA.AperFunction,Conductor*%
D23*
G36*
X5200000Y10448550D02*
G01*
X5205285Y10449070D01*
X5296813Y10400147D01*
X5433476Y10358691D01*
X5575600Y10344693D01*
X5717725Y10358691D01*
X5854388Y10400147D01*
X5866052Y10406381D01*
X4245592Y8785921D01*
X4255000Y8833217D01*
X4255000Y8926783D01*
X4236746Y9018552D01*
X4200939Y9104997D01*
X4148956Y9182795D01*
X4082795Y9248956D01*
X4004997Y9300939D01*
X3918552Y9336746D01*
X3826783Y9355000D01*
X3733217Y9355000D01*
X3641448Y9336746D01*
X3594279Y9317208D01*
X3616746Y9371448D01*
X3635000Y9463217D01*
X3635000Y9556783D01*
X3616746Y9648552D01*
X3580939Y9734997D01*
X3528956Y9812795D01*
X3462795Y9878956D01*
X3384997Y9930939D01*
X3298552Y9966746D01*
X3217452Y9982878D01*
X2750329Y10450000D01*
X5185277Y10450000D01*
X5200000Y10448550D01*
G37*
%TD.AperFunction*%
%TD*%
M02*
