M48
; DRILL file {KiCad (5.1.9)-1} date 01/22/21 02:53:36
; FORMAT={-:-/ absolute / inch / decimal}
; #@! TF.CreationDate,2021-01-22T02:53:36+08:00
; #@! TF.GenerationSoftware,Kicad,Pcbnew,(5.1.9)-1
FMAT,2
INCH
T1C0.0079
T2C0.0098
T3C0.0118
T4C0.0236
T5C0.0320
T6C0.0197
T7C0.0454
%
G90
G05
T1
X-0.061Y0.1378
X-0.0177Y0.1378
T2
X-0.3Y0.5496
X-0.3Y0.4496
X-0.3Y0.3496
X-0.3Y0.2496
X-0.3Y0.1496
X-0.3Y0.0496
X-0.3Y-0.0504
X-0.3Y-0.1504
X-0.3Y-0.2504
X-0.3Y-0.3504
X-0.239Y-0.3008
X-0.2185Y-0.3461
X-0.2146Y-0.0598
X-0.2079Y0.3409
X-0.2075Y-0.1102
X-0.2037Y-0.4065
X-0.2035Y0.1488
X-0.2028Y-0.0315
X-0.2024Y0.0
X-0.1988Y-0.139
X-0.1929Y-0.2992
X-0.189Y-0.1772
X-0.1845Y-0.0693
X-0.1815Y0.3157
X-0.1801Y0.4006
X-0.176Y-0.2028
X-0.1697Y-0.2323
X-0.1638Y-0.2736
X-0.1579Y-0.0693
X-0.1559Y-0.1476
X-0.1545Y-0.2992
X-0.1539Y-0.4173
X-0.1496Y-0.213
X-0.1492Y-0.2516
X-0.1236Y-0.4161
X-0.1161Y0.0689
X-0.1024Y-0.3022
X-0.0994Y0.3819
X-0.0945Y-0.1417
X-0.0906Y-0.0522
X-0.0898Y0.0957
X-0.089Y-0.3402
X-0.0866Y0.1567
X-0.0846Y-0.4124
X-0.0776Y0.0311
X-0.0752Y0.2165
X-0.0689Y0.376
X-0.0581Y-0.3425
X-0.0541Y-0.1024
X-0.0433Y0.3673
X-0.0374Y-0.4173
X-0.035Y0.0425
X-0.0335Y0.3179
X-0.003Y-0.4252
X-0.001Y-0.0423
X0.0Y0.2941
X0.0Y-0.0039
X0.0024Y-0.3067
X0.0098Y0.3612
X0.0217Y-0.0276
X0.0232Y-0.2913
X0.0335Y0.3297
X0.061Y-0.3839
X0.0685Y0.1402
X0.0717Y0.1138
X0.0736Y0.1831
X0.0876Y-0.3248
X0.0902Y-0.1059
X0.0917Y0.2886
X0.0925Y0.3736
X0.1053Y-0.2746
X0.1053Y-0.3031
X0.1079Y0.1681
X0.1122Y-0.4327
X0.1244Y0.3744
X0.126Y-0.128
X0.1289Y-0.0955
X0.1378Y-0.4327
X0.1398Y-0.0502
X0.148Y-0.147
X0.148Y-0.1728
X0.148Y-0.2004
X0.148Y-0.2264
X0.148Y-0.2709
X0.1488Y0.3496
X0.1506Y-0.0266
X0.1638Y0.2732
X0.174Y0.1811
X0.1772Y-0.1035
X0.1801Y0.4006
X0.1811Y-0.3339
X0.2047Y0.2811
X0.2071Y0.1323
X0.2378Y-0.3138
X0.3Y0.5496
X0.3Y0.4496
X0.3Y0.3496
X0.3Y0.2496
X0.3Y0.1496
X0.3Y0.0496
X0.3Y-0.0504
X0.3Y-0.1504
X0.3Y-0.2504
X0.3Y-0.3504
T3
X-0.0477Y-0.1491
X-0.0477Y-0.1969
X-0.0477Y-0.2446
X0.0Y-0.1491
X0.0Y-0.1969
X0.0Y-0.2446
X0.0477Y-0.1491
X0.0477Y-0.1969
X0.0477Y-0.2446
T5
X-0.3Y0.5996
X-0.3Y0.4996
X-0.3Y0.3996
X-0.3Y0.2996
X-0.3Y0.1996
X-0.3Y0.0996
X-0.3Y-0.0004
X-0.3Y-0.1004
X-0.3Y-0.2004
X-0.3Y-0.3004
X-0.3Y-0.4004
X-0.3Y-0.5004
X-0.3Y-0.6004
X0.3Y0.5996
X0.3Y0.4996
X0.3Y0.3996
X0.3Y0.2996
X0.3Y0.1996
X0.3Y0.0996
X0.3Y-0.0004
X0.3Y-0.1004
X0.3Y-0.2004
X0.3Y-0.3004
X0.3Y-0.4004
X0.3Y-0.5004
X0.3Y-0.6004
T6
X-0.3642Y0.0295
X-0.3642Y0.0
X-0.3642Y-0.0295
X0.3642Y0.0295
X0.3642Y0.0
X0.3642Y-0.0295
T7
X-0.5114Y0.5709
X-0.5114Y-0.5709
X0.5114Y0.5709
X0.5114Y-0.5709
T4
G00X-0.2195Y0.6289
M15
G01X-0.2195Y0.5816
M16
G05
G00X-0.2195Y0.4674
M15
G01X-0.2195Y0.436
M16
G05
G00X0.2195Y0.6289
M15
G01X0.2195Y0.5816
M16
G05
G00X0.2195Y0.4655
M15
G01X0.2195Y0.4379
M16
G05
T0
M30
