%TF.GenerationSoftware,KiCad,Pcbnew,(5.1.9)-1*%
%TF.CreationDate,2021-01-08T11:53:25+08:00*%
%TF.ProjectId,akami,616b616d-692e-46b6-9963-61645f706362,rev?*%
%TF.SameCoordinates,Original*%
%TF.FileFunction,Paste,Top*%
%TF.FilePolarity,Positive*%
%FSLAX46Y46*%
G04 Gerber Fmt 4.6, Leading zero omitted, Abs format (unit mm)*
G04 Created by KiCad (PCBNEW (5.1.9)-1) date 2021-01-08 11:53:25*
%MOMM*%
%LPD*%
G01*
G04 APERTURE LIST*
%ADD10R,0.450000X0.600000*%
%ADD11R,0.650000X1.060000*%
%ADD12R,0.800000X0.900000*%
%ADD13R,1.800000X1.000000*%
%ADD14R,0.300000X0.800000*%
%ADD15R,0.540000X0.800000*%
%ADD16R,1.700000X1.700000*%
%ADD17C,0.250000*%
G04 APERTURE END LIST*
%TO.C,R1*%
G36*
G01*
X-1015000Y1805000D02*
X-1385000Y1805000D01*
G75*
G02*
X-1520000Y1940000I0J135000D01*
G01*
X-1520000Y2210000D01*
G75*
G02*
X-1385000Y2345000I135000J0D01*
G01*
X-1015000Y2345000D01*
G75*
G02*
X-880000Y2210000I0J-135000D01*
G01*
X-880000Y1940000D01*
G75*
G02*
X-1015000Y1805000I-135000J0D01*
G01*
G37*
G36*
G01*
X-1015000Y785000D02*
X-1385000Y785000D01*
G75*
G02*
X-1520000Y920000I0J135000D01*
G01*
X-1520000Y1190000D01*
G75*
G02*
X-1385000Y1325000I135000J0D01*
G01*
X-1015000Y1325000D01*
G75*
G02*
X-880000Y1190000I0J-135000D01*
G01*
X-880000Y920000D01*
G75*
G02*
X-1015000Y785000I-135000J0D01*
G01*
G37*
%TD*%
%TO.C,L4*%
G36*
G01*
X-5450000Y1556250D02*
X-5450000Y1043750D01*
G75*
G02*
X-5668750Y825000I-218750J0D01*
G01*
X-6106250Y825000D01*
G75*
G02*
X-6325000Y1043750I0J218750D01*
G01*
X-6325000Y1556250D01*
G75*
G02*
X-6106250Y1775000I218750J0D01*
G01*
X-5668750Y1775000D01*
G75*
G02*
X-5450000Y1556250I0J-218750D01*
G01*
G37*
G36*
G01*
X-3875000Y1556250D02*
X-3875000Y1043750D01*
G75*
G02*
X-4093750Y825000I-218750J0D01*
G01*
X-4531250Y825000D01*
G75*
G02*
X-4750000Y1043750I0J218750D01*
G01*
X-4750000Y1556250D01*
G75*
G02*
X-4531250Y1775000I218750J0D01*
G01*
X-4093750Y1775000D01*
G75*
G02*
X-3875000Y1556250I0J-218750D01*
G01*
G37*
%TD*%
D10*
%TO.C,D4*%
X3300000Y8750000D03*
X3300000Y6650000D03*
%TD*%
%TO.C,C24*%
G36*
G01*
X6245000Y4240000D02*
X5905000Y4240000D01*
G75*
G02*
X5765000Y4380000I0J140000D01*
G01*
X5765000Y4660000D01*
G75*
G02*
X5905000Y4800000I140000J0D01*
G01*
X6245000Y4800000D01*
G75*
G02*
X6385000Y4660000I0J-140000D01*
G01*
X6385000Y4380000D01*
G75*
G02*
X6245000Y4240000I-140000J0D01*
G01*
G37*
G36*
G01*
X6245000Y5200000D02*
X5905000Y5200000D01*
G75*
G02*
X5765000Y5340000I0J140000D01*
G01*
X5765000Y5620000D01*
G75*
G02*
X5905000Y5760000I140000J0D01*
G01*
X6245000Y5760000D01*
G75*
G02*
X6385000Y5620000I0J-140000D01*
G01*
X6385000Y5340000D01*
G75*
G02*
X6245000Y5200000I-140000J0D01*
G01*
G37*
%TD*%
%TO.C,C23*%
G36*
G01*
X-6325000Y-250000D02*
X-6325000Y250000D01*
G75*
G02*
X-6100000Y475000I225000J0D01*
G01*
X-5650000Y475000D01*
G75*
G02*
X-5425000Y250000I0J-225000D01*
G01*
X-5425000Y-250000D01*
G75*
G02*
X-5650000Y-475000I-225000J0D01*
G01*
X-6100000Y-475000D01*
G75*
G02*
X-6325000Y-250000I0J225000D01*
G01*
G37*
G36*
G01*
X-4775000Y-250000D02*
X-4775000Y250000D01*
G75*
G02*
X-4550000Y475000I225000J0D01*
G01*
X-4100000Y475000D01*
G75*
G02*
X-3875000Y250000I0J-225000D01*
G01*
X-3875000Y-250000D01*
G75*
G02*
X-4100000Y-475000I-225000J0D01*
G01*
X-4550000Y-475000D01*
G75*
G02*
X-4775000Y-250000I0J225000D01*
G01*
G37*
%TD*%
%TO.C,D2*%
X0Y8750000D03*
X0Y6650000D03*
%TD*%
D11*
%TO.C,U2*%
X2700000Y3300000D03*
X800000Y3300000D03*
X800000Y5500000D03*
X1750000Y5500000D03*
X2700000Y5500000D03*
%TD*%
%TO.C,U3*%
X-800000Y5500000D03*
X-1750000Y5500000D03*
X-2700000Y5500000D03*
X-2700000Y3300000D03*
X-800000Y3300000D03*
%TD*%
D12*
%TO.C,Q2*%
X-4700000Y7400000D03*
X-2800000Y7400000D03*
X-3750000Y9400000D03*
%TD*%
D13*
%TO.C,Y2*%
X5250000Y-900000D03*
X5250000Y1600000D03*
%TD*%
%TO.C,R11*%
G36*
G01*
X6275000Y8125000D02*
X5725000Y8125000D01*
G75*
G02*
X5525000Y8325000I0J200000D01*
G01*
X5525000Y8725000D01*
G75*
G02*
X5725000Y8925000I200000J0D01*
G01*
X6275000Y8925000D01*
G75*
G02*
X6475000Y8725000I0J-200000D01*
G01*
X6475000Y8325000D01*
G75*
G02*
X6275000Y8125000I-200000J0D01*
G01*
G37*
G36*
G01*
X6275000Y6475000D02*
X5725000Y6475000D01*
G75*
G02*
X5525000Y6675000I0J200000D01*
G01*
X5525000Y7075000D01*
G75*
G02*
X5725000Y7275000I200000J0D01*
G01*
X6275000Y7275000D01*
G75*
G02*
X6475000Y7075000I0J-200000D01*
G01*
X6475000Y6675000D01*
G75*
G02*
X6275000Y6475000I-200000J0D01*
G01*
G37*
%TD*%
%TO.C,C16*%
G36*
G01*
X-5500000Y-9375000D02*
X-5500000Y-9875000D01*
G75*
G02*
X-5725000Y-10100000I-225000J0D01*
G01*
X-6175000Y-10100000D01*
G75*
G02*
X-6400000Y-9875000I0J225000D01*
G01*
X-6400000Y-9375000D01*
G75*
G02*
X-6175000Y-9150000I225000J0D01*
G01*
X-5725000Y-9150000D01*
G75*
G02*
X-5500000Y-9375000I0J-225000D01*
G01*
G37*
G36*
G01*
X-3950000Y-9375000D02*
X-3950000Y-9875000D01*
G75*
G02*
X-4175000Y-10100000I-225000J0D01*
G01*
X-4625000Y-10100000D01*
G75*
G02*
X-4850000Y-9875000I0J225000D01*
G01*
X-4850000Y-9375000D01*
G75*
G02*
X-4625000Y-9150000I225000J0D01*
G01*
X-4175000Y-9150000D01*
G75*
G02*
X-3950000Y-9375000I0J-225000D01*
G01*
G37*
%TD*%
%TO.C,C22*%
G36*
G01*
X3730000Y-9425000D02*
X4070000Y-9425000D01*
G75*
G02*
X4210000Y-9565000I0J-140000D01*
G01*
X4210000Y-9845000D01*
G75*
G02*
X4070000Y-9985000I-140000J0D01*
G01*
X3730000Y-9985000D01*
G75*
G02*
X3590000Y-9845000I0J140000D01*
G01*
X3590000Y-9565000D01*
G75*
G02*
X3730000Y-9425000I140000J0D01*
G01*
G37*
G36*
G01*
X3730000Y-8465000D02*
X4070000Y-8465000D01*
G75*
G02*
X4210000Y-8605000I0J-140000D01*
G01*
X4210000Y-8885000D01*
G75*
G02*
X4070000Y-9025000I-140000J0D01*
G01*
X3730000Y-9025000D01*
G75*
G02*
X3590000Y-8885000I0J140000D01*
G01*
X3590000Y-8605000D01*
G75*
G02*
X3730000Y-8465000I140000J0D01*
G01*
G37*
%TD*%
%TO.C,R4*%
G36*
G01*
X3080000Y1510000D02*
X3080000Y1140000D01*
G75*
G02*
X2945000Y1005000I-135000J0D01*
G01*
X2675000Y1005000D01*
G75*
G02*
X2540000Y1140000I0J135000D01*
G01*
X2540000Y1510000D01*
G75*
G02*
X2675000Y1645000I135000J0D01*
G01*
X2945000Y1645000D01*
G75*
G02*
X3080000Y1510000I0J-135000D01*
G01*
G37*
G36*
G01*
X2060000Y1510000D02*
X2060000Y1140000D01*
G75*
G02*
X1925000Y1005000I-135000J0D01*
G01*
X1655000Y1005000D01*
G75*
G02*
X1520000Y1140000I0J135000D01*
G01*
X1520000Y1510000D01*
G75*
G02*
X1655000Y1645000I135000J0D01*
G01*
X1925000Y1645000D01*
G75*
G02*
X2060000Y1510000I0J-135000D01*
G01*
G37*
%TD*%
%TO.C,R3*%
G36*
G01*
X1455000Y6930000D02*
X1825000Y6930000D01*
G75*
G02*
X1960000Y6795000I0J-135000D01*
G01*
X1960000Y6525000D01*
G75*
G02*
X1825000Y6390000I-135000J0D01*
G01*
X1455000Y6390000D01*
G75*
G02*
X1320000Y6525000I0J135000D01*
G01*
X1320000Y6795000D01*
G75*
G02*
X1455000Y6930000I135000J0D01*
G01*
G37*
G36*
G01*
X1455000Y7950000D02*
X1825000Y7950000D01*
G75*
G02*
X1960000Y7815000I0J-135000D01*
G01*
X1960000Y7545000D01*
G75*
G02*
X1825000Y7410000I-135000J0D01*
G01*
X1455000Y7410000D01*
G75*
G02*
X1320000Y7545000I0J135000D01*
G01*
X1320000Y7815000D01*
G75*
G02*
X1455000Y7950000I135000J0D01*
G01*
G37*
%TD*%
%TO.C,R10*%
G36*
G01*
X-1825000Y8710000D02*
X-1455000Y8710000D01*
G75*
G02*
X-1320000Y8575000I0J-135000D01*
G01*
X-1320000Y8305000D01*
G75*
G02*
X-1455000Y8170000I-135000J0D01*
G01*
X-1825000Y8170000D01*
G75*
G02*
X-1960000Y8305000I0J135000D01*
G01*
X-1960000Y8575000D01*
G75*
G02*
X-1825000Y8710000I135000J0D01*
G01*
G37*
G36*
G01*
X-1825000Y9730000D02*
X-1455000Y9730000D01*
G75*
G02*
X-1320000Y9595000I0J-135000D01*
G01*
X-1320000Y9325000D01*
G75*
G02*
X-1455000Y9190000I-135000J0D01*
G01*
X-1825000Y9190000D01*
G75*
G02*
X-1960000Y9325000I0J135000D01*
G01*
X-1960000Y9595000D01*
G75*
G02*
X-1825000Y9730000I135000J0D01*
G01*
G37*
%TD*%
D12*
%TO.C,Y1*%
X4850000Y-6125000D03*
X4850000Y-4725000D03*
X5950000Y-4725000D03*
X5950000Y-6125000D03*
%TD*%
D14*
%TO.C,J1*%
X-1749700Y10573200D03*
X1250300Y10573200D03*
X250300Y10573200D03*
X-249700Y10573200D03*
X750300Y10573200D03*
X-749700Y10573200D03*
D15*
X-2399700Y10573200D03*
X2400300Y10573200D03*
X3200300Y10573200D03*
X-3199700Y10573200D03*
D14*
X-1249700Y10573200D03*
X1758300Y10573200D03*
%TD*%
D16*
%TO.C,U1*%
X-1000000Y-6000000D03*
X-1000000Y-4000000D03*
X1000000Y-6000000D03*
X1000000Y-4000000D03*
D17*
X2750000Y-8250000D03*
X2000000Y-7750000D03*
X3250000Y-3750000D03*
X2750000Y-2500000D03*
X-2750000Y-7000000D03*
X-3250000Y-7750000D03*
X-3250000Y-2250000D03*
X-2500000Y-2250000D03*
X-2000000Y-2250000D03*
X-1750000Y-1750000D03*
X-1250000Y-1750000D03*
X-750000Y-1750000D03*
X-250000Y-1750000D03*
X250000Y-1750000D03*
X750000Y-1750000D03*
X1250000Y-1750000D03*
X-1000000Y-2250000D03*
X-500000Y-2250000D03*
X0Y-2250000D03*
X500000Y-2250000D03*
X1000000Y-2250000D03*
X1500000Y-2250000D03*
X2250000Y-1750000D03*
X2000000Y-2250000D03*
X2750000Y-1750000D03*
X-3250000Y-2750000D03*
X-3250000Y-3250000D03*
X-3250000Y-3750000D03*
X-3250000Y-4250000D03*
X-3250000Y-4750000D03*
X-3250000Y-5250000D03*
X-3250000Y-5750000D03*
X-3250000Y-6250000D03*
X-3250000Y-6750000D03*
X-3250000Y-7250000D03*
X-2750000Y-6500000D03*
X-2750000Y-6000000D03*
X-2750000Y-5500000D03*
X-2750000Y-5000000D03*
X-2750000Y-4500000D03*
X-2750000Y-4000000D03*
X-2750000Y-3000000D03*
X2750000Y-3000000D03*
X2750000Y-3500000D03*
X2750000Y-4000000D03*
X2750000Y-4500000D03*
X2750000Y-5000000D03*
X2750000Y-5500000D03*
X2750000Y-6000000D03*
X2750000Y-6500000D03*
X3250000Y-4250000D03*
X3250000Y-4750000D03*
X3250000Y-5250000D03*
X3250000Y-5750000D03*
X3250000Y-6250000D03*
X3250000Y-6750000D03*
X3250000Y-7250000D03*
X3250000Y-7750000D03*
X1500000Y-7750000D03*
X1000000Y-7750000D03*
X-500000Y-7750000D03*
X-1000000Y-7750000D03*
X-1500000Y-7750000D03*
X-2000000Y-7750000D03*
X1750000Y-8250000D03*
X750000Y-8250000D03*
X250000Y-8250000D03*
X-250000Y-8250000D03*
X-750000Y-8250000D03*
X-1250000Y-8250000D03*
X-1750000Y-8250000D03*
X-2250000Y-8250000D03*
X-2750000Y-8250000D03*
%TD*%
%TO.C,R9*%
G36*
G01*
X1455000Y8710000D02*
X1825000Y8710000D01*
G75*
G02*
X1960000Y8575000I0J-135000D01*
G01*
X1960000Y8305000D01*
G75*
G02*
X1825000Y8170000I-135000J0D01*
G01*
X1455000Y8170000D01*
G75*
G02*
X1320000Y8305000I0J135000D01*
G01*
X1320000Y8575000D01*
G75*
G02*
X1455000Y8710000I135000J0D01*
G01*
G37*
G36*
G01*
X1455000Y9730000D02*
X1825000Y9730000D01*
G75*
G02*
X1960000Y9595000I0J-135000D01*
G01*
X1960000Y9325000D01*
G75*
G02*
X1825000Y9190000I-135000J0D01*
G01*
X1455000Y9190000D01*
G75*
G02*
X1320000Y9325000I0J135000D01*
G01*
X1320000Y9595000D01*
G75*
G02*
X1455000Y9730000I135000J0D01*
G01*
G37*
%TD*%
%TO.C,R8*%
G36*
G01*
X3515000Y4760000D02*
X3885000Y4760000D01*
G75*
G02*
X4020000Y4625000I0J-135000D01*
G01*
X4020000Y4355000D01*
G75*
G02*
X3885000Y4220000I-135000J0D01*
G01*
X3515000Y4220000D01*
G75*
G02*
X3380000Y4355000I0J135000D01*
G01*
X3380000Y4625000D01*
G75*
G02*
X3515000Y4760000I135000J0D01*
G01*
G37*
G36*
G01*
X3515000Y5780000D02*
X3885000Y5780000D01*
G75*
G02*
X4020000Y5645000I0J-135000D01*
G01*
X4020000Y5375000D01*
G75*
G02*
X3885000Y5240000I-135000J0D01*
G01*
X3515000Y5240000D01*
G75*
G02*
X3380000Y5375000I0J135000D01*
G01*
X3380000Y5645000D01*
G75*
G02*
X3515000Y5780000I135000J0D01*
G01*
G37*
%TD*%
%TO.C,R7*%
G36*
G01*
X3810000Y3280000D02*
X3440000Y3280000D01*
G75*
G02*
X3305000Y3415000I0J135000D01*
G01*
X3305000Y3685000D01*
G75*
G02*
X3440000Y3820000I135000J0D01*
G01*
X3810000Y3820000D01*
G75*
G02*
X3945000Y3685000I0J-135000D01*
G01*
X3945000Y3415000D01*
G75*
G02*
X3810000Y3280000I-135000J0D01*
G01*
G37*
G36*
G01*
X3810000Y2260000D02*
X3440000Y2260000D01*
G75*
G02*
X3305000Y2395000I0J135000D01*
G01*
X3305000Y2665000D01*
G75*
G02*
X3440000Y2800000I135000J0D01*
G01*
X3810000Y2800000D01*
G75*
G02*
X3945000Y2665000I0J-135000D01*
G01*
X3945000Y2395000D01*
G75*
G02*
X3810000Y2260000I-135000J0D01*
G01*
G37*
%TD*%
%TO.C,R6*%
G36*
G01*
X-1825000Y6930000D02*
X-1455000Y6930000D01*
G75*
G02*
X-1320000Y6795000I0J-135000D01*
G01*
X-1320000Y6525000D01*
G75*
G02*
X-1455000Y6390000I-135000J0D01*
G01*
X-1825000Y6390000D01*
G75*
G02*
X-1960000Y6525000I0J135000D01*
G01*
X-1960000Y6795000D01*
G75*
G02*
X-1825000Y6930000I135000J0D01*
G01*
G37*
G36*
G01*
X-1825000Y7950000D02*
X-1455000Y7950000D01*
G75*
G02*
X-1320000Y7815000I0J-135000D01*
G01*
X-1320000Y7545000D01*
G75*
G02*
X-1455000Y7410000I-135000J0D01*
G01*
X-1825000Y7410000D01*
G75*
G02*
X-1960000Y7545000I0J135000D01*
G01*
X-1960000Y7815000D01*
G75*
G02*
X-1825000Y7950000I135000J0D01*
G01*
G37*
%TD*%
%TO.C,R5*%
G36*
G01*
X-3885000Y5780000D02*
X-3515000Y5780000D01*
G75*
G02*
X-3380000Y5645000I0J-135000D01*
G01*
X-3380000Y5375000D01*
G75*
G02*
X-3515000Y5240000I-135000J0D01*
G01*
X-3885000Y5240000D01*
G75*
G02*
X-4020000Y5375000I0J135000D01*
G01*
X-4020000Y5645000D01*
G75*
G02*
X-3885000Y5780000I135000J0D01*
G01*
G37*
G36*
G01*
X-3885000Y4760000D02*
X-3515000Y4760000D01*
G75*
G02*
X-3380000Y4625000I0J-135000D01*
G01*
X-3380000Y4355000D01*
G75*
G02*
X-3515000Y4220000I-135000J0D01*
G01*
X-3885000Y4220000D01*
G75*
G02*
X-4020000Y4355000I0J135000D01*
G01*
X-4020000Y4625000D01*
G75*
G02*
X-3885000Y4760000I135000J0D01*
G01*
G37*
%TD*%
%TO.C,L3*%
G36*
G01*
X-5468750Y-4725000D02*
X-5981250Y-4725000D01*
G75*
G02*
X-6200000Y-4506250I0J218750D01*
G01*
X-6200000Y-4068750D01*
G75*
G02*
X-5981250Y-3850000I218750J0D01*
G01*
X-5468750Y-3850000D01*
G75*
G02*
X-5250000Y-4068750I0J-218750D01*
G01*
X-5250000Y-4506250D01*
G75*
G02*
X-5468750Y-4725000I-218750J0D01*
G01*
G37*
G36*
G01*
X-5468750Y-6300000D02*
X-5981250Y-6300000D01*
G75*
G02*
X-6200000Y-6081250I0J218750D01*
G01*
X-6200000Y-5643750D01*
G75*
G02*
X-5981250Y-5425000I218750J0D01*
G01*
X-5468750Y-5425000D01*
G75*
G02*
X-5250000Y-5643750I0J-218750D01*
G01*
X-5250000Y-6081250D01*
G75*
G02*
X-5468750Y-6300000I-218750J0D01*
G01*
G37*
%TD*%
%TO.C,L2*%
G36*
G01*
X-5195000Y-7047500D02*
X-5195000Y-6702500D01*
G75*
G02*
X-5047500Y-6555000I147500J0D01*
G01*
X-4752500Y-6555000D01*
G75*
G02*
X-4605000Y-6702500I0J-147500D01*
G01*
X-4605000Y-7047500D01*
G75*
G02*
X-4752500Y-7195000I-147500J0D01*
G01*
X-5047500Y-7195000D01*
G75*
G02*
X-5195000Y-7047500I0J147500D01*
G01*
G37*
G36*
G01*
X-6165000Y-7047500D02*
X-6165000Y-6702500D01*
G75*
G02*
X-6017500Y-6555000I147500J0D01*
G01*
X-5722500Y-6555000D01*
G75*
G02*
X-5575000Y-6702500I0J-147500D01*
G01*
X-5575000Y-7047500D01*
G75*
G02*
X-5722500Y-7195000I-147500J0D01*
G01*
X-6017500Y-7195000D01*
G75*
G02*
X-6165000Y-7047500I0J147500D01*
G01*
G37*
%TD*%
%TO.C,L1*%
G36*
G01*
X972500Y-10145000D02*
X627500Y-10145000D01*
G75*
G02*
X480000Y-9997500I0J147500D01*
G01*
X480000Y-9702500D01*
G75*
G02*
X627500Y-9555000I147500J0D01*
G01*
X972500Y-9555000D01*
G75*
G02*
X1120000Y-9702500I0J-147500D01*
G01*
X1120000Y-9997500D01*
G75*
G02*
X972500Y-10145000I-147500J0D01*
G01*
G37*
G36*
G01*
X972500Y-11115000D02*
X627500Y-11115000D01*
G75*
G02*
X480000Y-10967500I0J147500D01*
G01*
X480000Y-10672500D01*
G75*
G02*
X627500Y-10525000I147500J0D01*
G01*
X972500Y-10525000D01*
G75*
G02*
X1120000Y-10672500I0J-147500D01*
G01*
X1120000Y-10967500D01*
G75*
G02*
X972500Y-11115000I-147500J0D01*
G01*
G37*
%TD*%
%TO.C,D3*%
G36*
G01*
X5056250Y5350000D02*
X4543750Y5350000D01*
G75*
G02*
X4325000Y5568750I0J218750D01*
G01*
X4325000Y6006250D01*
G75*
G02*
X4543750Y6225000I218750J0D01*
G01*
X5056250Y6225000D01*
G75*
G02*
X5275000Y6006250I0J-218750D01*
G01*
X5275000Y5568750D01*
G75*
G02*
X5056250Y5350000I-218750J0D01*
G01*
G37*
G36*
G01*
X5056250Y3775000D02*
X4543750Y3775000D01*
G75*
G02*
X4325000Y3993750I0J218750D01*
G01*
X4325000Y4431250D01*
G75*
G02*
X4543750Y4650000I218750J0D01*
G01*
X5056250Y4650000D01*
G75*
G02*
X5275000Y4431250I0J-218750D01*
G01*
X5275000Y3993750D01*
G75*
G02*
X5056250Y3775000I-218750J0D01*
G01*
G37*
%TD*%
%TO.C,D1*%
G36*
G01*
X-4543750Y5350000D02*
X-5056250Y5350000D01*
G75*
G02*
X-5275000Y5568750I0J218750D01*
G01*
X-5275000Y6006250D01*
G75*
G02*
X-5056250Y6225000I218750J0D01*
G01*
X-4543750Y6225000D01*
G75*
G02*
X-4325000Y6006250I0J-218750D01*
G01*
X-4325000Y5568750D01*
G75*
G02*
X-4543750Y5350000I-218750J0D01*
G01*
G37*
G36*
G01*
X-4543750Y3775000D02*
X-5056250Y3775000D01*
G75*
G02*
X-5275000Y3993750I0J218750D01*
G01*
X-5275000Y4431250D01*
G75*
G02*
X-5056250Y4650000I218750J0D01*
G01*
X-4543750Y4650000D01*
G75*
G02*
X-4325000Y4431250I0J-218750D01*
G01*
X-4325000Y3993750D01*
G75*
G02*
X-4543750Y3775000I-218750J0D01*
G01*
G37*
%TD*%
%TO.C,C21*%
G36*
G01*
X4425000Y7375000D02*
X4925000Y7375000D01*
G75*
G02*
X5150000Y7150000I0J-225000D01*
G01*
X5150000Y6700000D01*
G75*
G02*
X4925000Y6475000I-225000J0D01*
G01*
X4425000Y6475000D01*
G75*
G02*
X4200000Y6700000I0J225000D01*
G01*
X4200000Y7150000D01*
G75*
G02*
X4425000Y7375000I225000J0D01*
G01*
G37*
G36*
G01*
X4425000Y8925000D02*
X4925000Y8925000D01*
G75*
G02*
X5150000Y8700000I0J-225000D01*
G01*
X5150000Y8250000D01*
G75*
G02*
X4925000Y8025000I-225000J0D01*
G01*
X4425000Y8025000D01*
G75*
G02*
X4200000Y8250000I0J225000D01*
G01*
X4200000Y8700000D01*
G75*
G02*
X4425000Y8925000I225000J0D01*
G01*
G37*
%TD*%
%TO.C,C20*%
G36*
G01*
X-6250000Y7375000D02*
X-5750000Y7375000D01*
G75*
G02*
X-5525000Y7150000I0J-225000D01*
G01*
X-5525000Y6700000D01*
G75*
G02*
X-5750000Y6475000I-225000J0D01*
G01*
X-6250000Y6475000D01*
G75*
G02*
X-6475000Y6700000I0J225000D01*
G01*
X-6475000Y7150000D01*
G75*
G02*
X-6250000Y7375000I225000J0D01*
G01*
G37*
G36*
G01*
X-6250000Y8925000D02*
X-5750000Y8925000D01*
G75*
G02*
X-5525000Y8700000I0J-225000D01*
G01*
X-5525000Y8250000D01*
G75*
G02*
X-5750000Y8025000I-225000J0D01*
G01*
X-6250000Y8025000D01*
G75*
G02*
X-6475000Y8250000I0J225000D01*
G01*
X-6475000Y8700000D01*
G75*
G02*
X-6250000Y8925000I225000J0D01*
G01*
G37*
%TD*%
%TO.C,C19*%
G36*
G01*
X1540000Y2030000D02*
X1540000Y2370000D01*
G75*
G02*
X1680000Y2510000I140000J0D01*
G01*
X1960000Y2510000D01*
G75*
G02*
X2100000Y2370000I0J-140000D01*
G01*
X2100000Y2030000D01*
G75*
G02*
X1960000Y1890000I-140000J0D01*
G01*
X1680000Y1890000D01*
G75*
G02*
X1540000Y2030000I0J140000D01*
G01*
G37*
G36*
G01*
X2500000Y2030000D02*
X2500000Y2370000D01*
G75*
G02*
X2640000Y2510000I140000J0D01*
G01*
X2920000Y2510000D01*
G75*
G02*
X3060000Y2370000I0J-140000D01*
G01*
X3060000Y2030000D01*
G75*
G02*
X2920000Y1890000I-140000J0D01*
G01*
X2640000Y1890000D01*
G75*
G02*
X2500000Y2030000I0J140000D01*
G01*
G37*
%TD*%
%TO.C,C18*%
G36*
G01*
X6015000Y2820000D02*
X6015000Y2480000D01*
G75*
G02*
X5875000Y2340000I-140000J0D01*
G01*
X5595000Y2340000D01*
G75*
G02*
X5455000Y2480000I0J140000D01*
G01*
X5455000Y2820000D01*
G75*
G02*
X5595000Y2960000I140000J0D01*
G01*
X5875000Y2960000D01*
G75*
G02*
X6015000Y2820000I0J-140000D01*
G01*
G37*
G36*
G01*
X5055000Y2820000D02*
X5055000Y2480000D01*
G75*
G02*
X4915000Y2340000I-140000J0D01*
G01*
X4635000Y2340000D01*
G75*
G02*
X4495000Y2480000I0J140000D01*
G01*
X4495000Y2820000D01*
G75*
G02*
X4635000Y2960000I140000J0D01*
G01*
X4915000Y2960000D01*
G75*
G02*
X5055000Y2820000I0J-140000D01*
G01*
G37*
%TD*%
%TO.C,C17*%
G36*
G01*
X5050000Y-1780000D02*
X5050000Y-2120000D01*
G75*
G02*
X4910000Y-2260000I-140000J0D01*
G01*
X4630000Y-2260000D01*
G75*
G02*
X4490000Y-2120000I0J140000D01*
G01*
X4490000Y-1780000D01*
G75*
G02*
X4630000Y-1640000I140000J0D01*
G01*
X4910000Y-1640000D01*
G75*
G02*
X5050000Y-1780000I0J-140000D01*
G01*
G37*
G36*
G01*
X6010000Y-1780000D02*
X6010000Y-2120000D01*
G75*
G02*
X5870000Y-2260000I-140000J0D01*
G01*
X5590000Y-2260000D01*
G75*
G02*
X5450000Y-2120000I0J140000D01*
G01*
X5450000Y-1780000D01*
G75*
G02*
X5590000Y-1640000I140000J0D01*
G01*
X5870000Y-1640000D01*
G75*
G02*
X6010000Y-1780000I0J-140000D01*
G01*
G37*
%TD*%
%TO.C,C15*%
G36*
G01*
X-5680000Y-10805000D02*
X-5680000Y-11145000D01*
G75*
G02*
X-5820000Y-11285000I-140000J0D01*
G01*
X-6100000Y-11285000D01*
G75*
G02*
X-6240000Y-11145000I0J140000D01*
G01*
X-6240000Y-10805000D01*
G75*
G02*
X-6100000Y-10665000I140000J0D01*
G01*
X-5820000Y-10665000D01*
G75*
G02*
X-5680000Y-10805000I0J-140000D01*
G01*
G37*
G36*
G01*
X-4720000Y-10805000D02*
X-4720000Y-11145000D01*
G75*
G02*
X-4860000Y-11285000I-140000J0D01*
G01*
X-5140000Y-11285000D01*
G75*
G02*
X-5280000Y-11145000I0J140000D01*
G01*
X-5280000Y-10805000D01*
G75*
G02*
X-5140000Y-10665000I140000J0D01*
G01*
X-4860000Y-10665000D01*
G75*
G02*
X-4720000Y-10805000I0J-140000D01*
G01*
G37*
%TD*%
%TO.C,C14*%
G36*
G01*
X350000Y2475000D02*
X850000Y2475000D01*
G75*
G02*
X1075000Y2250000I0J-225000D01*
G01*
X1075000Y1800000D01*
G75*
G02*
X850000Y1575000I-225000J0D01*
G01*
X350000Y1575000D01*
G75*
G02*
X125000Y1800000I0J225000D01*
G01*
X125000Y2250000D01*
G75*
G02*
X350000Y2475000I225000J0D01*
G01*
G37*
G36*
G01*
X350000Y925000D02*
X850000Y925000D01*
G75*
G02*
X1075000Y700000I0J-225000D01*
G01*
X1075000Y250000D01*
G75*
G02*
X850000Y25000I-225000J0D01*
G01*
X350000Y25000D01*
G75*
G02*
X125000Y250000I0J225000D01*
G01*
X125000Y700000D01*
G75*
G02*
X350000Y925000I225000J0D01*
G01*
G37*
%TD*%
%TO.C,C13*%
G36*
G01*
X-2450000Y1150000D02*
X-2950000Y1150000D01*
G75*
G02*
X-3175000Y1375000I0J225000D01*
G01*
X-3175000Y1825000D01*
G75*
G02*
X-2950000Y2050000I225000J0D01*
G01*
X-2450000Y2050000D01*
G75*
G02*
X-2225000Y1825000I0J-225000D01*
G01*
X-2225000Y1375000D01*
G75*
G02*
X-2450000Y1150000I-225000J0D01*
G01*
G37*
G36*
G01*
X-2450000Y-400000D02*
X-2950000Y-400000D01*
G75*
G02*
X-3175000Y-175000I0J225000D01*
G01*
X-3175000Y275000D01*
G75*
G02*
X-2950000Y500000I225000J0D01*
G01*
X-2450000Y500000D01*
G75*
G02*
X-2225000Y275000I0J-225000D01*
G01*
X-2225000Y-175000D01*
G75*
G02*
X-2450000Y-400000I-225000J0D01*
G01*
G37*
%TD*%
%TO.C,C12*%
G36*
G01*
X-470000Y-9600000D02*
X-130000Y-9600000D01*
G75*
G02*
X10000Y-9740000I0J-140000D01*
G01*
X10000Y-10020000D01*
G75*
G02*
X-130000Y-10160000I-140000J0D01*
G01*
X-470000Y-10160000D01*
G75*
G02*
X-610000Y-10020000I0J140000D01*
G01*
X-610000Y-9740000D01*
G75*
G02*
X-470000Y-9600000I140000J0D01*
G01*
G37*
G36*
G01*
X-470000Y-8640000D02*
X-130000Y-8640000D01*
G75*
G02*
X10000Y-8780000I0J-140000D01*
G01*
X10000Y-9060000D01*
G75*
G02*
X-130000Y-9200000I-140000J0D01*
G01*
X-470000Y-9200000D01*
G75*
G02*
X-610000Y-9060000I0J140000D01*
G01*
X-610000Y-8780000D01*
G75*
G02*
X-470000Y-8640000I140000J0D01*
G01*
G37*
%TD*%
%TO.C,C11*%
G36*
G01*
X6170000Y-7950000D02*
X6510000Y-7950000D01*
G75*
G02*
X6650000Y-8090000I0J-140000D01*
G01*
X6650000Y-8370000D01*
G75*
G02*
X6510000Y-8510000I-140000J0D01*
G01*
X6170000Y-8510000D01*
G75*
G02*
X6030000Y-8370000I0J140000D01*
G01*
X6030000Y-8090000D01*
G75*
G02*
X6170000Y-7950000I140000J0D01*
G01*
G37*
G36*
G01*
X6170000Y-8910000D02*
X6510000Y-8910000D01*
G75*
G02*
X6650000Y-9050000I0J-140000D01*
G01*
X6650000Y-9330000D01*
G75*
G02*
X6510000Y-9470000I-140000J0D01*
G01*
X6170000Y-9470000D01*
G75*
G02*
X6030000Y-9330000I0J140000D01*
G01*
X6030000Y-9050000D01*
G75*
G02*
X6170000Y-8910000I140000J0D01*
G01*
G37*
%TD*%
%TO.C,C10*%
G36*
G01*
X3122218Y-668198D02*
X2881802Y-427782D01*
G75*
G02*
X2881802Y-229792I98995J98995D01*
G01*
X3079792Y-31802D01*
G75*
G02*
X3277782Y-31802I98995J-98995D01*
G01*
X3518198Y-272218D01*
G75*
G02*
X3518198Y-470208I-98995J-98995D01*
G01*
X3320208Y-668198D01*
G75*
G02*
X3122218Y-668198I-98995J98995D01*
G01*
G37*
G36*
G01*
X2443396Y-1347020D02*
X2202980Y-1106604D01*
G75*
G02*
X2202980Y-908614I98995J98995D01*
G01*
X2400970Y-710624D01*
G75*
G02*
X2598960Y-710624I98995J-98995D01*
G01*
X2839376Y-951040D01*
G75*
G02*
X2839376Y-1149030I-98995J-98995D01*
G01*
X2641386Y-1347020D01*
G75*
G02*
X2443396Y-1347020I-98995J98995D01*
G01*
G37*
%TD*%
%TO.C,C9*%
G36*
G01*
X1050000Y-8850000D02*
X1050000Y-9190000D01*
G75*
G02*
X910000Y-9330000I-140000J0D01*
G01*
X630000Y-9330000D01*
G75*
G02*
X490000Y-9190000I0J140000D01*
G01*
X490000Y-8850000D01*
G75*
G02*
X630000Y-8710000I140000J0D01*
G01*
X910000Y-8710000D01*
G75*
G02*
X1050000Y-8850000I0J-140000D01*
G01*
G37*
G36*
G01*
X2010000Y-8850000D02*
X2010000Y-9190000D01*
G75*
G02*
X1870000Y-9330000I-140000J0D01*
G01*
X1590000Y-9330000D01*
G75*
G02*
X1450000Y-9190000I0J140000D01*
G01*
X1450000Y-8850000D01*
G75*
G02*
X1590000Y-8710000I140000J0D01*
G01*
X1870000Y-8710000D01*
G75*
G02*
X2010000Y-8850000I0J-140000D01*
G01*
G37*
%TD*%
%TO.C,C8*%
G36*
G01*
X-1960000Y-345000D02*
X-1960000Y-5000D01*
G75*
G02*
X-1820000Y135000I140000J0D01*
G01*
X-1540000Y135000D01*
G75*
G02*
X-1400000Y-5000I0J-140000D01*
G01*
X-1400000Y-345000D01*
G75*
G02*
X-1540000Y-485000I-140000J0D01*
G01*
X-1820000Y-485000D01*
G75*
G02*
X-1960000Y-345000I0J140000D01*
G01*
G37*
G36*
G01*
X-1000000Y-345000D02*
X-1000000Y-5000D01*
G75*
G02*
X-860000Y135000I140000J0D01*
G01*
X-580000Y135000D01*
G75*
G02*
X-440000Y-5000I0J-140000D01*
G01*
X-440000Y-345000D01*
G75*
G02*
X-580000Y-485000I-140000J0D01*
G01*
X-860000Y-485000D01*
G75*
G02*
X-1000000Y-345000I0J140000D01*
G01*
G37*
%TD*%
%TO.C,C7*%
G36*
G01*
X5700000Y-3820000D02*
X5700000Y-3480000D01*
G75*
G02*
X5840000Y-3340000I140000J0D01*
G01*
X6120000Y-3340000D01*
G75*
G02*
X6260000Y-3480000I0J-140000D01*
G01*
X6260000Y-3820000D01*
G75*
G02*
X6120000Y-3960000I-140000J0D01*
G01*
X5840000Y-3960000D01*
G75*
G02*
X5700000Y-3820000I0J140000D01*
G01*
G37*
G36*
G01*
X4740000Y-3820000D02*
X4740000Y-3480000D01*
G75*
G02*
X4880000Y-3340000I140000J0D01*
G01*
X5160000Y-3340000D01*
G75*
G02*
X5300000Y-3480000I0J-140000D01*
G01*
X5300000Y-3820000D01*
G75*
G02*
X5160000Y-3960000I-140000J0D01*
G01*
X4880000Y-3960000D01*
G75*
G02*
X4740000Y-3820000I0J140000D01*
G01*
G37*
%TD*%
%TO.C,C6*%
G36*
G01*
X5300000Y-7030000D02*
X5300000Y-7370000D01*
G75*
G02*
X5160000Y-7510000I-140000J0D01*
G01*
X4880000Y-7510000D01*
G75*
G02*
X4740000Y-7370000I0J140000D01*
G01*
X4740000Y-7030000D01*
G75*
G02*
X4880000Y-6890000I140000J0D01*
G01*
X5160000Y-6890000D01*
G75*
G02*
X5300000Y-7030000I0J-140000D01*
G01*
G37*
G36*
G01*
X6260000Y-7030000D02*
X6260000Y-7370000D01*
G75*
G02*
X6120000Y-7510000I-140000J0D01*
G01*
X5840000Y-7510000D01*
G75*
G02*
X5700000Y-7370000I0J140000D01*
G01*
X5700000Y-7030000D01*
G75*
G02*
X5840000Y-6890000I140000J0D01*
G01*
X6120000Y-6890000D01*
G75*
G02*
X6260000Y-7030000I0J-140000D01*
G01*
G37*
%TD*%
%TO.C,C5*%
G36*
G01*
X4870000Y-11170000D02*
X4870000Y-10830000D01*
G75*
G02*
X5010000Y-10690000I140000J0D01*
G01*
X5290000Y-10690000D01*
G75*
G02*
X5430000Y-10830000I0J-140000D01*
G01*
X5430000Y-11170000D01*
G75*
G02*
X5290000Y-11310000I-140000J0D01*
G01*
X5010000Y-11310000D01*
G75*
G02*
X4870000Y-11170000I0J140000D01*
G01*
G37*
G36*
G01*
X3910000Y-11170000D02*
X3910000Y-10830000D01*
G75*
G02*
X4050000Y-10690000I140000J0D01*
G01*
X4330000Y-10690000D01*
G75*
G02*
X4470000Y-10830000I0J-140000D01*
G01*
X4470000Y-11170000D01*
G75*
G02*
X4330000Y-11310000I-140000J0D01*
G01*
X4050000Y-11310000D01*
G75*
G02*
X3910000Y-11170000I0J140000D01*
G01*
G37*
%TD*%
%TO.C,C4*%
G36*
G01*
X3755000Y-1670000D02*
X4095000Y-1670000D01*
G75*
G02*
X4235000Y-1810000I0J-140000D01*
G01*
X4235000Y-2090000D01*
G75*
G02*
X4095000Y-2230000I-140000J0D01*
G01*
X3755000Y-2230000D01*
G75*
G02*
X3615000Y-2090000I0J140000D01*
G01*
X3615000Y-1810000D01*
G75*
G02*
X3755000Y-1670000I140000J0D01*
G01*
G37*
G36*
G01*
X3755000Y-2630000D02*
X4095000Y-2630000D01*
G75*
G02*
X4235000Y-2770000I0J-140000D01*
G01*
X4235000Y-3050000D01*
G75*
G02*
X4095000Y-3190000I-140000J0D01*
G01*
X3755000Y-3190000D01*
G75*
G02*
X3615000Y-3050000I0J140000D01*
G01*
X3615000Y-2770000D01*
G75*
G02*
X3755000Y-2630000I140000J0D01*
G01*
G37*
%TD*%
%TO.C,C3*%
G36*
G01*
X-4705000Y-8345000D02*
X-4705000Y-8005000D01*
G75*
G02*
X-4565000Y-7865000I140000J0D01*
G01*
X-4285000Y-7865000D01*
G75*
G02*
X-4145000Y-8005000I0J-140000D01*
G01*
X-4145000Y-8345000D01*
G75*
G02*
X-4285000Y-8485000I-140000J0D01*
G01*
X-4565000Y-8485000D01*
G75*
G02*
X-4705000Y-8345000I0J140000D01*
G01*
G37*
G36*
G01*
X-5665000Y-8345000D02*
X-5665000Y-8005000D01*
G75*
G02*
X-5525000Y-7865000I140000J0D01*
G01*
X-5245000Y-7865000D01*
G75*
G02*
X-5105000Y-8005000I0J-140000D01*
G01*
X-5105000Y-8345000D01*
G75*
G02*
X-5245000Y-8485000I-140000J0D01*
G01*
X-5525000Y-8485000D01*
G75*
G02*
X-5665000Y-8345000I0J140000D01*
G01*
G37*
%TD*%
%TO.C,C2*%
G36*
G01*
X-1400000Y-855000D02*
X-1400000Y-1195000D01*
G75*
G02*
X-1540000Y-1335000I-140000J0D01*
G01*
X-1820000Y-1335000D01*
G75*
G02*
X-1960000Y-1195000I0J140000D01*
G01*
X-1960000Y-855000D01*
G75*
G02*
X-1820000Y-715000I140000J0D01*
G01*
X-1540000Y-715000D01*
G75*
G02*
X-1400000Y-855000I0J-140000D01*
G01*
G37*
G36*
G01*
X-440000Y-855000D02*
X-440000Y-1195000D01*
G75*
G02*
X-580000Y-1335000I-140000J0D01*
G01*
X-860000Y-1335000D01*
G75*
G02*
X-1000000Y-1195000I0J140000D01*
G01*
X-1000000Y-855000D01*
G75*
G02*
X-860000Y-715000I140000J0D01*
G01*
X-580000Y-715000D01*
G75*
G02*
X-440000Y-855000I0J-140000D01*
G01*
G37*
%TD*%
%TO.C,C1*%
G36*
G01*
X-2750000Y-9375000D02*
X-2750000Y-9875000D01*
G75*
G02*
X-2975000Y-10100000I-225000J0D01*
G01*
X-3425000Y-10100000D01*
G75*
G02*
X-3650000Y-9875000I0J225000D01*
G01*
X-3650000Y-9375000D01*
G75*
G02*
X-3425000Y-9150000I225000J0D01*
G01*
X-2975000Y-9150000D01*
G75*
G02*
X-2750000Y-9375000I0J-225000D01*
G01*
G37*
G36*
G01*
X-1200000Y-9375000D02*
X-1200000Y-9875000D01*
G75*
G02*
X-1425000Y-10100000I-225000J0D01*
G01*
X-1875000Y-10100000D01*
G75*
G02*
X-2100000Y-9875000I0J225000D01*
G01*
X-2100000Y-9375000D01*
G75*
G02*
X-1875000Y-9150000I225000J0D01*
G01*
X-1425000Y-9150000D01*
G75*
G02*
X-1200000Y-9375000I0J-225000D01*
G01*
G37*
%TD*%
M02*
