M48
; DRILL file {KiCad (5.1.9)-1} date 05/18/21 20:38:57
; FORMAT={-:-/ absolute / metric / decimal}
; #@! TF.CreationDate,2021-05-18T20:38:57+08:00
; #@! TF.GenerationSoftware,Kicad,Pcbnew,(5.1.9)-1
; #@! TF.FileFunction,Plated,1,4,PTH
FMAT,2
METRIC
T1C0.200
T2C0.250
T3C0.300
T4C0.600
T5C0.813
%
G90
G05
T1
X-3.425Y4.425
X-3.425Y3.325
T2
X-7.62Y13.96
X-7.62Y11.42
X-7.62Y8.88
X-7.62Y6.34
X-7.62Y3.8
X-7.62Y1.26
X-7.62Y-1.28
X-7.62Y-3.82
X-7.62Y-6.36
X-7.62Y-8.9
X-6.225Y3.725
X-5.875Y-4.025
X-5.725Y-2.65
X-5.4Y-10.475
X-5.3Y-4.5
X-5.06Y-7.725
X-4.65Y-1.95
X-4.65Y-2.6
X-4.575Y10.175
X-4.525Y-9.5
X-4.275Y7.325
X-4.1Y-7.725
X-3.975Y-3.025
X-3.825Y-5.5
X-3.75Y2.45
X-3.575Y-8.25
X-3.475Y7.35
X-3.2Y9.55
X-3.15Y6.375
X-2.6Y-6.8
X-2.512Y7.688
X-2.5Y-2.75
X-2.4Y9.7
X-2.375Y5.275
X-1.75Y7.85
X-1.75Y-8.05
X-1.75Y-8.85
X-1.75Y-9.6
X-1.7Y9.7
X-1.65Y2.875
X-1.6Y5.25
X-1.5Y-1.65
X-1.35Y-0.375
X-1.225Y1.25
X-1.1Y8.932
X-0.8Y5.275
X-0.525Y-10.4
X-0.5Y8.4
X-0.25Y-9.8
X-0.25Y-11.025
X-0.05Y-6.65
X0.0Y4.1
X0.225Y9.1
X0.5Y-7.05
X0.75Y-0.25
X0.975Y7.675
X1.075Y5.7
X1.175Y8.325
X1.35Y9.175
X2.0Y-7.9
X2.2Y6.875
X2.275Y6.075
X2.5Y1.0
X2.525Y-11.1
X2.775Y-6.75
X3.15Y-8.925
X3.275Y-2.025
X3.775Y-4.725
X3.775Y-5.675
X4.05Y9.625
X4.325Y-4.1
X4.575Y10.175
X4.875Y-3.1
X4.925Y7.65
X4.95Y-1.55
X5.225Y0.2
X5.5Y4.925
X6.05Y4.3
X7.62Y13.96
X7.62Y11.42
X7.62Y8.88
X7.62Y6.34
X7.62Y3.8
X7.62Y1.26
X7.62Y-1.28
X7.62Y-3.82
X7.62Y-6.36
X7.62Y-8.9
T3
X-1.212Y-2.788
X-1.212Y-4.0
X-1.212Y-5.212
X0.0Y-2.788
X0.0Y-4.0
X0.0Y-5.212
X1.212Y-2.788
X1.212Y-4.0
X1.212Y-5.212
T5
X-7.62Y15.23
X-7.62Y12.69
X-7.62Y10.15
X-7.62Y7.61
X-7.62Y5.07
X-7.62Y2.53
X-7.62Y-0.01
X-7.62Y-2.55
X-7.62Y-5.09
X-7.62Y-7.63
X-7.62Y-10.17
X-7.62Y-12.71
X-7.62Y-15.25
X7.62Y15.23
X7.62Y12.69
X7.62Y10.15
X7.62Y7.61
X7.62Y5.07
X7.62Y2.53
X7.62Y-0.01
X7.62Y-2.55
X7.62Y-5.09
X7.62Y-7.63
X7.62Y-10.17
X7.62Y-12.71
X7.62Y-15.25
T4
X-5.575Y15.973G85X-5.575Y14.773
G05
X-5.575Y11.873G85X-5.575Y11.073
G05
X5.576Y15.973G85X5.576Y14.773
G05
X5.576Y11.823G85X5.576Y11.123
G05
T0
M30
