%TF.GenerationSoftware,KiCad,Pcbnew,(5.1.9)-1*%
%TF.CreationDate,2021-05-18T22:21:05+08:00*%
%TF.ProjectId,mikoto,6d696b6f-746f-42e6-9b69-6361645f7063,rev?*%
%TF.SameCoordinates,Original*%
%TF.FileFunction,Copper,L2,Inr*%
%TF.FilePolarity,Positive*%
%FSLAX46Y46*%
G04 Gerber Fmt 4.6, Leading zero omitted, Abs format (unit mm)*
G04 Created by KiCad (PCBNEW (5.1.9)-1) date 2021-05-18 22:21:05*
%MOMM*%
%LPD*%
G01*
G04 APERTURE LIST*
%TA.AperFunction,ComponentPad*%
%ADD10C,1.524000*%
%TD*%
%TA.AperFunction,ComponentPad*%
%ADD11O,1.000000X2.200000*%
%TD*%
%TA.AperFunction,ComponentPad*%
%ADD12O,1.000000X1.800000*%
%TD*%
%TA.AperFunction,ViaPad*%
%ADD13C,0.500000*%
%TD*%
%TA.AperFunction,ViaPad*%
%ADD14C,0.600000*%
%TD*%
%TA.AperFunction,Conductor*%
%ADD15C,0.150000*%
%TD*%
%TA.AperFunction,Conductor*%
%ADD16C,0.100000*%
%TD*%
G04 APERTURE END LIST*
D10*
%TO.N,P0.06*%
%TO.C,U4*%
X-7620000Y12690000D03*
%TO.N,P0.08*%
X-7620000Y10150000D03*
%TO.N,GND*%
X-7620000Y7610000D03*
X-7620000Y5070000D03*
%TO.N,P0.17*%
X-7620000Y2530000D03*
%TO.N,P0.20*%
X-7620000Y-10000D03*
%TO.N,P0.22*%
X-7620000Y-2550000D03*
%TO.N,P0.24*%
X-7620000Y-5090000D03*
%TO.N,P1.00*%
X-7620000Y-7630000D03*
%TO.N,P0.31*%
X-7620000Y-10170000D03*
%TO.N,P1.04*%
X-7620000Y-12710000D03*
%TO.N,P1.06*%
X-7620000Y-15250000D03*
%TO.N,P0.09*%
X7620000Y-15250000D03*
%TO.N,P0.10*%
X7620000Y-12710000D03*
%TO.N,P1.11*%
X7620000Y-10170000D03*
%TO.N,P1.13*%
X7620000Y-7630000D03*
%TO.N,P1.15*%
X7620000Y-5090000D03*
%TO.N,P0.02*%
X7620000Y-2550000D03*
%TO.N,P0.25*%
X7620000Y-10000D03*
%TO.N,P0.11*%
X7620000Y2530000D03*
%TO.N,PPH_VCC*%
X7620000Y5070000D03*
%TO.N,RESET*%
X7620000Y7610000D03*
%TO.N,GND*%
X7620000Y10150000D03*
%TO.N,VBAT*%
X7620000Y12690000D03*
%TD*%
%TO.N,VBUS*%
%TO.C,J2*%
X7620000Y15230000D03*
%TD*%
%TO.N,EXT_5V*%
%TO.C,J3*%
X-7620000Y15230000D03*
%TD*%
D11*
%TO.N,Net-(J1-PadS1)*%
%TO.C,J1*%
X-5575000Y15373200D03*
X5575600Y15373200D03*
D12*
X5575600Y11473200D03*
X-5575000Y11473200D03*
%TD*%
D13*
%TO.N,VDD_NRF*%
X-4100000Y-7725000D03*
X-5300000Y-4500000D03*
X4325000Y-4100000D03*
X-1350000Y-375000D03*
X2500000Y1000000D03*
X-3825000Y2425000D03*
%TO.N,VBUS*%
X4050000Y9625000D03*
X-2399700Y9700300D03*
%TO.N,Net-(C15-Pad2)*%
X2000000Y-7900000D03*
X3275000Y-2025000D03*
%TO.N,BAT_VOLT*%
X750000Y-250000D03*
X-3575000Y-8250000D03*
%TO.N,VBAT*%
X-4525000Y-9500000D03*
X5500000Y4925000D03*
X2200000Y6875000D03*
X-2512500Y7687500D03*
%TO.N,Net-(D3-Pad1)*%
X4925000Y7650000D03*
X1075000Y5700000D03*
%TO.N,USB_D+*%
X-4650000Y-2600000D03*
X225000Y9100000D03*
X-1100000Y8932156D03*
%TO.N,USB_D-*%
X-4650000Y-1950000D03*
X-500000Y8400000D03*
%TO.N,Net-(J1-PadB5)*%
X1350000Y9175000D03*
X-1700000Y9700000D03*
%TO.N,SWD*%
X-1750000Y-8850000D03*
%TO.N,SWC*%
X-1750000Y-8050000D03*
%TO.N,RESET*%
X-2500000Y-2750000D03*
X6050000Y4300000D03*
D14*
%TO.N,GND*%
X-1212500Y-4000000D03*
X1212500Y-4000000D03*
X0Y-4000000D03*
X0Y-5212500D03*
X0Y-2787500D03*
X-1212500Y-2787500D03*
X-1212500Y-5212500D03*
X1212500Y-2787500D03*
D13*
X4575000Y10175000D03*
X-4575000Y10175000D03*
X-7620000Y-8900000D03*
D14*
X1212500Y-5212500D03*
D13*
X-7620000Y-6360000D03*
X7620000Y1260000D03*
X7620000Y3800000D03*
X7620000Y6340000D03*
X7620000Y8880000D03*
X-7620000Y8880000D03*
X-7620000Y6340000D03*
X-7620000Y3800000D03*
X-7620000Y1260000D03*
X-7620000Y-1280000D03*
X-7620000Y-3820000D03*
X-7620000Y11420000D03*
X-7620000Y13960000D03*
X7620000Y11420000D03*
X7620000Y13960000D03*
X7620000Y-3820000D03*
X7620000Y-6360000D03*
X7620000Y-8900000D03*
X7620000Y-1280000D03*
X3150000Y-8925000D03*
X-250000Y-9800000D03*
X-1750000Y-9600000D03*
X-5060000Y-7725000D03*
X0Y4100000D03*
X2525000Y-11100000D03*
X-250000Y-11025000D03*
X-5400000Y-10475000D03*
X-1225000Y1250000D03*
X1175000Y8325000D03*
X5225000Y200000D03*
X2275000Y6075000D03*
X4950000Y-1550000D03*
X-2425000Y4525000D03*
X-4325000Y4475000D03*
%TO.N,P0.09*%
X-50000Y-6650000D03*
%TO.N,P0.10*%
X500000Y-7050000D03*
%TO.N,P1.11*%
X2775000Y-6750000D03*
%TO.N,P1.13*%
X3775000Y-5675000D03*
%TO.N,P1.15*%
X3775000Y-4725000D03*
%TO.N,P0.31*%
X4875000Y-3100000D03*
%TO.N,P1.06*%
X-525000Y-10400000D03*
%TO.N,P0.11*%
X-1500000Y-1650000D03*
%TO.N,P0.22*%
X-3825000Y-5500000D03*
%TO.N,P0.17*%
X-5875000Y-4025000D03*
%TO.N,P0.06*%
X-800000Y5275000D03*
X-3637500Y7612500D03*
%TO.N,P0.08*%
X-4275000Y7325000D03*
X-1600000Y5250000D03*
%TO.N,PPH_VCC*%
X-1525000Y2925000D03*
%TO.N,PPH_VCC_CTRL*%
X-3975000Y-3025000D03*
X-4325000Y3525000D03*
%TO.N,Net-(D1-Pad2)*%
X-5720000Y-2545000D03*
X-6425000Y3675000D03*
%TO.N,EXT_5V*%
X975000Y7675000D03*
X-1750000Y7850000D03*
X-3200000Y9550000D03*
%TO.N,P0.25*%
X-2600000Y-6800000D03*
%TD*%
D15*
%TO.N,GND*%
X-6180731Y16377936D02*
X-6248053Y16251987D01*
X-6289509Y16115324D01*
X-6300000Y16008806D01*
X-6299999Y14737593D01*
X-6289508Y14631075D01*
X-6248052Y14494412D01*
X-6180730Y14368463D01*
X-6090131Y14258068D01*
X-5979736Y14167469D01*
X-5853787Y14100147D01*
X-5717124Y14058691D01*
X-5575000Y14044693D01*
X-5432875Y14058691D01*
X-5296212Y14100147D01*
X-5170263Y14167469D01*
X-5059868Y14258068D01*
X-4969269Y14368463D01*
X-4901947Y14494412D01*
X-4860491Y14631075D01*
X-4850000Y14737593D01*
X-4849999Y12062284D01*
X-4850000Y12062274D01*
X-4850000Y11908807D01*
X-4860491Y12015325D01*
X-4901947Y12151988D01*
X-4969269Y12277937D01*
X-5059869Y12388332D01*
X-5170264Y12478931D01*
X-5296213Y12546253D01*
X-5432876Y12587709D01*
X-5575000Y12601707D01*
X-5717125Y12587709D01*
X-5853788Y12546253D01*
X-5979737Y12478931D01*
X-6090132Y12388331D01*
X-6180731Y12277936D01*
X-6248053Y12151987D01*
X-6289509Y12015324D01*
X-6300000Y11908806D01*
X-6300000Y11037593D01*
X-6289509Y10931075D01*
X-6248052Y10794412D01*
X-6180730Y10668463D01*
X-6090131Y10558068D01*
X-5979736Y10467469D01*
X-5853787Y10400147D01*
X-5717124Y10358691D01*
X-5575000Y10344693D01*
X-5432875Y10358691D01*
X-5296212Y10400147D01*
X-5170263Y10467469D01*
X-5059868Y10558068D01*
X-4969269Y10668463D01*
X-4901947Y10794412D01*
X-4860491Y10931075D01*
X-4850000Y11037593D01*
X-4850000Y11137726D01*
X-4846382Y11100992D01*
X-4832087Y11053866D01*
X-4808873Y11010436D01*
X-4777632Y10972368D01*
X-4739564Y10941127D01*
X-4696134Y10917913D01*
X-4649008Y10903618D01*
X-4612275Y10900000D01*
X-4600000Y10898791D01*
X-4587725Y10900000D01*
X4587725Y10900000D01*
X4600000Y10898791D01*
X4612275Y10900000D01*
X4649008Y10903618D01*
X4696134Y10917913D01*
X4739564Y10941127D01*
X4777632Y10972368D01*
X4808873Y11010436D01*
X4832087Y11053866D01*
X4846382Y11100992D01*
X4850600Y11143817D01*
X4850600Y11037593D01*
X4861091Y10931075D01*
X4902548Y10794412D01*
X4969870Y10668463D01*
X5060469Y10558068D01*
X5170864Y10467469D01*
X5296813Y10400147D01*
X5433476Y10358691D01*
X5575600Y10344693D01*
X5717725Y10358691D01*
X5854388Y10400147D01*
X5980337Y10467469D01*
X6090732Y10558068D01*
X6181331Y10668463D01*
X6248653Y10794412D01*
X6290109Y10931075D01*
X6300600Y11037593D01*
X6300600Y11119724D01*
X6903420Y11119724D01*
X7620000Y10403144D01*
X8336580Y11119724D01*
X8262585Y11338975D01*
X8018281Y11441491D01*
X7758670Y11494376D01*
X7493731Y11495597D01*
X7233644Y11445108D01*
X6988404Y11344849D01*
X6977415Y11338975D01*
X6903420Y11119724D01*
X6300600Y11119724D01*
X6300600Y11908807D01*
X6290109Y12015325D01*
X6248653Y12151988D01*
X6181331Y12277937D01*
X6090731Y12388332D01*
X5980336Y12478931D01*
X5854387Y12546253D01*
X5717724Y12587709D01*
X5575600Y12601707D01*
X5433475Y12587709D01*
X5296812Y12546253D01*
X5170863Y12478931D01*
X5060468Y12388331D01*
X4969869Y12277936D01*
X4902547Y12151987D01*
X4861091Y12015324D01*
X4850600Y11908806D01*
X4850600Y11156183D01*
X4850000Y11162275D01*
X4850000Y12787211D01*
X6633000Y12787211D01*
X6633000Y12592789D01*
X6670930Y12402103D01*
X6745332Y12222480D01*
X6853347Y12060824D01*
X6990824Y11923347D01*
X7152480Y11815332D01*
X7332103Y11740930D01*
X7522789Y11703000D01*
X7717211Y11703000D01*
X7907897Y11740930D01*
X8087520Y11815332D01*
X8249176Y11923347D01*
X8386653Y12060824D01*
X8494668Y12222480D01*
X8569070Y12402103D01*
X8607000Y12592789D01*
X8607000Y12787211D01*
X8569070Y12977897D01*
X8494668Y13157520D01*
X8386653Y13319176D01*
X8249176Y13456653D01*
X8087520Y13564668D01*
X7907897Y13639070D01*
X7717211Y13677000D01*
X7522789Y13677000D01*
X7332103Y13639070D01*
X7152480Y13564668D01*
X6990824Y13456653D01*
X6853347Y13319176D01*
X6745332Y13157520D01*
X6670930Y12977897D01*
X6633000Y12787211D01*
X4850000Y12787211D01*
X4850000Y16400000D01*
X4987976Y16400000D01*
X4969869Y16377936D01*
X4902547Y16251987D01*
X4861091Y16115324D01*
X4850600Y16008806D01*
X4850601Y14737593D01*
X4861092Y14631075D01*
X4902548Y14494412D01*
X4969870Y14368463D01*
X5060469Y14258068D01*
X5170864Y14167469D01*
X5296813Y14100147D01*
X5433476Y14058691D01*
X5575600Y14044693D01*
X5717725Y14058691D01*
X5854388Y14100147D01*
X5980337Y14167469D01*
X6090732Y14258068D01*
X6181331Y14368463D01*
X6248653Y14494412D01*
X6290109Y14631075D01*
X6300600Y14737593D01*
X6300600Y15327211D01*
X6633000Y15327211D01*
X6633000Y15132789D01*
X6670930Y14942103D01*
X6745332Y14762480D01*
X6853347Y14600824D01*
X6990824Y14463347D01*
X7152480Y14355332D01*
X7332103Y14280930D01*
X7522789Y14243000D01*
X7717211Y14243000D01*
X7907897Y14280930D01*
X8087520Y14355332D01*
X8249176Y14463347D01*
X8386653Y14600824D01*
X8494668Y14762480D01*
X8569070Y14942103D01*
X8607000Y15132789D01*
X8607000Y15327211D01*
X8569070Y15517897D01*
X8494668Y15697520D01*
X8386653Y15859176D01*
X8249176Y15996653D01*
X8087520Y16104668D01*
X7907897Y16179070D01*
X7717211Y16217000D01*
X7522789Y16217000D01*
X7332103Y16179070D01*
X7152480Y16104668D01*
X6990824Y15996653D01*
X6853347Y15859176D01*
X6745332Y15697520D01*
X6670930Y15517897D01*
X6633000Y15327211D01*
X6300600Y15327211D01*
X6300600Y16008807D01*
X6290109Y16115325D01*
X6248653Y16251988D01*
X6181331Y16377937D01*
X6163224Y16400000D01*
X7607771Y16400000D01*
X7843137Y16376922D01*
X8057775Y16312119D01*
X8255739Y16206860D01*
X8429485Y16065156D01*
X8572399Y15892402D01*
X8679036Y15695181D01*
X8745338Y15480994D01*
X8770000Y15246352D01*
X8770000Y10805739D01*
X8589724Y10866580D01*
X7873144Y10150000D01*
X8589724Y9433420D01*
X8770000Y9494261D01*
X8770001Y2076367D01*
X8766441Y2064632D01*
X8765000Y2050000D01*
X8765000Y-2050000D01*
X8766441Y-2064632D01*
X8770000Y-2076364D01*
X8770001Y-11325000D01*
X5875000Y-11325000D01*
X5875000Y-10072789D01*
X6633000Y-10072789D01*
X6633000Y-10267211D01*
X6670930Y-10457897D01*
X6745332Y-10637520D01*
X6853347Y-10799176D01*
X6990824Y-10936653D01*
X7152480Y-11044668D01*
X7332103Y-11119070D01*
X7522789Y-11157000D01*
X7717211Y-11157000D01*
X7907897Y-11119070D01*
X8087520Y-11044668D01*
X8249176Y-10936653D01*
X8386653Y-10799176D01*
X8494668Y-10637520D01*
X8569070Y-10457897D01*
X8607000Y-10267211D01*
X8607000Y-10072789D01*
X8569070Y-9882103D01*
X8494668Y-9702480D01*
X8386653Y-9540824D01*
X8249176Y-9403347D01*
X8087520Y-9295332D01*
X7907897Y-9220930D01*
X7717211Y-9183000D01*
X7522789Y-9183000D01*
X7332103Y-9220930D01*
X7152480Y-9295332D01*
X6990824Y-9403347D01*
X6853347Y-9540824D01*
X6745332Y-9702480D01*
X6670930Y-9882103D01*
X6633000Y-10072789D01*
X5875000Y-10072789D01*
X5875000Y-7532789D01*
X6633000Y-7532789D01*
X6633000Y-7727211D01*
X6670930Y-7917897D01*
X6745332Y-8097520D01*
X6853347Y-8259176D01*
X6990824Y-8396653D01*
X7152480Y-8504668D01*
X7332103Y-8579070D01*
X7522789Y-8617000D01*
X7717211Y-8617000D01*
X7907897Y-8579070D01*
X8087520Y-8504668D01*
X8249176Y-8396653D01*
X8386653Y-8259176D01*
X8494668Y-8097520D01*
X8569070Y-7917897D01*
X8607000Y-7727211D01*
X8607000Y-7532789D01*
X8569070Y-7342103D01*
X8494668Y-7162480D01*
X8386653Y-7000824D01*
X8249176Y-6863347D01*
X8087520Y-6755332D01*
X7907897Y-6680930D01*
X7717211Y-6643000D01*
X7522789Y-6643000D01*
X7332103Y-6680930D01*
X7152480Y-6755332D01*
X6990824Y-6863347D01*
X6853347Y-7000824D01*
X6745332Y-7162480D01*
X6670930Y-7342103D01*
X6633000Y-7532789D01*
X5875000Y-7532789D01*
X5875000Y-7500000D01*
X5873559Y-7485368D01*
X5869291Y-7471299D01*
X5862360Y-7458332D01*
X5853033Y-7446967D01*
X5841668Y-7437640D01*
X5828701Y-7430709D01*
X5814632Y-7426441D01*
X5800000Y-7425000D01*
X793750Y-7425000D01*
X802795Y-7418956D01*
X868956Y-7352795D01*
X920939Y-7274997D01*
X956746Y-7188552D01*
X975000Y-7096783D01*
X975000Y-7003217D01*
X956746Y-6911448D01*
X920939Y-6825003D01*
X868956Y-6747205D01*
X824968Y-6703217D01*
X2300000Y-6703217D01*
X2300000Y-6796783D01*
X2318254Y-6888552D01*
X2354061Y-6974997D01*
X2406044Y-7052795D01*
X2472205Y-7118956D01*
X2550003Y-7170939D01*
X2636448Y-7206746D01*
X2728217Y-7225000D01*
X2821783Y-7225000D01*
X2913552Y-7206746D01*
X2999997Y-7170939D01*
X3077795Y-7118956D01*
X3143956Y-7052795D01*
X3195939Y-6974997D01*
X3231746Y-6888552D01*
X3250000Y-6796783D01*
X3250000Y-6703217D01*
X3231746Y-6611448D01*
X3195939Y-6525003D01*
X3143956Y-6447205D01*
X3077795Y-6381044D01*
X2999997Y-6329061D01*
X2913552Y-6293254D01*
X2821783Y-6275000D01*
X2728217Y-6275000D01*
X2636448Y-6293254D01*
X2550003Y-6329061D01*
X2472205Y-6381044D01*
X2406044Y-6447205D01*
X2354061Y-6525003D01*
X2318254Y-6611448D01*
X2300000Y-6703217D01*
X824968Y-6703217D01*
X802795Y-6681044D01*
X724997Y-6629061D01*
X638552Y-6593254D01*
X546783Y-6575000D01*
X453217Y-6575000D01*
X420675Y-6581473D01*
X406746Y-6511448D01*
X370939Y-6425003D01*
X318956Y-6347205D01*
X252795Y-6281044D01*
X174997Y-6229061D01*
X88552Y-6193254D01*
X-3217Y-6175000D01*
X-96783Y-6175000D01*
X-188552Y-6193254D01*
X-274997Y-6229061D01*
X-352795Y-6281044D01*
X-418956Y-6347205D01*
X-470939Y-6425003D01*
X-506746Y-6511448D01*
X-525000Y-6603217D01*
X-525000Y-6696783D01*
X-506746Y-6788552D01*
X-470939Y-6874997D01*
X-418956Y-6952795D01*
X-352795Y-7018956D01*
X-274997Y-7070939D01*
X-188552Y-7106746D01*
X-96783Y-7125000D01*
X-3217Y-7125000D01*
X29325Y-7118527D01*
X43254Y-7188552D01*
X79061Y-7274997D01*
X131044Y-7352795D01*
X197205Y-7418956D01*
X206250Y-7425000D01*
X0Y-7425000D01*
X-14632Y-7426441D01*
X-28701Y-7430709D01*
X-41668Y-7437640D01*
X-53033Y-7446967D01*
X-62360Y-7458332D01*
X-69291Y-7471299D01*
X-73559Y-7485368D01*
X-75000Y-7500000D01*
X-75000Y-10245162D01*
X-104061Y-10175003D01*
X-156044Y-10097205D01*
X-222205Y-10031044D01*
X-300003Y-9979061D01*
X-386448Y-9943254D01*
X-478217Y-9925000D01*
X-571783Y-9925000D01*
X-663552Y-9943254D01*
X-749997Y-9979061D01*
X-827795Y-10031044D01*
X-893956Y-10097205D01*
X-945939Y-10175003D01*
X-981746Y-10261448D01*
X-1000000Y-10353217D01*
X-1000000Y-10446783D01*
X-981746Y-10538552D01*
X-945939Y-10624997D01*
X-893956Y-10702795D01*
X-827795Y-10768956D01*
X-749997Y-10820939D01*
X-663552Y-10856746D01*
X-571783Y-10875000D01*
X-478217Y-10875000D01*
X-386448Y-10856746D01*
X-300003Y-10820939D01*
X-222205Y-10768956D01*
X-156044Y-10702795D01*
X-104061Y-10624997D01*
X-75000Y-10554838D01*
X-75000Y-11325000D01*
X-8770000Y-11325000D01*
X-8770000Y-10072789D01*
X-8607000Y-10072789D01*
X-8607000Y-10267211D01*
X-8569070Y-10457897D01*
X-8494668Y-10637520D01*
X-8386653Y-10799176D01*
X-8249176Y-10936653D01*
X-8087520Y-11044668D01*
X-7907897Y-11119070D01*
X-7717211Y-11157000D01*
X-7522789Y-11157000D01*
X-7332103Y-11119070D01*
X-7152480Y-11044668D01*
X-6990824Y-10936653D01*
X-6853347Y-10799176D01*
X-6745332Y-10637520D01*
X-6670930Y-10457897D01*
X-6633000Y-10267211D01*
X-6633000Y-10072789D01*
X-6670930Y-9882103D01*
X-6745332Y-9702480D01*
X-6853347Y-9540824D01*
X-6940954Y-9453217D01*
X-5000000Y-9453217D01*
X-5000000Y-9546783D01*
X-4981746Y-9638552D01*
X-4945939Y-9724997D01*
X-4893956Y-9802795D01*
X-4827795Y-9868956D01*
X-4749997Y-9920939D01*
X-4663552Y-9956746D01*
X-4571783Y-9975000D01*
X-4478217Y-9975000D01*
X-4386448Y-9956746D01*
X-4300003Y-9920939D01*
X-4222205Y-9868956D01*
X-4156044Y-9802795D01*
X-4104061Y-9724997D01*
X-4068254Y-9638552D01*
X-4050000Y-9546783D01*
X-4050000Y-9453217D01*
X-4068254Y-9361448D01*
X-4104061Y-9275003D01*
X-4156044Y-9197205D01*
X-4222205Y-9131044D01*
X-4300003Y-9079061D01*
X-4386448Y-9043254D01*
X-4478217Y-9025000D01*
X-4571783Y-9025000D01*
X-4663552Y-9043254D01*
X-4749997Y-9079061D01*
X-4827795Y-9131044D01*
X-4893956Y-9197205D01*
X-4945939Y-9275003D01*
X-4981746Y-9361448D01*
X-5000000Y-9453217D01*
X-6940954Y-9453217D01*
X-6990824Y-9403347D01*
X-7152480Y-9295332D01*
X-7332103Y-9220930D01*
X-7522789Y-9183000D01*
X-7717211Y-9183000D01*
X-7907897Y-9220930D01*
X-8087520Y-9295332D01*
X-8249176Y-9403347D01*
X-8386653Y-9540824D01*
X-8494668Y-9702480D01*
X-8569070Y-9882103D01*
X-8607000Y-10072789D01*
X-8770000Y-10072789D01*
X-8770000Y-7532789D01*
X-8607000Y-7532789D01*
X-8607000Y-7727211D01*
X-8569070Y-7917897D01*
X-8494668Y-8097520D01*
X-8386653Y-8259176D01*
X-8249176Y-8396653D01*
X-8087520Y-8504668D01*
X-7907897Y-8579070D01*
X-7717211Y-8617000D01*
X-7522789Y-8617000D01*
X-7332103Y-8579070D01*
X-7152480Y-8504668D01*
X-6990824Y-8396653D01*
X-6853347Y-8259176D01*
X-6745332Y-8097520D01*
X-6670930Y-7917897D01*
X-6633000Y-7727211D01*
X-6633000Y-7678217D01*
X-4575000Y-7678217D01*
X-4575000Y-7771783D01*
X-4556746Y-7863552D01*
X-4520939Y-7949997D01*
X-4468956Y-8027795D01*
X-4402795Y-8093956D01*
X-4324997Y-8145939D01*
X-4238552Y-8181746D01*
X-4146783Y-8200000D01*
X-4053217Y-8200000D01*
X-4049201Y-8199201D01*
X-4050000Y-8203217D01*
X-4050000Y-8296783D01*
X-4031746Y-8388552D01*
X-3995939Y-8474997D01*
X-3943956Y-8552795D01*
X-3877795Y-8618956D01*
X-3799997Y-8670939D01*
X-3713552Y-8706746D01*
X-3621783Y-8725000D01*
X-3528217Y-8725000D01*
X-3436448Y-8706746D01*
X-3350003Y-8670939D01*
X-3272205Y-8618956D01*
X-3206044Y-8552795D01*
X-3154061Y-8474997D01*
X-3118254Y-8388552D01*
X-3100000Y-8296783D01*
X-3100000Y-8203217D01*
X-3118254Y-8111448D01*
X-3154061Y-8025003D01*
X-3168617Y-8003217D01*
X-2225000Y-8003217D01*
X-2225000Y-8096783D01*
X-2206746Y-8188552D01*
X-2170939Y-8274997D01*
X-2118956Y-8352795D01*
X-2052795Y-8418956D01*
X-2006334Y-8450000D01*
X-2052795Y-8481044D01*
X-2118956Y-8547205D01*
X-2170939Y-8625003D01*
X-2206746Y-8711448D01*
X-2225000Y-8803217D01*
X-2225000Y-8896783D01*
X-2206746Y-8988552D01*
X-2170939Y-9074997D01*
X-2118956Y-9152795D01*
X-2052795Y-9218956D01*
X-1974997Y-9270939D01*
X-1888552Y-9306746D01*
X-1796783Y-9325000D01*
X-1703217Y-9325000D01*
X-1611448Y-9306746D01*
X-1525003Y-9270939D01*
X-1447205Y-9218956D01*
X-1381044Y-9152795D01*
X-1329061Y-9074997D01*
X-1293254Y-8988552D01*
X-1275000Y-8896783D01*
X-1275000Y-8803217D01*
X-1293254Y-8711448D01*
X-1329061Y-8625003D01*
X-1381044Y-8547205D01*
X-1447205Y-8481044D01*
X-1493666Y-8450000D01*
X-1447205Y-8418956D01*
X-1381044Y-8352795D01*
X-1329061Y-8274997D01*
X-1293254Y-8188552D01*
X-1275000Y-8096783D01*
X-1275000Y-8003217D01*
X-1293254Y-7911448D01*
X-1329061Y-7825003D01*
X-1381044Y-7747205D01*
X-1447205Y-7681044D01*
X-1525003Y-7629061D01*
X-1611448Y-7593254D01*
X-1703217Y-7575000D01*
X-1796783Y-7575000D01*
X-1888552Y-7593254D01*
X-1974997Y-7629061D01*
X-2052795Y-7681044D01*
X-2118956Y-7747205D01*
X-2170939Y-7825003D01*
X-2206746Y-7911448D01*
X-2225000Y-8003217D01*
X-3168617Y-8003217D01*
X-3206044Y-7947205D01*
X-3272205Y-7881044D01*
X-3350003Y-7829061D01*
X-3436448Y-7793254D01*
X-3528217Y-7775000D01*
X-3621783Y-7775000D01*
X-3625799Y-7775799D01*
X-3625000Y-7771783D01*
X-3625000Y-7678217D01*
X-3643254Y-7586448D01*
X-3679061Y-7500003D01*
X-3731044Y-7422205D01*
X-3797205Y-7356044D01*
X-3875003Y-7304061D01*
X-3961448Y-7268254D01*
X-4053217Y-7250000D01*
X-4146783Y-7250000D01*
X-4238552Y-7268254D01*
X-4324997Y-7304061D01*
X-4402795Y-7356044D01*
X-4468956Y-7422205D01*
X-4520939Y-7500003D01*
X-4556746Y-7586448D01*
X-4575000Y-7678217D01*
X-6633000Y-7678217D01*
X-6633000Y-7532789D01*
X-6670930Y-7342103D01*
X-6745332Y-7162480D01*
X-6853347Y-7000824D01*
X-6990824Y-6863347D01*
X-7152480Y-6755332D01*
X-7157586Y-6753217D01*
X-3075000Y-6753217D01*
X-3075000Y-6846783D01*
X-3056746Y-6938552D01*
X-3020939Y-7024997D01*
X-2968956Y-7102795D01*
X-2902795Y-7168956D01*
X-2824997Y-7220939D01*
X-2738552Y-7256746D01*
X-2646783Y-7275000D01*
X-2553217Y-7275000D01*
X-2461448Y-7256746D01*
X-2375003Y-7220939D01*
X-2297205Y-7168956D01*
X-2231044Y-7102795D01*
X-2179061Y-7024997D01*
X-2143254Y-6938552D01*
X-2125000Y-6846783D01*
X-2125000Y-6753217D01*
X-2143254Y-6661448D01*
X-2179061Y-6575003D01*
X-2231044Y-6497205D01*
X-2297205Y-6431044D01*
X-2375003Y-6379061D01*
X-2461448Y-6343254D01*
X-2553217Y-6325000D01*
X-2646783Y-6325000D01*
X-2738552Y-6343254D01*
X-2824997Y-6379061D01*
X-2902795Y-6431044D01*
X-2968956Y-6497205D01*
X-3020939Y-6575003D01*
X-3056746Y-6661448D01*
X-3075000Y-6753217D01*
X-7157586Y-6753217D01*
X-7332103Y-6680930D01*
X-7522789Y-6643000D01*
X-7717211Y-6643000D01*
X-7907897Y-6680930D01*
X-8087520Y-6755332D01*
X-8249176Y-6863347D01*
X-8386653Y-7000824D01*
X-8494668Y-7162480D01*
X-8569070Y-7342103D01*
X-8607000Y-7532789D01*
X-8770000Y-7532789D01*
X-8770000Y-4992789D01*
X-8607000Y-4992789D01*
X-8607000Y-5187211D01*
X-8569070Y-5377897D01*
X-8494668Y-5557520D01*
X-8386653Y-5719176D01*
X-8249176Y-5856653D01*
X-8087520Y-5964668D01*
X-7907897Y-6039070D01*
X-7717211Y-6077000D01*
X-7522789Y-6077000D01*
X-7332103Y-6039070D01*
X-7152480Y-5964668D01*
X-6990824Y-5856653D01*
X-6853347Y-5719176D01*
X-6745332Y-5557520D01*
X-6702129Y-5453217D01*
X-4300000Y-5453217D01*
X-4300000Y-5546783D01*
X-4281746Y-5638552D01*
X-4245939Y-5724997D01*
X-4193956Y-5802795D01*
X-4127795Y-5868956D01*
X-4049997Y-5920939D01*
X-3963552Y-5956746D01*
X-3871783Y-5975000D01*
X-3778217Y-5975000D01*
X-3686448Y-5956746D01*
X-3600003Y-5920939D01*
X-3522205Y-5868956D01*
X-3456044Y-5802795D01*
X-3404061Y-5724997D01*
X-3368254Y-5638552D01*
X-3350000Y-5546783D01*
X-3350000Y-5453217D01*
X-3368254Y-5361448D01*
X-3404061Y-5275003D01*
X-3456044Y-5197205D01*
X-3522205Y-5131044D01*
X-3600003Y-5079061D01*
X-3686448Y-5043254D01*
X-3778217Y-5025000D01*
X-3871783Y-5025000D01*
X-3963552Y-5043254D01*
X-4049997Y-5079061D01*
X-4127795Y-5131044D01*
X-4193956Y-5197205D01*
X-4245939Y-5275003D01*
X-4281746Y-5361448D01*
X-4300000Y-5453217D01*
X-6702129Y-5453217D01*
X-6670930Y-5377897D01*
X-6633000Y-5187211D01*
X-6633000Y-4992789D01*
X-6670930Y-4802103D01*
X-6745332Y-4622480D01*
X-6853347Y-4460824D01*
X-6990824Y-4323347D01*
X-7152480Y-4215332D01*
X-7332103Y-4140930D01*
X-7522789Y-4103000D01*
X-7717211Y-4103000D01*
X-7907897Y-4140930D01*
X-8087520Y-4215332D01*
X-8249176Y-4323347D01*
X-8386653Y-4460824D01*
X-8494668Y-4622480D01*
X-8569070Y-4802103D01*
X-8607000Y-4992789D01*
X-8770000Y-4992789D01*
X-8770000Y-3978217D01*
X-6350000Y-3978217D01*
X-6350000Y-4071783D01*
X-6331746Y-4163552D01*
X-6295939Y-4249997D01*
X-6243956Y-4327795D01*
X-6177795Y-4393956D01*
X-6099997Y-4445939D01*
X-6013552Y-4481746D01*
X-5921783Y-4500000D01*
X-5828217Y-4500000D01*
X-5775000Y-4489414D01*
X-5775000Y-4546783D01*
X-5756746Y-4638552D01*
X-5720939Y-4724997D01*
X-5668956Y-4802795D01*
X-5602795Y-4868956D01*
X-5524997Y-4920939D01*
X-5438552Y-4956746D01*
X-5346783Y-4975000D01*
X-5253217Y-4975000D01*
X-5161448Y-4956746D01*
X-5075003Y-4920939D01*
X-4997205Y-4868956D01*
X-4931044Y-4802795D01*
X-4879061Y-4724997D01*
X-4859684Y-4678217D01*
X3300000Y-4678217D01*
X3300000Y-4771783D01*
X3318254Y-4863552D01*
X3354061Y-4949997D01*
X3406044Y-5027795D01*
X3472205Y-5093956D01*
X3550003Y-5145939D01*
X3636448Y-5181746D01*
X3728217Y-5200000D01*
X3636448Y-5218254D01*
X3550003Y-5254061D01*
X3472205Y-5306044D01*
X3406044Y-5372205D01*
X3354061Y-5450003D01*
X3318254Y-5536448D01*
X3300000Y-5628217D01*
X3300000Y-5721783D01*
X3318254Y-5813552D01*
X3354061Y-5899997D01*
X3406044Y-5977795D01*
X3472205Y-6043956D01*
X3550003Y-6095939D01*
X3636448Y-6131746D01*
X3728217Y-6150000D01*
X3821783Y-6150000D01*
X3913552Y-6131746D01*
X3999997Y-6095939D01*
X4077795Y-6043956D01*
X4143956Y-5977795D01*
X4195939Y-5899997D01*
X4231746Y-5813552D01*
X4250000Y-5721783D01*
X4250000Y-5628217D01*
X4231746Y-5536448D01*
X4195939Y-5450003D01*
X4143956Y-5372205D01*
X4077795Y-5306044D01*
X3999997Y-5254061D01*
X3913552Y-5218254D01*
X3821783Y-5200000D01*
X3913552Y-5181746D01*
X3999997Y-5145939D01*
X4077795Y-5093956D01*
X4143956Y-5027795D01*
X4167346Y-4992789D01*
X6633000Y-4992789D01*
X6633000Y-5187211D01*
X6670930Y-5377897D01*
X6745332Y-5557520D01*
X6853347Y-5719176D01*
X6990824Y-5856653D01*
X7152480Y-5964668D01*
X7332103Y-6039070D01*
X7522789Y-6077000D01*
X7717211Y-6077000D01*
X7907897Y-6039070D01*
X8087520Y-5964668D01*
X8249176Y-5856653D01*
X8386653Y-5719176D01*
X8494668Y-5557520D01*
X8569070Y-5377897D01*
X8607000Y-5187211D01*
X8607000Y-4992789D01*
X8569070Y-4802103D01*
X8494668Y-4622480D01*
X8386653Y-4460824D01*
X8249176Y-4323347D01*
X8087520Y-4215332D01*
X7907897Y-4140930D01*
X7717211Y-4103000D01*
X7522789Y-4103000D01*
X7332103Y-4140930D01*
X7152480Y-4215332D01*
X6990824Y-4323347D01*
X6853347Y-4460824D01*
X6745332Y-4622480D01*
X6670930Y-4802103D01*
X6633000Y-4992789D01*
X4167346Y-4992789D01*
X4195939Y-4949997D01*
X4231746Y-4863552D01*
X4250000Y-4771783D01*
X4250000Y-4678217D01*
X4231746Y-4586448D01*
X4222406Y-4563898D01*
X4278217Y-4575000D01*
X4371783Y-4575000D01*
X4463552Y-4556746D01*
X4549997Y-4520939D01*
X4627795Y-4468956D01*
X4693956Y-4402795D01*
X4745939Y-4324997D01*
X4781746Y-4238552D01*
X4800000Y-4146783D01*
X4800000Y-4053217D01*
X4781746Y-3961448D01*
X4745939Y-3875003D01*
X4693956Y-3797205D01*
X4627795Y-3731044D01*
X4549997Y-3679061D01*
X4463552Y-3643254D01*
X4371783Y-3625000D01*
X4278217Y-3625000D01*
X4186448Y-3643254D01*
X4100003Y-3679061D01*
X4022205Y-3731044D01*
X3956044Y-3797205D01*
X3904061Y-3875003D01*
X3868254Y-3961448D01*
X3850000Y-4053217D01*
X3850000Y-4146783D01*
X3868254Y-4238552D01*
X3877594Y-4261102D01*
X3821783Y-4250000D01*
X3728217Y-4250000D01*
X3636448Y-4268254D01*
X3550003Y-4304061D01*
X3472205Y-4356044D01*
X3406044Y-4422205D01*
X3354061Y-4500003D01*
X3318254Y-4586448D01*
X3300000Y-4678217D01*
X-4859684Y-4678217D01*
X-4843254Y-4638552D01*
X-4825000Y-4546783D01*
X-4825000Y-4453217D01*
X-4843254Y-4361448D01*
X-4879061Y-4275003D01*
X-4931044Y-4197205D01*
X-4997205Y-4131044D01*
X-5075003Y-4079061D01*
X-5161448Y-4043254D01*
X-5253217Y-4025000D01*
X-5346783Y-4025000D01*
X-5400000Y-4035586D01*
X-5400000Y-3978217D01*
X-5418254Y-3886448D01*
X-5454061Y-3800003D01*
X-5506044Y-3722205D01*
X-5572205Y-3656044D01*
X-5650003Y-3604061D01*
X-5736448Y-3568254D01*
X-5828217Y-3550000D01*
X-5921783Y-3550000D01*
X-6013552Y-3568254D01*
X-6099997Y-3604061D01*
X-6177795Y-3656044D01*
X-6243956Y-3722205D01*
X-6295939Y-3800003D01*
X-6331746Y-3886448D01*
X-6350000Y-3978217D01*
X-8770000Y-3978217D01*
X-8770000Y-2452789D01*
X-8607000Y-2452789D01*
X-8607000Y-2647211D01*
X-8569070Y-2837897D01*
X-8494668Y-3017520D01*
X-8386653Y-3179176D01*
X-8249176Y-3316653D01*
X-8087520Y-3424668D01*
X-7907897Y-3499070D01*
X-7717211Y-3537000D01*
X-7522789Y-3537000D01*
X-7332103Y-3499070D01*
X-7152480Y-3424668D01*
X-6990824Y-3316653D01*
X-6853347Y-3179176D01*
X-6745332Y-3017520D01*
X-6670930Y-2837897D01*
X-6633000Y-2647211D01*
X-6633000Y-2498217D01*
X-6195000Y-2498217D01*
X-6195000Y-2591783D01*
X-6176746Y-2683552D01*
X-6140939Y-2769997D01*
X-6088956Y-2847795D01*
X-6022795Y-2913956D01*
X-5944997Y-2965939D01*
X-5858552Y-3001746D01*
X-5766783Y-3020000D01*
X-5673217Y-3020000D01*
X-5581448Y-3001746D01*
X-5495003Y-2965939D01*
X-5417205Y-2913956D01*
X-5351044Y-2847795D01*
X-5299061Y-2769997D01*
X-5263254Y-2683552D01*
X-5245000Y-2591783D01*
X-5245000Y-2498217D01*
X-5263254Y-2406448D01*
X-5299061Y-2320003D01*
X-5351044Y-2242205D01*
X-5417205Y-2176044D01*
X-5495003Y-2124061D01*
X-5581448Y-2088254D01*
X-5673217Y-2070000D01*
X-5766783Y-2070000D01*
X-5858552Y-2088254D01*
X-5944997Y-2124061D01*
X-6022795Y-2176044D01*
X-6088956Y-2242205D01*
X-6140939Y-2320003D01*
X-6176746Y-2406448D01*
X-6195000Y-2498217D01*
X-6633000Y-2498217D01*
X-6633000Y-2452789D01*
X-6670930Y-2262103D01*
X-6745332Y-2082480D01*
X-6853347Y-1920824D01*
X-6870954Y-1903217D01*
X-5125000Y-1903217D01*
X-5125000Y-1996783D01*
X-5106746Y-2088552D01*
X-5070939Y-2174997D01*
X-5018956Y-2252795D01*
X-4996751Y-2275000D01*
X-5018956Y-2297205D01*
X-5070939Y-2375003D01*
X-5106746Y-2461448D01*
X-5125000Y-2553217D01*
X-5125000Y-2646783D01*
X-5106746Y-2738552D01*
X-5070939Y-2824997D01*
X-5018956Y-2902795D01*
X-4952795Y-2968956D01*
X-4874997Y-3020939D01*
X-4788552Y-3056746D01*
X-4696783Y-3075000D01*
X-4603217Y-3075000D01*
X-4511448Y-3056746D01*
X-4450000Y-3031293D01*
X-4450000Y-3071783D01*
X-4431746Y-3163552D01*
X-4395939Y-3249997D01*
X-4343956Y-3327795D01*
X-4277795Y-3393956D01*
X-4199997Y-3445939D01*
X-4113552Y-3481746D01*
X-4021783Y-3500000D01*
X-3928217Y-3500000D01*
X-3836448Y-3481746D01*
X-3750003Y-3445939D01*
X-3672205Y-3393956D01*
X-3606044Y-3327795D01*
X-3554061Y-3249997D01*
X-3518254Y-3163552D01*
X-3500000Y-3071783D01*
X-3500000Y-2978217D01*
X-3518254Y-2886448D01*
X-3554061Y-2800003D01*
X-3606044Y-2722205D01*
X-3625032Y-2703217D01*
X-2975000Y-2703217D01*
X-2975000Y-2796783D01*
X-2956746Y-2888552D01*
X-2920939Y-2974997D01*
X-2868956Y-3052795D01*
X-2802795Y-3118956D01*
X-2724997Y-3170939D01*
X-2638552Y-3206746D01*
X-2546783Y-3225000D01*
X-2453217Y-3225000D01*
X-2361448Y-3206746D01*
X-2275003Y-3170939D01*
X-2197205Y-3118956D01*
X-2131466Y-3053217D01*
X4400000Y-3053217D01*
X4400000Y-3146783D01*
X4418254Y-3238552D01*
X4454061Y-3324997D01*
X4506044Y-3402795D01*
X4572205Y-3468956D01*
X4650003Y-3520939D01*
X4736448Y-3556746D01*
X4828217Y-3575000D01*
X4921783Y-3575000D01*
X5013552Y-3556746D01*
X5099997Y-3520939D01*
X5177795Y-3468956D01*
X5243956Y-3402795D01*
X5295939Y-3324997D01*
X5331746Y-3238552D01*
X5350000Y-3146783D01*
X5350000Y-3053217D01*
X5331746Y-2961448D01*
X5295939Y-2875003D01*
X5243956Y-2797205D01*
X5177795Y-2731044D01*
X5099997Y-2679061D01*
X5013552Y-2643254D01*
X4921783Y-2625000D01*
X4828217Y-2625000D01*
X4736448Y-2643254D01*
X4650003Y-2679061D01*
X4572205Y-2731044D01*
X4506044Y-2797205D01*
X4454061Y-2875003D01*
X4418254Y-2961448D01*
X4400000Y-3053217D01*
X-2131466Y-3053217D01*
X-2131044Y-3052795D01*
X-2079061Y-2974997D01*
X-2043254Y-2888552D01*
X-2025000Y-2796783D01*
X-2025000Y-2703217D01*
X-2043254Y-2611448D01*
X-2079061Y-2525003D01*
X-2131044Y-2447205D01*
X-2197205Y-2381044D01*
X-2275003Y-2329061D01*
X-2361448Y-2293254D01*
X-2453217Y-2275000D01*
X-2546783Y-2275000D01*
X-2638552Y-2293254D01*
X-2724997Y-2329061D01*
X-2802795Y-2381044D01*
X-2868956Y-2447205D01*
X-2920939Y-2525003D01*
X-2956746Y-2611448D01*
X-2975000Y-2703217D01*
X-3625032Y-2703217D01*
X-3672205Y-2656044D01*
X-3750003Y-2604061D01*
X-3836448Y-2568254D01*
X-3928217Y-2550000D01*
X-4021783Y-2550000D01*
X-4113552Y-2568254D01*
X-4175000Y-2593707D01*
X-4175000Y-2553217D01*
X-4193254Y-2461448D01*
X-4229061Y-2375003D01*
X-4281044Y-2297205D01*
X-4303249Y-2275000D01*
X-4281044Y-2252795D01*
X-4229061Y-2174997D01*
X-4193254Y-2088552D01*
X-4175000Y-1996783D01*
X-4175000Y-1903217D01*
X-4193254Y-1811448D01*
X-4229061Y-1725003D01*
X-4281044Y-1647205D01*
X-4325032Y-1603217D01*
X-1975000Y-1603217D01*
X-1975000Y-1696783D01*
X-1956746Y-1788552D01*
X-1920939Y-1874997D01*
X-1868956Y-1952795D01*
X-1802795Y-2018956D01*
X-1724997Y-2070939D01*
X-1638552Y-2106746D01*
X-1546783Y-2125000D01*
X-1453217Y-2125000D01*
X-1361448Y-2106746D01*
X-1275003Y-2070939D01*
X-1197205Y-2018956D01*
X-1156466Y-1978217D01*
X2800000Y-1978217D01*
X2800000Y-2071783D01*
X2818254Y-2163552D01*
X2854061Y-2249997D01*
X2906044Y-2327795D01*
X2972205Y-2393956D01*
X3050003Y-2445939D01*
X3136448Y-2481746D01*
X3228217Y-2500000D01*
X3321783Y-2500000D01*
X3413552Y-2481746D01*
X3483459Y-2452789D01*
X6633000Y-2452789D01*
X6633000Y-2647211D01*
X6670930Y-2837897D01*
X6745332Y-3017520D01*
X6853347Y-3179176D01*
X6990824Y-3316653D01*
X7152480Y-3424668D01*
X7332103Y-3499070D01*
X7522789Y-3537000D01*
X7717211Y-3537000D01*
X7907897Y-3499070D01*
X8087520Y-3424668D01*
X8249176Y-3316653D01*
X8386653Y-3179176D01*
X8494668Y-3017520D01*
X8569070Y-2837897D01*
X8607000Y-2647211D01*
X8607000Y-2452789D01*
X8569070Y-2262103D01*
X8494668Y-2082480D01*
X8386653Y-1920824D01*
X8249176Y-1783347D01*
X8087520Y-1675332D01*
X7907897Y-1600930D01*
X7717211Y-1563000D01*
X7522789Y-1563000D01*
X7332103Y-1600930D01*
X7152480Y-1675332D01*
X6990824Y-1783347D01*
X6853347Y-1920824D01*
X6745332Y-2082480D01*
X6670930Y-2262103D01*
X6633000Y-2452789D01*
X3483459Y-2452789D01*
X3499997Y-2445939D01*
X3577795Y-2393956D01*
X3643956Y-2327795D01*
X3695939Y-2249997D01*
X3731746Y-2163552D01*
X3750000Y-2071783D01*
X3750000Y-1978217D01*
X3731746Y-1886448D01*
X3695939Y-1800003D01*
X3643956Y-1722205D01*
X3577795Y-1656044D01*
X3499997Y-1604061D01*
X3413552Y-1568254D01*
X3321783Y-1550000D01*
X3228217Y-1550000D01*
X3136448Y-1568254D01*
X3050003Y-1604061D01*
X2972205Y-1656044D01*
X2906044Y-1722205D01*
X2854061Y-1800003D01*
X2818254Y-1886448D01*
X2800000Y-1978217D01*
X-1156466Y-1978217D01*
X-1131044Y-1952795D01*
X-1079061Y-1874997D01*
X-1043254Y-1788552D01*
X-1025000Y-1696783D01*
X-1025000Y-1603217D01*
X-1043254Y-1511448D01*
X-1079061Y-1425003D01*
X-1131044Y-1347205D01*
X-1197205Y-1281044D01*
X-1275003Y-1229061D01*
X-1361448Y-1193254D01*
X-1453217Y-1175000D01*
X-1546783Y-1175000D01*
X-1638552Y-1193254D01*
X-1724997Y-1229061D01*
X-1802795Y-1281044D01*
X-1868956Y-1347205D01*
X-1920939Y-1425003D01*
X-1956746Y-1511448D01*
X-1975000Y-1603217D01*
X-4325032Y-1603217D01*
X-4347205Y-1581044D01*
X-4425003Y-1529061D01*
X-4511448Y-1493254D01*
X-4603217Y-1475000D01*
X-4696783Y-1475000D01*
X-4788552Y-1493254D01*
X-4874997Y-1529061D01*
X-4952795Y-1581044D01*
X-5018956Y-1647205D01*
X-5070939Y-1725003D01*
X-5106746Y-1811448D01*
X-5125000Y-1903217D01*
X-6870954Y-1903217D01*
X-6990824Y-1783347D01*
X-7152480Y-1675332D01*
X-7332103Y-1600930D01*
X-7522789Y-1563000D01*
X-7717211Y-1563000D01*
X-7907897Y-1600930D01*
X-8087520Y-1675332D01*
X-8249176Y-1783347D01*
X-8386653Y-1920824D01*
X-8494668Y-2082480D01*
X-8569070Y-2262103D01*
X-8607000Y-2452789D01*
X-8770000Y-2452789D01*
X-8770000Y-2076364D01*
X-8766441Y-2064632D01*
X-8765000Y-2050000D01*
X-8765000Y87211D01*
X-8607000Y87211D01*
X-8607000Y-107211D01*
X-8569070Y-297897D01*
X-8494668Y-477520D01*
X-8386653Y-639176D01*
X-8249176Y-776653D01*
X-8087520Y-884668D01*
X-7907897Y-959070D01*
X-7717211Y-997000D01*
X-7522789Y-997000D01*
X-7332103Y-959070D01*
X-7152480Y-884668D01*
X-6990824Y-776653D01*
X-6853347Y-639176D01*
X-6745332Y-477520D01*
X-6683489Y-328217D01*
X-1825000Y-328217D01*
X-1825000Y-421783D01*
X-1806746Y-513552D01*
X-1770939Y-599997D01*
X-1718956Y-677795D01*
X-1652795Y-743956D01*
X-1574997Y-795939D01*
X-1488552Y-831746D01*
X-1396783Y-850000D01*
X-1303217Y-850000D01*
X-1211448Y-831746D01*
X-1125003Y-795939D01*
X-1047205Y-743956D01*
X-981044Y-677795D01*
X-929061Y-599997D01*
X-893254Y-513552D01*
X-875000Y-421783D01*
X-875000Y-328217D01*
X-893254Y-236448D01*
X-907018Y-203217D01*
X275000Y-203217D01*
X275000Y-296783D01*
X293254Y-388552D01*
X329061Y-474997D01*
X381044Y-552795D01*
X447205Y-618956D01*
X525003Y-670939D01*
X611448Y-706746D01*
X703217Y-725000D01*
X796783Y-725000D01*
X888552Y-706746D01*
X974997Y-670939D01*
X1052795Y-618956D01*
X1118956Y-552795D01*
X1170939Y-474997D01*
X1206746Y-388552D01*
X1225000Y-296783D01*
X1225000Y-203217D01*
X1206746Y-111448D01*
X1170939Y-25003D01*
X1118956Y52795D01*
X1084540Y87211D01*
X6633000Y87211D01*
X6633000Y-107211D01*
X6670930Y-297897D01*
X6745332Y-477520D01*
X6853347Y-639176D01*
X6990824Y-776653D01*
X7152480Y-884668D01*
X7332103Y-959070D01*
X7522789Y-997000D01*
X7717211Y-997000D01*
X7907897Y-959070D01*
X8087520Y-884668D01*
X8249176Y-776653D01*
X8386653Y-639176D01*
X8494668Y-477520D01*
X8569070Y-297897D01*
X8607000Y-107211D01*
X8607000Y87211D01*
X8569070Y277897D01*
X8494668Y457520D01*
X8386653Y619176D01*
X8249176Y756653D01*
X8087520Y864668D01*
X7907897Y939070D01*
X7717211Y977000D01*
X7522789Y977000D01*
X7332103Y939070D01*
X7152480Y864668D01*
X6990824Y756653D01*
X6853347Y619176D01*
X6745332Y457520D01*
X6670930Y277897D01*
X6633000Y87211D01*
X1084540Y87211D01*
X1052795Y118956D01*
X974997Y170939D01*
X888552Y206746D01*
X796783Y225000D01*
X703217Y225000D01*
X611448Y206746D01*
X525003Y170939D01*
X447205Y118956D01*
X381044Y52795D01*
X329061Y-25003D01*
X293254Y-111448D01*
X275000Y-203217D01*
X-907018Y-203217D01*
X-929061Y-150003D01*
X-981044Y-72205D01*
X-1047205Y-6044D01*
X-1125003Y45939D01*
X-1211448Y81746D01*
X-1303217Y100000D01*
X-1396783Y100000D01*
X-1488552Y81746D01*
X-1574997Y45939D01*
X-1652795Y-6044D01*
X-1718956Y-72205D01*
X-1770939Y-150003D01*
X-1806746Y-236448D01*
X-1825000Y-328217D01*
X-6683489Y-328217D01*
X-6670930Y-297897D01*
X-6633000Y-107211D01*
X-6633000Y87211D01*
X-6670930Y277897D01*
X-6745332Y457520D01*
X-6853347Y619176D01*
X-6990824Y756653D01*
X-7152480Y864668D01*
X-7332103Y939070D01*
X-7522789Y977000D01*
X-7717211Y977000D01*
X-7907897Y939070D01*
X-8087520Y864668D01*
X-8249176Y756653D01*
X-8386653Y619176D01*
X-8494668Y457520D01*
X-8569070Y277897D01*
X-8607000Y87211D01*
X-8765000Y87211D01*
X-8765000Y1046783D01*
X2025000Y1046783D01*
X2025000Y953217D01*
X2043254Y861448D01*
X2079061Y775003D01*
X2131044Y697205D01*
X2197205Y631044D01*
X2275003Y579061D01*
X2361448Y543254D01*
X2453217Y525000D01*
X2546783Y525000D01*
X2638552Y543254D01*
X2724997Y579061D01*
X2802795Y631044D01*
X2868956Y697205D01*
X2920939Y775003D01*
X2956746Y861448D01*
X2975000Y953217D01*
X2975000Y1046783D01*
X2956746Y1138552D01*
X2920939Y1224997D01*
X2868956Y1302795D01*
X2802795Y1368956D01*
X2724997Y1420939D01*
X2638552Y1456746D01*
X2546783Y1475000D01*
X2453217Y1475000D01*
X2361448Y1456746D01*
X2275003Y1420939D01*
X2197205Y1368956D01*
X2131044Y1302795D01*
X2079061Y1224997D01*
X2043254Y1138552D01*
X2025000Y1046783D01*
X-8765000Y1046783D01*
X-8765000Y2050000D01*
X-8766441Y2064632D01*
X-8770000Y2076364D01*
X-8770000Y2627211D01*
X-8607000Y2627211D01*
X-8607000Y2432789D01*
X-8569070Y2242103D01*
X-8494668Y2062480D01*
X-8386653Y1900824D01*
X-8249176Y1763347D01*
X-8087520Y1655332D01*
X-7907897Y1580930D01*
X-7717211Y1543000D01*
X-7522789Y1543000D01*
X-7332103Y1580930D01*
X-7152480Y1655332D01*
X-6990824Y1763347D01*
X-6853347Y1900824D01*
X-6745332Y2062480D01*
X-6670930Y2242103D01*
X-6633000Y2432789D01*
X-6633000Y2471783D01*
X-4300000Y2471783D01*
X-4300000Y2378217D01*
X-4281746Y2286448D01*
X-4245939Y2200003D01*
X-4193956Y2122205D01*
X-4127795Y2056044D01*
X-4049997Y2004061D01*
X-3963552Y1968254D01*
X-3871783Y1950000D01*
X-3778217Y1950000D01*
X-3686448Y1968254D01*
X-3600003Y2004061D01*
X-3522205Y2056044D01*
X-3456044Y2122205D01*
X-3404061Y2200003D01*
X-3368254Y2286448D01*
X-3350000Y2378217D01*
X-3350000Y2471783D01*
X-3368254Y2563552D01*
X-3404061Y2649997D01*
X-3456044Y2727795D01*
X-3522205Y2793956D01*
X-3600003Y2845939D01*
X-3686448Y2881746D01*
X-3778217Y2900000D01*
X-3871783Y2900000D01*
X-3963552Y2881746D01*
X-4049997Y2845939D01*
X-4127795Y2793956D01*
X-4193956Y2727795D01*
X-4245939Y2649997D01*
X-4281746Y2563552D01*
X-4300000Y2471783D01*
X-6633000Y2471783D01*
X-6633000Y2627211D01*
X-6670930Y2817897D01*
X-6734671Y2971783D01*
X-2000000Y2971783D01*
X-2000000Y2878217D01*
X-1981746Y2786448D01*
X-1945939Y2700003D01*
X-1893956Y2622205D01*
X-1827795Y2556044D01*
X-1749997Y2504061D01*
X-1663552Y2468254D01*
X-1571783Y2450000D01*
X-1478217Y2450000D01*
X-1386448Y2468254D01*
X-1300003Y2504061D01*
X-1222205Y2556044D01*
X-1156044Y2622205D01*
X-1104061Y2700003D01*
X-1068254Y2786448D01*
X-1050000Y2878217D01*
X-1050000Y2971783D01*
X-1068254Y3063552D01*
X-1104061Y3149997D01*
X-1156044Y3227795D01*
X-1222205Y3293956D01*
X-1300003Y3345939D01*
X-1386448Y3381746D01*
X-1478217Y3400000D01*
X-1571783Y3400000D01*
X-1663552Y3381746D01*
X-1749997Y3345939D01*
X-1827795Y3293956D01*
X-1893956Y3227795D01*
X-1945939Y3149997D01*
X-1981746Y3063552D01*
X-2000000Y2971783D01*
X-6734671Y2971783D01*
X-6745332Y2997520D01*
X-6853347Y3159176D01*
X-6990824Y3296653D01*
X-7152480Y3404668D01*
X-7332103Y3479070D01*
X-7522789Y3517000D01*
X-7717211Y3517000D01*
X-7907897Y3479070D01*
X-8087520Y3404668D01*
X-8249176Y3296653D01*
X-8386653Y3159176D01*
X-8494668Y2997520D01*
X-8569070Y2817897D01*
X-8607000Y2627211D01*
X-8770000Y2627211D01*
X-8770000Y3721783D01*
X-6900000Y3721783D01*
X-6900000Y3628217D01*
X-6881746Y3536448D01*
X-6845939Y3450003D01*
X-6793956Y3372205D01*
X-6727795Y3306044D01*
X-6649997Y3254061D01*
X-6563552Y3218254D01*
X-6471783Y3200000D01*
X-6378217Y3200000D01*
X-6286448Y3218254D01*
X-6200003Y3254061D01*
X-6122205Y3306044D01*
X-6056044Y3372205D01*
X-6004061Y3450003D01*
X-5968254Y3536448D01*
X-5961226Y3571783D01*
X-4800000Y3571783D01*
X-4800000Y3478217D01*
X-4781746Y3386448D01*
X-4745939Y3300003D01*
X-4693956Y3222205D01*
X-4627795Y3156044D01*
X-4549997Y3104061D01*
X-4463552Y3068254D01*
X-4371783Y3050000D01*
X-4278217Y3050000D01*
X-4186448Y3068254D01*
X-4100003Y3104061D01*
X-4022205Y3156044D01*
X-3956044Y3222205D01*
X-3904061Y3300003D01*
X-3868254Y3386448D01*
X-3850000Y3478217D01*
X-3850000Y3571783D01*
X-3868254Y3663552D01*
X-3904061Y3749997D01*
X-3956044Y3827795D01*
X-4022205Y3893956D01*
X-4100003Y3945939D01*
X-4186448Y3981746D01*
X-4278217Y4000000D01*
X-4371783Y4000000D01*
X-4463552Y3981746D01*
X-4549997Y3945939D01*
X-4627795Y3893956D01*
X-4693956Y3827795D01*
X-4745939Y3749997D01*
X-4781746Y3663552D01*
X-4800000Y3571783D01*
X-5961226Y3571783D01*
X-5950000Y3628217D01*
X-5950000Y3721783D01*
X-5968254Y3813552D01*
X-6004061Y3899997D01*
X-6056044Y3977795D01*
X-6122205Y4043956D01*
X-6200003Y4095939D01*
X-6286448Y4131746D01*
X-6378217Y4150000D01*
X-6471783Y4150000D01*
X-6563552Y4131746D01*
X-6649997Y4095939D01*
X-6727795Y4043956D01*
X-6793956Y3977795D01*
X-6845939Y3899997D01*
X-6881746Y3813552D01*
X-6900000Y3721783D01*
X-8770000Y3721783D01*
X-8770000Y4100276D01*
X-8336580Y4100276D01*
X-8262585Y3881025D01*
X-8018281Y3778509D01*
X-7758670Y3725624D01*
X-7493731Y3724403D01*
X-7233644Y3774892D01*
X-6988404Y3875151D01*
X-6977415Y3881025D01*
X-6903420Y4100276D01*
X-7128144Y4325000D01*
X-500000Y4325000D01*
X-500000Y2275000D01*
X-498559Y2260368D01*
X-494291Y2246299D01*
X-487360Y2233332D01*
X-478033Y2221967D01*
X-466668Y2212640D01*
X-453701Y2205709D01*
X-439632Y2201441D01*
X-425000Y2200000D01*
X4225000Y2200000D01*
X4239632Y2201441D01*
X4253701Y2205709D01*
X4266668Y2212640D01*
X4278033Y2221967D01*
X4287360Y2233332D01*
X4294291Y2246299D01*
X4298559Y2260368D01*
X4300000Y2275000D01*
X4300000Y2550000D01*
X6300000Y2550000D01*
X6314632Y2551441D01*
X6328701Y2555709D01*
X6341668Y2562640D01*
X6353033Y2571967D01*
X6362360Y2583332D01*
X6369291Y2596299D01*
X6373559Y2610368D01*
X6375000Y2625000D01*
X6375000Y2627211D01*
X6633000Y2627211D01*
X6633000Y2432789D01*
X6670930Y2242103D01*
X6745332Y2062480D01*
X6853347Y1900824D01*
X6990824Y1763347D01*
X7152480Y1655332D01*
X7332103Y1580930D01*
X7522789Y1543000D01*
X7717211Y1543000D01*
X7907897Y1580930D01*
X8087520Y1655332D01*
X8249176Y1763347D01*
X8386653Y1900824D01*
X8494668Y2062480D01*
X8569070Y2242103D01*
X8607000Y2432789D01*
X8607000Y2627211D01*
X8569070Y2817897D01*
X8494668Y2997520D01*
X8386653Y3159176D01*
X8249176Y3296653D01*
X8087520Y3404668D01*
X7907897Y3479070D01*
X7717211Y3517000D01*
X7522789Y3517000D01*
X7332103Y3479070D01*
X7152480Y3404668D01*
X6990824Y3296653D01*
X6853347Y3159176D01*
X6745332Y2997520D01*
X6670930Y2817897D01*
X6633000Y2627211D01*
X6375000Y2627211D01*
X6375000Y3575000D01*
X6373559Y3589632D01*
X6369291Y3603701D01*
X6362360Y3616668D01*
X6353033Y3628033D01*
X6341668Y3637360D01*
X6328701Y3644291D01*
X6314632Y3648559D01*
X6300000Y3650000D01*
X4300000Y3650000D01*
X4300000Y4325000D01*
X4298559Y4339632D01*
X4294291Y4353701D01*
X4287360Y4366668D01*
X4278033Y4378033D01*
X4266668Y4387360D01*
X4253701Y4394291D01*
X4239632Y4398559D01*
X4225000Y4400000D01*
X-425000Y4400000D01*
X-439632Y4398559D01*
X-453701Y4394291D01*
X-466668Y4387360D01*
X-478033Y4378033D01*
X-487360Y4366668D01*
X-494291Y4353701D01*
X-498559Y4339632D01*
X-500000Y4325000D01*
X-7128144Y4325000D01*
X-7620000Y4816856D01*
X-8336580Y4100276D01*
X-8770000Y4100276D01*
X-8770000Y4414261D01*
X-8589724Y4353420D01*
X-7873144Y5070000D01*
X-7366856Y5070000D01*
X-6650276Y4353420D01*
X-6431025Y4427415D01*
X-6328509Y4671719D01*
X-6275624Y4931330D01*
X-6274403Y5196269D01*
X-6293915Y5296783D01*
X-2075000Y5296783D01*
X-2075000Y5203217D01*
X-2056746Y5111448D01*
X-2020939Y5025003D01*
X-1968956Y4947205D01*
X-1902795Y4881044D01*
X-1824997Y4829061D01*
X-1738552Y4793254D01*
X-1646783Y4775000D01*
X-1553217Y4775000D01*
X-1461448Y4793254D01*
X-1375003Y4829061D01*
X-1297205Y4881044D01*
X-1231044Y4947205D01*
X-1191648Y5006166D01*
X-1168956Y4972205D01*
X-1102795Y4906044D01*
X-1024997Y4854061D01*
X-938552Y4818254D01*
X-846783Y4800000D01*
X-753217Y4800000D01*
X-661448Y4818254D01*
X-575003Y4854061D01*
X-497205Y4906044D01*
X-431466Y4971783D01*
X5025000Y4971783D01*
X5025000Y4878217D01*
X5043254Y4786448D01*
X5079061Y4700003D01*
X5131044Y4622205D01*
X5197205Y4556044D01*
X5275003Y4504061D01*
X5361448Y4468254D01*
X5453217Y4450000D01*
X5546783Y4450000D01*
X5602594Y4461102D01*
X5593254Y4438552D01*
X5575000Y4346783D01*
X5575000Y4253217D01*
X5593254Y4161448D01*
X5629061Y4075003D01*
X5681044Y3997205D01*
X5747205Y3931044D01*
X5825003Y3879061D01*
X5911448Y3843254D01*
X6003217Y3825000D01*
X6096783Y3825000D01*
X6188552Y3843254D01*
X6274997Y3879061D01*
X6352795Y3931044D01*
X6418956Y3997205D01*
X6470939Y4075003D01*
X6506746Y4161448D01*
X6525000Y4253217D01*
X6525000Y4346783D01*
X6506746Y4438552D01*
X6470939Y4524997D01*
X6418956Y4602795D01*
X6352795Y4668956D01*
X6274997Y4720939D01*
X6188552Y4756746D01*
X6096783Y4775000D01*
X6003217Y4775000D01*
X5947406Y4763898D01*
X5956746Y4786448D01*
X5975000Y4878217D01*
X5975000Y4971783D01*
X5956746Y5063552D01*
X5920939Y5149997D01*
X5909437Y5167211D01*
X6633000Y5167211D01*
X6633000Y4972789D01*
X6670930Y4782103D01*
X6745332Y4602480D01*
X6853347Y4440824D01*
X6990824Y4303347D01*
X7152480Y4195332D01*
X7332103Y4120930D01*
X7522789Y4083000D01*
X7717211Y4083000D01*
X7907897Y4120930D01*
X8087520Y4195332D01*
X8249176Y4303347D01*
X8386653Y4440824D01*
X8494668Y4602480D01*
X8569070Y4782103D01*
X8607000Y4972789D01*
X8607000Y5167211D01*
X8569070Y5357897D01*
X8494668Y5537520D01*
X8386653Y5699176D01*
X8249176Y5836653D01*
X8087520Y5944668D01*
X7907897Y6019070D01*
X7717211Y6057000D01*
X7522789Y6057000D01*
X7332103Y6019070D01*
X7152480Y5944668D01*
X6990824Y5836653D01*
X6853347Y5699176D01*
X6745332Y5537520D01*
X6670930Y5357897D01*
X6633000Y5167211D01*
X5909437Y5167211D01*
X5868956Y5227795D01*
X5802795Y5293956D01*
X5724997Y5345939D01*
X5638552Y5381746D01*
X5546783Y5400000D01*
X5453217Y5400000D01*
X5361448Y5381746D01*
X5275003Y5345939D01*
X5197205Y5293956D01*
X5131044Y5227795D01*
X5079061Y5149997D01*
X5043254Y5063552D01*
X5025000Y4971783D01*
X-431466Y4971783D01*
X-431044Y4972205D01*
X-379061Y5050003D01*
X-343254Y5136448D01*
X-325000Y5228217D01*
X-325000Y5321783D01*
X-343254Y5413552D01*
X-379061Y5499997D01*
X-431044Y5577795D01*
X-497205Y5643956D01*
X-575003Y5695939D01*
X-661448Y5731746D01*
X-737044Y5746783D01*
X600000Y5746783D01*
X600000Y5653217D01*
X618254Y5561448D01*
X654061Y5475003D01*
X706044Y5397205D01*
X772205Y5331044D01*
X850003Y5279061D01*
X936448Y5243254D01*
X1028217Y5225000D01*
X1121783Y5225000D01*
X1213552Y5243254D01*
X1299997Y5279061D01*
X1377795Y5331044D01*
X1443956Y5397205D01*
X1495939Y5475003D01*
X1531746Y5561448D01*
X1550000Y5653217D01*
X1550000Y5746783D01*
X1531746Y5838552D01*
X1495939Y5924997D01*
X1443956Y6002795D01*
X1377795Y6068956D01*
X1299997Y6120939D01*
X1213552Y6156746D01*
X1121783Y6175000D01*
X1028217Y6175000D01*
X936448Y6156746D01*
X850003Y6120939D01*
X772205Y6068956D01*
X706044Y6002795D01*
X654061Y5924997D01*
X618254Y5838552D01*
X600000Y5746783D01*
X-737044Y5746783D01*
X-753217Y5750000D01*
X-846783Y5750000D01*
X-938552Y5731746D01*
X-1024997Y5695939D01*
X-1102795Y5643956D01*
X-1168956Y5577795D01*
X-1208352Y5518834D01*
X-1231044Y5552795D01*
X-1297205Y5618956D01*
X-1375003Y5670939D01*
X-1461448Y5706746D01*
X-1553217Y5725000D01*
X-1646783Y5725000D01*
X-1738552Y5706746D01*
X-1824997Y5670939D01*
X-1902795Y5618956D01*
X-1968956Y5552795D01*
X-2020939Y5474997D01*
X-2056746Y5388552D01*
X-2075000Y5296783D01*
X-6293915Y5296783D01*
X-6324892Y5456356D01*
X-6425151Y5701596D01*
X-6431025Y5712585D01*
X-6650276Y5786580D01*
X-7366856Y5070000D01*
X-7873144Y5070000D01*
X-8589724Y5786580D01*
X-8770000Y5725739D01*
X-8770000Y6640276D01*
X-8336580Y6640276D01*
X-8262585Y6421025D01*
X-8068645Y6339643D01*
X-8251596Y6264849D01*
X-8262585Y6258975D01*
X-8336580Y6039724D01*
X-7620000Y5323144D01*
X-6903420Y6039724D01*
X-6977415Y6258975D01*
X-7171355Y6340357D01*
X-6988404Y6415151D01*
X-6977415Y6421025D01*
X-6903420Y6640276D01*
X-7620000Y7356856D01*
X-8336580Y6640276D01*
X-8770000Y6640276D01*
X-8770000Y6954261D01*
X-8589724Y6893420D01*
X-7873144Y7610000D01*
X-7366856Y7610000D01*
X-6650276Y6893420D01*
X-6431025Y6967415D01*
X-6328509Y7211719D01*
X-6295903Y7371783D01*
X-4750000Y7371783D01*
X-4750000Y7278217D01*
X-4731746Y7186448D01*
X-4695939Y7100003D01*
X-4643956Y7022205D01*
X-4577795Y6956044D01*
X-4499997Y6904061D01*
X-4413552Y6868254D01*
X-4321783Y6850000D01*
X-4228217Y6850000D01*
X-4136448Y6868254D01*
X-4050003Y6904061D01*
X-4023481Y6921783D01*
X1725000Y6921783D01*
X1725000Y6828217D01*
X1743254Y6736448D01*
X1779061Y6650003D01*
X1831044Y6572205D01*
X1897205Y6506044D01*
X1975003Y6454061D01*
X2061448Y6418254D01*
X2153217Y6400000D01*
X2246783Y6400000D01*
X2338552Y6418254D01*
X2424997Y6454061D01*
X2502795Y6506044D01*
X2568956Y6572205D01*
X2620939Y6650003D01*
X2656746Y6736448D01*
X2675000Y6828217D01*
X2675000Y6921783D01*
X2656746Y7013552D01*
X2620939Y7099997D01*
X2568956Y7177795D01*
X2502795Y7243956D01*
X2424997Y7295939D01*
X2338552Y7331746D01*
X2246783Y7350000D01*
X2153217Y7350000D01*
X2061448Y7331746D01*
X1975003Y7295939D01*
X1897205Y7243956D01*
X1831044Y7177795D01*
X1779061Y7099997D01*
X1743254Y7013552D01*
X1725000Y6921783D01*
X-4023481Y6921783D01*
X-3972205Y6956044D01*
X-3906044Y7022205D01*
X-3854061Y7100003D01*
X-3822926Y7175170D01*
X-3776052Y7155754D01*
X-3684283Y7137500D01*
X-3590717Y7137500D01*
X-3498948Y7155754D01*
X-3412503Y7191561D01*
X-3334705Y7243544D01*
X-3268544Y7309705D01*
X-3216561Y7387503D01*
X-3180754Y7473948D01*
X-3162500Y7565717D01*
X-3162500Y7659283D01*
X-3177418Y7734283D01*
X-2987500Y7734283D01*
X-2987500Y7640717D01*
X-2969246Y7548948D01*
X-2933439Y7462503D01*
X-2881456Y7384705D01*
X-2815295Y7318544D01*
X-2737497Y7266561D01*
X-2651052Y7230754D01*
X-2559283Y7212500D01*
X-2465717Y7212500D01*
X-2373948Y7230754D01*
X-2287503Y7266561D01*
X-2209705Y7318544D01*
X-2143544Y7384705D01*
X-2091561Y7462503D01*
X-2074776Y7503025D01*
X-2052795Y7481044D01*
X-1974997Y7429061D01*
X-1888552Y7393254D01*
X-1796783Y7375000D01*
X-1703217Y7375000D01*
X-1611448Y7393254D01*
X-1525003Y7429061D01*
X-1447205Y7481044D01*
X-1381044Y7547205D01*
X-1329061Y7625003D01*
X-1293254Y7711448D01*
X-1291199Y7721783D01*
X500000Y7721783D01*
X500000Y7628217D01*
X518254Y7536448D01*
X554061Y7450003D01*
X606044Y7372205D01*
X672205Y7306044D01*
X750003Y7254061D01*
X836448Y7218254D01*
X928217Y7200000D01*
X1021783Y7200000D01*
X1113552Y7218254D01*
X1199997Y7254061D01*
X1277795Y7306044D01*
X1343956Y7372205D01*
X1395939Y7450003D01*
X1431746Y7536448D01*
X1450000Y7628217D01*
X1450000Y7696783D01*
X4450000Y7696783D01*
X4450000Y7603217D01*
X4468254Y7511448D01*
X4504061Y7425003D01*
X4556044Y7347205D01*
X4622205Y7281044D01*
X4700003Y7229061D01*
X4786448Y7193254D01*
X4878217Y7175000D01*
X4971783Y7175000D01*
X5063552Y7193254D01*
X5149997Y7229061D01*
X5227795Y7281044D01*
X5293956Y7347205D01*
X5345939Y7425003D01*
X5381746Y7511448D01*
X5400000Y7603217D01*
X5400000Y7696783D01*
X5397926Y7707211D01*
X6633000Y7707211D01*
X6633000Y7512789D01*
X6670930Y7322103D01*
X6745332Y7142480D01*
X6853347Y6980824D01*
X6990824Y6843347D01*
X7152480Y6735332D01*
X7332103Y6660930D01*
X7522789Y6623000D01*
X7717211Y6623000D01*
X7907897Y6660930D01*
X8087520Y6735332D01*
X8249176Y6843347D01*
X8386653Y6980824D01*
X8494668Y7142480D01*
X8569070Y7322103D01*
X8607000Y7512789D01*
X8607000Y7707211D01*
X8569070Y7897897D01*
X8494668Y8077520D01*
X8386653Y8239176D01*
X8249176Y8376653D01*
X8087520Y8484668D01*
X7907897Y8559070D01*
X7717211Y8597000D01*
X7522789Y8597000D01*
X7332103Y8559070D01*
X7152480Y8484668D01*
X6990824Y8376653D01*
X6853347Y8239176D01*
X6745332Y8077520D01*
X6670930Y7897897D01*
X6633000Y7707211D01*
X5397926Y7707211D01*
X5381746Y7788552D01*
X5345939Y7874997D01*
X5293956Y7952795D01*
X5227795Y8018956D01*
X5149997Y8070939D01*
X5063552Y8106746D01*
X4971783Y8125000D01*
X4878217Y8125000D01*
X4786448Y8106746D01*
X4700003Y8070939D01*
X4622205Y8018956D01*
X4556044Y7952795D01*
X4504061Y7874997D01*
X4468254Y7788552D01*
X4450000Y7696783D01*
X1450000Y7696783D01*
X1450000Y7721783D01*
X1431746Y7813552D01*
X1395939Y7899997D01*
X1343956Y7977795D01*
X1277795Y8043956D01*
X1199997Y8095939D01*
X1113552Y8131746D01*
X1021783Y8150000D01*
X928217Y8150000D01*
X836448Y8131746D01*
X750003Y8095939D01*
X672205Y8043956D01*
X606044Y7977795D01*
X554061Y7899997D01*
X518254Y7813552D01*
X500000Y7721783D01*
X-1291199Y7721783D01*
X-1275000Y7803217D01*
X-1275000Y7896783D01*
X-1293254Y7988552D01*
X-1329061Y8074997D01*
X-1381044Y8152795D01*
X-1447205Y8218956D01*
X-1525003Y8270939D01*
X-1611448Y8306746D01*
X-1703217Y8325000D01*
X-1796783Y8325000D01*
X-1888552Y8306746D01*
X-1974997Y8270939D01*
X-2052795Y8218956D01*
X-2118956Y8152795D01*
X-2170939Y8074997D01*
X-2187724Y8034475D01*
X-2209705Y8056456D01*
X-2287503Y8108439D01*
X-2373948Y8144246D01*
X-2465717Y8162500D01*
X-2559283Y8162500D01*
X-2651052Y8144246D01*
X-2737497Y8108439D01*
X-2815295Y8056456D01*
X-2881456Y7990295D01*
X-2933439Y7912497D01*
X-2969246Y7826052D01*
X-2987500Y7734283D01*
X-3177418Y7734283D01*
X-3180754Y7751052D01*
X-3216561Y7837497D01*
X-3268544Y7915295D01*
X-3334705Y7981456D01*
X-3412503Y8033439D01*
X-3498948Y8069246D01*
X-3590717Y8087500D01*
X-3684283Y8087500D01*
X-3776052Y8069246D01*
X-3862497Y8033439D01*
X-3940295Y7981456D01*
X-4006456Y7915295D01*
X-4058439Y7837497D01*
X-4089574Y7762330D01*
X-4136448Y7781746D01*
X-4228217Y7800000D01*
X-4321783Y7800000D01*
X-4413552Y7781746D01*
X-4499997Y7745939D01*
X-4577795Y7693956D01*
X-4643956Y7627795D01*
X-4695939Y7549997D01*
X-4731746Y7463552D01*
X-4750000Y7371783D01*
X-6295903Y7371783D01*
X-6275624Y7471330D01*
X-6274403Y7736269D01*
X-6324892Y7996356D01*
X-6425151Y8241596D01*
X-6431025Y8252585D01*
X-6650276Y8326580D01*
X-7366856Y7610000D01*
X-7873144Y7610000D01*
X-8589724Y8326580D01*
X-8770000Y8265739D01*
X-8770000Y8579724D01*
X-8336580Y8579724D01*
X-7620000Y7863144D01*
X-6903420Y8579724D01*
X-6977415Y8798975D01*
X-7221719Y8901491D01*
X-7481330Y8954376D01*
X-7746269Y8955597D01*
X-8006356Y8905108D01*
X-8251596Y8804849D01*
X-8262585Y8798975D01*
X-8336580Y8579724D01*
X-8770000Y8579724D01*
X-8770000Y8978939D01*
X-1575000Y8978939D01*
X-1575000Y8885373D01*
X-1556746Y8793604D01*
X-1520939Y8707159D01*
X-1468956Y8629361D01*
X-1402795Y8563200D01*
X-1324997Y8511217D01*
X-1238552Y8475410D01*
X-1146783Y8457156D01*
X-1053217Y8457156D01*
X-969629Y8473783D01*
X-975000Y8446783D01*
X-975000Y8353217D01*
X-956746Y8261448D01*
X-920939Y8175003D01*
X-868956Y8097205D01*
X-802795Y8031044D01*
X-724997Y7979061D01*
X-638552Y7943254D01*
X-546783Y7925000D01*
X-453217Y7925000D01*
X-361448Y7943254D01*
X-275003Y7979061D01*
X-197205Y8031044D01*
X-131044Y8097205D01*
X-79061Y8175003D01*
X-43254Y8261448D01*
X-25000Y8353217D01*
X-25000Y8446783D01*
X-43254Y8538552D01*
X-79061Y8624997D01*
X-131044Y8702795D01*
X-197205Y8768956D01*
X-275003Y8820939D01*
X-361448Y8856746D01*
X-453217Y8875000D01*
X-546783Y8875000D01*
X-630371Y8858373D01*
X-625000Y8885373D01*
X-625000Y8978939D01*
X-643254Y9070708D01*
X-674765Y9146783D01*
X-250000Y9146783D01*
X-250000Y9053217D01*
X-231746Y8961448D01*
X-195939Y8875003D01*
X-143956Y8797205D01*
X-77795Y8731044D01*
X3Y8679061D01*
X86448Y8643254D01*
X178217Y8625000D01*
X271783Y8625000D01*
X363552Y8643254D01*
X449997Y8679061D01*
X527795Y8731044D01*
X593956Y8797205D01*
X645939Y8875003D01*
X681746Y8961448D01*
X700000Y9053217D01*
X700000Y9146783D01*
X685082Y9221783D01*
X875000Y9221783D01*
X875000Y9128217D01*
X893254Y9036448D01*
X929061Y8950003D01*
X981044Y8872205D01*
X1047205Y8806044D01*
X1125003Y8754061D01*
X1211448Y8718254D01*
X1303217Y8700000D01*
X1396783Y8700000D01*
X1488552Y8718254D01*
X1574997Y8754061D01*
X1652795Y8806044D01*
X1718956Y8872205D01*
X1770939Y8950003D01*
X1806746Y9036448D01*
X1825000Y9128217D01*
X1825000Y9221783D01*
X1806746Y9313552D01*
X1770939Y9399997D01*
X1718956Y9477795D01*
X1652795Y9543956D01*
X1574997Y9595939D01*
X1488552Y9631746D01*
X1396783Y9650000D01*
X1303217Y9650000D01*
X1211448Y9631746D01*
X1125003Y9595939D01*
X1047205Y9543956D01*
X981044Y9477795D01*
X929061Y9399997D01*
X893254Y9313552D01*
X875000Y9221783D01*
X685082Y9221783D01*
X681746Y9238552D01*
X645939Y9324997D01*
X593956Y9402795D01*
X527795Y9468956D01*
X449997Y9520939D01*
X363552Y9556746D01*
X271783Y9575000D01*
X178217Y9575000D01*
X86448Y9556746D01*
X3Y9520939D01*
X-77795Y9468956D01*
X-143956Y9402795D01*
X-195939Y9324997D01*
X-231746Y9238552D01*
X-250000Y9146783D01*
X-674765Y9146783D01*
X-679061Y9157153D01*
X-731044Y9234951D01*
X-797205Y9301112D01*
X-875003Y9353095D01*
X-961448Y9388902D01*
X-1053217Y9407156D01*
X-1146783Y9407156D01*
X-1238552Y9388902D01*
X-1324997Y9353095D01*
X-1402795Y9301112D01*
X-1468956Y9234951D01*
X-1520939Y9157153D01*
X-1556746Y9070708D01*
X-1575000Y8978939D01*
X-8770000Y8978939D01*
X-8770000Y10247211D01*
X-8607000Y10247211D01*
X-8607000Y10052789D01*
X-8569070Y9862103D01*
X-8494668Y9682480D01*
X-8386653Y9520824D01*
X-8249176Y9383347D01*
X-8087520Y9275332D01*
X-7907897Y9200930D01*
X-7717211Y9163000D01*
X-7522789Y9163000D01*
X-7332103Y9200930D01*
X-7152480Y9275332D01*
X-6990824Y9383347D01*
X-6853347Y9520824D01*
X-6802593Y9596783D01*
X-3675000Y9596783D01*
X-3675000Y9503217D01*
X-3656746Y9411448D01*
X-3620939Y9325003D01*
X-3568956Y9247205D01*
X-3502795Y9181044D01*
X-3424997Y9129061D01*
X-3338552Y9093254D01*
X-3246783Y9075000D01*
X-3153217Y9075000D01*
X-3061448Y9093254D01*
X-2975003Y9129061D01*
X-2897205Y9181044D01*
X-2831044Y9247205D01*
X-2779061Y9325003D01*
X-2754778Y9383627D01*
X-2702495Y9331344D01*
X-2624697Y9279361D01*
X-2538252Y9243554D01*
X-2446483Y9225300D01*
X-2352917Y9225300D01*
X-2261148Y9243554D01*
X-2174703Y9279361D01*
X-2096905Y9331344D01*
X-2050000Y9378249D01*
X-2002795Y9331044D01*
X-1924997Y9279061D01*
X-1838552Y9243254D01*
X-1746783Y9225000D01*
X-1653217Y9225000D01*
X-1561448Y9243254D01*
X-1475003Y9279061D01*
X-1397205Y9331044D01*
X-1331044Y9397205D01*
X-1279061Y9475003D01*
X-1243254Y9561448D01*
X-1225000Y9653217D01*
X-1225000Y9671783D01*
X3575000Y9671783D01*
X3575000Y9578217D01*
X3593254Y9486448D01*
X3629061Y9400003D01*
X3681044Y9322205D01*
X3747205Y9256044D01*
X3825003Y9204061D01*
X3911448Y9168254D01*
X4003217Y9150000D01*
X4096783Y9150000D01*
X4188552Y9168254D01*
X4217575Y9180276D01*
X6903420Y9180276D01*
X6977415Y8961025D01*
X7221719Y8858509D01*
X7481330Y8805624D01*
X7746269Y8804403D01*
X8006356Y8854892D01*
X8251596Y8955151D01*
X8262585Y8961025D01*
X8336580Y9180276D01*
X7620000Y9896856D01*
X6903420Y9180276D01*
X4217575Y9180276D01*
X4274997Y9204061D01*
X4352795Y9256044D01*
X4418956Y9322205D01*
X4470939Y9400003D01*
X4506746Y9486448D01*
X4525000Y9578217D01*
X4525000Y9671783D01*
X4506746Y9763552D01*
X4470939Y9849997D01*
X4418956Y9927795D01*
X4352795Y9993956D01*
X4308234Y10023731D01*
X6274403Y10023731D01*
X6324892Y9763644D01*
X6425151Y9518404D01*
X6431025Y9507415D01*
X6650276Y9433420D01*
X7366856Y10150000D01*
X6650276Y10866580D01*
X6431025Y10792585D01*
X6328509Y10548281D01*
X6275624Y10288670D01*
X6274403Y10023731D01*
X4308234Y10023731D01*
X4274997Y10045939D01*
X4188552Y10081746D01*
X4096783Y10100000D01*
X4003217Y10100000D01*
X3911448Y10081746D01*
X3825003Y10045939D01*
X3747205Y9993956D01*
X3681044Y9927795D01*
X3629061Y9849997D01*
X3593254Y9763552D01*
X3575000Y9671783D01*
X-1225000Y9671783D01*
X-1225000Y9746783D01*
X-1243254Y9838552D01*
X-1279061Y9924997D01*
X-1331044Y10002795D01*
X-1397205Y10068956D01*
X-1475003Y10120939D01*
X-1561448Y10156746D01*
X-1653217Y10175000D01*
X-1746783Y10175000D01*
X-1838552Y10156746D01*
X-1924997Y10120939D01*
X-2002795Y10068956D01*
X-2049700Y10022051D01*
X-2096905Y10069256D01*
X-2174703Y10121239D01*
X-2261148Y10157046D01*
X-2352917Y10175300D01*
X-2446483Y10175300D01*
X-2538252Y10157046D01*
X-2624697Y10121239D01*
X-2702495Y10069256D01*
X-2768656Y10003095D01*
X-2820639Y9925297D01*
X-2844922Y9866673D01*
X-2897205Y9918956D01*
X-2975003Y9970939D01*
X-3061448Y10006746D01*
X-3153217Y10025000D01*
X-3246783Y10025000D01*
X-3338552Y10006746D01*
X-3424997Y9970939D01*
X-3502795Y9918956D01*
X-3568956Y9852795D01*
X-3620939Y9774997D01*
X-3656746Y9688552D01*
X-3675000Y9596783D01*
X-6802593Y9596783D01*
X-6745332Y9682480D01*
X-6670930Y9862103D01*
X-6633000Y10052789D01*
X-6633000Y10247211D01*
X-6670930Y10437897D01*
X-6745332Y10617520D01*
X-6853347Y10779176D01*
X-6990824Y10916653D01*
X-7152480Y11024668D01*
X-7332103Y11099070D01*
X-7522789Y11137000D01*
X-7717211Y11137000D01*
X-7907897Y11099070D01*
X-8087520Y11024668D01*
X-8249176Y10916653D01*
X-8386653Y10779176D01*
X-8494668Y10617520D01*
X-8569070Y10437897D01*
X-8607000Y10247211D01*
X-8770000Y10247211D01*
X-8770000Y12787211D01*
X-8607000Y12787211D01*
X-8607000Y12592789D01*
X-8569070Y12402103D01*
X-8494668Y12222480D01*
X-8386653Y12060824D01*
X-8249176Y11923347D01*
X-8087520Y11815332D01*
X-7907897Y11740930D01*
X-7717211Y11703000D01*
X-7522789Y11703000D01*
X-7332103Y11740930D01*
X-7152480Y11815332D01*
X-6990824Y11923347D01*
X-6853347Y12060824D01*
X-6745332Y12222480D01*
X-6670930Y12402103D01*
X-6633000Y12592789D01*
X-6633000Y12787211D01*
X-6670930Y12977897D01*
X-6745332Y13157520D01*
X-6853347Y13319176D01*
X-6990824Y13456653D01*
X-7152480Y13564668D01*
X-7332103Y13639070D01*
X-7522789Y13677000D01*
X-7717211Y13677000D01*
X-7907897Y13639070D01*
X-8087520Y13564668D01*
X-8249176Y13456653D01*
X-8386653Y13319176D01*
X-8494668Y13157520D01*
X-8569070Y12977897D01*
X-8607000Y12787211D01*
X-8770000Y12787211D01*
X-8770000Y15237771D01*
X-8761231Y15327211D01*
X-8607000Y15327211D01*
X-8607000Y15132789D01*
X-8569070Y14942103D01*
X-8494668Y14762480D01*
X-8386653Y14600824D01*
X-8249176Y14463347D01*
X-8087520Y14355332D01*
X-7907897Y14280930D01*
X-7717211Y14243000D01*
X-7522789Y14243000D01*
X-7332103Y14280930D01*
X-7152480Y14355332D01*
X-6990824Y14463347D01*
X-6853347Y14600824D01*
X-6745332Y14762480D01*
X-6670930Y14942103D01*
X-6633000Y15132789D01*
X-6633000Y15327211D01*
X-6670930Y15517897D01*
X-6745332Y15697520D01*
X-6853347Y15859176D01*
X-6990824Y15996653D01*
X-7152480Y16104668D01*
X-7332103Y16179070D01*
X-7522789Y16217000D01*
X-7717211Y16217000D01*
X-7907897Y16179070D01*
X-8087520Y16104668D01*
X-8249176Y15996653D01*
X-8386653Y15859176D01*
X-8494668Y15697520D01*
X-8569070Y15517897D01*
X-8607000Y15327211D01*
X-8761231Y15327211D01*
X-8746922Y15473137D01*
X-8682119Y15687775D01*
X-8576860Y15885739D01*
X-8435156Y16059485D01*
X-8262402Y16202399D01*
X-8065181Y16309036D01*
X-7850994Y16375338D01*
X-7616352Y16400000D01*
X-6162624Y16400000D01*
X-6180731Y16377936D01*
%TA.AperFunction,Conductor*%
D16*
G36*
X-6180731Y16377936D02*
G01*
X-6248053Y16251987D01*
X-6289509Y16115324D01*
X-6300000Y16008806D01*
X-6299999Y14737593D01*
X-6289508Y14631075D01*
X-6248052Y14494412D01*
X-6180730Y14368463D01*
X-6090131Y14258068D01*
X-5979736Y14167469D01*
X-5853787Y14100147D01*
X-5717124Y14058691D01*
X-5575000Y14044693D01*
X-5432875Y14058691D01*
X-5296212Y14100147D01*
X-5170263Y14167469D01*
X-5059868Y14258068D01*
X-4969269Y14368463D01*
X-4901947Y14494412D01*
X-4860491Y14631075D01*
X-4850000Y14737593D01*
X-4849999Y12062284D01*
X-4850000Y12062274D01*
X-4850000Y11908807D01*
X-4860491Y12015325D01*
X-4901947Y12151988D01*
X-4969269Y12277937D01*
X-5059869Y12388332D01*
X-5170264Y12478931D01*
X-5296213Y12546253D01*
X-5432876Y12587709D01*
X-5575000Y12601707D01*
X-5717125Y12587709D01*
X-5853788Y12546253D01*
X-5979737Y12478931D01*
X-6090132Y12388331D01*
X-6180731Y12277936D01*
X-6248053Y12151987D01*
X-6289509Y12015324D01*
X-6300000Y11908806D01*
X-6300000Y11037593D01*
X-6289509Y10931075D01*
X-6248052Y10794412D01*
X-6180730Y10668463D01*
X-6090131Y10558068D01*
X-5979736Y10467469D01*
X-5853787Y10400147D01*
X-5717124Y10358691D01*
X-5575000Y10344693D01*
X-5432875Y10358691D01*
X-5296212Y10400147D01*
X-5170263Y10467469D01*
X-5059868Y10558068D01*
X-4969269Y10668463D01*
X-4901947Y10794412D01*
X-4860491Y10931075D01*
X-4850000Y11037593D01*
X-4850000Y11137726D01*
X-4846382Y11100992D01*
X-4832087Y11053866D01*
X-4808873Y11010436D01*
X-4777632Y10972368D01*
X-4739564Y10941127D01*
X-4696134Y10917913D01*
X-4649008Y10903618D01*
X-4612275Y10900000D01*
X-4600000Y10898791D01*
X-4587725Y10900000D01*
X4587725Y10900000D01*
X4600000Y10898791D01*
X4612275Y10900000D01*
X4649008Y10903618D01*
X4696134Y10917913D01*
X4739564Y10941127D01*
X4777632Y10972368D01*
X4808873Y11010436D01*
X4832087Y11053866D01*
X4846382Y11100992D01*
X4850600Y11143817D01*
X4850600Y11037593D01*
X4861091Y10931075D01*
X4902548Y10794412D01*
X4969870Y10668463D01*
X5060469Y10558068D01*
X5170864Y10467469D01*
X5296813Y10400147D01*
X5433476Y10358691D01*
X5575600Y10344693D01*
X5717725Y10358691D01*
X5854388Y10400147D01*
X5980337Y10467469D01*
X6090732Y10558068D01*
X6181331Y10668463D01*
X6248653Y10794412D01*
X6290109Y10931075D01*
X6300600Y11037593D01*
X6300600Y11119724D01*
X6903420Y11119724D01*
X7620000Y10403144D01*
X8336580Y11119724D01*
X8262585Y11338975D01*
X8018281Y11441491D01*
X7758670Y11494376D01*
X7493731Y11495597D01*
X7233644Y11445108D01*
X6988404Y11344849D01*
X6977415Y11338975D01*
X6903420Y11119724D01*
X6300600Y11119724D01*
X6300600Y11908807D01*
X6290109Y12015325D01*
X6248653Y12151988D01*
X6181331Y12277937D01*
X6090731Y12388332D01*
X5980336Y12478931D01*
X5854387Y12546253D01*
X5717724Y12587709D01*
X5575600Y12601707D01*
X5433475Y12587709D01*
X5296812Y12546253D01*
X5170863Y12478931D01*
X5060468Y12388331D01*
X4969869Y12277936D01*
X4902547Y12151987D01*
X4861091Y12015324D01*
X4850600Y11908806D01*
X4850600Y11156183D01*
X4850000Y11162275D01*
X4850000Y12787211D01*
X6633000Y12787211D01*
X6633000Y12592789D01*
X6670930Y12402103D01*
X6745332Y12222480D01*
X6853347Y12060824D01*
X6990824Y11923347D01*
X7152480Y11815332D01*
X7332103Y11740930D01*
X7522789Y11703000D01*
X7717211Y11703000D01*
X7907897Y11740930D01*
X8087520Y11815332D01*
X8249176Y11923347D01*
X8386653Y12060824D01*
X8494668Y12222480D01*
X8569070Y12402103D01*
X8607000Y12592789D01*
X8607000Y12787211D01*
X8569070Y12977897D01*
X8494668Y13157520D01*
X8386653Y13319176D01*
X8249176Y13456653D01*
X8087520Y13564668D01*
X7907897Y13639070D01*
X7717211Y13677000D01*
X7522789Y13677000D01*
X7332103Y13639070D01*
X7152480Y13564668D01*
X6990824Y13456653D01*
X6853347Y13319176D01*
X6745332Y13157520D01*
X6670930Y12977897D01*
X6633000Y12787211D01*
X4850000Y12787211D01*
X4850000Y16400000D01*
X4987976Y16400000D01*
X4969869Y16377936D01*
X4902547Y16251987D01*
X4861091Y16115324D01*
X4850600Y16008806D01*
X4850601Y14737593D01*
X4861092Y14631075D01*
X4902548Y14494412D01*
X4969870Y14368463D01*
X5060469Y14258068D01*
X5170864Y14167469D01*
X5296813Y14100147D01*
X5433476Y14058691D01*
X5575600Y14044693D01*
X5717725Y14058691D01*
X5854388Y14100147D01*
X5980337Y14167469D01*
X6090732Y14258068D01*
X6181331Y14368463D01*
X6248653Y14494412D01*
X6290109Y14631075D01*
X6300600Y14737593D01*
X6300600Y15327211D01*
X6633000Y15327211D01*
X6633000Y15132789D01*
X6670930Y14942103D01*
X6745332Y14762480D01*
X6853347Y14600824D01*
X6990824Y14463347D01*
X7152480Y14355332D01*
X7332103Y14280930D01*
X7522789Y14243000D01*
X7717211Y14243000D01*
X7907897Y14280930D01*
X8087520Y14355332D01*
X8249176Y14463347D01*
X8386653Y14600824D01*
X8494668Y14762480D01*
X8569070Y14942103D01*
X8607000Y15132789D01*
X8607000Y15327211D01*
X8569070Y15517897D01*
X8494668Y15697520D01*
X8386653Y15859176D01*
X8249176Y15996653D01*
X8087520Y16104668D01*
X7907897Y16179070D01*
X7717211Y16217000D01*
X7522789Y16217000D01*
X7332103Y16179070D01*
X7152480Y16104668D01*
X6990824Y15996653D01*
X6853347Y15859176D01*
X6745332Y15697520D01*
X6670930Y15517897D01*
X6633000Y15327211D01*
X6300600Y15327211D01*
X6300600Y16008807D01*
X6290109Y16115325D01*
X6248653Y16251988D01*
X6181331Y16377937D01*
X6163224Y16400000D01*
X7607771Y16400000D01*
X7843137Y16376922D01*
X8057775Y16312119D01*
X8255739Y16206860D01*
X8429485Y16065156D01*
X8572399Y15892402D01*
X8679036Y15695181D01*
X8745338Y15480994D01*
X8770000Y15246352D01*
X8770000Y10805739D01*
X8589724Y10866580D01*
X7873144Y10150000D01*
X8589724Y9433420D01*
X8770000Y9494261D01*
X8770001Y2076367D01*
X8766441Y2064632D01*
X8765000Y2050000D01*
X8765000Y-2050000D01*
X8766441Y-2064632D01*
X8770000Y-2076364D01*
X8770001Y-11325000D01*
X5875000Y-11325000D01*
X5875000Y-10072789D01*
X6633000Y-10072789D01*
X6633000Y-10267211D01*
X6670930Y-10457897D01*
X6745332Y-10637520D01*
X6853347Y-10799176D01*
X6990824Y-10936653D01*
X7152480Y-11044668D01*
X7332103Y-11119070D01*
X7522789Y-11157000D01*
X7717211Y-11157000D01*
X7907897Y-11119070D01*
X8087520Y-11044668D01*
X8249176Y-10936653D01*
X8386653Y-10799176D01*
X8494668Y-10637520D01*
X8569070Y-10457897D01*
X8607000Y-10267211D01*
X8607000Y-10072789D01*
X8569070Y-9882103D01*
X8494668Y-9702480D01*
X8386653Y-9540824D01*
X8249176Y-9403347D01*
X8087520Y-9295332D01*
X7907897Y-9220930D01*
X7717211Y-9183000D01*
X7522789Y-9183000D01*
X7332103Y-9220930D01*
X7152480Y-9295332D01*
X6990824Y-9403347D01*
X6853347Y-9540824D01*
X6745332Y-9702480D01*
X6670930Y-9882103D01*
X6633000Y-10072789D01*
X5875000Y-10072789D01*
X5875000Y-7532789D01*
X6633000Y-7532789D01*
X6633000Y-7727211D01*
X6670930Y-7917897D01*
X6745332Y-8097520D01*
X6853347Y-8259176D01*
X6990824Y-8396653D01*
X7152480Y-8504668D01*
X7332103Y-8579070D01*
X7522789Y-8617000D01*
X7717211Y-8617000D01*
X7907897Y-8579070D01*
X8087520Y-8504668D01*
X8249176Y-8396653D01*
X8386653Y-8259176D01*
X8494668Y-8097520D01*
X8569070Y-7917897D01*
X8607000Y-7727211D01*
X8607000Y-7532789D01*
X8569070Y-7342103D01*
X8494668Y-7162480D01*
X8386653Y-7000824D01*
X8249176Y-6863347D01*
X8087520Y-6755332D01*
X7907897Y-6680930D01*
X7717211Y-6643000D01*
X7522789Y-6643000D01*
X7332103Y-6680930D01*
X7152480Y-6755332D01*
X6990824Y-6863347D01*
X6853347Y-7000824D01*
X6745332Y-7162480D01*
X6670930Y-7342103D01*
X6633000Y-7532789D01*
X5875000Y-7532789D01*
X5875000Y-7500000D01*
X5873559Y-7485368D01*
X5869291Y-7471299D01*
X5862360Y-7458332D01*
X5853033Y-7446967D01*
X5841668Y-7437640D01*
X5828701Y-7430709D01*
X5814632Y-7426441D01*
X5800000Y-7425000D01*
X793750Y-7425000D01*
X802795Y-7418956D01*
X868956Y-7352795D01*
X920939Y-7274997D01*
X956746Y-7188552D01*
X975000Y-7096783D01*
X975000Y-7003217D01*
X956746Y-6911448D01*
X920939Y-6825003D01*
X868956Y-6747205D01*
X824968Y-6703217D01*
X2300000Y-6703217D01*
X2300000Y-6796783D01*
X2318254Y-6888552D01*
X2354061Y-6974997D01*
X2406044Y-7052795D01*
X2472205Y-7118956D01*
X2550003Y-7170939D01*
X2636448Y-7206746D01*
X2728217Y-7225000D01*
X2821783Y-7225000D01*
X2913552Y-7206746D01*
X2999997Y-7170939D01*
X3077795Y-7118956D01*
X3143956Y-7052795D01*
X3195939Y-6974997D01*
X3231746Y-6888552D01*
X3250000Y-6796783D01*
X3250000Y-6703217D01*
X3231746Y-6611448D01*
X3195939Y-6525003D01*
X3143956Y-6447205D01*
X3077795Y-6381044D01*
X2999997Y-6329061D01*
X2913552Y-6293254D01*
X2821783Y-6275000D01*
X2728217Y-6275000D01*
X2636448Y-6293254D01*
X2550003Y-6329061D01*
X2472205Y-6381044D01*
X2406044Y-6447205D01*
X2354061Y-6525003D01*
X2318254Y-6611448D01*
X2300000Y-6703217D01*
X824968Y-6703217D01*
X802795Y-6681044D01*
X724997Y-6629061D01*
X638552Y-6593254D01*
X546783Y-6575000D01*
X453217Y-6575000D01*
X420675Y-6581473D01*
X406746Y-6511448D01*
X370939Y-6425003D01*
X318956Y-6347205D01*
X252795Y-6281044D01*
X174997Y-6229061D01*
X88552Y-6193254D01*
X-3217Y-6175000D01*
X-96783Y-6175000D01*
X-188552Y-6193254D01*
X-274997Y-6229061D01*
X-352795Y-6281044D01*
X-418956Y-6347205D01*
X-470939Y-6425003D01*
X-506746Y-6511448D01*
X-525000Y-6603217D01*
X-525000Y-6696783D01*
X-506746Y-6788552D01*
X-470939Y-6874997D01*
X-418956Y-6952795D01*
X-352795Y-7018956D01*
X-274997Y-7070939D01*
X-188552Y-7106746D01*
X-96783Y-7125000D01*
X-3217Y-7125000D01*
X29325Y-7118527D01*
X43254Y-7188552D01*
X79061Y-7274997D01*
X131044Y-7352795D01*
X197205Y-7418956D01*
X206250Y-7425000D01*
X0Y-7425000D01*
X-14632Y-7426441D01*
X-28701Y-7430709D01*
X-41668Y-7437640D01*
X-53033Y-7446967D01*
X-62360Y-7458332D01*
X-69291Y-7471299D01*
X-73559Y-7485368D01*
X-75000Y-7500000D01*
X-75000Y-10245162D01*
X-104061Y-10175003D01*
X-156044Y-10097205D01*
X-222205Y-10031044D01*
X-300003Y-9979061D01*
X-386448Y-9943254D01*
X-478217Y-9925000D01*
X-571783Y-9925000D01*
X-663552Y-9943254D01*
X-749997Y-9979061D01*
X-827795Y-10031044D01*
X-893956Y-10097205D01*
X-945939Y-10175003D01*
X-981746Y-10261448D01*
X-1000000Y-10353217D01*
X-1000000Y-10446783D01*
X-981746Y-10538552D01*
X-945939Y-10624997D01*
X-893956Y-10702795D01*
X-827795Y-10768956D01*
X-749997Y-10820939D01*
X-663552Y-10856746D01*
X-571783Y-10875000D01*
X-478217Y-10875000D01*
X-386448Y-10856746D01*
X-300003Y-10820939D01*
X-222205Y-10768956D01*
X-156044Y-10702795D01*
X-104061Y-10624997D01*
X-75000Y-10554838D01*
X-75000Y-11325000D01*
X-8770000Y-11325000D01*
X-8770000Y-10072789D01*
X-8607000Y-10072789D01*
X-8607000Y-10267211D01*
X-8569070Y-10457897D01*
X-8494668Y-10637520D01*
X-8386653Y-10799176D01*
X-8249176Y-10936653D01*
X-8087520Y-11044668D01*
X-7907897Y-11119070D01*
X-7717211Y-11157000D01*
X-7522789Y-11157000D01*
X-7332103Y-11119070D01*
X-7152480Y-11044668D01*
X-6990824Y-10936653D01*
X-6853347Y-10799176D01*
X-6745332Y-10637520D01*
X-6670930Y-10457897D01*
X-6633000Y-10267211D01*
X-6633000Y-10072789D01*
X-6670930Y-9882103D01*
X-6745332Y-9702480D01*
X-6853347Y-9540824D01*
X-6940954Y-9453217D01*
X-5000000Y-9453217D01*
X-5000000Y-9546783D01*
X-4981746Y-9638552D01*
X-4945939Y-9724997D01*
X-4893956Y-9802795D01*
X-4827795Y-9868956D01*
X-4749997Y-9920939D01*
X-4663552Y-9956746D01*
X-4571783Y-9975000D01*
X-4478217Y-9975000D01*
X-4386448Y-9956746D01*
X-4300003Y-9920939D01*
X-4222205Y-9868956D01*
X-4156044Y-9802795D01*
X-4104061Y-9724997D01*
X-4068254Y-9638552D01*
X-4050000Y-9546783D01*
X-4050000Y-9453217D01*
X-4068254Y-9361448D01*
X-4104061Y-9275003D01*
X-4156044Y-9197205D01*
X-4222205Y-9131044D01*
X-4300003Y-9079061D01*
X-4386448Y-9043254D01*
X-4478217Y-9025000D01*
X-4571783Y-9025000D01*
X-4663552Y-9043254D01*
X-4749997Y-9079061D01*
X-4827795Y-9131044D01*
X-4893956Y-9197205D01*
X-4945939Y-9275003D01*
X-4981746Y-9361448D01*
X-5000000Y-9453217D01*
X-6940954Y-9453217D01*
X-6990824Y-9403347D01*
X-7152480Y-9295332D01*
X-7332103Y-9220930D01*
X-7522789Y-9183000D01*
X-7717211Y-9183000D01*
X-7907897Y-9220930D01*
X-8087520Y-9295332D01*
X-8249176Y-9403347D01*
X-8386653Y-9540824D01*
X-8494668Y-9702480D01*
X-8569070Y-9882103D01*
X-8607000Y-10072789D01*
X-8770000Y-10072789D01*
X-8770000Y-7532789D01*
X-8607000Y-7532789D01*
X-8607000Y-7727211D01*
X-8569070Y-7917897D01*
X-8494668Y-8097520D01*
X-8386653Y-8259176D01*
X-8249176Y-8396653D01*
X-8087520Y-8504668D01*
X-7907897Y-8579070D01*
X-7717211Y-8617000D01*
X-7522789Y-8617000D01*
X-7332103Y-8579070D01*
X-7152480Y-8504668D01*
X-6990824Y-8396653D01*
X-6853347Y-8259176D01*
X-6745332Y-8097520D01*
X-6670930Y-7917897D01*
X-6633000Y-7727211D01*
X-6633000Y-7678217D01*
X-4575000Y-7678217D01*
X-4575000Y-7771783D01*
X-4556746Y-7863552D01*
X-4520939Y-7949997D01*
X-4468956Y-8027795D01*
X-4402795Y-8093956D01*
X-4324997Y-8145939D01*
X-4238552Y-8181746D01*
X-4146783Y-8200000D01*
X-4053217Y-8200000D01*
X-4049201Y-8199201D01*
X-4050000Y-8203217D01*
X-4050000Y-8296783D01*
X-4031746Y-8388552D01*
X-3995939Y-8474997D01*
X-3943956Y-8552795D01*
X-3877795Y-8618956D01*
X-3799997Y-8670939D01*
X-3713552Y-8706746D01*
X-3621783Y-8725000D01*
X-3528217Y-8725000D01*
X-3436448Y-8706746D01*
X-3350003Y-8670939D01*
X-3272205Y-8618956D01*
X-3206044Y-8552795D01*
X-3154061Y-8474997D01*
X-3118254Y-8388552D01*
X-3100000Y-8296783D01*
X-3100000Y-8203217D01*
X-3118254Y-8111448D01*
X-3154061Y-8025003D01*
X-3168617Y-8003217D01*
X-2225000Y-8003217D01*
X-2225000Y-8096783D01*
X-2206746Y-8188552D01*
X-2170939Y-8274997D01*
X-2118956Y-8352795D01*
X-2052795Y-8418956D01*
X-2006334Y-8450000D01*
X-2052795Y-8481044D01*
X-2118956Y-8547205D01*
X-2170939Y-8625003D01*
X-2206746Y-8711448D01*
X-2225000Y-8803217D01*
X-2225000Y-8896783D01*
X-2206746Y-8988552D01*
X-2170939Y-9074997D01*
X-2118956Y-9152795D01*
X-2052795Y-9218956D01*
X-1974997Y-9270939D01*
X-1888552Y-9306746D01*
X-1796783Y-9325000D01*
X-1703217Y-9325000D01*
X-1611448Y-9306746D01*
X-1525003Y-9270939D01*
X-1447205Y-9218956D01*
X-1381044Y-9152795D01*
X-1329061Y-9074997D01*
X-1293254Y-8988552D01*
X-1275000Y-8896783D01*
X-1275000Y-8803217D01*
X-1293254Y-8711448D01*
X-1329061Y-8625003D01*
X-1381044Y-8547205D01*
X-1447205Y-8481044D01*
X-1493666Y-8450000D01*
X-1447205Y-8418956D01*
X-1381044Y-8352795D01*
X-1329061Y-8274997D01*
X-1293254Y-8188552D01*
X-1275000Y-8096783D01*
X-1275000Y-8003217D01*
X-1293254Y-7911448D01*
X-1329061Y-7825003D01*
X-1381044Y-7747205D01*
X-1447205Y-7681044D01*
X-1525003Y-7629061D01*
X-1611448Y-7593254D01*
X-1703217Y-7575000D01*
X-1796783Y-7575000D01*
X-1888552Y-7593254D01*
X-1974997Y-7629061D01*
X-2052795Y-7681044D01*
X-2118956Y-7747205D01*
X-2170939Y-7825003D01*
X-2206746Y-7911448D01*
X-2225000Y-8003217D01*
X-3168617Y-8003217D01*
X-3206044Y-7947205D01*
X-3272205Y-7881044D01*
X-3350003Y-7829061D01*
X-3436448Y-7793254D01*
X-3528217Y-7775000D01*
X-3621783Y-7775000D01*
X-3625799Y-7775799D01*
X-3625000Y-7771783D01*
X-3625000Y-7678217D01*
X-3643254Y-7586448D01*
X-3679061Y-7500003D01*
X-3731044Y-7422205D01*
X-3797205Y-7356044D01*
X-3875003Y-7304061D01*
X-3961448Y-7268254D01*
X-4053217Y-7250000D01*
X-4146783Y-7250000D01*
X-4238552Y-7268254D01*
X-4324997Y-7304061D01*
X-4402795Y-7356044D01*
X-4468956Y-7422205D01*
X-4520939Y-7500003D01*
X-4556746Y-7586448D01*
X-4575000Y-7678217D01*
X-6633000Y-7678217D01*
X-6633000Y-7532789D01*
X-6670930Y-7342103D01*
X-6745332Y-7162480D01*
X-6853347Y-7000824D01*
X-6990824Y-6863347D01*
X-7152480Y-6755332D01*
X-7157586Y-6753217D01*
X-3075000Y-6753217D01*
X-3075000Y-6846783D01*
X-3056746Y-6938552D01*
X-3020939Y-7024997D01*
X-2968956Y-7102795D01*
X-2902795Y-7168956D01*
X-2824997Y-7220939D01*
X-2738552Y-7256746D01*
X-2646783Y-7275000D01*
X-2553217Y-7275000D01*
X-2461448Y-7256746D01*
X-2375003Y-7220939D01*
X-2297205Y-7168956D01*
X-2231044Y-7102795D01*
X-2179061Y-7024997D01*
X-2143254Y-6938552D01*
X-2125000Y-6846783D01*
X-2125000Y-6753217D01*
X-2143254Y-6661448D01*
X-2179061Y-6575003D01*
X-2231044Y-6497205D01*
X-2297205Y-6431044D01*
X-2375003Y-6379061D01*
X-2461448Y-6343254D01*
X-2553217Y-6325000D01*
X-2646783Y-6325000D01*
X-2738552Y-6343254D01*
X-2824997Y-6379061D01*
X-2902795Y-6431044D01*
X-2968956Y-6497205D01*
X-3020939Y-6575003D01*
X-3056746Y-6661448D01*
X-3075000Y-6753217D01*
X-7157586Y-6753217D01*
X-7332103Y-6680930D01*
X-7522789Y-6643000D01*
X-7717211Y-6643000D01*
X-7907897Y-6680930D01*
X-8087520Y-6755332D01*
X-8249176Y-6863347D01*
X-8386653Y-7000824D01*
X-8494668Y-7162480D01*
X-8569070Y-7342103D01*
X-8607000Y-7532789D01*
X-8770000Y-7532789D01*
X-8770000Y-4992789D01*
X-8607000Y-4992789D01*
X-8607000Y-5187211D01*
X-8569070Y-5377897D01*
X-8494668Y-5557520D01*
X-8386653Y-5719176D01*
X-8249176Y-5856653D01*
X-8087520Y-5964668D01*
X-7907897Y-6039070D01*
X-7717211Y-6077000D01*
X-7522789Y-6077000D01*
X-7332103Y-6039070D01*
X-7152480Y-5964668D01*
X-6990824Y-5856653D01*
X-6853347Y-5719176D01*
X-6745332Y-5557520D01*
X-6702129Y-5453217D01*
X-4300000Y-5453217D01*
X-4300000Y-5546783D01*
X-4281746Y-5638552D01*
X-4245939Y-5724997D01*
X-4193956Y-5802795D01*
X-4127795Y-5868956D01*
X-4049997Y-5920939D01*
X-3963552Y-5956746D01*
X-3871783Y-5975000D01*
X-3778217Y-5975000D01*
X-3686448Y-5956746D01*
X-3600003Y-5920939D01*
X-3522205Y-5868956D01*
X-3456044Y-5802795D01*
X-3404061Y-5724997D01*
X-3368254Y-5638552D01*
X-3350000Y-5546783D01*
X-3350000Y-5453217D01*
X-3368254Y-5361448D01*
X-3404061Y-5275003D01*
X-3456044Y-5197205D01*
X-3522205Y-5131044D01*
X-3600003Y-5079061D01*
X-3686448Y-5043254D01*
X-3778217Y-5025000D01*
X-3871783Y-5025000D01*
X-3963552Y-5043254D01*
X-4049997Y-5079061D01*
X-4127795Y-5131044D01*
X-4193956Y-5197205D01*
X-4245939Y-5275003D01*
X-4281746Y-5361448D01*
X-4300000Y-5453217D01*
X-6702129Y-5453217D01*
X-6670930Y-5377897D01*
X-6633000Y-5187211D01*
X-6633000Y-4992789D01*
X-6670930Y-4802103D01*
X-6745332Y-4622480D01*
X-6853347Y-4460824D01*
X-6990824Y-4323347D01*
X-7152480Y-4215332D01*
X-7332103Y-4140930D01*
X-7522789Y-4103000D01*
X-7717211Y-4103000D01*
X-7907897Y-4140930D01*
X-8087520Y-4215332D01*
X-8249176Y-4323347D01*
X-8386653Y-4460824D01*
X-8494668Y-4622480D01*
X-8569070Y-4802103D01*
X-8607000Y-4992789D01*
X-8770000Y-4992789D01*
X-8770000Y-3978217D01*
X-6350000Y-3978217D01*
X-6350000Y-4071783D01*
X-6331746Y-4163552D01*
X-6295939Y-4249997D01*
X-6243956Y-4327795D01*
X-6177795Y-4393956D01*
X-6099997Y-4445939D01*
X-6013552Y-4481746D01*
X-5921783Y-4500000D01*
X-5828217Y-4500000D01*
X-5775000Y-4489414D01*
X-5775000Y-4546783D01*
X-5756746Y-4638552D01*
X-5720939Y-4724997D01*
X-5668956Y-4802795D01*
X-5602795Y-4868956D01*
X-5524997Y-4920939D01*
X-5438552Y-4956746D01*
X-5346783Y-4975000D01*
X-5253217Y-4975000D01*
X-5161448Y-4956746D01*
X-5075003Y-4920939D01*
X-4997205Y-4868956D01*
X-4931044Y-4802795D01*
X-4879061Y-4724997D01*
X-4859684Y-4678217D01*
X3300000Y-4678217D01*
X3300000Y-4771783D01*
X3318254Y-4863552D01*
X3354061Y-4949997D01*
X3406044Y-5027795D01*
X3472205Y-5093956D01*
X3550003Y-5145939D01*
X3636448Y-5181746D01*
X3728217Y-5200000D01*
X3636448Y-5218254D01*
X3550003Y-5254061D01*
X3472205Y-5306044D01*
X3406044Y-5372205D01*
X3354061Y-5450003D01*
X3318254Y-5536448D01*
X3300000Y-5628217D01*
X3300000Y-5721783D01*
X3318254Y-5813552D01*
X3354061Y-5899997D01*
X3406044Y-5977795D01*
X3472205Y-6043956D01*
X3550003Y-6095939D01*
X3636448Y-6131746D01*
X3728217Y-6150000D01*
X3821783Y-6150000D01*
X3913552Y-6131746D01*
X3999997Y-6095939D01*
X4077795Y-6043956D01*
X4143956Y-5977795D01*
X4195939Y-5899997D01*
X4231746Y-5813552D01*
X4250000Y-5721783D01*
X4250000Y-5628217D01*
X4231746Y-5536448D01*
X4195939Y-5450003D01*
X4143956Y-5372205D01*
X4077795Y-5306044D01*
X3999997Y-5254061D01*
X3913552Y-5218254D01*
X3821783Y-5200000D01*
X3913552Y-5181746D01*
X3999997Y-5145939D01*
X4077795Y-5093956D01*
X4143956Y-5027795D01*
X4167346Y-4992789D01*
X6633000Y-4992789D01*
X6633000Y-5187211D01*
X6670930Y-5377897D01*
X6745332Y-5557520D01*
X6853347Y-5719176D01*
X6990824Y-5856653D01*
X7152480Y-5964668D01*
X7332103Y-6039070D01*
X7522789Y-6077000D01*
X7717211Y-6077000D01*
X7907897Y-6039070D01*
X8087520Y-5964668D01*
X8249176Y-5856653D01*
X8386653Y-5719176D01*
X8494668Y-5557520D01*
X8569070Y-5377897D01*
X8607000Y-5187211D01*
X8607000Y-4992789D01*
X8569070Y-4802103D01*
X8494668Y-4622480D01*
X8386653Y-4460824D01*
X8249176Y-4323347D01*
X8087520Y-4215332D01*
X7907897Y-4140930D01*
X7717211Y-4103000D01*
X7522789Y-4103000D01*
X7332103Y-4140930D01*
X7152480Y-4215332D01*
X6990824Y-4323347D01*
X6853347Y-4460824D01*
X6745332Y-4622480D01*
X6670930Y-4802103D01*
X6633000Y-4992789D01*
X4167346Y-4992789D01*
X4195939Y-4949997D01*
X4231746Y-4863552D01*
X4250000Y-4771783D01*
X4250000Y-4678217D01*
X4231746Y-4586448D01*
X4222406Y-4563898D01*
X4278217Y-4575000D01*
X4371783Y-4575000D01*
X4463552Y-4556746D01*
X4549997Y-4520939D01*
X4627795Y-4468956D01*
X4693956Y-4402795D01*
X4745939Y-4324997D01*
X4781746Y-4238552D01*
X4800000Y-4146783D01*
X4800000Y-4053217D01*
X4781746Y-3961448D01*
X4745939Y-3875003D01*
X4693956Y-3797205D01*
X4627795Y-3731044D01*
X4549997Y-3679061D01*
X4463552Y-3643254D01*
X4371783Y-3625000D01*
X4278217Y-3625000D01*
X4186448Y-3643254D01*
X4100003Y-3679061D01*
X4022205Y-3731044D01*
X3956044Y-3797205D01*
X3904061Y-3875003D01*
X3868254Y-3961448D01*
X3850000Y-4053217D01*
X3850000Y-4146783D01*
X3868254Y-4238552D01*
X3877594Y-4261102D01*
X3821783Y-4250000D01*
X3728217Y-4250000D01*
X3636448Y-4268254D01*
X3550003Y-4304061D01*
X3472205Y-4356044D01*
X3406044Y-4422205D01*
X3354061Y-4500003D01*
X3318254Y-4586448D01*
X3300000Y-4678217D01*
X-4859684Y-4678217D01*
X-4843254Y-4638552D01*
X-4825000Y-4546783D01*
X-4825000Y-4453217D01*
X-4843254Y-4361448D01*
X-4879061Y-4275003D01*
X-4931044Y-4197205D01*
X-4997205Y-4131044D01*
X-5075003Y-4079061D01*
X-5161448Y-4043254D01*
X-5253217Y-4025000D01*
X-5346783Y-4025000D01*
X-5400000Y-4035586D01*
X-5400000Y-3978217D01*
X-5418254Y-3886448D01*
X-5454061Y-3800003D01*
X-5506044Y-3722205D01*
X-5572205Y-3656044D01*
X-5650003Y-3604061D01*
X-5736448Y-3568254D01*
X-5828217Y-3550000D01*
X-5921783Y-3550000D01*
X-6013552Y-3568254D01*
X-6099997Y-3604061D01*
X-6177795Y-3656044D01*
X-6243956Y-3722205D01*
X-6295939Y-3800003D01*
X-6331746Y-3886448D01*
X-6350000Y-3978217D01*
X-8770000Y-3978217D01*
X-8770000Y-2452789D01*
X-8607000Y-2452789D01*
X-8607000Y-2647211D01*
X-8569070Y-2837897D01*
X-8494668Y-3017520D01*
X-8386653Y-3179176D01*
X-8249176Y-3316653D01*
X-8087520Y-3424668D01*
X-7907897Y-3499070D01*
X-7717211Y-3537000D01*
X-7522789Y-3537000D01*
X-7332103Y-3499070D01*
X-7152480Y-3424668D01*
X-6990824Y-3316653D01*
X-6853347Y-3179176D01*
X-6745332Y-3017520D01*
X-6670930Y-2837897D01*
X-6633000Y-2647211D01*
X-6633000Y-2498217D01*
X-6195000Y-2498217D01*
X-6195000Y-2591783D01*
X-6176746Y-2683552D01*
X-6140939Y-2769997D01*
X-6088956Y-2847795D01*
X-6022795Y-2913956D01*
X-5944997Y-2965939D01*
X-5858552Y-3001746D01*
X-5766783Y-3020000D01*
X-5673217Y-3020000D01*
X-5581448Y-3001746D01*
X-5495003Y-2965939D01*
X-5417205Y-2913956D01*
X-5351044Y-2847795D01*
X-5299061Y-2769997D01*
X-5263254Y-2683552D01*
X-5245000Y-2591783D01*
X-5245000Y-2498217D01*
X-5263254Y-2406448D01*
X-5299061Y-2320003D01*
X-5351044Y-2242205D01*
X-5417205Y-2176044D01*
X-5495003Y-2124061D01*
X-5581448Y-2088254D01*
X-5673217Y-2070000D01*
X-5766783Y-2070000D01*
X-5858552Y-2088254D01*
X-5944997Y-2124061D01*
X-6022795Y-2176044D01*
X-6088956Y-2242205D01*
X-6140939Y-2320003D01*
X-6176746Y-2406448D01*
X-6195000Y-2498217D01*
X-6633000Y-2498217D01*
X-6633000Y-2452789D01*
X-6670930Y-2262103D01*
X-6745332Y-2082480D01*
X-6853347Y-1920824D01*
X-6870954Y-1903217D01*
X-5125000Y-1903217D01*
X-5125000Y-1996783D01*
X-5106746Y-2088552D01*
X-5070939Y-2174997D01*
X-5018956Y-2252795D01*
X-4996751Y-2275000D01*
X-5018956Y-2297205D01*
X-5070939Y-2375003D01*
X-5106746Y-2461448D01*
X-5125000Y-2553217D01*
X-5125000Y-2646783D01*
X-5106746Y-2738552D01*
X-5070939Y-2824997D01*
X-5018956Y-2902795D01*
X-4952795Y-2968956D01*
X-4874997Y-3020939D01*
X-4788552Y-3056746D01*
X-4696783Y-3075000D01*
X-4603217Y-3075000D01*
X-4511448Y-3056746D01*
X-4450000Y-3031293D01*
X-4450000Y-3071783D01*
X-4431746Y-3163552D01*
X-4395939Y-3249997D01*
X-4343956Y-3327795D01*
X-4277795Y-3393956D01*
X-4199997Y-3445939D01*
X-4113552Y-3481746D01*
X-4021783Y-3500000D01*
X-3928217Y-3500000D01*
X-3836448Y-3481746D01*
X-3750003Y-3445939D01*
X-3672205Y-3393956D01*
X-3606044Y-3327795D01*
X-3554061Y-3249997D01*
X-3518254Y-3163552D01*
X-3500000Y-3071783D01*
X-3500000Y-2978217D01*
X-3518254Y-2886448D01*
X-3554061Y-2800003D01*
X-3606044Y-2722205D01*
X-3625032Y-2703217D01*
X-2975000Y-2703217D01*
X-2975000Y-2796783D01*
X-2956746Y-2888552D01*
X-2920939Y-2974997D01*
X-2868956Y-3052795D01*
X-2802795Y-3118956D01*
X-2724997Y-3170939D01*
X-2638552Y-3206746D01*
X-2546783Y-3225000D01*
X-2453217Y-3225000D01*
X-2361448Y-3206746D01*
X-2275003Y-3170939D01*
X-2197205Y-3118956D01*
X-2131466Y-3053217D01*
X4400000Y-3053217D01*
X4400000Y-3146783D01*
X4418254Y-3238552D01*
X4454061Y-3324997D01*
X4506044Y-3402795D01*
X4572205Y-3468956D01*
X4650003Y-3520939D01*
X4736448Y-3556746D01*
X4828217Y-3575000D01*
X4921783Y-3575000D01*
X5013552Y-3556746D01*
X5099997Y-3520939D01*
X5177795Y-3468956D01*
X5243956Y-3402795D01*
X5295939Y-3324997D01*
X5331746Y-3238552D01*
X5350000Y-3146783D01*
X5350000Y-3053217D01*
X5331746Y-2961448D01*
X5295939Y-2875003D01*
X5243956Y-2797205D01*
X5177795Y-2731044D01*
X5099997Y-2679061D01*
X5013552Y-2643254D01*
X4921783Y-2625000D01*
X4828217Y-2625000D01*
X4736448Y-2643254D01*
X4650003Y-2679061D01*
X4572205Y-2731044D01*
X4506044Y-2797205D01*
X4454061Y-2875003D01*
X4418254Y-2961448D01*
X4400000Y-3053217D01*
X-2131466Y-3053217D01*
X-2131044Y-3052795D01*
X-2079061Y-2974997D01*
X-2043254Y-2888552D01*
X-2025000Y-2796783D01*
X-2025000Y-2703217D01*
X-2043254Y-2611448D01*
X-2079061Y-2525003D01*
X-2131044Y-2447205D01*
X-2197205Y-2381044D01*
X-2275003Y-2329061D01*
X-2361448Y-2293254D01*
X-2453217Y-2275000D01*
X-2546783Y-2275000D01*
X-2638552Y-2293254D01*
X-2724997Y-2329061D01*
X-2802795Y-2381044D01*
X-2868956Y-2447205D01*
X-2920939Y-2525003D01*
X-2956746Y-2611448D01*
X-2975000Y-2703217D01*
X-3625032Y-2703217D01*
X-3672205Y-2656044D01*
X-3750003Y-2604061D01*
X-3836448Y-2568254D01*
X-3928217Y-2550000D01*
X-4021783Y-2550000D01*
X-4113552Y-2568254D01*
X-4175000Y-2593707D01*
X-4175000Y-2553217D01*
X-4193254Y-2461448D01*
X-4229061Y-2375003D01*
X-4281044Y-2297205D01*
X-4303249Y-2275000D01*
X-4281044Y-2252795D01*
X-4229061Y-2174997D01*
X-4193254Y-2088552D01*
X-4175000Y-1996783D01*
X-4175000Y-1903217D01*
X-4193254Y-1811448D01*
X-4229061Y-1725003D01*
X-4281044Y-1647205D01*
X-4325032Y-1603217D01*
X-1975000Y-1603217D01*
X-1975000Y-1696783D01*
X-1956746Y-1788552D01*
X-1920939Y-1874997D01*
X-1868956Y-1952795D01*
X-1802795Y-2018956D01*
X-1724997Y-2070939D01*
X-1638552Y-2106746D01*
X-1546783Y-2125000D01*
X-1453217Y-2125000D01*
X-1361448Y-2106746D01*
X-1275003Y-2070939D01*
X-1197205Y-2018956D01*
X-1156466Y-1978217D01*
X2800000Y-1978217D01*
X2800000Y-2071783D01*
X2818254Y-2163552D01*
X2854061Y-2249997D01*
X2906044Y-2327795D01*
X2972205Y-2393956D01*
X3050003Y-2445939D01*
X3136448Y-2481746D01*
X3228217Y-2500000D01*
X3321783Y-2500000D01*
X3413552Y-2481746D01*
X3483459Y-2452789D01*
X6633000Y-2452789D01*
X6633000Y-2647211D01*
X6670930Y-2837897D01*
X6745332Y-3017520D01*
X6853347Y-3179176D01*
X6990824Y-3316653D01*
X7152480Y-3424668D01*
X7332103Y-3499070D01*
X7522789Y-3537000D01*
X7717211Y-3537000D01*
X7907897Y-3499070D01*
X8087520Y-3424668D01*
X8249176Y-3316653D01*
X8386653Y-3179176D01*
X8494668Y-3017520D01*
X8569070Y-2837897D01*
X8607000Y-2647211D01*
X8607000Y-2452789D01*
X8569070Y-2262103D01*
X8494668Y-2082480D01*
X8386653Y-1920824D01*
X8249176Y-1783347D01*
X8087520Y-1675332D01*
X7907897Y-1600930D01*
X7717211Y-1563000D01*
X7522789Y-1563000D01*
X7332103Y-1600930D01*
X7152480Y-1675332D01*
X6990824Y-1783347D01*
X6853347Y-1920824D01*
X6745332Y-2082480D01*
X6670930Y-2262103D01*
X6633000Y-2452789D01*
X3483459Y-2452789D01*
X3499997Y-2445939D01*
X3577795Y-2393956D01*
X3643956Y-2327795D01*
X3695939Y-2249997D01*
X3731746Y-2163552D01*
X3750000Y-2071783D01*
X3750000Y-1978217D01*
X3731746Y-1886448D01*
X3695939Y-1800003D01*
X3643956Y-1722205D01*
X3577795Y-1656044D01*
X3499997Y-1604061D01*
X3413552Y-1568254D01*
X3321783Y-1550000D01*
X3228217Y-1550000D01*
X3136448Y-1568254D01*
X3050003Y-1604061D01*
X2972205Y-1656044D01*
X2906044Y-1722205D01*
X2854061Y-1800003D01*
X2818254Y-1886448D01*
X2800000Y-1978217D01*
X-1156466Y-1978217D01*
X-1131044Y-1952795D01*
X-1079061Y-1874997D01*
X-1043254Y-1788552D01*
X-1025000Y-1696783D01*
X-1025000Y-1603217D01*
X-1043254Y-1511448D01*
X-1079061Y-1425003D01*
X-1131044Y-1347205D01*
X-1197205Y-1281044D01*
X-1275003Y-1229061D01*
X-1361448Y-1193254D01*
X-1453217Y-1175000D01*
X-1546783Y-1175000D01*
X-1638552Y-1193254D01*
X-1724997Y-1229061D01*
X-1802795Y-1281044D01*
X-1868956Y-1347205D01*
X-1920939Y-1425003D01*
X-1956746Y-1511448D01*
X-1975000Y-1603217D01*
X-4325032Y-1603217D01*
X-4347205Y-1581044D01*
X-4425003Y-1529061D01*
X-4511448Y-1493254D01*
X-4603217Y-1475000D01*
X-4696783Y-1475000D01*
X-4788552Y-1493254D01*
X-4874997Y-1529061D01*
X-4952795Y-1581044D01*
X-5018956Y-1647205D01*
X-5070939Y-1725003D01*
X-5106746Y-1811448D01*
X-5125000Y-1903217D01*
X-6870954Y-1903217D01*
X-6990824Y-1783347D01*
X-7152480Y-1675332D01*
X-7332103Y-1600930D01*
X-7522789Y-1563000D01*
X-7717211Y-1563000D01*
X-7907897Y-1600930D01*
X-8087520Y-1675332D01*
X-8249176Y-1783347D01*
X-8386653Y-1920824D01*
X-8494668Y-2082480D01*
X-8569070Y-2262103D01*
X-8607000Y-2452789D01*
X-8770000Y-2452789D01*
X-8770000Y-2076364D01*
X-8766441Y-2064632D01*
X-8765000Y-2050000D01*
X-8765000Y87211D01*
X-8607000Y87211D01*
X-8607000Y-107211D01*
X-8569070Y-297897D01*
X-8494668Y-477520D01*
X-8386653Y-639176D01*
X-8249176Y-776653D01*
X-8087520Y-884668D01*
X-7907897Y-959070D01*
X-7717211Y-997000D01*
X-7522789Y-997000D01*
X-7332103Y-959070D01*
X-7152480Y-884668D01*
X-6990824Y-776653D01*
X-6853347Y-639176D01*
X-6745332Y-477520D01*
X-6683489Y-328217D01*
X-1825000Y-328217D01*
X-1825000Y-421783D01*
X-1806746Y-513552D01*
X-1770939Y-599997D01*
X-1718956Y-677795D01*
X-1652795Y-743956D01*
X-1574997Y-795939D01*
X-1488552Y-831746D01*
X-1396783Y-850000D01*
X-1303217Y-850000D01*
X-1211448Y-831746D01*
X-1125003Y-795939D01*
X-1047205Y-743956D01*
X-981044Y-677795D01*
X-929061Y-599997D01*
X-893254Y-513552D01*
X-875000Y-421783D01*
X-875000Y-328217D01*
X-893254Y-236448D01*
X-907018Y-203217D01*
X275000Y-203217D01*
X275000Y-296783D01*
X293254Y-388552D01*
X329061Y-474997D01*
X381044Y-552795D01*
X447205Y-618956D01*
X525003Y-670939D01*
X611448Y-706746D01*
X703217Y-725000D01*
X796783Y-725000D01*
X888552Y-706746D01*
X974997Y-670939D01*
X1052795Y-618956D01*
X1118956Y-552795D01*
X1170939Y-474997D01*
X1206746Y-388552D01*
X1225000Y-296783D01*
X1225000Y-203217D01*
X1206746Y-111448D01*
X1170939Y-25003D01*
X1118956Y52795D01*
X1084540Y87211D01*
X6633000Y87211D01*
X6633000Y-107211D01*
X6670930Y-297897D01*
X6745332Y-477520D01*
X6853347Y-639176D01*
X6990824Y-776653D01*
X7152480Y-884668D01*
X7332103Y-959070D01*
X7522789Y-997000D01*
X7717211Y-997000D01*
X7907897Y-959070D01*
X8087520Y-884668D01*
X8249176Y-776653D01*
X8386653Y-639176D01*
X8494668Y-477520D01*
X8569070Y-297897D01*
X8607000Y-107211D01*
X8607000Y87211D01*
X8569070Y277897D01*
X8494668Y457520D01*
X8386653Y619176D01*
X8249176Y756653D01*
X8087520Y864668D01*
X7907897Y939070D01*
X7717211Y977000D01*
X7522789Y977000D01*
X7332103Y939070D01*
X7152480Y864668D01*
X6990824Y756653D01*
X6853347Y619176D01*
X6745332Y457520D01*
X6670930Y277897D01*
X6633000Y87211D01*
X1084540Y87211D01*
X1052795Y118956D01*
X974997Y170939D01*
X888552Y206746D01*
X796783Y225000D01*
X703217Y225000D01*
X611448Y206746D01*
X525003Y170939D01*
X447205Y118956D01*
X381044Y52795D01*
X329061Y-25003D01*
X293254Y-111448D01*
X275000Y-203217D01*
X-907018Y-203217D01*
X-929061Y-150003D01*
X-981044Y-72205D01*
X-1047205Y-6044D01*
X-1125003Y45939D01*
X-1211448Y81746D01*
X-1303217Y100000D01*
X-1396783Y100000D01*
X-1488552Y81746D01*
X-1574997Y45939D01*
X-1652795Y-6044D01*
X-1718956Y-72205D01*
X-1770939Y-150003D01*
X-1806746Y-236448D01*
X-1825000Y-328217D01*
X-6683489Y-328217D01*
X-6670930Y-297897D01*
X-6633000Y-107211D01*
X-6633000Y87211D01*
X-6670930Y277897D01*
X-6745332Y457520D01*
X-6853347Y619176D01*
X-6990824Y756653D01*
X-7152480Y864668D01*
X-7332103Y939070D01*
X-7522789Y977000D01*
X-7717211Y977000D01*
X-7907897Y939070D01*
X-8087520Y864668D01*
X-8249176Y756653D01*
X-8386653Y619176D01*
X-8494668Y457520D01*
X-8569070Y277897D01*
X-8607000Y87211D01*
X-8765000Y87211D01*
X-8765000Y1046783D01*
X2025000Y1046783D01*
X2025000Y953217D01*
X2043254Y861448D01*
X2079061Y775003D01*
X2131044Y697205D01*
X2197205Y631044D01*
X2275003Y579061D01*
X2361448Y543254D01*
X2453217Y525000D01*
X2546783Y525000D01*
X2638552Y543254D01*
X2724997Y579061D01*
X2802795Y631044D01*
X2868956Y697205D01*
X2920939Y775003D01*
X2956746Y861448D01*
X2975000Y953217D01*
X2975000Y1046783D01*
X2956746Y1138552D01*
X2920939Y1224997D01*
X2868956Y1302795D01*
X2802795Y1368956D01*
X2724997Y1420939D01*
X2638552Y1456746D01*
X2546783Y1475000D01*
X2453217Y1475000D01*
X2361448Y1456746D01*
X2275003Y1420939D01*
X2197205Y1368956D01*
X2131044Y1302795D01*
X2079061Y1224997D01*
X2043254Y1138552D01*
X2025000Y1046783D01*
X-8765000Y1046783D01*
X-8765000Y2050000D01*
X-8766441Y2064632D01*
X-8770000Y2076364D01*
X-8770000Y2627211D01*
X-8607000Y2627211D01*
X-8607000Y2432789D01*
X-8569070Y2242103D01*
X-8494668Y2062480D01*
X-8386653Y1900824D01*
X-8249176Y1763347D01*
X-8087520Y1655332D01*
X-7907897Y1580930D01*
X-7717211Y1543000D01*
X-7522789Y1543000D01*
X-7332103Y1580930D01*
X-7152480Y1655332D01*
X-6990824Y1763347D01*
X-6853347Y1900824D01*
X-6745332Y2062480D01*
X-6670930Y2242103D01*
X-6633000Y2432789D01*
X-6633000Y2471783D01*
X-4300000Y2471783D01*
X-4300000Y2378217D01*
X-4281746Y2286448D01*
X-4245939Y2200003D01*
X-4193956Y2122205D01*
X-4127795Y2056044D01*
X-4049997Y2004061D01*
X-3963552Y1968254D01*
X-3871783Y1950000D01*
X-3778217Y1950000D01*
X-3686448Y1968254D01*
X-3600003Y2004061D01*
X-3522205Y2056044D01*
X-3456044Y2122205D01*
X-3404061Y2200003D01*
X-3368254Y2286448D01*
X-3350000Y2378217D01*
X-3350000Y2471783D01*
X-3368254Y2563552D01*
X-3404061Y2649997D01*
X-3456044Y2727795D01*
X-3522205Y2793956D01*
X-3600003Y2845939D01*
X-3686448Y2881746D01*
X-3778217Y2900000D01*
X-3871783Y2900000D01*
X-3963552Y2881746D01*
X-4049997Y2845939D01*
X-4127795Y2793956D01*
X-4193956Y2727795D01*
X-4245939Y2649997D01*
X-4281746Y2563552D01*
X-4300000Y2471783D01*
X-6633000Y2471783D01*
X-6633000Y2627211D01*
X-6670930Y2817897D01*
X-6734671Y2971783D01*
X-2000000Y2971783D01*
X-2000000Y2878217D01*
X-1981746Y2786448D01*
X-1945939Y2700003D01*
X-1893956Y2622205D01*
X-1827795Y2556044D01*
X-1749997Y2504061D01*
X-1663552Y2468254D01*
X-1571783Y2450000D01*
X-1478217Y2450000D01*
X-1386448Y2468254D01*
X-1300003Y2504061D01*
X-1222205Y2556044D01*
X-1156044Y2622205D01*
X-1104061Y2700003D01*
X-1068254Y2786448D01*
X-1050000Y2878217D01*
X-1050000Y2971783D01*
X-1068254Y3063552D01*
X-1104061Y3149997D01*
X-1156044Y3227795D01*
X-1222205Y3293956D01*
X-1300003Y3345939D01*
X-1386448Y3381746D01*
X-1478217Y3400000D01*
X-1571783Y3400000D01*
X-1663552Y3381746D01*
X-1749997Y3345939D01*
X-1827795Y3293956D01*
X-1893956Y3227795D01*
X-1945939Y3149997D01*
X-1981746Y3063552D01*
X-2000000Y2971783D01*
X-6734671Y2971783D01*
X-6745332Y2997520D01*
X-6853347Y3159176D01*
X-6990824Y3296653D01*
X-7152480Y3404668D01*
X-7332103Y3479070D01*
X-7522789Y3517000D01*
X-7717211Y3517000D01*
X-7907897Y3479070D01*
X-8087520Y3404668D01*
X-8249176Y3296653D01*
X-8386653Y3159176D01*
X-8494668Y2997520D01*
X-8569070Y2817897D01*
X-8607000Y2627211D01*
X-8770000Y2627211D01*
X-8770000Y3721783D01*
X-6900000Y3721783D01*
X-6900000Y3628217D01*
X-6881746Y3536448D01*
X-6845939Y3450003D01*
X-6793956Y3372205D01*
X-6727795Y3306044D01*
X-6649997Y3254061D01*
X-6563552Y3218254D01*
X-6471783Y3200000D01*
X-6378217Y3200000D01*
X-6286448Y3218254D01*
X-6200003Y3254061D01*
X-6122205Y3306044D01*
X-6056044Y3372205D01*
X-6004061Y3450003D01*
X-5968254Y3536448D01*
X-5961226Y3571783D01*
X-4800000Y3571783D01*
X-4800000Y3478217D01*
X-4781746Y3386448D01*
X-4745939Y3300003D01*
X-4693956Y3222205D01*
X-4627795Y3156044D01*
X-4549997Y3104061D01*
X-4463552Y3068254D01*
X-4371783Y3050000D01*
X-4278217Y3050000D01*
X-4186448Y3068254D01*
X-4100003Y3104061D01*
X-4022205Y3156044D01*
X-3956044Y3222205D01*
X-3904061Y3300003D01*
X-3868254Y3386448D01*
X-3850000Y3478217D01*
X-3850000Y3571783D01*
X-3868254Y3663552D01*
X-3904061Y3749997D01*
X-3956044Y3827795D01*
X-4022205Y3893956D01*
X-4100003Y3945939D01*
X-4186448Y3981746D01*
X-4278217Y4000000D01*
X-4371783Y4000000D01*
X-4463552Y3981746D01*
X-4549997Y3945939D01*
X-4627795Y3893956D01*
X-4693956Y3827795D01*
X-4745939Y3749997D01*
X-4781746Y3663552D01*
X-4800000Y3571783D01*
X-5961226Y3571783D01*
X-5950000Y3628217D01*
X-5950000Y3721783D01*
X-5968254Y3813552D01*
X-6004061Y3899997D01*
X-6056044Y3977795D01*
X-6122205Y4043956D01*
X-6200003Y4095939D01*
X-6286448Y4131746D01*
X-6378217Y4150000D01*
X-6471783Y4150000D01*
X-6563552Y4131746D01*
X-6649997Y4095939D01*
X-6727795Y4043956D01*
X-6793956Y3977795D01*
X-6845939Y3899997D01*
X-6881746Y3813552D01*
X-6900000Y3721783D01*
X-8770000Y3721783D01*
X-8770000Y4100276D01*
X-8336580Y4100276D01*
X-8262585Y3881025D01*
X-8018281Y3778509D01*
X-7758670Y3725624D01*
X-7493731Y3724403D01*
X-7233644Y3774892D01*
X-6988404Y3875151D01*
X-6977415Y3881025D01*
X-6903420Y4100276D01*
X-7128144Y4325000D01*
X-500000Y4325000D01*
X-500000Y2275000D01*
X-498559Y2260368D01*
X-494291Y2246299D01*
X-487360Y2233332D01*
X-478033Y2221967D01*
X-466668Y2212640D01*
X-453701Y2205709D01*
X-439632Y2201441D01*
X-425000Y2200000D01*
X4225000Y2200000D01*
X4239632Y2201441D01*
X4253701Y2205709D01*
X4266668Y2212640D01*
X4278033Y2221967D01*
X4287360Y2233332D01*
X4294291Y2246299D01*
X4298559Y2260368D01*
X4300000Y2275000D01*
X4300000Y2550000D01*
X6300000Y2550000D01*
X6314632Y2551441D01*
X6328701Y2555709D01*
X6341668Y2562640D01*
X6353033Y2571967D01*
X6362360Y2583332D01*
X6369291Y2596299D01*
X6373559Y2610368D01*
X6375000Y2625000D01*
X6375000Y2627211D01*
X6633000Y2627211D01*
X6633000Y2432789D01*
X6670930Y2242103D01*
X6745332Y2062480D01*
X6853347Y1900824D01*
X6990824Y1763347D01*
X7152480Y1655332D01*
X7332103Y1580930D01*
X7522789Y1543000D01*
X7717211Y1543000D01*
X7907897Y1580930D01*
X8087520Y1655332D01*
X8249176Y1763347D01*
X8386653Y1900824D01*
X8494668Y2062480D01*
X8569070Y2242103D01*
X8607000Y2432789D01*
X8607000Y2627211D01*
X8569070Y2817897D01*
X8494668Y2997520D01*
X8386653Y3159176D01*
X8249176Y3296653D01*
X8087520Y3404668D01*
X7907897Y3479070D01*
X7717211Y3517000D01*
X7522789Y3517000D01*
X7332103Y3479070D01*
X7152480Y3404668D01*
X6990824Y3296653D01*
X6853347Y3159176D01*
X6745332Y2997520D01*
X6670930Y2817897D01*
X6633000Y2627211D01*
X6375000Y2627211D01*
X6375000Y3575000D01*
X6373559Y3589632D01*
X6369291Y3603701D01*
X6362360Y3616668D01*
X6353033Y3628033D01*
X6341668Y3637360D01*
X6328701Y3644291D01*
X6314632Y3648559D01*
X6300000Y3650000D01*
X4300000Y3650000D01*
X4300000Y4325000D01*
X4298559Y4339632D01*
X4294291Y4353701D01*
X4287360Y4366668D01*
X4278033Y4378033D01*
X4266668Y4387360D01*
X4253701Y4394291D01*
X4239632Y4398559D01*
X4225000Y4400000D01*
X-425000Y4400000D01*
X-439632Y4398559D01*
X-453701Y4394291D01*
X-466668Y4387360D01*
X-478033Y4378033D01*
X-487360Y4366668D01*
X-494291Y4353701D01*
X-498559Y4339632D01*
X-500000Y4325000D01*
X-7128144Y4325000D01*
X-7620000Y4816856D01*
X-8336580Y4100276D01*
X-8770000Y4100276D01*
X-8770000Y4414261D01*
X-8589724Y4353420D01*
X-7873144Y5070000D01*
X-7366856Y5070000D01*
X-6650276Y4353420D01*
X-6431025Y4427415D01*
X-6328509Y4671719D01*
X-6275624Y4931330D01*
X-6274403Y5196269D01*
X-6293915Y5296783D01*
X-2075000Y5296783D01*
X-2075000Y5203217D01*
X-2056746Y5111448D01*
X-2020939Y5025003D01*
X-1968956Y4947205D01*
X-1902795Y4881044D01*
X-1824997Y4829061D01*
X-1738552Y4793254D01*
X-1646783Y4775000D01*
X-1553217Y4775000D01*
X-1461448Y4793254D01*
X-1375003Y4829061D01*
X-1297205Y4881044D01*
X-1231044Y4947205D01*
X-1191648Y5006166D01*
X-1168956Y4972205D01*
X-1102795Y4906044D01*
X-1024997Y4854061D01*
X-938552Y4818254D01*
X-846783Y4800000D01*
X-753217Y4800000D01*
X-661448Y4818254D01*
X-575003Y4854061D01*
X-497205Y4906044D01*
X-431466Y4971783D01*
X5025000Y4971783D01*
X5025000Y4878217D01*
X5043254Y4786448D01*
X5079061Y4700003D01*
X5131044Y4622205D01*
X5197205Y4556044D01*
X5275003Y4504061D01*
X5361448Y4468254D01*
X5453217Y4450000D01*
X5546783Y4450000D01*
X5602594Y4461102D01*
X5593254Y4438552D01*
X5575000Y4346783D01*
X5575000Y4253217D01*
X5593254Y4161448D01*
X5629061Y4075003D01*
X5681044Y3997205D01*
X5747205Y3931044D01*
X5825003Y3879061D01*
X5911448Y3843254D01*
X6003217Y3825000D01*
X6096783Y3825000D01*
X6188552Y3843254D01*
X6274997Y3879061D01*
X6352795Y3931044D01*
X6418956Y3997205D01*
X6470939Y4075003D01*
X6506746Y4161448D01*
X6525000Y4253217D01*
X6525000Y4346783D01*
X6506746Y4438552D01*
X6470939Y4524997D01*
X6418956Y4602795D01*
X6352795Y4668956D01*
X6274997Y4720939D01*
X6188552Y4756746D01*
X6096783Y4775000D01*
X6003217Y4775000D01*
X5947406Y4763898D01*
X5956746Y4786448D01*
X5975000Y4878217D01*
X5975000Y4971783D01*
X5956746Y5063552D01*
X5920939Y5149997D01*
X5909437Y5167211D01*
X6633000Y5167211D01*
X6633000Y4972789D01*
X6670930Y4782103D01*
X6745332Y4602480D01*
X6853347Y4440824D01*
X6990824Y4303347D01*
X7152480Y4195332D01*
X7332103Y4120930D01*
X7522789Y4083000D01*
X7717211Y4083000D01*
X7907897Y4120930D01*
X8087520Y4195332D01*
X8249176Y4303347D01*
X8386653Y4440824D01*
X8494668Y4602480D01*
X8569070Y4782103D01*
X8607000Y4972789D01*
X8607000Y5167211D01*
X8569070Y5357897D01*
X8494668Y5537520D01*
X8386653Y5699176D01*
X8249176Y5836653D01*
X8087520Y5944668D01*
X7907897Y6019070D01*
X7717211Y6057000D01*
X7522789Y6057000D01*
X7332103Y6019070D01*
X7152480Y5944668D01*
X6990824Y5836653D01*
X6853347Y5699176D01*
X6745332Y5537520D01*
X6670930Y5357897D01*
X6633000Y5167211D01*
X5909437Y5167211D01*
X5868956Y5227795D01*
X5802795Y5293956D01*
X5724997Y5345939D01*
X5638552Y5381746D01*
X5546783Y5400000D01*
X5453217Y5400000D01*
X5361448Y5381746D01*
X5275003Y5345939D01*
X5197205Y5293956D01*
X5131044Y5227795D01*
X5079061Y5149997D01*
X5043254Y5063552D01*
X5025000Y4971783D01*
X-431466Y4971783D01*
X-431044Y4972205D01*
X-379061Y5050003D01*
X-343254Y5136448D01*
X-325000Y5228217D01*
X-325000Y5321783D01*
X-343254Y5413552D01*
X-379061Y5499997D01*
X-431044Y5577795D01*
X-497205Y5643956D01*
X-575003Y5695939D01*
X-661448Y5731746D01*
X-737044Y5746783D01*
X600000Y5746783D01*
X600000Y5653217D01*
X618254Y5561448D01*
X654061Y5475003D01*
X706044Y5397205D01*
X772205Y5331044D01*
X850003Y5279061D01*
X936448Y5243254D01*
X1028217Y5225000D01*
X1121783Y5225000D01*
X1213552Y5243254D01*
X1299997Y5279061D01*
X1377795Y5331044D01*
X1443956Y5397205D01*
X1495939Y5475003D01*
X1531746Y5561448D01*
X1550000Y5653217D01*
X1550000Y5746783D01*
X1531746Y5838552D01*
X1495939Y5924997D01*
X1443956Y6002795D01*
X1377795Y6068956D01*
X1299997Y6120939D01*
X1213552Y6156746D01*
X1121783Y6175000D01*
X1028217Y6175000D01*
X936448Y6156746D01*
X850003Y6120939D01*
X772205Y6068956D01*
X706044Y6002795D01*
X654061Y5924997D01*
X618254Y5838552D01*
X600000Y5746783D01*
X-737044Y5746783D01*
X-753217Y5750000D01*
X-846783Y5750000D01*
X-938552Y5731746D01*
X-1024997Y5695939D01*
X-1102795Y5643956D01*
X-1168956Y5577795D01*
X-1208352Y5518834D01*
X-1231044Y5552795D01*
X-1297205Y5618956D01*
X-1375003Y5670939D01*
X-1461448Y5706746D01*
X-1553217Y5725000D01*
X-1646783Y5725000D01*
X-1738552Y5706746D01*
X-1824997Y5670939D01*
X-1902795Y5618956D01*
X-1968956Y5552795D01*
X-2020939Y5474997D01*
X-2056746Y5388552D01*
X-2075000Y5296783D01*
X-6293915Y5296783D01*
X-6324892Y5456356D01*
X-6425151Y5701596D01*
X-6431025Y5712585D01*
X-6650276Y5786580D01*
X-7366856Y5070000D01*
X-7873144Y5070000D01*
X-8589724Y5786580D01*
X-8770000Y5725739D01*
X-8770000Y6640276D01*
X-8336580Y6640276D01*
X-8262585Y6421025D01*
X-8068645Y6339643D01*
X-8251596Y6264849D01*
X-8262585Y6258975D01*
X-8336580Y6039724D01*
X-7620000Y5323144D01*
X-6903420Y6039724D01*
X-6977415Y6258975D01*
X-7171355Y6340357D01*
X-6988404Y6415151D01*
X-6977415Y6421025D01*
X-6903420Y6640276D01*
X-7620000Y7356856D01*
X-8336580Y6640276D01*
X-8770000Y6640276D01*
X-8770000Y6954261D01*
X-8589724Y6893420D01*
X-7873144Y7610000D01*
X-7366856Y7610000D01*
X-6650276Y6893420D01*
X-6431025Y6967415D01*
X-6328509Y7211719D01*
X-6295903Y7371783D01*
X-4750000Y7371783D01*
X-4750000Y7278217D01*
X-4731746Y7186448D01*
X-4695939Y7100003D01*
X-4643956Y7022205D01*
X-4577795Y6956044D01*
X-4499997Y6904061D01*
X-4413552Y6868254D01*
X-4321783Y6850000D01*
X-4228217Y6850000D01*
X-4136448Y6868254D01*
X-4050003Y6904061D01*
X-4023481Y6921783D01*
X1725000Y6921783D01*
X1725000Y6828217D01*
X1743254Y6736448D01*
X1779061Y6650003D01*
X1831044Y6572205D01*
X1897205Y6506044D01*
X1975003Y6454061D01*
X2061448Y6418254D01*
X2153217Y6400000D01*
X2246783Y6400000D01*
X2338552Y6418254D01*
X2424997Y6454061D01*
X2502795Y6506044D01*
X2568956Y6572205D01*
X2620939Y6650003D01*
X2656746Y6736448D01*
X2675000Y6828217D01*
X2675000Y6921783D01*
X2656746Y7013552D01*
X2620939Y7099997D01*
X2568956Y7177795D01*
X2502795Y7243956D01*
X2424997Y7295939D01*
X2338552Y7331746D01*
X2246783Y7350000D01*
X2153217Y7350000D01*
X2061448Y7331746D01*
X1975003Y7295939D01*
X1897205Y7243956D01*
X1831044Y7177795D01*
X1779061Y7099997D01*
X1743254Y7013552D01*
X1725000Y6921783D01*
X-4023481Y6921783D01*
X-3972205Y6956044D01*
X-3906044Y7022205D01*
X-3854061Y7100003D01*
X-3822926Y7175170D01*
X-3776052Y7155754D01*
X-3684283Y7137500D01*
X-3590717Y7137500D01*
X-3498948Y7155754D01*
X-3412503Y7191561D01*
X-3334705Y7243544D01*
X-3268544Y7309705D01*
X-3216561Y7387503D01*
X-3180754Y7473948D01*
X-3162500Y7565717D01*
X-3162500Y7659283D01*
X-3177418Y7734283D01*
X-2987500Y7734283D01*
X-2987500Y7640717D01*
X-2969246Y7548948D01*
X-2933439Y7462503D01*
X-2881456Y7384705D01*
X-2815295Y7318544D01*
X-2737497Y7266561D01*
X-2651052Y7230754D01*
X-2559283Y7212500D01*
X-2465717Y7212500D01*
X-2373948Y7230754D01*
X-2287503Y7266561D01*
X-2209705Y7318544D01*
X-2143544Y7384705D01*
X-2091561Y7462503D01*
X-2074776Y7503025D01*
X-2052795Y7481044D01*
X-1974997Y7429061D01*
X-1888552Y7393254D01*
X-1796783Y7375000D01*
X-1703217Y7375000D01*
X-1611448Y7393254D01*
X-1525003Y7429061D01*
X-1447205Y7481044D01*
X-1381044Y7547205D01*
X-1329061Y7625003D01*
X-1293254Y7711448D01*
X-1291199Y7721783D01*
X500000Y7721783D01*
X500000Y7628217D01*
X518254Y7536448D01*
X554061Y7450003D01*
X606044Y7372205D01*
X672205Y7306044D01*
X750003Y7254061D01*
X836448Y7218254D01*
X928217Y7200000D01*
X1021783Y7200000D01*
X1113552Y7218254D01*
X1199997Y7254061D01*
X1277795Y7306044D01*
X1343956Y7372205D01*
X1395939Y7450003D01*
X1431746Y7536448D01*
X1450000Y7628217D01*
X1450000Y7696783D01*
X4450000Y7696783D01*
X4450000Y7603217D01*
X4468254Y7511448D01*
X4504061Y7425003D01*
X4556044Y7347205D01*
X4622205Y7281044D01*
X4700003Y7229061D01*
X4786448Y7193254D01*
X4878217Y7175000D01*
X4971783Y7175000D01*
X5063552Y7193254D01*
X5149997Y7229061D01*
X5227795Y7281044D01*
X5293956Y7347205D01*
X5345939Y7425003D01*
X5381746Y7511448D01*
X5400000Y7603217D01*
X5400000Y7696783D01*
X5397926Y7707211D01*
X6633000Y7707211D01*
X6633000Y7512789D01*
X6670930Y7322103D01*
X6745332Y7142480D01*
X6853347Y6980824D01*
X6990824Y6843347D01*
X7152480Y6735332D01*
X7332103Y6660930D01*
X7522789Y6623000D01*
X7717211Y6623000D01*
X7907897Y6660930D01*
X8087520Y6735332D01*
X8249176Y6843347D01*
X8386653Y6980824D01*
X8494668Y7142480D01*
X8569070Y7322103D01*
X8607000Y7512789D01*
X8607000Y7707211D01*
X8569070Y7897897D01*
X8494668Y8077520D01*
X8386653Y8239176D01*
X8249176Y8376653D01*
X8087520Y8484668D01*
X7907897Y8559070D01*
X7717211Y8597000D01*
X7522789Y8597000D01*
X7332103Y8559070D01*
X7152480Y8484668D01*
X6990824Y8376653D01*
X6853347Y8239176D01*
X6745332Y8077520D01*
X6670930Y7897897D01*
X6633000Y7707211D01*
X5397926Y7707211D01*
X5381746Y7788552D01*
X5345939Y7874997D01*
X5293956Y7952795D01*
X5227795Y8018956D01*
X5149997Y8070939D01*
X5063552Y8106746D01*
X4971783Y8125000D01*
X4878217Y8125000D01*
X4786448Y8106746D01*
X4700003Y8070939D01*
X4622205Y8018956D01*
X4556044Y7952795D01*
X4504061Y7874997D01*
X4468254Y7788552D01*
X4450000Y7696783D01*
X1450000Y7696783D01*
X1450000Y7721783D01*
X1431746Y7813552D01*
X1395939Y7899997D01*
X1343956Y7977795D01*
X1277795Y8043956D01*
X1199997Y8095939D01*
X1113552Y8131746D01*
X1021783Y8150000D01*
X928217Y8150000D01*
X836448Y8131746D01*
X750003Y8095939D01*
X672205Y8043956D01*
X606044Y7977795D01*
X554061Y7899997D01*
X518254Y7813552D01*
X500000Y7721783D01*
X-1291199Y7721783D01*
X-1275000Y7803217D01*
X-1275000Y7896783D01*
X-1293254Y7988552D01*
X-1329061Y8074997D01*
X-1381044Y8152795D01*
X-1447205Y8218956D01*
X-1525003Y8270939D01*
X-1611448Y8306746D01*
X-1703217Y8325000D01*
X-1796783Y8325000D01*
X-1888552Y8306746D01*
X-1974997Y8270939D01*
X-2052795Y8218956D01*
X-2118956Y8152795D01*
X-2170939Y8074997D01*
X-2187724Y8034475D01*
X-2209705Y8056456D01*
X-2287503Y8108439D01*
X-2373948Y8144246D01*
X-2465717Y8162500D01*
X-2559283Y8162500D01*
X-2651052Y8144246D01*
X-2737497Y8108439D01*
X-2815295Y8056456D01*
X-2881456Y7990295D01*
X-2933439Y7912497D01*
X-2969246Y7826052D01*
X-2987500Y7734283D01*
X-3177418Y7734283D01*
X-3180754Y7751052D01*
X-3216561Y7837497D01*
X-3268544Y7915295D01*
X-3334705Y7981456D01*
X-3412503Y8033439D01*
X-3498948Y8069246D01*
X-3590717Y8087500D01*
X-3684283Y8087500D01*
X-3776052Y8069246D01*
X-3862497Y8033439D01*
X-3940295Y7981456D01*
X-4006456Y7915295D01*
X-4058439Y7837497D01*
X-4089574Y7762330D01*
X-4136448Y7781746D01*
X-4228217Y7800000D01*
X-4321783Y7800000D01*
X-4413552Y7781746D01*
X-4499997Y7745939D01*
X-4577795Y7693956D01*
X-4643956Y7627795D01*
X-4695939Y7549997D01*
X-4731746Y7463552D01*
X-4750000Y7371783D01*
X-6295903Y7371783D01*
X-6275624Y7471330D01*
X-6274403Y7736269D01*
X-6324892Y7996356D01*
X-6425151Y8241596D01*
X-6431025Y8252585D01*
X-6650276Y8326580D01*
X-7366856Y7610000D01*
X-7873144Y7610000D01*
X-8589724Y8326580D01*
X-8770000Y8265739D01*
X-8770000Y8579724D01*
X-8336580Y8579724D01*
X-7620000Y7863144D01*
X-6903420Y8579724D01*
X-6977415Y8798975D01*
X-7221719Y8901491D01*
X-7481330Y8954376D01*
X-7746269Y8955597D01*
X-8006356Y8905108D01*
X-8251596Y8804849D01*
X-8262585Y8798975D01*
X-8336580Y8579724D01*
X-8770000Y8579724D01*
X-8770000Y8978939D01*
X-1575000Y8978939D01*
X-1575000Y8885373D01*
X-1556746Y8793604D01*
X-1520939Y8707159D01*
X-1468956Y8629361D01*
X-1402795Y8563200D01*
X-1324997Y8511217D01*
X-1238552Y8475410D01*
X-1146783Y8457156D01*
X-1053217Y8457156D01*
X-969629Y8473783D01*
X-975000Y8446783D01*
X-975000Y8353217D01*
X-956746Y8261448D01*
X-920939Y8175003D01*
X-868956Y8097205D01*
X-802795Y8031044D01*
X-724997Y7979061D01*
X-638552Y7943254D01*
X-546783Y7925000D01*
X-453217Y7925000D01*
X-361448Y7943254D01*
X-275003Y7979061D01*
X-197205Y8031044D01*
X-131044Y8097205D01*
X-79061Y8175003D01*
X-43254Y8261448D01*
X-25000Y8353217D01*
X-25000Y8446783D01*
X-43254Y8538552D01*
X-79061Y8624997D01*
X-131044Y8702795D01*
X-197205Y8768956D01*
X-275003Y8820939D01*
X-361448Y8856746D01*
X-453217Y8875000D01*
X-546783Y8875000D01*
X-630371Y8858373D01*
X-625000Y8885373D01*
X-625000Y8978939D01*
X-643254Y9070708D01*
X-674765Y9146783D01*
X-250000Y9146783D01*
X-250000Y9053217D01*
X-231746Y8961448D01*
X-195939Y8875003D01*
X-143956Y8797205D01*
X-77795Y8731044D01*
X3Y8679061D01*
X86448Y8643254D01*
X178217Y8625000D01*
X271783Y8625000D01*
X363552Y8643254D01*
X449997Y8679061D01*
X527795Y8731044D01*
X593956Y8797205D01*
X645939Y8875003D01*
X681746Y8961448D01*
X700000Y9053217D01*
X700000Y9146783D01*
X685082Y9221783D01*
X875000Y9221783D01*
X875000Y9128217D01*
X893254Y9036448D01*
X929061Y8950003D01*
X981044Y8872205D01*
X1047205Y8806044D01*
X1125003Y8754061D01*
X1211448Y8718254D01*
X1303217Y8700000D01*
X1396783Y8700000D01*
X1488552Y8718254D01*
X1574997Y8754061D01*
X1652795Y8806044D01*
X1718956Y8872205D01*
X1770939Y8950003D01*
X1806746Y9036448D01*
X1825000Y9128217D01*
X1825000Y9221783D01*
X1806746Y9313552D01*
X1770939Y9399997D01*
X1718956Y9477795D01*
X1652795Y9543956D01*
X1574997Y9595939D01*
X1488552Y9631746D01*
X1396783Y9650000D01*
X1303217Y9650000D01*
X1211448Y9631746D01*
X1125003Y9595939D01*
X1047205Y9543956D01*
X981044Y9477795D01*
X929061Y9399997D01*
X893254Y9313552D01*
X875000Y9221783D01*
X685082Y9221783D01*
X681746Y9238552D01*
X645939Y9324997D01*
X593956Y9402795D01*
X527795Y9468956D01*
X449997Y9520939D01*
X363552Y9556746D01*
X271783Y9575000D01*
X178217Y9575000D01*
X86448Y9556746D01*
X3Y9520939D01*
X-77795Y9468956D01*
X-143956Y9402795D01*
X-195939Y9324997D01*
X-231746Y9238552D01*
X-250000Y9146783D01*
X-674765Y9146783D01*
X-679061Y9157153D01*
X-731044Y9234951D01*
X-797205Y9301112D01*
X-875003Y9353095D01*
X-961448Y9388902D01*
X-1053217Y9407156D01*
X-1146783Y9407156D01*
X-1238552Y9388902D01*
X-1324997Y9353095D01*
X-1402795Y9301112D01*
X-1468956Y9234951D01*
X-1520939Y9157153D01*
X-1556746Y9070708D01*
X-1575000Y8978939D01*
X-8770000Y8978939D01*
X-8770000Y10247211D01*
X-8607000Y10247211D01*
X-8607000Y10052789D01*
X-8569070Y9862103D01*
X-8494668Y9682480D01*
X-8386653Y9520824D01*
X-8249176Y9383347D01*
X-8087520Y9275332D01*
X-7907897Y9200930D01*
X-7717211Y9163000D01*
X-7522789Y9163000D01*
X-7332103Y9200930D01*
X-7152480Y9275332D01*
X-6990824Y9383347D01*
X-6853347Y9520824D01*
X-6802593Y9596783D01*
X-3675000Y9596783D01*
X-3675000Y9503217D01*
X-3656746Y9411448D01*
X-3620939Y9325003D01*
X-3568956Y9247205D01*
X-3502795Y9181044D01*
X-3424997Y9129061D01*
X-3338552Y9093254D01*
X-3246783Y9075000D01*
X-3153217Y9075000D01*
X-3061448Y9093254D01*
X-2975003Y9129061D01*
X-2897205Y9181044D01*
X-2831044Y9247205D01*
X-2779061Y9325003D01*
X-2754778Y9383627D01*
X-2702495Y9331344D01*
X-2624697Y9279361D01*
X-2538252Y9243554D01*
X-2446483Y9225300D01*
X-2352917Y9225300D01*
X-2261148Y9243554D01*
X-2174703Y9279361D01*
X-2096905Y9331344D01*
X-2050000Y9378249D01*
X-2002795Y9331044D01*
X-1924997Y9279061D01*
X-1838552Y9243254D01*
X-1746783Y9225000D01*
X-1653217Y9225000D01*
X-1561448Y9243254D01*
X-1475003Y9279061D01*
X-1397205Y9331044D01*
X-1331044Y9397205D01*
X-1279061Y9475003D01*
X-1243254Y9561448D01*
X-1225000Y9653217D01*
X-1225000Y9671783D01*
X3575000Y9671783D01*
X3575000Y9578217D01*
X3593254Y9486448D01*
X3629061Y9400003D01*
X3681044Y9322205D01*
X3747205Y9256044D01*
X3825003Y9204061D01*
X3911448Y9168254D01*
X4003217Y9150000D01*
X4096783Y9150000D01*
X4188552Y9168254D01*
X4217575Y9180276D01*
X6903420Y9180276D01*
X6977415Y8961025D01*
X7221719Y8858509D01*
X7481330Y8805624D01*
X7746269Y8804403D01*
X8006356Y8854892D01*
X8251596Y8955151D01*
X8262585Y8961025D01*
X8336580Y9180276D01*
X7620000Y9896856D01*
X6903420Y9180276D01*
X4217575Y9180276D01*
X4274997Y9204061D01*
X4352795Y9256044D01*
X4418956Y9322205D01*
X4470939Y9400003D01*
X4506746Y9486448D01*
X4525000Y9578217D01*
X4525000Y9671783D01*
X4506746Y9763552D01*
X4470939Y9849997D01*
X4418956Y9927795D01*
X4352795Y9993956D01*
X4308234Y10023731D01*
X6274403Y10023731D01*
X6324892Y9763644D01*
X6425151Y9518404D01*
X6431025Y9507415D01*
X6650276Y9433420D01*
X7366856Y10150000D01*
X6650276Y10866580D01*
X6431025Y10792585D01*
X6328509Y10548281D01*
X6275624Y10288670D01*
X6274403Y10023731D01*
X4308234Y10023731D01*
X4274997Y10045939D01*
X4188552Y10081746D01*
X4096783Y10100000D01*
X4003217Y10100000D01*
X3911448Y10081746D01*
X3825003Y10045939D01*
X3747205Y9993956D01*
X3681044Y9927795D01*
X3629061Y9849997D01*
X3593254Y9763552D01*
X3575000Y9671783D01*
X-1225000Y9671783D01*
X-1225000Y9746783D01*
X-1243254Y9838552D01*
X-1279061Y9924997D01*
X-1331044Y10002795D01*
X-1397205Y10068956D01*
X-1475003Y10120939D01*
X-1561448Y10156746D01*
X-1653217Y10175000D01*
X-1746783Y10175000D01*
X-1838552Y10156746D01*
X-1924997Y10120939D01*
X-2002795Y10068956D01*
X-2049700Y10022051D01*
X-2096905Y10069256D01*
X-2174703Y10121239D01*
X-2261148Y10157046D01*
X-2352917Y10175300D01*
X-2446483Y10175300D01*
X-2538252Y10157046D01*
X-2624697Y10121239D01*
X-2702495Y10069256D01*
X-2768656Y10003095D01*
X-2820639Y9925297D01*
X-2844922Y9866673D01*
X-2897205Y9918956D01*
X-2975003Y9970939D01*
X-3061448Y10006746D01*
X-3153217Y10025000D01*
X-3246783Y10025000D01*
X-3338552Y10006746D01*
X-3424997Y9970939D01*
X-3502795Y9918956D01*
X-3568956Y9852795D01*
X-3620939Y9774997D01*
X-3656746Y9688552D01*
X-3675000Y9596783D01*
X-6802593Y9596783D01*
X-6745332Y9682480D01*
X-6670930Y9862103D01*
X-6633000Y10052789D01*
X-6633000Y10247211D01*
X-6670930Y10437897D01*
X-6745332Y10617520D01*
X-6853347Y10779176D01*
X-6990824Y10916653D01*
X-7152480Y11024668D01*
X-7332103Y11099070D01*
X-7522789Y11137000D01*
X-7717211Y11137000D01*
X-7907897Y11099070D01*
X-8087520Y11024668D01*
X-8249176Y10916653D01*
X-8386653Y10779176D01*
X-8494668Y10617520D01*
X-8569070Y10437897D01*
X-8607000Y10247211D01*
X-8770000Y10247211D01*
X-8770000Y12787211D01*
X-8607000Y12787211D01*
X-8607000Y12592789D01*
X-8569070Y12402103D01*
X-8494668Y12222480D01*
X-8386653Y12060824D01*
X-8249176Y11923347D01*
X-8087520Y11815332D01*
X-7907897Y11740930D01*
X-7717211Y11703000D01*
X-7522789Y11703000D01*
X-7332103Y11740930D01*
X-7152480Y11815332D01*
X-6990824Y11923347D01*
X-6853347Y12060824D01*
X-6745332Y12222480D01*
X-6670930Y12402103D01*
X-6633000Y12592789D01*
X-6633000Y12787211D01*
X-6670930Y12977897D01*
X-6745332Y13157520D01*
X-6853347Y13319176D01*
X-6990824Y13456653D01*
X-7152480Y13564668D01*
X-7332103Y13639070D01*
X-7522789Y13677000D01*
X-7717211Y13677000D01*
X-7907897Y13639070D01*
X-8087520Y13564668D01*
X-8249176Y13456653D01*
X-8386653Y13319176D01*
X-8494668Y13157520D01*
X-8569070Y12977897D01*
X-8607000Y12787211D01*
X-8770000Y12787211D01*
X-8770000Y15237771D01*
X-8761231Y15327211D01*
X-8607000Y15327211D01*
X-8607000Y15132789D01*
X-8569070Y14942103D01*
X-8494668Y14762480D01*
X-8386653Y14600824D01*
X-8249176Y14463347D01*
X-8087520Y14355332D01*
X-7907897Y14280930D01*
X-7717211Y14243000D01*
X-7522789Y14243000D01*
X-7332103Y14280930D01*
X-7152480Y14355332D01*
X-6990824Y14463347D01*
X-6853347Y14600824D01*
X-6745332Y14762480D01*
X-6670930Y14942103D01*
X-6633000Y15132789D01*
X-6633000Y15327211D01*
X-6670930Y15517897D01*
X-6745332Y15697520D01*
X-6853347Y15859176D01*
X-6990824Y15996653D01*
X-7152480Y16104668D01*
X-7332103Y16179070D01*
X-7522789Y16217000D01*
X-7717211Y16217000D01*
X-7907897Y16179070D01*
X-8087520Y16104668D01*
X-8249176Y15996653D01*
X-8386653Y15859176D01*
X-8494668Y15697520D01*
X-8569070Y15517897D01*
X-8607000Y15327211D01*
X-8761231Y15327211D01*
X-8746922Y15473137D01*
X-8682119Y15687775D01*
X-8576860Y15885739D01*
X-8435156Y16059485D01*
X-8262402Y16202399D01*
X-8065181Y16309036D01*
X-7850994Y16375338D01*
X-7616352Y16400000D01*
X-6162624Y16400000D01*
X-6180731Y16377936D01*
G37*
%TD.AperFunction*%
%TD*%
M02*
