M48
; DRILL file {KiCad (5.1.9)-1} date 01/30/21 16:38:41
; FORMAT={-:-/ absolute / inch / decimal}
; #@! TF.CreationDate,2021-01-30T16:38:41+08:00
; #@! TF.GenerationSoftware,Kicad,Pcbnew,(5.1.9)-1
FMAT,2
INCH
T1C0.0079
T2C0.0098
T3C0.0118
T4C0.0236
T5C0.0320
T6C0.0197
%
G90
G05
T1
X-0.0935Y0.1043
X-0.0935Y0.061
T2
X-0.3Y0.5496
X-0.3Y0.4496
X-0.3Y0.3496
X-0.3Y0.2496
X-0.3Y0.1496
X-0.3Y0.0496
X-0.3Y-0.0504
X-0.3Y-0.1504
X-0.3Y-0.2504
X-0.3Y-0.3504
X-0.2539Y0.2146
X-0.2382Y0.1152
X-0.2313Y-0.1585
X-0.2283Y0.2982
X-0.2126Y-0.4124
X-0.2087Y-0.1772
X-0.1992Y-0.3041
X-0.1831Y-0.0768
X-0.1831Y-0.1024
X-0.1801Y0.4006
X-0.1781Y-0.374
X-0.1663Y0.2677
X-0.1614Y-0.3041
X-0.1516Y-0.0128
X-0.1506Y-0.2165
X-0.1467Y-0.1191
X-0.1319Y-0.3248
X-0.1289Y0.0305
X-0.128Y0.2707
X-0.1102Y0.247
X-0.0984Y-0.1083
X-0.0945Y0.377
X-0.0906Y0.1644
X-0.0896Y0.1949
X-0.0896Y0.1339
X-0.0787Y0.2854
X-0.0689Y-0.3169
X-0.0689Y-0.3484
X-0.0689Y-0.378
X-0.0591Y-0.0689
X-0.0539Y0.3517
X-0.0502Y0.2579
X-0.0472Y0.0069
X-0.0315Y0.3051
X-0.0207Y0.0187
X-0.0207Y-0.4094
X-0.0197Y0.3307
X-0.0098Y-0.3858
X-0.0098Y-0.4341
X-0.002Y-0.2618
X0.0Y0.1614
X0.0089Y0.3583
X0.0197Y-0.2776
X0.0231Y-0.0221
X0.0443Y0.2441
X0.0787Y-0.311
X0.0817Y0.0187
X0.0915Y0.2697
X0.0915Y0.2392
X0.0915Y0.2067
X0.0945Y0.377
X0.0984Y0.3012
X0.0994Y-0.437
X0.1014Y0.3366
X0.1083Y-0.25
X0.124Y-0.3514
X0.1299Y-0.0709
X0.1486Y-0.186
X0.1486Y-0.2234
X0.1703Y-0.1614
X0.1722Y0.186
X0.1732Y0.2657
X0.1801Y0.4006
X0.1811Y-0.0364
X0.1846Y-0.0949
X0.187Y0.3563
X0.2008Y0.2343
X0.2037Y0.187
X0.3Y0.5496
X0.3Y0.4496
X0.3Y0.3496
X0.3Y0.2496
X0.3Y0.1496
X0.3Y0.0496
X0.3Y-0.0504
X0.3Y-0.1504
X0.3Y-0.2504
X0.3Y-0.3504
T3
X-0.0477Y-0.1097
X-0.0477Y-0.1575
X-0.0477Y-0.2052
X0.0Y-0.1097
X0.0Y-0.1575
X0.0Y-0.2052
X0.0477Y-0.1097
X0.0477Y-0.1575
X0.0477Y-0.2052
T5
X-0.3Y0.5996
X-0.3Y0.4996
X-0.3Y0.3996
X-0.3Y0.2996
X-0.3Y0.1996
X-0.3Y0.0996
X-0.3Y-0.0004
X-0.3Y-0.1004
X-0.3Y-0.2004
X-0.3Y-0.3004
X-0.3Y-0.4004
X-0.3Y-0.5004
X-0.3Y-0.6004
X0.3Y0.5996
X0.3Y0.4996
X0.3Y0.3996
X0.3Y0.2996
X0.3Y0.1996
X0.3Y0.0996
X0.3Y-0.0004
X0.3Y-0.1004
X0.3Y-0.2004
X0.3Y-0.3004
X0.3Y-0.4004
X0.3Y-0.5004
X0.3Y-0.6004
T6
X-0.3642Y0.0295
X-0.3642Y0.0
X-0.3642Y-0.0295
X0.3642Y0.0295
X0.3642Y0.0
X0.3642Y-0.0295
T4
G00X-0.2195Y0.6289
M15
G01X-0.2195Y0.5816
M16
G05
G00X-0.2195Y0.4674
M15
G01X-0.2195Y0.436
M16
G05
G00X0.2195Y0.6289
M15
G01X0.2195Y0.5816
M16
G05
G00X0.2195Y0.4655
M15
G01X0.2195Y0.4379
M16
G05
T0
M30
