%TF.GenerationSoftware,KiCad,Pcbnew,(5.1.9)-1*%
%TF.CreationDate,2021-05-18T22:21:05+08:00*%
%TF.ProjectId,mikoto,6d696b6f-746f-42e6-9b69-6361645f7063,rev?*%
%TF.SameCoordinates,Original*%
%TF.FileFunction,Paste,Top*%
%TF.FilePolarity,Positive*%
%FSLAX46Y46*%
G04 Gerber Fmt 4.6, Leading zero omitted, Abs format (unit mm)*
G04 Created by KiCad (PCBNEW (5.1.9)-1) date 2021-05-18 22:21:05*
%MOMM*%
%LPD*%
G01*
G04 APERTURE LIST*
%ADD10R,1.060000X0.650000*%
%ADD11R,0.450000X0.700000*%
%ADD12R,0.700000X0.600000*%
%ADD13R,1.000000X1.800000*%
%ADD14R,0.800000X0.900000*%
%ADD15R,0.300000X0.800000*%
%ADD16R,0.540000X0.800000*%
%ADD17R,1.700000X1.700000*%
%ADD18C,0.250000*%
G04 APERTURE END LIST*
D10*
%TO.C,U3*%
X-3000000Y5225000D03*
X-3000000Y3325000D03*
X-5200000Y3325000D03*
X-5200000Y4275000D03*
X-5200000Y5225000D03*
%TD*%
D11*
%TO.C,Q2*%
X-3525000Y8400000D03*
X-2875000Y6400000D03*
X-4175000Y6400000D03*
%TD*%
%TO.C,C16*%
G36*
G01*
X5800000Y-1200000D02*
X5300000Y-1200000D01*
G75*
G02*
X5075000Y-975000I0J225000D01*
G01*
X5075000Y-525000D01*
G75*
G02*
X5300000Y-300000I225000J0D01*
G01*
X5800000Y-300000D01*
G75*
G02*
X6025000Y-525000I0J-225000D01*
G01*
X6025000Y-975000D01*
G75*
G02*
X5800000Y-1200000I-225000J0D01*
G01*
G37*
G36*
G01*
X5800000Y-2750000D02*
X5300000Y-2750000D01*
G75*
G02*
X5075000Y-2525000I0J225000D01*
G01*
X5075000Y-2075000D01*
G75*
G02*
X5300000Y-1850000I225000J0D01*
G01*
X5800000Y-1850000D01*
G75*
G02*
X6025000Y-2075000I0J-225000D01*
G01*
X6025000Y-2525000D01*
G75*
G02*
X5800000Y-2750000I-225000J0D01*
G01*
G37*
%TD*%
%TO.C,L4*%
G36*
G01*
X-3256250Y900000D02*
X-2743750Y900000D01*
G75*
G02*
X-2525000Y681250I0J-218750D01*
G01*
X-2525000Y243750D01*
G75*
G02*
X-2743750Y25000I-218750J0D01*
G01*
X-3256250Y25000D01*
G75*
G02*
X-3475000Y243750I0J218750D01*
G01*
X-3475000Y681250D01*
G75*
G02*
X-3256250Y900000I218750J0D01*
G01*
G37*
G36*
G01*
X-3256250Y2475000D02*
X-2743750Y2475000D01*
G75*
G02*
X-2525000Y2256250I0J-218750D01*
G01*
X-2525000Y1818750D01*
G75*
G02*
X-2743750Y1600000I-218750J0D01*
G01*
X-3256250Y1600000D01*
G75*
G02*
X-3475000Y1818750I0J218750D01*
G01*
X-3475000Y2256250D01*
G75*
G02*
X-3256250Y2475000I218750J0D01*
G01*
G37*
%TD*%
%TO.C,C25*%
G36*
G01*
X-2000000Y925000D02*
X-1500000Y925000D01*
G75*
G02*
X-1275000Y700000I0J-225000D01*
G01*
X-1275000Y250000D01*
G75*
G02*
X-1500000Y25000I-225000J0D01*
G01*
X-2000000Y25000D01*
G75*
G02*
X-2225000Y250000I0J225000D01*
G01*
X-2225000Y700000D01*
G75*
G02*
X-2000000Y925000I225000J0D01*
G01*
G37*
G36*
G01*
X-2000000Y2475000D02*
X-1500000Y2475000D01*
G75*
G02*
X-1275000Y2250000I0J-225000D01*
G01*
X-1275000Y1800000D01*
G75*
G02*
X-1500000Y1575000I-225000J0D01*
G01*
X-2000000Y1575000D01*
G75*
G02*
X-2225000Y1800000I0J225000D01*
G01*
X-2225000Y2250000D01*
G75*
G02*
X-2000000Y2475000I225000J0D01*
G01*
G37*
%TD*%
%TO.C,C23*%
G36*
G01*
X-195000Y7120000D02*
X145000Y7120000D01*
G75*
G02*
X285000Y6980000I0J-140000D01*
G01*
X285000Y6700000D01*
G75*
G02*
X145000Y6560000I-140000J0D01*
G01*
X-195000Y6560000D01*
G75*
G02*
X-335000Y6700000I0J140000D01*
G01*
X-335000Y6980000D01*
G75*
G02*
X-195000Y7120000I140000J0D01*
G01*
G37*
G36*
G01*
X-195000Y8080000D02*
X145000Y8080000D01*
G75*
G02*
X285000Y7940000I0J-140000D01*
G01*
X285000Y7660000D01*
G75*
G02*
X145000Y7520000I-140000J0D01*
G01*
X-195000Y7520000D01*
G75*
G02*
X-335000Y7660000I0J140000D01*
G01*
X-335000Y7940000D01*
G75*
G02*
X-195000Y8080000I140000J0D01*
G01*
G37*
%TD*%
%TO.C,D1*%
G36*
G01*
X-5706250Y7270000D02*
X-5193750Y7270000D01*
G75*
G02*
X-4975000Y7051250I0J-218750D01*
G01*
X-4975000Y6613750D01*
G75*
G02*
X-5193750Y6395000I-218750J0D01*
G01*
X-5706250Y6395000D01*
G75*
G02*
X-5925000Y6613750I0J218750D01*
G01*
X-5925000Y7051250D01*
G75*
G02*
X-5706250Y7270000I218750J0D01*
G01*
G37*
G36*
G01*
X-5706250Y8845000D02*
X-5193750Y8845000D01*
G75*
G02*
X-4975000Y8626250I0J-218750D01*
G01*
X-4975000Y8188750D01*
G75*
G02*
X-5193750Y7970000I-218750J0D01*
G01*
X-5706250Y7970000D01*
G75*
G02*
X-5925000Y8188750I0J218750D01*
G01*
X-5925000Y8626250D01*
G75*
G02*
X-5706250Y8845000I218750J0D01*
G01*
G37*
%TD*%
%TO.C,D3*%
G36*
G01*
X5193750Y7270000D02*
X5706250Y7270000D01*
G75*
G02*
X5925000Y7051250I0J-218750D01*
G01*
X5925000Y6613750D01*
G75*
G02*
X5706250Y6395000I-218750J0D01*
G01*
X5193750Y6395000D01*
G75*
G02*
X4975000Y6613750I0J218750D01*
G01*
X4975000Y7051250D01*
G75*
G02*
X5193750Y7270000I218750J0D01*
G01*
G37*
G36*
G01*
X5193750Y8845000D02*
X5706250Y8845000D01*
G75*
G02*
X5925000Y8626250I0J-218750D01*
G01*
X5925000Y8188750D01*
G75*
G02*
X5706250Y7970000I-218750J0D01*
G01*
X5193750Y7970000D01*
G75*
G02*
X4975000Y8188750I0J218750D01*
G01*
X4975000Y8626250D01*
G75*
G02*
X5193750Y8845000I218750J0D01*
G01*
G37*
%TD*%
D12*
%TO.C,D2*%
X-1000000Y6075000D03*
X-1000000Y7475000D03*
%TD*%
%TO.C,C24*%
G36*
G01*
X-1555000Y3285000D02*
X-1895000Y3285000D01*
G75*
G02*
X-2035000Y3425000I0J140000D01*
G01*
X-2035000Y3705000D01*
G75*
G02*
X-1895000Y3845000I140000J0D01*
G01*
X-1555000Y3845000D01*
G75*
G02*
X-1415000Y3705000I0J-140000D01*
G01*
X-1415000Y3425000D01*
G75*
G02*
X-1555000Y3285000I-140000J0D01*
G01*
G37*
G36*
G01*
X-1555000Y4245000D02*
X-1895000Y4245000D01*
G75*
G02*
X-2035000Y4385000I0J140000D01*
G01*
X-2035000Y4665000D01*
G75*
G02*
X-1895000Y4805000I140000J0D01*
G01*
X-1555000Y4805000D01*
G75*
G02*
X-1415000Y4665000I0J-140000D01*
G01*
X-1415000Y4385000D01*
G75*
G02*
X-1555000Y4245000I-140000J0D01*
G01*
G37*
%TD*%
D10*
%TO.C,U2*%
X1125000Y4950000D03*
X1125000Y6850000D03*
X3325000Y6850000D03*
X3325000Y5900000D03*
X3325000Y4950000D03*
%TD*%
D13*
%TO.C,Y2*%
X3600000Y3300000D03*
X1100000Y3300000D03*
%TD*%
%TO.C,R11*%
G36*
G01*
X-4225000Y-9075000D02*
X-4775000Y-9075000D01*
G75*
G02*
X-4975000Y-8875000I0J200000D01*
G01*
X-4975000Y-8475000D01*
G75*
G02*
X-4775000Y-8275000I200000J0D01*
G01*
X-4225000Y-8275000D01*
G75*
G02*
X-4025000Y-8475000I0J-200000D01*
G01*
X-4025000Y-8875000D01*
G75*
G02*
X-4225000Y-9075000I-200000J0D01*
G01*
G37*
G36*
G01*
X-4225000Y-10725000D02*
X-4775000Y-10725000D01*
G75*
G02*
X-4975000Y-10525000I0J200000D01*
G01*
X-4975000Y-10125000D01*
G75*
G02*
X-4775000Y-9925000I200000J0D01*
G01*
X-4225000Y-9925000D01*
G75*
G02*
X-4025000Y-10125000I0J-200000D01*
G01*
X-4025000Y-10525000D01*
G75*
G02*
X-4225000Y-10725000I-200000J0D01*
G01*
G37*
%TD*%
%TO.C,C22*%
G36*
G01*
X3470000Y-10020000D02*
X3130000Y-10020000D01*
G75*
G02*
X2990000Y-9880000I0J140000D01*
G01*
X2990000Y-9600000D01*
G75*
G02*
X3130000Y-9460000I140000J0D01*
G01*
X3470000Y-9460000D01*
G75*
G02*
X3610000Y-9600000I0J-140000D01*
G01*
X3610000Y-9880000D01*
G75*
G02*
X3470000Y-10020000I-140000J0D01*
G01*
G37*
G36*
G01*
X3470000Y-10980000D02*
X3130000Y-10980000D01*
G75*
G02*
X2990000Y-10840000I0J140000D01*
G01*
X2990000Y-10560000D01*
G75*
G02*
X3130000Y-10420000I140000J0D01*
G01*
X3470000Y-10420000D01*
G75*
G02*
X3610000Y-10560000I0J-140000D01*
G01*
X3610000Y-10840000D01*
G75*
G02*
X3470000Y-10980000I-140000J0D01*
G01*
G37*
%TD*%
%TO.C,R4*%
G36*
G01*
X-5760000Y-8405000D02*
X-5390000Y-8405000D01*
G75*
G02*
X-5255000Y-8540000I0J-135000D01*
G01*
X-5255000Y-8810000D01*
G75*
G02*
X-5390000Y-8945000I-135000J0D01*
G01*
X-5760000Y-8945000D01*
G75*
G02*
X-5895000Y-8810000I0J135000D01*
G01*
X-5895000Y-8540000D01*
G75*
G02*
X-5760000Y-8405000I135000J0D01*
G01*
G37*
G36*
G01*
X-5760000Y-9425000D02*
X-5390000Y-9425000D01*
G75*
G02*
X-5255000Y-9560000I0J-135000D01*
G01*
X-5255000Y-9830000D01*
G75*
G02*
X-5390000Y-9965000I-135000J0D01*
G01*
X-5760000Y-9965000D01*
G75*
G02*
X-5895000Y-9830000I0J135000D01*
G01*
X-5895000Y-9560000D01*
G75*
G02*
X-5760000Y-9425000I135000J0D01*
G01*
G37*
%TD*%
%TO.C,R3*%
G36*
G01*
X-3610000Y-9740000D02*
X-3240000Y-9740000D01*
G75*
G02*
X-3105000Y-9875000I0J-135000D01*
G01*
X-3105000Y-10145000D01*
G75*
G02*
X-3240000Y-10280000I-135000J0D01*
G01*
X-3610000Y-10280000D01*
G75*
G02*
X-3745000Y-10145000I0J135000D01*
G01*
X-3745000Y-9875000D01*
G75*
G02*
X-3610000Y-9740000I135000J0D01*
G01*
G37*
G36*
G01*
X-3610000Y-8720000D02*
X-3240000Y-8720000D01*
G75*
G02*
X-3105000Y-8855000I0J-135000D01*
G01*
X-3105000Y-9125000D01*
G75*
G02*
X-3240000Y-9260000I-135000J0D01*
G01*
X-3610000Y-9260000D01*
G75*
G02*
X-3745000Y-9125000I0J135000D01*
G01*
X-3745000Y-8855000D01*
G75*
G02*
X-3610000Y-8720000I135000J0D01*
G01*
G37*
%TD*%
%TO.C,R10*%
G36*
G01*
X1915000Y8150000D02*
X2285000Y8150000D01*
G75*
G02*
X2420000Y8015000I0J-135000D01*
G01*
X2420000Y7745000D01*
G75*
G02*
X2285000Y7610000I-135000J0D01*
G01*
X1915000Y7610000D01*
G75*
G02*
X1780000Y7745000I0J135000D01*
G01*
X1780000Y8015000D01*
G75*
G02*
X1915000Y8150000I135000J0D01*
G01*
G37*
G36*
G01*
X1915000Y9170000D02*
X2285000Y9170000D01*
G75*
G02*
X2420000Y9035000I0J-135000D01*
G01*
X2420000Y8765000D01*
G75*
G02*
X2285000Y8630000I-135000J0D01*
G01*
X1915000Y8630000D01*
G75*
G02*
X1780000Y8765000I0J135000D01*
G01*
X1780000Y9035000D01*
G75*
G02*
X1915000Y9170000I135000J0D01*
G01*
G37*
%TD*%
D14*
%TO.C,Y1*%
X5950000Y-7500000D03*
X5950000Y-6100000D03*
X4850000Y-6100000D03*
X4850000Y-7500000D03*
%TD*%
D15*
%TO.C,J1*%
X1758300Y10573200D03*
X-1249700Y10573200D03*
D16*
X-3199700Y10573200D03*
X3200300Y10573200D03*
X2400300Y10573200D03*
X-2399700Y10573200D03*
D15*
X-749700Y10573200D03*
X750300Y10573200D03*
X-249700Y10573200D03*
X250300Y10573200D03*
X1250300Y10573200D03*
X-1749700Y10573200D03*
%TD*%
D17*
%TO.C,U1*%
X-1000000Y-5250000D03*
X-1000000Y-3250000D03*
X1000000Y-5250000D03*
X1000000Y-3250000D03*
D18*
X2750000Y-7500000D03*
X2000000Y-7000000D03*
X3250000Y-3000000D03*
X2750000Y-1750000D03*
X-2750000Y-6250000D03*
X-3250000Y-7000000D03*
X-3250000Y-1500000D03*
X-2500000Y-1500000D03*
X-2000000Y-1500000D03*
X-1750000Y-1000000D03*
X-1250000Y-1000000D03*
X-750000Y-1000000D03*
X-250000Y-1000000D03*
X250000Y-1000000D03*
X750000Y-1000000D03*
X1250000Y-1000000D03*
X-1000000Y-1500000D03*
X-500000Y-1500000D03*
X0Y-1500000D03*
X500000Y-1500000D03*
X1000000Y-1500000D03*
X1500000Y-1500000D03*
X2250000Y-1000000D03*
X2000000Y-1500000D03*
X2750000Y-1000000D03*
X-3250000Y-2000000D03*
X-3250000Y-2500000D03*
X-3250000Y-3000000D03*
X-3250000Y-3500000D03*
X-3250000Y-4000000D03*
X-3250000Y-4500000D03*
X-3250000Y-5000000D03*
X-3250000Y-5500000D03*
X-3250000Y-6000000D03*
X-3250000Y-6500000D03*
X-2750000Y-5750000D03*
X-2750000Y-5250000D03*
X-2750000Y-4750000D03*
X-2750000Y-4250000D03*
X-2750000Y-3750000D03*
X-2750000Y-3250000D03*
X-2750000Y-2250000D03*
X2750000Y-2250000D03*
X2750000Y-2750000D03*
X2750000Y-3250000D03*
X2750000Y-3750000D03*
X2750000Y-4250000D03*
X2750000Y-4750000D03*
X2750000Y-5250000D03*
X2750000Y-5750000D03*
X3250000Y-3500000D03*
X3250000Y-4000000D03*
X3250000Y-4500000D03*
X3250000Y-5000000D03*
X3250000Y-5500000D03*
X3250000Y-6000000D03*
X3250000Y-6500000D03*
X3250000Y-7000000D03*
X1500000Y-7000000D03*
X1000000Y-7000000D03*
X-500000Y-7000000D03*
X-1000000Y-7000000D03*
X-1500000Y-7000000D03*
X-2000000Y-7000000D03*
X1750000Y-7500000D03*
X750000Y-7500000D03*
X250000Y-7500000D03*
X-250000Y-7500000D03*
X-750000Y-7500000D03*
X-1250000Y-7500000D03*
X-1750000Y-7500000D03*
X-2250000Y-7500000D03*
X-2750000Y-7500000D03*
%TD*%
%TO.C,R9*%
G36*
G01*
X2890000Y8150000D02*
X3260000Y8150000D01*
G75*
G02*
X3395000Y8015000I0J-135000D01*
G01*
X3395000Y7745000D01*
G75*
G02*
X3260000Y7610000I-135000J0D01*
G01*
X2890000Y7610000D01*
G75*
G02*
X2755000Y7745000I0J135000D01*
G01*
X2755000Y8015000D01*
G75*
G02*
X2890000Y8150000I135000J0D01*
G01*
G37*
G36*
G01*
X2890000Y9170000D02*
X3260000Y9170000D01*
G75*
G02*
X3395000Y9035000I0J-135000D01*
G01*
X3395000Y8765000D01*
G75*
G02*
X3260000Y8630000I-135000J0D01*
G01*
X2890000Y8630000D01*
G75*
G02*
X2755000Y8765000I0J135000D01*
G01*
X2755000Y9035000D01*
G75*
G02*
X2890000Y9170000I135000J0D01*
G01*
G37*
%TD*%
%TO.C,R8*%
G36*
G01*
X-210000Y5300000D02*
X160000Y5300000D01*
G75*
G02*
X295000Y5165000I0J-135000D01*
G01*
X295000Y4895000D01*
G75*
G02*
X160000Y4760000I-135000J0D01*
G01*
X-210000Y4760000D01*
G75*
G02*
X-345000Y4895000I0J135000D01*
G01*
X-345000Y5165000D01*
G75*
G02*
X-210000Y5300000I135000J0D01*
G01*
G37*
G36*
G01*
X-210000Y6320000D02*
X160000Y6320000D01*
G75*
G02*
X295000Y6185000I0J-135000D01*
G01*
X295000Y5915000D01*
G75*
G02*
X160000Y5780000I-135000J0D01*
G01*
X-210000Y5780000D01*
G75*
G02*
X-345000Y5915000I0J135000D01*
G01*
X-345000Y6185000D01*
G75*
G02*
X-210000Y6320000I135000J0D01*
G01*
G37*
%TD*%
%TO.C,R7*%
G36*
G01*
X1085000Y1225000D02*
X715000Y1225000D01*
G75*
G02*
X580000Y1360000I0J135000D01*
G01*
X580000Y1630000D01*
G75*
G02*
X715000Y1765000I135000J0D01*
G01*
X1085000Y1765000D01*
G75*
G02*
X1220000Y1630000I0J-135000D01*
G01*
X1220000Y1360000D01*
G75*
G02*
X1085000Y1225000I-135000J0D01*
G01*
G37*
G36*
G01*
X1085000Y205000D02*
X715000Y205000D01*
G75*
G02*
X580000Y340000I0J135000D01*
G01*
X580000Y610000D01*
G75*
G02*
X715000Y745000I135000J0D01*
G01*
X1085000Y745000D01*
G75*
G02*
X1220000Y610000I0J-135000D01*
G01*
X1220000Y340000D01*
G75*
G02*
X1085000Y205000I-135000J0D01*
G01*
G37*
%TD*%
%TO.C,R6*%
G36*
G01*
X3865000Y8150000D02*
X4235000Y8150000D01*
G75*
G02*
X4370000Y8015000I0J-135000D01*
G01*
X4370000Y7745000D01*
G75*
G02*
X4235000Y7610000I-135000J0D01*
G01*
X3865000Y7610000D01*
G75*
G02*
X3730000Y7745000I0J135000D01*
G01*
X3730000Y8015000D01*
G75*
G02*
X3865000Y8150000I135000J0D01*
G01*
G37*
G36*
G01*
X3865000Y9170000D02*
X4235000Y9170000D01*
G75*
G02*
X4370000Y9035000I0J-135000D01*
G01*
X4370000Y8765000D01*
G75*
G02*
X4235000Y8630000I-135000J0D01*
G01*
X3865000Y8630000D01*
G75*
G02*
X3730000Y8765000I0J135000D01*
G01*
X3730000Y9035000D01*
G75*
G02*
X3865000Y9170000I135000J0D01*
G01*
G37*
%TD*%
%TO.C,R5*%
G36*
G01*
X-5990000Y-3510000D02*
X-5990000Y-3140000D01*
G75*
G02*
X-5855000Y-3005000I135000J0D01*
G01*
X-5585000Y-3005000D01*
G75*
G02*
X-5450000Y-3140000I0J-135000D01*
G01*
X-5450000Y-3510000D01*
G75*
G02*
X-5585000Y-3645000I-135000J0D01*
G01*
X-5855000Y-3645000D01*
G75*
G02*
X-5990000Y-3510000I0J135000D01*
G01*
G37*
G36*
G01*
X-4970000Y-3510000D02*
X-4970000Y-3140000D01*
G75*
G02*
X-4835000Y-3005000I135000J0D01*
G01*
X-4565000Y-3005000D01*
G75*
G02*
X-4430000Y-3140000I0J-135000D01*
G01*
X-4430000Y-3510000D01*
G75*
G02*
X-4565000Y-3645000I-135000J0D01*
G01*
X-4835000Y-3645000D01*
G75*
G02*
X-4970000Y-3510000I0J135000D01*
G01*
G37*
%TD*%
%TO.C,L3*%
G36*
G01*
X3787500Y1381250D02*
X3787500Y868750D01*
G75*
G02*
X3568750Y650000I-218750J0D01*
G01*
X3131250Y650000D01*
G75*
G02*
X2912500Y868750I0J218750D01*
G01*
X2912500Y1381250D01*
G75*
G02*
X3131250Y1600000I218750J0D01*
G01*
X3568750Y1600000D01*
G75*
G02*
X3787500Y1381250I0J-218750D01*
G01*
G37*
G36*
G01*
X5362500Y1381250D02*
X5362500Y868750D01*
G75*
G02*
X5143750Y650000I-218750J0D01*
G01*
X4706250Y650000D01*
G75*
G02*
X4487500Y868750I0J218750D01*
G01*
X4487500Y1381250D01*
G75*
G02*
X4706250Y1600000I218750J0D01*
G01*
X5143750Y1600000D01*
G75*
G02*
X5362500Y1381250I0J-218750D01*
G01*
G37*
%TD*%
%TO.C,L2*%
G36*
G01*
X6122500Y955000D02*
X5777500Y955000D01*
G75*
G02*
X5630000Y1102500I0J147500D01*
G01*
X5630000Y1397500D01*
G75*
G02*
X5777500Y1545000I147500J0D01*
G01*
X6122500Y1545000D01*
G75*
G02*
X6270000Y1397500I0J-147500D01*
G01*
X6270000Y1102500D01*
G75*
G02*
X6122500Y955000I-147500J0D01*
G01*
G37*
G36*
G01*
X6122500Y-15000D02*
X5777500Y-15000D01*
G75*
G02*
X5630000Y132500I0J147500D01*
G01*
X5630000Y427500D01*
G75*
G02*
X5777500Y575000I147500J0D01*
G01*
X6122500Y575000D01*
G75*
G02*
X6270000Y427500I0J-147500D01*
G01*
X6270000Y132500D01*
G75*
G02*
X6122500Y-15000I-147500J0D01*
G01*
G37*
%TD*%
%TO.C,L1*%
G36*
G01*
X942500Y-9810000D02*
X597500Y-9810000D01*
G75*
G02*
X450000Y-9662500I0J147500D01*
G01*
X450000Y-9367500D01*
G75*
G02*
X597500Y-9220000I147500J0D01*
G01*
X942500Y-9220000D01*
G75*
G02*
X1090000Y-9367500I0J-147500D01*
G01*
X1090000Y-9662500D01*
G75*
G02*
X942500Y-9810000I-147500J0D01*
G01*
G37*
G36*
G01*
X942500Y-10780000D02*
X597500Y-10780000D01*
G75*
G02*
X450000Y-10632500I0J147500D01*
G01*
X450000Y-10337500D01*
G75*
G02*
X597500Y-10190000I147500J0D01*
G01*
X942500Y-10190000D01*
G75*
G02*
X1090000Y-10337500I0J-147500D01*
G01*
X1090000Y-10632500D01*
G75*
G02*
X942500Y-10780000I-147500J0D01*
G01*
G37*
%TD*%
%TO.C,C21*%
G36*
G01*
X5125000Y5250000D02*
X4625000Y5250000D01*
G75*
G02*
X4400000Y5475000I0J225000D01*
G01*
X4400000Y5925000D01*
G75*
G02*
X4625000Y6150000I225000J0D01*
G01*
X5125000Y6150000D01*
G75*
G02*
X5350000Y5925000I0J-225000D01*
G01*
X5350000Y5475000D01*
G75*
G02*
X5125000Y5250000I-225000J0D01*
G01*
G37*
G36*
G01*
X5125000Y3700000D02*
X4625000Y3700000D01*
G75*
G02*
X4400000Y3925000I0J225000D01*
G01*
X4400000Y4375000D01*
G75*
G02*
X4625000Y4600000I225000J0D01*
G01*
X5125000Y4600000D01*
G75*
G02*
X5350000Y4375000I0J-225000D01*
G01*
X5350000Y3925000D01*
G75*
G02*
X5125000Y3700000I-225000J0D01*
G01*
G37*
%TD*%
%TO.C,C20*%
G36*
G01*
X-4625000Y1200000D02*
X-4625000Y1700000D01*
G75*
G02*
X-4400000Y1925000I225000J0D01*
G01*
X-3950000Y1925000D01*
G75*
G02*
X-3725000Y1700000I0J-225000D01*
G01*
X-3725000Y1200000D01*
G75*
G02*
X-3950000Y975000I-225000J0D01*
G01*
X-4400000Y975000D01*
G75*
G02*
X-4625000Y1200000I0J225000D01*
G01*
G37*
G36*
G01*
X-6175000Y1200000D02*
X-6175000Y1700000D01*
G75*
G02*
X-5950000Y1925000I225000J0D01*
G01*
X-5500000Y1925000D01*
G75*
G02*
X-5275000Y1700000I0J-225000D01*
G01*
X-5275000Y1200000D01*
G75*
G02*
X-5500000Y975000I-225000J0D01*
G01*
X-5950000Y975000D01*
G75*
G02*
X-6175000Y1200000I0J225000D01*
G01*
G37*
%TD*%
%TO.C,C19*%
G36*
G01*
X-2355000Y-10260000D02*
X-2695000Y-10260000D01*
G75*
G02*
X-2835000Y-10120000I0J140000D01*
G01*
X-2835000Y-9840000D01*
G75*
G02*
X-2695000Y-9700000I140000J0D01*
G01*
X-2355000Y-9700000D01*
G75*
G02*
X-2215000Y-9840000I0J-140000D01*
G01*
X-2215000Y-10120000D01*
G75*
G02*
X-2355000Y-10260000I-140000J0D01*
G01*
G37*
G36*
G01*
X-2355000Y-9300000D02*
X-2695000Y-9300000D01*
G75*
G02*
X-2835000Y-9160000I0J140000D01*
G01*
X-2835000Y-8880000D01*
G75*
G02*
X-2695000Y-8740000I140000J0D01*
G01*
X-2355000Y-8740000D01*
G75*
G02*
X-2215000Y-8880000I0J-140000D01*
G01*
X-2215000Y-9160000D01*
G75*
G02*
X-2355000Y-9300000I-140000J0D01*
G01*
G37*
%TD*%
%TO.C,C18*%
G36*
G01*
X-170000Y3865000D02*
X170000Y3865000D01*
G75*
G02*
X310000Y3725000I0J-140000D01*
G01*
X310000Y3445000D01*
G75*
G02*
X170000Y3305000I-140000J0D01*
G01*
X-170000Y3305000D01*
G75*
G02*
X-310000Y3445000I0J140000D01*
G01*
X-310000Y3725000D01*
G75*
G02*
X-170000Y3865000I140000J0D01*
G01*
G37*
G36*
G01*
X-170000Y2905000D02*
X170000Y2905000D01*
G75*
G02*
X310000Y2765000I0J-140000D01*
G01*
X310000Y2485000D01*
G75*
G02*
X170000Y2345000I-140000J0D01*
G01*
X-170000Y2345000D01*
G75*
G02*
X-310000Y2485000I0J140000D01*
G01*
X-310000Y2765000D01*
G75*
G02*
X-170000Y2905000I140000J0D01*
G01*
G37*
%TD*%
%TO.C,C17*%
G36*
G01*
X5100000Y3270000D02*
X5100000Y2930000D01*
G75*
G02*
X4960000Y2790000I-140000J0D01*
G01*
X4680000Y2790000D01*
G75*
G02*
X4540000Y2930000I0J140000D01*
G01*
X4540000Y3270000D01*
G75*
G02*
X4680000Y3410000I140000J0D01*
G01*
X4960000Y3410000D01*
G75*
G02*
X5100000Y3270000I0J-140000D01*
G01*
G37*
G36*
G01*
X6060000Y3270000D02*
X6060000Y2930000D01*
G75*
G02*
X5920000Y2790000I-140000J0D01*
G01*
X5640000Y2790000D01*
G75*
G02*
X5500000Y2930000I0J140000D01*
G01*
X5500000Y3270000D01*
G75*
G02*
X5640000Y3410000I140000J0D01*
G01*
X5920000Y3410000D01*
G75*
G02*
X6060000Y3270000I0J-140000D01*
G01*
G37*
%TD*%
%TO.C,C15*%
G36*
G01*
X4320000Y-1730000D02*
X3980000Y-1730000D01*
G75*
G02*
X3840000Y-1590000I0J140000D01*
G01*
X3840000Y-1310000D01*
G75*
G02*
X3980000Y-1170000I140000J0D01*
G01*
X4320000Y-1170000D01*
G75*
G02*
X4460000Y-1310000I0J-140000D01*
G01*
X4460000Y-1590000D01*
G75*
G02*
X4320000Y-1730000I-140000J0D01*
G01*
G37*
G36*
G01*
X4320000Y-2690000D02*
X3980000Y-2690000D01*
G75*
G02*
X3840000Y-2550000I0J140000D01*
G01*
X3840000Y-2270000D01*
G75*
G02*
X3980000Y-2130000I140000J0D01*
G01*
X4320000Y-2130000D01*
G75*
G02*
X4460000Y-2270000I0J-140000D01*
G01*
X4460000Y-2550000D01*
G75*
G02*
X4320000Y-2690000I-140000J0D01*
G01*
G37*
%TD*%
%TO.C,C14*%
G36*
G01*
X-6175000Y-1250000D02*
X-6175000Y-750000D01*
G75*
G02*
X-5950000Y-525000I225000J0D01*
G01*
X-5500000Y-525000D01*
G75*
G02*
X-5275000Y-750000I0J-225000D01*
G01*
X-5275000Y-1250000D01*
G75*
G02*
X-5500000Y-1475000I-225000J0D01*
G01*
X-5950000Y-1475000D01*
G75*
G02*
X-6175000Y-1250000I0J225000D01*
G01*
G37*
G36*
G01*
X-4625000Y-1250000D02*
X-4625000Y-750000D01*
G75*
G02*
X-4400000Y-525000I225000J0D01*
G01*
X-3950000Y-525000D01*
G75*
G02*
X-3725000Y-750000I0J-225000D01*
G01*
X-3725000Y-1250000D01*
G75*
G02*
X-3950000Y-1475000I-225000J0D01*
G01*
X-4400000Y-1475000D01*
G75*
G02*
X-4625000Y-1250000I0J225000D01*
G01*
G37*
%TD*%
%TO.C,C13*%
G36*
G01*
X-3725000Y475000D02*
X-3725000Y-25000D01*
G75*
G02*
X-3950000Y-250000I-225000J0D01*
G01*
X-4400000Y-250000D01*
G75*
G02*
X-4625000Y-25000I0J225000D01*
G01*
X-4625000Y475000D01*
G75*
G02*
X-4400000Y700000I225000J0D01*
G01*
X-3950000Y700000D01*
G75*
G02*
X-3725000Y475000I0J-225000D01*
G01*
G37*
G36*
G01*
X-5275000Y475000D02*
X-5275000Y-25000D01*
G75*
G02*
X-5500000Y-250000I-225000J0D01*
G01*
X-5950000Y-250000D01*
G75*
G02*
X-6175000Y-25000I0J225000D01*
G01*
X-6175000Y475000D01*
G75*
G02*
X-5950000Y700000I225000J0D01*
G01*
X-5500000Y700000D01*
G75*
G02*
X-5275000Y475000I0J-225000D01*
G01*
G37*
%TD*%
%TO.C,C12*%
G36*
G01*
X-420000Y-8855000D02*
X-80000Y-8855000D01*
G75*
G02*
X60000Y-8995000I0J-140000D01*
G01*
X60000Y-9275000D01*
G75*
G02*
X-80000Y-9415000I-140000J0D01*
G01*
X-420000Y-9415000D01*
G75*
G02*
X-560000Y-9275000I0J140000D01*
G01*
X-560000Y-8995000D01*
G75*
G02*
X-420000Y-8855000I140000J0D01*
G01*
G37*
G36*
G01*
X-420000Y-7895000D02*
X-80000Y-7895000D01*
G75*
G02*
X60000Y-8035000I0J-140000D01*
G01*
X60000Y-8315000D01*
G75*
G02*
X-80000Y-8455000I-140000J0D01*
G01*
X-420000Y-8455000D01*
G75*
G02*
X-560000Y-8315000I0J140000D01*
G01*
X-560000Y-8035000D01*
G75*
G02*
X-420000Y-7895000I140000J0D01*
G01*
G37*
%TD*%
%TO.C,C11*%
G36*
G01*
X3330000Y-8520000D02*
X3330000Y-8180000D01*
G75*
G02*
X3470000Y-8040000I140000J0D01*
G01*
X3750000Y-8040000D01*
G75*
G02*
X3890000Y-8180000I0J-140000D01*
G01*
X3890000Y-8520000D01*
G75*
G02*
X3750000Y-8660000I-140000J0D01*
G01*
X3470000Y-8660000D01*
G75*
G02*
X3330000Y-8520000I0J140000D01*
G01*
G37*
G36*
G01*
X2370000Y-8520000D02*
X2370000Y-8180000D01*
G75*
G02*
X2510000Y-8040000I140000J0D01*
G01*
X2790000Y-8040000D01*
G75*
G02*
X2930000Y-8180000I0J-140000D01*
G01*
X2930000Y-8520000D01*
G75*
G02*
X2790000Y-8660000I-140000J0D01*
G01*
X2510000Y-8660000D01*
G75*
G02*
X2370000Y-8520000I0J140000D01*
G01*
G37*
%TD*%
%TO.C,C10*%
G36*
G01*
X5500000Y1980000D02*
X5500000Y2320000D01*
G75*
G02*
X5640000Y2460000I140000J0D01*
G01*
X5920000Y2460000D01*
G75*
G02*
X6060000Y2320000I0J-140000D01*
G01*
X6060000Y1980000D01*
G75*
G02*
X5920000Y1840000I-140000J0D01*
G01*
X5640000Y1840000D01*
G75*
G02*
X5500000Y1980000I0J140000D01*
G01*
G37*
G36*
G01*
X4540000Y1980000D02*
X4540000Y2320000D01*
G75*
G02*
X4680000Y2460000I140000J0D01*
G01*
X4960000Y2460000D01*
G75*
G02*
X5100000Y2320000I0J-140000D01*
G01*
X5100000Y1980000D01*
G75*
G02*
X4960000Y1840000I-140000J0D01*
G01*
X4680000Y1840000D01*
G75*
G02*
X4540000Y1980000I0J140000D01*
G01*
G37*
%TD*%
%TO.C,C9*%
G36*
G01*
X1050000Y-8430000D02*
X1050000Y-8770000D01*
G75*
G02*
X910000Y-8910000I-140000J0D01*
G01*
X630000Y-8910000D01*
G75*
G02*
X490000Y-8770000I0J140000D01*
G01*
X490000Y-8430000D01*
G75*
G02*
X630000Y-8290000I140000J0D01*
G01*
X910000Y-8290000D01*
G75*
G02*
X1050000Y-8430000I0J-140000D01*
G01*
G37*
G36*
G01*
X2010000Y-8430000D02*
X2010000Y-8770000D01*
G75*
G02*
X1870000Y-8910000I-140000J0D01*
G01*
X1590000Y-8910000D01*
G75*
G02*
X1450000Y-8770000I0J140000D01*
G01*
X1450000Y-8430000D01*
G75*
G02*
X1590000Y-8290000I140000J0D01*
G01*
X1870000Y-8290000D01*
G75*
G02*
X2010000Y-8430000I0J-140000D01*
G01*
G37*
%TD*%
%TO.C,C8*%
G36*
G01*
X-430000Y-315000D02*
X-770000Y-315000D01*
G75*
G02*
X-910000Y-175000I0J140000D01*
G01*
X-910000Y105000D01*
G75*
G02*
X-770000Y245000I140000J0D01*
G01*
X-430000Y245000D01*
G75*
G02*
X-290000Y105000I0J-140000D01*
G01*
X-290000Y-175000D01*
G75*
G02*
X-430000Y-315000I-140000J0D01*
G01*
G37*
G36*
G01*
X-430000Y645000D02*
X-770000Y645000D01*
G75*
G02*
X-910000Y785000I0J140000D01*
G01*
X-910000Y1065000D01*
G75*
G02*
X-770000Y1205000I140000J0D01*
G01*
X-430000Y1205000D01*
G75*
G02*
X-290000Y1065000I0J-140000D01*
G01*
X-290000Y785000D01*
G75*
G02*
X-430000Y645000I-140000J0D01*
G01*
G37*
%TD*%
%TO.C,C7*%
G36*
G01*
X4740000Y-5195000D02*
X4740000Y-4855000D01*
G75*
G02*
X4880000Y-4715000I140000J0D01*
G01*
X5160000Y-4715000D01*
G75*
G02*
X5300000Y-4855000I0J-140000D01*
G01*
X5300000Y-5195000D01*
G75*
G02*
X5160000Y-5335000I-140000J0D01*
G01*
X4880000Y-5335000D01*
G75*
G02*
X4740000Y-5195000I0J140000D01*
G01*
G37*
G36*
G01*
X5700000Y-5195000D02*
X5700000Y-4855000D01*
G75*
G02*
X5840000Y-4715000I140000J0D01*
G01*
X6120000Y-4715000D01*
G75*
G02*
X6260000Y-4855000I0J-140000D01*
G01*
X6260000Y-5195000D01*
G75*
G02*
X6120000Y-5335000I-140000J0D01*
G01*
X5840000Y-5335000D01*
G75*
G02*
X5700000Y-5195000I0J140000D01*
G01*
G37*
%TD*%
%TO.C,C6*%
G36*
G01*
X6230000Y-8380000D02*
X6230000Y-8720000D01*
G75*
G02*
X6090000Y-8860000I-140000J0D01*
G01*
X5810000Y-8860000D01*
G75*
G02*
X5670000Y-8720000I0J140000D01*
G01*
X5670000Y-8380000D01*
G75*
G02*
X5810000Y-8240000I140000J0D01*
G01*
X6090000Y-8240000D01*
G75*
G02*
X6230000Y-8380000I0J-140000D01*
G01*
G37*
G36*
G01*
X5270000Y-8380000D02*
X5270000Y-8720000D01*
G75*
G02*
X5130000Y-8860000I-140000J0D01*
G01*
X4850000Y-8860000D01*
G75*
G02*
X4710000Y-8720000I0J140000D01*
G01*
X4710000Y-8380000D01*
G75*
G02*
X4850000Y-8240000I140000J0D01*
G01*
X5130000Y-8240000D01*
G75*
G02*
X5270000Y-8380000I0J-140000D01*
G01*
G37*
%TD*%
%TO.C,C5*%
G36*
G01*
X4870000Y-11170000D02*
X4870000Y-10830000D01*
G75*
G02*
X5010000Y-10690000I140000J0D01*
G01*
X5290000Y-10690000D01*
G75*
G02*
X5430000Y-10830000I0J-140000D01*
G01*
X5430000Y-11170000D01*
G75*
G02*
X5290000Y-11310000I-140000J0D01*
G01*
X5010000Y-11310000D01*
G75*
G02*
X4870000Y-11170000I0J140000D01*
G01*
G37*
G36*
G01*
X3910000Y-11170000D02*
X3910000Y-10830000D01*
G75*
G02*
X4050000Y-10690000I140000J0D01*
G01*
X4330000Y-10690000D01*
G75*
G02*
X4470000Y-10830000I0J-140000D01*
G01*
X4470000Y-11170000D01*
G75*
G02*
X4330000Y-11310000I-140000J0D01*
G01*
X4050000Y-11310000D01*
G75*
G02*
X3910000Y-11170000I0J140000D01*
G01*
G37*
%TD*%
%TO.C,C4*%
G36*
G01*
X-4695000Y-4220000D02*
X-4355000Y-4220000D01*
G75*
G02*
X-4215000Y-4360000I0J-140000D01*
G01*
X-4215000Y-4640000D01*
G75*
G02*
X-4355000Y-4780000I-140000J0D01*
G01*
X-4695000Y-4780000D01*
G75*
G02*
X-4835000Y-4640000I0J140000D01*
G01*
X-4835000Y-4360000D01*
G75*
G02*
X-4695000Y-4220000I140000J0D01*
G01*
G37*
G36*
G01*
X-4695000Y-5180000D02*
X-4355000Y-5180000D01*
G75*
G02*
X-4215000Y-5320000I0J-140000D01*
G01*
X-4215000Y-5600000D01*
G75*
G02*
X-4355000Y-5740000I-140000J0D01*
G01*
X-4695000Y-5740000D01*
G75*
G02*
X-4835000Y-5600000I0J140000D01*
G01*
X-4835000Y-5320000D01*
G75*
G02*
X-4695000Y-5180000I140000J0D01*
G01*
G37*
%TD*%
%TO.C,C3*%
G36*
G01*
X5300000Y-3930000D02*
X5300000Y-4270000D01*
G75*
G02*
X5160000Y-4410000I-140000J0D01*
G01*
X4880000Y-4410000D01*
G75*
G02*
X4740000Y-4270000I0J140000D01*
G01*
X4740000Y-3930000D01*
G75*
G02*
X4880000Y-3790000I140000J0D01*
G01*
X5160000Y-3790000D01*
G75*
G02*
X5300000Y-3930000I0J-140000D01*
G01*
G37*
G36*
G01*
X6260000Y-3930000D02*
X6260000Y-4270000D01*
G75*
G02*
X6120000Y-4410000I-140000J0D01*
G01*
X5840000Y-4410000D01*
G75*
G02*
X5700000Y-4270000I0J140000D01*
G01*
X5700000Y-3930000D01*
G75*
G02*
X5840000Y-3790000I140000J0D01*
G01*
X6120000Y-3790000D01*
G75*
G02*
X6260000Y-3930000I0J-140000D01*
G01*
G37*
%TD*%
%TO.C,C2*%
G36*
G01*
X-4380000Y-7170000D02*
X-4380000Y-6830000D01*
G75*
G02*
X-4240000Y-6690000I140000J0D01*
G01*
X-3960000Y-6690000D01*
G75*
G02*
X-3820000Y-6830000I0J-140000D01*
G01*
X-3820000Y-7170000D01*
G75*
G02*
X-3960000Y-7310000I-140000J0D01*
G01*
X-4240000Y-7310000D01*
G75*
G02*
X-4380000Y-7170000I0J140000D01*
G01*
G37*
G36*
G01*
X-5340000Y-7170000D02*
X-5340000Y-6830000D01*
G75*
G02*
X-5200000Y-6690000I140000J0D01*
G01*
X-4920000Y-6690000D01*
G75*
G02*
X-4780000Y-6830000I0J-140000D01*
G01*
X-4780000Y-7170000D01*
G75*
G02*
X-4920000Y-7310000I-140000J0D01*
G01*
X-5200000Y-7310000D01*
G75*
G02*
X-5340000Y-7170000I0J140000D01*
G01*
G37*
%TD*%
%TO.C,C1*%
G36*
G01*
X3325000Y150000D02*
X3325000Y-350000D01*
G75*
G02*
X3100000Y-575000I-225000J0D01*
G01*
X2650000Y-575000D01*
G75*
G02*
X2425000Y-350000I0J225000D01*
G01*
X2425000Y150000D01*
G75*
G02*
X2650000Y375000I225000J0D01*
G01*
X3100000Y375000D01*
G75*
G02*
X3325000Y150000I0J-225000D01*
G01*
G37*
G36*
G01*
X4875000Y150000D02*
X4875000Y-350000D01*
G75*
G02*
X4650000Y-575000I-225000J0D01*
G01*
X4200000Y-575000D01*
G75*
G02*
X3975000Y-350000I0J225000D01*
G01*
X3975000Y150000D01*
G75*
G02*
X4200000Y375000I225000J0D01*
G01*
X4650000Y375000D01*
G75*
G02*
X4875000Y150000I0J-225000D01*
G01*
G37*
%TD*%
M02*
