%TF.GenerationSoftware,KiCad,Pcbnew,(5.1.9)-1*%
%TF.CreationDate,2021-01-30T16:38:38+08:00*%
%TF.ProjectId,mikoto,6d696b6f-746f-42e6-9b69-6361645f7063,rev?*%
%TF.SameCoordinates,Original*%
%TF.FileFunction,Copper,L3,Inr*%
%TF.FilePolarity,Positive*%
%FSLAX46Y46*%
G04 Gerber Fmt 4.6, Leading zero omitted, Abs format (unit mm)*
G04 Created by KiCad (PCBNEW (5.1.9)-1) date 2021-01-30 16:38:38*
%MOMM*%
%LPD*%
G01*
G04 APERTURE LIST*
%TA.AperFunction,ComponentPad*%
%ADD10C,0.500000*%
%TD*%
%TA.AperFunction,ComponentPad*%
%ADD11C,1.524000*%
%TD*%
%TA.AperFunction,ComponentPad*%
%ADD12O,1.000000X1.800000*%
%TD*%
%TA.AperFunction,ComponentPad*%
%ADD13O,1.000000X2.200000*%
%TD*%
%TA.AperFunction,ViaPad*%
%ADD14C,0.500000*%
%TD*%
%TA.AperFunction,ViaPad*%
%ADD15C,0.600000*%
%TD*%
%TA.AperFunction,Conductor*%
%ADD16C,0.150000*%
%TD*%
%TA.AperFunction,Conductor*%
%ADD17C,0.100000*%
%TD*%
G04 APERTURE END LIST*
D10*
%TO.N,GND*%
%TO.C,U3*%
X-2375000Y2650000D03*
X-2375000Y1550000D03*
%TD*%
D11*
%TO.N,VBAT*%
%TO.C,U4*%
X7620000Y12690000D03*
%TO.N,GND*%
X7620000Y10150000D03*
%TO.N,RESET*%
X7620000Y7610000D03*
%TO.N,PPH_VCC*%
X7620000Y5070000D03*
%TO.N,P0.31*%
X7620000Y2530000D03*
%TO.N,P0.29*%
X7620000Y-10000D03*
%TO.N,P0.02*%
X7620000Y-2550000D03*
%TO.N,P1.15*%
X7620000Y-5090000D03*
%TO.N,P1.13*%
X7620000Y-7630000D03*
%TO.N,P1.11*%
X7620000Y-10170000D03*
%TO.N,P0.10*%
X7620000Y-12710000D03*
%TO.N,P0.09*%
X7620000Y-15250000D03*
%TO.N,P1.06*%
X-7620000Y-15250000D03*
%TO.N,P1.04*%
X-7620000Y-12710000D03*
%TO.N,P0.11*%
X-7620000Y-10170000D03*
%TO.N,P1.00*%
X-7620000Y-7630000D03*
%TO.N,P0.24*%
X-7620000Y-5090000D03*
%TO.N,P0.22*%
X-7620000Y-2550000D03*
%TO.N,P0.20*%
X-7620000Y-10000D03*
%TO.N,P0.17*%
X-7620000Y2530000D03*
%TO.N,GND*%
X-7620000Y5070000D03*
X-7620000Y7610000D03*
%TO.N,P0.08*%
X-7620000Y10150000D03*
%TO.N,P0.06*%
X-7620000Y12690000D03*
%TD*%
%TO.N,VBUS*%
%TO.C,J2*%
X7620000Y15230000D03*
%TD*%
%TO.N,EXT_VCC*%
%TO.C,J3*%
X-7620000Y15230000D03*
%TD*%
D12*
%TO.N,Net-(J1-PadS1)*%
%TO.C,J1*%
X-5575000Y11473200D03*
X5575600Y11473200D03*
D13*
X5575600Y15373200D03*
X-5575000Y15373200D03*
%TD*%
D14*
%TO.N,VDD_NRF*%
X-4100000Y-7725000D03*
X-5300000Y-4500000D03*
X5100000Y5950000D03*
X4375000Y4725000D03*
X2075000Y475000D03*
X-1200000Y175000D03*
X-4225000Y6800000D03*
X-2275000Y4950000D03*
X4325000Y-4100000D03*
%TO.N,VBUS*%
X-2400000Y9575000D03*
X2400000Y9575000D03*
X1125000Y6200000D03*
X-3850000Y-325000D03*
X-800000Y7750000D03*
X-2300000Y4175000D03*
%TO.N,Net-(C15-Pad2)*%
X3300000Y-1800000D03*
X2000000Y-7900000D03*
%TO.N,BAT_VOLT*%
X587500Y-562500D03*
X-3350000Y-8250000D03*
%TO.N,VBAT*%
X-4525000Y-9500000D03*
X-1275000Y6550000D03*
X2325000Y6850000D03*
X2575000Y8550000D03*
%TO.N,Net-(D3-Pad1)*%
X2325000Y6075000D03*
X4750000Y9050000D03*
%TO.N,USB_D+*%
X-1367844Y8932156D03*
X225000Y9100000D03*
X-4650000Y-2600000D03*
%TO.N,USB_D-*%
X-500000Y8400000D03*
X-4650000Y-1950000D03*
%TO.N,SWD*%
X-1750000Y-8850000D03*
%TO.N,SWC*%
X-1750000Y-8050000D03*
%TO.N,RESET*%
X-2500000Y-2750000D03*
D15*
%TO.N,GND*%
X-1212500Y-4000000D03*
X1212500Y-4000000D03*
X0Y-4000000D03*
X0Y-5212500D03*
X0Y-2787500D03*
X-1212500Y-2787500D03*
X-1212500Y-5212500D03*
X1212500Y-2787500D03*
D14*
X4575000Y10175000D03*
X-4575000Y10175000D03*
X-7620000Y-8900000D03*
D15*
X1212500Y-5212500D03*
D14*
X-7620000Y-6360000D03*
X7620000Y1260000D03*
X7620000Y3800000D03*
X7620000Y6340000D03*
X7620000Y8880000D03*
X-7620000Y8880000D03*
X-7620000Y6340000D03*
X-7620000Y3800000D03*
X-7620000Y1260000D03*
X-7620000Y-1280000D03*
X-7620000Y-3820000D03*
X-7620000Y11420000D03*
X-7620000Y13960000D03*
X7620000Y11420000D03*
X7620000Y13960000D03*
X7620000Y-3820000D03*
X7620000Y-6360000D03*
X7620000Y-8900000D03*
X7620000Y-1280000D03*
X3150000Y-8925000D03*
X4690000Y-2410000D03*
X4600000Y-925000D03*
X-250000Y-9800000D03*
X-1750000Y-9600000D03*
X-5060000Y-7725000D03*
X4400000Y6750000D03*
X0Y4100000D03*
X2325000Y5250000D03*
X-3250000Y6875000D03*
X2500000Y7650000D03*
X2525000Y-11100000D03*
X-250000Y-11025000D03*
X-3275000Y775000D03*
X-5400000Y-10475000D03*
%TO.N,P0.09*%
X-50000Y-6650000D03*
%TO.N,P0.10*%
X500000Y-7050000D03*
%TO.N,P1.11*%
X2750000Y-6350000D03*
%TO.N,P1.13*%
X3775000Y-5675000D03*
%TO.N,P1.15*%
X3775000Y-4725000D03*
%TO.N,P1.06*%
X-525000Y-10400000D03*
%TO.N,P0.11*%
X-1500000Y-1750000D03*
%TO.N,P0.22*%
X-3825000Y-5500000D03*
%TO.N,P0.17*%
X-5875000Y-4025000D03*
%TO.N,EXT_VCC*%
X-6450000Y5450000D03*
%TO.N,Net-(C20-Pad2)*%
X-2275000Y3400000D03*
X-2000000Y7250000D03*
%TO.N,PPH_VCC_CTRL*%
X5175000Y4750000D03*
X-3725000Y-3025000D03*
%TO.N,EXT_VCC_CTRL*%
X-525000Y475000D03*
X-2800000Y6275000D03*
%TO.N,Net-(D1-Pad2)*%
X-5800000Y7575000D03*
X-6050000Y2925000D03*
%TD*%
D16*
%TO.N,VDD_NRF*%
X-6180731Y16377936D02*
X-6248053Y16251987D01*
X-6289509Y16115324D01*
X-6300000Y16008806D01*
X-6299999Y14737593D01*
X-6289508Y14631075D01*
X-6248052Y14494412D01*
X-6180730Y14368463D01*
X-6090131Y14258068D01*
X-5979736Y14167469D01*
X-5853787Y14100147D01*
X-5717124Y14058691D01*
X-5575000Y14044693D01*
X-5432875Y14058691D01*
X-5296212Y14100147D01*
X-5170263Y14167469D01*
X-5059868Y14258068D01*
X-4969269Y14368463D01*
X-4901947Y14494412D01*
X-4860491Y14631075D01*
X-4850000Y14737593D01*
X-4849999Y12062284D01*
X-4850000Y12062274D01*
X-4850000Y11908807D01*
X-4860491Y12015325D01*
X-4901947Y12151988D01*
X-4969269Y12277937D01*
X-5059869Y12388332D01*
X-5170264Y12478931D01*
X-5296213Y12546253D01*
X-5432876Y12587709D01*
X-5575000Y12601707D01*
X-5717125Y12587709D01*
X-5853788Y12546253D01*
X-5979737Y12478931D01*
X-6090132Y12388331D01*
X-6180731Y12277936D01*
X-6248053Y12151987D01*
X-6289509Y12015324D01*
X-6300000Y11908806D01*
X-6300000Y11037593D01*
X-6289509Y10931075D01*
X-6248052Y10794412D01*
X-6180730Y10668463D01*
X-6090131Y10558068D01*
X-5979736Y10467469D01*
X-5853787Y10400147D01*
X-5717124Y10358691D01*
X-5575000Y10344693D01*
X-5432875Y10358691D01*
X-5296212Y10400147D01*
X-5170263Y10467469D01*
X-5059868Y10558068D01*
X-4969269Y10668463D01*
X-4901947Y10794412D01*
X-4860491Y10931075D01*
X-4850000Y11037593D01*
X-4850000Y11137726D01*
X-4846382Y11100992D01*
X-4832087Y11053866D01*
X-4808873Y11010436D01*
X-4777632Y10972368D01*
X-4739564Y10941127D01*
X-4696134Y10917913D01*
X-4649008Y10903618D01*
X-4612275Y10900000D01*
X-4600000Y10898791D01*
X-4587725Y10900000D01*
X4587725Y10900000D01*
X4600000Y10898791D01*
X4612275Y10900000D01*
X4649008Y10903618D01*
X4696134Y10917913D01*
X4739564Y10941127D01*
X4777632Y10972368D01*
X4808873Y11010436D01*
X4832087Y11053866D01*
X4846382Y11100992D01*
X4850600Y11143817D01*
X4850600Y11037593D01*
X4861091Y10931075D01*
X4902548Y10794412D01*
X4969870Y10668463D01*
X5060469Y10558068D01*
X5170864Y10467469D01*
X5296813Y10400147D01*
X5433476Y10358691D01*
X5575600Y10344693D01*
X5717725Y10358691D01*
X5854388Y10400147D01*
X5980337Y10467469D01*
X6090732Y10558068D01*
X6181331Y10668463D01*
X6248653Y10794412D01*
X6290109Y10931075D01*
X6300600Y11037593D01*
X6300600Y11908807D01*
X6290109Y12015325D01*
X6248653Y12151988D01*
X6181331Y12277937D01*
X6090731Y12388332D01*
X5980336Y12478931D01*
X5854387Y12546253D01*
X5717724Y12587709D01*
X5575600Y12601707D01*
X5433475Y12587709D01*
X5296812Y12546253D01*
X5170863Y12478931D01*
X5060468Y12388331D01*
X4969869Y12277936D01*
X4902547Y12151987D01*
X4861091Y12015324D01*
X4850600Y11908806D01*
X4850600Y11156183D01*
X4850000Y11162275D01*
X4850000Y16400000D01*
X4987976Y16400000D01*
X4969869Y16377936D01*
X4902547Y16251987D01*
X4861091Y16115324D01*
X4850600Y16008806D01*
X4850601Y14737593D01*
X4861092Y14631075D01*
X4902548Y14494412D01*
X4969870Y14368463D01*
X5060469Y14258068D01*
X5170864Y14167469D01*
X5296813Y14100147D01*
X5433476Y14058691D01*
X5575600Y14044693D01*
X5717725Y14058691D01*
X5854388Y14100147D01*
X5980337Y14167469D01*
X6090732Y14258068D01*
X6181331Y14368463D01*
X6248653Y14494412D01*
X6290109Y14631075D01*
X6300600Y14737593D01*
X6300600Y15327211D01*
X6633000Y15327211D01*
X6633000Y15132789D01*
X6670930Y14942103D01*
X6745332Y14762480D01*
X6853347Y14600824D01*
X6990824Y14463347D01*
X7152480Y14355332D01*
X7287609Y14299360D01*
X7251044Y14262795D01*
X7199061Y14184997D01*
X7163254Y14098552D01*
X7145000Y14006783D01*
X7145000Y13913217D01*
X7163254Y13821448D01*
X7199061Y13735003D01*
X7251044Y13657205D01*
X7287609Y13620640D01*
X7152480Y13564668D01*
X6990824Y13456653D01*
X6853347Y13319176D01*
X6745332Y13157520D01*
X6670930Y12977897D01*
X6633000Y12787211D01*
X6633000Y12592789D01*
X6670930Y12402103D01*
X6745332Y12222480D01*
X6853347Y12060824D01*
X6990824Y11923347D01*
X7152480Y11815332D01*
X7287609Y11759360D01*
X7251044Y11722795D01*
X7199061Y11644997D01*
X7163254Y11558552D01*
X7145000Y11466783D01*
X7145000Y11373217D01*
X7163254Y11281448D01*
X7199061Y11195003D01*
X7251044Y11117205D01*
X7287609Y11080640D01*
X7152480Y11024668D01*
X6990824Y10916653D01*
X6853347Y10779176D01*
X6745332Y10617520D01*
X6670930Y10437897D01*
X6633000Y10247211D01*
X6633000Y10052789D01*
X6670930Y9862103D01*
X6745332Y9682480D01*
X6853347Y9520824D01*
X6990824Y9383347D01*
X7152480Y9275332D01*
X7287609Y9219360D01*
X7251044Y9182795D01*
X7199061Y9104997D01*
X7163254Y9018552D01*
X7145000Y8926783D01*
X7145000Y8833217D01*
X7163254Y8741448D01*
X7199061Y8655003D01*
X7251044Y8577205D01*
X7287609Y8540640D01*
X7152480Y8484668D01*
X6990824Y8376653D01*
X6853347Y8239176D01*
X6745332Y8077520D01*
X6670930Y7897897D01*
X6633000Y7707211D01*
X6633000Y7512789D01*
X6670930Y7322103D01*
X6745332Y7142480D01*
X6853347Y6980824D01*
X6990824Y6843347D01*
X7152480Y6735332D01*
X7287609Y6679360D01*
X7251044Y6642795D01*
X7199061Y6564997D01*
X7163254Y6478552D01*
X7145000Y6386783D01*
X7145000Y6293217D01*
X7163254Y6201448D01*
X7199061Y6115003D01*
X7251044Y6037205D01*
X7287609Y6000640D01*
X7152480Y5944668D01*
X6990824Y5836653D01*
X6853347Y5699176D01*
X6745332Y5537520D01*
X6670930Y5357897D01*
X6633000Y5167211D01*
X6633000Y4972789D01*
X6670930Y4782103D01*
X6745332Y4602480D01*
X6853347Y4440824D01*
X6990824Y4303347D01*
X7152480Y4195332D01*
X7287609Y4139360D01*
X7251044Y4102795D01*
X7199061Y4024997D01*
X7163254Y3938552D01*
X7145000Y3846783D01*
X7145000Y3753217D01*
X7163254Y3661448D01*
X7199061Y3575003D01*
X7251044Y3497205D01*
X7287609Y3460640D01*
X7152480Y3404668D01*
X6990824Y3296653D01*
X6853347Y3159176D01*
X6745332Y2997520D01*
X6670930Y2817897D01*
X6633000Y2627211D01*
X6633000Y2432789D01*
X6670930Y2242103D01*
X6745332Y2062480D01*
X6853347Y1900824D01*
X6990824Y1763347D01*
X7152480Y1655332D01*
X7287609Y1599360D01*
X7251044Y1562795D01*
X7199061Y1484997D01*
X7163254Y1398552D01*
X7145000Y1306783D01*
X7145000Y1213217D01*
X7163254Y1121448D01*
X7199061Y1035003D01*
X7251044Y957205D01*
X7287609Y920640D01*
X7152480Y864668D01*
X6990824Y756653D01*
X6853347Y619176D01*
X6745332Y457520D01*
X6670930Y277897D01*
X6633000Y87211D01*
X6633000Y-107211D01*
X6670930Y-297897D01*
X6745332Y-477520D01*
X6853347Y-639176D01*
X6990824Y-776653D01*
X7152480Y-884668D01*
X7287609Y-940640D01*
X7251044Y-977205D01*
X7199061Y-1055003D01*
X7163254Y-1141448D01*
X7145000Y-1233217D01*
X7145000Y-1326783D01*
X7163254Y-1418552D01*
X7199061Y-1504997D01*
X7251044Y-1582795D01*
X7287609Y-1619360D01*
X7152480Y-1675332D01*
X6990824Y-1783347D01*
X6853347Y-1920824D01*
X6745332Y-2082480D01*
X6670930Y-2262103D01*
X6633000Y-2452789D01*
X6633000Y-2647211D01*
X6670930Y-2837897D01*
X6745332Y-3017520D01*
X6853347Y-3179176D01*
X6990824Y-3316653D01*
X7152480Y-3424668D01*
X7287609Y-3480640D01*
X7251044Y-3517205D01*
X7199061Y-3595003D01*
X7163254Y-3681448D01*
X7145000Y-3773217D01*
X7145000Y-3866783D01*
X7163254Y-3958552D01*
X7199061Y-4044997D01*
X7251044Y-4122795D01*
X7287609Y-4159360D01*
X7152480Y-4215332D01*
X6990824Y-4323347D01*
X6853347Y-4460824D01*
X6745332Y-4622480D01*
X6670930Y-4802103D01*
X6633000Y-4992789D01*
X6633000Y-5187211D01*
X6670930Y-5377897D01*
X6745332Y-5557520D01*
X6853347Y-5719176D01*
X6990824Y-5856653D01*
X7152480Y-5964668D01*
X7287609Y-6020640D01*
X7251044Y-6057205D01*
X7199061Y-6135003D01*
X7163254Y-6221448D01*
X7145000Y-6313217D01*
X7145000Y-6406783D01*
X7163254Y-6498552D01*
X7199061Y-6584997D01*
X7251044Y-6662795D01*
X7287609Y-6699360D01*
X7152480Y-6755332D01*
X6990824Y-6863347D01*
X6853347Y-7000824D01*
X6745332Y-7162480D01*
X6670930Y-7342103D01*
X6633000Y-7532789D01*
X6633000Y-7727211D01*
X6670930Y-7917897D01*
X6745332Y-8097520D01*
X6853347Y-8259176D01*
X6990824Y-8396653D01*
X7152480Y-8504668D01*
X7287609Y-8560640D01*
X7251044Y-8597205D01*
X7199061Y-8675003D01*
X7163254Y-8761448D01*
X7145000Y-8853217D01*
X7145000Y-8946783D01*
X7163254Y-9038552D01*
X7199061Y-9124997D01*
X7251044Y-9202795D01*
X7287609Y-9239360D01*
X7152480Y-9295332D01*
X6990824Y-9403347D01*
X6853347Y-9540824D01*
X6745332Y-9702480D01*
X6670930Y-9882103D01*
X6633000Y-10072789D01*
X6633000Y-10267211D01*
X6670930Y-10457897D01*
X6745332Y-10637520D01*
X6853347Y-10799176D01*
X6990824Y-10936653D01*
X7152480Y-11044668D01*
X7332103Y-11119070D01*
X7522789Y-11157000D01*
X7717211Y-11157000D01*
X7907897Y-11119070D01*
X8087520Y-11044668D01*
X8249176Y-10936653D01*
X8386653Y-10799176D01*
X8494668Y-10637520D01*
X8569070Y-10457897D01*
X8607000Y-10267211D01*
X8607000Y-10072789D01*
X8569070Y-9882103D01*
X8494668Y-9702480D01*
X8386653Y-9540824D01*
X8249176Y-9403347D01*
X8087520Y-9295332D01*
X7952391Y-9239360D01*
X7988956Y-9202795D01*
X8040939Y-9124997D01*
X8076746Y-9038552D01*
X8095000Y-8946783D01*
X8095000Y-8853217D01*
X8076746Y-8761448D01*
X8040939Y-8675003D01*
X7988956Y-8597205D01*
X7952391Y-8560640D01*
X8087520Y-8504668D01*
X8249176Y-8396653D01*
X8386653Y-8259176D01*
X8494668Y-8097520D01*
X8569070Y-7917897D01*
X8607000Y-7727211D01*
X8607000Y-7532789D01*
X8569070Y-7342103D01*
X8494668Y-7162480D01*
X8386653Y-7000824D01*
X8249176Y-6863347D01*
X8087520Y-6755332D01*
X7952391Y-6699360D01*
X7988956Y-6662795D01*
X8040939Y-6584997D01*
X8076746Y-6498552D01*
X8095000Y-6406783D01*
X8095000Y-6313217D01*
X8076746Y-6221448D01*
X8040939Y-6135003D01*
X7988956Y-6057205D01*
X7952391Y-6020640D01*
X8087520Y-5964668D01*
X8249176Y-5856653D01*
X8386653Y-5719176D01*
X8494668Y-5557520D01*
X8569070Y-5377897D01*
X8607000Y-5187211D01*
X8607000Y-4992789D01*
X8569070Y-4802103D01*
X8494668Y-4622480D01*
X8386653Y-4460824D01*
X8249176Y-4323347D01*
X8087520Y-4215332D01*
X7952391Y-4159360D01*
X7988956Y-4122795D01*
X8040939Y-4044997D01*
X8076746Y-3958552D01*
X8095000Y-3866783D01*
X8095000Y-3773217D01*
X8076746Y-3681448D01*
X8040939Y-3595003D01*
X7988956Y-3517205D01*
X7952391Y-3480640D01*
X8087520Y-3424668D01*
X8249176Y-3316653D01*
X8386653Y-3179176D01*
X8494668Y-3017520D01*
X8569070Y-2837897D01*
X8607000Y-2647211D01*
X8607000Y-2452789D01*
X8569070Y-2262103D01*
X8494668Y-2082480D01*
X8386653Y-1920824D01*
X8249176Y-1783347D01*
X8087520Y-1675332D01*
X7952391Y-1619360D01*
X7988956Y-1582795D01*
X8040939Y-1504997D01*
X8076746Y-1418552D01*
X8095000Y-1326783D01*
X8095000Y-1233217D01*
X8076746Y-1141448D01*
X8040939Y-1055003D01*
X7988956Y-977205D01*
X7952391Y-940640D01*
X8087520Y-884668D01*
X8249176Y-776653D01*
X8386653Y-639176D01*
X8494668Y-477520D01*
X8569070Y-297897D01*
X8607000Y-107211D01*
X8607000Y87211D01*
X8569070Y277897D01*
X8494668Y457520D01*
X8386653Y619176D01*
X8249176Y756653D01*
X8087520Y864668D01*
X7952391Y920640D01*
X7988956Y957205D01*
X8040939Y1035003D01*
X8076746Y1121448D01*
X8095000Y1213217D01*
X8095000Y1306783D01*
X8076746Y1398552D01*
X8040939Y1484997D01*
X7988956Y1562795D01*
X7952391Y1599360D01*
X8087520Y1655332D01*
X8249176Y1763347D01*
X8386653Y1900824D01*
X8494668Y2062480D01*
X8569070Y2242103D01*
X8607000Y2432789D01*
X8607000Y2627211D01*
X8569070Y2817897D01*
X8494668Y2997520D01*
X8386653Y3159176D01*
X8249176Y3296653D01*
X8087520Y3404668D01*
X7952391Y3460640D01*
X7988956Y3497205D01*
X8040939Y3575003D01*
X8076746Y3661448D01*
X8095000Y3753217D01*
X8095000Y3846783D01*
X8076746Y3938552D01*
X8040939Y4024997D01*
X7988956Y4102795D01*
X7952391Y4139360D01*
X8087520Y4195332D01*
X8249176Y4303347D01*
X8386653Y4440824D01*
X8494668Y4602480D01*
X8569070Y4782103D01*
X8607000Y4972789D01*
X8607000Y5167211D01*
X8569070Y5357897D01*
X8494668Y5537520D01*
X8386653Y5699176D01*
X8249176Y5836653D01*
X8087520Y5944668D01*
X7952391Y6000640D01*
X7988956Y6037205D01*
X8040939Y6115003D01*
X8076746Y6201448D01*
X8095000Y6293217D01*
X8095000Y6386783D01*
X8076746Y6478552D01*
X8040939Y6564997D01*
X7988956Y6642795D01*
X7952391Y6679360D01*
X8087520Y6735332D01*
X8249176Y6843347D01*
X8386653Y6980824D01*
X8494668Y7142480D01*
X8569070Y7322103D01*
X8607000Y7512789D01*
X8607000Y7707211D01*
X8569070Y7897897D01*
X8494668Y8077520D01*
X8386653Y8239176D01*
X8249176Y8376653D01*
X8087520Y8484668D01*
X7952391Y8540640D01*
X7988956Y8577205D01*
X8040939Y8655003D01*
X8076746Y8741448D01*
X8095000Y8833217D01*
X8095000Y8926783D01*
X8076746Y9018552D01*
X8040939Y9104997D01*
X7988956Y9182795D01*
X7952391Y9219360D01*
X8087520Y9275332D01*
X8249176Y9383347D01*
X8386653Y9520824D01*
X8494668Y9682480D01*
X8569070Y9862103D01*
X8607000Y10052789D01*
X8607000Y10247211D01*
X8569070Y10437897D01*
X8494668Y10617520D01*
X8386653Y10779176D01*
X8249176Y10916653D01*
X8087520Y11024668D01*
X7952391Y11080640D01*
X7988956Y11117205D01*
X8040939Y11195003D01*
X8076746Y11281448D01*
X8095000Y11373217D01*
X8095000Y11466783D01*
X8076746Y11558552D01*
X8040939Y11644997D01*
X7988956Y11722795D01*
X7952391Y11759360D01*
X8087520Y11815332D01*
X8249176Y11923347D01*
X8386653Y12060824D01*
X8494668Y12222480D01*
X8569070Y12402103D01*
X8607000Y12592789D01*
X8607000Y12787211D01*
X8569070Y12977897D01*
X8494668Y13157520D01*
X8386653Y13319176D01*
X8249176Y13456653D01*
X8087520Y13564668D01*
X7952391Y13620640D01*
X7988956Y13657205D01*
X8040939Y13735003D01*
X8076746Y13821448D01*
X8095000Y13913217D01*
X8095000Y14006783D01*
X8076746Y14098552D01*
X8040939Y14184997D01*
X7988956Y14262795D01*
X7952391Y14299360D01*
X8087520Y14355332D01*
X8249176Y14463347D01*
X8386653Y14600824D01*
X8494668Y14762480D01*
X8569070Y14942103D01*
X8607000Y15132789D01*
X8607000Y15327211D01*
X8569070Y15517897D01*
X8494668Y15697520D01*
X8386653Y15859176D01*
X8249176Y15996653D01*
X8087520Y16104668D01*
X7907897Y16179070D01*
X7717211Y16217000D01*
X7522789Y16217000D01*
X7332103Y16179070D01*
X7152480Y16104668D01*
X6990824Y15996653D01*
X6853347Y15859176D01*
X6745332Y15697520D01*
X6670930Y15517897D01*
X6633000Y15327211D01*
X6300600Y15327211D01*
X6300600Y16008807D01*
X6290109Y16115325D01*
X6248653Y16251988D01*
X6181331Y16377937D01*
X6163224Y16400000D01*
X7607771Y16400000D01*
X7843137Y16376922D01*
X8057775Y16312119D01*
X8255739Y16206860D01*
X8429485Y16065156D01*
X8572399Y15892402D01*
X8679036Y15695181D01*
X8745338Y15480994D01*
X8770000Y15246352D01*
X8770001Y1987725D01*
X8770086Y1986863D01*
X8770102Y1984563D01*
X8771289Y1973274D01*
X8771289Y1961923D01*
X8771654Y1958451D01*
X8792973Y1768381D01*
X8795000Y1758844D01*
X8795000Y892767D01*
X8793254Y888552D01*
X8775000Y796783D01*
X8775000Y703217D01*
X8793254Y611448D01*
X8795000Y607233D01*
X8795000Y142767D01*
X8793254Y138552D01*
X8775000Y46783D01*
X8775000Y-46783D01*
X8793254Y-138552D01*
X8795000Y-142767D01*
X8795000Y-607233D01*
X8793254Y-611448D01*
X8775000Y-703217D01*
X8775000Y-796783D01*
X8793254Y-888552D01*
X8795000Y-892767D01*
X8795000Y-1759280D01*
X8794935Y-1759610D01*
X8790222Y-1781782D01*
X8789857Y-1785254D01*
X8771193Y-1975604D01*
X8771193Y-1975614D01*
X8770000Y-1987726D01*
X8770001Y-11325000D01*
X5875000Y-11325000D01*
X5875000Y-7500000D01*
X5873559Y-7485368D01*
X5869291Y-7471299D01*
X5862360Y-7458332D01*
X5853033Y-7446967D01*
X5841668Y-7437640D01*
X5828701Y-7430709D01*
X5814632Y-7426441D01*
X5800000Y-7425000D01*
X793750Y-7425000D01*
X802795Y-7418956D01*
X868956Y-7352795D01*
X920939Y-7274997D01*
X956746Y-7188552D01*
X975000Y-7096783D01*
X975000Y-7003217D01*
X956746Y-6911448D01*
X920939Y-6825003D01*
X868956Y-6747205D01*
X802795Y-6681044D01*
X724997Y-6629061D01*
X638552Y-6593254D01*
X546783Y-6575000D01*
X453217Y-6575000D01*
X420675Y-6581473D01*
X406746Y-6511448D01*
X370939Y-6425003D01*
X318956Y-6347205D01*
X274968Y-6303217D01*
X2275000Y-6303217D01*
X2275000Y-6396783D01*
X2293254Y-6488552D01*
X2329061Y-6574997D01*
X2381044Y-6652795D01*
X2447205Y-6718956D01*
X2525003Y-6770939D01*
X2611448Y-6806746D01*
X2703217Y-6825000D01*
X2796783Y-6825000D01*
X2888552Y-6806746D01*
X2974997Y-6770939D01*
X3052795Y-6718956D01*
X3118956Y-6652795D01*
X3170939Y-6574997D01*
X3206746Y-6488552D01*
X3225000Y-6396783D01*
X3225000Y-6303217D01*
X3206746Y-6211448D01*
X3170939Y-6125003D01*
X3118956Y-6047205D01*
X3052795Y-5981044D01*
X2974997Y-5929061D01*
X2888552Y-5893254D01*
X2796783Y-5875000D01*
X2703217Y-5875000D01*
X2611448Y-5893254D01*
X2525003Y-5929061D01*
X2447205Y-5981044D01*
X2381044Y-6047205D01*
X2329061Y-6125003D01*
X2293254Y-6211448D01*
X2275000Y-6303217D01*
X274968Y-6303217D01*
X252795Y-6281044D01*
X174997Y-6229061D01*
X88552Y-6193254D01*
X-3217Y-6175000D01*
X-96783Y-6175000D01*
X-188552Y-6193254D01*
X-274997Y-6229061D01*
X-352795Y-6281044D01*
X-418956Y-6347205D01*
X-470939Y-6425003D01*
X-506746Y-6511448D01*
X-525000Y-6603217D01*
X-525000Y-6696783D01*
X-506746Y-6788552D01*
X-470939Y-6874997D01*
X-418956Y-6952795D01*
X-352795Y-7018956D01*
X-274997Y-7070939D01*
X-188552Y-7106746D01*
X-96783Y-7125000D01*
X-3217Y-7125000D01*
X29325Y-7118527D01*
X43254Y-7188552D01*
X79061Y-7274997D01*
X131044Y-7352795D01*
X197205Y-7418956D01*
X206250Y-7425000D01*
X0Y-7425000D01*
X-14632Y-7426441D01*
X-28701Y-7430709D01*
X-41668Y-7437640D01*
X-53033Y-7446967D01*
X-62360Y-7458332D01*
X-69291Y-7471299D01*
X-73559Y-7485368D01*
X-75000Y-7500000D01*
X-75000Y-9358351D01*
X-111448Y-9343254D01*
X-203217Y-9325000D01*
X-296783Y-9325000D01*
X-388552Y-9343254D01*
X-474997Y-9379061D01*
X-552795Y-9431044D01*
X-618956Y-9497205D01*
X-670939Y-9575003D01*
X-706746Y-9661448D01*
X-725000Y-9753217D01*
X-725000Y-9846783D01*
X-706746Y-9938552D01*
X-698758Y-9957837D01*
X-749997Y-9979061D01*
X-827795Y-10031044D01*
X-893956Y-10097205D01*
X-945939Y-10175003D01*
X-981746Y-10261448D01*
X-1000000Y-10353217D01*
X-1000000Y-10446783D01*
X-981746Y-10538552D01*
X-945939Y-10624997D01*
X-893956Y-10702795D01*
X-827795Y-10768956D01*
X-749997Y-10820939D01*
X-689919Y-10845824D01*
X-706746Y-10886448D01*
X-725000Y-10978217D01*
X-725000Y-11071783D01*
X-706746Y-11163552D01*
X-670939Y-11249997D01*
X-620824Y-11325000D01*
X-8770000Y-11325000D01*
X-8770000Y-1987725D01*
X-8770086Y-1986852D01*
X-8770102Y-1984563D01*
X-8771289Y-1973274D01*
X-8771289Y-1961923D01*
X-8771654Y-1958451D01*
X-8792973Y-1768381D01*
X-8795000Y-1758844D01*
X-8795000Y-892767D01*
X-8793254Y-888552D01*
X-8775000Y-796783D01*
X-8775000Y-703217D01*
X-8793254Y-611448D01*
X-8795000Y-607233D01*
X-8795000Y-142767D01*
X-8793254Y-138552D01*
X-8775000Y-46783D01*
X-8775000Y46783D01*
X-8793254Y138552D01*
X-8795000Y142767D01*
X-8795000Y607233D01*
X-8793254Y611448D01*
X-8775000Y703217D01*
X-8775000Y796783D01*
X-8793254Y888552D01*
X-8795000Y892767D01*
X-8795000Y1759280D01*
X-8794935Y1759610D01*
X-8790222Y1781782D01*
X-8789857Y1785254D01*
X-8771193Y1975604D01*
X-8771193Y1975613D01*
X-8770000Y1987725D01*
X-8770000Y15237771D01*
X-8761231Y15327211D01*
X-8607000Y15327211D01*
X-8607000Y15132789D01*
X-8569070Y14942103D01*
X-8494668Y14762480D01*
X-8386653Y14600824D01*
X-8249176Y14463347D01*
X-8087520Y14355332D01*
X-7952391Y14299360D01*
X-7988956Y14262795D01*
X-8040939Y14184997D01*
X-8076746Y14098552D01*
X-8095000Y14006783D01*
X-8095000Y13913217D01*
X-8076746Y13821448D01*
X-8040939Y13735003D01*
X-7988956Y13657205D01*
X-7952391Y13620640D01*
X-8087520Y13564668D01*
X-8249176Y13456653D01*
X-8386653Y13319176D01*
X-8494668Y13157520D01*
X-8569070Y12977897D01*
X-8607000Y12787211D01*
X-8607000Y12592789D01*
X-8569070Y12402103D01*
X-8494668Y12222480D01*
X-8386653Y12060824D01*
X-8249176Y11923347D01*
X-8087520Y11815332D01*
X-7952391Y11759360D01*
X-7988956Y11722795D01*
X-8040939Y11644997D01*
X-8076746Y11558552D01*
X-8095000Y11466783D01*
X-8095000Y11373217D01*
X-8076746Y11281448D01*
X-8040939Y11195003D01*
X-7988956Y11117205D01*
X-7952391Y11080640D01*
X-8087520Y11024668D01*
X-8249176Y10916653D01*
X-8386653Y10779176D01*
X-8494668Y10617520D01*
X-8569070Y10437897D01*
X-8607000Y10247211D01*
X-8607000Y10052789D01*
X-8569070Y9862103D01*
X-8494668Y9682480D01*
X-8386653Y9520824D01*
X-8249176Y9383347D01*
X-8087520Y9275332D01*
X-7952391Y9219360D01*
X-7988956Y9182795D01*
X-8040939Y9104997D01*
X-8076746Y9018552D01*
X-8095000Y8926783D01*
X-8095000Y8833217D01*
X-8076746Y8741448D01*
X-8040939Y8655003D01*
X-7988956Y8577205D01*
X-7952391Y8540640D01*
X-8087520Y8484668D01*
X-8249176Y8376653D01*
X-8386653Y8239176D01*
X-8494668Y8077520D01*
X-8569070Y7897897D01*
X-8607000Y7707211D01*
X-8607000Y7512789D01*
X-8569070Y7322103D01*
X-8494668Y7142480D01*
X-8386653Y6980824D01*
X-8249176Y6843347D01*
X-8087520Y6735332D01*
X-7952391Y6679360D01*
X-7988956Y6642795D01*
X-8040939Y6564997D01*
X-8076746Y6478552D01*
X-8095000Y6386783D01*
X-8095000Y6293217D01*
X-8076746Y6201448D01*
X-8040939Y6115003D01*
X-7988956Y6037205D01*
X-7952391Y6000640D01*
X-8087520Y5944668D01*
X-8249176Y5836653D01*
X-8386653Y5699176D01*
X-8494668Y5537520D01*
X-8569070Y5357897D01*
X-8607000Y5167211D01*
X-8607000Y4972789D01*
X-8569070Y4782103D01*
X-8494668Y4602480D01*
X-8386653Y4440824D01*
X-8249176Y4303347D01*
X-8087520Y4195332D01*
X-7952391Y4139360D01*
X-7988956Y4102795D01*
X-8040939Y4024997D01*
X-8076746Y3938552D01*
X-8095000Y3846783D01*
X-8095000Y3753217D01*
X-8076746Y3661448D01*
X-8040939Y3575003D01*
X-7988956Y3497205D01*
X-7952391Y3460640D01*
X-8087520Y3404668D01*
X-8249176Y3296653D01*
X-8386653Y3159176D01*
X-8494668Y2997520D01*
X-8569070Y2817897D01*
X-8607000Y2627211D01*
X-8607000Y2432789D01*
X-8569070Y2242103D01*
X-8494668Y2062480D01*
X-8386653Y1900824D01*
X-8249176Y1763347D01*
X-8087520Y1655332D01*
X-7952391Y1599360D01*
X-7988956Y1562795D01*
X-8040939Y1484997D01*
X-8076746Y1398552D01*
X-8095000Y1306783D01*
X-8095000Y1213217D01*
X-8076746Y1121448D01*
X-8040939Y1035003D01*
X-7988956Y957205D01*
X-7952391Y920640D01*
X-8087520Y864668D01*
X-8249176Y756653D01*
X-8386653Y619176D01*
X-8494668Y457520D01*
X-8569070Y277897D01*
X-8607000Y87211D01*
X-8607000Y-107211D01*
X-8569070Y-297897D01*
X-8494668Y-477520D01*
X-8386653Y-639176D01*
X-8249176Y-776653D01*
X-8087520Y-884668D01*
X-7952391Y-940640D01*
X-7988956Y-977205D01*
X-8040939Y-1055003D01*
X-8076746Y-1141448D01*
X-8095000Y-1233217D01*
X-8095000Y-1326783D01*
X-8076746Y-1418552D01*
X-8040939Y-1504997D01*
X-7988956Y-1582795D01*
X-7952391Y-1619360D01*
X-8087520Y-1675332D01*
X-8249176Y-1783347D01*
X-8386653Y-1920824D01*
X-8494668Y-2082480D01*
X-8569070Y-2262103D01*
X-8607000Y-2452789D01*
X-8607000Y-2647211D01*
X-8569070Y-2837897D01*
X-8494668Y-3017520D01*
X-8386653Y-3179176D01*
X-8249176Y-3316653D01*
X-8087520Y-3424668D01*
X-7952391Y-3480640D01*
X-7988956Y-3517205D01*
X-8040939Y-3595003D01*
X-8076746Y-3681448D01*
X-8095000Y-3773217D01*
X-8095000Y-3866783D01*
X-8076746Y-3958552D01*
X-8040939Y-4044997D01*
X-7988956Y-4122795D01*
X-7952391Y-4159360D01*
X-8087520Y-4215332D01*
X-8249176Y-4323347D01*
X-8386653Y-4460824D01*
X-8494668Y-4622480D01*
X-8569070Y-4802103D01*
X-8607000Y-4992789D01*
X-8607000Y-5187211D01*
X-8569070Y-5377897D01*
X-8494668Y-5557520D01*
X-8386653Y-5719176D01*
X-8249176Y-5856653D01*
X-8087520Y-5964668D01*
X-7952391Y-6020640D01*
X-7988956Y-6057205D01*
X-8040939Y-6135003D01*
X-8076746Y-6221448D01*
X-8095000Y-6313217D01*
X-8095000Y-6406783D01*
X-8076746Y-6498552D01*
X-8040939Y-6584997D01*
X-7988956Y-6662795D01*
X-7952391Y-6699360D01*
X-8087520Y-6755332D01*
X-8249176Y-6863347D01*
X-8386653Y-7000824D01*
X-8494668Y-7162480D01*
X-8569070Y-7342103D01*
X-8607000Y-7532789D01*
X-8607000Y-7727211D01*
X-8569070Y-7917897D01*
X-8494668Y-8097520D01*
X-8386653Y-8259176D01*
X-8249176Y-8396653D01*
X-8087520Y-8504668D01*
X-7952391Y-8560640D01*
X-7988956Y-8597205D01*
X-8040939Y-8675003D01*
X-8076746Y-8761448D01*
X-8095000Y-8853217D01*
X-8095000Y-8946783D01*
X-8076746Y-9038552D01*
X-8040939Y-9124997D01*
X-7988956Y-9202795D01*
X-7952391Y-9239360D01*
X-8087520Y-9295332D01*
X-8249176Y-9403347D01*
X-8386653Y-9540824D01*
X-8494668Y-9702480D01*
X-8569070Y-9882103D01*
X-8607000Y-10072789D01*
X-8607000Y-10267211D01*
X-8569070Y-10457897D01*
X-8494668Y-10637520D01*
X-8386653Y-10799176D01*
X-8249176Y-10936653D01*
X-8087520Y-11044668D01*
X-7907897Y-11119070D01*
X-7717211Y-11157000D01*
X-7522789Y-11157000D01*
X-7332103Y-11119070D01*
X-7152480Y-11044668D01*
X-6990824Y-10936653D01*
X-6853347Y-10799176D01*
X-6745332Y-10637520D01*
X-6670930Y-10457897D01*
X-6665027Y-10428217D01*
X-5875000Y-10428217D01*
X-5875000Y-10521783D01*
X-5856746Y-10613552D01*
X-5820939Y-10699997D01*
X-5768956Y-10777795D01*
X-5702795Y-10843956D01*
X-5624997Y-10895939D01*
X-5538552Y-10931746D01*
X-5446783Y-10950000D01*
X-5353217Y-10950000D01*
X-5261448Y-10931746D01*
X-5175003Y-10895939D01*
X-5097205Y-10843956D01*
X-5031044Y-10777795D01*
X-4979061Y-10699997D01*
X-4943254Y-10613552D01*
X-4925000Y-10521783D01*
X-4925000Y-10428217D01*
X-4943254Y-10336448D01*
X-4979061Y-10250003D01*
X-5031044Y-10172205D01*
X-5097205Y-10106044D01*
X-5175003Y-10054061D01*
X-5261448Y-10018254D01*
X-5353217Y-10000000D01*
X-5446783Y-10000000D01*
X-5538552Y-10018254D01*
X-5624997Y-10054061D01*
X-5702795Y-10106044D01*
X-5768956Y-10172205D01*
X-5820939Y-10250003D01*
X-5856746Y-10336448D01*
X-5875000Y-10428217D01*
X-6665027Y-10428217D01*
X-6633000Y-10267211D01*
X-6633000Y-10072789D01*
X-6670930Y-9882103D01*
X-6745332Y-9702480D01*
X-6853347Y-9540824D01*
X-6940954Y-9453217D01*
X-5000000Y-9453217D01*
X-5000000Y-9546783D01*
X-4981746Y-9638552D01*
X-4945939Y-9724997D01*
X-4893956Y-9802795D01*
X-4827795Y-9868956D01*
X-4749997Y-9920939D01*
X-4663552Y-9956746D01*
X-4571783Y-9975000D01*
X-4478217Y-9975000D01*
X-4386448Y-9956746D01*
X-4300003Y-9920939D01*
X-4222205Y-9868956D01*
X-4156044Y-9802795D01*
X-4104061Y-9724997D01*
X-4068254Y-9638552D01*
X-4050000Y-9546783D01*
X-4050000Y-9453217D01*
X-4068254Y-9361448D01*
X-4104061Y-9275003D01*
X-4156044Y-9197205D01*
X-4222205Y-9131044D01*
X-4300003Y-9079061D01*
X-4386448Y-9043254D01*
X-4478217Y-9025000D01*
X-4571783Y-9025000D01*
X-4663552Y-9043254D01*
X-4749997Y-9079061D01*
X-4827795Y-9131044D01*
X-4893956Y-9197205D01*
X-4945939Y-9275003D01*
X-4981746Y-9361448D01*
X-5000000Y-9453217D01*
X-6940954Y-9453217D01*
X-6990824Y-9403347D01*
X-7152480Y-9295332D01*
X-7287609Y-9239360D01*
X-7251044Y-9202795D01*
X-7199061Y-9124997D01*
X-7163254Y-9038552D01*
X-7145000Y-8946783D01*
X-7145000Y-8853217D01*
X-7163254Y-8761448D01*
X-7199061Y-8675003D01*
X-7251044Y-8597205D01*
X-7287609Y-8560640D01*
X-7152480Y-8504668D01*
X-6990824Y-8396653D01*
X-6853347Y-8259176D01*
X-6815957Y-8203217D01*
X-3825000Y-8203217D01*
X-3825000Y-8296783D01*
X-3806746Y-8388552D01*
X-3770939Y-8474997D01*
X-3718956Y-8552795D01*
X-3652795Y-8618956D01*
X-3574997Y-8670939D01*
X-3488552Y-8706746D01*
X-3396783Y-8725000D01*
X-3303217Y-8725000D01*
X-3211448Y-8706746D01*
X-3125003Y-8670939D01*
X-3047205Y-8618956D01*
X-2981044Y-8552795D01*
X-2929061Y-8474997D01*
X-2893254Y-8388552D01*
X-2875000Y-8296783D01*
X-2875000Y-8203217D01*
X-2893254Y-8111448D01*
X-2929061Y-8025003D01*
X-2943617Y-8003217D01*
X-2225000Y-8003217D01*
X-2225000Y-8096783D01*
X-2206746Y-8188552D01*
X-2170939Y-8274997D01*
X-2118956Y-8352795D01*
X-2052795Y-8418956D01*
X-2006334Y-8450000D01*
X-2052795Y-8481044D01*
X-2118956Y-8547205D01*
X-2170939Y-8625003D01*
X-2206746Y-8711448D01*
X-2225000Y-8803217D01*
X-2225000Y-8896783D01*
X-2206746Y-8988552D01*
X-2170939Y-9074997D01*
X-2118956Y-9152795D01*
X-2052795Y-9218956D01*
X-2043750Y-9225000D01*
X-2052795Y-9231044D01*
X-2118956Y-9297205D01*
X-2170939Y-9375003D01*
X-2206746Y-9461448D01*
X-2225000Y-9553217D01*
X-2225000Y-9646783D01*
X-2206746Y-9738552D01*
X-2170939Y-9824997D01*
X-2118956Y-9902795D01*
X-2052795Y-9968956D01*
X-1974997Y-10020939D01*
X-1888552Y-10056746D01*
X-1796783Y-10075000D01*
X-1703217Y-10075000D01*
X-1611448Y-10056746D01*
X-1525003Y-10020939D01*
X-1447205Y-9968956D01*
X-1381044Y-9902795D01*
X-1329061Y-9824997D01*
X-1293254Y-9738552D01*
X-1275000Y-9646783D01*
X-1275000Y-9553217D01*
X-1293254Y-9461448D01*
X-1329061Y-9375003D01*
X-1381044Y-9297205D01*
X-1447205Y-9231044D01*
X-1456250Y-9225000D01*
X-1447205Y-9218956D01*
X-1381044Y-9152795D01*
X-1329061Y-9074997D01*
X-1293254Y-8988552D01*
X-1275000Y-8896783D01*
X-1275000Y-8803217D01*
X-1293254Y-8711448D01*
X-1329061Y-8625003D01*
X-1381044Y-8547205D01*
X-1447205Y-8481044D01*
X-1493666Y-8450000D01*
X-1447205Y-8418956D01*
X-1381044Y-8352795D01*
X-1329061Y-8274997D01*
X-1293254Y-8188552D01*
X-1275000Y-8096783D01*
X-1275000Y-8003217D01*
X-1293254Y-7911448D01*
X-1329061Y-7825003D01*
X-1381044Y-7747205D01*
X-1447205Y-7681044D01*
X-1525003Y-7629061D01*
X-1611448Y-7593254D01*
X-1703217Y-7575000D01*
X-1796783Y-7575000D01*
X-1888552Y-7593254D01*
X-1974997Y-7629061D01*
X-2052795Y-7681044D01*
X-2118956Y-7747205D01*
X-2170939Y-7825003D01*
X-2206746Y-7911448D01*
X-2225000Y-8003217D01*
X-2943617Y-8003217D01*
X-2981044Y-7947205D01*
X-3047205Y-7881044D01*
X-3125003Y-7829061D01*
X-3211448Y-7793254D01*
X-3303217Y-7775000D01*
X-3396783Y-7775000D01*
X-3488552Y-7793254D01*
X-3574997Y-7829061D01*
X-3652795Y-7881044D01*
X-3718956Y-7947205D01*
X-3770939Y-8025003D01*
X-3806746Y-8111448D01*
X-3825000Y-8203217D01*
X-6815957Y-8203217D01*
X-6745332Y-8097520D01*
X-6670930Y-7917897D01*
X-6633000Y-7727211D01*
X-6633000Y-7678217D01*
X-5535000Y-7678217D01*
X-5535000Y-7771783D01*
X-5516746Y-7863552D01*
X-5480939Y-7949997D01*
X-5428956Y-8027795D01*
X-5362795Y-8093956D01*
X-5284997Y-8145939D01*
X-5198552Y-8181746D01*
X-5106783Y-8200000D01*
X-5013217Y-8200000D01*
X-4921448Y-8181746D01*
X-4835003Y-8145939D01*
X-4757205Y-8093956D01*
X-4691044Y-8027795D01*
X-4639061Y-7949997D01*
X-4603254Y-7863552D01*
X-4585000Y-7771783D01*
X-4585000Y-7678217D01*
X-4603254Y-7586448D01*
X-4639061Y-7500003D01*
X-4691044Y-7422205D01*
X-4757205Y-7356044D01*
X-4835003Y-7304061D01*
X-4921448Y-7268254D01*
X-5013217Y-7250000D01*
X-5106783Y-7250000D01*
X-5198552Y-7268254D01*
X-5284997Y-7304061D01*
X-5362795Y-7356044D01*
X-5428956Y-7422205D01*
X-5480939Y-7500003D01*
X-5516746Y-7586448D01*
X-5535000Y-7678217D01*
X-6633000Y-7678217D01*
X-6633000Y-7532789D01*
X-6670930Y-7342103D01*
X-6745332Y-7162480D01*
X-6853347Y-7000824D01*
X-6990824Y-6863347D01*
X-7152480Y-6755332D01*
X-7287609Y-6699360D01*
X-7251044Y-6662795D01*
X-7199061Y-6584997D01*
X-7163254Y-6498552D01*
X-7145000Y-6406783D01*
X-7145000Y-6313217D01*
X-7163254Y-6221448D01*
X-7199061Y-6135003D01*
X-7251044Y-6057205D01*
X-7287609Y-6020640D01*
X-7152480Y-5964668D01*
X-6990824Y-5856653D01*
X-6853347Y-5719176D01*
X-6745332Y-5557520D01*
X-6702129Y-5453217D01*
X-4300000Y-5453217D01*
X-4300000Y-5546783D01*
X-4281746Y-5638552D01*
X-4245939Y-5724997D01*
X-4193956Y-5802795D01*
X-4127795Y-5868956D01*
X-4049997Y-5920939D01*
X-3963552Y-5956746D01*
X-3871783Y-5975000D01*
X-3778217Y-5975000D01*
X-3686448Y-5956746D01*
X-3600003Y-5920939D01*
X-3522205Y-5868956D01*
X-3456044Y-5802795D01*
X-3404061Y-5724997D01*
X-3368254Y-5638552D01*
X-3350000Y-5546783D01*
X-3350000Y-5453217D01*
X-3368254Y-5361448D01*
X-3404061Y-5275003D01*
X-3456044Y-5197205D01*
X-3492457Y-5160792D01*
X-1737500Y-5160792D01*
X-1737500Y-5264208D01*
X-1717324Y-5365637D01*
X-1677749Y-5461181D01*
X-1620294Y-5547168D01*
X-1547168Y-5620294D01*
X-1461181Y-5677749D01*
X-1365637Y-5717324D01*
X-1264208Y-5737500D01*
X-1160792Y-5737500D01*
X-1059363Y-5717324D01*
X-963819Y-5677749D01*
X-877832Y-5620294D01*
X-804706Y-5547168D01*
X-747251Y-5461181D01*
X-707676Y-5365637D01*
X-687500Y-5264208D01*
X-687500Y-5160792D01*
X-525000Y-5160792D01*
X-525000Y-5264208D01*
X-504824Y-5365637D01*
X-465249Y-5461181D01*
X-407794Y-5547168D01*
X-334668Y-5620294D01*
X-248681Y-5677749D01*
X-153137Y-5717324D01*
X-51708Y-5737500D01*
X51708Y-5737500D01*
X153137Y-5717324D01*
X248681Y-5677749D01*
X334668Y-5620294D01*
X407794Y-5547168D01*
X465249Y-5461181D01*
X504824Y-5365637D01*
X525000Y-5264208D01*
X525000Y-5160792D01*
X687500Y-5160792D01*
X687500Y-5264208D01*
X707676Y-5365637D01*
X747251Y-5461181D01*
X804706Y-5547168D01*
X877832Y-5620294D01*
X963819Y-5677749D01*
X1059363Y-5717324D01*
X1160792Y-5737500D01*
X1264208Y-5737500D01*
X1365637Y-5717324D01*
X1461181Y-5677749D01*
X1547168Y-5620294D01*
X1620294Y-5547168D01*
X1677749Y-5461181D01*
X1717324Y-5365637D01*
X1737500Y-5264208D01*
X1737500Y-5160792D01*
X1717324Y-5059363D01*
X1677749Y-4963819D01*
X1620294Y-4877832D01*
X1547168Y-4804706D01*
X1461181Y-4747251D01*
X1365637Y-4707676D01*
X1264208Y-4687500D01*
X1160792Y-4687500D01*
X1059363Y-4707676D01*
X963819Y-4747251D01*
X877832Y-4804706D01*
X804706Y-4877832D01*
X747251Y-4963819D01*
X707676Y-5059363D01*
X687500Y-5160792D01*
X525000Y-5160792D01*
X504824Y-5059363D01*
X465249Y-4963819D01*
X407794Y-4877832D01*
X334668Y-4804706D01*
X248681Y-4747251D01*
X153137Y-4707676D01*
X51708Y-4687500D01*
X-51708Y-4687500D01*
X-153137Y-4707676D01*
X-248681Y-4747251D01*
X-334668Y-4804706D01*
X-407794Y-4877832D01*
X-465249Y-4963819D01*
X-504824Y-5059363D01*
X-525000Y-5160792D01*
X-687500Y-5160792D01*
X-707676Y-5059363D01*
X-747251Y-4963819D01*
X-804706Y-4877832D01*
X-877832Y-4804706D01*
X-963819Y-4747251D01*
X-1059363Y-4707676D01*
X-1160792Y-4687500D01*
X-1264208Y-4687500D01*
X-1365637Y-4707676D01*
X-1461181Y-4747251D01*
X-1547168Y-4804706D01*
X-1620294Y-4877832D01*
X-1677749Y-4963819D01*
X-1717324Y-5059363D01*
X-1737500Y-5160792D01*
X-3492457Y-5160792D01*
X-3522205Y-5131044D01*
X-3600003Y-5079061D01*
X-3686448Y-5043254D01*
X-3778217Y-5025000D01*
X-3871783Y-5025000D01*
X-3963552Y-5043254D01*
X-4049997Y-5079061D01*
X-4127795Y-5131044D01*
X-4193956Y-5197205D01*
X-4245939Y-5275003D01*
X-4281746Y-5361448D01*
X-4300000Y-5453217D01*
X-6702129Y-5453217D01*
X-6670930Y-5377897D01*
X-6633000Y-5187211D01*
X-6633000Y-4992789D01*
X-6670930Y-4802103D01*
X-6722245Y-4678217D01*
X3300000Y-4678217D01*
X3300000Y-4771783D01*
X3318254Y-4863552D01*
X3354061Y-4949997D01*
X3406044Y-5027795D01*
X3472205Y-5093956D01*
X3550003Y-5145939D01*
X3636448Y-5181746D01*
X3728217Y-5200000D01*
X3636448Y-5218254D01*
X3550003Y-5254061D01*
X3472205Y-5306044D01*
X3406044Y-5372205D01*
X3354061Y-5450003D01*
X3318254Y-5536448D01*
X3300000Y-5628217D01*
X3300000Y-5721783D01*
X3318254Y-5813552D01*
X3354061Y-5899997D01*
X3406044Y-5977795D01*
X3472205Y-6043956D01*
X3550003Y-6095939D01*
X3636448Y-6131746D01*
X3728217Y-6150000D01*
X3821783Y-6150000D01*
X3913552Y-6131746D01*
X3999997Y-6095939D01*
X4077795Y-6043956D01*
X4143956Y-5977795D01*
X4195939Y-5899997D01*
X4231746Y-5813552D01*
X4250000Y-5721783D01*
X4250000Y-5628217D01*
X4231746Y-5536448D01*
X4195939Y-5450003D01*
X4143956Y-5372205D01*
X4077795Y-5306044D01*
X3999997Y-5254061D01*
X3913552Y-5218254D01*
X3821783Y-5200000D01*
X3913552Y-5181746D01*
X3999997Y-5145939D01*
X4077795Y-5093956D01*
X4143956Y-5027795D01*
X4195939Y-4949997D01*
X4231746Y-4863552D01*
X4250000Y-4771783D01*
X4250000Y-4678217D01*
X4231746Y-4586448D01*
X4195939Y-4500003D01*
X4143956Y-4422205D01*
X4077795Y-4356044D01*
X3999997Y-4304061D01*
X3913552Y-4268254D01*
X3821783Y-4250000D01*
X3728217Y-4250000D01*
X3636448Y-4268254D01*
X3550003Y-4304061D01*
X3472205Y-4356044D01*
X3406044Y-4422205D01*
X3354061Y-4500003D01*
X3318254Y-4586448D01*
X3300000Y-4678217D01*
X-6722245Y-4678217D01*
X-6745332Y-4622480D01*
X-6853347Y-4460824D01*
X-6990824Y-4323347D01*
X-7152480Y-4215332D01*
X-7287609Y-4159360D01*
X-7251044Y-4122795D01*
X-7199061Y-4044997D01*
X-7171400Y-3978217D01*
X-6350000Y-3978217D01*
X-6350000Y-4071783D01*
X-6331746Y-4163552D01*
X-6295939Y-4249997D01*
X-6243956Y-4327795D01*
X-6177795Y-4393956D01*
X-6099997Y-4445939D01*
X-6013552Y-4481746D01*
X-5921783Y-4500000D01*
X-5828217Y-4500000D01*
X-5736448Y-4481746D01*
X-5650003Y-4445939D01*
X-5572205Y-4393956D01*
X-5506044Y-4327795D01*
X-5454061Y-4249997D01*
X-5418254Y-4163552D01*
X-5400000Y-4071783D01*
X-5400000Y-3978217D01*
X-5405952Y-3948292D01*
X-1737500Y-3948292D01*
X-1737500Y-4051708D01*
X-1717324Y-4153137D01*
X-1677749Y-4248681D01*
X-1620294Y-4334668D01*
X-1547168Y-4407794D01*
X-1461181Y-4465249D01*
X-1365637Y-4504824D01*
X-1264208Y-4525000D01*
X-1160792Y-4525000D01*
X-1059363Y-4504824D01*
X-963819Y-4465249D01*
X-877832Y-4407794D01*
X-804706Y-4334668D01*
X-747251Y-4248681D01*
X-707676Y-4153137D01*
X-687500Y-4051708D01*
X-687500Y-3948292D01*
X-525000Y-3948292D01*
X-525000Y-4051708D01*
X-504824Y-4153137D01*
X-465249Y-4248681D01*
X-407794Y-4334668D01*
X-334668Y-4407794D01*
X-248681Y-4465249D01*
X-153137Y-4504824D01*
X-51708Y-4525000D01*
X51708Y-4525000D01*
X153137Y-4504824D01*
X248681Y-4465249D01*
X334668Y-4407794D01*
X407794Y-4334668D01*
X465249Y-4248681D01*
X504824Y-4153137D01*
X525000Y-4051708D01*
X525000Y-3948292D01*
X687500Y-3948292D01*
X687500Y-4051708D01*
X707676Y-4153137D01*
X747251Y-4248681D01*
X804706Y-4334668D01*
X877832Y-4407794D01*
X963819Y-4465249D01*
X1059363Y-4504824D01*
X1160792Y-4525000D01*
X1264208Y-4525000D01*
X1365637Y-4504824D01*
X1461181Y-4465249D01*
X1547168Y-4407794D01*
X1620294Y-4334668D01*
X1677749Y-4248681D01*
X1717324Y-4153137D01*
X1737500Y-4051708D01*
X1737500Y-3948292D01*
X1717324Y-3846863D01*
X1677749Y-3751319D01*
X1620294Y-3665332D01*
X1547168Y-3592206D01*
X1461181Y-3534751D01*
X1365637Y-3495176D01*
X1264208Y-3475000D01*
X1160792Y-3475000D01*
X1059363Y-3495176D01*
X963819Y-3534751D01*
X877832Y-3592206D01*
X804706Y-3665332D01*
X747251Y-3751319D01*
X707676Y-3846863D01*
X687500Y-3948292D01*
X525000Y-3948292D01*
X504824Y-3846863D01*
X465249Y-3751319D01*
X407794Y-3665332D01*
X334668Y-3592206D01*
X248681Y-3534751D01*
X153137Y-3495176D01*
X51708Y-3475000D01*
X-51708Y-3475000D01*
X-153137Y-3495176D01*
X-248681Y-3534751D01*
X-334668Y-3592206D01*
X-407794Y-3665332D01*
X-465249Y-3751319D01*
X-504824Y-3846863D01*
X-525000Y-3948292D01*
X-687500Y-3948292D01*
X-707676Y-3846863D01*
X-747251Y-3751319D01*
X-804706Y-3665332D01*
X-877832Y-3592206D01*
X-963819Y-3534751D01*
X-1059363Y-3495176D01*
X-1160792Y-3475000D01*
X-1264208Y-3475000D01*
X-1365637Y-3495176D01*
X-1461181Y-3534751D01*
X-1547168Y-3592206D01*
X-1620294Y-3665332D01*
X-1677749Y-3751319D01*
X-1717324Y-3846863D01*
X-1737500Y-3948292D01*
X-5405952Y-3948292D01*
X-5418254Y-3886448D01*
X-5454061Y-3800003D01*
X-5506044Y-3722205D01*
X-5572205Y-3656044D01*
X-5650003Y-3604061D01*
X-5736448Y-3568254D01*
X-5828217Y-3550000D01*
X-5921783Y-3550000D01*
X-6013552Y-3568254D01*
X-6099997Y-3604061D01*
X-6177795Y-3656044D01*
X-6243956Y-3722205D01*
X-6295939Y-3800003D01*
X-6331746Y-3886448D01*
X-6350000Y-3978217D01*
X-7171400Y-3978217D01*
X-7163254Y-3958552D01*
X-7145000Y-3866783D01*
X-7145000Y-3773217D01*
X-7163254Y-3681448D01*
X-7199061Y-3595003D01*
X-7251044Y-3517205D01*
X-7287609Y-3480640D01*
X-7152480Y-3424668D01*
X-6990824Y-3316653D01*
X-6853347Y-3179176D01*
X-6745332Y-3017520D01*
X-6670930Y-2837897D01*
X-6633000Y-2647211D01*
X-6633000Y-2452789D01*
X-6670930Y-2262103D01*
X-6745332Y-2082480D01*
X-6853347Y-1920824D01*
X-6870954Y-1903217D01*
X-5125000Y-1903217D01*
X-5125000Y-1996783D01*
X-5106746Y-2088552D01*
X-5070939Y-2174997D01*
X-5018956Y-2252795D01*
X-4996751Y-2275000D01*
X-5018956Y-2297205D01*
X-5070939Y-2375003D01*
X-5106746Y-2461448D01*
X-5125000Y-2553217D01*
X-5125000Y-2646783D01*
X-5106746Y-2738552D01*
X-5070939Y-2824997D01*
X-5018956Y-2902795D01*
X-4952795Y-2968956D01*
X-4874997Y-3020939D01*
X-4788552Y-3056746D01*
X-4696783Y-3075000D01*
X-4603217Y-3075000D01*
X-4511448Y-3056746D01*
X-4425003Y-3020939D01*
X-4361066Y-2978217D01*
X-4200000Y-2978217D01*
X-4200000Y-3071783D01*
X-4181746Y-3163552D01*
X-4145939Y-3249997D01*
X-4093956Y-3327795D01*
X-4027795Y-3393956D01*
X-3949997Y-3445939D01*
X-3863552Y-3481746D01*
X-3771783Y-3500000D01*
X-3678217Y-3500000D01*
X-3586448Y-3481746D01*
X-3500003Y-3445939D01*
X-3422205Y-3393956D01*
X-3356044Y-3327795D01*
X-3304061Y-3249997D01*
X-3268254Y-3163552D01*
X-3250000Y-3071783D01*
X-3250000Y-2978217D01*
X-3268254Y-2886448D01*
X-3304061Y-2800003D01*
X-3356044Y-2722205D01*
X-3375032Y-2703217D01*
X-2975000Y-2703217D01*
X-2975000Y-2796783D01*
X-2956746Y-2888552D01*
X-2920939Y-2974997D01*
X-2868956Y-3052795D01*
X-2802795Y-3118956D01*
X-2724997Y-3170939D01*
X-2638552Y-3206746D01*
X-2546783Y-3225000D01*
X-2453217Y-3225000D01*
X-2361448Y-3206746D01*
X-2275003Y-3170939D01*
X-2197205Y-3118956D01*
X-2131044Y-3052795D01*
X-2079061Y-2974997D01*
X-2043254Y-2888552D01*
X-2025000Y-2796783D01*
X-2025000Y-2735792D01*
X-1737500Y-2735792D01*
X-1737500Y-2839208D01*
X-1717324Y-2940637D01*
X-1677749Y-3036181D01*
X-1620294Y-3122168D01*
X-1547168Y-3195294D01*
X-1461181Y-3252749D01*
X-1365637Y-3292324D01*
X-1264208Y-3312500D01*
X-1160792Y-3312500D01*
X-1059363Y-3292324D01*
X-963819Y-3252749D01*
X-877832Y-3195294D01*
X-804706Y-3122168D01*
X-747251Y-3036181D01*
X-707676Y-2940637D01*
X-687500Y-2839208D01*
X-687500Y-2735792D01*
X-525000Y-2735792D01*
X-525000Y-2839208D01*
X-504824Y-2940637D01*
X-465249Y-3036181D01*
X-407794Y-3122168D01*
X-334668Y-3195294D01*
X-248681Y-3252749D01*
X-153137Y-3292324D01*
X-51708Y-3312500D01*
X51708Y-3312500D01*
X153137Y-3292324D01*
X248681Y-3252749D01*
X334668Y-3195294D01*
X407794Y-3122168D01*
X465249Y-3036181D01*
X504824Y-2940637D01*
X525000Y-2839208D01*
X525000Y-2735792D01*
X687500Y-2735792D01*
X687500Y-2839208D01*
X707676Y-2940637D01*
X747251Y-3036181D01*
X804706Y-3122168D01*
X877832Y-3195294D01*
X963819Y-3252749D01*
X1059363Y-3292324D01*
X1160792Y-3312500D01*
X1264208Y-3312500D01*
X1365637Y-3292324D01*
X1461181Y-3252749D01*
X1547168Y-3195294D01*
X1620294Y-3122168D01*
X1677749Y-3036181D01*
X1717324Y-2940637D01*
X1737500Y-2839208D01*
X1737500Y-2735792D01*
X1717324Y-2634363D01*
X1677749Y-2538819D01*
X1620294Y-2452832D01*
X1547168Y-2379706D01*
X1522491Y-2363217D01*
X4215000Y-2363217D01*
X4215000Y-2456783D01*
X4233254Y-2548552D01*
X4269061Y-2634997D01*
X4321044Y-2712795D01*
X4387205Y-2778956D01*
X4465003Y-2830939D01*
X4551448Y-2866746D01*
X4643217Y-2885000D01*
X4736783Y-2885000D01*
X4828552Y-2866746D01*
X4914997Y-2830939D01*
X4992795Y-2778956D01*
X5058956Y-2712795D01*
X5110939Y-2634997D01*
X5146746Y-2548552D01*
X5165000Y-2456783D01*
X5165000Y-2363217D01*
X5146746Y-2271448D01*
X5110939Y-2185003D01*
X5058956Y-2107205D01*
X4992795Y-2041044D01*
X4914997Y-1989061D01*
X4828552Y-1953254D01*
X4736783Y-1935000D01*
X4643217Y-1935000D01*
X4551448Y-1953254D01*
X4465003Y-1989061D01*
X4387205Y-2041044D01*
X4321044Y-2107205D01*
X4269061Y-2185003D01*
X4233254Y-2271448D01*
X4215000Y-2363217D01*
X1522491Y-2363217D01*
X1461181Y-2322251D01*
X1365637Y-2282676D01*
X1264208Y-2262500D01*
X1160792Y-2262500D01*
X1059363Y-2282676D01*
X963819Y-2322251D01*
X877832Y-2379706D01*
X804706Y-2452832D01*
X747251Y-2538819D01*
X707676Y-2634363D01*
X687500Y-2735792D01*
X525000Y-2735792D01*
X504824Y-2634363D01*
X465249Y-2538819D01*
X407794Y-2452832D01*
X334668Y-2379706D01*
X248681Y-2322251D01*
X153137Y-2282676D01*
X51708Y-2262500D01*
X-51708Y-2262500D01*
X-153137Y-2282676D01*
X-248681Y-2322251D01*
X-334668Y-2379706D01*
X-407794Y-2452832D01*
X-465249Y-2538819D01*
X-504824Y-2634363D01*
X-525000Y-2735792D01*
X-687500Y-2735792D01*
X-707676Y-2634363D01*
X-747251Y-2538819D01*
X-804706Y-2452832D01*
X-877832Y-2379706D01*
X-963819Y-2322251D01*
X-1059363Y-2282676D01*
X-1160792Y-2262500D01*
X-1264208Y-2262500D01*
X-1365637Y-2282676D01*
X-1461181Y-2322251D01*
X-1547168Y-2379706D01*
X-1620294Y-2452832D01*
X-1677749Y-2538819D01*
X-1717324Y-2634363D01*
X-1737500Y-2735792D01*
X-2025000Y-2735792D01*
X-2025000Y-2703217D01*
X-2043254Y-2611448D01*
X-2079061Y-2525003D01*
X-2131044Y-2447205D01*
X-2197205Y-2381044D01*
X-2275003Y-2329061D01*
X-2361448Y-2293254D01*
X-2453217Y-2275000D01*
X-2546783Y-2275000D01*
X-2638552Y-2293254D01*
X-2724997Y-2329061D01*
X-2802795Y-2381044D01*
X-2868956Y-2447205D01*
X-2920939Y-2525003D01*
X-2956746Y-2611448D01*
X-2975000Y-2703217D01*
X-3375032Y-2703217D01*
X-3422205Y-2656044D01*
X-3500003Y-2604061D01*
X-3586448Y-2568254D01*
X-3678217Y-2550000D01*
X-3771783Y-2550000D01*
X-3863552Y-2568254D01*
X-3949997Y-2604061D01*
X-4027795Y-2656044D01*
X-4093956Y-2722205D01*
X-4145939Y-2800003D01*
X-4181746Y-2886448D01*
X-4200000Y-2978217D01*
X-4361066Y-2978217D01*
X-4347205Y-2968956D01*
X-4281044Y-2902795D01*
X-4229061Y-2824997D01*
X-4193254Y-2738552D01*
X-4175000Y-2646783D01*
X-4175000Y-2553217D01*
X-4193254Y-2461448D01*
X-4229061Y-2375003D01*
X-4281044Y-2297205D01*
X-4303249Y-2275000D01*
X-4281044Y-2252795D01*
X-4229061Y-2174997D01*
X-4193254Y-2088552D01*
X-4175000Y-1996783D01*
X-4175000Y-1903217D01*
X-4193254Y-1811448D01*
X-4229061Y-1725003D01*
X-4243617Y-1703217D01*
X-1975000Y-1703217D01*
X-1975000Y-1796783D01*
X-1956746Y-1888552D01*
X-1920939Y-1974997D01*
X-1868956Y-2052795D01*
X-1802795Y-2118956D01*
X-1724997Y-2170939D01*
X-1638552Y-2206746D01*
X-1546783Y-2225000D01*
X-1453217Y-2225000D01*
X-1361448Y-2206746D01*
X-1275003Y-2170939D01*
X-1197205Y-2118956D01*
X-1131044Y-2052795D01*
X-1079061Y-1974997D01*
X-1043254Y-1888552D01*
X-1025000Y-1796783D01*
X-1025000Y-1753217D01*
X2825000Y-1753217D01*
X2825000Y-1846783D01*
X2843254Y-1938552D01*
X2879061Y-2024997D01*
X2931044Y-2102795D01*
X2997205Y-2168956D01*
X3075003Y-2220939D01*
X3161448Y-2256746D01*
X3253217Y-2275000D01*
X3346783Y-2275000D01*
X3438552Y-2256746D01*
X3524997Y-2220939D01*
X3602795Y-2168956D01*
X3668956Y-2102795D01*
X3720939Y-2024997D01*
X3756746Y-1938552D01*
X3775000Y-1846783D01*
X3775000Y-1753217D01*
X3756746Y-1661448D01*
X3720939Y-1575003D01*
X3668956Y-1497205D01*
X3602795Y-1431044D01*
X3524997Y-1379061D01*
X3438552Y-1343254D01*
X3346783Y-1325000D01*
X3253217Y-1325000D01*
X3161448Y-1343254D01*
X3075003Y-1379061D01*
X2997205Y-1431044D01*
X2931044Y-1497205D01*
X2879061Y-1575003D01*
X2843254Y-1661448D01*
X2825000Y-1753217D01*
X-1025000Y-1753217D01*
X-1025000Y-1703217D01*
X-1043254Y-1611448D01*
X-1079061Y-1525003D01*
X-1131044Y-1447205D01*
X-1197205Y-1381044D01*
X-1275003Y-1329061D01*
X-1361448Y-1293254D01*
X-1453217Y-1275000D01*
X-1546783Y-1275000D01*
X-1638552Y-1293254D01*
X-1724997Y-1329061D01*
X-1802795Y-1381044D01*
X-1868956Y-1447205D01*
X-1920939Y-1525003D01*
X-1956746Y-1611448D01*
X-1975000Y-1703217D01*
X-4243617Y-1703217D01*
X-4281044Y-1647205D01*
X-4347205Y-1581044D01*
X-4425003Y-1529061D01*
X-4511448Y-1493254D01*
X-4603217Y-1475000D01*
X-4696783Y-1475000D01*
X-4788552Y-1493254D01*
X-4874997Y-1529061D01*
X-4952795Y-1581044D01*
X-5018956Y-1647205D01*
X-5070939Y-1725003D01*
X-5106746Y-1811448D01*
X-5125000Y-1903217D01*
X-6870954Y-1903217D01*
X-6990824Y-1783347D01*
X-7152480Y-1675332D01*
X-7287609Y-1619360D01*
X-7251044Y-1582795D01*
X-7199061Y-1504997D01*
X-7163254Y-1418552D01*
X-7145000Y-1326783D01*
X-7145000Y-1233217D01*
X-7163254Y-1141448D01*
X-7199061Y-1055003D01*
X-7251044Y-977205D01*
X-7287609Y-940640D01*
X-7152480Y-884668D01*
X-6990824Y-776653D01*
X-6853347Y-639176D01*
X-6745332Y-477520D01*
X-6670930Y-297897D01*
X-6667016Y-278217D01*
X-4325000Y-278217D01*
X-4325000Y-371783D01*
X-4306746Y-463552D01*
X-4270939Y-549997D01*
X-4218956Y-627795D01*
X-4152795Y-693956D01*
X-4074997Y-745939D01*
X-3988552Y-781746D01*
X-3896783Y-800000D01*
X-3803217Y-800000D01*
X-3711448Y-781746D01*
X-3625003Y-745939D01*
X-3547205Y-693956D01*
X-3481044Y-627795D01*
X-3429061Y-549997D01*
X-3414862Y-515717D01*
X112500Y-515717D01*
X112500Y-609283D01*
X130754Y-701052D01*
X166561Y-787497D01*
X218544Y-865295D01*
X284705Y-931456D01*
X362503Y-983439D01*
X448948Y-1019246D01*
X540717Y-1037500D01*
X634283Y-1037500D01*
X726052Y-1019246D01*
X812497Y-983439D01*
X890295Y-931456D01*
X943534Y-878217D01*
X4125000Y-878217D01*
X4125000Y-971783D01*
X4143254Y-1063552D01*
X4179061Y-1149997D01*
X4231044Y-1227795D01*
X4297205Y-1293956D01*
X4375003Y-1345939D01*
X4461448Y-1381746D01*
X4553217Y-1400000D01*
X4646783Y-1400000D01*
X4738552Y-1381746D01*
X4824997Y-1345939D01*
X4902795Y-1293956D01*
X4968956Y-1227795D01*
X5020939Y-1149997D01*
X5056746Y-1063552D01*
X5075000Y-971783D01*
X5075000Y-878217D01*
X5056746Y-786448D01*
X5020939Y-700003D01*
X4968956Y-622205D01*
X4902795Y-556044D01*
X4824997Y-504061D01*
X4738552Y-468254D01*
X4646783Y-450000D01*
X4553217Y-450000D01*
X4461448Y-468254D01*
X4375003Y-504061D01*
X4297205Y-556044D01*
X4231044Y-622205D01*
X4179061Y-700003D01*
X4143254Y-786448D01*
X4125000Y-878217D01*
X943534Y-878217D01*
X956456Y-865295D01*
X1008439Y-787497D01*
X1044246Y-701052D01*
X1062500Y-609283D01*
X1062500Y-515717D01*
X1044246Y-423948D01*
X1008439Y-337503D01*
X956456Y-259705D01*
X890295Y-193544D01*
X812497Y-141561D01*
X726052Y-105754D01*
X634283Y-87500D01*
X540717Y-87500D01*
X448948Y-105754D01*
X362503Y-141561D01*
X284705Y-193544D01*
X218544Y-259705D01*
X166561Y-337503D01*
X130754Y-423948D01*
X112500Y-515717D01*
X-3414862Y-515717D01*
X-3393254Y-463552D01*
X-3375000Y-371783D01*
X-3375000Y-278217D01*
X-3393254Y-186448D01*
X-3429061Y-100003D01*
X-3481044Y-22205D01*
X-3547205Y43956D01*
X-3625003Y95939D01*
X-3711448Y131746D01*
X-3803217Y150000D01*
X-3896783Y150000D01*
X-3988552Y131746D01*
X-4074997Y95939D01*
X-4152795Y43956D01*
X-4218956Y-22205D01*
X-4270939Y-100003D01*
X-4306746Y-186448D01*
X-4325000Y-278217D01*
X-6667016Y-278217D01*
X-6633000Y-107211D01*
X-6633000Y87211D01*
X-6670930Y277897D01*
X-6745332Y457520D01*
X-6853347Y619176D01*
X-6990824Y756653D01*
X-7088298Y821783D01*
X-3750000Y821783D01*
X-3750000Y728217D01*
X-3731746Y636448D01*
X-3695939Y550003D01*
X-3643956Y472205D01*
X-3577795Y406044D01*
X-3499997Y354061D01*
X-3413552Y318254D01*
X-3321783Y300000D01*
X-3228217Y300000D01*
X-3136448Y318254D01*
X-3050003Y354061D01*
X-2972205Y406044D01*
X-2906044Y472205D01*
X-2872918Y521783D01*
X-1000000Y521783D01*
X-1000000Y428217D01*
X-981746Y336448D01*
X-945939Y250003D01*
X-893956Y172205D01*
X-827795Y106044D01*
X-749997Y54061D01*
X-663552Y18254D01*
X-571783Y0D01*
X-478217Y0D01*
X-386448Y18254D01*
X-300003Y54061D01*
X-222205Y106044D01*
X-156044Y172205D01*
X-104061Y250003D01*
X-68254Y336448D01*
X-50000Y428217D01*
X-50000Y521783D01*
X-68254Y613552D01*
X-104061Y699997D01*
X-156044Y777795D01*
X-222205Y843956D01*
X-300003Y895939D01*
X-386448Y931746D01*
X-478217Y950000D01*
X-571783Y950000D01*
X-663552Y931746D01*
X-749997Y895939D01*
X-827795Y843956D01*
X-893956Y777795D01*
X-945939Y699997D01*
X-981746Y613552D01*
X-1000000Y521783D01*
X-2872918Y521783D01*
X-2854061Y550003D01*
X-2818254Y636448D01*
X-2800000Y728217D01*
X-2800000Y821783D01*
X-2818254Y913552D01*
X-2854061Y999997D01*
X-2906044Y1077795D01*
X-2972205Y1143956D01*
X-3050003Y1195939D01*
X-3136448Y1231746D01*
X-3228217Y1250000D01*
X-3321783Y1250000D01*
X-3413552Y1231746D01*
X-3499997Y1195939D01*
X-3577795Y1143956D01*
X-3643956Y1077795D01*
X-3695939Y999997D01*
X-3731746Y913552D01*
X-3750000Y821783D01*
X-7088298Y821783D01*
X-7152480Y864668D01*
X-7287609Y920640D01*
X-7251044Y957205D01*
X-7199061Y1035003D01*
X-7163254Y1121448D01*
X-7145000Y1213217D01*
X-7145000Y1306783D01*
X-7163254Y1398552D01*
X-7199061Y1484997D01*
X-7251044Y1562795D01*
X-7285032Y1596783D01*
X-2850000Y1596783D01*
X-2850000Y1503217D01*
X-2831746Y1411448D01*
X-2795939Y1325003D01*
X-2743956Y1247205D01*
X-2677795Y1181044D01*
X-2599997Y1129061D01*
X-2513552Y1093254D01*
X-2421783Y1075000D01*
X-2328217Y1075000D01*
X-2236448Y1093254D01*
X-2150003Y1129061D01*
X-2072205Y1181044D01*
X-2006044Y1247205D01*
X-1954061Y1325003D01*
X-1918254Y1411448D01*
X-1900000Y1503217D01*
X-1900000Y1596783D01*
X-1918254Y1688552D01*
X-1954061Y1774997D01*
X-2006044Y1852795D01*
X-2072205Y1918956D01*
X-2150003Y1970939D01*
X-2236448Y2006746D01*
X-2328217Y2025000D01*
X-2421783Y2025000D01*
X-2513552Y2006746D01*
X-2599997Y1970939D01*
X-2677795Y1918956D01*
X-2743956Y1852795D01*
X-2795939Y1774997D01*
X-2831746Y1688552D01*
X-2850000Y1596783D01*
X-7285032Y1596783D01*
X-7287609Y1599360D01*
X-7152480Y1655332D01*
X-6990824Y1763347D01*
X-6853347Y1900824D01*
X-6745332Y2062480D01*
X-6670930Y2242103D01*
X-6633000Y2432789D01*
X-6633000Y2627211D01*
X-6670930Y2817897D01*
X-6734671Y2971783D01*
X-6525000Y2971783D01*
X-6525000Y2878217D01*
X-6506746Y2786448D01*
X-6470939Y2700003D01*
X-6418956Y2622205D01*
X-6352795Y2556044D01*
X-6274997Y2504061D01*
X-6188552Y2468254D01*
X-6096783Y2450000D01*
X-6003217Y2450000D01*
X-5911448Y2468254D01*
X-5825003Y2504061D01*
X-5747205Y2556044D01*
X-5681044Y2622205D01*
X-5631213Y2696783D01*
X-2850000Y2696783D01*
X-2850000Y2603217D01*
X-2831746Y2511448D01*
X-2795939Y2425003D01*
X-2743956Y2347205D01*
X-2677795Y2281044D01*
X-2599997Y2229061D01*
X-2513552Y2193254D01*
X-2421783Y2175000D01*
X-2328217Y2175000D01*
X-2236448Y2193254D01*
X-2150003Y2229061D01*
X-2072205Y2281044D01*
X-2006044Y2347205D01*
X-1954061Y2425003D01*
X-1918254Y2511448D01*
X-1900000Y2603217D01*
X-1900000Y2696783D01*
X-1918254Y2788552D01*
X-1954061Y2874997D01*
X-2006044Y2952795D01*
X-2039397Y2986148D01*
X-1972205Y3031044D01*
X-1906044Y3097205D01*
X-1854061Y3175003D01*
X-1818254Y3261448D01*
X-1800000Y3353217D01*
X-1800000Y3446783D01*
X-1818254Y3538552D01*
X-1854061Y3624997D01*
X-1906044Y3702795D01*
X-1972205Y3768956D01*
X-2012458Y3795852D01*
X-1997205Y3806044D01*
X-1931044Y3872205D01*
X-1879061Y3950003D01*
X-1843254Y4036448D01*
X-1825000Y4128217D01*
X-1825000Y4221783D01*
X-1843254Y4313552D01*
X-1847995Y4325000D01*
X-500000Y4325000D01*
X-500000Y2275000D01*
X-498559Y2260368D01*
X-494291Y2246299D01*
X-487360Y2233332D01*
X-478033Y2221967D01*
X-466668Y2212640D01*
X-453701Y2205709D01*
X-439632Y2201441D01*
X-425000Y2200000D01*
X4225000Y2200000D01*
X4239632Y2201441D01*
X4253701Y2205709D01*
X4266668Y2212640D01*
X4278033Y2221967D01*
X4287360Y2233332D01*
X4294291Y2246299D01*
X4298559Y2260368D01*
X4300000Y2275000D01*
X4300000Y2550000D01*
X6300000Y2550000D01*
X6314632Y2551441D01*
X6328701Y2555709D01*
X6341668Y2562640D01*
X6353033Y2571967D01*
X6362360Y2583332D01*
X6369291Y2596299D01*
X6373559Y2610368D01*
X6375000Y2625000D01*
X6375000Y3575000D01*
X6373559Y3589632D01*
X6369291Y3603701D01*
X6362360Y3616668D01*
X6353033Y3628033D01*
X6341668Y3637360D01*
X6328701Y3644291D01*
X6314632Y3648559D01*
X6300000Y3650000D01*
X4300000Y3650000D01*
X4300000Y4325000D01*
X4298559Y4339632D01*
X4294291Y4353701D01*
X4287360Y4366668D01*
X4278033Y4378033D01*
X4266668Y4387360D01*
X4253701Y4394291D01*
X4239632Y4398559D01*
X4225000Y4400000D01*
X370824Y4400000D01*
X368956Y4402795D01*
X302795Y4468956D01*
X224997Y4520939D01*
X138552Y4556746D01*
X46783Y4575000D01*
X-46783Y4575000D01*
X-138552Y4556746D01*
X-224997Y4520939D01*
X-302795Y4468956D01*
X-368956Y4402795D01*
X-370824Y4400000D01*
X-425000Y4400000D01*
X-439632Y4398559D01*
X-453701Y4394291D01*
X-466668Y4387360D01*
X-478033Y4378033D01*
X-487360Y4366668D01*
X-494291Y4353701D01*
X-498559Y4339632D01*
X-500000Y4325000D01*
X-1847995Y4325000D01*
X-1879061Y4399997D01*
X-1931044Y4477795D01*
X-1997205Y4543956D01*
X-2075003Y4595939D01*
X-2161448Y4631746D01*
X-2253217Y4650000D01*
X-2346783Y4650000D01*
X-2438552Y4631746D01*
X-2524997Y4595939D01*
X-2602795Y4543956D01*
X-2668956Y4477795D01*
X-2720939Y4399997D01*
X-2756746Y4313552D01*
X-2775000Y4221783D01*
X-2775000Y4128217D01*
X-2756746Y4036448D01*
X-2720939Y3950003D01*
X-2668956Y3872205D01*
X-2602795Y3806044D01*
X-2562542Y3779148D01*
X-2577795Y3768956D01*
X-2643956Y3702795D01*
X-2695939Y3624997D01*
X-2731746Y3538552D01*
X-2750000Y3446783D01*
X-2750000Y3353217D01*
X-2731746Y3261448D01*
X-2695939Y3175003D01*
X-2643956Y3097205D01*
X-2610603Y3063852D01*
X-2677795Y3018956D01*
X-2743956Y2952795D01*
X-2795939Y2874997D01*
X-2831746Y2788552D01*
X-2850000Y2696783D01*
X-5631213Y2696783D01*
X-5629061Y2700003D01*
X-5593254Y2786448D01*
X-5575000Y2878217D01*
X-5575000Y2971783D01*
X-5593254Y3063552D01*
X-5629061Y3149997D01*
X-5681044Y3227795D01*
X-5747205Y3293956D01*
X-5825003Y3345939D01*
X-5911448Y3381746D01*
X-6003217Y3400000D01*
X-6096783Y3400000D01*
X-6188552Y3381746D01*
X-6274997Y3345939D01*
X-6352795Y3293956D01*
X-6418956Y3227795D01*
X-6470939Y3149997D01*
X-6506746Y3063552D01*
X-6525000Y2971783D01*
X-6734671Y2971783D01*
X-6745332Y2997520D01*
X-6853347Y3159176D01*
X-6990824Y3296653D01*
X-7152480Y3404668D01*
X-7287609Y3460640D01*
X-7251044Y3497205D01*
X-7199061Y3575003D01*
X-7163254Y3661448D01*
X-7145000Y3753217D01*
X-7145000Y3846783D01*
X-7163254Y3938552D01*
X-7199061Y4024997D01*
X-7251044Y4102795D01*
X-7287609Y4139360D01*
X-7152480Y4195332D01*
X-6990824Y4303347D01*
X-6853347Y4440824D01*
X-6745332Y4602480D01*
X-6670930Y4782103D01*
X-6633000Y4972789D01*
X-6633000Y5011665D01*
X-6588552Y4993254D01*
X-6496783Y4975000D01*
X-6403217Y4975000D01*
X-6311448Y4993254D01*
X-6225003Y5029061D01*
X-6147205Y5081044D01*
X-6081044Y5147205D01*
X-6029061Y5225003D01*
X-5993254Y5311448D01*
X-5975000Y5403217D01*
X-5975000Y5496783D01*
X-5993254Y5588552D01*
X-6029061Y5674997D01*
X-6081044Y5752795D01*
X-6147205Y5818956D01*
X-6225003Y5870939D01*
X-6311448Y5906746D01*
X-6403217Y5925000D01*
X-6496783Y5925000D01*
X-6588552Y5906746D01*
X-6674997Y5870939D01*
X-6752795Y5818956D01*
X-6818956Y5752795D01*
X-6854208Y5700037D01*
X-6990824Y5836653D01*
X-7152480Y5944668D01*
X-7287609Y6000640D01*
X-7251044Y6037205D01*
X-7199061Y6115003D01*
X-7163254Y6201448D01*
X-7145000Y6293217D01*
X-7145000Y6386783D01*
X-7163254Y6478552D01*
X-7199061Y6564997D01*
X-7251044Y6642795D01*
X-7287609Y6679360D01*
X-7152480Y6735332D01*
X-6990824Y6843347D01*
X-6912388Y6921783D01*
X-3725000Y6921783D01*
X-3725000Y6828217D01*
X-3706746Y6736448D01*
X-3670939Y6650003D01*
X-3618956Y6572205D01*
X-3552795Y6506044D01*
X-3474997Y6454061D01*
X-3388552Y6418254D01*
X-3296783Y6400000D01*
X-3259442Y6400000D01*
X-3275000Y6321783D01*
X-3275000Y6228217D01*
X-3256746Y6136448D01*
X-3220939Y6050003D01*
X-3168956Y5972205D01*
X-3102795Y5906044D01*
X-3024997Y5854061D01*
X-2938552Y5818254D01*
X-2846783Y5800000D01*
X-2753217Y5800000D01*
X-2661448Y5818254D01*
X-2575003Y5854061D01*
X-2497205Y5906044D01*
X-2431044Y5972205D01*
X-2379061Y6050003D01*
X-2343254Y6136448D01*
X-2325000Y6228217D01*
X-2325000Y6321783D01*
X-2343254Y6413552D01*
X-2379061Y6499997D01*
X-2431044Y6577795D01*
X-2450032Y6596783D01*
X-1750000Y6596783D01*
X-1750000Y6503217D01*
X-1731746Y6411448D01*
X-1695939Y6325003D01*
X-1643956Y6247205D01*
X-1577795Y6181044D01*
X-1499997Y6129061D01*
X-1413552Y6093254D01*
X-1321783Y6075000D01*
X-1228217Y6075000D01*
X-1136448Y6093254D01*
X-1050003Y6129061D01*
X-972205Y6181044D01*
X-906466Y6246783D01*
X650000Y6246783D01*
X650000Y6153217D01*
X668254Y6061448D01*
X704061Y5975003D01*
X756044Y5897205D01*
X822205Y5831044D01*
X900003Y5779061D01*
X986448Y5743254D01*
X1078217Y5725000D01*
X1171783Y5725000D01*
X1263552Y5743254D01*
X1349997Y5779061D01*
X1427795Y5831044D01*
X1493956Y5897205D01*
X1545939Y5975003D01*
X1581746Y6061448D01*
X1600000Y6153217D01*
X1600000Y6246783D01*
X1581746Y6338552D01*
X1545939Y6424997D01*
X1493956Y6502795D01*
X1427795Y6568956D01*
X1349997Y6620939D01*
X1263552Y6656746D01*
X1171783Y6675000D01*
X1078217Y6675000D01*
X986448Y6656746D01*
X900003Y6620939D01*
X822205Y6568956D01*
X756044Y6502795D01*
X704061Y6424997D01*
X668254Y6338552D01*
X650000Y6246783D01*
X-906466Y6246783D01*
X-906044Y6247205D01*
X-854061Y6325003D01*
X-818254Y6411448D01*
X-800000Y6503217D01*
X-800000Y6596783D01*
X-818254Y6688552D01*
X-854061Y6774997D01*
X-906044Y6852795D01*
X-950032Y6896783D01*
X1850000Y6896783D01*
X1850000Y6803217D01*
X1868254Y6711448D01*
X1904061Y6625003D01*
X1956044Y6547205D01*
X2022205Y6481044D01*
X2049958Y6462500D01*
X2022205Y6443956D01*
X1956044Y6377795D01*
X1904061Y6299997D01*
X1868254Y6213552D01*
X1850000Y6121783D01*
X1850000Y6028217D01*
X1868254Y5936448D01*
X1904061Y5850003D01*
X1956044Y5772205D01*
X2022205Y5706044D01*
X2087373Y5662500D01*
X2022205Y5618956D01*
X1956044Y5552795D01*
X1904061Y5474997D01*
X1868254Y5388552D01*
X1850000Y5296783D01*
X1850000Y5203217D01*
X1868254Y5111448D01*
X1904061Y5025003D01*
X1956044Y4947205D01*
X2022205Y4881044D01*
X2100003Y4829061D01*
X2186448Y4793254D01*
X2278217Y4775000D01*
X2371783Y4775000D01*
X2463552Y4793254D01*
X2472071Y4796783D01*
X4700000Y4796783D01*
X4700000Y4703217D01*
X4718254Y4611448D01*
X4754061Y4525003D01*
X4806044Y4447205D01*
X4872205Y4381044D01*
X4950003Y4329061D01*
X5036448Y4293254D01*
X5128217Y4275000D01*
X5221783Y4275000D01*
X5313552Y4293254D01*
X5399997Y4329061D01*
X5477795Y4381044D01*
X5543956Y4447205D01*
X5595939Y4525003D01*
X5631746Y4611448D01*
X5650000Y4703217D01*
X5650000Y4796783D01*
X5631746Y4888552D01*
X5595939Y4974997D01*
X5543956Y5052795D01*
X5477795Y5118956D01*
X5399997Y5170939D01*
X5313552Y5206746D01*
X5221783Y5225000D01*
X5128217Y5225000D01*
X5036448Y5206746D01*
X4950003Y5170939D01*
X4872205Y5118956D01*
X4806044Y5052795D01*
X4754061Y4974997D01*
X4718254Y4888552D01*
X4700000Y4796783D01*
X2472071Y4796783D01*
X2549997Y4829061D01*
X2627795Y4881044D01*
X2693956Y4947205D01*
X2745939Y5025003D01*
X2781746Y5111448D01*
X2800000Y5203217D01*
X2800000Y5296783D01*
X2781746Y5388552D01*
X2745939Y5474997D01*
X2693956Y5552795D01*
X2627795Y5618956D01*
X2562627Y5662500D01*
X2627795Y5706044D01*
X2693956Y5772205D01*
X2745939Y5850003D01*
X2781746Y5936448D01*
X2800000Y6028217D01*
X2800000Y6121783D01*
X2781746Y6213552D01*
X2745939Y6299997D01*
X2693956Y6377795D01*
X2627795Y6443956D01*
X2600042Y6462500D01*
X2627795Y6481044D01*
X2693956Y6547205D01*
X2745939Y6625003D01*
X2781746Y6711448D01*
X2798720Y6796783D01*
X3925000Y6796783D01*
X3925000Y6703217D01*
X3943254Y6611448D01*
X3979061Y6525003D01*
X4031044Y6447205D01*
X4097205Y6381044D01*
X4175003Y6329061D01*
X4261448Y6293254D01*
X4353217Y6275000D01*
X4446783Y6275000D01*
X4538552Y6293254D01*
X4624997Y6329061D01*
X4702795Y6381044D01*
X4768956Y6447205D01*
X4820939Y6525003D01*
X4856746Y6611448D01*
X4875000Y6703217D01*
X4875000Y6796783D01*
X4856746Y6888552D01*
X4820939Y6974997D01*
X4768956Y7052795D01*
X4702795Y7118956D01*
X4624997Y7170939D01*
X4538552Y7206746D01*
X4446783Y7225000D01*
X4353217Y7225000D01*
X4261448Y7206746D01*
X4175003Y7170939D01*
X4097205Y7118956D01*
X4031044Y7052795D01*
X3979061Y6974997D01*
X3943254Y6888552D01*
X3925000Y6796783D01*
X2798720Y6796783D01*
X2800000Y6803217D01*
X2800000Y6896783D01*
X2781746Y6988552D01*
X2745939Y7074997D01*
X2693956Y7152795D01*
X2649120Y7197631D01*
X2724997Y7229061D01*
X2802795Y7281044D01*
X2868956Y7347205D01*
X2920939Y7425003D01*
X2956746Y7511448D01*
X2975000Y7603217D01*
X2975000Y7696783D01*
X2956746Y7788552D01*
X2920939Y7874997D01*
X2868956Y7952795D01*
X2802795Y8018956D01*
X2724997Y8070939D01*
X2684889Y8087553D01*
X2713552Y8093254D01*
X2799997Y8129061D01*
X2877795Y8181044D01*
X2943956Y8247205D01*
X2995939Y8325003D01*
X3031746Y8411448D01*
X3050000Y8503217D01*
X3050000Y8596783D01*
X3031746Y8688552D01*
X2995939Y8774997D01*
X2943956Y8852795D01*
X2877795Y8918956D01*
X2799997Y8970939D01*
X2713552Y9006746D01*
X2621783Y9025000D01*
X2528217Y9025000D01*
X2436448Y9006746D01*
X2350003Y8970939D01*
X2272205Y8918956D01*
X2206044Y8852795D01*
X2154061Y8774997D01*
X2118254Y8688552D01*
X2100000Y8596783D01*
X2100000Y8503217D01*
X2118254Y8411448D01*
X2154061Y8325003D01*
X2206044Y8247205D01*
X2272205Y8181044D01*
X2350003Y8129061D01*
X2390111Y8112447D01*
X2361448Y8106746D01*
X2275003Y8070939D01*
X2197205Y8018956D01*
X2131044Y7952795D01*
X2079061Y7874997D01*
X2043254Y7788552D01*
X2025000Y7696783D01*
X2025000Y7603217D01*
X2043254Y7511448D01*
X2079061Y7425003D01*
X2131044Y7347205D01*
X2175880Y7302369D01*
X2100003Y7270939D01*
X2022205Y7218956D01*
X1956044Y7152795D01*
X1904061Y7074997D01*
X1868254Y6988552D01*
X1850000Y6896783D01*
X-950032Y6896783D01*
X-972205Y6918956D01*
X-1050003Y6970939D01*
X-1136448Y7006746D01*
X-1228217Y7025000D01*
X-1321783Y7025000D01*
X-1413552Y7006746D01*
X-1499997Y6970939D01*
X-1577795Y6918956D01*
X-1643956Y6852795D01*
X-1695939Y6774997D01*
X-1731746Y6688552D01*
X-1750000Y6596783D01*
X-2450032Y6596783D01*
X-2497205Y6643956D01*
X-2575003Y6695939D01*
X-2661448Y6731746D01*
X-2753217Y6750000D01*
X-2790558Y6750000D01*
X-2775000Y6828217D01*
X-2775000Y6921783D01*
X-2793254Y7013552D01*
X-2829061Y7099997D01*
X-2881044Y7177795D01*
X-2947205Y7243956D01*
X-3025003Y7295939D01*
X-3027040Y7296783D01*
X-2475000Y7296783D01*
X-2475000Y7203217D01*
X-2456746Y7111448D01*
X-2420939Y7025003D01*
X-2368956Y6947205D01*
X-2302795Y6881044D01*
X-2224997Y6829061D01*
X-2138552Y6793254D01*
X-2046783Y6775000D01*
X-1953217Y6775000D01*
X-1861448Y6793254D01*
X-1775003Y6829061D01*
X-1697205Y6881044D01*
X-1631044Y6947205D01*
X-1579061Y7025003D01*
X-1543254Y7111448D01*
X-1525000Y7203217D01*
X-1525000Y7296783D01*
X-1543254Y7388552D01*
X-1579061Y7474997D01*
X-1631044Y7552795D01*
X-1697205Y7618956D01*
X-1775003Y7670939D01*
X-1861448Y7706746D01*
X-1953217Y7725000D01*
X-2046783Y7725000D01*
X-2138552Y7706746D01*
X-2224997Y7670939D01*
X-2302795Y7618956D01*
X-2368956Y7552795D01*
X-2420939Y7474997D01*
X-2456746Y7388552D01*
X-2475000Y7296783D01*
X-3027040Y7296783D01*
X-3111448Y7331746D01*
X-3203217Y7350000D01*
X-3296783Y7350000D01*
X-3388552Y7331746D01*
X-3474997Y7295939D01*
X-3552795Y7243956D01*
X-3618956Y7177795D01*
X-3670939Y7099997D01*
X-3706746Y7013552D01*
X-3725000Y6921783D01*
X-6912388Y6921783D01*
X-6853347Y6980824D01*
X-6745332Y7142480D01*
X-6670930Y7322103D01*
X-6633000Y7512789D01*
X-6633000Y7621783D01*
X-6275000Y7621783D01*
X-6275000Y7528217D01*
X-6256746Y7436448D01*
X-6220939Y7350003D01*
X-6168956Y7272205D01*
X-6102795Y7206044D01*
X-6024997Y7154061D01*
X-5938552Y7118254D01*
X-5846783Y7100000D01*
X-5753217Y7100000D01*
X-5661448Y7118254D01*
X-5575003Y7154061D01*
X-5497205Y7206044D01*
X-5431044Y7272205D01*
X-5379061Y7350003D01*
X-5343254Y7436448D01*
X-5325000Y7528217D01*
X-5325000Y7621783D01*
X-5343254Y7713552D01*
X-5377729Y7796783D01*
X-1275000Y7796783D01*
X-1275000Y7703217D01*
X-1256746Y7611448D01*
X-1220939Y7525003D01*
X-1168956Y7447205D01*
X-1102795Y7381044D01*
X-1024997Y7329061D01*
X-938552Y7293254D01*
X-846783Y7275000D01*
X-753217Y7275000D01*
X-661448Y7293254D01*
X-575003Y7329061D01*
X-497205Y7381044D01*
X-431044Y7447205D01*
X-379061Y7525003D01*
X-343254Y7611448D01*
X-325000Y7703217D01*
X-325000Y7796783D01*
X-343254Y7888552D01*
X-365573Y7942434D01*
X-361448Y7943254D01*
X-275003Y7979061D01*
X-197205Y8031044D01*
X-131044Y8097205D01*
X-79061Y8175003D01*
X-43254Y8261448D01*
X-25000Y8353217D01*
X-25000Y8446783D01*
X-43254Y8538552D01*
X-79061Y8624997D01*
X-131044Y8702795D01*
X-197205Y8768956D01*
X-275003Y8820939D01*
X-361448Y8856746D01*
X-453217Y8875000D01*
X-546783Y8875000D01*
X-638552Y8856746D01*
X-724997Y8820939D01*
X-802795Y8768956D01*
X-868956Y8702795D01*
X-920939Y8624997D01*
X-956746Y8538552D01*
X-975000Y8446783D01*
X-975000Y8353217D01*
X-956746Y8261448D01*
X-934427Y8207566D01*
X-938552Y8206746D01*
X-1024997Y8170939D01*
X-1102795Y8118956D01*
X-1168956Y8052795D01*
X-1220939Y7974997D01*
X-1256746Y7888552D01*
X-1275000Y7796783D01*
X-5377729Y7796783D01*
X-5379061Y7799997D01*
X-5431044Y7877795D01*
X-5497205Y7943956D01*
X-5575003Y7995939D01*
X-5661448Y8031746D01*
X-5753217Y8050000D01*
X-5846783Y8050000D01*
X-5938552Y8031746D01*
X-6024997Y7995939D01*
X-6102795Y7943956D01*
X-6168956Y7877795D01*
X-6220939Y7799997D01*
X-6256746Y7713552D01*
X-6275000Y7621783D01*
X-6633000Y7621783D01*
X-6633000Y7707211D01*
X-6670930Y7897897D01*
X-6745332Y8077520D01*
X-6853347Y8239176D01*
X-6990824Y8376653D01*
X-7152480Y8484668D01*
X-7287609Y8540640D01*
X-7251044Y8577205D01*
X-7199061Y8655003D01*
X-7163254Y8741448D01*
X-7145000Y8833217D01*
X-7145000Y8926783D01*
X-7155374Y8978939D01*
X-1842844Y8978939D01*
X-1842844Y8885373D01*
X-1824590Y8793604D01*
X-1788783Y8707159D01*
X-1736800Y8629361D01*
X-1670639Y8563200D01*
X-1592841Y8511217D01*
X-1506396Y8475410D01*
X-1414627Y8457156D01*
X-1321061Y8457156D01*
X-1229292Y8475410D01*
X-1142847Y8511217D01*
X-1065049Y8563200D01*
X-998888Y8629361D01*
X-946905Y8707159D01*
X-911098Y8793604D01*
X-892844Y8885373D01*
X-892844Y8978939D01*
X-911098Y9070708D01*
X-942609Y9146783D01*
X-250000Y9146783D01*
X-250000Y9053217D01*
X-231746Y8961448D01*
X-195939Y8875003D01*
X-143956Y8797205D01*
X-77795Y8731044D01*
X3Y8679061D01*
X86448Y8643254D01*
X178217Y8625000D01*
X271783Y8625000D01*
X363552Y8643254D01*
X449997Y8679061D01*
X527795Y8731044D01*
X593956Y8797205D01*
X645939Y8875003D01*
X681746Y8961448D01*
X700000Y9053217D01*
X700000Y9096783D01*
X4275000Y9096783D01*
X4275000Y9003217D01*
X4293254Y8911448D01*
X4329061Y8825003D01*
X4381044Y8747205D01*
X4447205Y8681044D01*
X4525003Y8629061D01*
X4611448Y8593254D01*
X4703217Y8575000D01*
X4796783Y8575000D01*
X4888552Y8593254D01*
X4974997Y8629061D01*
X5052795Y8681044D01*
X5118956Y8747205D01*
X5170939Y8825003D01*
X5206746Y8911448D01*
X5225000Y9003217D01*
X5225000Y9096783D01*
X5206746Y9188552D01*
X5170939Y9274997D01*
X5118956Y9352795D01*
X5052795Y9418956D01*
X4974997Y9470939D01*
X4888552Y9506746D01*
X4796783Y9525000D01*
X4703217Y9525000D01*
X4611448Y9506746D01*
X4525003Y9470939D01*
X4447205Y9418956D01*
X4381044Y9352795D01*
X4329061Y9274997D01*
X4293254Y9188552D01*
X4275000Y9096783D01*
X700000Y9096783D01*
X700000Y9146783D01*
X681746Y9238552D01*
X645939Y9324997D01*
X593956Y9402795D01*
X527795Y9468956D01*
X449997Y9520939D01*
X363552Y9556746D01*
X271783Y9575000D01*
X178217Y9575000D01*
X86448Y9556746D01*
X3Y9520939D01*
X-77795Y9468956D01*
X-143956Y9402795D01*
X-195939Y9324997D01*
X-231746Y9238552D01*
X-250000Y9146783D01*
X-942609Y9146783D01*
X-946905Y9157153D01*
X-998888Y9234951D01*
X-1065049Y9301112D01*
X-1142847Y9353095D01*
X-1229292Y9388902D01*
X-1321061Y9407156D01*
X-1414627Y9407156D01*
X-1506396Y9388902D01*
X-1592841Y9353095D01*
X-1670639Y9301112D01*
X-1736800Y9234951D01*
X-1788783Y9157153D01*
X-1824590Y9070708D01*
X-1842844Y8978939D01*
X-7155374Y8978939D01*
X-7163254Y9018552D01*
X-7199061Y9104997D01*
X-7251044Y9182795D01*
X-7287609Y9219360D01*
X-7152480Y9275332D01*
X-6990824Y9383347D01*
X-6853347Y9520824D01*
X-6785889Y9621783D01*
X-2875000Y9621783D01*
X-2875000Y9528217D01*
X-2856746Y9436448D01*
X-2820939Y9350003D01*
X-2768956Y9272205D01*
X-2702795Y9206044D01*
X-2624997Y9154061D01*
X-2538552Y9118254D01*
X-2446783Y9100000D01*
X-2353217Y9100000D01*
X-2261448Y9118254D01*
X-2175003Y9154061D01*
X-2097205Y9206044D01*
X-2031044Y9272205D01*
X-1979061Y9350003D01*
X-1943254Y9436448D01*
X-1925000Y9528217D01*
X-1925000Y9621783D01*
X1925000Y9621783D01*
X1925000Y9528217D01*
X1943254Y9436448D01*
X1979061Y9350003D01*
X2031044Y9272205D01*
X2097205Y9206044D01*
X2175003Y9154061D01*
X2261448Y9118254D01*
X2353217Y9100000D01*
X2446783Y9100000D01*
X2538552Y9118254D01*
X2624997Y9154061D01*
X2702795Y9206044D01*
X2768956Y9272205D01*
X2820939Y9350003D01*
X2856746Y9436448D01*
X2875000Y9528217D01*
X2875000Y9621783D01*
X2856746Y9713552D01*
X2820939Y9799997D01*
X2768956Y9877795D01*
X2702795Y9943956D01*
X2624997Y9995939D01*
X2538552Y10031746D01*
X2446783Y10050000D01*
X2353217Y10050000D01*
X2261448Y10031746D01*
X2175003Y9995939D01*
X2097205Y9943956D01*
X2031044Y9877795D01*
X1979061Y9799997D01*
X1943254Y9713552D01*
X1925000Y9621783D01*
X-1925000Y9621783D01*
X-1943254Y9713552D01*
X-1979061Y9799997D01*
X-2031044Y9877795D01*
X-2097205Y9943956D01*
X-2175003Y9995939D01*
X-2261448Y10031746D01*
X-2353217Y10050000D01*
X-2446783Y10050000D01*
X-2538552Y10031746D01*
X-2624997Y9995939D01*
X-2702795Y9943956D01*
X-2768956Y9877795D01*
X-2820939Y9799997D01*
X-2856746Y9713552D01*
X-2875000Y9621783D01*
X-6785889Y9621783D01*
X-6745332Y9682480D01*
X-6670930Y9862103D01*
X-6633000Y10052789D01*
X-6633000Y10221783D01*
X-5050000Y10221783D01*
X-5050000Y10128217D01*
X-5031746Y10036448D01*
X-4995939Y9950003D01*
X-4943956Y9872205D01*
X-4877795Y9806044D01*
X-4799997Y9754061D01*
X-4713552Y9718254D01*
X-4621783Y9700000D01*
X-4528217Y9700000D01*
X-4436448Y9718254D01*
X-4350003Y9754061D01*
X-4272205Y9806044D01*
X-4206044Y9872205D01*
X-4154061Y9950003D01*
X-4118254Y10036448D01*
X-4100000Y10128217D01*
X-4100000Y10221783D01*
X4100000Y10221783D01*
X4100000Y10128217D01*
X4118254Y10036448D01*
X4154061Y9950003D01*
X4206044Y9872205D01*
X4272205Y9806044D01*
X4350003Y9754061D01*
X4436448Y9718254D01*
X4528217Y9700000D01*
X4621783Y9700000D01*
X4713552Y9718254D01*
X4799997Y9754061D01*
X4877795Y9806044D01*
X4943956Y9872205D01*
X4995939Y9950003D01*
X5031746Y10036448D01*
X5050000Y10128217D01*
X5050000Y10221783D01*
X5031746Y10313552D01*
X4995939Y10399997D01*
X4943956Y10477795D01*
X4877795Y10543956D01*
X4799997Y10595939D01*
X4713552Y10631746D01*
X4621783Y10650000D01*
X4528217Y10650000D01*
X4436448Y10631746D01*
X4350003Y10595939D01*
X4272205Y10543956D01*
X4206044Y10477795D01*
X4154061Y10399997D01*
X4118254Y10313552D01*
X4100000Y10221783D01*
X-4100000Y10221783D01*
X-4118254Y10313552D01*
X-4154061Y10399997D01*
X-4206044Y10477795D01*
X-4272205Y10543956D01*
X-4350003Y10595939D01*
X-4436448Y10631746D01*
X-4528217Y10650000D01*
X-4621783Y10650000D01*
X-4713552Y10631746D01*
X-4799997Y10595939D01*
X-4877795Y10543956D01*
X-4943956Y10477795D01*
X-4995939Y10399997D01*
X-5031746Y10313552D01*
X-5050000Y10221783D01*
X-6633000Y10221783D01*
X-6633000Y10247211D01*
X-6670930Y10437897D01*
X-6745332Y10617520D01*
X-6853347Y10779176D01*
X-6990824Y10916653D01*
X-7152480Y11024668D01*
X-7287609Y11080640D01*
X-7251044Y11117205D01*
X-7199061Y11195003D01*
X-7163254Y11281448D01*
X-7145000Y11373217D01*
X-7145000Y11466783D01*
X-7163254Y11558552D01*
X-7199061Y11644997D01*
X-7251044Y11722795D01*
X-7287609Y11759360D01*
X-7152480Y11815332D01*
X-6990824Y11923347D01*
X-6853347Y12060824D01*
X-6745332Y12222480D01*
X-6670930Y12402103D01*
X-6633000Y12592789D01*
X-6633000Y12787211D01*
X-6670930Y12977897D01*
X-6745332Y13157520D01*
X-6853347Y13319176D01*
X-6990824Y13456653D01*
X-7152480Y13564668D01*
X-7287609Y13620640D01*
X-7251044Y13657205D01*
X-7199061Y13735003D01*
X-7163254Y13821448D01*
X-7145000Y13913217D01*
X-7145000Y14006783D01*
X-7163254Y14098552D01*
X-7199061Y14184997D01*
X-7251044Y14262795D01*
X-7287609Y14299360D01*
X-7152480Y14355332D01*
X-6990824Y14463347D01*
X-6853347Y14600824D01*
X-6745332Y14762480D01*
X-6670930Y14942103D01*
X-6633000Y15132789D01*
X-6633000Y15327211D01*
X-6670930Y15517897D01*
X-6745332Y15697520D01*
X-6853347Y15859176D01*
X-6990824Y15996653D01*
X-7152480Y16104668D01*
X-7332103Y16179070D01*
X-7522789Y16217000D01*
X-7717211Y16217000D01*
X-7907897Y16179070D01*
X-8087520Y16104668D01*
X-8249176Y15996653D01*
X-8386653Y15859176D01*
X-8494668Y15697520D01*
X-8569070Y15517897D01*
X-8607000Y15327211D01*
X-8761231Y15327211D01*
X-8746922Y15473137D01*
X-8682119Y15687775D01*
X-8576860Y15885739D01*
X-8435156Y16059485D01*
X-8262402Y16202399D01*
X-8065181Y16309036D01*
X-7850994Y16375338D01*
X-7616352Y16400000D01*
X-6162624Y16400000D01*
X-6180731Y16377936D01*
%TA.AperFunction,Conductor*%
D17*
G36*
X-6180731Y16377936D02*
G01*
X-6248053Y16251987D01*
X-6289509Y16115324D01*
X-6300000Y16008806D01*
X-6299999Y14737593D01*
X-6289508Y14631075D01*
X-6248052Y14494412D01*
X-6180730Y14368463D01*
X-6090131Y14258068D01*
X-5979736Y14167469D01*
X-5853787Y14100147D01*
X-5717124Y14058691D01*
X-5575000Y14044693D01*
X-5432875Y14058691D01*
X-5296212Y14100147D01*
X-5170263Y14167469D01*
X-5059868Y14258068D01*
X-4969269Y14368463D01*
X-4901947Y14494412D01*
X-4860491Y14631075D01*
X-4850000Y14737593D01*
X-4849999Y12062284D01*
X-4850000Y12062274D01*
X-4850000Y11908807D01*
X-4860491Y12015325D01*
X-4901947Y12151988D01*
X-4969269Y12277937D01*
X-5059869Y12388332D01*
X-5170264Y12478931D01*
X-5296213Y12546253D01*
X-5432876Y12587709D01*
X-5575000Y12601707D01*
X-5717125Y12587709D01*
X-5853788Y12546253D01*
X-5979737Y12478931D01*
X-6090132Y12388331D01*
X-6180731Y12277936D01*
X-6248053Y12151987D01*
X-6289509Y12015324D01*
X-6300000Y11908806D01*
X-6300000Y11037593D01*
X-6289509Y10931075D01*
X-6248052Y10794412D01*
X-6180730Y10668463D01*
X-6090131Y10558068D01*
X-5979736Y10467469D01*
X-5853787Y10400147D01*
X-5717124Y10358691D01*
X-5575000Y10344693D01*
X-5432875Y10358691D01*
X-5296212Y10400147D01*
X-5170263Y10467469D01*
X-5059868Y10558068D01*
X-4969269Y10668463D01*
X-4901947Y10794412D01*
X-4860491Y10931075D01*
X-4850000Y11037593D01*
X-4850000Y11137726D01*
X-4846382Y11100992D01*
X-4832087Y11053866D01*
X-4808873Y11010436D01*
X-4777632Y10972368D01*
X-4739564Y10941127D01*
X-4696134Y10917913D01*
X-4649008Y10903618D01*
X-4612275Y10900000D01*
X-4600000Y10898791D01*
X-4587725Y10900000D01*
X4587725Y10900000D01*
X4600000Y10898791D01*
X4612275Y10900000D01*
X4649008Y10903618D01*
X4696134Y10917913D01*
X4739564Y10941127D01*
X4777632Y10972368D01*
X4808873Y11010436D01*
X4832087Y11053866D01*
X4846382Y11100992D01*
X4850600Y11143817D01*
X4850600Y11037593D01*
X4861091Y10931075D01*
X4902548Y10794412D01*
X4969870Y10668463D01*
X5060469Y10558068D01*
X5170864Y10467469D01*
X5296813Y10400147D01*
X5433476Y10358691D01*
X5575600Y10344693D01*
X5717725Y10358691D01*
X5854388Y10400147D01*
X5980337Y10467469D01*
X6090732Y10558068D01*
X6181331Y10668463D01*
X6248653Y10794412D01*
X6290109Y10931075D01*
X6300600Y11037593D01*
X6300600Y11908807D01*
X6290109Y12015325D01*
X6248653Y12151988D01*
X6181331Y12277937D01*
X6090731Y12388332D01*
X5980336Y12478931D01*
X5854387Y12546253D01*
X5717724Y12587709D01*
X5575600Y12601707D01*
X5433475Y12587709D01*
X5296812Y12546253D01*
X5170863Y12478931D01*
X5060468Y12388331D01*
X4969869Y12277936D01*
X4902547Y12151987D01*
X4861091Y12015324D01*
X4850600Y11908806D01*
X4850600Y11156183D01*
X4850000Y11162275D01*
X4850000Y16400000D01*
X4987976Y16400000D01*
X4969869Y16377936D01*
X4902547Y16251987D01*
X4861091Y16115324D01*
X4850600Y16008806D01*
X4850601Y14737593D01*
X4861092Y14631075D01*
X4902548Y14494412D01*
X4969870Y14368463D01*
X5060469Y14258068D01*
X5170864Y14167469D01*
X5296813Y14100147D01*
X5433476Y14058691D01*
X5575600Y14044693D01*
X5717725Y14058691D01*
X5854388Y14100147D01*
X5980337Y14167469D01*
X6090732Y14258068D01*
X6181331Y14368463D01*
X6248653Y14494412D01*
X6290109Y14631075D01*
X6300600Y14737593D01*
X6300600Y15327211D01*
X6633000Y15327211D01*
X6633000Y15132789D01*
X6670930Y14942103D01*
X6745332Y14762480D01*
X6853347Y14600824D01*
X6990824Y14463347D01*
X7152480Y14355332D01*
X7287609Y14299360D01*
X7251044Y14262795D01*
X7199061Y14184997D01*
X7163254Y14098552D01*
X7145000Y14006783D01*
X7145000Y13913217D01*
X7163254Y13821448D01*
X7199061Y13735003D01*
X7251044Y13657205D01*
X7287609Y13620640D01*
X7152480Y13564668D01*
X6990824Y13456653D01*
X6853347Y13319176D01*
X6745332Y13157520D01*
X6670930Y12977897D01*
X6633000Y12787211D01*
X6633000Y12592789D01*
X6670930Y12402103D01*
X6745332Y12222480D01*
X6853347Y12060824D01*
X6990824Y11923347D01*
X7152480Y11815332D01*
X7287609Y11759360D01*
X7251044Y11722795D01*
X7199061Y11644997D01*
X7163254Y11558552D01*
X7145000Y11466783D01*
X7145000Y11373217D01*
X7163254Y11281448D01*
X7199061Y11195003D01*
X7251044Y11117205D01*
X7287609Y11080640D01*
X7152480Y11024668D01*
X6990824Y10916653D01*
X6853347Y10779176D01*
X6745332Y10617520D01*
X6670930Y10437897D01*
X6633000Y10247211D01*
X6633000Y10052789D01*
X6670930Y9862103D01*
X6745332Y9682480D01*
X6853347Y9520824D01*
X6990824Y9383347D01*
X7152480Y9275332D01*
X7287609Y9219360D01*
X7251044Y9182795D01*
X7199061Y9104997D01*
X7163254Y9018552D01*
X7145000Y8926783D01*
X7145000Y8833217D01*
X7163254Y8741448D01*
X7199061Y8655003D01*
X7251044Y8577205D01*
X7287609Y8540640D01*
X7152480Y8484668D01*
X6990824Y8376653D01*
X6853347Y8239176D01*
X6745332Y8077520D01*
X6670930Y7897897D01*
X6633000Y7707211D01*
X6633000Y7512789D01*
X6670930Y7322103D01*
X6745332Y7142480D01*
X6853347Y6980824D01*
X6990824Y6843347D01*
X7152480Y6735332D01*
X7287609Y6679360D01*
X7251044Y6642795D01*
X7199061Y6564997D01*
X7163254Y6478552D01*
X7145000Y6386783D01*
X7145000Y6293217D01*
X7163254Y6201448D01*
X7199061Y6115003D01*
X7251044Y6037205D01*
X7287609Y6000640D01*
X7152480Y5944668D01*
X6990824Y5836653D01*
X6853347Y5699176D01*
X6745332Y5537520D01*
X6670930Y5357897D01*
X6633000Y5167211D01*
X6633000Y4972789D01*
X6670930Y4782103D01*
X6745332Y4602480D01*
X6853347Y4440824D01*
X6990824Y4303347D01*
X7152480Y4195332D01*
X7287609Y4139360D01*
X7251044Y4102795D01*
X7199061Y4024997D01*
X7163254Y3938552D01*
X7145000Y3846783D01*
X7145000Y3753217D01*
X7163254Y3661448D01*
X7199061Y3575003D01*
X7251044Y3497205D01*
X7287609Y3460640D01*
X7152480Y3404668D01*
X6990824Y3296653D01*
X6853347Y3159176D01*
X6745332Y2997520D01*
X6670930Y2817897D01*
X6633000Y2627211D01*
X6633000Y2432789D01*
X6670930Y2242103D01*
X6745332Y2062480D01*
X6853347Y1900824D01*
X6990824Y1763347D01*
X7152480Y1655332D01*
X7287609Y1599360D01*
X7251044Y1562795D01*
X7199061Y1484997D01*
X7163254Y1398552D01*
X7145000Y1306783D01*
X7145000Y1213217D01*
X7163254Y1121448D01*
X7199061Y1035003D01*
X7251044Y957205D01*
X7287609Y920640D01*
X7152480Y864668D01*
X6990824Y756653D01*
X6853347Y619176D01*
X6745332Y457520D01*
X6670930Y277897D01*
X6633000Y87211D01*
X6633000Y-107211D01*
X6670930Y-297897D01*
X6745332Y-477520D01*
X6853347Y-639176D01*
X6990824Y-776653D01*
X7152480Y-884668D01*
X7287609Y-940640D01*
X7251044Y-977205D01*
X7199061Y-1055003D01*
X7163254Y-1141448D01*
X7145000Y-1233217D01*
X7145000Y-1326783D01*
X7163254Y-1418552D01*
X7199061Y-1504997D01*
X7251044Y-1582795D01*
X7287609Y-1619360D01*
X7152480Y-1675332D01*
X6990824Y-1783347D01*
X6853347Y-1920824D01*
X6745332Y-2082480D01*
X6670930Y-2262103D01*
X6633000Y-2452789D01*
X6633000Y-2647211D01*
X6670930Y-2837897D01*
X6745332Y-3017520D01*
X6853347Y-3179176D01*
X6990824Y-3316653D01*
X7152480Y-3424668D01*
X7287609Y-3480640D01*
X7251044Y-3517205D01*
X7199061Y-3595003D01*
X7163254Y-3681448D01*
X7145000Y-3773217D01*
X7145000Y-3866783D01*
X7163254Y-3958552D01*
X7199061Y-4044997D01*
X7251044Y-4122795D01*
X7287609Y-4159360D01*
X7152480Y-4215332D01*
X6990824Y-4323347D01*
X6853347Y-4460824D01*
X6745332Y-4622480D01*
X6670930Y-4802103D01*
X6633000Y-4992789D01*
X6633000Y-5187211D01*
X6670930Y-5377897D01*
X6745332Y-5557520D01*
X6853347Y-5719176D01*
X6990824Y-5856653D01*
X7152480Y-5964668D01*
X7287609Y-6020640D01*
X7251044Y-6057205D01*
X7199061Y-6135003D01*
X7163254Y-6221448D01*
X7145000Y-6313217D01*
X7145000Y-6406783D01*
X7163254Y-6498552D01*
X7199061Y-6584997D01*
X7251044Y-6662795D01*
X7287609Y-6699360D01*
X7152480Y-6755332D01*
X6990824Y-6863347D01*
X6853347Y-7000824D01*
X6745332Y-7162480D01*
X6670930Y-7342103D01*
X6633000Y-7532789D01*
X6633000Y-7727211D01*
X6670930Y-7917897D01*
X6745332Y-8097520D01*
X6853347Y-8259176D01*
X6990824Y-8396653D01*
X7152480Y-8504668D01*
X7287609Y-8560640D01*
X7251044Y-8597205D01*
X7199061Y-8675003D01*
X7163254Y-8761448D01*
X7145000Y-8853217D01*
X7145000Y-8946783D01*
X7163254Y-9038552D01*
X7199061Y-9124997D01*
X7251044Y-9202795D01*
X7287609Y-9239360D01*
X7152480Y-9295332D01*
X6990824Y-9403347D01*
X6853347Y-9540824D01*
X6745332Y-9702480D01*
X6670930Y-9882103D01*
X6633000Y-10072789D01*
X6633000Y-10267211D01*
X6670930Y-10457897D01*
X6745332Y-10637520D01*
X6853347Y-10799176D01*
X6990824Y-10936653D01*
X7152480Y-11044668D01*
X7332103Y-11119070D01*
X7522789Y-11157000D01*
X7717211Y-11157000D01*
X7907897Y-11119070D01*
X8087520Y-11044668D01*
X8249176Y-10936653D01*
X8386653Y-10799176D01*
X8494668Y-10637520D01*
X8569070Y-10457897D01*
X8607000Y-10267211D01*
X8607000Y-10072789D01*
X8569070Y-9882103D01*
X8494668Y-9702480D01*
X8386653Y-9540824D01*
X8249176Y-9403347D01*
X8087520Y-9295332D01*
X7952391Y-9239360D01*
X7988956Y-9202795D01*
X8040939Y-9124997D01*
X8076746Y-9038552D01*
X8095000Y-8946783D01*
X8095000Y-8853217D01*
X8076746Y-8761448D01*
X8040939Y-8675003D01*
X7988956Y-8597205D01*
X7952391Y-8560640D01*
X8087520Y-8504668D01*
X8249176Y-8396653D01*
X8386653Y-8259176D01*
X8494668Y-8097520D01*
X8569070Y-7917897D01*
X8607000Y-7727211D01*
X8607000Y-7532789D01*
X8569070Y-7342103D01*
X8494668Y-7162480D01*
X8386653Y-7000824D01*
X8249176Y-6863347D01*
X8087520Y-6755332D01*
X7952391Y-6699360D01*
X7988956Y-6662795D01*
X8040939Y-6584997D01*
X8076746Y-6498552D01*
X8095000Y-6406783D01*
X8095000Y-6313217D01*
X8076746Y-6221448D01*
X8040939Y-6135003D01*
X7988956Y-6057205D01*
X7952391Y-6020640D01*
X8087520Y-5964668D01*
X8249176Y-5856653D01*
X8386653Y-5719176D01*
X8494668Y-5557520D01*
X8569070Y-5377897D01*
X8607000Y-5187211D01*
X8607000Y-4992789D01*
X8569070Y-4802103D01*
X8494668Y-4622480D01*
X8386653Y-4460824D01*
X8249176Y-4323347D01*
X8087520Y-4215332D01*
X7952391Y-4159360D01*
X7988956Y-4122795D01*
X8040939Y-4044997D01*
X8076746Y-3958552D01*
X8095000Y-3866783D01*
X8095000Y-3773217D01*
X8076746Y-3681448D01*
X8040939Y-3595003D01*
X7988956Y-3517205D01*
X7952391Y-3480640D01*
X8087520Y-3424668D01*
X8249176Y-3316653D01*
X8386653Y-3179176D01*
X8494668Y-3017520D01*
X8569070Y-2837897D01*
X8607000Y-2647211D01*
X8607000Y-2452789D01*
X8569070Y-2262103D01*
X8494668Y-2082480D01*
X8386653Y-1920824D01*
X8249176Y-1783347D01*
X8087520Y-1675332D01*
X7952391Y-1619360D01*
X7988956Y-1582795D01*
X8040939Y-1504997D01*
X8076746Y-1418552D01*
X8095000Y-1326783D01*
X8095000Y-1233217D01*
X8076746Y-1141448D01*
X8040939Y-1055003D01*
X7988956Y-977205D01*
X7952391Y-940640D01*
X8087520Y-884668D01*
X8249176Y-776653D01*
X8386653Y-639176D01*
X8494668Y-477520D01*
X8569070Y-297897D01*
X8607000Y-107211D01*
X8607000Y87211D01*
X8569070Y277897D01*
X8494668Y457520D01*
X8386653Y619176D01*
X8249176Y756653D01*
X8087520Y864668D01*
X7952391Y920640D01*
X7988956Y957205D01*
X8040939Y1035003D01*
X8076746Y1121448D01*
X8095000Y1213217D01*
X8095000Y1306783D01*
X8076746Y1398552D01*
X8040939Y1484997D01*
X7988956Y1562795D01*
X7952391Y1599360D01*
X8087520Y1655332D01*
X8249176Y1763347D01*
X8386653Y1900824D01*
X8494668Y2062480D01*
X8569070Y2242103D01*
X8607000Y2432789D01*
X8607000Y2627211D01*
X8569070Y2817897D01*
X8494668Y2997520D01*
X8386653Y3159176D01*
X8249176Y3296653D01*
X8087520Y3404668D01*
X7952391Y3460640D01*
X7988956Y3497205D01*
X8040939Y3575003D01*
X8076746Y3661448D01*
X8095000Y3753217D01*
X8095000Y3846783D01*
X8076746Y3938552D01*
X8040939Y4024997D01*
X7988956Y4102795D01*
X7952391Y4139360D01*
X8087520Y4195332D01*
X8249176Y4303347D01*
X8386653Y4440824D01*
X8494668Y4602480D01*
X8569070Y4782103D01*
X8607000Y4972789D01*
X8607000Y5167211D01*
X8569070Y5357897D01*
X8494668Y5537520D01*
X8386653Y5699176D01*
X8249176Y5836653D01*
X8087520Y5944668D01*
X7952391Y6000640D01*
X7988956Y6037205D01*
X8040939Y6115003D01*
X8076746Y6201448D01*
X8095000Y6293217D01*
X8095000Y6386783D01*
X8076746Y6478552D01*
X8040939Y6564997D01*
X7988956Y6642795D01*
X7952391Y6679360D01*
X8087520Y6735332D01*
X8249176Y6843347D01*
X8386653Y6980824D01*
X8494668Y7142480D01*
X8569070Y7322103D01*
X8607000Y7512789D01*
X8607000Y7707211D01*
X8569070Y7897897D01*
X8494668Y8077520D01*
X8386653Y8239176D01*
X8249176Y8376653D01*
X8087520Y8484668D01*
X7952391Y8540640D01*
X7988956Y8577205D01*
X8040939Y8655003D01*
X8076746Y8741448D01*
X8095000Y8833217D01*
X8095000Y8926783D01*
X8076746Y9018552D01*
X8040939Y9104997D01*
X7988956Y9182795D01*
X7952391Y9219360D01*
X8087520Y9275332D01*
X8249176Y9383347D01*
X8386653Y9520824D01*
X8494668Y9682480D01*
X8569070Y9862103D01*
X8607000Y10052789D01*
X8607000Y10247211D01*
X8569070Y10437897D01*
X8494668Y10617520D01*
X8386653Y10779176D01*
X8249176Y10916653D01*
X8087520Y11024668D01*
X7952391Y11080640D01*
X7988956Y11117205D01*
X8040939Y11195003D01*
X8076746Y11281448D01*
X8095000Y11373217D01*
X8095000Y11466783D01*
X8076746Y11558552D01*
X8040939Y11644997D01*
X7988956Y11722795D01*
X7952391Y11759360D01*
X8087520Y11815332D01*
X8249176Y11923347D01*
X8386653Y12060824D01*
X8494668Y12222480D01*
X8569070Y12402103D01*
X8607000Y12592789D01*
X8607000Y12787211D01*
X8569070Y12977897D01*
X8494668Y13157520D01*
X8386653Y13319176D01*
X8249176Y13456653D01*
X8087520Y13564668D01*
X7952391Y13620640D01*
X7988956Y13657205D01*
X8040939Y13735003D01*
X8076746Y13821448D01*
X8095000Y13913217D01*
X8095000Y14006783D01*
X8076746Y14098552D01*
X8040939Y14184997D01*
X7988956Y14262795D01*
X7952391Y14299360D01*
X8087520Y14355332D01*
X8249176Y14463347D01*
X8386653Y14600824D01*
X8494668Y14762480D01*
X8569070Y14942103D01*
X8607000Y15132789D01*
X8607000Y15327211D01*
X8569070Y15517897D01*
X8494668Y15697520D01*
X8386653Y15859176D01*
X8249176Y15996653D01*
X8087520Y16104668D01*
X7907897Y16179070D01*
X7717211Y16217000D01*
X7522789Y16217000D01*
X7332103Y16179070D01*
X7152480Y16104668D01*
X6990824Y15996653D01*
X6853347Y15859176D01*
X6745332Y15697520D01*
X6670930Y15517897D01*
X6633000Y15327211D01*
X6300600Y15327211D01*
X6300600Y16008807D01*
X6290109Y16115325D01*
X6248653Y16251988D01*
X6181331Y16377937D01*
X6163224Y16400000D01*
X7607771Y16400000D01*
X7843137Y16376922D01*
X8057775Y16312119D01*
X8255739Y16206860D01*
X8429485Y16065156D01*
X8572399Y15892402D01*
X8679036Y15695181D01*
X8745338Y15480994D01*
X8770000Y15246352D01*
X8770001Y1987725D01*
X8770086Y1986863D01*
X8770102Y1984563D01*
X8771289Y1973274D01*
X8771289Y1961923D01*
X8771654Y1958451D01*
X8792973Y1768381D01*
X8795000Y1758844D01*
X8795000Y892767D01*
X8793254Y888552D01*
X8775000Y796783D01*
X8775000Y703217D01*
X8793254Y611448D01*
X8795000Y607233D01*
X8795000Y142767D01*
X8793254Y138552D01*
X8775000Y46783D01*
X8775000Y-46783D01*
X8793254Y-138552D01*
X8795000Y-142767D01*
X8795000Y-607233D01*
X8793254Y-611448D01*
X8775000Y-703217D01*
X8775000Y-796783D01*
X8793254Y-888552D01*
X8795000Y-892767D01*
X8795000Y-1759280D01*
X8794935Y-1759610D01*
X8790222Y-1781782D01*
X8789857Y-1785254D01*
X8771193Y-1975604D01*
X8771193Y-1975614D01*
X8770000Y-1987726D01*
X8770001Y-11325000D01*
X5875000Y-11325000D01*
X5875000Y-7500000D01*
X5873559Y-7485368D01*
X5869291Y-7471299D01*
X5862360Y-7458332D01*
X5853033Y-7446967D01*
X5841668Y-7437640D01*
X5828701Y-7430709D01*
X5814632Y-7426441D01*
X5800000Y-7425000D01*
X793750Y-7425000D01*
X802795Y-7418956D01*
X868956Y-7352795D01*
X920939Y-7274997D01*
X956746Y-7188552D01*
X975000Y-7096783D01*
X975000Y-7003217D01*
X956746Y-6911448D01*
X920939Y-6825003D01*
X868956Y-6747205D01*
X802795Y-6681044D01*
X724997Y-6629061D01*
X638552Y-6593254D01*
X546783Y-6575000D01*
X453217Y-6575000D01*
X420675Y-6581473D01*
X406746Y-6511448D01*
X370939Y-6425003D01*
X318956Y-6347205D01*
X274968Y-6303217D01*
X2275000Y-6303217D01*
X2275000Y-6396783D01*
X2293254Y-6488552D01*
X2329061Y-6574997D01*
X2381044Y-6652795D01*
X2447205Y-6718956D01*
X2525003Y-6770939D01*
X2611448Y-6806746D01*
X2703217Y-6825000D01*
X2796783Y-6825000D01*
X2888552Y-6806746D01*
X2974997Y-6770939D01*
X3052795Y-6718956D01*
X3118956Y-6652795D01*
X3170939Y-6574997D01*
X3206746Y-6488552D01*
X3225000Y-6396783D01*
X3225000Y-6303217D01*
X3206746Y-6211448D01*
X3170939Y-6125003D01*
X3118956Y-6047205D01*
X3052795Y-5981044D01*
X2974997Y-5929061D01*
X2888552Y-5893254D01*
X2796783Y-5875000D01*
X2703217Y-5875000D01*
X2611448Y-5893254D01*
X2525003Y-5929061D01*
X2447205Y-5981044D01*
X2381044Y-6047205D01*
X2329061Y-6125003D01*
X2293254Y-6211448D01*
X2275000Y-6303217D01*
X274968Y-6303217D01*
X252795Y-6281044D01*
X174997Y-6229061D01*
X88552Y-6193254D01*
X-3217Y-6175000D01*
X-96783Y-6175000D01*
X-188552Y-6193254D01*
X-274997Y-6229061D01*
X-352795Y-6281044D01*
X-418956Y-6347205D01*
X-470939Y-6425003D01*
X-506746Y-6511448D01*
X-525000Y-6603217D01*
X-525000Y-6696783D01*
X-506746Y-6788552D01*
X-470939Y-6874997D01*
X-418956Y-6952795D01*
X-352795Y-7018956D01*
X-274997Y-7070939D01*
X-188552Y-7106746D01*
X-96783Y-7125000D01*
X-3217Y-7125000D01*
X29325Y-7118527D01*
X43254Y-7188552D01*
X79061Y-7274997D01*
X131044Y-7352795D01*
X197205Y-7418956D01*
X206250Y-7425000D01*
X0Y-7425000D01*
X-14632Y-7426441D01*
X-28701Y-7430709D01*
X-41668Y-7437640D01*
X-53033Y-7446967D01*
X-62360Y-7458332D01*
X-69291Y-7471299D01*
X-73559Y-7485368D01*
X-75000Y-7500000D01*
X-75000Y-9358351D01*
X-111448Y-9343254D01*
X-203217Y-9325000D01*
X-296783Y-9325000D01*
X-388552Y-9343254D01*
X-474997Y-9379061D01*
X-552795Y-9431044D01*
X-618956Y-9497205D01*
X-670939Y-9575003D01*
X-706746Y-9661448D01*
X-725000Y-9753217D01*
X-725000Y-9846783D01*
X-706746Y-9938552D01*
X-698758Y-9957837D01*
X-749997Y-9979061D01*
X-827795Y-10031044D01*
X-893956Y-10097205D01*
X-945939Y-10175003D01*
X-981746Y-10261448D01*
X-1000000Y-10353217D01*
X-1000000Y-10446783D01*
X-981746Y-10538552D01*
X-945939Y-10624997D01*
X-893956Y-10702795D01*
X-827795Y-10768956D01*
X-749997Y-10820939D01*
X-689919Y-10845824D01*
X-706746Y-10886448D01*
X-725000Y-10978217D01*
X-725000Y-11071783D01*
X-706746Y-11163552D01*
X-670939Y-11249997D01*
X-620824Y-11325000D01*
X-8770000Y-11325000D01*
X-8770000Y-1987725D01*
X-8770086Y-1986852D01*
X-8770102Y-1984563D01*
X-8771289Y-1973274D01*
X-8771289Y-1961923D01*
X-8771654Y-1958451D01*
X-8792973Y-1768381D01*
X-8795000Y-1758844D01*
X-8795000Y-892767D01*
X-8793254Y-888552D01*
X-8775000Y-796783D01*
X-8775000Y-703217D01*
X-8793254Y-611448D01*
X-8795000Y-607233D01*
X-8795000Y-142767D01*
X-8793254Y-138552D01*
X-8775000Y-46783D01*
X-8775000Y46783D01*
X-8793254Y138552D01*
X-8795000Y142767D01*
X-8795000Y607233D01*
X-8793254Y611448D01*
X-8775000Y703217D01*
X-8775000Y796783D01*
X-8793254Y888552D01*
X-8795000Y892767D01*
X-8795000Y1759280D01*
X-8794935Y1759610D01*
X-8790222Y1781782D01*
X-8789857Y1785254D01*
X-8771193Y1975604D01*
X-8771193Y1975613D01*
X-8770000Y1987725D01*
X-8770000Y15237771D01*
X-8761231Y15327211D01*
X-8607000Y15327211D01*
X-8607000Y15132789D01*
X-8569070Y14942103D01*
X-8494668Y14762480D01*
X-8386653Y14600824D01*
X-8249176Y14463347D01*
X-8087520Y14355332D01*
X-7952391Y14299360D01*
X-7988956Y14262795D01*
X-8040939Y14184997D01*
X-8076746Y14098552D01*
X-8095000Y14006783D01*
X-8095000Y13913217D01*
X-8076746Y13821448D01*
X-8040939Y13735003D01*
X-7988956Y13657205D01*
X-7952391Y13620640D01*
X-8087520Y13564668D01*
X-8249176Y13456653D01*
X-8386653Y13319176D01*
X-8494668Y13157520D01*
X-8569070Y12977897D01*
X-8607000Y12787211D01*
X-8607000Y12592789D01*
X-8569070Y12402103D01*
X-8494668Y12222480D01*
X-8386653Y12060824D01*
X-8249176Y11923347D01*
X-8087520Y11815332D01*
X-7952391Y11759360D01*
X-7988956Y11722795D01*
X-8040939Y11644997D01*
X-8076746Y11558552D01*
X-8095000Y11466783D01*
X-8095000Y11373217D01*
X-8076746Y11281448D01*
X-8040939Y11195003D01*
X-7988956Y11117205D01*
X-7952391Y11080640D01*
X-8087520Y11024668D01*
X-8249176Y10916653D01*
X-8386653Y10779176D01*
X-8494668Y10617520D01*
X-8569070Y10437897D01*
X-8607000Y10247211D01*
X-8607000Y10052789D01*
X-8569070Y9862103D01*
X-8494668Y9682480D01*
X-8386653Y9520824D01*
X-8249176Y9383347D01*
X-8087520Y9275332D01*
X-7952391Y9219360D01*
X-7988956Y9182795D01*
X-8040939Y9104997D01*
X-8076746Y9018552D01*
X-8095000Y8926783D01*
X-8095000Y8833217D01*
X-8076746Y8741448D01*
X-8040939Y8655003D01*
X-7988956Y8577205D01*
X-7952391Y8540640D01*
X-8087520Y8484668D01*
X-8249176Y8376653D01*
X-8386653Y8239176D01*
X-8494668Y8077520D01*
X-8569070Y7897897D01*
X-8607000Y7707211D01*
X-8607000Y7512789D01*
X-8569070Y7322103D01*
X-8494668Y7142480D01*
X-8386653Y6980824D01*
X-8249176Y6843347D01*
X-8087520Y6735332D01*
X-7952391Y6679360D01*
X-7988956Y6642795D01*
X-8040939Y6564997D01*
X-8076746Y6478552D01*
X-8095000Y6386783D01*
X-8095000Y6293217D01*
X-8076746Y6201448D01*
X-8040939Y6115003D01*
X-7988956Y6037205D01*
X-7952391Y6000640D01*
X-8087520Y5944668D01*
X-8249176Y5836653D01*
X-8386653Y5699176D01*
X-8494668Y5537520D01*
X-8569070Y5357897D01*
X-8607000Y5167211D01*
X-8607000Y4972789D01*
X-8569070Y4782103D01*
X-8494668Y4602480D01*
X-8386653Y4440824D01*
X-8249176Y4303347D01*
X-8087520Y4195332D01*
X-7952391Y4139360D01*
X-7988956Y4102795D01*
X-8040939Y4024997D01*
X-8076746Y3938552D01*
X-8095000Y3846783D01*
X-8095000Y3753217D01*
X-8076746Y3661448D01*
X-8040939Y3575003D01*
X-7988956Y3497205D01*
X-7952391Y3460640D01*
X-8087520Y3404668D01*
X-8249176Y3296653D01*
X-8386653Y3159176D01*
X-8494668Y2997520D01*
X-8569070Y2817897D01*
X-8607000Y2627211D01*
X-8607000Y2432789D01*
X-8569070Y2242103D01*
X-8494668Y2062480D01*
X-8386653Y1900824D01*
X-8249176Y1763347D01*
X-8087520Y1655332D01*
X-7952391Y1599360D01*
X-7988956Y1562795D01*
X-8040939Y1484997D01*
X-8076746Y1398552D01*
X-8095000Y1306783D01*
X-8095000Y1213217D01*
X-8076746Y1121448D01*
X-8040939Y1035003D01*
X-7988956Y957205D01*
X-7952391Y920640D01*
X-8087520Y864668D01*
X-8249176Y756653D01*
X-8386653Y619176D01*
X-8494668Y457520D01*
X-8569070Y277897D01*
X-8607000Y87211D01*
X-8607000Y-107211D01*
X-8569070Y-297897D01*
X-8494668Y-477520D01*
X-8386653Y-639176D01*
X-8249176Y-776653D01*
X-8087520Y-884668D01*
X-7952391Y-940640D01*
X-7988956Y-977205D01*
X-8040939Y-1055003D01*
X-8076746Y-1141448D01*
X-8095000Y-1233217D01*
X-8095000Y-1326783D01*
X-8076746Y-1418552D01*
X-8040939Y-1504997D01*
X-7988956Y-1582795D01*
X-7952391Y-1619360D01*
X-8087520Y-1675332D01*
X-8249176Y-1783347D01*
X-8386653Y-1920824D01*
X-8494668Y-2082480D01*
X-8569070Y-2262103D01*
X-8607000Y-2452789D01*
X-8607000Y-2647211D01*
X-8569070Y-2837897D01*
X-8494668Y-3017520D01*
X-8386653Y-3179176D01*
X-8249176Y-3316653D01*
X-8087520Y-3424668D01*
X-7952391Y-3480640D01*
X-7988956Y-3517205D01*
X-8040939Y-3595003D01*
X-8076746Y-3681448D01*
X-8095000Y-3773217D01*
X-8095000Y-3866783D01*
X-8076746Y-3958552D01*
X-8040939Y-4044997D01*
X-7988956Y-4122795D01*
X-7952391Y-4159360D01*
X-8087520Y-4215332D01*
X-8249176Y-4323347D01*
X-8386653Y-4460824D01*
X-8494668Y-4622480D01*
X-8569070Y-4802103D01*
X-8607000Y-4992789D01*
X-8607000Y-5187211D01*
X-8569070Y-5377897D01*
X-8494668Y-5557520D01*
X-8386653Y-5719176D01*
X-8249176Y-5856653D01*
X-8087520Y-5964668D01*
X-7952391Y-6020640D01*
X-7988956Y-6057205D01*
X-8040939Y-6135003D01*
X-8076746Y-6221448D01*
X-8095000Y-6313217D01*
X-8095000Y-6406783D01*
X-8076746Y-6498552D01*
X-8040939Y-6584997D01*
X-7988956Y-6662795D01*
X-7952391Y-6699360D01*
X-8087520Y-6755332D01*
X-8249176Y-6863347D01*
X-8386653Y-7000824D01*
X-8494668Y-7162480D01*
X-8569070Y-7342103D01*
X-8607000Y-7532789D01*
X-8607000Y-7727211D01*
X-8569070Y-7917897D01*
X-8494668Y-8097520D01*
X-8386653Y-8259176D01*
X-8249176Y-8396653D01*
X-8087520Y-8504668D01*
X-7952391Y-8560640D01*
X-7988956Y-8597205D01*
X-8040939Y-8675003D01*
X-8076746Y-8761448D01*
X-8095000Y-8853217D01*
X-8095000Y-8946783D01*
X-8076746Y-9038552D01*
X-8040939Y-9124997D01*
X-7988956Y-9202795D01*
X-7952391Y-9239360D01*
X-8087520Y-9295332D01*
X-8249176Y-9403347D01*
X-8386653Y-9540824D01*
X-8494668Y-9702480D01*
X-8569070Y-9882103D01*
X-8607000Y-10072789D01*
X-8607000Y-10267211D01*
X-8569070Y-10457897D01*
X-8494668Y-10637520D01*
X-8386653Y-10799176D01*
X-8249176Y-10936653D01*
X-8087520Y-11044668D01*
X-7907897Y-11119070D01*
X-7717211Y-11157000D01*
X-7522789Y-11157000D01*
X-7332103Y-11119070D01*
X-7152480Y-11044668D01*
X-6990824Y-10936653D01*
X-6853347Y-10799176D01*
X-6745332Y-10637520D01*
X-6670930Y-10457897D01*
X-6665027Y-10428217D01*
X-5875000Y-10428217D01*
X-5875000Y-10521783D01*
X-5856746Y-10613552D01*
X-5820939Y-10699997D01*
X-5768956Y-10777795D01*
X-5702795Y-10843956D01*
X-5624997Y-10895939D01*
X-5538552Y-10931746D01*
X-5446783Y-10950000D01*
X-5353217Y-10950000D01*
X-5261448Y-10931746D01*
X-5175003Y-10895939D01*
X-5097205Y-10843956D01*
X-5031044Y-10777795D01*
X-4979061Y-10699997D01*
X-4943254Y-10613552D01*
X-4925000Y-10521783D01*
X-4925000Y-10428217D01*
X-4943254Y-10336448D01*
X-4979061Y-10250003D01*
X-5031044Y-10172205D01*
X-5097205Y-10106044D01*
X-5175003Y-10054061D01*
X-5261448Y-10018254D01*
X-5353217Y-10000000D01*
X-5446783Y-10000000D01*
X-5538552Y-10018254D01*
X-5624997Y-10054061D01*
X-5702795Y-10106044D01*
X-5768956Y-10172205D01*
X-5820939Y-10250003D01*
X-5856746Y-10336448D01*
X-5875000Y-10428217D01*
X-6665027Y-10428217D01*
X-6633000Y-10267211D01*
X-6633000Y-10072789D01*
X-6670930Y-9882103D01*
X-6745332Y-9702480D01*
X-6853347Y-9540824D01*
X-6940954Y-9453217D01*
X-5000000Y-9453217D01*
X-5000000Y-9546783D01*
X-4981746Y-9638552D01*
X-4945939Y-9724997D01*
X-4893956Y-9802795D01*
X-4827795Y-9868956D01*
X-4749997Y-9920939D01*
X-4663552Y-9956746D01*
X-4571783Y-9975000D01*
X-4478217Y-9975000D01*
X-4386448Y-9956746D01*
X-4300003Y-9920939D01*
X-4222205Y-9868956D01*
X-4156044Y-9802795D01*
X-4104061Y-9724997D01*
X-4068254Y-9638552D01*
X-4050000Y-9546783D01*
X-4050000Y-9453217D01*
X-4068254Y-9361448D01*
X-4104061Y-9275003D01*
X-4156044Y-9197205D01*
X-4222205Y-9131044D01*
X-4300003Y-9079061D01*
X-4386448Y-9043254D01*
X-4478217Y-9025000D01*
X-4571783Y-9025000D01*
X-4663552Y-9043254D01*
X-4749997Y-9079061D01*
X-4827795Y-9131044D01*
X-4893956Y-9197205D01*
X-4945939Y-9275003D01*
X-4981746Y-9361448D01*
X-5000000Y-9453217D01*
X-6940954Y-9453217D01*
X-6990824Y-9403347D01*
X-7152480Y-9295332D01*
X-7287609Y-9239360D01*
X-7251044Y-9202795D01*
X-7199061Y-9124997D01*
X-7163254Y-9038552D01*
X-7145000Y-8946783D01*
X-7145000Y-8853217D01*
X-7163254Y-8761448D01*
X-7199061Y-8675003D01*
X-7251044Y-8597205D01*
X-7287609Y-8560640D01*
X-7152480Y-8504668D01*
X-6990824Y-8396653D01*
X-6853347Y-8259176D01*
X-6815957Y-8203217D01*
X-3825000Y-8203217D01*
X-3825000Y-8296783D01*
X-3806746Y-8388552D01*
X-3770939Y-8474997D01*
X-3718956Y-8552795D01*
X-3652795Y-8618956D01*
X-3574997Y-8670939D01*
X-3488552Y-8706746D01*
X-3396783Y-8725000D01*
X-3303217Y-8725000D01*
X-3211448Y-8706746D01*
X-3125003Y-8670939D01*
X-3047205Y-8618956D01*
X-2981044Y-8552795D01*
X-2929061Y-8474997D01*
X-2893254Y-8388552D01*
X-2875000Y-8296783D01*
X-2875000Y-8203217D01*
X-2893254Y-8111448D01*
X-2929061Y-8025003D01*
X-2943617Y-8003217D01*
X-2225000Y-8003217D01*
X-2225000Y-8096783D01*
X-2206746Y-8188552D01*
X-2170939Y-8274997D01*
X-2118956Y-8352795D01*
X-2052795Y-8418956D01*
X-2006334Y-8450000D01*
X-2052795Y-8481044D01*
X-2118956Y-8547205D01*
X-2170939Y-8625003D01*
X-2206746Y-8711448D01*
X-2225000Y-8803217D01*
X-2225000Y-8896783D01*
X-2206746Y-8988552D01*
X-2170939Y-9074997D01*
X-2118956Y-9152795D01*
X-2052795Y-9218956D01*
X-2043750Y-9225000D01*
X-2052795Y-9231044D01*
X-2118956Y-9297205D01*
X-2170939Y-9375003D01*
X-2206746Y-9461448D01*
X-2225000Y-9553217D01*
X-2225000Y-9646783D01*
X-2206746Y-9738552D01*
X-2170939Y-9824997D01*
X-2118956Y-9902795D01*
X-2052795Y-9968956D01*
X-1974997Y-10020939D01*
X-1888552Y-10056746D01*
X-1796783Y-10075000D01*
X-1703217Y-10075000D01*
X-1611448Y-10056746D01*
X-1525003Y-10020939D01*
X-1447205Y-9968956D01*
X-1381044Y-9902795D01*
X-1329061Y-9824997D01*
X-1293254Y-9738552D01*
X-1275000Y-9646783D01*
X-1275000Y-9553217D01*
X-1293254Y-9461448D01*
X-1329061Y-9375003D01*
X-1381044Y-9297205D01*
X-1447205Y-9231044D01*
X-1456250Y-9225000D01*
X-1447205Y-9218956D01*
X-1381044Y-9152795D01*
X-1329061Y-9074997D01*
X-1293254Y-8988552D01*
X-1275000Y-8896783D01*
X-1275000Y-8803217D01*
X-1293254Y-8711448D01*
X-1329061Y-8625003D01*
X-1381044Y-8547205D01*
X-1447205Y-8481044D01*
X-1493666Y-8450000D01*
X-1447205Y-8418956D01*
X-1381044Y-8352795D01*
X-1329061Y-8274997D01*
X-1293254Y-8188552D01*
X-1275000Y-8096783D01*
X-1275000Y-8003217D01*
X-1293254Y-7911448D01*
X-1329061Y-7825003D01*
X-1381044Y-7747205D01*
X-1447205Y-7681044D01*
X-1525003Y-7629061D01*
X-1611448Y-7593254D01*
X-1703217Y-7575000D01*
X-1796783Y-7575000D01*
X-1888552Y-7593254D01*
X-1974997Y-7629061D01*
X-2052795Y-7681044D01*
X-2118956Y-7747205D01*
X-2170939Y-7825003D01*
X-2206746Y-7911448D01*
X-2225000Y-8003217D01*
X-2943617Y-8003217D01*
X-2981044Y-7947205D01*
X-3047205Y-7881044D01*
X-3125003Y-7829061D01*
X-3211448Y-7793254D01*
X-3303217Y-7775000D01*
X-3396783Y-7775000D01*
X-3488552Y-7793254D01*
X-3574997Y-7829061D01*
X-3652795Y-7881044D01*
X-3718956Y-7947205D01*
X-3770939Y-8025003D01*
X-3806746Y-8111448D01*
X-3825000Y-8203217D01*
X-6815957Y-8203217D01*
X-6745332Y-8097520D01*
X-6670930Y-7917897D01*
X-6633000Y-7727211D01*
X-6633000Y-7678217D01*
X-5535000Y-7678217D01*
X-5535000Y-7771783D01*
X-5516746Y-7863552D01*
X-5480939Y-7949997D01*
X-5428956Y-8027795D01*
X-5362795Y-8093956D01*
X-5284997Y-8145939D01*
X-5198552Y-8181746D01*
X-5106783Y-8200000D01*
X-5013217Y-8200000D01*
X-4921448Y-8181746D01*
X-4835003Y-8145939D01*
X-4757205Y-8093956D01*
X-4691044Y-8027795D01*
X-4639061Y-7949997D01*
X-4603254Y-7863552D01*
X-4585000Y-7771783D01*
X-4585000Y-7678217D01*
X-4603254Y-7586448D01*
X-4639061Y-7500003D01*
X-4691044Y-7422205D01*
X-4757205Y-7356044D01*
X-4835003Y-7304061D01*
X-4921448Y-7268254D01*
X-5013217Y-7250000D01*
X-5106783Y-7250000D01*
X-5198552Y-7268254D01*
X-5284997Y-7304061D01*
X-5362795Y-7356044D01*
X-5428956Y-7422205D01*
X-5480939Y-7500003D01*
X-5516746Y-7586448D01*
X-5535000Y-7678217D01*
X-6633000Y-7678217D01*
X-6633000Y-7532789D01*
X-6670930Y-7342103D01*
X-6745332Y-7162480D01*
X-6853347Y-7000824D01*
X-6990824Y-6863347D01*
X-7152480Y-6755332D01*
X-7287609Y-6699360D01*
X-7251044Y-6662795D01*
X-7199061Y-6584997D01*
X-7163254Y-6498552D01*
X-7145000Y-6406783D01*
X-7145000Y-6313217D01*
X-7163254Y-6221448D01*
X-7199061Y-6135003D01*
X-7251044Y-6057205D01*
X-7287609Y-6020640D01*
X-7152480Y-5964668D01*
X-6990824Y-5856653D01*
X-6853347Y-5719176D01*
X-6745332Y-5557520D01*
X-6702129Y-5453217D01*
X-4300000Y-5453217D01*
X-4300000Y-5546783D01*
X-4281746Y-5638552D01*
X-4245939Y-5724997D01*
X-4193956Y-5802795D01*
X-4127795Y-5868956D01*
X-4049997Y-5920939D01*
X-3963552Y-5956746D01*
X-3871783Y-5975000D01*
X-3778217Y-5975000D01*
X-3686448Y-5956746D01*
X-3600003Y-5920939D01*
X-3522205Y-5868956D01*
X-3456044Y-5802795D01*
X-3404061Y-5724997D01*
X-3368254Y-5638552D01*
X-3350000Y-5546783D01*
X-3350000Y-5453217D01*
X-3368254Y-5361448D01*
X-3404061Y-5275003D01*
X-3456044Y-5197205D01*
X-3492457Y-5160792D01*
X-1737500Y-5160792D01*
X-1737500Y-5264208D01*
X-1717324Y-5365637D01*
X-1677749Y-5461181D01*
X-1620294Y-5547168D01*
X-1547168Y-5620294D01*
X-1461181Y-5677749D01*
X-1365637Y-5717324D01*
X-1264208Y-5737500D01*
X-1160792Y-5737500D01*
X-1059363Y-5717324D01*
X-963819Y-5677749D01*
X-877832Y-5620294D01*
X-804706Y-5547168D01*
X-747251Y-5461181D01*
X-707676Y-5365637D01*
X-687500Y-5264208D01*
X-687500Y-5160792D01*
X-525000Y-5160792D01*
X-525000Y-5264208D01*
X-504824Y-5365637D01*
X-465249Y-5461181D01*
X-407794Y-5547168D01*
X-334668Y-5620294D01*
X-248681Y-5677749D01*
X-153137Y-5717324D01*
X-51708Y-5737500D01*
X51708Y-5737500D01*
X153137Y-5717324D01*
X248681Y-5677749D01*
X334668Y-5620294D01*
X407794Y-5547168D01*
X465249Y-5461181D01*
X504824Y-5365637D01*
X525000Y-5264208D01*
X525000Y-5160792D01*
X687500Y-5160792D01*
X687500Y-5264208D01*
X707676Y-5365637D01*
X747251Y-5461181D01*
X804706Y-5547168D01*
X877832Y-5620294D01*
X963819Y-5677749D01*
X1059363Y-5717324D01*
X1160792Y-5737500D01*
X1264208Y-5737500D01*
X1365637Y-5717324D01*
X1461181Y-5677749D01*
X1547168Y-5620294D01*
X1620294Y-5547168D01*
X1677749Y-5461181D01*
X1717324Y-5365637D01*
X1737500Y-5264208D01*
X1737500Y-5160792D01*
X1717324Y-5059363D01*
X1677749Y-4963819D01*
X1620294Y-4877832D01*
X1547168Y-4804706D01*
X1461181Y-4747251D01*
X1365637Y-4707676D01*
X1264208Y-4687500D01*
X1160792Y-4687500D01*
X1059363Y-4707676D01*
X963819Y-4747251D01*
X877832Y-4804706D01*
X804706Y-4877832D01*
X747251Y-4963819D01*
X707676Y-5059363D01*
X687500Y-5160792D01*
X525000Y-5160792D01*
X504824Y-5059363D01*
X465249Y-4963819D01*
X407794Y-4877832D01*
X334668Y-4804706D01*
X248681Y-4747251D01*
X153137Y-4707676D01*
X51708Y-4687500D01*
X-51708Y-4687500D01*
X-153137Y-4707676D01*
X-248681Y-4747251D01*
X-334668Y-4804706D01*
X-407794Y-4877832D01*
X-465249Y-4963819D01*
X-504824Y-5059363D01*
X-525000Y-5160792D01*
X-687500Y-5160792D01*
X-707676Y-5059363D01*
X-747251Y-4963819D01*
X-804706Y-4877832D01*
X-877832Y-4804706D01*
X-963819Y-4747251D01*
X-1059363Y-4707676D01*
X-1160792Y-4687500D01*
X-1264208Y-4687500D01*
X-1365637Y-4707676D01*
X-1461181Y-4747251D01*
X-1547168Y-4804706D01*
X-1620294Y-4877832D01*
X-1677749Y-4963819D01*
X-1717324Y-5059363D01*
X-1737500Y-5160792D01*
X-3492457Y-5160792D01*
X-3522205Y-5131044D01*
X-3600003Y-5079061D01*
X-3686448Y-5043254D01*
X-3778217Y-5025000D01*
X-3871783Y-5025000D01*
X-3963552Y-5043254D01*
X-4049997Y-5079061D01*
X-4127795Y-5131044D01*
X-4193956Y-5197205D01*
X-4245939Y-5275003D01*
X-4281746Y-5361448D01*
X-4300000Y-5453217D01*
X-6702129Y-5453217D01*
X-6670930Y-5377897D01*
X-6633000Y-5187211D01*
X-6633000Y-4992789D01*
X-6670930Y-4802103D01*
X-6722245Y-4678217D01*
X3300000Y-4678217D01*
X3300000Y-4771783D01*
X3318254Y-4863552D01*
X3354061Y-4949997D01*
X3406044Y-5027795D01*
X3472205Y-5093956D01*
X3550003Y-5145939D01*
X3636448Y-5181746D01*
X3728217Y-5200000D01*
X3636448Y-5218254D01*
X3550003Y-5254061D01*
X3472205Y-5306044D01*
X3406044Y-5372205D01*
X3354061Y-5450003D01*
X3318254Y-5536448D01*
X3300000Y-5628217D01*
X3300000Y-5721783D01*
X3318254Y-5813552D01*
X3354061Y-5899997D01*
X3406044Y-5977795D01*
X3472205Y-6043956D01*
X3550003Y-6095939D01*
X3636448Y-6131746D01*
X3728217Y-6150000D01*
X3821783Y-6150000D01*
X3913552Y-6131746D01*
X3999997Y-6095939D01*
X4077795Y-6043956D01*
X4143956Y-5977795D01*
X4195939Y-5899997D01*
X4231746Y-5813552D01*
X4250000Y-5721783D01*
X4250000Y-5628217D01*
X4231746Y-5536448D01*
X4195939Y-5450003D01*
X4143956Y-5372205D01*
X4077795Y-5306044D01*
X3999997Y-5254061D01*
X3913552Y-5218254D01*
X3821783Y-5200000D01*
X3913552Y-5181746D01*
X3999997Y-5145939D01*
X4077795Y-5093956D01*
X4143956Y-5027795D01*
X4195939Y-4949997D01*
X4231746Y-4863552D01*
X4250000Y-4771783D01*
X4250000Y-4678217D01*
X4231746Y-4586448D01*
X4195939Y-4500003D01*
X4143956Y-4422205D01*
X4077795Y-4356044D01*
X3999997Y-4304061D01*
X3913552Y-4268254D01*
X3821783Y-4250000D01*
X3728217Y-4250000D01*
X3636448Y-4268254D01*
X3550003Y-4304061D01*
X3472205Y-4356044D01*
X3406044Y-4422205D01*
X3354061Y-4500003D01*
X3318254Y-4586448D01*
X3300000Y-4678217D01*
X-6722245Y-4678217D01*
X-6745332Y-4622480D01*
X-6853347Y-4460824D01*
X-6990824Y-4323347D01*
X-7152480Y-4215332D01*
X-7287609Y-4159360D01*
X-7251044Y-4122795D01*
X-7199061Y-4044997D01*
X-7171400Y-3978217D01*
X-6350000Y-3978217D01*
X-6350000Y-4071783D01*
X-6331746Y-4163552D01*
X-6295939Y-4249997D01*
X-6243956Y-4327795D01*
X-6177795Y-4393956D01*
X-6099997Y-4445939D01*
X-6013552Y-4481746D01*
X-5921783Y-4500000D01*
X-5828217Y-4500000D01*
X-5736448Y-4481746D01*
X-5650003Y-4445939D01*
X-5572205Y-4393956D01*
X-5506044Y-4327795D01*
X-5454061Y-4249997D01*
X-5418254Y-4163552D01*
X-5400000Y-4071783D01*
X-5400000Y-3978217D01*
X-5405952Y-3948292D01*
X-1737500Y-3948292D01*
X-1737500Y-4051708D01*
X-1717324Y-4153137D01*
X-1677749Y-4248681D01*
X-1620294Y-4334668D01*
X-1547168Y-4407794D01*
X-1461181Y-4465249D01*
X-1365637Y-4504824D01*
X-1264208Y-4525000D01*
X-1160792Y-4525000D01*
X-1059363Y-4504824D01*
X-963819Y-4465249D01*
X-877832Y-4407794D01*
X-804706Y-4334668D01*
X-747251Y-4248681D01*
X-707676Y-4153137D01*
X-687500Y-4051708D01*
X-687500Y-3948292D01*
X-525000Y-3948292D01*
X-525000Y-4051708D01*
X-504824Y-4153137D01*
X-465249Y-4248681D01*
X-407794Y-4334668D01*
X-334668Y-4407794D01*
X-248681Y-4465249D01*
X-153137Y-4504824D01*
X-51708Y-4525000D01*
X51708Y-4525000D01*
X153137Y-4504824D01*
X248681Y-4465249D01*
X334668Y-4407794D01*
X407794Y-4334668D01*
X465249Y-4248681D01*
X504824Y-4153137D01*
X525000Y-4051708D01*
X525000Y-3948292D01*
X687500Y-3948292D01*
X687500Y-4051708D01*
X707676Y-4153137D01*
X747251Y-4248681D01*
X804706Y-4334668D01*
X877832Y-4407794D01*
X963819Y-4465249D01*
X1059363Y-4504824D01*
X1160792Y-4525000D01*
X1264208Y-4525000D01*
X1365637Y-4504824D01*
X1461181Y-4465249D01*
X1547168Y-4407794D01*
X1620294Y-4334668D01*
X1677749Y-4248681D01*
X1717324Y-4153137D01*
X1737500Y-4051708D01*
X1737500Y-3948292D01*
X1717324Y-3846863D01*
X1677749Y-3751319D01*
X1620294Y-3665332D01*
X1547168Y-3592206D01*
X1461181Y-3534751D01*
X1365637Y-3495176D01*
X1264208Y-3475000D01*
X1160792Y-3475000D01*
X1059363Y-3495176D01*
X963819Y-3534751D01*
X877832Y-3592206D01*
X804706Y-3665332D01*
X747251Y-3751319D01*
X707676Y-3846863D01*
X687500Y-3948292D01*
X525000Y-3948292D01*
X504824Y-3846863D01*
X465249Y-3751319D01*
X407794Y-3665332D01*
X334668Y-3592206D01*
X248681Y-3534751D01*
X153137Y-3495176D01*
X51708Y-3475000D01*
X-51708Y-3475000D01*
X-153137Y-3495176D01*
X-248681Y-3534751D01*
X-334668Y-3592206D01*
X-407794Y-3665332D01*
X-465249Y-3751319D01*
X-504824Y-3846863D01*
X-525000Y-3948292D01*
X-687500Y-3948292D01*
X-707676Y-3846863D01*
X-747251Y-3751319D01*
X-804706Y-3665332D01*
X-877832Y-3592206D01*
X-963819Y-3534751D01*
X-1059363Y-3495176D01*
X-1160792Y-3475000D01*
X-1264208Y-3475000D01*
X-1365637Y-3495176D01*
X-1461181Y-3534751D01*
X-1547168Y-3592206D01*
X-1620294Y-3665332D01*
X-1677749Y-3751319D01*
X-1717324Y-3846863D01*
X-1737500Y-3948292D01*
X-5405952Y-3948292D01*
X-5418254Y-3886448D01*
X-5454061Y-3800003D01*
X-5506044Y-3722205D01*
X-5572205Y-3656044D01*
X-5650003Y-3604061D01*
X-5736448Y-3568254D01*
X-5828217Y-3550000D01*
X-5921783Y-3550000D01*
X-6013552Y-3568254D01*
X-6099997Y-3604061D01*
X-6177795Y-3656044D01*
X-6243956Y-3722205D01*
X-6295939Y-3800003D01*
X-6331746Y-3886448D01*
X-6350000Y-3978217D01*
X-7171400Y-3978217D01*
X-7163254Y-3958552D01*
X-7145000Y-3866783D01*
X-7145000Y-3773217D01*
X-7163254Y-3681448D01*
X-7199061Y-3595003D01*
X-7251044Y-3517205D01*
X-7287609Y-3480640D01*
X-7152480Y-3424668D01*
X-6990824Y-3316653D01*
X-6853347Y-3179176D01*
X-6745332Y-3017520D01*
X-6670930Y-2837897D01*
X-6633000Y-2647211D01*
X-6633000Y-2452789D01*
X-6670930Y-2262103D01*
X-6745332Y-2082480D01*
X-6853347Y-1920824D01*
X-6870954Y-1903217D01*
X-5125000Y-1903217D01*
X-5125000Y-1996783D01*
X-5106746Y-2088552D01*
X-5070939Y-2174997D01*
X-5018956Y-2252795D01*
X-4996751Y-2275000D01*
X-5018956Y-2297205D01*
X-5070939Y-2375003D01*
X-5106746Y-2461448D01*
X-5125000Y-2553217D01*
X-5125000Y-2646783D01*
X-5106746Y-2738552D01*
X-5070939Y-2824997D01*
X-5018956Y-2902795D01*
X-4952795Y-2968956D01*
X-4874997Y-3020939D01*
X-4788552Y-3056746D01*
X-4696783Y-3075000D01*
X-4603217Y-3075000D01*
X-4511448Y-3056746D01*
X-4425003Y-3020939D01*
X-4361066Y-2978217D01*
X-4200000Y-2978217D01*
X-4200000Y-3071783D01*
X-4181746Y-3163552D01*
X-4145939Y-3249997D01*
X-4093956Y-3327795D01*
X-4027795Y-3393956D01*
X-3949997Y-3445939D01*
X-3863552Y-3481746D01*
X-3771783Y-3500000D01*
X-3678217Y-3500000D01*
X-3586448Y-3481746D01*
X-3500003Y-3445939D01*
X-3422205Y-3393956D01*
X-3356044Y-3327795D01*
X-3304061Y-3249997D01*
X-3268254Y-3163552D01*
X-3250000Y-3071783D01*
X-3250000Y-2978217D01*
X-3268254Y-2886448D01*
X-3304061Y-2800003D01*
X-3356044Y-2722205D01*
X-3375032Y-2703217D01*
X-2975000Y-2703217D01*
X-2975000Y-2796783D01*
X-2956746Y-2888552D01*
X-2920939Y-2974997D01*
X-2868956Y-3052795D01*
X-2802795Y-3118956D01*
X-2724997Y-3170939D01*
X-2638552Y-3206746D01*
X-2546783Y-3225000D01*
X-2453217Y-3225000D01*
X-2361448Y-3206746D01*
X-2275003Y-3170939D01*
X-2197205Y-3118956D01*
X-2131044Y-3052795D01*
X-2079061Y-2974997D01*
X-2043254Y-2888552D01*
X-2025000Y-2796783D01*
X-2025000Y-2735792D01*
X-1737500Y-2735792D01*
X-1737500Y-2839208D01*
X-1717324Y-2940637D01*
X-1677749Y-3036181D01*
X-1620294Y-3122168D01*
X-1547168Y-3195294D01*
X-1461181Y-3252749D01*
X-1365637Y-3292324D01*
X-1264208Y-3312500D01*
X-1160792Y-3312500D01*
X-1059363Y-3292324D01*
X-963819Y-3252749D01*
X-877832Y-3195294D01*
X-804706Y-3122168D01*
X-747251Y-3036181D01*
X-707676Y-2940637D01*
X-687500Y-2839208D01*
X-687500Y-2735792D01*
X-525000Y-2735792D01*
X-525000Y-2839208D01*
X-504824Y-2940637D01*
X-465249Y-3036181D01*
X-407794Y-3122168D01*
X-334668Y-3195294D01*
X-248681Y-3252749D01*
X-153137Y-3292324D01*
X-51708Y-3312500D01*
X51708Y-3312500D01*
X153137Y-3292324D01*
X248681Y-3252749D01*
X334668Y-3195294D01*
X407794Y-3122168D01*
X465249Y-3036181D01*
X504824Y-2940637D01*
X525000Y-2839208D01*
X525000Y-2735792D01*
X687500Y-2735792D01*
X687500Y-2839208D01*
X707676Y-2940637D01*
X747251Y-3036181D01*
X804706Y-3122168D01*
X877832Y-3195294D01*
X963819Y-3252749D01*
X1059363Y-3292324D01*
X1160792Y-3312500D01*
X1264208Y-3312500D01*
X1365637Y-3292324D01*
X1461181Y-3252749D01*
X1547168Y-3195294D01*
X1620294Y-3122168D01*
X1677749Y-3036181D01*
X1717324Y-2940637D01*
X1737500Y-2839208D01*
X1737500Y-2735792D01*
X1717324Y-2634363D01*
X1677749Y-2538819D01*
X1620294Y-2452832D01*
X1547168Y-2379706D01*
X1522491Y-2363217D01*
X4215000Y-2363217D01*
X4215000Y-2456783D01*
X4233254Y-2548552D01*
X4269061Y-2634997D01*
X4321044Y-2712795D01*
X4387205Y-2778956D01*
X4465003Y-2830939D01*
X4551448Y-2866746D01*
X4643217Y-2885000D01*
X4736783Y-2885000D01*
X4828552Y-2866746D01*
X4914997Y-2830939D01*
X4992795Y-2778956D01*
X5058956Y-2712795D01*
X5110939Y-2634997D01*
X5146746Y-2548552D01*
X5165000Y-2456783D01*
X5165000Y-2363217D01*
X5146746Y-2271448D01*
X5110939Y-2185003D01*
X5058956Y-2107205D01*
X4992795Y-2041044D01*
X4914997Y-1989061D01*
X4828552Y-1953254D01*
X4736783Y-1935000D01*
X4643217Y-1935000D01*
X4551448Y-1953254D01*
X4465003Y-1989061D01*
X4387205Y-2041044D01*
X4321044Y-2107205D01*
X4269061Y-2185003D01*
X4233254Y-2271448D01*
X4215000Y-2363217D01*
X1522491Y-2363217D01*
X1461181Y-2322251D01*
X1365637Y-2282676D01*
X1264208Y-2262500D01*
X1160792Y-2262500D01*
X1059363Y-2282676D01*
X963819Y-2322251D01*
X877832Y-2379706D01*
X804706Y-2452832D01*
X747251Y-2538819D01*
X707676Y-2634363D01*
X687500Y-2735792D01*
X525000Y-2735792D01*
X504824Y-2634363D01*
X465249Y-2538819D01*
X407794Y-2452832D01*
X334668Y-2379706D01*
X248681Y-2322251D01*
X153137Y-2282676D01*
X51708Y-2262500D01*
X-51708Y-2262500D01*
X-153137Y-2282676D01*
X-248681Y-2322251D01*
X-334668Y-2379706D01*
X-407794Y-2452832D01*
X-465249Y-2538819D01*
X-504824Y-2634363D01*
X-525000Y-2735792D01*
X-687500Y-2735792D01*
X-707676Y-2634363D01*
X-747251Y-2538819D01*
X-804706Y-2452832D01*
X-877832Y-2379706D01*
X-963819Y-2322251D01*
X-1059363Y-2282676D01*
X-1160792Y-2262500D01*
X-1264208Y-2262500D01*
X-1365637Y-2282676D01*
X-1461181Y-2322251D01*
X-1547168Y-2379706D01*
X-1620294Y-2452832D01*
X-1677749Y-2538819D01*
X-1717324Y-2634363D01*
X-1737500Y-2735792D01*
X-2025000Y-2735792D01*
X-2025000Y-2703217D01*
X-2043254Y-2611448D01*
X-2079061Y-2525003D01*
X-2131044Y-2447205D01*
X-2197205Y-2381044D01*
X-2275003Y-2329061D01*
X-2361448Y-2293254D01*
X-2453217Y-2275000D01*
X-2546783Y-2275000D01*
X-2638552Y-2293254D01*
X-2724997Y-2329061D01*
X-2802795Y-2381044D01*
X-2868956Y-2447205D01*
X-2920939Y-2525003D01*
X-2956746Y-2611448D01*
X-2975000Y-2703217D01*
X-3375032Y-2703217D01*
X-3422205Y-2656044D01*
X-3500003Y-2604061D01*
X-3586448Y-2568254D01*
X-3678217Y-2550000D01*
X-3771783Y-2550000D01*
X-3863552Y-2568254D01*
X-3949997Y-2604061D01*
X-4027795Y-2656044D01*
X-4093956Y-2722205D01*
X-4145939Y-2800003D01*
X-4181746Y-2886448D01*
X-4200000Y-2978217D01*
X-4361066Y-2978217D01*
X-4347205Y-2968956D01*
X-4281044Y-2902795D01*
X-4229061Y-2824997D01*
X-4193254Y-2738552D01*
X-4175000Y-2646783D01*
X-4175000Y-2553217D01*
X-4193254Y-2461448D01*
X-4229061Y-2375003D01*
X-4281044Y-2297205D01*
X-4303249Y-2275000D01*
X-4281044Y-2252795D01*
X-4229061Y-2174997D01*
X-4193254Y-2088552D01*
X-4175000Y-1996783D01*
X-4175000Y-1903217D01*
X-4193254Y-1811448D01*
X-4229061Y-1725003D01*
X-4243617Y-1703217D01*
X-1975000Y-1703217D01*
X-1975000Y-1796783D01*
X-1956746Y-1888552D01*
X-1920939Y-1974997D01*
X-1868956Y-2052795D01*
X-1802795Y-2118956D01*
X-1724997Y-2170939D01*
X-1638552Y-2206746D01*
X-1546783Y-2225000D01*
X-1453217Y-2225000D01*
X-1361448Y-2206746D01*
X-1275003Y-2170939D01*
X-1197205Y-2118956D01*
X-1131044Y-2052795D01*
X-1079061Y-1974997D01*
X-1043254Y-1888552D01*
X-1025000Y-1796783D01*
X-1025000Y-1753217D01*
X2825000Y-1753217D01*
X2825000Y-1846783D01*
X2843254Y-1938552D01*
X2879061Y-2024997D01*
X2931044Y-2102795D01*
X2997205Y-2168956D01*
X3075003Y-2220939D01*
X3161448Y-2256746D01*
X3253217Y-2275000D01*
X3346783Y-2275000D01*
X3438552Y-2256746D01*
X3524997Y-2220939D01*
X3602795Y-2168956D01*
X3668956Y-2102795D01*
X3720939Y-2024997D01*
X3756746Y-1938552D01*
X3775000Y-1846783D01*
X3775000Y-1753217D01*
X3756746Y-1661448D01*
X3720939Y-1575003D01*
X3668956Y-1497205D01*
X3602795Y-1431044D01*
X3524997Y-1379061D01*
X3438552Y-1343254D01*
X3346783Y-1325000D01*
X3253217Y-1325000D01*
X3161448Y-1343254D01*
X3075003Y-1379061D01*
X2997205Y-1431044D01*
X2931044Y-1497205D01*
X2879061Y-1575003D01*
X2843254Y-1661448D01*
X2825000Y-1753217D01*
X-1025000Y-1753217D01*
X-1025000Y-1703217D01*
X-1043254Y-1611448D01*
X-1079061Y-1525003D01*
X-1131044Y-1447205D01*
X-1197205Y-1381044D01*
X-1275003Y-1329061D01*
X-1361448Y-1293254D01*
X-1453217Y-1275000D01*
X-1546783Y-1275000D01*
X-1638552Y-1293254D01*
X-1724997Y-1329061D01*
X-1802795Y-1381044D01*
X-1868956Y-1447205D01*
X-1920939Y-1525003D01*
X-1956746Y-1611448D01*
X-1975000Y-1703217D01*
X-4243617Y-1703217D01*
X-4281044Y-1647205D01*
X-4347205Y-1581044D01*
X-4425003Y-1529061D01*
X-4511448Y-1493254D01*
X-4603217Y-1475000D01*
X-4696783Y-1475000D01*
X-4788552Y-1493254D01*
X-4874997Y-1529061D01*
X-4952795Y-1581044D01*
X-5018956Y-1647205D01*
X-5070939Y-1725003D01*
X-5106746Y-1811448D01*
X-5125000Y-1903217D01*
X-6870954Y-1903217D01*
X-6990824Y-1783347D01*
X-7152480Y-1675332D01*
X-7287609Y-1619360D01*
X-7251044Y-1582795D01*
X-7199061Y-1504997D01*
X-7163254Y-1418552D01*
X-7145000Y-1326783D01*
X-7145000Y-1233217D01*
X-7163254Y-1141448D01*
X-7199061Y-1055003D01*
X-7251044Y-977205D01*
X-7287609Y-940640D01*
X-7152480Y-884668D01*
X-6990824Y-776653D01*
X-6853347Y-639176D01*
X-6745332Y-477520D01*
X-6670930Y-297897D01*
X-6667016Y-278217D01*
X-4325000Y-278217D01*
X-4325000Y-371783D01*
X-4306746Y-463552D01*
X-4270939Y-549997D01*
X-4218956Y-627795D01*
X-4152795Y-693956D01*
X-4074997Y-745939D01*
X-3988552Y-781746D01*
X-3896783Y-800000D01*
X-3803217Y-800000D01*
X-3711448Y-781746D01*
X-3625003Y-745939D01*
X-3547205Y-693956D01*
X-3481044Y-627795D01*
X-3429061Y-549997D01*
X-3414862Y-515717D01*
X112500Y-515717D01*
X112500Y-609283D01*
X130754Y-701052D01*
X166561Y-787497D01*
X218544Y-865295D01*
X284705Y-931456D01*
X362503Y-983439D01*
X448948Y-1019246D01*
X540717Y-1037500D01*
X634283Y-1037500D01*
X726052Y-1019246D01*
X812497Y-983439D01*
X890295Y-931456D01*
X943534Y-878217D01*
X4125000Y-878217D01*
X4125000Y-971783D01*
X4143254Y-1063552D01*
X4179061Y-1149997D01*
X4231044Y-1227795D01*
X4297205Y-1293956D01*
X4375003Y-1345939D01*
X4461448Y-1381746D01*
X4553217Y-1400000D01*
X4646783Y-1400000D01*
X4738552Y-1381746D01*
X4824997Y-1345939D01*
X4902795Y-1293956D01*
X4968956Y-1227795D01*
X5020939Y-1149997D01*
X5056746Y-1063552D01*
X5075000Y-971783D01*
X5075000Y-878217D01*
X5056746Y-786448D01*
X5020939Y-700003D01*
X4968956Y-622205D01*
X4902795Y-556044D01*
X4824997Y-504061D01*
X4738552Y-468254D01*
X4646783Y-450000D01*
X4553217Y-450000D01*
X4461448Y-468254D01*
X4375003Y-504061D01*
X4297205Y-556044D01*
X4231044Y-622205D01*
X4179061Y-700003D01*
X4143254Y-786448D01*
X4125000Y-878217D01*
X943534Y-878217D01*
X956456Y-865295D01*
X1008439Y-787497D01*
X1044246Y-701052D01*
X1062500Y-609283D01*
X1062500Y-515717D01*
X1044246Y-423948D01*
X1008439Y-337503D01*
X956456Y-259705D01*
X890295Y-193544D01*
X812497Y-141561D01*
X726052Y-105754D01*
X634283Y-87500D01*
X540717Y-87500D01*
X448948Y-105754D01*
X362503Y-141561D01*
X284705Y-193544D01*
X218544Y-259705D01*
X166561Y-337503D01*
X130754Y-423948D01*
X112500Y-515717D01*
X-3414862Y-515717D01*
X-3393254Y-463552D01*
X-3375000Y-371783D01*
X-3375000Y-278217D01*
X-3393254Y-186448D01*
X-3429061Y-100003D01*
X-3481044Y-22205D01*
X-3547205Y43956D01*
X-3625003Y95939D01*
X-3711448Y131746D01*
X-3803217Y150000D01*
X-3896783Y150000D01*
X-3988552Y131746D01*
X-4074997Y95939D01*
X-4152795Y43956D01*
X-4218956Y-22205D01*
X-4270939Y-100003D01*
X-4306746Y-186448D01*
X-4325000Y-278217D01*
X-6667016Y-278217D01*
X-6633000Y-107211D01*
X-6633000Y87211D01*
X-6670930Y277897D01*
X-6745332Y457520D01*
X-6853347Y619176D01*
X-6990824Y756653D01*
X-7088298Y821783D01*
X-3750000Y821783D01*
X-3750000Y728217D01*
X-3731746Y636448D01*
X-3695939Y550003D01*
X-3643956Y472205D01*
X-3577795Y406044D01*
X-3499997Y354061D01*
X-3413552Y318254D01*
X-3321783Y300000D01*
X-3228217Y300000D01*
X-3136448Y318254D01*
X-3050003Y354061D01*
X-2972205Y406044D01*
X-2906044Y472205D01*
X-2872918Y521783D01*
X-1000000Y521783D01*
X-1000000Y428217D01*
X-981746Y336448D01*
X-945939Y250003D01*
X-893956Y172205D01*
X-827795Y106044D01*
X-749997Y54061D01*
X-663552Y18254D01*
X-571783Y0D01*
X-478217Y0D01*
X-386448Y18254D01*
X-300003Y54061D01*
X-222205Y106044D01*
X-156044Y172205D01*
X-104061Y250003D01*
X-68254Y336448D01*
X-50000Y428217D01*
X-50000Y521783D01*
X-68254Y613552D01*
X-104061Y699997D01*
X-156044Y777795D01*
X-222205Y843956D01*
X-300003Y895939D01*
X-386448Y931746D01*
X-478217Y950000D01*
X-571783Y950000D01*
X-663552Y931746D01*
X-749997Y895939D01*
X-827795Y843956D01*
X-893956Y777795D01*
X-945939Y699997D01*
X-981746Y613552D01*
X-1000000Y521783D01*
X-2872918Y521783D01*
X-2854061Y550003D01*
X-2818254Y636448D01*
X-2800000Y728217D01*
X-2800000Y821783D01*
X-2818254Y913552D01*
X-2854061Y999997D01*
X-2906044Y1077795D01*
X-2972205Y1143956D01*
X-3050003Y1195939D01*
X-3136448Y1231746D01*
X-3228217Y1250000D01*
X-3321783Y1250000D01*
X-3413552Y1231746D01*
X-3499997Y1195939D01*
X-3577795Y1143956D01*
X-3643956Y1077795D01*
X-3695939Y999997D01*
X-3731746Y913552D01*
X-3750000Y821783D01*
X-7088298Y821783D01*
X-7152480Y864668D01*
X-7287609Y920640D01*
X-7251044Y957205D01*
X-7199061Y1035003D01*
X-7163254Y1121448D01*
X-7145000Y1213217D01*
X-7145000Y1306783D01*
X-7163254Y1398552D01*
X-7199061Y1484997D01*
X-7251044Y1562795D01*
X-7285032Y1596783D01*
X-2850000Y1596783D01*
X-2850000Y1503217D01*
X-2831746Y1411448D01*
X-2795939Y1325003D01*
X-2743956Y1247205D01*
X-2677795Y1181044D01*
X-2599997Y1129061D01*
X-2513552Y1093254D01*
X-2421783Y1075000D01*
X-2328217Y1075000D01*
X-2236448Y1093254D01*
X-2150003Y1129061D01*
X-2072205Y1181044D01*
X-2006044Y1247205D01*
X-1954061Y1325003D01*
X-1918254Y1411448D01*
X-1900000Y1503217D01*
X-1900000Y1596783D01*
X-1918254Y1688552D01*
X-1954061Y1774997D01*
X-2006044Y1852795D01*
X-2072205Y1918956D01*
X-2150003Y1970939D01*
X-2236448Y2006746D01*
X-2328217Y2025000D01*
X-2421783Y2025000D01*
X-2513552Y2006746D01*
X-2599997Y1970939D01*
X-2677795Y1918956D01*
X-2743956Y1852795D01*
X-2795939Y1774997D01*
X-2831746Y1688552D01*
X-2850000Y1596783D01*
X-7285032Y1596783D01*
X-7287609Y1599360D01*
X-7152480Y1655332D01*
X-6990824Y1763347D01*
X-6853347Y1900824D01*
X-6745332Y2062480D01*
X-6670930Y2242103D01*
X-6633000Y2432789D01*
X-6633000Y2627211D01*
X-6670930Y2817897D01*
X-6734671Y2971783D01*
X-6525000Y2971783D01*
X-6525000Y2878217D01*
X-6506746Y2786448D01*
X-6470939Y2700003D01*
X-6418956Y2622205D01*
X-6352795Y2556044D01*
X-6274997Y2504061D01*
X-6188552Y2468254D01*
X-6096783Y2450000D01*
X-6003217Y2450000D01*
X-5911448Y2468254D01*
X-5825003Y2504061D01*
X-5747205Y2556044D01*
X-5681044Y2622205D01*
X-5631213Y2696783D01*
X-2850000Y2696783D01*
X-2850000Y2603217D01*
X-2831746Y2511448D01*
X-2795939Y2425003D01*
X-2743956Y2347205D01*
X-2677795Y2281044D01*
X-2599997Y2229061D01*
X-2513552Y2193254D01*
X-2421783Y2175000D01*
X-2328217Y2175000D01*
X-2236448Y2193254D01*
X-2150003Y2229061D01*
X-2072205Y2281044D01*
X-2006044Y2347205D01*
X-1954061Y2425003D01*
X-1918254Y2511448D01*
X-1900000Y2603217D01*
X-1900000Y2696783D01*
X-1918254Y2788552D01*
X-1954061Y2874997D01*
X-2006044Y2952795D01*
X-2039397Y2986148D01*
X-1972205Y3031044D01*
X-1906044Y3097205D01*
X-1854061Y3175003D01*
X-1818254Y3261448D01*
X-1800000Y3353217D01*
X-1800000Y3446783D01*
X-1818254Y3538552D01*
X-1854061Y3624997D01*
X-1906044Y3702795D01*
X-1972205Y3768956D01*
X-2012458Y3795852D01*
X-1997205Y3806044D01*
X-1931044Y3872205D01*
X-1879061Y3950003D01*
X-1843254Y4036448D01*
X-1825000Y4128217D01*
X-1825000Y4221783D01*
X-1843254Y4313552D01*
X-1847995Y4325000D01*
X-500000Y4325000D01*
X-500000Y2275000D01*
X-498559Y2260368D01*
X-494291Y2246299D01*
X-487360Y2233332D01*
X-478033Y2221967D01*
X-466668Y2212640D01*
X-453701Y2205709D01*
X-439632Y2201441D01*
X-425000Y2200000D01*
X4225000Y2200000D01*
X4239632Y2201441D01*
X4253701Y2205709D01*
X4266668Y2212640D01*
X4278033Y2221967D01*
X4287360Y2233332D01*
X4294291Y2246299D01*
X4298559Y2260368D01*
X4300000Y2275000D01*
X4300000Y2550000D01*
X6300000Y2550000D01*
X6314632Y2551441D01*
X6328701Y2555709D01*
X6341668Y2562640D01*
X6353033Y2571967D01*
X6362360Y2583332D01*
X6369291Y2596299D01*
X6373559Y2610368D01*
X6375000Y2625000D01*
X6375000Y3575000D01*
X6373559Y3589632D01*
X6369291Y3603701D01*
X6362360Y3616668D01*
X6353033Y3628033D01*
X6341668Y3637360D01*
X6328701Y3644291D01*
X6314632Y3648559D01*
X6300000Y3650000D01*
X4300000Y3650000D01*
X4300000Y4325000D01*
X4298559Y4339632D01*
X4294291Y4353701D01*
X4287360Y4366668D01*
X4278033Y4378033D01*
X4266668Y4387360D01*
X4253701Y4394291D01*
X4239632Y4398559D01*
X4225000Y4400000D01*
X370824Y4400000D01*
X368956Y4402795D01*
X302795Y4468956D01*
X224997Y4520939D01*
X138552Y4556746D01*
X46783Y4575000D01*
X-46783Y4575000D01*
X-138552Y4556746D01*
X-224997Y4520939D01*
X-302795Y4468956D01*
X-368956Y4402795D01*
X-370824Y4400000D01*
X-425000Y4400000D01*
X-439632Y4398559D01*
X-453701Y4394291D01*
X-466668Y4387360D01*
X-478033Y4378033D01*
X-487360Y4366668D01*
X-494291Y4353701D01*
X-498559Y4339632D01*
X-500000Y4325000D01*
X-1847995Y4325000D01*
X-1879061Y4399997D01*
X-1931044Y4477795D01*
X-1997205Y4543956D01*
X-2075003Y4595939D01*
X-2161448Y4631746D01*
X-2253217Y4650000D01*
X-2346783Y4650000D01*
X-2438552Y4631746D01*
X-2524997Y4595939D01*
X-2602795Y4543956D01*
X-2668956Y4477795D01*
X-2720939Y4399997D01*
X-2756746Y4313552D01*
X-2775000Y4221783D01*
X-2775000Y4128217D01*
X-2756746Y4036448D01*
X-2720939Y3950003D01*
X-2668956Y3872205D01*
X-2602795Y3806044D01*
X-2562542Y3779148D01*
X-2577795Y3768956D01*
X-2643956Y3702795D01*
X-2695939Y3624997D01*
X-2731746Y3538552D01*
X-2750000Y3446783D01*
X-2750000Y3353217D01*
X-2731746Y3261448D01*
X-2695939Y3175003D01*
X-2643956Y3097205D01*
X-2610603Y3063852D01*
X-2677795Y3018956D01*
X-2743956Y2952795D01*
X-2795939Y2874997D01*
X-2831746Y2788552D01*
X-2850000Y2696783D01*
X-5631213Y2696783D01*
X-5629061Y2700003D01*
X-5593254Y2786448D01*
X-5575000Y2878217D01*
X-5575000Y2971783D01*
X-5593254Y3063552D01*
X-5629061Y3149997D01*
X-5681044Y3227795D01*
X-5747205Y3293956D01*
X-5825003Y3345939D01*
X-5911448Y3381746D01*
X-6003217Y3400000D01*
X-6096783Y3400000D01*
X-6188552Y3381746D01*
X-6274997Y3345939D01*
X-6352795Y3293956D01*
X-6418956Y3227795D01*
X-6470939Y3149997D01*
X-6506746Y3063552D01*
X-6525000Y2971783D01*
X-6734671Y2971783D01*
X-6745332Y2997520D01*
X-6853347Y3159176D01*
X-6990824Y3296653D01*
X-7152480Y3404668D01*
X-7287609Y3460640D01*
X-7251044Y3497205D01*
X-7199061Y3575003D01*
X-7163254Y3661448D01*
X-7145000Y3753217D01*
X-7145000Y3846783D01*
X-7163254Y3938552D01*
X-7199061Y4024997D01*
X-7251044Y4102795D01*
X-7287609Y4139360D01*
X-7152480Y4195332D01*
X-6990824Y4303347D01*
X-6853347Y4440824D01*
X-6745332Y4602480D01*
X-6670930Y4782103D01*
X-6633000Y4972789D01*
X-6633000Y5011665D01*
X-6588552Y4993254D01*
X-6496783Y4975000D01*
X-6403217Y4975000D01*
X-6311448Y4993254D01*
X-6225003Y5029061D01*
X-6147205Y5081044D01*
X-6081044Y5147205D01*
X-6029061Y5225003D01*
X-5993254Y5311448D01*
X-5975000Y5403217D01*
X-5975000Y5496783D01*
X-5993254Y5588552D01*
X-6029061Y5674997D01*
X-6081044Y5752795D01*
X-6147205Y5818956D01*
X-6225003Y5870939D01*
X-6311448Y5906746D01*
X-6403217Y5925000D01*
X-6496783Y5925000D01*
X-6588552Y5906746D01*
X-6674997Y5870939D01*
X-6752795Y5818956D01*
X-6818956Y5752795D01*
X-6854208Y5700037D01*
X-6990824Y5836653D01*
X-7152480Y5944668D01*
X-7287609Y6000640D01*
X-7251044Y6037205D01*
X-7199061Y6115003D01*
X-7163254Y6201448D01*
X-7145000Y6293217D01*
X-7145000Y6386783D01*
X-7163254Y6478552D01*
X-7199061Y6564997D01*
X-7251044Y6642795D01*
X-7287609Y6679360D01*
X-7152480Y6735332D01*
X-6990824Y6843347D01*
X-6912388Y6921783D01*
X-3725000Y6921783D01*
X-3725000Y6828217D01*
X-3706746Y6736448D01*
X-3670939Y6650003D01*
X-3618956Y6572205D01*
X-3552795Y6506044D01*
X-3474997Y6454061D01*
X-3388552Y6418254D01*
X-3296783Y6400000D01*
X-3259442Y6400000D01*
X-3275000Y6321783D01*
X-3275000Y6228217D01*
X-3256746Y6136448D01*
X-3220939Y6050003D01*
X-3168956Y5972205D01*
X-3102795Y5906044D01*
X-3024997Y5854061D01*
X-2938552Y5818254D01*
X-2846783Y5800000D01*
X-2753217Y5800000D01*
X-2661448Y5818254D01*
X-2575003Y5854061D01*
X-2497205Y5906044D01*
X-2431044Y5972205D01*
X-2379061Y6050003D01*
X-2343254Y6136448D01*
X-2325000Y6228217D01*
X-2325000Y6321783D01*
X-2343254Y6413552D01*
X-2379061Y6499997D01*
X-2431044Y6577795D01*
X-2450032Y6596783D01*
X-1750000Y6596783D01*
X-1750000Y6503217D01*
X-1731746Y6411448D01*
X-1695939Y6325003D01*
X-1643956Y6247205D01*
X-1577795Y6181044D01*
X-1499997Y6129061D01*
X-1413552Y6093254D01*
X-1321783Y6075000D01*
X-1228217Y6075000D01*
X-1136448Y6093254D01*
X-1050003Y6129061D01*
X-972205Y6181044D01*
X-906466Y6246783D01*
X650000Y6246783D01*
X650000Y6153217D01*
X668254Y6061448D01*
X704061Y5975003D01*
X756044Y5897205D01*
X822205Y5831044D01*
X900003Y5779061D01*
X986448Y5743254D01*
X1078217Y5725000D01*
X1171783Y5725000D01*
X1263552Y5743254D01*
X1349997Y5779061D01*
X1427795Y5831044D01*
X1493956Y5897205D01*
X1545939Y5975003D01*
X1581746Y6061448D01*
X1600000Y6153217D01*
X1600000Y6246783D01*
X1581746Y6338552D01*
X1545939Y6424997D01*
X1493956Y6502795D01*
X1427795Y6568956D01*
X1349997Y6620939D01*
X1263552Y6656746D01*
X1171783Y6675000D01*
X1078217Y6675000D01*
X986448Y6656746D01*
X900003Y6620939D01*
X822205Y6568956D01*
X756044Y6502795D01*
X704061Y6424997D01*
X668254Y6338552D01*
X650000Y6246783D01*
X-906466Y6246783D01*
X-906044Y6247205D01*
X-854061Y6325003D01*
X-818254Y6411448D01*
X-800000Y6503217D01*
X-800000Y6596783D01*
X-818254Y6688552D01*
X-854061Y6774997D01*
X-906044Y6852795D01*
X-950032Y6896783D01*
X1850000Y6896783D01*
X1850000Y6803217D01*
X1868254Y6711448D01*
X1904061Y6625003D01*
X1956044Y6547205D01*
X2022205Y6481044D01*
X2049958Y6462500D01*
X2022205Y6443956D01*
X1956044Y6377795D01*
X1904061Y6299997D01*
X1868254Y6213552D01*
X1850000Y6121783D01*
X1850000Y6028217D01*
X1868254Y5936448D01*
X1904061Y5850003D01*
X1956044Y5772205D01*
X2022205Y5706044D01*
X2087373Y5662500D01*
X2022205Y5618956D01*
X1956044Y5552795D01*
X1904061Y5474997D01*
X1868254Y5388552D01*
X1850000Y5296783D01*
X1850000Y5203217D01*
X1868254Y5111448D01*
X1904061Y5025003D01*
X1956044Y4947205D01*
X2022205Y4881044D01*
X2100003Y4829061D01*
X2186448Y4793254D01*
X2278217Y4775000D01*
X2371783Y4775000D01*
X2463552Y4793254D01*
X2472071Y4796783D01*
X4700000Y4796783D01*
X4700000Y4703217D01*
X4718254Y4611448D01*
X4754061Y4525003D01*
X4806044Y4447205D01*
X4872205Y4381044D01*
X4950003Y4329061D01*
X5036448Y4293254D01*
X5128217Y4275000D01*
X5221783Y4275000D01*
X5313552Y4293254D01*
X5399997Y4329061D01*
X5477795Y4381044D01*
X5543956Y4447205D01*
X5595939Y4525003D01*
X5631746Y4611448D01*
X5650000Y4703217D01*
X5650000Y4796783D01*
X5631746Y4888552D01*
X5595939Y4974997D01*
X5543956Y5052795D01*
X5477795Y5118956D01*
X5399997Y5170939D01*
X5313552Y5206746D01*
X5221783Y5225000D01*
X5128217Y5225000D01*
X5036448Y5206746D01*
X4950003Y5170939D01*
X4872205Y5118956D01*
X4806044Y5052795D01*
X4754061Y4974997D01*
X4718254Y4888552D01*
X4700000Y4796783D01*
X2472071Y4796783D01*
X2549997Y4829061D01*
X2627795Y4881044D01*
X2693956Y4947205D01*
X2745939Y5025003D01*
X2781746Y5111448D01*
X2800000Y5203217D01*
X2800000Y5296783D01*
X2781746Y5388552D01*
X2745939Y5474997D01*
X2693956Y5552795D01*
X2627795Y5618956D01*
X2562627Y5662500D01*
X2627795Y5706044D01*
X2693956Y5772205D01*
X2745939Y5850003D01*
X2781746Y5936448D01*
X2800000Y6028217D01*
X2800000Y6121783D01*
X2781746Y6213552D01*
X2745939Y6299997D01*
X2693956Y6377795D01*
X2627795Y6443956D01*
X2600042Y6462500D01*
X2627795Y6481044D01*
X2693956Y6547205D01*
X2745939Y6625003D01*
X2781746Y6711448D01*
X2798720Y6796783D01*
X3925000Y6796783D01*
X3925000Y6703217D01*
X3943254Y6611448D01*
X3979061Y6525003D01*
X4031044Y6447205D01*
X4097205Y6381044D01*
X4175003Y6329061D01*
X4261448Y6293254D01*
X4353217Y6275000D01*
X4446783Y6275000D01*
X4538552Y6293254D01*
X4624997Y6329061D01*
X4702795Y6381044D01*
X4768956Y6447205D01*
X4820939Y6525003D01*
X4856746Y6611448D01*
X4875000Y6703217D01*
X4875000Y6796783D01*
X4856746Y6888552D01*
X4820939Y6974997D01*
X4768956Y7052795D01*
X4702795Y7118956D01*
X4624997Y7170939D01*
X4538552Y7206746D01*
X4446783Y7225000D01*
X4353217Y7225000D01*
X4261448Y7206746D01*
X4175003Y7170939D01*
X4097205Y7118956D01*
X4031044Y7052795D01*
X3979061Y6974997D01*
X3943254Y6888552D01*
X3925000Y6796783D01*
X2798720Y6796783D01*
X2800000Y6803217D01*
X2800000Y6896783D01*
X2781746Y6988552D01*
X2745939Y7074997D01*
X2693956Y7152795D01*
X2649120Y7197631D01*
X2724997Y7229061D01*
X2802795Y7281044D01*
X2868956Y7347205D01*
X2920939Y7425003D01*
X2956746Y7511448D01*
X2975000Y7603217D01*
X2975000Y7696783D01*
X2956746Y7788552D01*
X2920939Y7874997D01*
X2868956Y7952795D01*
X2802795Y8018956D01*
X2724997Y8070939D01*
X2684889Y8087553D01*
X2713552Y8093254D01*
X2799997Y8129061D01*
X2877795Y8181044D01*
X2943956Y8247205D01*
X2995939Y8325003D01*
X3031746Y8411448D01*
X3050000Y8503217D01*
X3050000Y8596783D01*
X3031746Y8688552D01*
X2995939Y8774997D01*
X2943956Y8852795D01*
X2877795Y8918956D01*
X2799997Y8970939D01*
X2713552Y9006746D01*
X2621783Y9025000D01*
X2528217Y9025000D01*
X2436448Y9006746D01*
X2350003Y8970939D01*
X2272205Y8918956D01*
X2206044Y8852795D01*
X2154061Y8774997D01*
X2118254Y8688552D01*
X2100000Y8596783D01*
X2100000Y8503217D01*
X2118254Y8411448D01*
X2154061Y8325003D01*
X2206044Y8247205D01*
X2272205Y8181044D01*
X2350003Y8129061D01*
X2390111Y8112447D01*
X2361448Y8106746D01*
X2275003Y8070939D01*
X2197205Y8018956D01*
X2131044Y7952795D01*
X2079061Y7874997D01*
X2043254Y7788552D01*
X2025000Y7696783D01*
X2025000Y7603217D01*
X2043254Y7511448D01*
X2079061Y7425003D01*
X2131044Y7347205D01*
X2175880Y7302369D01*
X2100003Y7270939D01*
X2022205Y7218956D01*
X1956044Y7152795D01*
X1904061Y7074997D01*
X1868254Y6988552D01*
X1850000Y6896783D01*
X-950032Y6896783D01*
X-972205Y6918956D01*
X-1050003Y6970939D01*
X-1136448Y7006746D01*
X-1228217Y7025000D01*
X-1321783Y7025000D01*
X-1413552Y7006746D01*
X-1499997Y6970939D01*
X-1577795Y6918956D01*
X-1643956Y6852795D01*
X-1695939Y6774997D01*
X-1731746Y6688552D01*
X-1750000Y6596783D01*
X-2450032Y6596783D01*
X-2497205Y6643956D01*
X-2575003Y6695939D01*
X-2661448Y6731746D01*
X-2753217Y6750000D01*
X-2790558Y6750000D01*
X-2775000Y6828217D01*
X-2775000Y6921783D01*
X-2793254Y7013552D01*
X-2829061Y7099997D01*
X-2881044Y7177795D01*
X-2947205Y7243956D01*
X-3025003Y7295939D01*
X-3027040Y7296783D01*
X-2475000Y7296783D01*
X-2475000Y7203217D01*
X-2456746Y7111448D01*
X-2420939Y7025003D01*
X-2368956Y6947205D01*
X-2302795Y6881044D01*
X-2224997Y6829061D01*
X-2138552Y6793254D01*
X-2046783Y6775000D01*
X-1953217Y6775000D01*
X-1861448Y6793254D01*
X-1775003Y6829061D01*
X-1697205Y6881044D01*
X-1631044Y6947205D01*
X-1579061Y7025003D01*
X-1543254Y7111448D01*
X-1525000Y7203217D01*
X-1525000Y7296783D01*
X-1543254Y7388552D01*
X-1579061Y7474997D01*
X-1631044Y7552795D01*
X-1697205Y7618956D01*
X-1775003Y7670939D01*
X-1861448Y7706746D01*
X-1953217Y7725000D01*
X-2046783Y7725000D01*
X-2138552Y7706746D01*
X-2224997Y7670939D01*
X-2302795Y7618956D01*
X-2368956Y7552795D01*
X-2420939Y7474997D01*
X-2456746Y7388552D01*
X-2475000Y7296783D01*
X-3027040Y7296783D01*
X-3111448Y7331746D01*
X-3203217Y7350000D01*
X-3296783Y7350000D01*
X-3388552Y7331746D01*
X-3474997Y7295939D01*
X-3552795Y7243956D01*
X-3618956Y7177795D01*
X-3670939Y7099997D01*
X-3706746Y7013552D01*
X-3725000Y6921783D01*
X-6912388Y6921783D01*
X-6853347Y6980824D01*
X-6745332Y7142480D01*
X-6670930Y7322103D01*
X-6633000Y7512789D01*
X-6633000Y7621783D01*
X-6275000Y7621783D01*
X-6275000Y7528217D01*
X-6256746Y7436448D01*
X-6220939Y7350003D01*
X-6168956Y7272205D01*
X-6102795Y7206044D01*
X-6024997Y7154061D01*
X-5938552Y7118254D01*
X-5846783Y7100000D01*
X-5753217Y7100000D01*
X-5661448Y7118254D01*
X-5575003Y7154061D01*
X-5497205Y7206044D01*
X-5431044Y7272205D01*
X-5379061Y7350003D01*
X-5343254Y7436448D01*
X-5325000Y7528217D01*
X-5325000Y7621783D01*
X-5343254Y7713552D01*
X-5377729Y7796783D01*
X-1275000Y7796783D01*
X-1275000Y7703217D01*
X-1256746Y7611448D01*
X-1220939Y7525003D01*
X-1168956Y7447205D01*
X-1102795Y7381044D01*
X-1024997Y7329061D01*
X-938552Y7293254D01*
X-846783Y7275000D01*
X-753217Y7275000D01*
X-661448Y7293254D01*
X-575003Y7329061D01*
X-497205Y7381044D01*
X-431044Y7447205D01*
X-379061Y7525003D01*
X-343254Y7611448D01*
X-325000Y7703217D01*
X-325000Y7796783D01*
X-343254Y7888552D01*
X-365573Y7942434D01*
X-361448Y7943254D01*
X-275003Y7979061D01*
X-197205Y8031044D01*
X-131044Y8097205D01*
X-79061Y8175003D01*
X-43254Y8261448D01*
X-25000Y8353217D01*
X-25000Y8446783D01*
X-43254Y8538552D01*
X-79061Y8624997D01*
X-131044Y8702795D01*
X-197205Y8768956D01*
X-275003Y8820939D01*
X-361448Y8856746D01*
X-453217Y8875000D01*
X-546783Y8875000D01*
X-638552Y8856746D01*
X-724997Y8820939D01*
X-802795Y8768956D01*
X-868956Y8702795D01*
X-920939Y8624997D01*
X-956746Y8538552D01*
X-975000Y8446783D01*
X-975000Y8353217D01*
X-956746Y8261448D01*
X-934427Y8207566D01*
X-938552Y8206746D01*
X-1024997Y8170939D01*
X-1102795Y8118956D01*
X-1168956Y8052795D01*
X-1220939Y7974997D01*
X-1256746Y7888552D01*
X-1275000Y7796783D01*
X-5377729Y7796783D01*
X-5379061Y7799997D01*
X-5431044Y7877795D01*
X-5497205Y7943956D01*
X-5575003Y7995939D01*
X-5661448Y8031746D01*
X-5753217Y8050000D01*
X-5846783Y8050000D01*
X-5938552Y8031746D01*
X-6024997Y7995939D01*
X-6102795Y7943956D01*
X-6168956Y7877795D01*
X-6220939Y7799997D01*
X-6256746Y7713552D01*
X-6275000Y7621783D01*
X-6633000Y7621783D01*
X-6633000Y7707211D01*
X-6670930Y7897897D01*
X-6745332Y8077520D01*
X-6853347Y8239176D01*
X-6990824Y8376653D01*
X-7152480Y8484668D01*
X-7287609Y8540640D01*
X-7251044Y8577205D01*
X-7199061Y8655003D01*
X-7163254Y8741448D01*
X-7145000Y8833217D01*
X-7145000Y8926783D01*
X-7155374Y8978939D01*
X-1842844Y8978939D01*
X-1842844Y8885373D01*
X-1824590Y8793604D01*
X-1788783Y8707159D01*
X-1736800Y8629361D01*
X-1670639Y8563200D01*
X-1592841Y8511217D01*
X-1506396Y8475410D01*
X-1414627Y8457156D01*
X-1321061Y8457156D01*
X-1229292Y8475410D01*
X-1142847Y8511217D01*
X-1065049Y8563200D01*
X-998888Y8629361D01*
X-946905Y8707159D01*
X-911098Y8793604D01*
X-892844Y8885373D01*
X-892844Y8978939D01*
X-911098Y9070708D01*
X-942609Y9146783D01*
X-250000Y9146783D01*
X-250000Y9053217D01*
X-231746Y8961448D01*
X-195939Y8875003D01*
X-143956Y8797205D01*
X-77795Y8731044D01*
X3Y8679061D01*
X86448Y8643254D01*
X178217Y8625000D01*
X271783Y8625000D01*
X363552Y8643254D01*
X449997Y8679061D01*
X527795Y8731044D01*
X593956Y8797205D01*
X645939Y8875003D01*
X681746Y8961448D01*
X700000Y9053217D01*
X700000Y9096783D01*
X4275000Y9096783D01*
X4275000Y9003217D01*
X4293254Y8911448D01*
X4329061Y8825003D01*
X4381044Y8747205D01*
X4447205Y8681044D01*
X4525003Y8629061D01*
X4611448Y8593254D01*
X4703217Y8575000D01*
X4796783Y8575000D01*
X4888552Y8593254D01*
X4974997Y8629061D01*
X5052795Y8681044D01*
X5118956Y8747205D01*
X5170939Y8825003D01*
X5206746Y8911448D01*
X5225000Y9003217D01*
X5225000Y9096783D01*
X5206746Y9188552D01*
X5170939Y9274997D01*
X5118956Y9352795D01*
X5052795Y9418956D01*
X4974997Y9470939D01*
X4888552Y9506746D01*
X4796783Y9525000D01*
X4703217Y9525000D01*
X4611448Y9506746D01*
X4525003Y9470939D01*
X4447205Y9418956D01*
X4381044Y9352795D01*
X4329061Y9274997D01*
X4293254Y9188552D01*
X4275000Y9096783D01*
X700000Y9096783D01*
X700000Y9146783D01*
X681746Y9238552D01*
X645939Y9324997D01*
X593956Y9402795D01*
X527795Y9468956D01*
X449997Y9520939D01*
X363552Y9556746D01*
X271783Y9575000D01*
X178217Y9575000D01*
X86448Y9556746D01*
X3Y9520939D01*
X-77795Y9468956D01*
X-143956Y9402795D01*
X-195939Y9324997D01*
X-231746Y9238552D01*
X-250000Y9146783D01*
X-942609Y9146783D01*
X-946905Y9157153D01*
X-998888Y9234951D01*
X-1065049Y9301112D01*
X-1142847Y9353095D01*
X-1229292Y9388902D01*
X-1321061Y9407156D01*
X-1414627Y9407156D01*
X-1506396Y9388902D01*
X-1592841Y9353095D01*
X-1670639Y9301112D01*
X-1736800Y9234951D01*
X-1788783Y9157153D01*
X-1824590Y9070708D01*
X-1842844Y8978939D01*
X-7155374Y8978939D01*
X-7163254Y9018552D01*
X-7199061Y9104997D01*
X-7251044Y9182795D01*
X-7287609Y9219360D01*
X-7152480Y9275332D01*
X-6990824Y9383347D01*
X-6853347Y9520824D01*
X-6785889Y9621783D01*
X-2875000Y9621783D01*
X-2875000Y9528217D01*
X-2856746Y9436448D01*
X-2820939Y9350003D01*
X-2768956Y9272205D01*
X-2702795Y9206044D01*
X-2624997Y9154061D01*
X-2538552Y9118254D01*
X-2446783Y9100000D01*
X-2353217Y9100000D01*
X-2261448Y9118254D01*
X-2175003Y9154061D01*
X-2097205Y9206044D01*
X-2031044Y9272205D01*
X-1979061Y9350003D01*
X-1943254Y9436448D01*
X-1925000Y9528217D01*
X-1925000Y9621783D01*
X1925000Y9621783D01*
X1925000Y9528217D01*
X1943254Y9436448D01*
X1979061Y9350003D01*
X2031044Y9272205D01*
X2097205Y9206044D01*
X2175003Y9154061D01*
X2261448Y9118254D01*
X2353217Y9100000D01*
X2446783Y9100000D01*
X2538552Y9118254D01*
X2624997Y9154061D01*
X2702795Y9206044D01*
X2768956Y9272205D01*
X2820939Y9350003D01*
X2856746Y9436448D01*
X2875000Y9528217D01*
X2875000Y9621783D01*
X2856746Y9713552D01*
X2820939Y9799997D01*
X2768956Y9877795D01*
X2702795Y9943956D01*
X2624997Y9995939D01*
X2538552Y10031746D01*
X2446783Y10050000D01*
X2353217Y10050000D01*
X2261448Y10031746D01*
X2175003Y9995939D01*
X2097205Y9943956D01*
X2031044Y9877795D01*
X1979061Y9799997D01*
X1943254Y9713552D01*
X1925000Y9621783D01*
X-1925000Y9621783D01*
X-1943254Y9713552D01*
X-1979061Y9799997D01*
X-2031044Y9877795D01*
X-2097205Y9943956D01*
X-2175003Y9995939D01*
X-2261448Y10031746D01*
X-2353217Y10050000D01*
X-2446783Y10050000D01*
X-2538552Y10031746D01*
X-2624997Y9995939D01*
X-2702795Y9943956D01*
X-2768956Y9877795D01*
X-2820939Y9799997D01*
X-2856746Y9713552D01*
X-2875000Y9621783D01*
X-6785889Y9621783D01*
X-6745332Y9682480D01*
X-6670930Y9862103D01*
X-6633000Y10052789D01*
X-6633000Y10221783D01*
X-5050000Y10221783D01*
X-5050000Y10128217D01*
X-5031746Y10036448D01*
X-4995939Y9950003D01*
X-4943956Y9872205D01*
X-4877795Y9806044D01*
X-4799997Y9754061D01*
X-4713552Y9718254D01*
X-4621783Y9700000D01*
X-4528217Y9700000D01*
X-4436448Y9718254D01*
X-4350003Y9754061D01*
X-4272205Y9806044D01*
X-4206044Y9872205D01*
X-4154061Y9950003D01*
X-4118254Y10036448D01*
X-4100000Y10128217D01*
X-4100000Y10221783D01*
X4100000Y10221783D01*
X4100000Y10128217D01*
X4118254Y10036448D01*
X4154061Y9950003D01*
X4206044Y9872205D01*
X4272205Y9806044D01*
X4350003Y9754061D01*
X4436448Y9718254D01*
X4528217Y9700000D01*
X4621783Y9700000D01*
X4713552Y9718254D01*
X4799997Y9754061D01*
X4877795Y9806044D01*
X4943956Y9872205D01*
X4995939Y9950003D01*
X5031746Y10036448D01*
X5050000Y10128217D01*
X5050000Y10221783D01*
X5031746Y10313552D01*
X4995939Y10399997D01*
X4943956Y10477795D01*
X4877795Y10543956D01*
X4799997Y10595939D01*
X4713552Y10631746D01*
X4621783Y10650000D01*
X4528217Y10650000D01*
X4436448Y10631746D01*
X4350003Y10595939D01*
X4272205Y10543956D01*
X4206044Y10477795D01*
X4154061Y10399997D01*
X4118254Y10313552D01*
X4100000Y10221783D01*
X-4100000Y10221783D01*
X-4118254Y10313552D01*
X-4154061Y10399997D01*
X-4206044Y10477795D01*
X-4272205Y10543956D01*
X-4350003Y10595939D01*
X-4436448Y10631746D01*
X-4528217Y10650000D01*
X-4621783Y10650000D01*
X-4713552Y10631746D01*
X-4799997Y10595939D01*
X-4877795Y10543956D01*
X-4943956Y10477795D01*
X-4995939Y10399997D01*
X-5031746Y10313552D01*
X-5050000Y10221783D01*
X-6633000Y10221783D01*
X-6633000Y10247211D01*
X-6670930Y10437897D01*
X-6745332Y10617520D01*
X-6853347Y10779176D01*
X-6990824Y10916653D01*
X-7152480Y11024668D01*
X-7287609Y11080640D01*
X-7251044Y11117205D01*
X-7199061Y11195003D01*
X-7163254Y11281448D01*
X-7145000Y11373217D01*
X-7145000Y11466783D01*
X-7163254Y11558552D01*
X-7199061Y11644997D01*
X-7251044Y11722795D01*
X-7287609Y11759360D01*
X-7152480Y11815332D01*
X-6990824Y11923347D01*
X-6853347Y12060824D01*
X-6745332Y12222480D01*
X-6670930Y12402103D01*
X-6633000Y12592789D01*
X-6633000Y12787211D01*
X-6670930Y12977897D01*
X-6745332Y13157520D01*
X-6853347Y13319176D01*
X-6990824Y13456653D01*
X-7152480Y13564668D01*
X-7287609Y13620640D01*
X-7251044Y13657205D01*
X-7199061Y13735003D01*
X-7163254Y13821448D01*
X-7145000Y13913217D01*
X-7145000Y14006783D01*
X-7163254Y14098552D01*
X-7199061Y14184997D01*
X-7251044Y14262795D01*
X-7287609Y14299360D01*
X-7152480Y14355332D01*
X-6990824Y14463347D01*
X-6853347Y14600824D01*
X-6745332Y14762480D01*
X-6670930Y14942103D01*
X-6633000Y15132789D01*
X-6633000Y15327211D01*
X-6670930Y15517897D01*
X-6745332Y15697520D01*
X-6853347Y15859176D01*
X-6990824Y15996653D01*
X-7152480Y16104668D01*
X-7332103Y16179070D01*
X-7522789Y16217000D01*
X-7717211Y16217000D01*
X-7907897Y16179070D01*
X-8087520Y16104668D01*
X-8249176Y15996653D01*
X-8386653Y15859176D01*
X-8494668Y15697520D01*
X-8569070Y15517897D01*
X-8607000Y15327211D01*
X-8761231Y15327211D01*
X-8746922Y15473137D01*
X-8682119Y15687775D01*
X-8576860Y15885739D01*
X-8435156Y16059485D01*
X-8262402Y16202399D01*
X-8065181Y16309036D01*
X-7850994Y16375338D01*
X-7616352Y16400000D01*
X-6162624Y16400000D01*
X-6180731Y16377936D01*
G37*
%TD.AperFunction*%
%TD*%
M02*
