%TF.GenerationSoftware,KiCad,Pcbnew,(5.1.9)-1*%
%TF.CreationDate,2021-01-30T16:38:38+08:00*%
%TF.ProjectId,mikoto,6d696b6f-746f-42e6-9b69-6361645f7063,rev?*%
%TF.SameCoordinates,Original*%
%TF.FileFunction,Soldermask,Top*%
%TF.FilePolarity,Negative*%
%FSLAX46Y46*%
G04 Gerber Fmt 4.6, Leading zero omitted, Abs format (unit mm)*
G04 Created by KiCad (PCBNEW (5.1.9)-1) date 2021-01-30 16:38:38*
%MOMM*%
%LPD*%
G01*
G04 APERTURE LIST*
%ADD10R,0.600000X0.700000*%
%ADD11R,0.510000X0.400000*%
%ADD12R,0.400000X0.510000*%
%ADD13R,1.000000X1.600000*%
%ADD14C,1.524000*%
%ADD15C,0.500000*%
%ADD16R,1.060000X0.650000*%
%ADD17R,1.000000X1.800000*%
%ADD18R,0.800000X0.900000*%
%ADD19R,0.300000X0.800000*%
%ADD20R,0.540000X0.800000*%
%ADD21O,1.000000X1.800000*%
%ADD22O,1.000000X2.200000*%
%ADD23C,0.250000*%
%ADD24R,4.000000X4.000000*%
G04 APERTURE END LIST*
%TO.C,C23*%
G36*
G01*
X-195000Y7130000D02*
X145000Y7130000D01*
G75*
G02*
X285000Y6990000I0J-140000D01*
G01*
X285000Y6710000D01*
G75*
G02*
X145000Y6570000I-140000J0D01*
G01*
X-195000Y6570000D01*
G75*
G02*
X-335000Y6710000I0J140000D01*
G01*
X-335000Y6990000D01*
G75*
G02*
X-195000Y7130000I140000J0D01*
G01*
G37*
G36*
G01*
X-195000Y8090000D02*
X145000Y8090000D01*
G75*
G02*
X285000Y7950000I0J-140000D01*
G01*
X285000Y7670000D01*
G75*
G02*
X145000Y7530000I-140000J0D01*
G01*
X-195000Y7530000D01*
G75*
G02*
X-335000Y7670000I0J140000D01*
G01*
X-335000Y7950000D01*
G75*
G02*
X-195000Y8090000I140000J0D01*
G01*
G37*
%TD*%
%TO.C,D1*%
G36*
G01*
X-5706250Y7270000D02*
X-5193750Y7270000D01*
G75*
G02*
X-4975000Y7051250I0J-218750D01*
G01*
X-4975000Y6613750D01*
G75*
G02*
X-5193750Y6395000I-218750J0D01*
G01*
X-5706250Y6395000D01*
G75*
G02*
X-5925000Y6613750I0J218750D01*
G01*
X-5925000Y7051250D01*
G75*
G02*
X-5706250Y7270000I218750J0D01*
G01*
G37*
G36*
G01*
X-5706250Y8845000D02*
X-5193750Y8845000D01*
G75*
G02*
X-4975000Y8626250I0J-218750D01*
G01*
X-4975000Y8188750D01*
G75*
G02*
X-5193750Y7970000I-218750J0D01*
G01*
X-5706250Y7970000D01*
G75*
G02*
X-5925000Y8188750I0J218750D01*
G01*
X-5925000Y8626250D01*
G75*
G02*
X-5706250Y8845000I218750J0D01*
G01*
G37*
%TD*%
%TO.C,D3*%
G36*
G01*
X5193750Y7270000D02*
X5706250Y7270000D01*
G75*
G02*
X5925000Y7051250I0J-218750D01*
G01*
X5925000Y6613750D01*
G75*
G02*
X5706250Y6395000I-218750J0D01*
G01*
X5193750Y6395000D01*
G75*
G02*
X4975000Y6613750I0J218750D01*
G01*
X4975000Y7051250D01*
G75*
G02*
X5193750Y7270000I218750J0D01*
G01*
G37*
G36*
G01*
X5193750Y8845000D02*
X5706250Y8845000D01*
G75*
G02*
X5925000Y8626250I0J-218750D01*
G01*
X5925000Y8188750D01*
G75*
G02*
X5706250Y7970000I-218750J0D01*
G01*
X5193750Y7970000D01*
G75*
G02*
X4975000Y8188750I0J218750D01*
G01*
X4975000Y8626250D01*
G75*
G02*
X5193750Y8845000I218750J0D01*
G01*
G37*
%TD*%
D10*
%TO.C,D2*%
X-1600000Y3875000D03*
X-3000000Y3875000D03*
%TD*%
%TO.C,D4*%
X-1600000Y4825000D03*
X-3000000Y4825000D03*
%TD*%
D11*
%TO.C,Q1*%
X5810000Y5845000D03*
X4520000Y5345000D03*
X5810000Y4845000D03*
%TD*%
D12*
%TO.C,Q2*%
X-2375000Y7825000D03*
X-1875000Y6535000D03*
X-1375000Y7825000D03*
%TD*%
%TO.C,Q3*%
X-4475000Y6190000D03*
X-3975000Y4900000D03*
X-3475000Y6190000D03*
%TD*%
D13*
%TO.C,U3*%
X-2375000Y2100000D03*
G36*
G01*
X-3075000Y1556250D02*
X-3075000Y1343750D01*
G75*
G02*
X-3168750Y1250000I-93750J0D01*
G01*
X-3356250Y1250000D01*
G75*
G02*
X-3450000Y1343750I0J93750D01*
G01*
X-3450000Y1556250D01*
G75*
G02*
X-3356250Y1650000I93750J0D01*
G01*
X-3168750Y1650000D01*
G75*
G02*
X-3075000Y1556250I0J-93750D01*
G01*
G37*
G36*
G01*
X-3075000Y2206250D02*
X-3075000Y1993750D01*
G75*
G02*
X-3168750Y1900000I-93750J0D01*
G01*
X-3356250Y1900000D01*
G75*
G02*
X-3450000Y1993750I0J93750D01*
G01*
X-3450000Y2206250D01*
G75*
G02*
X-3356250Y2300000I93750J0D01*
G01*
X-3168750Y2300000D01*
G75*
G02*
X-3075000Y2206250I0J-93750D01*
G01*
G37*
G36*
G01*
X-3075000Y2856250D02*
X-3075000Y2643750D01*
G75*
G02*
X-3168750Y2550000I-93750J0D01*
G01*
X-3356250Y2550000D01*
G75*
G02*
X-3450000Y2643750I0J93750D01*
G01*
X-3450000Y2856250D01*
G75*
G02*
X-3356250Y2950000I93750J0D01*
G01*
X-3168750Y2950000D01*
G75*
G02*
X-3075000Y2856250I0J-93750D01*
G01*
G37*
G36*
G01*
X-1300000Y2856250D02*
X-1300000Y2643750D01*
G75*
G02*
X-1393750Y2550000I-93750J0D01*
G01*
X-1581250Y2550000D01*
G75*
G02*
X-1675000Y2643750I0J93750D01*
G01*
X-1675000Y2856250D01*
G75*
G02*
X-1581250Y2950000I93750J0D01*
G01*
X-1393750Y2950000D01*
G75*
G02*
X-1300000Y2856250I0J-93750D01*
G01*
G37*
G36*
G01*
X-1300000Y2206250D02*
X-1300000Y1993750D01*
G75*
G02*
X-1393750Y1900000I-93750J0D01*
G01*
X-1581250Y1900000D01*
G75*
G02*
X-1675000Y1993750I0J93750D01*
G01*
X-1675000Y2206250D01*
G75*
G02*
X-1581250Y2300000I93750J0D01*
G01*
X-1393750Y2300000D01*
G75*
G02*
X-1300000Y2206250I0J-93750D01*
G01*
G37*
G36*
G01*
X-1300000Y1556250D02*
X-1300000Y1343750D01*
G75*
G02*
X-1393750Y1250000I-93750J0D01*
G01*
X-1581250Y1250000D01*
G75*
G02*
X-1675000Y1343750I0J93750D01*
G01*
X-1675000Y1556250D01*
G75*
G02*
X-1581250Y1650000I93750J0D01*
G01*
X-1393750Y1650000D01*
G75*
G02*
X-1300000Y1556250I0J-93750D01*
G01*
G37*
%TD*%
D14*
%TO.C,U4*%
X7620000Y12690000D03*
X7620000Y10150000D03*
X7620000Y7610000D03*
X7620000Y5070000D03*
X7620000Y2530000D03*
X7620000Y-10000D03*
X7620000Y-2550000D03*
X7620000Y-5090000D03*
X7620000Y-7630000D03*
X7620000Y-10170000D03*
X7620000Y-12710000D03*
X7620000Y-15250000D03*
X-7620000Y-15250000D03*
X-7620000Y-12710000D03*
X-7620000Y-10170000D03*
X-7620000Y-7630000D03*
X-7620000Y-5090000D03*
X-7620000Y-2550000D03*
X-7620000Y-10000D03*
X-7620000Y2530000D03*
X-7620000Y5070000D03*
X-7620000Y7610000D03*
X-7620000Y10150000D03*
X-7620000Y12690000D03*
%TD*%
%TO.C,R2*%
G36*
G01*
X-4215000Y8140000D02*
X-4585000Y8140000D01*
G75*
G02*
X-4720000Y8275000I0J135000D01*
G01*
X-4720000Y8545000D01*
G75*
G02*
X-4585000Y8680000I135000J0D01*
G01*
X-4215000Y8680000D01*
G75*
G02*
X-4080000Y8545000I0J-135000D01*
G01*
X-4080000Y8275000D01*
G75*
G02*
X-4215000Y8140000I-135000J0D01*
G01*
G37*
G36*
G01*
X-4215000Y7120000D02*
X-4585000Y7120000D01*
G75*
G02*
X-4720000Y7255000I0J135000D01*
G01*
X-4720000Y7525000D01*
G75*
G02*
X-4585000Y7660000I135000J0D01*
G01*
X-4215000Y7660000D01*
G75*
G02*
X-4080000Y7525000I0J-135000D01*
G01*
X-4080000Y7255000D01*
G75*
G02*
X-4215000Y7120000I-135000J0D01*
G01*
G37*
%TD*%
%TO.C,R1*%
G36*
G01*
X5540000Y3865000D02*
X5540000Y4235000D01*
G75*
G02*
X5675000Y4370000I135000J0D01*
G01*
X5945000Y4370000D01*
G75*
G02*
X6080000Y4235000I0J-135000D01*
G01*
X6080000Y3865000D01*
G75*
G02*
X5945000Y3730000I-135000J0D01*
G01*
X5675000Y3730000D01*
G75*
G02*
X5540000Y3865000I0J135000D01*
G01*
G37*
G36*
G01*
X4520000Y3865000D02*
X4520000Y4235000D01*
G75*
G02*
X4655000Y4370000I135000J0D01*
G01*
X4925000Y4370000D01*
G75*
G02*
X5060000Y4235000I0J-135000D01*
G01*
X5060000Y3865000D01*
G75*
G02*
X4925000Y3730000I-135000J0D01*
G01*
X4655000Y3730000D01*
G75*
G02*
X4520000Y3865000I0J135000D01*
G01*
G37*
%TD*%
D15*
%TO.C,DUMMY3*%
X-9250000Y0D03*
X-9250000Y-750000D03*
X-9250000Y750000D03*
%TD*%
%TO.C,DUMMY4*%
X9250000Y0D03*
X9250000Y750000D03*
X9250000Y-750000D03*
%TD*%
%TO.C,C24*%
G36*
G01*
X-1490000Y770000D02*
X-1490000Y430000D01*
G75*
G02*
X-1630000Y290000I-140000J0D01*
G01*
X-1910000Y290000D01*
G75*
G02*
X-2050000Y430000I0J140000D01*
G01*
X-2050000Y770000D01*
G75*
G02*
X-1910000Y910000I140000J0D01*
G01*
X-1630000Y910000D01*
G75*
G02*
X-1490000Y770000I0J-140000D01*
G01*
G37*
G36*
G01*
X-2450000Y770000D02*
X-2450000Y430000D01*
G75*
G02*
X-2590000Y290000I-140000J0D01*
G01*
X-2870000Y290000D01*
G75*
G02*
X-3010000Y430000I0J140000D01*
G01*
X-3010000Y770000D01*
G75*
G02*
X-2870000Y910000I140000J0D01*
G01*
X-2590000Y910000D01*
G75*
G02*
X-2450000Y770000I0J-140000D01*
G01*
G37*
%TD*%
D16*
%TO.C,U2*%
X1125000Y4950000D03*
X1125000Y6850000D03*
X3325000Y6850000D03*
X3325000Y5900000D03*
X3325000Y4950000D03*
%TD*%
D17*
%TO.C,Y2*%
X3600000Y3300000D03*
X1100000Y3300000D03*
%TD*%
D14*
%TO.C,J2*%
X7620000Y15230000D03*
%TD*%
%TO.C,J3*%
X-7620000Y15230000D03*
%TD*%
%TO.C,R11*%
G36*
G01*
X-4225000Y-9075000D02*
X-4775000Y-9075000D01*
G75*
G02*
X-4975000Y-8875000I0J200000D01*
G01*
X-4975000Y-8475000D01*
G75*
G02*
X-4775000Y-8275000I200000J0D01*
G01*
X-4225000Y-8275000D01*
G75*
G02*
X-4025000Y-8475000I0J-200000D01*
G01*
X-4025000Y-8875000D01*
G75*
G02*
X-4225000Y-9075000I-200000J0D01*
G01*
G37*
G36*
G01*
X-4225000Y-10725000D02*
X-4775000Y-10725000D01*
G75*
G02*
X-4975000Y-10525000I0J200000D01*
G01*
X-4975000Y-10125000D01*
G75*
G02*
X-4775000Y-9925000I200000J0D01*
G01*
X-4225000Y-9925000D01*
G75*
G02*
X-4025000Y-10125000I0J-200000D01*
G01*
X-4025000Y-10525000D01*
G75*
G02*
X-4225000Y-10725000I-200000J0D01*
G01*
G37*
%TD*%
%TO.C,C16*%
G36*
G01*
X5800000Y-1200000D02*
X5300000Y-1200000D01*
G75*
G02*
X5075000Y-975000I0J225000D01*
G01*
X5075000Y-525000D01*
G75*
G02*
X5300000Y-300000I225000J0D01*
G01*
X5800000Y-300000D01*
G75*
G02*
X6025000Y-525000I0J-225000D01*
G01*
X6025000Y-975000D01*
G75*
G02*
X5800000Y-1200000I-225000J0D01*
G01*
G37*
G36*
G01*
X5800000Y-2750000D02*
X5300000Y-2750000D01*
G75*
G02*
X5075000Y-2525000I0J225000D01*
G01*
X5075000Y-2075000D01*
G75*
G02*
X5300000Y-1850000I225000J0D01*
G01*
X5800000Y-1850000D01*
G75*
G02*
X6025000Y-2075000I0J-225000D01*
G01*
X6025000Y-2525000D01*
G75*
G02*
X5800000Y-2750000I-225000J0D01*
G01*
G37*
%TD*%
%TO.C,C22*%
G36*
G01*
X3470000Y-10020000D02*
X3130000Y-10020000D01*
G75*
G02*
X2990000Y-9880000I0J140000D01*
G01*
X2990000Y-9600000D01*
G75*
G02*
X3130000Y-9460000I140000J0D01*
G01*
X3470000Y-9460000D01*
G75*
G02*
X3610000Y-9600000I0J-140000D01*
G01*
X3610000Y-9880000D01*
G75*
G02*
X3470000Y-10020000I-140000J0D01*
G01*
G37*
G36*
G01*
X3470000Y-10980000D02*
X3130000Y-10980000D01*
G75*
G02*
X2990000Y-10840000I0J140000D01*
G01*
X2990000Y-10560000D01*
G75*
G02*
X3130000Y-10420000I140000J0D01*
G01*
X3470000Y-10420000D01*
G75*
G02*
X3610000Y-10560000I0J-140000D01*
G01*
X3610000Y-10840000D01*
G75*
G02*
X3470000Y-10980000I-140000J0D01*
G01*
G37*
%TD*%
%TO.C,R4*%
G36*
G01*
X-5760000Y-8405000D02*
X-5390000Y-8405000D01*
G75*
G02*
X-5255000Y-8540000I0J-135000D01*
G01*
X-5255000Y-8810000D01*
G75*
G02*
X-5390000Y-8945000I-135000J0D01*
G01*
X-5760000Y-8945000D01*
G75*
G02*
X-5895000Y-8810000I0J135000D01*
G01*
X-5895000Y-8540000D01*
G75*
G02*
X-5760000Y-8405000I135000J0D01*
G01*
G37*
G36*
G01*
X-5760000Y-9425000D02*
X-5390000Y-9425000D01*
G75*
G02*
X-5255000Y-9560000I0J-135000D01*
G01*
X-5255000Y-9830000D01*
G75*
G02*
X-5390000Y-9965000I-135000J0D01*
G01*
X-5760000Y-9965000D01*
G75*
G02*
X-5895000Y-9830000I0J135000D01*
G01*
X-5895000Y-9560000D01*
G75*
G02*
X-5760000Y-9425000I135000J0D01*
G01*
G37*
%TD*%
%TO.C,R3*%
G36*
G01*
X-3610000Y-9740000D02*
X-3240000Y-9740000D01*
G75*
G02*
X-3105000Y-9875000I0J-135000D01*
G01*
X-3105000Y-10145000D01*
G75*
G02*
X-3240000Y-10280000I-135000J0D01*
G01*
X-3610000Y-10280000D01*
G75*
G02*
X-3745000Y-10145000I0J135000D01*
G01*
X-3745000Y-9875000D01*
G75*
G02*
X-3610000Y-9740000I135000J0D01*
G01*
G37*
G36*
G01*
X-3610000Y-8720000D02*
X-3240000Y-8720000D01*
G75*
G02*
X-3105000Y-8855000I0J-135000D01*
G01*
X-3105000Y-9125000D01*
G75*
G02*
X-3240000Y-9260000I-135000J0D01*
G01*
X-3610000Y-9260000D01*
G75*
G02*
X-3745000Y-9125000I0J135000D01*
G01*
X-3745000Y-8855000D01*
G75*
G02*
X-3610000Y-8720000I135000J0D01*
G01*
G37*
%TD*%
%TO.C,R10*%
G36*
G01*
X-3435000Y7660000D02*
X-3065000Y7660000D01*
G75*
G02*
X-2930000Y7525000I0J-135000D01*
G01*
X-2930000Y7255000D01*
G75*
G02*
X-3065000Y7120000I-135000J0D01*
G01*
X-3435000Y7120000D01*
G75*
G02*
X-3570000Y7255000I0J135000D01*
G01*
X-3570000Y7525000D01*
G75*
G02*
X-3435000Y7660000I135000J0D01*
G01*
G37*
G36*
G01*
X-3435000Y8680000D02*
X-3065000Y8680000D01*
G75*
G02*
X-2930000Y8545000I0J-135000D01*
G01*
X-2930000Y8275000D01*
G75*
G02*
X-3065000Y8140000I-135000J0D01*
G01*
X-3435000Y8140000D01*
G75*
G02*
X-3570000Y8275000I0J135000D01*
G01*
X-3570000Y8545000D01*
G75*
G02*
X-3435000Y8680000I135000J0D01*
G01*
G37*
%TD*%
D18*
%TO.C,Y1*%
X5950000Y-7500000D03*
X5950000Y-6100000D03*
X4850000Y-6100000D03*
X4850000Y-7500000D03*
%TD*%
D19*
%TO.C,J1*%
X-1749700Y10573200D03*
X1250300Y10573200D03*
X250300Y10573200D03*
X-249700Y10573200D03*
X750300Y10573200D03*
X-749700Y10573200D03*
D20*
X-2399700Y10573200D03*
X2400300Y10573200D03*
X3200300Y10573200D03*
X-3199700Y10573200D03*
D21*
X-5575000Y11473200D03*
X5575600Y11473200D03*
D22*
X5575600Y15373200D03*
X-5575000Y15373200D03*
D19*
X-1249700Y10573200D03*
X1758300Y10573200D03*
%TD*%
D23*
%TO.C,U1*%
X-2750000Y-7500000D03*
X-2250000Y-7500000D03*
X-1750000Y-7500000D03*
X-1250000Y-7500000D03*
X-750000Y-7500000D03*
X-250000Y-7500000D03*
X250000Y-7500000D03*
X750000Y-7500000D03*
X1750000Y-7500000D03*
X-2000000Y-7000000D03*
X-1500000Y-7000000D03*
X-1000000Y-7000000D03*
X-500000Y-7000000D03*
X1000000Y-7000000D03*
X1500000Y-7000000D03*
X3250000Y-7000000D03*
X3250000Y-6500000D03*
X3250000Y-6000000D03*
X3250000Y-5500000D03*
X3250000Y-5000000D03*
X3250000Y-4500000D03*
X3250000Y-4000000D03*
X3250000Y-3500000D03*
X2750000Y-5750000D03*
X2750000Y-5250000D03*
X2750000Y-4750000D03*
X2750000Y-4250000D03*
X2750000Y-3750000D03*
X2750000Y-3250000D03*
X2750000Y-2750000D03*
X2750000Y-2250000D03*
X-2750000Y-2250000D03*
X-2750000Y-3250000D03*
X-2750000Y-3750000D03*
X-2750000Y-4250000D03*
X-2750000Y-4750000D03*
X-2750000Y-5250000D03*
X-2750000Y-5750000D03*
X-3250000Y-6500000D03*
X-3250000Y-6000000D03*
X-3250000Y-5500000D03*
X-3250000Y-5000000D03*
X-3250000Y-4500000D03*
X-3250000Y-4000000D03*
X-3250000Y-3500000D03*
X-3250000Y-3000000D03*
X-3250000Y-2500000D03*
X-3250000Y-2000000D03*
X2750000Y-1000000D03*
X2000000Y-1500000D03*
X2250000Y-1000000D03*
X1500000Y-1500000D03*
X1000000Y-1500000D03*
X500000Y-1500000D03*
X0Y-1500000D03*
X-500000Y-1500000D03*
X-1000000Y-1500000D03*
X1250000Y-1000000D03*
X750000Y-1000000D03*
X250000Y-1000000D03*
X-250000Y-1000000D03*
X-750000Y-1000000D03*
X-1250000Y-1000000D03*
X-1750000Y-1000000D03*
X-2000000Y-1500000D03*
X-2500000Y-1500000D03*
X-3250000Y-1500000D03*
X-3250000Y-7000000D03*
X-2750000Y-6250000D03*
X2750000Y-1750000D03*
X3250000Y-3000000D03*
X2000000Y-7000000D03*
X2750000Y-7500000D03*
D24*
X0Y-4250000D03*
%TD*%
%TO.C,R9*%
G36*
G01*
X4215000Y7660000D02*
X4585000Y7660000D01*
G75*
G02*
X4720000Y7525000I0J-135000D01*
G01*
X4720000Y7255000D01*
G75*
G02*
X4585000Y7120000I-135000J0D01*
G01*
X4215000Y7120000D01*
G75*
G02*
X4080000Y7255000I0J135000D01*
G01*
X4080000Y7525000D01*
G75*
G02*
X4215000Y7660000I135000J0D01*
G01*
G37*
G36*
G01*
X4215000Y8680000D02*
X4585000Y8680000D01*
G75*
G02*
X4720000Y8545000I0J-135000D01*
G01*
X4720000Y8275000D01*
G75*
G02*
X4585000Y8140000I-135000J0D01*
G01*
X4215000Y8140000D01*
G75*
G02*
X4080000Y8275000I0J135000D01*
G01*
X4080000Y8545000D01*
G75*
G02*
X4215000Y8680000I135000J0D01*
G01*
G37*
%TD*%
%TO.C,R8*%
G36*
G01*
X10000Y5780000D02*
X-360000Y5780000D01*
G75*
G02*
X-495000Y5915000I0J135000D01*
G01*
X-495000Y6185000D01*
G75*
G02*
X-360000Y6320000I135000J0D01*
G01*
X10000Y6320000D01*
G75*
G02*
X145000Y6185000I0J-135000D01*
G01*
X145000Y5915000D01*
G75*
G02*
X10000Y5780000I-135000J0D01*
G01*
G37*
G36*
G01*
X10000Y4760000D02*
X-360000Y4760000D01*
G75*
G02*
X-495000Y4895000I0J135000D01*
G01*
X-495000Y5165000D01*
G75*
G02*
X-360000Y5300000I135000J0D01*
G01*
X10000Y5300000D01*
G75*
G02*
X145000Y5165000I0J-135000D01*
G01*
X145000Y4895000D01*
G75*
G02*
X10000Y4760000I-135000J0D01*
G01*
G37*
%TD*%
%TO.C,R7*%
G36*
G01*
X100000Y1960000D02*
X100000Y1590000D01*
G75*
G02*
X-35000Y1455000I-135000J0D01*
G01*
X-305000Y1455000D01*
G75*
G02*
X-440000Y1590000I0J135000D01*
G01*
X-440000Y1960000D01*
G75*
G02*
X-305000Y2095000I135000J0D01*
G01*
X-35000Y2095000D01*
G75*
G02*
X100000Y1960000I0J-135000D01*
G01*
G37*
G36*
G01*
X1120000Y1960000D02*
X1120000Y1590000D01*
G75*
G02*
X985000Y1455000I-135000J0D01*
G01*
X715000Y1455000D01*
G75*
G02*
X580000Y1590000I0J135000D01*
G01*
X580000Y1960000D01*
G75*
G02*
X715000Y2095000I135000J0D01*
G01*
X985000Y2095000D01*
G75*
G02*
X1120000Y1960000I0J-135000D01*
G01*
G37*
%TD*%
%TO.C,R6*%
G36*
G01*
X-5375000Y1860000D02*
X-5375000Y1490000D01*
G75*
G02*
X-5510000Y1355000I-135000J0D01*
G01*
X-5780000Y1355000D01*
G75*
G02*
X-5915000Y1490000I0J135000D01*
G01*
X-5915000Y1860000D01*
G75*
G02*
X-5780000Y1995000I135000J0D01*
G01*
X-5510000Y1995000D01*
G75*
G02*
X-5375000Y1860000I0J-135000D01*
G01*
G37*
G36*
G01*
X-4355000Y1860000D02*
X-4355000Y1490000D01*
G75*
G02*
X-4490000Y1355000I-135000J0D01*
G01*
X-4760000Y1355000D01*
G75*
G02*
X-4895000Y1490000I0J135000D01*
G01*
X-4895000Y1860000D01*
G75*
G02*
X-4760000Y1995000I135000J0D01*
G01*
X-4490000Y1995000D01*
G75*
G02*
X-4355000Y1860000I0J-135000D01*
G01*
G37*
%TD*%
%TO.C,R5*%
G36*
G01*
X-5760000Y-2035000D02*
X-5390000Y-2035000D01*
G75*
G02*
X-5255000Y-2170000I0J-135000D01*
G01*
X-5255000Y-2440000D01*
G75*
G02*
X-5390000Y-2575000I-135000J0D01*
G01*
X-5760000Y-2575000D01*
G75*
G02*
X-5895000Y-2440000I0J135000D01*
G01*
X-5895000Y-2170000D01*
G75*
G02*
X-5760000Y-2035000I135000J0D01*
G01*
G37*
G36*
G01*
X-5760000Y-3055000D02*
X-5390000Y-3055000D01*
G75*
G02*
X-5255000Y-3190000I0J-135000D01*
G01*
X-5255000Y-3460000D01*
G75*
G02*
X-5390000Y-3595000I-135000J0D01*
G01*
X-5760000Y-3595000D01*
G75*
G02*
X-5895000Y-3460000I0J135000D01*
G01*
X-5895000Y-3190000D01*
G75*
G02*
X-5760000Y-3055000I135000J0D01*
G01*
G37*
%TD*%
%TO.C,L3*%
G36*
G01*
X3300000Y1356250D02*
X3300000Y843750D01*
G75*
G02*
X3081250Y625000I-218750J0D01*
G01*
X2643750Y625000D01*
G75*
G02*
X2425000Y843750I0J218750D01*
G01*
X2425000Y1356250D01*
G75*
G02*
X2643750Y1575000I218750J0D01*
G01*
X3081250Y1575000D01*
G75*
G02*
X3300000Y1356250I0J-218750D01*
G01*
G37*
G36*
G01*
X4875000Y1356250D02*
X4875000Y843750D01*
G75*
G02*
X4656250Y625000I-218750J0D01*
G01*
X4218750Y625000D01*
G75*
G02*
X4000000Y843750I0J218750D01*
G01*
X4000000Y1356250D01*
G75*
G02*
X4218750Y1575000I218750J0D01*
G01*
X4656250Y1575000D01*
G75*
G02*
X4875000Y1356250I0J-218750D01*
G01*
G37*
%TD*%
%TO.C,L2*%
G36*
G01*
X5722500Y955000D02*
X5377500Y955000D01*
G75*
G02*
X5230000Y1102500I0J147500D01*
G01*
X5230000Y1397500D01*
G75*
G02*
X5377500Y1545000I147500J0D01*
G01*
X5722500Y1545000D01*
G75*
G02*
X5870000Y1397500I0J-147500D01*
G01*
X5870000Y1102500D01*
G75*
G02*
X5722500Y955000I-147500J0D01*
G01*
G37*
G36*
G01*
X5722500Y-15000D02*
X5377500Y-15000D01*
G75*
G02*
X5230000Y132500I0J147500D01*
G01*
X5230000Y427500D01*
G75*
G02*
X5377500Y575000I147500J0D01*
G01*
X5722500Y575000D01*
G75*
G02*
X5870000Y427500I0J-147500D01*
G01*
X5870000Y132500D01*
G75*
G02*
X5722500Y-15000I-147500J0D01*
G01*
G37*
%TD*%
%TO.C,L1*%
G36*
G01*
X942500Y-9810000D02*
X597500Y-9810000D01*
G75*
G02*
X450000Y-9662500I0J147500D01*
G01*
X450000Y-9367500D01*
G75*
G02*
X597500Y-9220000I147500J0D01*
G01*
X942500Y-9220000D01*
G75*
G02*
X1090000Y-9367500I0J-147500D01*
G01*
X1090000Y-9662500D01*
G75*
G02*
X942500Y-9810000I-147500J0D01*
G01*
G37*
G36*
G01*
X942500Y-10780000D02*
X597500Y-10780000D01*
G75*
G02*
X450000Y-10632500I0J147500D01*
G01*
X450000Y-10337500D01*
G75*
G02*
X597500Y-10190000I147500J0D01*
G01*
X942500Y-10190000D01*
G75*
G02*
X1090000Y-10337500I0J-147500D01*
G01*
X1090000Y-10632500D01*
G75*
G02*
X942500Y-10780000I-147500J0D01*
G01*
G37*
%TD*%
%TO.C,C21*%
G36*
G01*
X2875000Y7775000D02*
X2875000Y8275000D01*
G75*
G02*
X3100000Y8500000I225000J0D01*
G01*
X3550000Y8500000D01*
G75*
G02*
X3775000Y8275000I0J-225000D01*
G01*
X3775000Y7775000D01*
G75*
G02*
X3550000Y7550000I-225000J0D01*
G01*
X3100000Y7550000D01*
G75*
G02*
X2875000Y7775000I0J225000D01*
G01*
G37*
G36*
G01*
X1325000Y7775000D02*
X1325000Y8275000D01*
G75*
G02*
X1550000Y8500000I225000J0D01*
G01*
X2000000Y8500000D01*
G75*
G02*
X2225000Y8275000I0J-225000D01*
G01*
X2225000Y7775000D01*
G75*
G02*
X2000000Y7550000I-225000J0D01*
G01*
X1550000Y7550000D01*
G75*
G02*
X1325000Y7775000I0J225000D01*
G01*
G37*
%TD*%
%TO.C,C20*%
G36*
G01*
X-4475000Y3550000D02*
X-4475000Y4050000D01*
G75*
G02*
X-4250000Y4275000I225000J0D01*
G01*
X-3800000Y4275000D01*
G75*
G02*
X-3575000Y4050000I0J-225000D01*
G01*
X-3575000Y3550000D01*
G75*
G02*
X-3800000Y3325000I-225000J0D01*
G01*
X-4250000Y3325000D01*
G75*
G02*
X-4475000Y3550000I0J225000D01*
G01*
G37*
G36*
G01*
X-6025000Y3550000D02*
X-6025000Y4050000D01*
G75*
G02*
X-5800000Y4275000I225000J0D01*
G01*
X-5350000Y4275000D01*
G75*
G02*
X-5125000Y4050000I0J-225000D01*
G01*
X-5125000Y3550000D01*
G75*
G02*
X-5350000Y3325000I-225000J0D01*
G01*
X-5800000Y3325000D01*
G75*
G02*
X-6025000Y3550000I0J225000D01*
G01*
G37*
%TD*%
%TO.C,C19*%
G36*
G01*
X-2355000Y-10260000D02*
X-2695000Y-10260000D01*
G75*
G02*
X-2835000Y-10120000I0J140000D01*
G01*
X-2835000Y-9840000D01*
G75*
G02*
X-2695000Y-9700000I140000J0D01*
G01*
X-2355000Y-9700000D01*
G75*
G02*
X-2215000Y-9840000I0J-140000D01*
G01*
X-2215000Y-10120000D01*
G75*
G02*
X-2355000Y-10260000I-140000J0D01*
G01*
G37*
G36*
G01*
X-2355000Y-9300000D02*
X-2695000Y-9300000D01*
G75*
G02*
X-2835000Y-9160000I0J140000D01*
G01*
X-2835000Y-8880000D01*
G75*
G02*
X-2695000Y-8740000I140000J0D01*
G01*
X-2355000Y-8740000D01*
G75*
G02*
X-2215000Y-8880000I0J-140000D01*
G01*
X-2215000Y-9160000D01*
G75*
G02*
X-2355000Y-9300000I-140000J0D01*
G01*
G37*
%TD*%
%TO.C,C18*%
G36*
G01*
X-170000Y3865000D02*
X170000Y3865000D01*
G75*
G02*
X310000Y3725000I0J-140000D01*
G01*
X310000Y3445000D01*
G75*
G02*
X170000Y3305000I-140000J0D01*
G01*
X-170000Y3305000D01*
G75*
G02*
X-310000Y3445000I0J140000D01*
G01*
X-310000Y3725000D01*
G75*
G02*
X-170000Y3865000I140000J0D01*
G01*
G37*
G36*
G01*
X-170000Y2905000D02*
X170000Y2905000D01*
G75*
G02*
X310000Y2765000I0J-140000D01*
G01*
X310000Y2485000D01*
G75*
G02*
X170000Y2345000I-140000J0D01*
G01*
X-170000Y2345000D01*
G75*
G02*
X-310000Y2485000I0J140000D01*
G01*
X-310000Y2765000D01*
G75*
G02*
X-170000Y2905000I140000J0D01*
G01*
G37*
%TD*%
%TO.C,C17*%
G36*
G01*
X5100000Y3270000D02*
X5100000Y2930000D01*
G75*
G02*
X4960000Y2790000I-140000J0D01*
G01*
X4680000Y2790000D01*
G75*
G02*
X4540000Y2930000I0J140000D01*
G01*
X4540000Y3270000D01*
G75*
G02*
X4680000Y3410000I140000J0D01*
G01*
X4960000Y3410000D01*
G75*
G02*
X5100000Y3270000I0J-140000D01*
G01*
G37*
G36*
G01*
X6060000Y3270000D02*
X6060000Y2930000D01*
G75*
G02*
X5920000Y2790000I-140000J0D01*
G01*
X5640000Y2790000D01*
G75*
G02*
X5500000Y2930000I0J140000D01*
G01*
X5500000Y3270000D01*
G75*
G02*
X5640000Y3410000I140000J0D01*
G01*
X5920000Y3410000D01*
G75*
G02*
X6060000Y3270000I0J-140000D01*
G01*
G37*
%TD*%
%TO.C,C15*%
G36*
G01*
X4170000Y-1730000D02*
X3830000Y-1730000D01*
G75*
G02*
X3690000Y-1590000I0J140000D01*
G01*
X3690000Y-1310000D01*
G75*
G02*
X3830000Y-1170000I140000J0D01*
G01*
X4170000Y-1170000D01*
G75*
G02*
X4310000Y-1310000I0J-140000D01*
G01*
X4310000Y-1590000D01*
G75*
G02*
X4170000Y-1730000I-140000J0D01*
G01*
G37*
G36*
G01*
X4170000Y-2690000D02*
X3830000Y-2690000D01*
G75*
G02*
X3690000Y-2550000I0J140000D01*
G01*
X3690000Y-2270000D01*
G75*
G02*
X3830000Y-2130000I140000J0D01*
G01*
X4170000Y-2130000D01*
G75*
G02*
X4310000Y-2270000I0J-140000D01*
G01*
X4310000Y-2550000D01*
G75*
G02*
X4170000Y-2690000I-140000J0D01*
G01*
G37*
%TD*%
%TO.C,C14*%
G36*
G01*
X-6100000Y-1350000D02*
X-6100000Y-850000D01*
G75*
G02*
X-5875000Y-625000I225000J0D01*
G01*
X-5425000Y-625000D01*
G75*
G02*
X-5200000Y-850000I0J-225000D01*
G01*
X-5200000Y-1350000D01*
G75*
G02*
X-5425000Y-1575000I-225000J0D01*
G01*
X-5875000Y-1575000D01*
G75*
G02*
X-6100000Y-1350000I0J225000D01*
G01*
G37*
G36*
G01*
X-4550000Y-1350000D02*
X-4550000Y-850000D01*
G75*
G02*
X-4325000Y-625000I225000J0D01*
G01*
X-3875000Y-625000D01*
G75*
G02*
X-3650000Y-850000I0J-225000D01*
G01*
X-3650000Y-1350000D01*
G75*
G02*
X-3875000Y-1575000I-225000J0D01*
G01*
X-4325000Y-1575000D01*
G75*
G02*
X-4550000Y-1350000I0J225000D01*
G01*
G37*
%TD*%
%TO.C,C13*%
G36*
G01*
X-3650000Y775000D02*
X-3650000Y275000D01*
G75*
G02*
X-3875000Y50000I-225000J0D01*
G01*
X-4325000Y50000D01*
G75*
G02*
X-4550000Y275000I0J225000D01*
G01*
X-4550000Y775000D01*
G75*
G02*
X-4325000Y1000000I225000J0D01*
G01*
X-3875000Y1000000D01*
G75*
G02*
X-3650000Y775000I0J-225000D01*
G01*
G37*
G36*
G01*
X-5200000Y775000D02*
X-5200000Y275000D01*
G75*
G02*
X-5425000Y50000I-225000J0D01*
G01*
X-5875000Y50000D01*
G75*
G02*
X-6100000Y275000I0J225000D01*
G01*
X-6100000Y775000D01*
G75*
G02*
X-5875000Y1000000I225000J0D01*
G01*
X-5425000Y1000000D01*
G75*
G02*
X-5200000Y775000I0J-225000D01*
G01*
G37*
%TD*%
%TO.C,C12*%
G36*
G01*
X-420000Y-8855000D02*
X-80000Y-8855000D01*
G75*
G02*
X60000Y-8995000I0J-140000D01*
G01*
X60000Y-9275000D01*
G75*
G02*
X-80000Y-9415000I-140000J0D01*
G01*
X-420000Y-9415000D01*
G75*
G02*
X-560000Y-9275000I0J140000D01*
G01*
X-560000Y-8995000D01*
G75*
G02*
X-420000Y-8855000I140000J0D01*
G01*
G37*
G36*
G01*
X-420000Y-7895000D02*
X-80000Y-7895000D01*
G75*
G02*
X60000Y-8035000I0J-140000D01*
G01*
X60000Y-8315000D01*
G75*
G02*
X-80000Y-8455000I-140000J0D01*
G01*
X-420000Y-8455000D01*
G75*
G02*
X-560000Y-8315000I0J140000D01*
G01*
X-560000Y-8035000D01*
G75*
G02*
X-420000Y-7895000I140000J0D01*
G01*
G37*
%TD*%
%TO.C,C11*%
G36*
G01*
X3330000Y-8520000D02*
X3330000Y-8180000D01*
G75*
G02*
X3470000Y-8040000I140000J0D01*
G01*
X3750000Y-8040000D01*
G75*
G02*
X3890000Y-8180000I0J-140000D01*
G01*
X3890000Y-8520000D01*
G75*
G02*
X3750000Y-8660000I-140000J0D01*
G01*
X3470000Y-8660000D01*
G75*
G02*
X3330000Y-8520000I0J140000D01*
G01*
G37*
G36*
G01*
X2370000Y-8520000D02*
X2370000Y-8180000D01*
G75*
G02*
X2510000Y-8040000I140000J0D01*
G01*
X2790000Y-8040000D01*
G75*
G02*
X2930000Y-8180000I0J-140000D01*
G01*
X2930000Y-8520000D01*
G75*
G02*
X2790000Y-8660000I-140000J0D01*
G01*
X2510000Y-8660000D01*
G75*
G02*
X2370000Y-8520000I0J140000D01*
G01*
G37*
%TD*%
%TO.C,C10*%
G36*
G01*
X5500000Y1980000D02*
X5500000Y2320000D01*
G75*
G02*
X5640000Y2460000I140000J0D01*
G01*
X5920000Y2460000D01*
G75*
G02*
X6060000Y2320000I0J-140000D01*
G01*
X6060000Y1980000D01*
G75*
G02*
X5920000Y1840000I-140000J0D01*
G01*
X5640000Y1840000D01*
G75*
G02*
X5500000Y1980000I0J140000D01*
G01*
G37*
G36*
G01*
X4540000Y1980000D02*
X4540000Y2320000D01*
G75*
G02*
X4680000Y2460000I140000J0D01*
G01*
X4960000Y2460000D01*
G75*
G02*
X5100000Y2320000I0J-140000D01*
G01*
X5100000Y1980000D01*
G75*
G02*
X4960000Y1840000I-140000J0D01*
G01*
X4680000Y1840000D01*
G75*
G02*
X4540000Y1980000I0J140000D01*
G01*
G37*
%TD*%
%TO.C,C9*%
G36*
G01*
X1050000Y-8430000D02*
X1050000Y-8770000D01*
G75*
G02*
X910000Y-8910000I-140000J0D01*
G01*
X630000Y-8910000D01*
G75*
G02*
X490000Y-8770000I0J140000D01*
G01*
X490000Y-8430000D01*
G75*
G02*
X630000Y-8290000I140000J0D01*
G01*
X910000Y-8290000D01*
G75*
G02*
X1050000Y-8430000I0J-140000D01*
G01*
G37*
G36*
G01*
X2010000Y-8430000D02*
X2010000Y-8770000D01*
G75*
G02*
X1870000Y-8910000I-140000J0D01*
G01*
X1590000Y-8910000D01*
G75*
G02*
X1450000Y-8770000I0J140000D01*
G01*
X1450000Y-8430000D01*
G75*
G02*
X1590000Y-8290000I140000J0D01*
G01*
X1870000Y-8290000D01*
G75*
G02*
X2010000Y-8430000I0J-140000D01*
G01*
G37*
%TD*%
%TO.C,C8*%
G36*
G01*
X-1490000Y-105000D02*
X-1490000Y-445000D01*
G75*
G02*
X-1630000Y-585000I-140000J0D01*
G01*
X-1910000Y-585000D01*
G75*
G02*
X-2050000Y-445000I0J140000D01*
G01*
X-2050000Y-105000D01*
G75*
G02*
X-1910000Y35000I140000J0D01*
G01*
X-1630000Y35000D01*
G75*
G02*
X-1490000Y-105000I0J-140000D01*
G01*
G37*
G36*
G01*
X-2450000Y-105000D02*
X-2450000Y-445000D01*
G75*
G02*
X-2590000Y-585000I-140000J0D01*
G01*
X-2870000Y-585000D01*
G75*
G02*
X-3010000Y-445000I0J140000D01*
G01*
X-3010000Y-105000D01*
G75*
G02*
X-2870000Y35000I140000J0D01*
G01*
X-2590000Y35000D01*
G75*
G02*
X-2450000Y-105000I0J-140000D01*
G01*
G37*
%TD*%
%TO.C,C7*%
G36*
G01*
X4740000Y-5195000D02*
X4740000Y-4855000D01*
G75*
G02*
X4880000Y-4715000I140000J0D01*
G01*
X5160000Y-4715000D01*
G75*
G02*
X5300000Y-4855000I0J-140000D01*
G01*
X5300000Y-5195000D01*
G75*
G02*
X5160000Y-5335000I-140000J0D01*
G01*
X4880000Y-5335000D01*
G75*
G02*
X4740000Y-5195000I0J140000D01*
G01*
G37*
G36*
G01*
X5700000Y-5195000D02*
X5700000Y-4855000D01*
G75*
G02*
X5840000Y-4715000I140000J0D01*
G01*
X6120000Y-4715000D01*
G75*
G02*
X6260000Y-4855000I0J-140000D01*
G01*
X6260000Y-5195000D01*
G75*
G02*
X6120000Y-5335000I-140000J0D01*
G01*
X5840000Y-5335000D01*
G75*
G02*
X5700000Y-5195000I0J140000D01*
G01*
G37*
%TD*%
%TO.C,C6*%
G36*
G01*
X6230000Y-8380000D02*
X6230000Y-8720000D01*
G75*
G02*
X6090000Y-8860000I-140000J0D01*
G01*
X5810000Y-8860000D01*
G75*
G02*
X5670000Y-8720000I0J140000D01*
G01*
X5670000Y-8380000D01*
G75*
G02*
X5810000Y-8240000I140000J0D01*
G01*
X6090000Y-8240000D01*
G75*
G02*
X6230000Y-8380000I0J-140000D01*
G01*
G37*
G36*
G01*
X5270000Y-8380000D02*
X5270000Y-8720000D01*
G75*
G02*
X5130000Y-8860000I-140000J0D01*
G01*
X4850000Y-8860000D01*
G75*
G02*
X4710000Y-8720000I0J140000D01*
G01*
X4710000Y-8380000D01*
G75*
G02*
X4850000Y-8240000I140000J0D01*
G01*
X5130000Y-8240000D01*
G75*
G02*
X5270000Y-8380000I0J-140000D01*
G01*
G37*
%TD*%
%TO.C,C5*%
G36*
G01*
X4870000Y-11170000D02*
X4870000Y-10830000D01*
G75*
G02*
X5010000Y-10690000I140000J0D01*
G01*
X5290000Y-10690000D01*
G75*
G02*
X5430000Y-10830000I0J-140000D01*
G01*
X5430000Y-11170000D01*
G75*
G02*
X5290000Y-11310000I-140000J0D01*
G01*
X5010000Y-11310000D01*
G75*
G02*
X4870000Y-11170000I0J140000D01*
G01*
G37*
G36*
G01*
X3910000Y-11170000D02*
X3910000Y-10830000D01*
G75*
G02*
X4050000Y-10690000I140000J0D01*
G01*
X4330000Y-10690000D01*
G75*
G02*
X4470000Y-10830000I0J-140000D01*
G01*
X4470000Y-11170000D01*
G75*
G02*
X4330000Y-11310000I-140000J0D01*
G01*
X4050000Y-11310000D01*
G75*
G02*
X3910000Y-11170000I0J140000D01*
G01*
G37*
%TD*%
%TO.C,C4*%
G36*
G01*
X-4695000Y-4220000D02*
X-4355000Y-4220000D01*
G75*
G02*
X-4215000Y-4360000I0J-140000D01*
G01*
X-4215000Y-4640000D01*
G75*
G02*
X-4355000Y-4780000I-140000J0D01*
G01*
X-4695000Y-4780000D01*
G75*
G02*
X-4835000Y-4640000I0J140000D01*
G01*
X-4835000Y-4360000D01*
G75*
G02*
X-4695000Y-4220000I140000J0D01*
G01*
G37*
G36*
G01*
X-4695000Y-5180000D02*
X-4355000Y-5180000D01*
G75*
G02*
X-4215000Y-5320000I0J-140000D01*
G01*
X-4215000Y-5600000D01*
G75*
G02*
X-4355000Y-5740000I-140000J0D01*
G01*
X-4695000Y-5740000D01*
G75*
G02*
X-4835000Y-5600000I0J140000D01*
G01*
X-4835000Y-5320000D01*
G75*
G02*
X-4695000Y-5180000I140000J0D01*
G01*
G37*
%TD*%
%TO.C,C3*%
G36*
G01*
X5300000Y-3930000D02*
X5300000Y-4270000D01*
G75*
G02*
X5160000Y-4410000I-140000J0D01*
G01*
X4880000Y-4410000D01*
G75*
G02*
X4740000Y-4270000I0J140000D01*
G01*
X4740000Y-3930000D01*
G75*
G02*
X4880000Y-3790000I140000J0D01*
G01*
X5160000Y-3790000D01*
G75*
G02*
X5300000Y-3930000I0J-140000D01*
G01*
G37*
G36*
G01*
X6260000Y-3930000D02*
X6260000Y-4270000D01*
G75*
G02*
X6120000Y-4410000I-140000J0D01*
G01*
X5840000Y-4410000D01*
G75*
G02*
X5700000Y-4270000I0J140000D01*
G01*
X5700000Y-3930000D01*
G75*
G02*
X5840000Y-3790000I140000J0D01*
G01*
X6120000Y-3790000D01*
G75*
G02*
X6260000Y-3930000I0J-140000D01*
G01*
G37*
%TD*%
%TO.C,C2*%
G36*
G01*
X-4380000Y-7170000D02*
X-4380000Y-6830000D01*
G75*
G02*
X-4240000Y-6690000I140000J0D01*
G01*
X-3960000Y-6690000D01*
G75*
G02*
X-3820000Y-6830000I0J-140000D01*
G01*
X-3820000Y-7170000D01*
G75*
G02*
X-3960000Y-7310000I-140000J0D01*
G01*
X-4240000Y-7310000D01*
G75*
G02*
X-4380000Y-7170000I0J140000D01*
G01*
G37*
G36*
G01*
X-5340000Y-7170000D02*
X-5340000Y-6830000D01*
G75*
G02*
X-5200000Y-6690000I140000J0D01*
G01*
X-4920000Y-6690000D01*
G75*
G02*
X-4780000Y-6830000I0J-140000D01*
G01*
X-4780000Y-7170000D01*
G75*
G02*
X-4920000Y-7310000I-140000J0D01*
G01*
X-5200000Y-7310000D01*
G75*
G02*
X-5340000Y-7170000I0J140000D01*
G01*
G37*
%TD*%
%TO.C,C1*%
G36*
G01*
X3325000Y150000D02*
X3325000Y-350000D01*
G75*
G02*
X3100000Y-575000I-225000J0D01*
G01*
X2650000Y-575000D01*
G75*
G02*
X2425000Y-350000I0J225000D01*
G01*
X2425000Y150000D01*
G75*
G02*
X2650000Y375000I225000J0D01*
G01*
X3100000Y375000D01*
G75*
G02*
X3325000Y150000I0J-225000D01*
G01*
G37*
G36*
G01*
X4875000Y150000D02*
X4875000Y-350000D01*
G75*
G02*
X4650000Y-575000I-225000J0D01*
G01*
X4200000Y-575000D01*
G75*
G02*
X3975000Y-350000I0J225000D01*
G01*
X3975000Y150000D01*
G75*
G02*
X4200000Y375000I225000J0D01*
G01*
X4650000Y375000D01*
G75*
G02*
X4875000Y150000I0J-225000D01*
G01*
G37*
%TD*%
M02*
