%TF.GenerationSoftware,KiCad,Pcbnew,(5.1.9)-1*%
%TF.CreationDate,2021-05-18T20:38:47+08:00*%
%TF.ProjectId,mikoto,6d696b6f-746f-42e6-9b69-6361645f7063,rev?*%
%TF.SameCoordinates,Original*%
%TF.FileFunction,Legend,Bot*%
%TF.FilePolarity,Positive*%
%FSLAX46Y46*%
G04 Gerber Fmt 4.6, Leading zero omitted, Abs format (unit mm)*
G04 Created by KiCad (PCBNEW (5.1.9)-1) date 2021-05-18 20:38:47*
%MOMM*%
%LPD*%
G01*
G04 APERTURE LIST*
%ADD10C,0.130000*%
%ADD11C,0.010000*%
%ADD12C,1.524000*%
%ADD13C,0.500000*%
%ADD14R,1.000000X1.000000*%
%ADD15O,1.000000X2.200000*%
%ADD16O,1.000000X1.800000*%
G04 APERTURE END LIST*
D10*
X-3175000Y-6389285D02*
X-3425000Y-7139285D01*
X-3675000Y-6389285D01*
X-3839285Y-11896428D02*
X-3089285Y-11896428D01*
X-3089285Y-11717857D01*
X-3125000Y-11610714D01*
X-3196428Y-11539285D01*
X-3267857Y-11503571D01*
X-3410714Y-11467857D01*
X-3517857Y-11467857D01*
X-3660714Y-11503571D01*
X-3732142Y-11539285D01*
X-3803571Y-11610714D01*
X-3839285Y-11717857D01*
X-3839285Y-11896428D01*
X-1767857Y-11467857D02*
X-1803571Y-11503571D01*
X-1839285Y-11610714D01*
X-1839285Y-11682142D01*
X-1803571Y-11789285D01*
X-1732142Y-11860714D01*
X-1660714Y-11896428D01*
X-1517857Y-11932142D01*
X-1410714Y-11932142D01*
X-1267857Y-11896428D01*
X-1196428Y-11860714D01*
X-1125000Y-11789285D01*
X-1089285Y-11682142D01*
X-1089285Y-11610714D01*
X-1125000Y-11503571D01*
X-1160714Y-11467857D01*
D11*
%TO.C,DUMMY2*%
G36*
X3341317Y-13236403D02*
G01*
X3298773Y-13237360D01*
X3263728Y-13238995D01*
X3235134Y-13241355D01*
X3211946Y-13244487D01*
X3193116Y-13248435D01*
X3177597Y-13253248D01*
X3164344Y-13258969D01*
X3152308Y-13265647D01*
X3140445Y-13273327D01*
X3130054Y-13280443D01*
X3088594Y-13317153D01*
X3059560Y-13362117D01*
X3042692Y-13416071D01*
X3037730Y-13479748D01*
X3041334Y-13531625D01*
X3047560Y-13570993D01*
X3058311Y-13623989D01*
X3073224Y-13689135D01*
X3091936Y-13764953D01*
X3114084Y-13849968D01*
X3139305Y-13942702D01*
X3163238Y-14027718D01*
X3177714Y-14078637D01*
X3190785Y-14125092D01*
X3201787Y-14164689D01*
X3210058Y-14195030D01*
X3214934Y-14213720D01*
X3215894Y-14217965D01*
X3215323Y-14227318D01*
X3207245Y-14233374D01*
X3188276Y-14237965D01*
X3175000Y-14240083D01*
X3057955Y-14261921D01*
X2932504Y-14293500D01*
X2801920Y-14333808D01*
X2669478Y-14381837D01*
X2538922Y-14436365D01*
X2454500Y-14474079D01*
X2449471Y-14429492D01*
X2443156Y-14363721D01*
X2437378Y-14283691D01*
X2432228Y-14191012D01*
X2427793Y-14087293D01*
X2424162Y-13974144D01*
X2424018Y-13968818D01*
X2422027Y-13900394D01*
X2419891Y-13845927D01*
X2417241Y-13803499D01*
X2413711Y-13771192D01*
X2408934Y-13747090D01*
X2402541Y-13729274D01*
X2394165Y-13715829D01*
X2383439Y-13704835D01*
X2371658Y-13695588D01*
X2342955Y-13682430D01*
X2305577Y-13676079D01*
X2265366Y-13676922D01*
X2228166Y-13685349D01*
X2226580Y-13685942D01*
X2197927Y-13700560D01*
X2177439Y-13720792D01*
X2163833Y-13749198D01*
X2155825Y-13788337D01*
X2152381Y-13833831D01*
X2151448Y-13884501D01*
X2152024Y-13947674D01*
X2153943Y-14020408D01*
X2157035Y-14099762D01*
X2161132Y-14182795D01*
X2166065Y-14266564D01*
X2171668Y-14348130D01*
X2177770Y-14424550D01*
X2184204Y-14492883D01*
X2190802Y-14550187D01*
X2195083Y-14580028D01*
X2199634Y-14608462D01*
X2128561Y-14653518D01*
X2055219Y-14702495D01*
X1976617Y-14759341D01*
X1898043Y-14820057D01*
X1824783Y-14880647D01*
X1802455Y-14900126D01*
X1759430Y-14940063D01*
X1728171Y-14973975D01*
X1707086Y-15004409D01*
X1694580Y-15033916D01*
X1689059Y-15065043D01*
X1688420Y-15082487D01*
X1693802Y-15126465D01*
X1711271Y-15163755D01*
X1737596Y-15194024D01*
X1756031Y-15208535D01*
X1776615Y-15216530D01*
X1805955Y-15220494D01*
X1808470Y-15220683D01*
X1835627Y-15221339D01*
X1859106Y-15217961D01*
X1881811Y-15209028D01*
X1906648Y-15193020D01*
X1936520Y-15168416D01*
X1973904Y-15134101D01*
X2014621Y-15096857D01*
X2057494Y-15059582D01*
X2100759Y-15023614D01*
X2142651Y-14990292D01*
X2181405Y-14960956D01*
X2215256Y-14936943D01*
X2242439Y-14919593D01*
X2261188Y-14910245D01*
X2269498Y-14909892D01*
X2274532Y-14920576D01*
X2281999Y-14941912D01*
X2289998Y-14968312D01*
X2333998Y-15097382D01*
X2391486Y-15223642D01*
X2460211Y-15342191D01*
X2464881Y-15349312D01*
X2541128Y-15452992D01*
X2626319Y-15546119D01*
X2721872Y-15629911D01*
X2829208Y-15705582D01*
X2949746Y-15774352D01*
X2976563Y-15787879D01*
X3018317Y-15808125D01*
X3049791Y-15822131D01*
X3074702Y-15831142D01*
X3096769Y-15836407D01*
X3119708Y-15839172D01*
X3131781Y-15839960D01*
X3162062Y-15841065D01*
X3181844Y-15839485D01*
X3196439Y-15833983D01*
X3211156Y-15823324D01*
X3214220Y-15820769D01*
X3243028Y-15786790D01*
X3259081Y-15746059D01*
X3261683Y-15702142D01*
X3250142Y-15658607D01*
X3247018Y-15652074D01*
X3239616Y-15637959D01*
X3232321Y-15626723D01*
X3222884Y-15616775D01*
X3209053Y-15606520D01*
X3188579Y-15594368D01*
X3159211Y-15578725D01*
X3118698Y-15557999D01*
X3102324Y-15549683D01*
X3030627Y-15511612D01*
X2970133Y-15475432D01*
X2916853Y-15438418D01*
X2866800Y-15397848D01*
X2827325Y-15361881D01*
X2749027Y-15277647D01*
X2679715Y-15181947D01*
X2618410Y-15073418D01*
X2615488Y-15067531D01*
X2596618Y-15026765D01*
X2577179Y-14980420D01*
X2558248Y-14931563D01*
X2540903Y-14883264D01*
X2526223Y-14838592D01*
X2515286Y-14800614D01*
X2509169Y-14772400D01*
X2508250Y-14762296D01*
X2512428Y-14754094D01*
X2525952Y-14743094D01*
X2550309Y-14728353D01*
X2586984Y-14708931D01*
X2613422Y-14695677D01*
X2770923Y-14624043D01*
X2925552Y-14566610D01*
X3079620Y-14522570D01*
X3162042Y-14504344D01*
X3210237Y-14494278D01*
X3246070Y-14487085D01*
X3272076Y-14484279D01*
X3290786Y-14487372D01*
X3304734Y-14497876D01*
X3316452Y-14517304D01*
X3328474Y-14547168D01*
X3343332Y-14588980D01*
X3354159Y-14619062D01*
X3411289Y-14769210D01*
X3468139Y-14907279D01*
X3524431Y-15032734D01*
X3579892Y-15145042D01*
X3634245Y-15243667D01*
X3687214Y-15328076D01*
X3738525Y-15397734D01*
X3779549Y-15443857D01*
X3842683Y-15500370D01*
X3906970Y-15542388D01*
X3975081Y-15571220D01*
X4049682Y-15588175D01*
X4081527Y-15591888D01*
X4159185Y-15591481D01*
X4232123Y-15575935D01*
X4300414Y-15545223D01*
X4364127Y-15499318D01*
X4389061Y-15475982D01*
X4441313Y-15413292D01*
X4482114Y-15341256D01*
X4511721Y-15259196D01*
X4530389Y-15166432D01*
X4537651Y-15083406D01*
X4537156Y-15055719D01*
X4276580Y-15055719D01*
X4271484Y-15115118D01*
X4266943Y-15138791D01*
X4247355Y-15198654D01*
X4220259Y-15246262D01*
X4186656Y-15280992D01*
X4147542Y-15302219D01*
X4103917Y-15309321D01*
X4056778Y-15301671D01*
X4026238Y-15289254D01*
X3987274Y-15264417D01*
X3947837Y-15228208D01*
X3907475Y-15179954D01*
X3865735Y-15118983D01*
X3822165Y-15044622D01*
X3776311Y-14956201D01*
X3727723Y-14853045D01*
X3718120Y-14831670D01*
X3682488Y-14749959D01*
X3651283Y-14673943D01*
X3621237Y-14595503D01*
X3602663Y-14544606D01*
X3571607Y-14458243D01*
X3643179Y-14463842D01*
X3738467Y-14476204D01*
X3831936Y-14497667D01*
X3920058Y-14527096D01*
X3999305Y-14563359D01*
X4052129Y-14595273D01*
X4116177Y-14648148D01*
X4172479Y-14712157D01*
X4218434Y-14783781D01*
X4251442Y-14859502D01*
X4254532Y-14869093D01*
X4267823Y-14926618D01*
X4275266Y-14990857D01*
X4276580Y-15055719D01*
X4537156Y-15055719D01*
X4535581Y-14967658D01*
X4519175Y-14858225D01*
X4488873Y-14755621D01*
X4445116Y-14660364D01*
X4388347Y-14572967D01*
X4319006Y-14493949D01*
X4237535Y-14423823D01*
X4144374Y-14363106D01*
X4039965Y-14312313D01*
X3924750Y-14271961D01*
X3821907Y-14246901D01*
X3755100Y-14235025D01*
X3685751Y-14225292D01*
X3619053Y-14218300D01*
X3560194Y-14214646D01*
X3538155Y-14214250D01*
X3487933Y-14214250D01*
X3474122Y-14164640D01*
X3448289Y-14070216D01*
X3424206Y-13978987D01*
X3402177Y-13892302D01*
X3382503Y-13811509D01*
X3365490Y-13737956D01*
X3351439Y-13672994D01*
X3340653Y-13617969D01*
X3333437Y-13574232D01*
X3330093Y-13543129D01*
X3330721Y-13526739D01*
X3341085Y-13507410D01*
X3354673Y-13494469D01*
X3361362Y-13491011D01*
X3370697Y-13488416D01*
X3384424Y-13486665D01*
X3404290Y-13485737D01*
X3432042Y-13485614D01*
X3469425Y-13486274D01*
X3518186Y-13487698D01*
X3580070Y-13489866D01*
X3621589Y-13491415D01*
X3693686Y-13493964D01*
X3770398Y-13496363D01*
X3847614Y-13498506D01*
X3921220Y-13500286D01*
X3987104Y-13501595D01*
X4040188Y-13502318D01*
X4096501Y-13502767D01*
X4139283Y-13502838D01*
X4170874Y-13502326D01*
X4193618Y-13501027D01*
X4209857Y-13498737D01*
X4221931Y-13495251D01*
X4232184Y-13490367D01*
X4241521Y-13484774D01*
X4269926Y-13458333D01*
X4287921Y-13422873D01*
X4294760Y-13381969D01*
X4289693Y-13339199D01*
X4278235Y-13309222D01*
X4270426Y-13294577D01*
X4262329Y-13282589D01*
X4252342Y-13272956D01*
X4238859Y-13265374D01*
X4220277Y-13259541D01*
X4194991Y-13255155D01*
X4161397Y-13251912D01*
X4117892Y-13249510D01*
X4062871Y-13247646D01*
X3994729Y-13246018D01*
X3937000Y-13244828D01*
X3812660Y-13242328D01*
X3703146Y-13240183D01*
X3607409Y-13238439D01*
X3524405Y-13237143D01*
X3453086Y-13236341D01*
X3392405Y-13236079D01*
X3341317Y-13236403D01*
G37*
X3341317Y-13236403D02*
X3298773Y-13237360D01*
X3263728Y-13238995D01*
X3235134Y-13241355D01*
X3211946Y-13244487D01*
X3193116Y-13248435D01*
X3177597Y-13253248D01*
X3164344Y-13258969D01*
X3152308Y-13265647D01*
X3140445Y-13273327D01*
X3130054Y-13280443D01*
X3088594Y-13317153D01*
X3059560Y-13362117D01*
X3042692Y-13416071D01*
X3037730Y-13479748D01*
X3041334Y-13531625D01*
X3047560Y-13570993D01*
X3058311Y-13623989D01*
X3073224Y-13689135D01*
X3091936Y-13764953D01*
X3114084Y-13849968D01*
X3139305Y-13942702D01*
X3163238Y-14027718D01*
X3177714Y-14078637D01*
X3190785Y-14125092D01*
X3201787Y-14164689D01*
X3210058Y-14195030D01*
X3214934Y-14213720D01*
X3215894Y-14217965D01*
X3215323Y-14227318D01*
X3207245Y-14233374D01*
X3188276Y-14237965D01*
X3175000Y-14240083D01*
X3057955Y-14261921D01*
X2932504Y-14293500D01*
X2801920Y-14333808D01*
X2669478Y-14381837D01*
X2538922Y-14436365D01*
X2454500Y-14474079D01*
X2449471Y-14429492D01*
X2443156Y-14363721D01*
X2437378Y-14283691D01*
X2432228Y-14191012D01*
X2427793Y-14087293D01*
X2424162Y-13974144D01*
X2424018Y-13968818D01*
X2422027Y-13900394D01*
X2419891Y-13845927D01*
X2417241Y-13803499D01*
X2413711Y-13771192D01*
X2408934Y-13747090D01*
X2402541Y-13729274D01*
X2394165Y-13715829D01*
X2383439Y-13704835D01*
X2371658Y-13695588D01*
X2342955Y-13682430D01*
X2305577Y-13676079D01*
X2265366Y-13676922D01*
X2228166Y-13685349D01*
X2226580Y-13685942D01*
X2197927Y-13700560D01*
X2177439Y-13720792D01*
X2163833Y-13749198D01*
X2155825Y-13788337D01*
X2152381Y-13833831D01*
X2151448Y-13884501D01*
X2152024Y-13947674D01*
X2153943Y-14020408D01*
X2157035Y-14099762D01*
X2161132Y-14182795D01*
X2166065Y-14266564D01*
X2171668Y-14348130D01*
X2177770Y-14424550D01*
X2184204Y-14492883D01*
X2190802Y-14550187D01*
X2195083Y-14580028D01*
X2199634Y-14608462D01*
X2128561Y-14653518D01*
X2055219Y-14702495D01*
X1976617Y-14759341D01*
X1898043Y-14820057D01*
X1824783Y-14880647D01*
X1802455Y-14900126D01*
X1759430Y-14940063D01*
X1728171Y-14973975D01*
X1707086Y-15004409D01*
X1694580Y-15033916D01*
X1689059Y-15065043D01*
X1688420Y-15082487D01*
X1693802Y-15126465D01*
X1711271Y-15163755D01*
X1737596Y-15194024D01*
X1756031Y-15208535D01*
X1776615Y-15216530D01*
X1805955Y-15220494D01*
X1808470Y-15220683D01*
X1835627Y-15221339D01*
X1859106Y-15217961D01*
X1881811Y-15209028D01*
X1906648Y-15193020D01*
X1936520Y-15168416D01*
X1973904Y-15134101D01*
X2014621Y-15096857D01*
X2057494Y-15059582D01*
X2100759Y-15023614D01*
X2142651Y-14990292D01*
X2181405Y-14960956D01*
X2215256Y-14936943D01*
X2242439Y-14919593D01*
X2261188Y-14910245D01*
X2269498Y-14909892D01*
X2274532Y-14920576D01*
X2281999Y-14941912D01*
X2289998Y-14968312D01*
X2333998Y-15097382D01*
X2391486Y-15223642D01*
X2460211Y-15342191D01*
X2464881Y-15349312D01*
X2541128Y-15452992D01*
X2626319Y-15546119D01*
X2721872Y-15629911D01*
X2829208Y-15705582D01*
X2949746Y-15774352D01*
X2976563Y-15787879D01*
X3018317Y-15808125D01*
X3049791Y-15822131D01*
X3074702Y-15831142D01*
X3096769Y-15836407D01*
X3119708Y-15839172D01*
X3131781Y-15839960D01*
X3162062Y-15841065D01*
X3181844Y-15839485D01*
X3196439Y-15833983D01*
X3211156Y-15823324D01*
X3214220Y-15820769D01*
X3243028Y-15786790D01*
X3259081Y-15746059D01*
X3261683Y-15702142D01*
X3250142Y-15658607D01*
X3247018Y-15652074D01*
X3239616Y-15637959D01*
X3232321Y-15626723D01*
X3222884Y-15616775D01*
X3209053Y-15606520D01*
X3188579Y-15594368D01*
X3159211Y-15578725D01*
X3118698Y-15557999D01*
X3102324Y-15549683D01*
X3030627Y-15511612D01*
X2970133Y-15475432D01*
X2916853Y-15438418D01*
X2866800Y-15397848D01*
X2827325Y-15361881D01*
X2749027Y-15277647D01*
X2679715Y-15181947D01*
X2618410Y-15073418D01*
X2615488Y-15067531D01*
X2596618Y-15026765D01*
X2577179Y-14980420D01*
X2558248Y-14931563D01*
X2540903Y-14883264D01*
X2526223Y-14838592D01*
X2515286Y-14800614D01*
X2509169Y-14772400D01*
X2508250Y-14762296D01*
X2512428Y-14754094D01*
X2525952Y-14743094D01*
X2550309Y-14728353D01*
X2586984Y-14708931D01*
X2613422Y-14695677D01*
X2770923Y-14624043D01*
X2925552Y-14566610D01*
X3079620Y-14522570D01*
X3162042Y-14504344D01*
X3210237Y-14494278D01*
X3246070Y-14487085D01*
X3272076Y-14484279D01*
X3290786Y-14487372D01*
X3304734Y-14497876D01*
X3316452Y-14517304D01*
X3328474Y-14547168D01*
X3343332Y-14588980D01*
X3354159Y-14619062D01*
X3411289Y-14769210D01*
X3468139Y-14907279D01*
X3524431Y-15032734D01*
X3579892Y-15145042D01*
X3634245Y-15243667D01*
X3687214Y-15328076D01*
X3738525Y-15397734D01*
X3779549Y-15443857D01*
X3842683Y-15500370D01*
X3906970Y-15542388D01*
X3975081Y-15571220D01*
X4049682Y-15588175D01*
X4081527Y-15591888D01*
X4159185Y-15591481D01*
X4232123Y-15575935D01*
X4300414Y-15545223D01*
X4364127Y-15499318D01*
X4389061Y-15475982D01*
X4441313Y-15413292D01*
X4482114Y-15341256D01*
X4511721Y-15259196D01*
X4530389Y-15166432D01*
X4537651Y-15083406D01*
X4537156Y-15055719D01*
X4276580Y-15055719D01*
X4271484Y-15115118D01*
X4266943Y-15138791D01*
X4247355Y-15198654D01*
X4220259Y-15246262D01*
X4186656Y-15280992D01*
X4147542Y-15302219D01*
X4103917Y-15309321D01*
X4056778Y-15301671D01*
X4026238Y-15289254D01*
X3987274Y-15264417D01*
X3947837Y-15228208D01*
X3907475Y-15179954D01*
X3865735Y-15118983D01*
X3822165Y-15044622D01*
X3776311Y-14956201D01*
X3727723Y-14853045D01*
X3718120Y-14831670D01*
X3682488Y-14749959D01*
X3651283Y-14673943D01*
X3621237Y-14595503D01*
X3602663Y-14544606D01*
X3571607Y-14458243D01*
X3643179Y-14463842D01*
X3738467Y-14476204D01*
X3831936Y-14497667D01*
X3920058Y-14527096D01*
X3999305Y-14563359D01*
X4052129Y-14595273D01*
X4116177Y-14648148D01*
X4172479Y-14712157D01*
X4218434Y-14783781D01*
X4251442Y-14859502D01*
X4254532Y-14869093D01*
X4267823Y-14926618D01*
X4275266Y-14990857D01*
X4276580Y-15055719D01*
X4537156Y-15055719D01*
X4535581Y-14967658D01*
X4519175Y-14858225D01*
X4488873Y-14755621D01*
X4445116Y-14660364D01*
X4388347Y-14572967D01*
X4319006Y-14493949D01*
X4237535Y-14423823D01*
X4144374Y-14363106D01*
X4039965Y-14312313D01*
X3924750Y-14271961D01*
X3821907Y-14246901D01*
X3755100Y-14235025D01*
X3685751Y-14225292D01*
X3619053Y-14218300D01*
X3560194Y-14214646D01*
X3538155Y-14214250D01*
X3487933Y-14214250D01*
X3474122Y-14164640D01*
X3448289Y-14070216D01*
X3424206Y-13978987D01*
X3402177Y-13892302D01*
X3382503Y-13811509D01*
X3365490Y-13737956D01*
X3351439Y-13672994D01*
X3340653Y-13617969D01*
X3333437Y-13574232D01*
X3330093Y-13543129D01*
X3330721Y-13526739D01*
X3341085Y-13507410D01*
X3354673Y-13494469D01*
X3361362Y-13491011D01*
X3370697Y-13488416D01*
X3384424Y-13486665D01*
X3404290Y-13485737D01*
X3432042Y-13485614D01*
X3469425Y-13486274D01*
X3518186Y-13487698D01*
X3580070Y-13489866D01*
X3621589Y-13491415D01*
X3693686Y-13493964D01*
X3770398Y-13496363D01*
X3847614Y-13498506D01*
X3921220Y-13500286D01*
X3987104Y-13501595D01*
X4040188Y-13502318D01*
X4096501Y-13502767D01*
X4139283Y-13502838D01*
X4170874Y-13502326D01*
X4193618Y-13501027D01*
X4209857Y-13498737D01*
X4221931Y-13495251D01*
X4232184Y-13490367D01*
X4241521Y-13484774D01*
X4269926Y-13458333D01*
X4287921Y-13422873D01*
X4294760Y-13381969D01*
X4289693Y-13339199D01*
X4278235Y-13309222D01*
X4270426Y-13294577D01*
X4262329Y-13282589D01*
X4252342Y-13272956D01*
X4238859Y-13265374D01*
X4220277Y-13259541D01*
X4194991Y-13255155D01*
X4161397Y-13251912D01*
X4117892Y-13249510D01*
X4062871Y-13247646D01*
X3994729Y-13246018D01*
X3937000Y-13244828D01*
X3812660Y-13242328D01*
X3703146Y-13240183D01*
X3607409Y-13238439D01*
X3524405Y-13237143D01*
X3453086Y-13236341D01*
X3392405Y-13236079D01*
X3341317Y-13236403D01*
G36*
X-2734552Y-13132567D02*
G01*
X-2771865Y-13149809D01*
X-2797916Y-13177212D01*
X-2802788Y-13189922D01*
X-2810124Y-13215996D01*
X-2819392Y-13253210D01*
X-2830061Y-13299337D01*
X-2841600Y-13352152D01*
X-2853477Y-13409430D01*
X-2854170Y-13412867D01*
X-2876587Y-13520543D01*
X-2900155Y-13626989D01*
X-2924218Y-13729518D01*
X-2948119Y-13825446D01*
X-2971202Y-13912087D01*
X-2992810Y-13986757D01*
X-3000628Y-14011843D01*
X-3011427Y-14045208D01*
X-3020629Y-14072823D01*
X-3027073Y-14091250D01*
X-3029372Y-14096930D01*
X-3037910Y-14097328D01*
X-3056434Y-14092408D01*
X-3074115Y-14085915D01*
X-3168232Y-14048555D01*
X-3264557Y-14011640D01*
X-3361635Y-13975642D01*
X-3458012Y-13941034D01*
X-3552233Y-13908290D01*
X-3642842Y-13877883D01*
X-3728384Y-13850285D01*
X-3807405Y-13825970D01*
X-3878450Y-13805411D01*
X-3940063Y-13789080D01*
X-3990790Y-13777451D01*
X-4029175Y-13770997D01*
X-4046456Y-13769800D01*
X-4089118Y-13776447D01*
X-4126105Y-13795132D01*
X-4153723Y-13823776D01*
X-4159291Y-13833331D01*
X-4177422Y-13882439D01*
X-4180114Y-13928872D01*
X-4168639Y-13970723D01*
X-4149696Y-14001773D01*
X-4122369Y-14025229D01*
X-4083702Y-14043269D01*
X-4060031Y-14050703D01*
X-4039035Y-14056565D01*
X-4006253Y-14065690D01*
X-3965197Y-14077100D01*
X-3919380Y-14089821D01*
X-3886342Y-14098985D01*
X-3762680Y-14134684D01*
X-3636321Y-14173814D01*
X-3509453Y-14215564D01*
X-3384265Y-14259123D01*
X-3262943Y-14303681D01*
X-3147675Y-14348427D01*
X-3040649Y-14392550D01*
X-2944053Y-14435240D01*
X-2860074Y-14475686D01*
X-2835605Y-14488349D01*
X-2726180Y-14551138D01*
X-2629295Y-14617056D01*
X-2545280Y-14685571D01*
X-2474465Y-14756154D01*
X-2417179Y-14828273D01*
X-2373754Y-14901399D01*
X-2344518Y-14975002D01*
X-2329802Y-15048550D01*
X-2329935Y-15121513D01*
X-2345247Y-15193362D01*
X-2365718Y-15243823D01*
X-2397161Y-15293461D01*
X-2440159Y-15336991D01*
X-2495286Y-15374669D01*
X-2563121Y-15406749D01*
X-2644240Y-15433486D01*
X-2739219Y-15455135D01*
X-2848636Y-15471952D01*
X-2893218Y-15477034D01*
X-2936870Y-15480435D01*
X-2993376Y-15483067D01*
X-3059735Y-15484929D01*
X-3132942Y-15486023D01*
X-3209998Y-15486346D01*
X-3287899Y-15485900D01*
X-3363643Y-15484684D01*
X-3434228Y-15482698D01*
X-3496651Y-15479942D01*
X-3540125Y-15477069D01*
X-3649403Y-15467025D01*
X-3765383Y-15454116D01*
X-3881253Y-15439178D01*
X-3990203Y-15423048D01*
X-4022007Y-15417853D01*
X-4081227Y-15408905D01*
X-4126781Y-15404165D01*
X-4157996Y-15403696D01*
X-4165873Y-15404634D01*
X-4207580Y-15419289D01*
X-4239005Y-15445830D01*
X-4259796Y-15483756D01*
X-4269601Y-15532567D01*
X-4270375Y-15553166D01*
X-4263802Y-15601656D01*
X-4244603Y-15641756D01*
X-4213559Y-15672105D01*
X-4196570Y-15681912D01*
X-4162594Y-15694451D01*
X-4114374Y-15706516D01*
X-4053536Y-15717992D01*
X-3981708Y-15728763D01*
X-3900515Y-15738713D01*
X-3811585Y-15747726D01*
X-3716543Y-15755686D01*
X-3617018Y-15762477D01*
X-3514635Y-15767984D01*
X-3411021Y-15772090D01*
X-3307803Y-15774680D01*
X-3206608Y-15775637D01*
X-3109062Y-15774847D01*
X-3016792Y-15772193D01*
X-2964656Y-15769659D01*
X-2817300Y-15756864D01*
X-2681547Y-15736036D01*
X-2557953Y-15707315D01*
X-2447079Y-15670838D01*
X-2349483Y-15626744D01*
X-2319190Y-15609904D01*
X-2294846Y-15593190D01*
X-2264022Y-15568509D01*
X-2231077Y-15539493D01*
X-2206522Y-15516000D01*
X-2153624Y-15456946D01*
X-2113348Y-15396626D01*
X-2082873Y-15330137D01*
X-2062797Y-15265968D01*
X-2053262Y-15216633D01*
X-2047242Y-15157689D01*
X-2044807Y-15094279D01*
X-2046027Y-15031549D01*
X-2050973Y-14974641D01*
X-2058277Y-14934211D01*
X-2089860Y-14838791D01*
X-2136724Y-14744877D01*
X-2198301Y-14653079D01*
X-2274021Y-14564010D01*
X-2363316Y-14478282D01*
X-2465618Y-14396507D01*
X-2580357Y-14319296D01*
X-2686843Y-14257925D01*
X-2716729Y-14241881D01*
X-2740760Y-14228980D01*
X-2755931Y-14220836D01*
X-2759673Y-14218827D01*
X-2758060Y-14211428D01*
X-2752636Y-14191838D01*
X-2744253Y-14163042D01*
X-2733818Y-14128204D01*
X-2714477Y-14062260D01*
X-2694215Y-13989284D01*
X-2673459Y-13911125D01*
X-2652631Y-13829633D01*
X-2632158Y-13746656D01*
X-2612463Y-13664045D01*
X-2593972Y-13583647D01*
X-2577109Y-13507312D01*
X-2562298Y-13436890D01*
X-2549965Y-13374229D01*
X-2540533Y-13321179D01*
X-2534429Y-13279589D01*
X-2532075Y-13251308D01*
X-2532062Y-13249673D01*
X-2539377Y-13210310D01*
X-2560027Y-13176801D01*
X-2592064Y-13150694D01*
X-2633544Y-13133537D01*
X-2682520Y-13126875D01*
X-2686541Y-13126842D01*
X-2734552Y-13132567D01*
G37*
X-2734552Y-13132567D02*
X-2771865Y-13149809D01*
X-2797916Y-13177212D01*
X-2802788Y-13189922D01*
X-2810124Y-13215996D01*
X-2819392Y-13253210D01*
X-2830061Y-13299337D01*
X-2841600Y-13352152D01*
X-2853477Y-13409430D01*
X-2854170Y-13412867D01*
X-2876587Y-13520543D01*
X-2900155Y-13626989D01*
X-2924218Y-13729518D01*
X-2948119Y-13825446D01*
X-2971202Y-13912087D01*
X-2992810Y-13986757D01*
X-3000628Y-14011843D01*
X-3011427Y-14045208D01*
X-3020629Y-14072823D01*
X-3027073Y-14091250D01*
X-3029372Y-14096930D01*
X-3037910Y-14097328D01*
X-3056434Y-14092408D01*
X-3074115Y-14085915D01*
X-3168232Y-14048555D01*
X-3264557Y-14011640D01*
X-3361635Y-13975642D01*
X-3458012Y-13941034D01*
X-3552233Y-13908290D01*
X-3642842Y-13877883D01*
X-3728384Y-13850285D01*
X-3807405Y-13825970D01*
X-3878450Y-13805411D01*
X-3940063Y-13789080D01*
X-3990790Y-13777451D01*
X-4029175Y-13770997D01*
X-4046456Y-13769800D01*
X-4089118Y-13776447D01*
X-4126105Y-13795132D01*
X-4153723Y-13823776D01*
X-4159291Y-13833331D01*
X-4177422Y-13882439D01*
X-4180114Y-13928872D01*
X-4168639Y-13970723D01*
X-4149696Y-14001773D01*
X-4122369Y-14025229D01*
X-4083702Y-14043269D01*
X-4060031Y-14050703D01*
X-4039035Y-14056565D01*
X-4006253Y-14065690D01*
X-3965197Y-14077100D01*
X-3919380Y-14089821D01*
X-3886342Y-14098985D01*
X-3762680Y-14134684D01*
X-3636321Y-14173814D01*
X-3509453Y-14215564D01*
X-3384265Y-14259123D01*
X-3262943Y-14303681D01*
X-3147675Y-14348427D01*
X-3040649Y-14392550D01*
X-2944053Y-14435240D01*
X-2860074Y-14475686D01*
X-2835605Y-14488349D01*
X-2726180Y-14551138D01*
X-2629295Y-14617056D01*
X-2545280Y-14685571D01*
X-2474465Y-14756154D01*
X-2417179Y-14828273D01*
X-2373754Y-14901399D01*
X-2344518Y-14975002D01*
X-2329802Y-15048550D01*
X-2329935Y-15121513D01*
X-2345247Y-15193362D01*
X-2365718Y-15243823D01*
X-2397161Y-15293461D01*
X-2440159Y-15336991D01*
X-2495286Y-15374669D01*
X-2563121Y-15406749D01*
X-2644240Y-15433486D01*
X-2739219Y-15455135D01*
X-2848636Y-15471952D01*
X-2893218Y-15477034D01*
X-2936870Y-15480435D01*
X-2993376Y-15483067D01*
X-3059735Y-15484929D01*
X-3132942Y-15486023D01*
X-3209998Y-15486346D01*
X-3287899Y-15485900D01*
X-3363643Y-15484684D01*
X-3434228Y-15482698D01*
X-3496651Y-15479942D01*
X-3540125Y-15477069D01*
X-3649403Y-15467025D01*
X-3765383Y-15454116D01*
X-3881253Y-15439178D01*
X-3990203Y-15423048D01*
X-4022007Y-15417853D01*
X-4081227Y-15408905D01*
X-4126781Y-15404165D01*
X-4157996Y-15403696D01*
X-4165873Y-15404634D01*
X-4207580Y-15419289D01*
X-4239005Y-15445830D01*
X-4259796Y-15483756D01*
X-4269601Y-15532567D01*
X-4270375Y-15553166D01*
X-4263802Y-15601656D01*
X-4244603Y-15641756D01*
X-4213559Y-15672105D01*
X-4196570Y-15681912D01*
X-4162594Y-15694451D01*
X-4114374Y-15706516D01*
X-4053536Y-15717992D01*
X-3981708Y-15728763D01*
X-3900515Y-15738713D01*
X-3811585Y-15747726D01*
X-3716543Y-15755686D01*
X-3617018Y-15762477D01*
X-3514635Y-15767984D01*
X-3411021Y-15772090D01*
X-3307803Y-15774680D01*
X-3206608Y-15775637D01*
X-3109062Y-15774847D01*
X-3016792Y-15772193D01*
X-2964656Y-15769659D01*
X-2817300Y-15756864D01*
X-2681547Y-15736036D01*
X-2557953Y-15707315D01*
X-2447079Y-15670838D01*
X-2349483Y-15626744D01*
X-2319190Y-15609904D01*
X-2294846Y-15593190D01*
X-2264022Y-15568509D01*
X-2231077Y-15539493D01*
X-2206522Y-15516000D01*
X-2153624Y-15456946D01*
X-2113348Y-15396626D01*
X-2082873Y-15330137D01*
X-2062797Y-15265968D01*
X-2053262Y-15216633D01*
X-2047242Y-15157689D01*
X-2044807Y-15094279D01*
X-2046027Y-15031549D01*
X-2050973Y-14974641D01*
X-2058277Y-14934211D01*
X-2089860Y-14838791D01*
X-2136724Y-14744877D01*
X-2198301Y-14653079D01*
X-2274021Y-14564010D01*
X-2363316Y-14478282D01*
X-2465618Y-14396507D01*
X-2580357Y-14319296D01*
X-2686843Y-14257925D01*
X-2716729Y-14241881D01*
X-2740760Y-14228980D01*
X-2755931Y-14220836D01*
X-2759673Y-14218827D01*
X-2758060Y-14211428D01*
X-2752636Y-14191838D01*
X-2744253Y-14163042D01*
X-2733818Y-14128204D01*
X-2714477Y-14062260D01*
X-2694215Y-13989284D01*
X-2673459Y-13911125D01*
X-2652631Y-13829633D01*
X-2632158Y-13746656D01*
X-2612463Y-13664045D01*
X-2593972Y-13583647D01*
X-2577109Y-13507312D01*
X-2562298Y-13436890D01*
X-2549965Y-13374229D01*
X-2540533Y-13321179D01*
X-2534429Y-13279589D01*
X-2532075Y-13251308D01*
X-2532062Y-13249673D01*
X-2539377Y-13210310D01*
X-2560027Y-13176801D01*
X-2592064Y-13150694D01*
X-2633544Y-13133537D01*
X-2682520Y-13126875D01*
X-2686541Y-13126842D01*
X-2734552Y-13132567D01*
G36*
X695066Y-14454709D02*
G01*
X668398Y-14463429D01*
X638170Y-14485598D01*
X613724Y-14515610D01*
X599568Y-14547773D01*
X598811Y-14551310D01*
X596929Y-14575867D01*
X601642Y-14600229D01*
X614187Y-14626675D01*
X635801Y-14657484D01*
X667720Y-14694935D01*
X689606Y-14718647D01*
X736210Y-14770399D01*
X772787Y-14816566D01*
X802021Y-14861068D01*
X826598Y-14907824D01*
X840112Y-14938318D01*
X851002Y-14967393D01*
X857414Y-14994418D01*
X860423Y-15025652D01*
X861109Y-15060394D01*
X860673Y-15096419D01*
X858385Y-15122411D01*
X852970Y-15144198D01*
X843155Y-15167612D01*
X833368Y-15187338D01*
X804692Y-15231787D01*
X766139Y-15270985D01*
X716815Y-15305335D01*
X655828Y-15335242D01*
X582284Y-15361111D01*
X495289Y-15383346D01*
X393952Y-15402352D01*
X341313Y-15410256D01*
X307453Y-15414478D01*
X271418Y-15417811D01*
X230917Y-15420343D01*
X183661Y-15422163D01*
X127359Y-15423360D01*
X59723Y-15424023D01*
X-19843Y-15424239D01*
X-170045Y-15422648D01*
X-308563Y-15417534D01*
X-439267Y-15408546D01*
X-566029Y-15395334D01*
X-692719Y-15377546D01*
X-823208Y-15354831D01*
X-856668Y-15348383D01*
X-928328Y-15335392D01*
X-986509Y-15327670D01*
X-1032846Y-15325640D01*
X-1068979Y-15329728D01*
X-1096545Y-15340356D01*
X-1117180Y-15357949D01*
X-1132523Y-15382929D01*
X-1144211Y-15415722D01*
X-1146276Y-15423341D01*
X-1153369Y-15475567D01*
X-1146336Y-15521661D01*
X-1125641Y-15560595D01*
X-1091751Y-15591342D01*
X-1063399Y-15606228D01*
X-1021876Y-15620523D01*
X-966474Y-15634853D01*
X-899182Y-15648909D01*
X-821990Y-15662379D01*
X-736891Y-15674950D01*
X-645875Y-15686312D01*
X-550932Y-15696153D01*
X-454053Y-15704161D01*
X-424791Y-15706167D01*
X-379416Y-15708461D01*
X-322495Y-15710296D01*
X-256671Y-15711675D01*
X-184584Y-15712599D01*
X-108875Y-15713071D01*
X-32185Y-15713093D01*
X42846Y-15712667D01*
X113575Y-15711795D01*
X177362Y-15710479D01*
X231566Y-15708723D01*
X273546Y-15706527D01*
X285750Y-15705577D01*
X432534Y-15688695D01*
X564992Y-15665235D01*
X683301Y-15635070D01*
X787642Y-15598074D01*
X878192Y-15554119D01*
X955130Y-15503080D01*
X1018635Y-15444830D01*
X1068885Y-15379242D01*
X1106060Y-15306189D01*
X1130337Y-15225544D01*
X1141896Y-15137181D01*
X1143000Y-15097676D01*
X1135854Y-14993249D01*
X1114135Y-14893365D01*
X1077425Y-14796652D01*
X1025303Y-14701736D01*
X1019200Y-14692247D01*
X993530Y-14656140D01*
X962007Y-14616798D01*
X927182Y-14576929D01*
X891605Y-14539242D01*
X857827Y-14506444D01*
X828399Y-14481243D01*
X806910Y-14466864D01*
X772901Y-14455605D01*
X733350Y-14451497D01*
X695066Y-14454709D01*
G37*
X695066Y-14454709D02*
X668398Y-14463429D01*
X638170Y-14485598D01*
X613724Y-14515610D01*
X599568Y-14547773D01*
X598811Y-14551310D01*
X596929Y-14575867D01*
X601642Y-14600229D01*
X614187Y-14626675D01*
X635801Y-14657484D01*
X667720Y-14694935D01*
X689606Y-14718647D01*
X736210Y-14770399D01*
X772787Y-14816566D01*
X802021Y-14861068D01*
X826598Y-14907824D01*
X840112Y-14938318D01*
X851002Y-14967393D01*
X857414Y-14994418D01*
X860423Y-15025652D01*
X861109Y-15060394D01*
X860673Y-15096419D01*
X858385Y-15122411D01*
X852970Y-15144198D01*
X843155Y-15167612D01*
X833368Y-15187338D01*
X804692Y-15231787D01*
X766139Y-15270985D01*
X716815Y-15305335D01*
X655828Y-15335242D01*
X582284Y-15361111D01*
X495289Y-15383346D01*
X393952Y-15402352D01*
X341313Y-15410256D01*
X307453Y-15414478D01*
X271418Y-15417811D01*
X230917Y-15420343D01*
X183661Y-15422163D01*
X127359Y-15423360D01*
X59723Y-15424023D01*
X-19843Y-15424239D01*
X-170045Y-15422648D01*
X-308563Y-15417534D01*
X-439267Y-15408546D01*
X-566029Y-15395334D01*
X-692719Y-15377546D01*
X-823208Y-15354831D01*
X-856668Y-15348383D01*
X-928328Y-15335392D01*
X-986509Y-15327670D01*
X-1032846Y-15325640D01*
X-1068979Y-15329728D01*
X-1096545Y-15340356D01*
X-1117180Y-15357949D01*
X-1132523Y-15382929D01*
X-1144211Y-15415722D01*
X-1146276Y-15423341D01*
X-1153369Y-15475567D01*
X-1146336Y-15521661D01*
X-1125641Y-15560595D01*
X-1091751Y-15591342D01*
X-1063399Y-15606228D01*
X-1021876Y-15620523D01*
X-966474Y-15634853D01*
X-899182Y-15648909D01*
X-821990Y-15662379D01*
X-736891Y-15674950D01*
X-645875Y-15686312D01*
X-550932Y-15696153D01*
X-454053Y-15704161D01*
X-424791Y-15706167D01*
X-379416Y-15708461D01*
X-322495Y-15710296D01*
X-256671Y-15711675D01*
X-184584Y-15712599D01*
X-108875Y-15713071D01*
X-32185Y-15713093D01*
X42846Y-15712667D01*
X113575Y-15711795D01*
X177362Y-15710479D01*
X231566Y-15708723D01*
X273546Y-15706527D01*
X285750Y-15705577D01*
X432534Y-15688695D01*
X564992Y-15665235D01*
X683301Y-15635070D01*
X787642Y-15598074D01*
X878192Y-15554119D01*
X955130Y-15503080D01*
X1018635Y-15444830D01*
X1068885Y-15379242D01*
X1106060Y-15306189D01*
X1130337Y-15225544D01*
X1141896Y-15137181D01*
X1143000Y-15097676D01*
X1135854Y-14993249D01*
X1114135Y-14893365D01*
X1077425Y-14796652D01*
X1025303Y-14701736D01*
X1019200Y-14692247D01*
X993530Y-14656140D01*
X962007Y-14616798D01*
X927182Y-14576929D01*
X891605Y-14539242D01*
X857827Y-14506444D01*
X828399Y-14481243D01*
X806910Y-14466864D01*
X772901Y-14455605D01*
X733350Y-14451497D01*
X695066Y-14454709D01*
G36*
X-846516Y-13381563D02*
G01*
X-882080Y-13405428D01*
X-905472Y-13436714D01*
X-917813Y-13477452D01*
X-920488Y-13515750D01*
X-918344Y-13554106D01*
X-910521Y-13584594D01*
X-894934Y-13610128D01*
X-869498Y-13633622D01*
X-832128Y-13657991D01*
X-809625Y-13670698D01*
X-786279Y-13683527D01*
X-750963Y-13702979D01*
X-705601Y-13727996D01*
X-652112Y-13757514D01*
X-592419Y-13790475D01*
X-528444Y-13825818D01*
X-462107Y-13862481D01*
X-432593Y-13878798D01*
X-367555Y-13914714D01*
X-305471Y-13948912D01*
X-248012Y-13980478D01*
X-196847Y-14008498D01*
X-153646Y-14032059D01*
X-120079Y-14050248D01*
X-97815Y-14062150D01*
X-91034Y-14065666D01*
X-46488Y-14082953D01*
X-2282Y-14090970D01*
X36594Y-14088928D01*
X43955Y-14087044D01*
X77768Y-14069296D01*
X102510Y-14041456D01*
X117373Y-14006986D01*
X121551Y-13969350D01*
X114236Y-13932007D01*
X94621Y-13898422D01*
X89278Y-13892589D01*
X74256Y-13881471D01*
X46107Y-13864805D01*
X6286Y-13843317D01*
X-43751Y-13817734D01*
X-102551Y-13788783D01*
X-168658Y-13757190D01*
X-240616Y-13723682D01*
X-316971Y-13688985D01*
X-331324Y-13682556D01*
X-369756Y-13665160D01*
X-402261Y-13650028D01*
X-426443Y-13638308D01*
X-439910Y-13631148D01*
X-441857Y-13629524D01*
X-433420Y-13629172D01*
X-412587Y-13630191D01*
X-382758Y-13632377D01*
X-356595Y-13634652D01*
X-176032Y-13647860D01*
X18774Y-13655497D01*
X227197Y-13657552D01*
X448613Y-13654013D01*
X555625Y-13650467D01*
X640896Y-13647062D01*
X711839Y-13643767D01*
X769996Y-13640280D01*
X816909Y-13636297D01*
X854120Y-13631516D01*
X883171Y-13625635D01*
X905603Y-13618351D01*
X922959Y-13609361D01*
X936780Y-13598362D01*
X948609Y-13585052D01*
X958454Y-13571393D01*
X969681Y-13549994D01*
X975122Y-13524550D01*
X976313Y-13495906D01*
X970960Y-13449612D01*
X954186Y-13413332D01*
X924917Y-13385040D01*
X913783Y-13377949D01*
X905613Y-13373470D01*
X897031Y-13370050D01*
X886138Y-13367657D01*
X871038Y-13366259D01*
X849833Y-13365823D01*
X820626Y-13366317D01*
X781519Y-13367709D01*
X730616Y-13369967D01*
X666020Y-13373057D01*
X655841Y-13373551D01*
X564777Y-13377231D01*
X460708Y-13380148D01*
X346486Y-13382301D01*
X224964Y-13383690D01*
X98992Y-13384316D01*
X-28578Y-13384178D01*
X-154892Y-13383276D01*
X-277101Y-13381609D01*
X-392351Y-13379178D01*
X-497791Y-13375983D01*
X-556797Y-13373626D01*
X-808002Y-13362471D01*
X-846516Y-13381563D01*
G37*
X-846516Y-13381563D02*
X-882080Y-13405428D01*
X-905472Y-13436714D01*
X-917813Y-13477452D01*
X-920488Y-13515750D01*
X-918344Y-13554106D01*
X-910521Y-13584594D01*
X-894934Y-13610128D01*
X-869498Y-13633622D01*
X-832128Y-13657991D01*
X-809625Y-13670698D01*
X-786279Y-13683527D01*
X-750963Y-13702979D01*
X-705601Y-13727996D01*
X-652112Y-13757514D01*
X-592419Y-13790475D01*
X-528444Y-13825818D01*
X-462107Y-13862481D01*
X-432593Y-13878798D01*
X-367555Y-13914714D01*
X-305471Y-13948912D01*
X-248012Y-13980478D01*
X-196847Y-14008498D01*
X-153646Y-14032059D01*
X-120079Y-14050248D01*
X-97815Y-14062150D01*
X-91034Y-14065666D01*
X-46488Y-14082953D01*
X-2282Y-14090970D01*
X36594Y-14088928D01*
X43955Y-14087044D01*
X77768Y-14069296D01*
X102510Y-14041456D01*
X117373Y-14006986D01*
X121551Y-13969350D01*
X114236Y-13932007D01*
X94621Y-13898422D01*
X89278Y-13892589D01*
X74256Y-13881471D01*
X46107Y-13864805D01*
X6286Y-13843317D01*
X-43751Y-13817734D01*
X-102551Y-13788783D01*
X-168658Y-13757190D01*
X-240616Y-13723682D01*
X-316971Y-13688985D01*
X-331324Y-13682556D01*
X-369756Y-13665160D01*
X-402261Y-13650028D01*
X-426443Y-13638308D01*
X-439910Y-13631148D01*
X-441857Y-13629524D01*
X-433420Y-13629172D01*
X-412587Y-13630191D01*
X-382758Y-13632377D01*
X-356595Y-13634652D01*
X-176032Y-13647860D01*
X18774Y-13655497D01*
X227197Y-13657552D01*
X448613Y-13654013D01*
X555625Y-13650467D01*
X640896Y-13647062D01*
X711839Y-13643767D01*
X769996Y-13640280D01*
X816909Y-13636297D01*
X854120Y-13631516D01*
X883171Y-13625635D01*
X905603Y-13618351D01*
X922959Y-13609361D01*
X936780Y-13598362D01*
X948609Y-13585052D01*
X958454Y-13571393D01*
X969681Y-13549994D01*
X975122Y-13524550D01*
X976313Y-13495906D01*
X970960Y-13449612D01*
X954186Y-13413332D01*
X924917Y-13385040D01*
X913783Y-13377949D01*
X905613Y-13373470D01*
X897031Y-13370050D01*
X886138Y-13367657D01*
X871038Y-13366259D01*
X849833Y-13365823D01*
X820626Y-13366317D01*
X781519Y-13367709D01*
X730616Y-13369967D01*
X666020Y-13373057D01*
X655841Y-13373551D01*
X564777Y-13377231D01*
X460708Y-13380148D01*
X346486Y-13382301D01*
X224964Y-13383690D01*
X98992Y-13384316D01*
X-28578Y-13384178D01*
X-154892Y-13383276D01*
X-277101Y-13381609D01*
X-392351Y-13379178D01*
X-497791Y-13375983D01*
X-556797Y-13373626D01*
X-808002Y-13362471D01*
X-846516Y-13381563D01*
%TO.C,U4*%
D10*
X6271428Y10095000D02*
X6342857Y10130714D01*
X6450000Y10130714D01*
X6557142Y10095000D01*
X6628571Y10023571D01*
X6664285Y9952142D01*
X6700000Y9809285D01*
X6700000Y9702142D01*
X6664285Y9559285D01*
X6628571Y9487857D01*
X6557142Y9416428D01*
X6450000Y9380714D01*
X6378571Y9380714D01*
X6271428Y9416428D01*
X6235714Y9452142D01*
X6235714Y9702142D01*
X6378571Y9702142D01*
X5914285Y9380714D02*
X5914285Y10130714D01*
X5485714Y9380714D01*
X5485714Y10130714D01*
X5128571Y9380714D02*
X5128571Y10130714D01*
X4950000Y10130714D01*
X4842857Y10095000D01*
X4771428Y10023571D01*
X4735714Y9952142D01*
X4700000Y9809285D01*
X4700000Y9702142D01*
X4735714Y9559285D01*
X4771428Y9487857D01*
X4842857Y9416428D01*
X4950000Y9380714D01*
X5128571Y9380714D01*
X-4950000Y13630714D02*
X-5021428Y13630714D01*
X-5092857Y13595000D01*
X-5128571Y13559285D01*
X-5164285Y13487857D01*
X-5200000Y13345000D01*
X-5200000Y13166428D01*
X-5164285Y13023571D01*
X-5128571Y12952142D01*
X-5092857Y12916428D01*
X-5021428Y12880714D01*
X-4950000Y12880714D01*
X-4878571Y12916428D01*
X-4842857Y12952142D01*
X-4807142Y13023571D01*
X-4771428Y13166428D01*
X-4771428Y13345000D01*
X-4807142Y13487857D01*
X-4842857Y13559285D01*
X-4878571Y13595000D01*
X-4950000Y13630714D01*
X-5664285Y13630714D02*
X-5735714Y13630714D01*
X-5807142Y13595000D01*
X-5842857Y13559285D01*
X-5878571Y13487857D01*
X-5914285Y13345000D01*
X-5914285Y13166428D01*
X-5878571Y13023571D01*
X-5842857Y12952142D01*
X-5807142Y12916428D01*
X-5735714Y12880714D01*
X-5664285Y12880714D01*
X-5592857Y12916428D01*
X-5557142Y12952142D01*
X-5521428Y13023571D01*
X-5485714Y13166428D01*
X-5485714Y13345000D01*
X-5521428Y13487857D01*
X-5557142Y13559285D01*
X-5592857Y13595000D01*
X-5664285Y13630714D01*
X-6557142Y13630714D02*
X-6414285Y13630714D01*
X-6342857Y13595000D01*
X-6307142Y13559285D01*
X-6235714Y13452142D01*
X-6199999Y13309285D01*
X-6199999Y13023571D01*
X-6235714Y12952142D01*
X-6271428Y12916428D01*
X-6342857Y12880714D01*
X-6485714Y12880714D01*
X-6557142Y12916428D01*
X-6592857Y12952142D01*
X-6628571Y13023571D01*
X-6628571Y13202142D01*
X-6592857Y13273571D01*
X-6557142Y13309285D01*
X-6485714Y13345000D01*
X-6342857Y13345000D01*
X-6271428Y13309285D01*
X-6235714Y13273571D01*
X-6199999Y13202142D01*
X-6439285Y-13083000D02*
X-6439285Y-13511571D01*
X-6439285Y-13297285D02*
X-5689285Y-13297285D01*
X-5796428Y-13368714D01*
X-5867857Y-13440142D01*
X-5903571Y-13511571D01*
X-5689285Y-12618714D02*
X-5689285Y-12547285D01*
X-5725000Y-12475857D01*
X-5760714Y-12440142D01*
X-5832142Y-12404428D01*
X-5975000Y-12368714D01*
X-6153571Y-12368714D01*
X-6296428Y-12404428D01*
X-6367857Y-12440142D01*
X-6403571Y-12475857D01*
X-6439285Y-12547285D01*
X-6439285Y-12618714D01*
X-6403571Y-12690142D01*
X-6367857Y-12725857D01*
X-6296428Y-12761571D01*
X-6153571Y-12797285D01*
X-5975000Y-12797285D01*
X-5832142Y-12761571D01*
X-5760714Y-12725857D01*
X-5725000Y-12690142D01*
X-5689285Y-12618714D01*
X-5939285Y-11725857D02*
X-6439285Y-11725857D01*
X-5653571Y-11904428D02*
X-6189285Y-12083000D01*
X-6189285Y-11618714D01*
X-5689285Y-760000D02*
X-5689285Y-688571D01*
X-5725000Y-617142D01*
X-5760714Y-581428D01*
X-5832142Y-545714D01*
X-5975000Y-510000D01*
X-6153571Y-510000D01*
X-6296428Y-545714D01*
X-6367857Y-581428D01*
X-6403571Y-617142D01*
X-6439285Y-688571D01*
X-6439285Y-759999D01*
X-6403571Y-831428D01*
X-6367857Y-867142D01*
X-6296428Y-902857D01*
X-6153571Y-938571D01*
X-5975000Y-938571D01*
X-5832142Y-902857D01*
X-5760714Y-867142D01*
X-5725000Y-831428D01*
X-5689285Y-760000D01*
X-5760714Y-224285D02*
X-5725000Y-188571D01*
X-5689285Y-117142D01*
X-5689285Y61428D01*
X-5725000Y132857D01*
X-5760714Y168571D01*
X-5832142Y204285D01*
X-5903571Y204285D01*
X-6010714Y168571D01*
X-6439285Y-260000D01*
X-6439285Y204285D01*
X-5689285Y668571D02*
X-5689285Y739999D01*
X-5725000Y811428D01*
X-5760714Y847142D01*
X-5832142Y882857D01*
X-5975000Y918571D01*
X-6153571Y918571D01*
X-6296428Y882857D01*
X-6367857Y847142D01*
X-6403571Y811428D01*
X-6439285Y739999D01*
X-6439285Y668571D01*
X-6403571Y597142D01*
X-6367857Y561428D01*
X-6296428Y525714D01*
X-6153571Y489999D01*
X-5975000Y489999D01*
X-5832142Y525714D01*
X-5760714Y561428D01*
X-5725000Y597142D01*
X-5689285Y668571D01*
X-4950000Y10130714D02*
X-5021428Y10130714D01*
X-5092857Y10095000D01*
X-5128571Y10059285D01*
X-5164285Y9987857D01*
X-5200000Y9845000D01*
X-5200000Y9666428D01*
X-5164285Y9523571D01*
X-5128571Y9452142D01*
X-5092857Y9416428D01*
X-5021428Y9380714D01*
X-4950000Y9380714D01*
X-4878571Y9416428D01*
X-4842857Y9452142D01*
X-4807142Y9523571D01*
X-4771428Y9666428D01*
X-4771428Y9845000D01*
X-4807142Y9987857D01*
X-4842857Y10059285D01*
X-4878571Y10095000D01*
X-4950000Y10130714D01*
X-5664285Y10130714D02*
X-5735714Y10130714D01*
X-5807142Y10095000D01*
X-5842857Y10059285D01*
X-5878571Y9987857D01*
X-5914285Y9845000D01*
X-5914285Y9666428D01*
X-5878571Y9523571D01*
X-5842857Y9452142D01*
X-5807142Y9416428D01*
X-5735714Y9380714D01*
X-5664285Y9380714D01*
X-5592857Y9416428D01*
X-5557142Y9452142D01*
X-5521428Y9523571D01*
X-5485714Y9666428D01*
X-5485714Y9845000D01*
X-5521428Y9987857D01*
X-5557142Y10059285D01*
X-5592857Y10095000D01*
X-5664285Y10130714D01*
X-6342857Y9809285D02*
X-6271428Y9845000D01*
X-6235714Y9880714D01*
X-6199999Y9952142D01*
X-6199999Y9987857D01*
X-6235714Y10059285D01*
X-6271428Y10095000D01*
X-6342857Y10130714D01*
X-6485714Y10130714D01*
X-6557142Y10095000D01*
X-6592857Y10059285D01*
X-6628571Y9987857D01*
X-6628571Y9952142D01*
X-6592857Y9880714D01*
X-6557142Y9845000D01*
X-6485714Y9809285D01*
X-6342857Y9809285D01*
X-6271428Y9773571D01*
X-6235714Y9737857D01*
X-6199999Y9666428D01*
X-6199999Y9523571D01*
X-6235714Y9452142D01*
X-6271428Y9416428D01*
X-6342857Y9380714D01*
X-6485714Y9380714D01*
X-6557142Y9416428D01*
X-6592857Y9452142D01*
X-6628571Y9523571D01*
X-6628571Y9666428D01*
X-6592857Y9737857D01*
X-6557142Y9773571D01*
X-6485714Y9809285D01*
X-5689285Y-3300000D02*
X-5689285Y-3228571D01*
X-5725000Y-3157142D01*
X-5760714Y-3121428D01*
X-5832142Y-3085714D01*
X-5975000Y-3050000D01*
X-6153571Y-3050000D01*
X-6296428Y-3085714D01*
X-6367857Y-3121428D01*
X-6403571Y-3157142D01*
X-6439285Y-3228571D01*
X-6439285Y-3300000D01*
X-6403571Y-3371428D01*
X-6367857Y-3407142D01*
X-6296428Y-3442857D01*
X-6153571Y-3478571D01*
X-5975000Y-3478571D01*
X-5832142Y-3442857D01*
X-5760714Y-3407142D01*
X-5725000Y-3371428D01*
X-5689285Y-3300000D01*
X-5760714Y-2764285D02*
X-5725000Y-2728571D01*
X-5689285Y-2657142D01*
X-5689285Y-2478571D01*
X-5725000Y-2407142D01*
X-5760714Y-2371428D01*
X-5832142Y-2335714D01*
X-5903571Y-2335714D01*
X-6010714Y-2371428D01*
X-6439285Y-2800000D01*
X-6439285Y-2335714D01*
X-5760714Y-2050000D02*
X-5725000Y-2014285D01*
X-5689285Y-1942857D01*
X-5689285Y-1764285D01*
X-5725000Y-1692857D01*
X-5760714Y-1657142D01*
X-5832142Y-1621428D01*
X-5903571Y-1621428D01*
X-6010714Y-1657142D01*
X-6439285Y-2085714D01*
X-6439285Y-1621428D01*
X-5689285Y1780000D02*
X-5689285Y1851428D01*
X-5725000Y1922857D01*
X-5760714Y1958571D01*
X-5832142Y1994285D01*
X-5975000Y2030000D01*
X-6153571Y2030000D01*
X-6296428Y1994285D01*
X-6367857Y1958571D01*
X-6403571Y1922857D01*
X-6439285Y1851428D01*
X-6439285Y1780000D01*
X-6403571Y1708571D01*
X-6367857Y1672857D01*
X-6296428Y1637142D01*
X-6153571Y1601428D01*
X-5975000Y1601428D01*
X-5832142Y1637142D01*
X-5760714Y1672857D01*
X-5725000Y1708571D01*
X-5689285Y1780000D01*
X-6439285Y2744285D02*
X-6439285Y2315714D01*
X-6439285Y2529999D02*
X-5689285Y2529999D01*
X-5796428Y2458571D01*
X-5867857Y2387142D01*
X-5903571Y2315714D01*
X-5689285Y2994285D02*
X-5689285Y3494285D01*
X-6439285Y3172857D01*
X-5689285Y-5840000D02*
X-5689285Y-5768571D01*
X-5725000Y-5697142D01*
X-5760714Y-5661428D01*
X-5832142Y-5625714D01*
X-5975000Y-5590000D01*
X-6153571Y-5590000D01*
X-6296428Y-5625714D01*
X-6367857Y-5661428D01*
X-6403571Y-5697142D01*
X-6439285Y-5768571D01*
X-6439285Y-5840000D01*
X-6403571Y-5911428D01*
X-6367857Y-5947142D01*
X-6296428Y-5982857D01*
X-6153571Y-6018571D01*
X-5975000Y-6018571D01*
X-5832142Y-5982857D01*
X-5760714Y-5947142D01*
X-5725000Y-5911428D01*
X-5689285Y-5840000D01*
X-5760714Y-5304285D02*
X-5725000Y-5268571D01*
X-5689285Y-5197142D01*
X-5689285Y-5018571D01*
X-5725000Y-4947142D01*
X-5760714Y-4911428D01*
X-5832142Y-4875714D01*
X-5903571Y-4875714D01*
X-6010714Y-4911428D01*
X-6439285Y-5340000D01*
X-6439285Y-4875714D01*
X-5939285Y-4232857D02*
X-6439285Y-4232857D01*
X-5653571Y-4411428D02*
X-6189285Y-4590000D01*
X-6189285Y-4125714D01*
X-5689285Y-10920000D02*
X-5689285Y-10848571D01*
X-5725000Y-10777142D01*
X-5760714Y-10741428D01*
X-5832142Y-10705714D01*
X-5975000Y-10670000D01*
X-6153571Y-10670000D01*
X-6296428Y-10705714D01*
X-6367857Y-10741428D01*
X-6403571Y-10777142D01*
X-6439285Y-10848571D01*
X-6439285Y-10920000D01*
X-6403571Y-10991428D01*
X-6367857Y-11027142D01*
X-6296428Y-11062857D01*
X-6153571Y-11098571D01*
X-5975000Y-11098571D01*
X-5832142Y-11062857D01*
X-5760714Y-11027142D01*
X-5725000Y-10991428D01*
X-5689285Y-10920000D01*
X-6439285Y-9955714D02*
X-6439285Y-10384285D01*
X-6439285Y-10170000D02*
X-5689285Y-10170000D01*
X-5796428Y-10241428D01*
X-5867857Y-10312857D01*
X-5903571Y-10384285D01*
X-6439285Y-9241428D02*
X-6439285Y-9670000D01*
X-6439285Y-9455714D02*
X-5689285Y-9455714D01*
X-5796428Y-9527142D01*
X-5867857Y-9598571D01*
X-5903571Y-9670000D01*
X-6439285Y-8130000D02*
X-6439285Y-8558571D01*
X-6439285Y-8344285D02*
X-5689285Y-8344285D01*
X-5796428Y-8415714D01*
X-5867857Y-8487142D01*
X-5903571Y-8558571D01*
X-5689285Y-7665714D02*
X-5689285Y-7594285D01*
X-5725000Y-7522857D01*
X-5760714Y-7487142D01*
X-5832142Y-7451428D01*
X-5975000Y-7415714D01*
X-6153571Y-7415714D01*
X-6296428Y-7451428D01*
X-6367857Y-7487142D01*
X-6403571Y-7522857D01*
X-6439285Y-7594285D01*
X-6439285Y-7665714D01*
X-6403571Y-7737142D01*
X-6367857Y-7772857D01*
X-6296428Y-7808571D01*
X-6153571Y-7844285D01*
X-5975000Y-7844285D01*
X-5832142Y-7808571D01*
X-5760714Y-7772857D01*
X-5725000Y-7737142D01*
X-5689285Y-7665714D01*
X-5689285Y-6951428D02*
X-5689285Y-6880000D01*
X-5725000Y-6808571D01*
X-5760714Y-6772857D01*
X-5832142Y-6737142D01*
X-5975000Y-6701428D01*
X-6153571Y-6701428D01*
X-6296428Y-6737142D01*
X-6367857Y-6772857D01*
X-6403571Y-6808571D01*
X-6439285Y-6880000D01*
X-6439285Y-6951428D01*
X-6403571Y-7022857D01*
X-6367857Y-7058571D01*
X-6296428Y-7094285D01*
X-6153571Y-7130000D01*
X-5975000Y-7130000D01*
X-5832142Y-7094285D01*
X-5760714Y-7058571D01*
X-5725000Y-7022857D01*
X-5689285Y-6951428D01*
X-6439285Y-15750000D02*
X-6439285Y-16178571D01*
X-6439285Y-15964285D02*
X-5689285Y-15964285D01*
X-5796428Y-16035714D01*
X-5867857Y-16107142D01*
X-5903571Y-16178571D01*
X-5689285Y-15285714D02*
X-5689285Y-15214285D01*
X-5725000Y-15142857D01*
X-5760714Y-15107142D01*
X-5832142Y-15071428D01*
X-5975000Y-15035714D01*
X-6153571Y-15035714D01*
X-6296428Y-15071428D01*
X-6367857Y-15107142D01*
X-6403571Y-15142857D01*
X-6439285Y-15214285D01*
X-6439285Y-15285714D01*
X-6403571Y-15357142D01*
X-6367857Y-15392857D01*
X-6296428Y-15428571D01*
X-6153571Y-15464285D01*
X-5975000Y-15464285D01*
X-5832142Y-15428571D01*
X-5760714Y-15392857D01*
X-5725000Y-15357142D01*
X-5689285Y-15285714D01*
X-5689285Y-14392857D02*
X-5689285Y-14535714D01*
X-5725000Y-14607142D01*
X-5760714Y-14642857D01*
X-5867857Y-14714285D01*
X-6010714Y-14750000D01*
X-6296428Y-14750000D01*
X-6367857Y-14714285D01*
X-6403571Y-14678571D01*
X-6439285Y-14607142D01*
X-6439285Y-14464285D01*
X-6403571Y-14392857D01*
X-6367857Y-14357142D01*
X-6296428Y-14321428D01*
X-6117857Y-14321428D01*
X-6046428Y-14357142D01*
X-6010714Y-14392857D01*
X-5975000Y-14464285D01*
X-5975000Y-14607142D01*
X-6010714Y-14678571D01*
X-6046428Y-14714285D01*
X-6117857Y-14750000D01*
X6253571Y13273571D02*
X6146428Y13237857D01*
X6110714Y13202142D01*
X6075000Y13130714D01*
X6075000Y13023571D01*
X6110714Y12952142D01*
X6146428Y12916428D01*
X6217857Y12880714D01*
X6503571Y12880714D01*
X6503571Y13630714D01*
X6253571Y13630714D01*
X6182142Y13595000D01*
X6146428Y13559285D01*
X6110714Y13487857D01*
X6110714Y13416428D01*
X6146428Y13345000D01*
X6182142Y13309285D01*
X6253571Y13273571D01*
X6503571Y13273571D01*
X5789285Y13095000D02*
X5432142Y13095000D01*
X5860714Y12880714D02*
X5610714Y13630714D01*
X5360714Y12880714D01*
X5217857Y13630714D02*
X4789285Y13630714D01*
X5003571Y12880714D02*
X5003571Y13630714D01*
X6439285Y-9670000D02*
X6439285Y-9241428D01*
X6439285Y-9455714D02*
X5689285Y-9455714D01*
X5796428Y-9384285D01*
X5867857Y-9312857D01*
X5903571Y-9241428D01*
X6439285Y-10384285D02*
X6439285Y-9955714D01*
X6439285Y-10170000D02*
X5689285Y-10169999D01*
X5796428Y-10098571D01*
X5867857Y-10027142D01*
X5903571Y-9955714D01*
X6439285Y-11098571D02*
X6439285Y-10670000D01*
X6439285Y-10884285D02*
X5689285Y-10884285D01*
X5796428Y-10812857D01*
X5867857Y-10741428D01*
X5903571Y-10670000D01*
X5689285Y-11960000D02*
X5689285Y-12031428D01*
X5725000Y-12102857D01*
X5760714Y-12138571D01*
X5832142Y-12174285D01*
X5975000Y-12210000D01*
X6153571Y-12210000D01*
X6296428Y-12174285D01*
X6367857Y-12138571D01*
X6403571Y-12102857D01*
X6439285Y-12031428D01*
X6439285Y-11960000D01*
X6403571Y-11888571D01*
X6367857Y-11852857D01*
X6296428Y-11817142D01*
X6153571Y-11781428D01*
X5975000Y-11781428D01*
X5832142Y-11817142D01*
X5760714Y-11852857D01*
X5725000Y-11888571D01*
X5689285Y-11960000D01*
X6439285Y-12924285D02*
X6439285Y-12495714D01*
X6439285Y-12710000D02*
X5689285Y-12709999D01*
X5796428Y-12638571D01*
X5867857Y-12567142D01*
X5903571Y-12495714D01*
X5689285Y-13388571D02*
X5689285Y-13460000D01*
X5725000Y-13531428D01*
X5760714Y-13567142D01*
X5832142Y-13602857D01*
X5975000Y-13638571D01*
X6153571Y-13638571D01*
X6296428Y-13602857D01*
X6367857Y-13567142D01*
X6403571Y-13531428D01*
X6439285Y-13460000D01*
X6439285Y-13388571D01*
X6403571Y-13317142D01*
X6367857Y-13281428D01*
X6296428Y-13245714D01*
X6153571Y-13210000D01*
X5975000Y-13210000D01*
X5832142Y-13245714D01*
X5760714Y-13281428D01*
X5725000Y-13317142D01*
X5689285Y-13388571D01*
X5689285Y6070000D02*
X6439285Y5820000D01*
X5689285Y5570000D01*
X6367857Y4891428D02*
X6403571Y4927142D01*
X6439285Y5034285D01*
X6439285Y5105714D01*
X6403571Y5212857D01*
X6332142Y5284285D01*
X6260714Y5320000D01*
X6117857Y5355714D01*
X6010714Y5355714D01*
X5867857Y5320000D01*
X5796428Y5284285D01*
X5725000Y5212857D01*
X5689285Y5105714D01*
X5689285Y5034285D01*
X5725000Y4927142D01*
X5760714Y4891428D01*
X6367857Y4141428D02*
X6403571Y4177142D01*
X6439285Y4284285D01*
X6439285Y4355714D01*
X6403571Y4462857D01*
X6332142Y4534285D01*
X6260714Y4570000D01*
X6117857Y4605714D01*
X6010714Y4605714D01*
X5867857Y4570000D01*
X5796428Y4534285D01*
X5725000Y4462857D01*
X5689285Y4355714D01*
X5689285Y4284285D01*
X5725000Y4177142D01*
X5760714Y4141428D01*
X5689285Y3280000D02*
X5689285Y3208571D01*
X5725000Y3137142D01*
X5760714Y3101428D01*
X5832142Y3065714D01*
X5975000Y3030000D01*
X6153571Y3030000D01*
X6296428Y3065714D01*
X6367857Y3101428D01*
X6403571Y3137142D01*
X6439285Y3208571D01*
X6439285Y3280000D01*
X6403571Y3351428D01*
X6367857Y3387142D01*
X6296428Y3422857D01*
X6153571Y3458571D01*
X5975000Y3458571D01*
X5832142Y3422857D01*
X5760714Y3387142D01*
X5725000Y3351428D01*
X5689285Y3280000D01*
X6439285Y2315714D02*
X6439285Y2744285D01*
X6439285Y2530000D02*
X5689285Y2530000D01*
X5796428Y2601428D01*
X5867857Y2672857D01*
X5903571Y2744285D01*
X6439285Y1601428D02*
X6439285Y2030000D01*
X6439285Y1815714D02*
X5689285Y1815714D01*
X5796428Y1887142D01*
X5867857Y1958571D01*
X5903571Y2030000D01*
X6439285Y-7130000D02*
X6439285Y-6701428D01*
X6439285Y-6915714D02*
X5689285Y-6915714D01*
X5796428Y-6844285D01*
X5867857Y-6772857D01*
X5903571Y-6701428D01*
X6439285Y-7844285D02*
X6439285Y-7415714D01*
X6439285Y-7629999D02*
X5689285Y-7629999D01*
X5796428Y-7558571D01*
X5867857Y-7487142D01*
X5903571Y-7415714D01*
X5689285Y-8094285D02*
X5689285Y-8558571D01*
X5975000Y-8308571D01*
X5975000Y-8415714D01*
X6010714Y-8487142D01*
X6046428Y-8522857D01*
X6117857Y-8558571D01*
X6296428Y-8558571D01*
X6367857Y-8522857D01*
X6403571Y-8487142D01*
X6439285Y-8415714D01*
X6439285Y-8201428D01*
X6403571Y-8129999D01*
X6367857Y-8094285D01*
X5689285Y-14500000D02*
X5689285Y-14571428D01*
X5725000Y-14642857D01*
X5760714Y-14678571D01*
X5832142Y-14714285D01*
X5975000Y-14750000D01*
X6153571Y-14750000D01*
X6296428Y-14714285D01*
X6367857Y-14678571D01*
X6403571Y-14642857D01*
X6439285Y-14571428D01*
X6439285Y-14500000D01*
X6403571Y-14428571D01*
X6367857Y-14392857D01*
X6296428Y-14357142D01*
X6153571Y-14321428D01*
X5975000Y-14321428D01*
X5832142Y-14357142D01*
X5760714Y-14392857D01*
X5725000Y-14428571D01*
X5689285Y-14500000D01*
X5689285Y-15214285D02*
X5689285Y-15285714D01*
X5725000Y-15357142D01*
X5760714Y-15392857D01*
X5832142Y-15428571D01*
X5975000Y-15464285D01*
X6153571Y-15464285D01*
X6296428Y-15428571D01*
X6367857Y-15392857D01*
X6403571Y-15357142D01*
X6439285Y-15285714D01*
X6439285Y-15214285D01*
X6403571Y-15142857D01*
X6367857Y-15107142D01*
X6296428Y-15071428D01*
X6153571Y-15035714D01*
X5975000Y-15035714D01*
X5832142Y-15071428D01*
X5760714Y-15107142D01*
X5725000Y-15142857D01*
X5689285Y-15214285D01*
X6439285Y-15821428D02*
X6439285Y-15964285D01*
X6403571Y-16035714D01*
X6367857Y-16071428D01*
X6260714Y-16142857D01*
X6117857Y-16178571D01*
X5832142Y-16178571D01*
X5760714Y-16142857D01*
X5725000Y-16107142D01*
X5689285Y-16035714D01*
X5689285Y-15892857D01*
X5725000Y-15821428D01*
X5760714Y-15785714D01*
X5832142Y-15750000D01*
X6010714Y-15750000D01*
X6082142Y-15785714D01*
X6117857Y-15821428D01*
X6153571Y-15892857D01*
X6153571Y-16035714D01*
X6117857Y-16107142D01*
X6082142Y-16142857D01*
X6010714Y-16178571D01*
X6439285Y-4590000D02*
X6439285Y-4161428D01*
X6439285Y-4375714D02*
X5689285Y-4375714D01*
X5796428Y-4304285D01*
X5867857Y-4232857D01*
X5903571Y-4161428D01*
X6439285Y-5304285D02*
X6439285Y-4875714D01*
X6439285Y-5089999D02*
X5689285Y-5089999D01*
X5796428Y-5018571D01*
X5867857Y-4947142D01*
X5903571Y-4875714D01*
X5689285Y-5982857D02*
X5689285Y-5625714D01*
X6046428Y-5589999D01*
X6010714Y-5625714D01*
X5975000Y-5697142D01*
X5975000Y-5875714D01*
X6010714Y-5947142D01*
X6046428Y-5982857D01*
X6117857Y-6018571D01*
X6296428Y-6018571D01*
X6367857Y-5982857D01*
X6403571Y-5947142D01*
X6439285Y-5875714D01*
X6439285Y-5697142D01*
X6403571Y-5625714D01*
X6367857Y-5589999D01*
X6439285Y8020714D02*
X6082142Y8270714D01*
X6439285Y8449285D02*
X5689285Y8449285D01*
X5689285Y8163571D01*
X5725000Y8092142D01*
X5760714Y8056428D01*
X5832142Y8020714D01*
X5939285Y8020714D01*
X6010714Y8056428D01*
X6046428Y8092142D01*
X6082142Y8163571D01*
X6082142Y8449285D01*
X6403571Y7735000D02*
X6439285Y7627857D01*
X6439285Y7449285D01*
X6403571Y7377857D01*
X6367857Y7342142D01*
X6296428Y7306428D01*
X6225000Y7306428D01*
X6153571Y7342142D01*
X6117857Y7377857D01*
X6082142Y7449285D01*
X6046428Y7592142D01*
X6010714Y7663571D01*
X5975000Y7699285D01*
X5903571Y7735000D01*
X5832142Y7735000D01*
X5760714Y7699285D01*
X5725000Y7663571D01*
X5689285Y7592142D01*
X5689285Y7413571D01*
X5725000Y7306428D01*
X5689285Y7092142D02*
X5689285Y6663571D01*
X6439285Y6877857D02*
X5689285Y6877857D01*
X5689285Y740000D02*
X5689285Y668571D01*
X5725000Y597142D01*
X5760714Y561428D01*
X5832142Y525714D01*
X5975000Y490000D01*
X6153571Y490000D01*
X6296428Y525714D01*
X6367857Y561428D01*
X6403571Y597142D01*
X6439285Y668571D01*
X6439285Y740000D01*
X6403571Y811428D01*
X6367857Y847142D01*
X6296428Y882857D01*
X6153571Y918571D01*
X5975000Y918571D01*
X5832142Y882857D01*
X5760714Y847142D01*
X5725000Y811428D01*
X5689285Y740000D01*
X5760714Y204285D02*
X5725000Y168571D01*
X5689285Y97142D01*
X5689285Y-81428D01*
X5725000Y-152857D01*
X5760714Y-188571D01*
X5832142Y-224285D01*
X5903571Y-224285D01*
X6010714Y-188571D01*
X6439285Y240000D01*
X6439285Y-224285D01*
X5689285Y-902857D02*
X5689285Y-545714D01*
X6046428Y-509999D01*
X6010714Y-545714D01*
X5975000Y-617142D01*
X5975000Y-795714D01*
X6010714Y-867142D01*
X6046428Y-902857D01*
X6117857Y-938571D01*
X6296428Y-938571D01*
X6367857Y-902857D01*
X6403571Y-867142D01*
X6439285Y-795714D01*
X6439285Y-617142D01*
X6403571Y-545714D01*
X6367857Y-509999D01*
X5689285Y-1800000D02*
X5689285Y-1871428D01*
X5725000Y-1942857D01*
X5760714Y-1978571D01*
X5832142Y-2014285D01*
X5975000Y-2050000D01*
X6153571Y-2050000D01*
X6296428Y-2014285D01*
X6367857Y-1978571D01*
X6403571Y-1942857D01*
X6439285Y-1871428D01*
X6439285Y-1800000D01*
X6403571Y-1728571D01*
X6367857Y-1692857D01*
X6296428Y-1657142D01*
X6153571Y-1621428D01*
X5975000Y-1621428D01*
X5832142Y-1657142D01*
X5760714Y-1692857D01*
X5725000Y-1728571D01*
X5689285Y-1800000D01*
X5689285Y-2514285D02*
X5689285Y-2585714D01*
X5725000Y-2657142D01*
X5760714Y-2692857D01*
X5832142Y-2728571D01*
X5975000Y-2764285D01*
X6153571Y-2764285D01*
X6296428Y-2728571D01*
X6367857Y-2692857D01*
X6403571Y-2657142D01*
X6439285Y-2585714D01*
X6439285Y-2514285D01*
X6403571Y-2442857D01*
X6367857Y-2407142D01*
X6296428Y-2371428D01*
X6153571Y-2335714D01*
X5975000Y-2335714D01*
X5832142Y-2371428D01*
X5760714Y-2407142D01*
X5725000Y-2442857D01*
X5689285Y-2514285D01*
X5760714Y-3049999D02*
X5725000Y-3085714D01*
X5689285Y-3157142D01*
X5689285Y-3335714D01*
X5725000Y-3407142D01*
X5760714Y-3442857D01*
X5832142Y-3478571D01*
X5903571Y-3478571D01*
X6010714Y-3442857D01*
X6439285Y-3014285D01*
X6439285Y-3478571D01*
X-5725000Y7038571D02*
X-5689285Y6967142D01*
X-5689285Y6860000D01*
X-5725000Y6752857D01*
X-5796428Y6681428D01*
X-5867857Y6645714D01*
X-6010714Y6610000D01*
X-6117857Y6610000D01*
X-6260714Y6645714D01*
X-6332142Y6681428D01*
X-6403571Y6752857D01*
X-6439285Y6860000D01*
X-6439285Y6931428D01*
X-6403571Y7038571D01*
X-6367857Y7074285D01*
X-6117857Y7074285D01*
X-6117857Y6931428D01*
X-6439285Y7395714D02*
X-5689285Y7395714D01*
X-6439285Y7824285D01*
X-5689285Y7824285D01*
X-6439285Y8181428D02*
X-5689285Y8181428D01*
X-5689285Y8360000D01*
X-5725000Y8467142D01*
X-5796428Y8538571D01*
X-5867857Y8574285D01*
X-6010714Y8610000D01*
X-6117857Y8610000D01*
X-6260714Y8574285D01*
X-6332142Y8538571D01*
X-6403571Y8467142D01*
X-6439285Y8360000D01*
X-6439285Y8181428D01*
X-5725000Y4498571D02*
X-5689285Y4427142D01*
X-5689285Y4320000D01*
X-5725000Y4212857D01*
X-5796428Y4141428D01*
X-5867857Y4105714D01*
X-6010714Y4070000D01*
X-6117857Y4070000D01*
X-6260714Y4105714D01*
X-6332142Y4141428D01*
X-6403571Y4212857D01*
X-6439285Y4320000D01*
X-6439285Y4391428D01*
X-6403571Y4498571D01*
X-6367857Y4534285D01*
X-6117857Y4534285D01*
X-6117857Y4391428D01*
X-6439285Y4855714D02*
X-5689285Y4855714D01*
X-6439285Y5284285D01*
X-5689285Y5284285D01*
X-6439285Y5641428D02*
X-5689285Y5641428D01*
X-5689285Y5820000D01*
X-5725000Y5927142D01*
X-5796428Y5998571D01*
X-5867857Y6034285D01*
X-6010714Y6070000D01*
X-6117857Y6070000D01*
X-6260714Y6034285D01*
X-6332142Y5998571D01*
X-6403571Y5927142D01*
X-6439285Y5820000D01*
X-6439285Y5641428D01*
%TD*%
%LPC*%
D12*
%TO.C,U4*%
X-7620000Y12690000D03*
X-7620000Y10150000D03*
X-7620000Y7610000D03*
X-7620000Y5070000D03*
X-7620000Y2530000D03*
X-7620000Y-10000D03*
X-7620000Y-2550000D03*
X-7620000Y-5090000D03*
X-7620000Y-7630000D03*
X-7620000Y-10170000D03*
X-7620000Y-12710000D03*
X-7620000Y-15250000D03*
X7620000Y-15250000D03*
X7620000Y-12710000D03*
X7620000Y-10170000D03*
X7620000Y-7630000D03*
X7620000Y-5090000D03*
X7620000Y-2550000D03*
X7620000Y-10000D03*
X7620000Y2530000D03*
X7620000Y5070000D03*
X7620000Y7610000D03*
X7620000Y10150000D03*
X7620000Y12690000D03*
%TD*%
D13*
%TO.C,DUMMY3*%
X-9250000Y750000D03*
X-9250000Y-750000D03*
X-9250000Y0D03*
%TD*%
%TO.C,DUMMY4*%
X9250000Y-750000D03*
X9250000Y750000D03*
X9250000Y0D03*
%TD*%
D12*
%TO.C,J2*%
X7620000Y15230000D03*
%TD*%
%TO.C,J3*%
X-7620000Y15230000D03*
%TD*%
D14*
%TO.C,TP3*%
X-4600000Y-6800000D03*
%TD*%
%TO.C,TP1*%
X-1500000Y-10600000D03*
%TD*%
%TO.C,TP2*%
X-3500000Y-10600000D03*
%TD*%
D15*
%TO.C,J1*%
X-5575000Y15373200D03*
X5575600Y15373200D03*
D16*
X5575600Y11473200D03*
X-5575000Y11473200D03*
%TD*%
M02*
