%TF.GenerationSoftware,KiCad,Pcbnew,(5.1.9)-1*%
%TF.CreationDate,2021-05-18T20:38:47+08:00*%
%TF.ProjectId,mikoto,6d696b6f-746f-42e6-9b69-6361645f7063,rev?*%
%TF.SameCoordinates,Original*%
%TF.FileFunction,Legend,Top*%
%TF.FilePolarity,Positive*%
%FSLAX46Y46*%
G04 Gerber Fmt 4.6, Leading zero omitted, Abs format (unit mm)*
G04 Created by KiCad (PCBNEW (5.1.9)-1) date 2021-05-18 20:38:47*
%MOMM*%
%LPD*%
G01*
G04 APERTURE LIST*
%ADD10C,0.120000*%
%ADD11C,0.150000*%
%ADD12C,0.110000*%
%ADD13C,0.200000*%
%ADD14C,0.010000*%
%ADD15R,0.800000X0.900000*%
%ADD16R,0.700000X0.600000*%
%ADD17R,1.000000X1.600000*%
%ADD18C,1.524000*%
%ADD19C,0.500000*%
%ADD20R,1.060000X0.650000*%
%ADD21R,1.000000X1.800000*%
%ADD22R,0.300000X0.800000*%
%ADD23O,1.000000X2.200000*%
%ADD24O,1.000000X1.800000*%
%ADD25R,0.540000X0.800000*%
%ADD26R,4.000000X4.000000*%
%ADD27C,0.250000*%
G04 APERTURE END LIST*
D10*
X-2350000Y2700000D02*
G75*
G03*
X-2350000Y2700000I-50000J0D01*
G01*
D11*
X5164285Y9178571D02*
X5450000Y9392857D01*
X5735714Y9178571D01*
X-5735714Y9178571D02*
X-5450000Y9392857D01*
X-5164285Y9178571D01*
D12*
X4883578Y13016332D02*
X5519974Y12698134D01*
X5201776Y13334530D01*
X5747258Y13425444D02*
X5838172Y13470900D01*
X5883629Y13470900D01*
X5951814Y13448172D01*
X6020000Y13379987D01*
X6042728Y13311801D01*
X6042728Y13266345D01*
X6020000Y13198159D01*
X5838172Y13016332D01*
X5360875Y13493629D01*
X5519974Y13652728D01*
X5588159Y13675456D01*
X5633616Y13675456D01*
X5701801Y13652728D01*
X5747258Y13607271D01*
X5769987Y13539086D01*
X5769987Y13493629D01*
X5747258Y13425444D01*
X5588159Y13266345D01*
X5838172Y13970926D02*
X6224555Y13584543D01*
X6292741Y13561814D01*
X6338198Y13561814D01*
X6406383Y13584543D01*
X6497297Y13675456D01*
X6520025Y13743642D01*
X6520025Y13789099D01*
X6497297Y13857284D01*
X6110913Y14243667D01*
X6770038Y13993654D02*
X6860951Y14039111D01*
X6974594Y14152753D01*
X6997322Y14220939D01*
X6997322Y14266396D01*
X6974594Y14334581D01*
X6929137Y14380038D01*
X6860951Y14402766D01*
X6815495Y14402766D01*
X6747309Y14380038D01*
X6633667Y14311852D01*
X6565482Y14289124D01*
X6520025Y14289124D01*
X6451840Y14311852D01*
X6406383Y14357309D01*
X6383654Y14425495D01*
X6383654Y14470951D01*
X6406383Y14539137D01*
X6520025Y14652779D01*
X6610939Y14698236D01*
X-6458648Y14073204D02*
X-6776846Y13755006D01*
X-6390463Y14368674D02*
X-6845031Y14141389D01*
X-6549562Y13845920D01*
X-6117722Y14050475D02*
X-6435920Y13414079D01*
X-5799524Y13732277D01*
X-5413140Y13345894D02*
X-5640424Y13573178D01*
X-5890437Y13368623D01*
X-5844980Y13368623D01*
X-5776795Y13345894D01*
X-5663153Y13232252D01*
X-5640424Y13164067D01*
X-5640424Y13118610D01*
X-5663153Y13050424D01*
X-5776795Y12936782D01*
X-5844980Y12914054D01*
X-5890437Y12914054D01*
X-5958623Y12936782D01*
X-6072265Y13050424D01*
X-6094993Y13118610D01*
X-6094993Y13164067D01*
D11*
X-809523Y8197619D02*
X-1000000Y8054761D01*
X-1190476Y8197619D01*
X-2452380Y-15952380D02*
X-2452380Y-15285714D01*
X-2452380Y-15476190D02*
X-2404761Y-15380952D01*
X-2357142Y-15333333D01*
X-2261904Y-15285714D01*
X-2166666Y-15285714D01*
X-1452380Y-15904761D02*
X-1547619Y-15952380D01*
X-1738095Y-15952380D01*
X-1833333Y-15904761D01*
X-1880952Y-15809523D01*
X-1880952Y-15428571D01*
X-1833333Y-15333333D01*
X-1738095Y-15285714D01*
X-1547619Y-15285714D01*
X-1452380Y-15333333D01*
X-1404761Y-15428571D01*
X-1404761Y-15523809D01*
X-1880952Y-15619047D01*
X-1071428Y-15285714D02*
X-833333Y-15952380D01*
X-595238Y-15285714D01*
X976190Y-15285714D02*
X976190Y-15952380D01*
X738095Y-14904761D02*
X499999Y-15619047D01*
X1119047Y-15619047D01*
X1499999Y-15857142D02*
X1547619Y-15904761D01*
X1499999Y-15952380D01*
X1452380Y-15904761D01*
X1499999Y-15857142D01*
X1499999Y-15952380D01*
X1880952Y-14952380D02*
X2499999Y-14952380D01*
X2166666Y-15333333D01*
X2309523Y-15333333D01*
X2404761Y-15380952D01*
X2452380Y-15428571D01*
X2499999Y-15523809D01*
X2499999Y-15761904D01*
X2452380Y-15857142D01*
X2404761Y-15904761D01*
X2309523Y-15952380D01*
X2023809Y-15952380D01*
X1928571Y-15904761D01*
X1880952Y-15857142D01*
D13*
X-13547619Y-4619047D02*
X-12833333Y-4619047D01*
X-12690476Y-4666666D01*
X-12595238Y-4761904D01*
X-12547619Y-4904761D01*
X-12547619Y-5000000D01*
X-12547619Y-3666666D02*
X-12547619Y-4142857D01*
X-13547619Y-4142857D01*
X-12642857Y-2761904D02*
X-12595238Y-2809523D01*
X-12547619Y-2952380D01*
X-12547619Y-3047619D01*
X-12595238Y-3190476D01*
X-12690476Y-3285714D01*
X-12785714Y-3333333D01*
X-12976190Y-3380952D01*
X-13119047Y-3380952D01*
X-13309523Y-3333333D01*
X-13404761Y-3285714D01*
X-13500000Y-3190476D01*
X-13547619Y-3047619D01*
X-13547619Y-2952380D01*
X-13500000Y-2809523D01*
X-13452380Y-2761904D01*
X-13547619Y-2047619D02*
X-12833333Y-2047619D01*
X-12690476Y-2095238D01*
X-12595238Y-2190476D01*
X-12547619Y-2333333D01*
X-12547619Y-2428571D01*
X-12547619Y-1095238D02*
X-12547619Y-1571428D01*
X-13547619Y-1571428D01*
X-12642857Y-190476D02*
X-12595238Y-238095D01*
X-12547619Y-380952D01*
X-12547619Y-476190D01*
X-12595238Y-619047D01*
X-12690476Y-714285D01*
X-12785714Y-761904D01*
X-12976190Y-809523D01*
X-13119047Y-809523D01*
X-13309523Y-761904D01*
X-13404761Y-714285D01*
X-13500000Y-619047D01*
X-13547619Y-476190D01*
X-13547619Y-380952D01*
X-13500000Y-238095D01*
X-13452380Y-190476D01*
X-13547619Y523809D02*
X-12833333Y523809D01*
X-12690476Y476190D01*
X-12595238Y380952D01*
X-12547619Y238095D01*
X-12547619Y142857D01*
X-12547619Y1476190D02*
X-12547619Y1000000D01*
X-13547619Y1000000D01*
X-12642857Y2380952D02*
X-12595238Y2333333D01*
X-12547619Y2190476D01*
X-12547619Y2095238D01*
X-12595238Y1952380D01*
X-12690476Y1857142D01*
X-12785714Y1809523D01*
X-12976190Y1761904D01*
X-13119047Y1761904D01*
X-13309523Y1809523D01*
X-13404761Y1857142D01*
X-13500000Y1952380D01*
X-13547619Y2095238D01*
X-13547619Y2190476D01*
X-13500000Y2333333D01*
X-13452380Y2380952D01*
X-13547619Y3095238D02*
X-12833333Y3095238D01*
X-12690476Y3047619D01*
X-12595238Y2952380D01*
X-12547619Y2809523D01*
X-12547619Y2714285D01*
X-12547619Y4047619D02*
X-12547619Y3571428D01*
X-13547619Y3571428D01*
X-12642857Y4952380D02*
X-12595238Y4904761D01*
X-12547619Y4761904D01*
X-12547619Y4666666D01*
X-12595238Y4523809D01*
X-12690476Y4428571D01*
X-12785714Y4380952D01*
X-12976190Y4333333D01*
X-13119047Y4333333D01*
X-13309523Y4380952D01*
X-13404761Y4428571D01*
X-13500000Y4523809D01*
X-13547619Y4666666D01*
X-13547619Y4761904D01*
X-13500000Y4904761D01*
X-13452380Y4952380D01*
D10*
X3975000Y-875000D02*
G75*
G03*
X3975000Y-875000I-50000J0D01*
G01*
%TO.C,C16*%
X6060000Y-1665580D02*
X6060000Y-1384420D01*
X5040000Y-1665580D02*
X5040000Y-1384420D01*
%TO.C,Q2*%
X-1620000Y8035000D02*
X-1620000Y6575000D01*
X-4780000Y8035000D02*
X-4780000Y5875000D01*
X-4780000Y8035000D02*
X-3850000Y8035000D01*
X-1620000Y8035000D02*
X-2550000Y8035000D01*
%TO.C,L4*%
X-3510000Y1412779D02*
X-3510000Y1087221D01*
X-2490000Y1412779D02*
X-2490000Y1087221D01*
%TO.C,C25*%
X-2260000Y1390580D02*
X-2260000Y1109420D01*
X-1240000Y1390580D02*
X-1240000Y1109420D01*
D14*
%TO.C,DUMMY1*%
G36*
X-3341317Y-11736403D02*
G01*
X-3298773Y-11737360D01*
X-3263728Y-11738995D01*
X-3235134Y-11741355D01*
X-3211946Y-11744487D01*
X-3193116Y-11748435D01*
X-3177597Y-11753248D01*
X-3164344Y-11758969D01*
X-3152308Y-11765647D01*
X-3140445Y-11773327D01*
X-3130054Y-11780443D01*
X-3088594Y-11817153D01*
X-3059560Y-11862117D01*
X-3042692Y-11916071D01*
X-3037730Y-11979748D01*
X-3041334Y-12031625D01*
X-3047560Y-12070993D01*
X-3058311Y-12123989D01*
X-3073224Y-12189135D01*
X-3091936Y-12264953D01*
X-3114084Y-12349968D01*
X-3139305Y-12442702D01*
X-3163238Y-12527718D01*
X-3177714Y-12578637D01*
X-3190785Y-12625092D01*
X-3201787Y-12664689D01*
X-3210058Y-12695030D01*
X-3214934Y-12713720D01*
X-3215894Y-12717965D01*
X-3215323Y-12727318D01*
X-3207245Y-12733374D01*
X-3188276Y-12737965D01*
X-3175000Y-12740083D01*
X-3057955Y-12761921D01*
X-2932504Y-12793500D01*
X-2801920Y-12833808D01*
X-2669478Y-12881837D01*
X-2538922Y-12936365D01*
X-2454500Y-12974079D01*
X-2449471Y-12929492D01*
X-2443156Y-12863721D01*
X-2437378Y-12783691D01*
X-2432228Y-12691012D01*
X-2427793Y-12587293D01*
X-2424162Y-12474144D01*
X-2424018Y-12468818D01*
X-2422027Y-12400394D01*
X-2419891Y-12345927D01*
X-2417241Y-12303499D01*
X-2413711Y-12271192D01*
X-2408934Y-12247090D01*
X-2402541Y-12229274D01*
X-2394165Y-12215829D01*
X-2383439Y-12204835D01*
X-2371658Y-12195588D01*
X-2342955Y-12182430D01*
X-2305577Y-12176079D01*
X-2265366Y-12176922D01*
X-2228166Y-12185349D01*
X-2226580Y-12185942D01*
X-2197927Y-12200560D01*
X-2177439Y-12220792D01*
X-2163833Y-12249198D01*
X-2155825Y-12288337D01*
X-2152381Y-12333831D01*
X-2151448Y-12384501D01*
X-2152024Y-12447674D01*
X-2153943Y-12520408D01*
X-2157035Y-12599762D01*
X-2161132Y-12682795D01*
X-2166065Y-12766564D01*
X-2171668Y-12848130D01*
X-2177770Y-12924550D01*
X-2184204Y-12992883D01*
X-2190802Y-13050187D01*
X-2195083Y-13080028D01*
X-2199634Y-13108462D01*
X-2128561Y-13153518D01*
X-2055219Y-13202495D01*
X-1976617Y-13259341D01*
X-1898043Y-13320057D01*
X-1824783Y-13380647D01*
X-1802455Y-13400126D01*
X-1759430Y-13440063D01*
X-1728171Y-13473975D01*
X-1707086Y-13504409D01*
X-1694580Y-13533916D01*
X-1689059Y-13565043D01*
X-1688420Y-13582487D01*
X-1693802Y-13626465D01*
X-1711271Y-13663755D01*
X-1737596Y-13694024D01*
X-1756031Y-13708535D01*
X-1776615Y-13716530D01*
X-1805955Y-13720494D01*
X-1808470Y-13720683D01*
X-1835627Y-13721339D01*
X-1859106Y-13717961D01*
X-1881811Y-13709028D01*
X-1906648Y-13693020D01*
X-1936520Y-13668416D01*
X-1973904Y-13634101D01*
X-2014621Y-13596857D01*
X-2057494Y-13559582D01*
X-2100759Y-13523614D01*
X-2142651Y-13490292D01*
X-2181405Y-13460956D01*
X-2215256Y-13436943D01*
X-2242439Y-13419593D01*
X-2261188Y-13410245D01*
X-2269498Y-13409892D01*
X-2274532Y-13420576D01*
X-2281999Y-13441912D01*
X-2289998Y-13468312D01*
X-2333998Y-13597382D01*
X-2391486Y-13723642D01*
X-2460211Y-13842191D01*
X-2464881Y-13849312D01*
X-2541128Y-13952992D01*
X-2626319Y-14046119D01*
X-2721872Y-14129911D01*
X-2829208Y-14205582D01*
X-2949746Y-14274352D01*
X-2976563Y-14287879D01*
X-3018317Y-14308125D01*
X-3049791Y-14322131D01*
X-3074702Y-14331142D01*
X-3096769Y-14336407D01*
X-3119708Y-14339172D01*
X-3131781Y-14339960D01*
X-3162062Y-14341065D01*
X-3181844Y-14339485D01*
X-3196439Y-14333983D01*
X-3211156Y-14323324D01*
X-3214220Y-14320769D01*
X-3243028Y-14286790D01*
X-3259081Y-14246059D01*
X-3261683Y-14202142D01*
X-3250142Y-14158607D01*
X-3247018Y-14152074D01*
X-3239616Y-14137959D01*
X-3232321Y-14126723D01*
X-3222884Y-14116775D01*
X-3209053Y-14106520D01*
X-3188579Y-14094368D01*
X-3159211Y-14078725D01*
X-3118698Y-14057999D01*
X-3102324Y-14049683D01*
X-3030627Y-14011612D01*
X-2970133Y-13975432D01*
X-2916853Y-13938418D01*
X-2866800Y-13897848D01*
X-2827325Y-13861881D01*
X-2749027Y-13777647D01*
X-2679715Y-13681947D01*
X-2618410Y-13573418D01*
X-2615488Y-13567531D01*
X-2596618Y-13526765D01*
X-2577179Y-13480420D01*
X-2558248Y-13431563D01*
X-2540903Y-13383264D01*
X-2526223Y-13338592D01*
X-2515286Y-13300614D01*
X-2509169Y-13272400D01*
X-2508250Y-13262296D01*
X-2512428Y-13254094D01*
X-2525952Y-13243094D01*
X-2550309Y-13228353D01*
X-2586984Y-13208931D01*
X-2613422Y-13195677D01*
X-2770923Y-13124043D01*
X-2925552Y-13066610D01*
X-3079620Y-13022570D01*
X-3162042Y-13004344D01*
X-3210237Y-12994278D01*
X-3246070Y-12987085D01*
X-3272076Y-12984279D01*
X-3290786Y-12987372D01*
X-3304734Y-12997876D01*
X-3316452Y-13017304D01*
X-3328474Y-13047168D01*
X-3343332Y-13088980D01*
X-3354159Y-13119062D01*
X-3411289Y-13269210D01*
X-3468139Y-13407279D01*
X-3524431Y-13532734D01*
X-3579892Y-13645042D01*
X-3634245Y-13743667D01*
X-3687214Y-13828076D01*
X-3738525Y-13897734D01*
X-3779549Y-13943857D01*
X-3842683Y-14000370D01*
X-3906970Y-14042388D01*
X-3975081Y-14071220D01*
X-4049682Y-14088175D01*
X-4081527Y-14091888D01*
X-4159185Y-14091481D01*
X-4232123Y-14075935D01*
X-4300414Y-14045223D01*
X-4364127Y-13999318D01*
X-4389061Y-13975982D01*
X-4441313Y-13913292D01*
X-4482114Y-13841256D01*
X-4511721Y-13759196D01*
X-4530389Y-13666432D01*
X-4537651Y-13583406D01*
X-4537156Y-13555719D01*
X-4276580Y-13555719D01*
X-4271484Y-13615118D01*
X-4266943Y-13638791D01*
X-4247355Y-13698654D01*
X-4220259Y-13746262D01*
X-4186656Y-13780992D01*
X-4147542Y-13802219D01*
X-4103917Y-13809321D01*
X-4056778Y-13801671D01*
X-4026238Y-13789254D01*
X-3987274Y-13764417D01*
X-3947837Y-13728208D01*
X-3907475Y-13679954D01*
X-3865735Y-13618983D01*
X-3822165Y-13544622D01*
X-3776311Y-13456201D01*
X-3727723Y-13353045D01*
X-3718120Y-13331670D01*
X-3682488Y-13249959D01*
X-3651283Y-13173943D01*
X-3621237Y-13095503D01*
X-3602663Y-13044606D01*
X-3571607Y-12958243D01*
X-3643179Y-12963842D01*
X-3738467Y-12976204D01*
X-3831936Y-12997667D01*
X-3920058Y-13027096D01*
X-3999305Y-13063359D01*
X-4052129Y-13095273D01*
X-4116177Y-13148148D01*
X-4172479Y-13212157D01*
X-4218434Y-13283781D01*
X-4251442Y-13359502D01*
X-4254532Y-13369093D01*
X-4267823Y-13426618D01*
X-4275266Y-13490857D01*
X-4276580Y-13555719D01*
X-4537156Y-13555719D01*
X-4535581Y-13467658D01*
X-4519175Y-13358225D01*
X-4488873Y-13255621D01*
X-4445116Y-13160364D01*
X-4388347Y-13072967D01*
X-4319006Y-12993949D01*
X-4237535Y-12923823D01*
X-4144374Y-12863106D01*
X-4039965Y-12812313D01*
X-3924750Y-12771961D01*
X-3821907Y-12746901D01*
X-3755100Y-12735025D01*
X-3685751Y-12725292D01*
X-3619053Y-12718300D01*
X-3560194Y-12714646D01*
X-3538155Y-12714250D01*
X-3487933Y-12714250D01*
X-3474122Y-12664640D01*
X-3448289Y-12570216D01*
X-3424206Y-12478987D01*
X-3402177Y-12392302D01*
X-3382503Y-12311509D01*
X-3365490Y-12237956D01*
X-3351439Y-12172994D01*
X-3340653Y-12117969D01*
X-3333437Y-12074232D01*
X-3330093Y-12043129D01*
X-3330721Y-12026739D01*
X-3341085Y-12007410D01*
X-3354673Y-11994469D01*
X-3361362Y-11991011D01*
X-3370697Y-11988416D01*
X-3384424Y-11986665D01*
X-3404290Y-11985737D01*
X-3432042Y-11985614D01*
X-3469425Y-11986274D01*
X-3518186Y-11987698D01*
X-3580070Y-11989866D01*
X-3621589Y-11991415D01*
X-3693686Y-11993964D01*
X-3770398Y-11996363D01*
X-3847614Y-11998506D01*
X-3921220Y-12000286D01*
X-3987104Y-12001595D01*
X-4040188Y-12002318D01*
X-4096501Y-12002767D01*
X-4139283Y-12002838D01*
X-4170874Y-12002326D01*
X-4193618Y-12001027D01*
X-4209857Y-11998737D01*
X-4221931Y-11995251D01*
X-4232184Y-11990367D01*
X-4241521Y-11984774D01*
X-4269926Y-11958333D01*
X-4287921Y-11922873D01*
X-4294760Y-11881969D01*
X-4289693Y-11839199D01*
X-4278235Y-11809222D01*
X-4270426Y-11794577D01*
X-4262329Y-11782589D01*
X-4252342Y-11772956D01*
X-4238859Y-11765374D01*
X-4220277Y-11759541D01*
X-4194991Y-11755155D01*
X-4161397Y-11751912D01*
X-4117892Y-11749510D01*
X-4062871Y-11747646D01*
X-3994729Y-11746018D01*
X-3937000Y-11744828D01*
X-3812660Y-11742328D01*
X-3703146Y-11740183D01*
X-3607409Y-11738439D01*
X-3524405Y-11737143D01*
X-3453086Y-11736341D01*
X-3392405Y-11736079D01*
X-3341317Y-11736403D01*
G37*
X-3341317Y-11736403D02*
X-3298773Y-11737360D01*
X-3263728Y-11738995D01*
X-3235134Y-11741355D01*
X-3211946Y-11744487D01*
X-3193116Y-11748435D01*
X-3177597Y-11753248D01*
X-3164344Y-11758969D01*
X-3152308Y-11765647D01*
X-3140445Y-11773327D01*
X-3130054Y-11780443D01*
X-3088594Y-11817153D01*
X-3059560Y-11862117D01*
X-3042692Y-11916071D01*
X-3037730Y-11979748D01*
X-3041334Y-12031625D01*
X-3047560Y-12070993D01*
X-3058311Y-12123989D01*
X-3073224Y-12189135D01*
X-3091936Y-12264953D01*
X-3114084Y-12349968D01*
X-3139305Y-12442702D01*
X-3163238Y-12527718D01*
X-3177714Y-12578637D01*
X-3190785Y-12625092D01*
X-3201787Y-12664689D01*
X-3210058Y-12695030D01*
X-3214934Y-12713720D01*
X-3215894Y-12717965D01*
X-3215323Y-12727318D01*
X-3207245Y-12733374D01*
X-3188276Y-12737965D01*
X-3175000Y-12740083D01*
X-3057955Y-12761921D01*
X-2932504Y-12793500D01*
X-2801920Y-12833808D01*
X-2669478Y-12881837D01*
X-2538922Y-12936365D01*
X-2454500Y-12974079D01*
X-2449471Y-12929492D01*
X-2443156Y-12863721D01*
X-2437378Y-12783691D01*
X-2432228Y-12691012D01*
X-2427793Y-12587293D01*
X-2424162Y-12474144D01*
X-2424018Y-12468818D01*
X-2422027Y-12400394D01*
X-2419891Y-12345927D01*
X-2417241Y-12303499D01*
X-2413711Y-12271192D01*
X-2408934Y-12247090D01*
X-2402541Y-12229274D01*
X-2394165Y-12215829D01*
X-2383439Y-12204835D01*
X-2371658Y-12195588D01*
X-2342955Y-12182430D01*
X-2305577Y-12176079D01*
X-2265366Y-12176922D01*
X-2228166Y-12185349D01*
X-2226580Y-12185942D01*
X-2197927Y-12200560D01*
X-2177439Y-12220792D01*
X-2163833Y-12249198D01*
X-2155825Y-12288337D01*
X-2152381Y-12333831D01*
X-2151448Y-12384501D01*
X-2152024Y-12447674D01*
X-2153943Y-12520408D01*
X-2157035Y-12599762D01*
X-2161132Y-12682795D01*
X-2166065Y-12766564D01*
X-2171668Y-12848130D01*
X-2177770Y-12924550D01*
X-2184204Y-12992883D01*
X-2190802Y-13050187D01*
X-2195083Y-13080028D01*
X-2199634Y-13108462D01*
X-2128561Y-13153518D01*
X-2055219Y-13202495D01*
X-1976617Y-13259341D01*
X-1898043Y-13320057D01*
X-1824783Y-13380647D01*
X-1802455Y-13400126D01*
X-1759430Y-13440063D01*
X-1728171Y-13473975D01*
X-1707086Y-13504409D01*
X-1694580Y-13533916D01*
X-1689059Y-13565043D01*
X-1688420Y-13582487D01*
X-1693802Y-13626465D01*
X-1711271Y-13663755D01*
X-1737596Y-13694024D01*
X-1756031Y-13708535D01*
X-1776615Y-13716530D01*
X-1805955Y-13720494D01*
X-1808470Y-13720683D01*
X-1835627Y-13721339D01*
X-1859106Y-13717961D01*
X-1881811Y-13709028D01*
X-1906648Y-13693020D01*
X-1936520Y-13668416D01*
X-1973904Y-13634101D01*
X-2014621Y-13596857D01*
X-2057494Y-13559582D01*
X-2100759Y-13523614D01*
X-2142651Y-13490292D01*
X-2181405Y-13460956D01*
X-2215256Y-13436943D01*
X-2242439Y-13419593D01*
X-2261188Y-13410245D01*
X-2269498Y-13409892D01*
X-2274532Y-13420576D01*
X-2281999Y-13441912D01*
X-2289998Y-13468312D01*
X-2333998Y-13597382D01*
X-2391486Y-13723642D01*
X-2460211Y-13842191D01*
X-2464881Y-13849312D01*
X-2541128Y-13952992D01*
X-2626319Y-14046119D01*
X-2721872Y-14129911D01*
X-2829208Y-14205582D01*
X-2949746Y-14274352D01*
X-2976563Y-14287879D01*
X-3018317Y-14308125D01*
X-3049791Y-14322131D01*
X-3074702Y-14331142D01*
X-3096769Y-14336407D01*
X-3119708Y-14339172D01*
X-3131781Y-14339960D01*
X-3162062Y-14341065D01*
X-3181844Y-14339485D01*
X-3196439Y-14333983D01*
X-3211156Y-14323324D01*
X-3214220Y-14320769D01*
X-3243028Y-14286790D01*
X-3259081Y-14246059D01*
X-3261683Y-14202142D01*
X-3250142Y-14158607D01*
X-3247018Y-14152074D01*
X-3239616Y-14137959D01*
X-3232321Y-14126723D01*
X-3222884Y-14116775D01*
X-3209053Y-14106520D01*
X-3188579Y-14094368D01*
X-3159211Y-14078725D01*
X-3118698Y-14057999D01*
X-3102324Y-14049683D01*
X-3030627Y-14011612D01*
X-2970133Y-13975432D01*
X-2916853Y-13938418D01*
X-2866800Y-13897848D01*
X-2827325Y-13861881D01*
X-2749027Y-13777647D01*
X-2679715Y-13681947D01*
X-2618410Y-13573418D01*
X-2615488Y-13567531D01*
X-2596618Y-13526765D01*
X-2577179Y-13480420D01*
X-2558248Y-13431563D01*
X-2540903Y-13383264D01*
X-2526223Y-13338592D01*
X-2515286Y-13300614D01*
X-2509169Y-13272400D01*
X-2508250Y-13262296D01*
X-2512428Y-13254094D01*
X-2525952Y-13243094D01*
X-2550309Y-13228353D01*
X-2586984Y-13208931D01*
X-2613422Y-13195677D01*
X-2770923Y-13124043D01*
X-2925552Y-13066610D01*
X-3079620Y-13022570D01*
X-3162042Y-13004344D01*
X-3210237Y-12994278D01*
X-3246070Y-12987085D01*
X-3272076Y-12984279D01*
X-3290786Y-12987372D01*
X-3304734Y-12997876D01*
X-3316452Y-13017304D01*
X-3328474Y-13047168D01*
X-3343332Y-13088980D01*
X-3354159Y-13119062D01*
X-3411289Y-13269210D01*
X-3468139Y-13407279D01*
X-3524431Y-13532734D01*
X-3579892Y-13645042D01*
X-3634245Y-13743667D01*
X-3687214Y-13828076D01*
X-3738525Y-13897734D01*
X-3779549Y-13943857D01*
X-3842683Y-14000370D01*
X-3906970Y-14042388D01*
X-3975081Y-14071220D01*
X-4049682Y-14088175D01*
X-4081527Y-14091888D01*
X-4159185Y-14091481D01*
X-4232123Y-14075935D01*
X-4300414Y-14045223D01*
X-4364127Y-13999318D01*
X-4389061Y-13975982D01*
X-4441313Y-13913292D01*
X-4482114Y-13841256D01*
X-4511721Y-13759196D01*
X-4530389Y-13666432D01*
X-4537651Y-13583406D01*
X-4537156Y-13555719D01*
X-4276580Y-13555719D01*
X-4271484Y-13615118D01*
X-4266943Y-13638791D01*
X-4247355Y-13698654D01*
X-4220259Y-13746262D01*
X-4186656Y-13780992D01*
X-4147542Y-13802219D01*
X-4103917Y-13809321D01*
X-4056778Y-13801671D01*
X-4026238Y-13789254D01*
X-3987274Y-13764417D01*
X-3947837Y-13728208D01*
X-3907475Y-13679954D01*
X-3865735Y-13618983D01*
X-3822165Y-13544622D01*
X-3776311Y-13456201D01*
X-3727723Y-13353045D01*
X-3718120Y-13331670D01*
X-3682488Y-13249959D01*
X-3651283Y-13173943D01*
X-3621237Y-13095503D01*
X-3602663Y-13044606D01*
X-3571607Y-12958243D01*
X-3643179Y-12963842D01*
X-3738467Y-12976204D01*
X-3831936Y-12997667D01*
X-3920058Y-13027096D01*
X-3999305Y-13063359D01*
X-4052129Y-13095273D01*
X-4116177Y-13148148D01*
X-4172479Y-13212157D01*
X-4218434Y-13283781D01*
X-4251442Y-13359502D01*
X-4254532Y-13369093D01*
X-4267823Y-13426618D01*
X-4275266Y-13490857D01*
X-4276580Y-13555719D01*
X-4537156Y-13555719D01*
X-4535581Y-13467658D01*
X-4519175Y-13358225D01*
X-4488873Y-13255621D01*
X-4445116Y-13160364D01*
X-4388347Y-13072967D01*
X-4319006Y-12993949D01*
X-4237535Y-12923823D01*
X-4144374Y-12863106D01*
X-4039965Y-12812313D01*
X-3924750Y-12771961D01*
X-3821907Y-12746901D01*
X-3755100Y-12735025D01*
X-3685751Y-12725292D01*
X-3619053Y-12718300D01*
X-3560194Y-12714646D01*
X-3538155Y-12714250D01*
X-3487933Y-12714250D01*
X-3474122Y-12664640D01*
X-3448289Y-12570216D01*
X-3424206Y-12478987D01*
X-3402177Y-12392302D01*
X-3382503Y-12311509D01*
X-3365490Y-12237956D01*
X-3351439Y-12172994D01*
X-3340653Y-12117969D01*
X-3333437Y-12074232D01*
X-3330093Y-12043129D01*
X-3330721Y-12026739D01*
X-3341085Y-12007410D01*
X-3354673Y-11994469D01*
X-3361362Y-11991011D01*
X-3370697Y-11988416D01*
X-3384424Y-11986665D01*
X-3404290Y-11985737D01*
X-3432042Y-11985614D01*
X-3469425Y-11986274D01*
X-3518186Y-11987698D01*
X-3580070Y-11989866D01*
X-3621589Y-11991415D01*
X-3693686Y-11993964D01*
X-3770398Y-11996363D01*
X-3847614Y-11998506D01*
X-3921220Y-12000286D01*
X-3987104Y-12001595D01*
X-4040188Y-12002318D01*
X-4096501Y-12002767D01*
X-4139283Y-12002838D01*
X-4170874Y-12002326D01*
X-4193618Y-12001027D01*
X-4209857Y-11998737D01*
X-4221931Y-11995251D01*
X-4232184Y-11990367D01*
X-4241521Y-11984774D01*
X-4269926Y-11958333D01*
X-4287921Y-11922873D01*
X-4294760Y-11881969D01*
X-4289693Y-11839199D01*
X-4278235Y-11809222D01*
X-4270426Y-11794577D01*
X-4262329Y-11782589D01*
X-4252342Y-11772956D01*
X-4238859Y-11765374D01*
X-4220277Y-11759541D01*
X-4194991Y-11755155D01*
X-4161397Y-11751912D01*
X-4117892Y-11749510D01*
X-4062871Y-11747646D01*
X-3994729Y-11746018D01*
X-3937000Y-11744828D01*
X-3812660Y-11742328D01*
X-3703146Y-11740183D01*
X-3607409Y-11738439D01*
X-3524405Y-11737143D01*
X-3453086Y-11736341D01*
X-3392405Y-11736079D01*
X-3341317Y-11736403D01*
G36*
X2734552Y-11632567D02*
G01*
X2771865Y-11649809D01*
X2797916Y-11677212D01*
X2802788Y-11689922D01*
X2810124Y-11715996D01*
X2819392Y-11753210D01*
X2830061Y-11799337D01*
X2841600Y-11852152D01*
X2853477Y-11909430D01*
X2854170Y-11912867D01*
X2876587Y-12020543D01*
X2900155Y-12126989D01*
X2924218Y-12229518D01*
X2948119Y-12325446D01*
X2971202Y-12412087D01*
X2992810Y-12486757D01*
X3000628Y-12511843D01*
X3011427Y-12545208D01*
X3020629Y-12572823D01*
X3027073Y-12591250D01*
X3029372Y-12596930D01*
X3037910Y-12597328D01*
X3056434Y-12592408D01*
X3074115Y-12585915D01*
X3168232Y-12548555D01*
X3264557Y-12511640D01*
X3361635Y-12475642D01*
X3458012Y-12441034D01*
X3552233Y-12408290D01*
X3642842Y-12377883D01*
X3728384Y-12350285D01*
X3807405Y-12325970D01*
X3878450Y-12305411D01*
X3940063Y-12289080D01*
X3990790Y-12277451D01*
X4029175Y-12270997D01*
X4046456Y-12269800D01*
X4089118Y-12276447D01*
X4126105Y-12295132D01*
X4153723Y-12323776D01*
X4159291Y-12333331D01*
X4177422Y-12382439D01*
X4180114Y-12428872D01*
X4168639Y-12470723D01*
X4149696Y-12501773D01*
X4122369Y-12525229D01*
X4083702Y-12543269D01*
X4060031Y-12550703D01*
X4039035Y-12556565D01*
X4006253Y-12565690D01*
X3965197Y-12577100D01*
X3919380Y-12589821D01*
X3886342Y-12598985D01*
X3762680Y-12634684D01*
X3636321Y-12673814D01*
X3509453Y-12715564D01*
X3384265Y-12759123D01*
X3262943Y-12803681D01*
X3147675Y-12848427D01*
X3040649Y-12892550D01*
X2944053Y-12935240D01*
X2860074Y-12975686D01*
X2835605Y-12988349D01*
X2726180Y-13051138D01*
X2629295Y-13117056D01*
X2545280Y-13185571D01*
X2474465Y-13256154D01*
X2417179Y-13328273D01*
X2373754Y-13401399D01*
X2344518Y-13475002D01*
X2329802Y-13548550D01*
X2329935Y-13621513D01*
X2345247Y-13693362D01*
X2365718Y-13743823D01*
X2397161Y-13793461D01*
X2440159Y-13836991D01*
X2495286Y-13874669D01*
X2563121Y-13906749D01*
X2644240Y-13933486D01*
X2739219Y-13955135D01*
X2848636Y-13971952D01*
X2893218Y-13977034D01*
X2936870Y-13980435D01*
X2993376Y-13983067D01*
X3059735Y-13984929D01*
X3132942Y-13986023D01*
X3209998Y-13986346D01*
X3287899Y-13985900D01*
X3363643Y-13984684D01*
X3434228Y-13982698D01*
X3496651Y-13979942D01*
X3540125Y-13977069D01*
X3649403Y-13967025D01*
X3765383Y-13954116D01*
X3881253Y-13939178D01*
X3990203Y-13923048D01*
X4022007Y-13917853D01*
X4081227Y-13908905D01*
X4126781Y-13904165D01*
X4157996Y-13903696D01*
X4165873Y-13904634D01*
X4207580Y-13919289D01*
X4239005Y-13945830D01*
X4259796Y-13983756D01*
X4269601Y-14032567D01*
X4270375Y-14053166D01*
X4263802Y-14101656D01*
X4244603Y-14141756D01*
X4213559Y-14172105D01*
X4196570Y-14181912D01*
X4162594Y-14194451D01*
X4114374Y-14206516D01*
X4053536Y-14217992D01*
X3981708Y-14228763D01*
X3900515Y-14238713D01*
X3811585Y-14247726D01*
X3716543Y-14255686D01*
X3617018Y-14262477D01*
X3514635Y-14267984D01*
X3411021Y-14272090D01*
X3307803Y-14274680D01*
X3206608Y-14275637D01*
X3109062Y-14274847D01*
X3016792Y-14272193D01*
X2964656Y-14269659D01*
X2817300Y-14256864D01*
X2681547Y-14236036D01*
X2557953Y-14207315D01*
X2447079Y-14170838D01*
X2349483Y-14126744D01*
X2319190Y-14109904D01*
X2294846Y-14093190D01*
X2264022Y-14068509D01*
X2231077Y-14039493D01*
X2206522Y-14016000D01*
X2153624Y-13956946D01*
X2113348Y-13896626D01*
X2082873Y-13830137D01*
X2062797Y-13765968D01*
X2053262Y-13716633D01*
X2047242Y-13657689D01*
X2044807Y-13594279D01*
X2046027Y-13531549D01*
X2050973Y-13474641D01*
X2058277Y-13434211D01*
X2089860Y-13338791D01*
X2136724Y-13244877D01*
X2198301Y-13153079D01*
X2274021Y-13064010D01*
X2363316Y-12978282D01*
X2465618Y-12896507D01*
X2580357Y-12819296D01*
X2686843Y-12757925D01*
X2716729Y-12741881D01*
X2740760Y-12728980D01*
X2755931Y-12720836D01*
X2759673Y-12718827D01*
X2758060Y-12711428D01*
X2752636Y-12691838D01*
X2744253Y-12663042D01*
X2733818Y-12628204D01*
X2714477Y-12562260D01*
X2694215Y-12489284D01*
X2673459Y-12411125D01*
X2652631Y-12329633D01*
X2632158Y-12246656D01*
X2612463Y-12164045D01*
X2593972Y-12083647D01*
X2577109Y-12007312D01*
X2562298Y-11936890D01*
X2549965Y-11874229D01*
X2540533Y-11821179D01*
X2534429Y-11779589D01*
X2532075Y-11751308D01*
X2532062Y-11749673D01*
X2539377Y-11710310D01*
X2560027Y-11676801D01*
X2592064Y-11650694D01*
X2633544Y-11633537D01*
X2682520Y-11626875D01*
X2686541Y-11626842D01*
X2734552Y-11632567D01*
G37*
X2734552Y-11632567D02*
X2771865Y-11649809D01*
X2797916Y-11677212D01*
X2802788Y-11689922D01*
X2810124Y-11715996D01*
X2819392Y-11753210D01*
X2830061Y-11799337D01*
X2841600Y-11852152D01*
X2853477Y-11909430D01*
X2854170Y-11912867D01*
X2876587Y-12020543D01*
X2900155Y-12126989D01*
X2924218Y-12229518D01*
X2948119Y-12325446D01*
X2971202Y-12412087D01*
X2992810Y-12486757D01*
X3000628Y-12511843D01*
X3011427Y-12545208D01*
X3020629Y-12572823D01*
X3027073Y-12591250D01*
X3029372Y-12596930D01*
X3037910Y-12597328D01*
X3056434Y-12592408D01*
X3074115Y-12585915D01*
X3168232Y-12548555D01*
X3264557Y-12511640D01*
X3361635Y-12475642D01*
X3458012Y-12441034D01*
X3552233Y-12408290D01*
X3642842Y-12377883D01*
X3728384Y-12350285D01*
X3807405Y-12325970D01*
X3878450Y-12305411D01*
X3940063Y-12289080D01*
X3990790Y-12277451D01*
X4029175Y-12270997D01*
X4046456Y-12269800D01*
X4089118Y-12276447D01*
X4126105Y-12295132D01*
X4153723Y-12323776D01*
X4159291Y-12333331D01*
X4177422Y-12382439D01*
X4180114Y-12428872D01*
X4168639Y-12470723D01*
X4149696Y-12501773D01*
X4122369Y-12525229D01*
X4083702Y-12543269D01*
X4060031Y-12550703D01*
X4039035Y-12556565D01*
X4006253Y-12565690D01*
X3965197Y-12577100D01*
X3919380Y-12589821D01*
X3886342Y-12598985D01*
X3762680Y-12634684D01*
X3636321Y-12673814D01*
X3509453Y-12715564D01*
X3384265Y-12759123D01*
X3262943Y-12803681D01*
X3147675Y-12848427D01*
X3040649Y-12892550D01*
X2944053Y-12935240D01*
X2860074Y-12975686D01*
X2835605Y-12988349D01*
X2726180Y-13051138D01*
X2629295Y-13117056D01*
X2545280Y-13185571D01*
X2474465Y-13256154D01*
X2417179Y-13328273D01*
X2373754Y-13401399D01*
X2344518Y-13475002D01*
X2329802Y-13548550D01*
X2329935Y-13621513D01*
X2345247Y-13693362D01*
X2365718Y-13743823D01*
X2397161Y-13793461D01*
X2440159Y-13836991D01*
X2495286Y-13874669D01*
X2563121Y-13906749D01*
X2644240Y-13933486D01*
X2739219Y-13955135D01*
X2848636Y-13971952D01*
X2893218Y-13977034D01*
X2936870Y-13980435D01*
X2993376Y-13983067D01*
X3059735Y-13984929D01*
X3132942Y-13986023D01*
X3209998Y-13986346D01*
X3287899Y-13985900D01*
X3363643Y-13984684D01*
X3434228Y-13982698D01*
X3496651Y-13979942D01*
X3540125Y-13977069D01*
X3649403Y-13967025D01*
X3765383Y-13954116D01*
X3881253Y-13939178D01*
X3990203Y-13923048D01*
X4022007Y-13917853D01*
X4081227Y-13908905D01*
X4126781Y-13904165D01*
X4157996Y-13903696D01*
X4165873Y-13904634D01*
X4207580Y-13919289D01*
X4239005Y-13945830D01*
X4259796Y-13983756D01*
X4269601Y-14032567D01*
X4270375Y-14053166D01*
X4263802Y-14101656D01*
X4244603Y-14141756D01*
X4213559Y-14172105D01*
X4196570Y-14181912D01*
X4162594Y-14194451D01*
X4114374Y-14206516D01*
X4053536Y-14217992D01*
X3981708Y-14228763D01*
X3900515Y-14238713D01*
X3811585Y-14247726D01*
X3716543Y-14255686D01*
X3617018Y-14262477D01*
X3514635Y-14267984D01*
X3411021Y-14272090D01*
X3307803Y-14274680D01*
X3206608Y-14275637D01*
X3109062Y-14274847D01*
X3016792Y-14272193D01*
X2964656Y-14269659D01*
X2817300Y-14256864D01*
X2681547Y-14236036D01*
X2557953Y-14207315D01*
X2447079Y-14170838D01*
X2349483Y-14126744D01*
X2319190Y-14109904D01*
X2294846Y-14093190D01*
X2264022Y-14068509D01*
X2231077Y-14039493D01*
X2206522Y-14016000D01*
X2153624Y-13956946D01*
X2113348Y-13896626D01*
X2082873Y-13830137D01*
X2062797Y-13765968D01*
X2053262Y-13716633D01*
X2047242Y-13657689D01*
X2044807Y-13594279D01*
X2046027Y-13531549D01*
X2050973Y-13474641D01*
X2058277Y-13434211D01*
X2089860Y-13338791D01*
X2136724Y-13244877D01*
X2198301Y-13153079D01*
X2274021Y-13064010D01*
X2363316Y-12978282D01*
X2465618Y-12896507D01*
X2580357Y-12819296D01*
X2686843Y-12757925D01*
X2716729Y-12741881D01*
X2740760Y-12728980D01*
X2755931Y-12720836D01*
X2759673Y-12718827D01*
X2758060Y-12711428D01*
X2752636Y-12691838D01*
X2744253Y-12663042D01*
X2733818Y-12628204D01*
X2714477Y-12562260D01*
X2694215Y-12489284D01*
X2673459Y-12411125D01*
X2652631Y-12329633D01*
X2632158Y-12246656D01*
X2612463Y-12164045D01*
X2593972Y-12083647D01*
X2577109Y-12007312D01*
X2562298Y-11936890D01*
X2549965Y-11874229D01*
X2540533Y-11821179D01*
X2534429Y-11779589D01*
X2532075Y-11751308D01*
X2532062Y-11749673D01*
X2539377Y-11710310D01*
X2560027Y-11676801D01*
X2592064Y-11650694D01*
X2633544Y-11633537D01*
X2682520Y-11626875D01*
X2686541Y-11626842D01*
X2734552Y-11632567D01*
G36*
X-695066Y-12954709D02*
G01*
X-668398Y-12963429D01*
X-638170Y-12985598D01*
X-613724Y-13015610D01*
X-599568Y-13047773D01*
X-598811Y-13051310D01*
X-596929Y-13075867D01*
X-601642Y-13100229D01*
X-614187Y-13126675D01*
X-635801Y-13157484D01*
X-667720Y-13194935D01*
X-689606Y-13218647D01*
X-736210Y-13270399D01*
X-772787Y-13316566D01*
X-802021Y-13361068D01*
X-826598Y-13407824D01*
X-840112Y-13438318D01*
X-851002Y-13467393D01*
X-857414Y-13494418D01*
X-860423Y-13525652D01*
X-861109Y-13560394D01*
X-860673Y-13596419D01*
X-858385Y-13622411D01*
X-852970Y-13644198D01*
X-843155Y-13667612D01*
X-833368Y-13687338D01*
X-804692Y-13731787D01*
X-766139Y-13770985D01*
X-716815Y-13805335D01*
X-655828Y-13835242D01*
X-582284Y-13861111D01*
X-495289Y-13883346D01*
X-393952Y-13902352D01*
X-341313Y-13910256D01*
X-307453Y-13914478D01*
X-271418Y-13917811D01*
X-230917Y-13920343D01*
X-183661Y-13922163D01*
X-127359Y-13923360D01*
X-59723Y-13924023D01*
X19843Y-13924239D01*
X170045Y-13922648D01*
X308563Y-13917534D01*
X439267Y-13908546D01*
X566029Y-13895334D01*
X692719Y-13877546D01*
X823208Y-13854831D01*
X856668Y-13848383D01*
X928328Y-13835392D01*
X986509Y-13827670D01*
X1032846Y-13825640D01*
X1068979Y-13829728D01*
X1096545Y-13840356D01*
X1117180Y-13857949D01*
X1132523Y-13882929D01*
X1144211Y-13915722D01*
X1146276Y-13923341D01*
X1153369Y-13975567D01*
X1146336Y-14021661D01*
X1125641Y-14060595D01*
X1091751Y-14091342D01*
X1063399Y-14106228D01*
X1021876Y-14120523D01*
X966474Y-14134853D01*
X899182Y-14148909D01*
X821990Y-14162379D01*
X736891Y-14174950D01*
X645875Y-14186312D01*
X550932Y-14196153D01*
X454053Y-14204161D01*
X424791Y-14206167D01*
X379416Y-14208461D01*
X322495Y-14210296D01*
X256671Y-14211675D01*
X184584Y-14212599D01*
X108875Y-14213071D01*
X32185Y-14213093D01*
X-42846Y-14212667D01*
X-113575Y-14211795D01*
X-177362Y-14210479D01*
X-231566Y-14208723D01*
X-273546Y-14206527D01*
X-285750Y-14205577D01*
X-432534Y-14188695D01*
X-564992Y-14165235D01*
X-683301Y-14135070D01*
X-787642Y-14098074D01*
X-878192Y-14054119D01*
X-955130Y-14003080D01*
X-1018635Y-13944830D01*
X-1068885Y-13879242D01*
X-1106060Y-13806189D01*
X-1130337Y-13725544D01*
X-1141896Y-13637181D01*
X-1143000Y-13597676D01*
X-1135854Y-13493249D01*
X-1114135Y-13393365D01*
X-1077425Y-13296652D01*
X-1025303Y-13201736D01*
X-1019200Y-13192247D01*
X-993530Y-13156140D01*
X-962007Y-13116798D01*
X-927182Y-13076929D01*
X-891605Y-13039242D01*
X-857827Y-13006444D01*
X-828399Y-12981243D01*
X-806910Y-12966864D01*
X-772901Y-12955605D01*
X-733350Y-12951497D01*
X-695066Y-12954709D01*
G37*
X-695066Y-12954709D02*
X-668398Y-12963429D01*
X-638170Y-12985598D01*
X-613724Y-13015610D01*
X-599568Y-13047773D01*
X-598811Y-13051310D01*
X-596929Y-13075867D01*
X-601642Y-13100229D01*
X-614187Y-13126675D01*
X-635801Y-13157484D01*
X-667720Y-13194935D01*
X-689606Y-13218647D01*
X-736210Y-13270399D01*
X-772787Y-13316566D01*
X-802021Y-13361068D01*
X-826598Y-13407824D01*
X-840112Y-13438318D01*
X-851002Y-13467393D01*
X-857414Y-13494418D01*
X-860423Y-13525652D01*
X-861109Y-13560394D01*
X-860673Y-13596419D01*
X-858385Y-13622411D01*
X-852970Y-13644198D01*
X-843155Y-13667612D01*
X-833368Y-13687338D01*
X-804692Y-13731787D01*
X-766139Y-13770985D01*
X-716815Y-13805335D01*
X-655828Y-13835242D01*
X-582284Y-13861111D01*
X-495289Y-13883346D01*
X-393952Y-13902352D01*
X-341313Y-13910256D01*
X-307453Y-13914478D01*
X-271418Y-13917811D01*
X-230917Y-13920343D01*
X-183661Y-13922163D01*
X-127359Y-13923360D01*
X-59723Y-13924023D01*
X19843Y-13924239D01*
X170045Y-13922648D01*
X308563Y-13917534D01*
X439267Y-13908546D01*
X566029Y-13895334D01*
X692719Y-13877546D01*
X823208Y-13854831D01*
X856668Y-13848383D01*
X928328Y-13835392D01*
X986509Y-13827670D01*
X1032846Y-13825640D01*
X1068979Y-13829728D01*
X1096545Y-13840356D01*
X1117180Y-13857949D01*
X1132523Y-13882929D01*
X1144211Y-13915722D01*
X1146276Y-13923341D01*
X1153369Y-13975567D01*
X1146336Y-14021661D01*
X1125641Y-14060595D01*
X1091751Y-14091342D01*
X1063399Y-14106228D01*
X1021876Y-14120523D01*
X966474Y-14134853D01*
X899182Y-14148909D01*
X821990Y-14162379D01*
X736891Y-14174950D01*
X645875Y-14186312D01*
X550932Y-14196153D01*
X454053Y-14204161D01*
X424791Y-14206167D01*
X379416Y-14208461D01*
X322495Y-14210296D01*
X256671Y-14211675D01*
X184584Y-14212599D01*
X108875Y-14213071D01*
X32185Y-14213093D01*
X-42846Y-14212667D01*
X-113575Y-14211795D01*
X-177362Y-14210479D01*
X-231566Y-14208723D01*
X-273546Y-14206527D01*
X-285750Y-14205577D01*
X-432534Y-14188695D01*
X-564992Y-14165235D01*
X-683301Y-14135070D01*
X-787642Y-14098074D01*
X-878192Y-14054119D01*
X-955130Y-14003080D01*
X-1018635Y-13944830D01*
X-1068885Y-13879242D01*
X-1106060Y-13806189D01*
X-1130337Y-13725544D01*
X-1141896Y-13637181D01*
X-1143000Y-13597676D01*
X-1135854Y-13493249D01*
X-1114135Y-13393365D01*
X-1077425Y-13296652D01*
X-1025303Y-13201736D01*
X-1019200Y-13192247D01*
X-993530Y-13156140D01*
X-962007Y-13116798D01*
X-927182Y-13076929D01*
X-891605Y-13039242D01*
X-857827Y-13006444D01*
X-828399Y-12981243D01*
X-806910Y-12966864D01*
X-772901Y-12955605D01*
X-733350Y-12951497D01*
X-695066Y-12954709D01*
G36*
X846516Y-11881563D02*
G01*
X882080Y-11905428D01*
X905472Y-11936714D01*
X917813Y-11977452D01*
X920488Y-12015750D01*
X918344Y-12054106D01*
X910521Y-12084594D01*
X894934Y-12110128D01*
X869498Y-12133622D01*
X832128Y-12157991D01*
X809625Y-12170698D01*
X786279Y-12183527D01*
X750963Y-12202979D01*
X705601Y-12227996D01*
X652112Y-12257514D01*
X592419Y-12290475D01*
X528444Y-12325818D01*
X462107Y-12362481D01*
X432593Y-12378798D01*
X367555Y-12414714D01*
X305471Y-12448912D01*
X248012Y-12480478D01*
X196847Y-12508498D01*
X153646Y-12532059D01*
X120079Y-12550248D01*
X97815Y-12562150D01*
X91034Y-12565666D01*
X46488Y-12582953D01*
X2282Y-12590970D01*
X-36594Y-12588928D01*
X-43955Y-12587044D01*
X-77768Y-12569296D01*
X-102510Y-12541456D01*
X-117373Y-12506986D01*
X-121551Y-12469350D01*
X-114236Y-12432007D01*
X-94621Y-12398422D01*
X-89278Y-12392589D01*
X-74256Y-12381471D01*
X-46107Y-12364805D01*
X-6286Y-12343317D01*
X43751Y-12317734D01*
X102551Y-12288783D01*
X168658Y-12257190D01*
X240616Y-12223682D01*
X316971Y-12188985D01*
X331324Y-12182556D01*
X369756Y-12165160D01*
X402261Y-12150028D01*
X426443Y-12138308D01*
X439910Y-12131148D01*
X441857Y-12129524D01*
X433420Y-12129172D01*
X412587Y-12130191D01*
X382758Y-12132377D01*
X356595Y-12134652D01*
X176032Y-12147860D01*
X-18774Y-12155497D01*
X-227197Y-12157552D01*
X-448613Y-12154013D01*
X-555625Y-12150467D01*
X-640896Y-12147062D01*
X-711839Y-12143767D01*
X-769996Y-12140280D01*
X-816909Y-12136297D01*
X-854120Y-12131516D01*
X-883171Y-12125635D01*
X-905603Y-12118351D01*
X-922959Y-12109361D01*
X-936780Y-12098362D01*
X-948609Y-12085052D01*
X-958454Y-12071393D01*
X-969681Y-12049994D01*
X-975122Y-12024550D01*
X-976313Y-11995906D01*
X-970960Y-11949612D01*
X-954186Y-11913332D01*
X-924917Y-11885040D01*
X-913783Y-11877949D01*
X-905613Y-11873470D01*
X-897031Y-11870050D01*
X-886138Y-11867657D01*
X-871038Y-11866259D01*
X-849833Y-11865823D01*
X-820626Y-11866317D01*
X-781519Y-11867709D01*
X-730616Y-11869967D01*
X-666020Y-11873057D01*
X-655841Y-11873551D01*
X-564777Y-11877231D01*
X-460708Y-11880148D01*
X-346486Y-11882301D01*
X-224964Y-11883690D01*
X-98992Y-11884316D01*
X28578Y-11884178D01*
X154892Y-11883276D01*
X277101Y-11881609D01*
X392351Y-11879178D01*
X497791Y-11875983D01*
X556797Y-11873626D01*
X808002Y-11862471D01*
X846516Y-11881563D01*
G37*
X846516Y-11881563D02*
X882080Y-11905428D01*
X905472Y-11936714D01*
X917813Y-11977452D01*
X920488Y-12015750D01*
X918344Y-12054106D01*
X910521Y-12084594D01*
X894934Y-12110128D01*
X869498Y-12133622D01*
X832128Y-12157991D01*
X809625Y-12170698D01*
X786279Y-12183527D01*
X750963Y-12202979D01*
X705601Y-12227996D01*
X652112Y-12257514D01*
X592419Y-12290475D01*
X528444Y-12325818D01*
X462107Y-12362481D01*
X432593Y-12378798D01*
X367555Y-12414714D01*
X305471Y-12448912D01*
X248012Y-12480478D01*
X196847Y-12508498D01*
X153646Y-12532059D01*
X120079Y-12550248D01*
X97815Y-12562150D01*
X91034Y-12565666D01*
X46488Y-12582953D01*
X2282Y-12590970D01*
X-36594Y-12588928D01*
X-43955Y-12587044D01*
X-77768Y-12569296D01*
X-102510Y-12541456D01*
X-117373Y-12506986D01*
X-121551Y-12469350D01*
X-114236Y-12432007D01*
X-94621Y-12398422D01*
X-89278Y-12392589D01*
X-74256Y-12381471D01*
X-46107Y-12364805D01*
X-6286Y-12343317D01*
X43751Y-12317734D01*
X102551Y-12288783D01*
X168658Y-12257190D01*
X240616Y-12223682D01*
X316971Y-12188985D01*
X331324Y-12182556D01*
X369756Y-12165160D01*
X402261Y-12150028D01*
X426443Y-12138308D01*
X439910Y-12131148D01*
X441857Y-12129524D01*
X433420Y-12129172D01*
X412587Y-12130191D01*
X382758Y-12132377D01*
X356595Y-12134652D01*
X176032Y-12147860D01*
X-18774Y-12155497D01*
X-227197Y-12157552D01*
X-448613Y-12154013D01*
X-555625Y-12150467D01*
X-640896Y-12147062D01*
X-711839Y-12143767D01*
X-769996Y-12140280D01*
X-816909Y-12136297D01*
X-854120Y-12131516D01*
X-883171Y-12125635D01*
X-905603Y-12118351D01*
X-922959Y-12109361D01*
X-936780Y-12098362D01*
X-948609Y-12085052D01*
X-958454Y-12071393D01*
X-969681Y-12049994D01*
X-975122Y-12024550D01*
X-976313Y-11995906D01*
X-970960Y-11949612D01*
X-954186Y-11913332D01*
X-924917Y-11885040D01*
X-913783Y-11877949D01*
X-905613Y-11873470D01*
X-897031Y-11870050D01*
X-886138Y-11867657D01*
X-871038Y-11866259D01*
X-849833Y-11865823D01*
X-820626Y-11866317D01*
X-781519Y-11867709D01*
X-730616Y-11869967D01*
X-666020Y-11873057D01*
X-655841Y-11873551D01*
X-564777Y-11877231D01*
X-460708Y-11880148D01*
X-346486Y-11882301D01*
X-224964Y-11883690D01*
X-98992Y-11884316D01*
X28578Y-11884178D01*
X154892Y-11883276D01*
X277101Y-11881609D01*
X392351Y-11879178D01*
X497791Y-11875983D01*
X556797Y-11873626D01*
X808002Y-11862471D01*
X846516Y-11881563D01*
D10*
%TO.C,C23*%
X-385000Y7427836D02*
X-385000Y7212164D01*
X335000Y7427836D02*
X335000Y7212164D01*
%TO.C,C24*%
X-1365000Y3937164D02*
X-1365000Y4152836D01*
X-2085000Y3937164D02*
X-2085000Y4152836D01*
%TO.C,Y2*%
X1675000Y2425000D02*
X3025000Y2425000D01*
X1675000Y4175000D02*
X3025000Y4175000D01*
%TO.C,R11*%
X-3977500Y-9737258D02*
X-3977500Y-9262742D01*
X-5022500Y-9737258D02*
X-5022500Y-9262742D01*
%TO.C,C22*%
X2940000Y-10327836D02*
X2940000Y-10112164D01*
X3660000Y-10327836D02*
X3660000Y-10112164D01*
%TO.C,R4*%
X-5955000Y-9031359D02*
X-5955000Y-9338641D01*
X-5195000Y-9031359D02*
X-5195000Y-9338641D01*
%TO.C,R3*%
X-3045000Y-9346359D02*
X-3045000Y-9653641D01*
X-3805000Y-9346359D02*
X-3805000Y-9653641D01*
%TO.C,R10*%
X1720000Y8543641D02*
X1720000Y8236359D01*
X2480000Y8543641D02*
X2480000Y8236359D01*
%TO.C,Y1*%
X6550000Y-8150000D02*
X6550000Y-5450000D01*
X4250000Y-8150000D02*
X6550000Y-8150000D01*
%TO.C,U1*%
X3610000Y-7860000D02*
X3610000Y-7300000D01*
X3610000Y-7860000D02*
X3050000Y-7860000D01*
X-3610000Y-7860000D02*
X-3050000Y-7860000D01*
X-3610000Y-7860000D02*
X-3610000Y-7300000D01*
X-3610000Y-640000D02*
X-3610000Y-1200000D01*
X-3610000Y-640000D02*
X-3050000Y-640000D01*
X3610000Y-640000D02*
X3610000Y-1200000D01*
%TO.C,R9*%
X2695000Y8543641D02*
X2695000Y8236359D01*
X3455000Y8543641D02*
X3455000Y8236359D01*
%TO.C,R8*%
X-405000Y5693641D02*
X-405000Y5386359D01*
X355000Y5693641D02*
X355000Y5386359D01*
%TO.C,R7*%
X1280000Y831359D02*
X1280000Y1138641D01*
X520000Y831359D02*
X520000Y1138641D01*
%TO.C,R6*%
X3670000Y8543641D02*
X3670000Y8236359D01*
X4430000Y8543641D02*
X4430000Y8236359D01*
%TO.C,R5*%
X-5363641Y-2945000D02*
X-5056359Y-2945000D01*
X-5363641Y-3705000D02*
X-5056359Y-3705000D01*
%TO.C,L3*%
X4300279Y1635000D02*
X3974721Y1635000D01*
X4300279Y615000D02*
X3974721Y615000D01*
%TO.C,C21*%
X5385000Y4784420D02*
X5385000Y5065580D01*
X4365000Y4784420D02*
X4365000Y5065580D01*
%TO.C,C20*%
X-5090580Y940000D02*
X-4809420Y940000D01*
X-5090580Y1960000D02*
X-4809420Y1960000D01*
%TO.C,C19*%
X-2885000Y-9607836D02*
X-2885000Y-9392164D01*
X-2165000Y-9607836D02*
X-2165000Y-9392164D01*
%TO.C,C18*%
X360000Y3212836D02*
X360000Y2997164D01*
X-360000Y3212836D02*
X-360000Y2997164D01*
%TO.C,C17*%
X5407836Y3460000D02*
X5192164Y3460000D01*
X5407836Y2740000D02*
X5192164Y2740000D01*
%TO.C,C15*%
X4510000Y-2037836D02*
X4510000Y-1822164D01*
X3790000Y-2037836D02*
X3790000Y-1822164D01*
%TO.C,C14*%
X-5090580Y-490000D02*
X-4809420Y-490000D01*
X-5090580Y-1510000D02*
X-4809420Y-1510000D01*
%TO.C,C13*%
X-4809420Y-285000D02*
X-5090580Y-285000D01*
X-4809420Y735000D02*
X-5090580Y735000D01*
%TO.C,C12*%
X-610000Y-8547164D02*
X-610000Y-8762836D01*
X110000Y-8547164D02*
X110000Y-8762836D01*
%TO.C,C11*%
X3022164Y-8710000D02*
X3237836Y-8710000D01*
X3022164Y-7990000D02*
X3237836Y-7990000D01*
%TO.C,C10*%
X5192164Y1790000D02*
X5407836Y1790000D01*
X5192164Y2510000D02*
X5407836Y2510000D01*
%TO.C,C9*%
X1357836Y-8240000D02*
X1142164Y-8240000D01*
X1357836Y-8960000D02*
X1142164Y-8960000D01*
%TO.C,C8*%
X-960000Y337164D02*
X-960000Y552836D01*
X-240000Y337164D02*
X-240000Y552836D01*
%TO.C,C7*%
X5392164Y-4665000D02*
X5607836Y-4665000D01*
X5392164Y-5385000D02*
X5607836Y-5385000D01*
%TO.C,C6*%
X5577836Y-8910000D02*
X5362164Y-8910000D01*
X5577836Y-8190000D02*
X5362164Y-8190000D01*
%TO.C,C5*%
X4562164Y-11360000D02*
X4777836Y-11360000D01*
X4562164Y-10640000D02*
X4777836Y-10640000D01*
%TO.C,C4*%
X-4165000Y-4872164D02*
X-4165000Y-5087836D01*
X-4885000Y-4872164D02*
X-4885000Y-5087836D01*
%TO.C,C3*%
X5607836Y-3740000D02*
X5392164Y-3740000D01*
X5607836Y-4460000D02*
X5392164Y-4460000D01*
%TO.C,C2*%
X-4687836Y-7360000D02*
X-4472164Y-7360000D01*
X-4687836Y-6640000D02*
X-4472164Y-6640000D01*
%TO.C,C1*%
X3790580Y410000D02*
X3509420Y410000D01*
X3790580Y-610000D02*
X3509420Y-610000D01*
%TD*%
%LPC*%
%TO.C,C16*%
G36*
G01*
X5800000Y-1200000D02*
X5300000Y-1200000D01*
G75*
G02*
X5075000Y-975000I0J225000D01*
G01*
X5075000Y-525000D01*
G75*
G02*
X5300000Y-300000I225000J0D01*
G01*
X5800000Y-300000D01*
G75*
G02*
X6025000Y-525000I0J-225000D01*
G01*
X6025000Y-975000D01*
G75*
G02*
X5800000Y-1200000I-225000J0D01*
G01*
G37*
G36*
G01*
X5800000Y-2750000D02*
X5300000Y-2750000D01*
G75*
G02*
X5075000Y-2525000I0J225000D01*
G01*
X5075000Y-2075000D01*
G75*
G02*
X5300000Y-1850000I225000J0D01*
G01*
X5800000Y-1850000D01*
G75*
G02*
X6025000Y-2075000I0J-225000D01*
G01*
X6025000Y-2525000D01*
G75*
G02*
X5800000Y-2750000I-225000J0D01*
G01*
G37*
%TD*%
D15*
%TO.C,Q2*%
X-3200000Y8275000D03*
X-2250000Y6275000D03*
X-4150000Y6275000D03*
%TD*%
%TO.C,L4*%
G36*
G01*
X-3256250Y900000D02*
X-2743750Y900000D01*
G75*
G02*
X-2525000Y681250I0J-218750D01*
G01*
X-2525000Y243750D01*
G75*
G02*
X-2743750Y25000I-218750J0D01*
G01*
X-3256250Y25000D01*
G75*
G02*
X-3475000Y243750I0J218750D01*
G01*
X-3475000Y681250D01*
G75*
G02*
X-3256250Y900000I218750J0D01*
G01*
G37*
G36*
G01*
X-3256250Y2475000D02*
X-2743750Y2475000D01*
G75*
G02*
X-2525000Y2256250I0J-218750D01*
G01*
X-2525000Y1818750D01*
G75*
G02*
X-2743750Y1600000I-218750J0D01*
G01*
X-3256250Y1600000D01*
G75*
G02*
X-3475000Y1818750I0J218750D01*
G01*
X-3475000Y2256250D01*
G75*
G02*
X-3256250Y2475000I218750J0D01*
G01*
G37*
%TD*%
%TO.C,C25*%
G36*
G01*
X-2000000Y925000D02*
X-1500000Y925000D01*
G75*
G02*
X-1275000Y700000I0J-225000D01*
G01*
X-1275000Y250000D01*
G75*
G02*
X-1500000Y25000I-225000J0D01*
G01*
X-2000000Y25000D01*
G75*
G02*
X-2225000Y250000I0J225000D01*
G01*
X-2225000Y700000D01*
G75*
G02*
X-2000000Y925000I225000J0D01*
G01*
G37*
G36*
G01*
X-2000000Y2475000D02*
X-1500000Y2475000D01*
G75*
G02*
X-1275000Y2250000I0J-225000D01*
G01*
X-1275000Y1800000D01*
G75*
G02*
X-1500000Y1575000I-225000J0D01*
G01*
X-2000000Y1575000D01*
G75*
G02*
X-2225000Y1800000I0J225000D01*
G01*
X-2225000Y2250000D01*
G75*
G02*
X-2000000Y2475000I225000J0D01*
G01*
G37*
%TD*%
%TO.C,C23*%
G36*
G01*
X-195000Y7120000D02*
X145000Y7120000D01*
G75*
G02*
X285000Y6980000I0J-140000D01*
G01*
X285000Y6700000D01*
G75*
G02*
X145000Y6560000I-140000J0D01*
G01*
X-195000Y6560000D01*
G75*
G02*
X-335000Y6700000I0J140000D01*
G01*
X-335000Y6980000D01*
G75*
G02*
X-195000Y7120000I140000J0D01*
G01*
G37*
G36*
G01*
X-195000Y8080000D02*
X145000Y8080000D01*
G75*
G02*
X285000Y7940000I0J-140000D01*
G01*
X285000Y7660000D01*
G75*
G02*
X145000Y7520000I-140000J0D01*
G01*
X-195000Y7520000D01*
G75*
G02*
X-335000Y7660000I0J140000D01*
G01*
X-335000Y7940000D01*
G75*
G02*
X-195000Y8080000I140000J0D01*
G01*
G37*
%TD*%
%TO.C,D1*%
G36*
G01*
X-5706250Y7270000D02*
X-5193750Y7270000D01*
G75*
G02*
X-4975000Y7051250I0J-218750D01*
G01*
X-4975000Y6613750D01*
G75*
G02*
X-5193750Y6395000I-218750J0D01*
G01*
X-5706250Y6395000D01*
G75*
G02*
X-5925000Y6613750I0J218750D01*
G01*
X-5925000Y7051250D01*
G75*
G02*
X-5706250Y7270000I218750J0D01*
G01*
G37*
G36*
G01*
X-5706250Y8845000D02*
X-5193750Y8845000D01*
G75*
G02*
X-4975000Y8626250I0J-218750D01*
G01*
X-4975000Y8188750D01*
G75*
G02*
X-5193750Y7970000I-218750J0D01*
G01*
X-5706250Y7970000D01*
G75*
G02*
X-5925000Y8188750I0J218750D01*
G01*
X-5925000Y8626250D01*
G75*
G02*
X-5706250Y8845000I218750J0D01*
G01*
G37*
%TD*%
%TO.C,D3*%
G36*
G01*
X5193750Y7270000D02*
X5706250Y7270000D01*
G75*
G02*
X5925000Y7051250I0J-218750D01*
G01*
X5925000Y6613750D01*
G75*
G02*
X5706250Y6395000I-218750J0D01*
G01*
X5193750Y6395000D01*
G75*
G02*
X4975000Y6613750I0J218750D01*
G01*
X4975000Y7051250D01*
G75*
G02*
X5193750Y7270000I218750J0D01*
G01*
G37*
G36*
G01*
X5193750Y8845000D02*
X5706250Y8845000D01*
G75*
G02*
X5925000Y8626250I0J-218750D01*
G01*
X5925000Y8188750D01*
G75*
G02*
X5706250Y7970000I-218750J0D01*
G01*
X5193750Y7970000D01*
G75*
G02*
X4975000Y8188750I0J218750D01*
G01*
X4975000Y8626250D01*
G75*
G02*
X5193750Y8845000I218750J0D01*
G01*
G37*
%TD*%
D16*
%TO.C,D2*%
X-1000000Y6075000D03*
X-1000000Y7475000D03*
%TD*%
%TO.C,U3*%
G36*
G01*
X-2350000Y3331250D02*
X-2350000Y3118750D01*
G75*
G02*
X-2443750Y3025000I-93750J0D01*
G01*
X-2631250Y3025000D01*
G75*
G02*
X-2725000Y3118750I0J93750D01*
G01*
X-2725000Y3331250D01*
G75*
G02*
X-2631250Y3425000I93750J0D01*
G01*
X-2443750Y3425000D01*
G75*
G02*
X-2350000Y3331250I0J-93750D01*
G01*
G37*
G36*
G01*
X-2350000Y3981250D02*
X-2350000Y3768750D01*
G75*
G02*
X-2443750Y3675000I-93750J0D01*
G01*
X-2631250Y3675000D01*
G75*
G02*
X-2725000Y3768750I0J93750D01*
G01*
X-2725000Y3981250D01*
G75*
G02*
X-2631250Y4075000I93750J0D01*
G01*
X-2443750Y4075000D01*
G75*
G02*
X-2350000Y3981250I0J-93750D01*
G01*
G37*
G36*
G01*
X-2350000Y4631250D02*
X-2350000Y4418750D01*
G75*
G02*
X-2443750Y4325000I-93750J0D01*
G01*
X-2631250Y4325000D01*
G75*
G02*
X-2725000Y4418750I0J93750D01*
G01*
X-2725000Y4631250D01*
G75*
G02*
X-2631250Y4725000I93750J0D01*
G01*
X-2443750Y4725000D01*
G75*
G02*
X-2350000Y4631250I0J-93750D01*
G01*
G37*
G36*
G01*
X-4125000Y4631250D02*
X-4125000Y4418750D01*
G75*
G02*
X-4218750Y4325000I-93750J0D01*
G01*
X-4406250Y4325000D01*
G75*
G02*
X-4500000Y4418750I0J93750D01*
G01*
X-4500000Y4631250D01*
G75*
G02*
X-4406250Y4725000I93750J0D01*
G01*
X-4218750Y4725000D01*
G75*
G02*
X-4125000Y4631250I0J-93750D01*
G01*
G37*
G36*
G01*
X-4125000Y3981250D02*
X-4125000Y3768750D01*
G75*
G02*
X-4218750Y3675000I-93750J0D01*
G01*
X-4406250Y3675000D01*
G75*
G02*
X-4500000Y3768750I0J93750D01*
G01*
X-4500000Y3981250D01*
G75*
G02*
X-4406250Y4075000I93750J0D01*
G01*
X-4218750Y4075000D01*
G75*
G02*
X-4125000Y3981250I0J-93750D01*
G01*
G37*
G36*
G01*
X-4125000Y3331250D02*
X-4125000Y3118750D01*
G75*
G02*
X-4218750Y3025000I-93750J0D01*
G01*
X-4406250Y3025000D01*
G75*
G02*
X-4500000Y3118750I0J93750D01*
G01*
X-4500000Y3331250D01*
G75*
G02*
X-4406250Y3425000I93750J0D01*
G01*
X-4218750Y3425000D01*
G75*
G02*
X-4125000Y3331250I0J-93750D01*
G01*
G37*
D17*
X-3425000Y3875000D03*
%TD*%
D18*
%TO.C,U4*%
X-7620000Y12690000D03*
X-7620000Y10150000D03*
X-7620000Y7610000D03*
X-7620000Y5070000D03*
X-7620000Y2530000D03*
X-7620000Y-10000D03*
X-7620000Y-2550000D03*
X-7620000Y-5090000D03*
X-7620000Y-7630000D03*
X-7620000Y-10170000D03*
X-7620000Y-12710000D03*
X-7620000Y-15250000D03*
X7620000Y-15250000D03*
X7620000Y-12710000D03*
X7620000Y-10170000D03*
X7620000Y-7630000D03*
X7620000Y-5090000D03*
X7620000Y-2550000D03*
X7620000Y-10000D03*
X7620000Y2530000D03*
X7620000Y5070000D03*
X7620000Y7610000D03*
X7620000Y10150000D03*
X7620000Y12690000D03*
%TD*%
D19*
%TO.C,DUMMY3*%
X-9250000Y750000D03*
X-9250000Y-750000D03*
X-9250000Y0D03*
%TD*%
%TO.C,DUMMY4*%
X9250000Y-750000D03*
X9250000Y750000D03*
X9250000Y0D03*
%TD*%
%TO.C,C24*%
G36*
G01*
X-1555000Y3285000D02*
X-1895000Y3285000D01*
G75*
G02*
X-2035000Y3425000I0J140000D01*
G01*
X-2035000Y3705000D01*
G75*
G02*
X-1895000Y3845000I140000J0D01*
G01*
X-1555000Y3845000D01*
G75*
G02*
X-1415000Y3705000I0J-140000D01*
G01*
X-1415000Y3425000D01*
G75*
G02*
X-1555000Y3285000I-140000J0D01*
G01*
G37*
G36*
G01*
X-1555000Y4245000D02*
X-1895000Y4245000D01*
G75*
G02*
X-2035000Y4385000I0J140000D01*
G01*
X-2035000Y4665000D01*
G75*
G02*
X-1895000Y4805000I140000J0D01*
G01*
X-1555000Y4805000D01*
G75*
G02*
X-1415000Y4665000I0J-140000D01*
G01*
X-1415000Y4385000D01*
G75*
G02*
X-1555000Y4245000I-140000J0D01*
G01*
G37*
%TD*%
D20*
%TO.C,U2*%
X1125000Y4950000D03*
X1125000Y6850000D03*
X3325000Y6850000D03*
X3325000Y5900000D03*
X3325000Y4950000D03*
%TD*%
D21*
%TO.C,Y2*%
X3600000Y3300000D03*
X1100000Y3300000D03*
%TD*%
D18*
%TO.C,J2*%
X7620000Y15230000D03*
%TD*%
%TO.C,J3*%
X-7620000Y15230000D03*
%TD*%
%TO.C,R11*%
G36*
G01*
X-4225000Y-9075000D02*
X-4775000Y-9075000D01*
G75*
G02*
X-4975000Y-8875000I0J200000D01*
G01*
X-4975000Y-8475000D01*
G75*
G02*
X-4775000Y-8275000I200000J0D01*
G01*
X-4225000Y-8275000D01*
G75*
G02*
X-4025000Y-8475000I0J-200000D01*
G01*
X-4025000Y-8875000D01*
G75*
G02*
X-4225000Y-9075000I-200000J0D01*
G01*
G37*
G36*
G01*
X-4225000Y-10725000D02*
X-4775000Y-10725000D01*
G75*
G02*
X-4975000Y-10525000I0J200000D01*
G01*
X-4975000Y-10125000D01*
G75*
G02*
X-4775000Y-9925000I200000J0D01*
G01*
X-4225000Y-9925000D01*
G75*
G02*
X-4025000Y-10125000I0J-200000D01*
G01*
X-4025000Y-10525000D01*
G75*
G02*
X-4225000Y-10725000I-200000J0D01*
G01*
G37*
%TD*%
%TO.C,C22*%
G36*
G01*
X3470000Y-10020000D02*
X3130000Y-10020000D01*
G75*
G02*
X2990000Y-9880000I0J140000D01*
G01*
X2990000Y-9600000D01*
G75*
G02*
X3130000Y-9460000I140000J0D01*
G01*
X3470000Y-9460000D01*
G75*
G02*
X3610000Y-9600000I0J-140000D01*
G01*
X3610000Y-9880000D01*
G75*
G02*
X3470000Y-10020000I-140000J0D01*
G01*
G37*
G36*
G01*
X3470000Y-10980000D02*
X3130000Y-10980000D01*
G75*
G02*
X2990000Y-10840000I0J140000D01*
G01*
X2990000Y-10560000D01*
G75*
G02*
X3130000Y-10420000I140000J0D01*
G01*
X3470000Y-10420000D01*
G75*
G02*
X3610000Y-10560000I0J-140000D01*
G01*
X3610000Y-10840000D01*
G75*
G02*
X3470000Y-10980000I-140000J0D01*
G01*
G37*
%TD*%
%TO.C,R4*%
G36*
G01*
X-5760000Y-8405000D02*
X-5390000Y-8405000D01*
G75*
G02*
X-5255000Y-8540000I0J-135000D01*
G01*
X-5255000Y-8810000D01*
G75*
G02*
X-5390000Y-8945000I-135000J0D01*
G01*
X-5760000Y-8945000D01*
G75*
G02*
X-5895000Y-8810000I0J135000D01*
G01*
X-5895000Y-8540000D01*
G75*
G02*
X-5760000Y-8405000I135000J0D01*
G01*
G37*
G36*
G01*
X-5760000Y-9425000D02*
X-5390000Y-9425000D01*
G75*
G02*
X-5255000Y-9560000I0J-135000D01*
G01*
X-5255000Y-9830000D01*
G75*
G02*
X-5390000Y-9965000I-135000J0D01*
G01*
X-5760000Y-9965000D01*
G75*
G02*
X-5895000Y-9830000I0J135000D01*
G01*
X-5895000Y-9560000D01*
G75*
G02*
X-5760000Y-9425000I135000J0D01*
G01*
G37*
%TD*%
%TO.C,R3*%
G36*
G01*
X-3610000Y-9740000D02*
X-3240000Y-9740000D01*
G75*
G02*
X-3105000Y-9875000I0J-135000D01*
G01*
X-3105000Y-10145000D01*
G75*
G02*
X-3240000Y-10280000I-135000J0D01*
G01*
X-3610000Y-10280000D01*
G75*
G02*
X-3745000Y-10145000I0J135000D01*
G01*
X-3745000Y-9875000D01*
G75*
G02*
X-3610000Y-9740000I135000J0D01*
G01*
G37*
G36*
G01*
X-3610000Y-8720000D02*
X-3240000Y-8720000D01*
G75*
G02*
X-3105000Y-8855000I0J-135000D01*
G01*
X-3105000Y-9125000D01*
G75*
G02*
X-3240000Y-9260000I-135000J0D01*
G01*
X-3610000Y-9260000D01*
G75*
G02*
X-3745000Y-9125000I0J135000D01*
G01*
X-3745000Y-8855000D01*
G75*
G02*
X-3610000Y-8720000I135000J0D01*
G01*
G37*
%TD*%
%TO.C,R10*%
G36*
G01*
X1915000Y8150000D02*
X2285000Y8150000D01*
G75*
G02*
X2420000Y8015000I0J-135000D01*
G01*
X2420000Y7745000D01*
G75*
G02*
X2285000Y7610000I-135000J0D01*
G01*
X1915000Y7610000D01*
G75*
G02*
X1780000Y7745000I0J135000D01*
G01*
X1780000Y8015000D01*
G75*
G02*
X1915000Y8150000I135000J0D01*
G01*
G37*
G36*
G01*
X1915000Y9170000D02*
X2285000Y9170000D01*
G75*
G02*
X2420000Y9035000I0J-135000D01*
G01*
X2420000Y8765000D01*
G75*
G02*
X2285000Y8630000I-135000J0D01*
G01*
X1915000Y8630000D01*
G75*
G02*
X1780000Y8765000I0J135000D01*
G01*
X1780000Y9035000D01*
G75*
G02*
X1915000Y9170000I135000J0D01*
G01*
G37*
%TD*%
D15*
%TO.C,Y1*%
X5950000Y-7500000D03*
X5950000Y-6100000D03*
X4850000Y-6100000D03*
X4850000Y-7500000D03*
%TD*%
D22*
%TO.C,J1*%
X1758300Y10573200D03*
X-1249700Y10573200D03*
D23*
X-5575000Y15373200D03*
X5575600Y15373200D03*
D24*
X5575600Y11473200D03*
X-5575000Y11473200D03*
D25*
X-3199700Y10573200D03*
X3200300Y10573200D03*
X2400300Y10573200D03*
X-2399700Y10573200D03*
D22*
X-749700Y10573200D03*
X750300Y10573200D03*
X-249700Y10573200D03*
X250300Y10573200D03*
X1250300Y10573200D03*
X-1749700Y10573200D03*
%TD*%
D26*
%TO.C,U1*%
X0Y-4250000D03*
D27*
X2750000Y-7500000D03*
X2000000Y-7000000D03*
X3250000Y-3000000D03*
X2750000Y-1750000D03*
X-2750000Y-6250000D03*
X-3250000Y-7000000D03*
X-3250000Y-1500000D03*
X-2500000Y-1500000D03*
X-2000000Y-1500000D03*
X-1750000Y-1000000D03*
X-1250000Y-1000000D03*
X-750000Y-1000000D03*
X-250000Y-1000000D03*
X250000Y-1000000D03*
X750000Y-1000000D03*
X1250000Y-1000000D03*
X-1000000Y-1500000D03*
X-500000Y-1500000D03*
X0Y-1500000D03*
X500000Y-1500000D03*
X1000000Y-1500000D03*
X1500000Y-1500000D03*
X2250000Y-1000000D03*
X2000000Y-1500000D03*
X2750000Y-1000000D03*
X-3250000Y-2000000D03*
X-3250000Y-2500000D03*
X-3250000Y-3000000D03*
X-3250000Y-3500000D03*
X-3250000Y-4000000D03*
X-3250000Y-4500000D03*
X-3250000Y-5000000D03*
X-3250000Y-5500000D03*
X-3250000Y-6000000D03*
X-3250000Y-6500000D03*
X-2750000Y-5750000D03*
X-2750000Y-5250000D03*
X-2750000Y-4750000D03*
X-2750000Y-4250000D03*
X-2750000Y-3750000D03*
X-2750000Y-3250000D03*
X-2750000Y-2250000D03*
X2750000Y-2250000D03*
X2750000Y-2750000D03*
X2750000Y-3250000D03*
X2750000Y-3750000D03*
X2750000Y-4250000D03*
X2750000Y-4750000D03*
X2750000Y-5250000D03*
X2750000Y-5750000D03*
X3250000Y-3500000D03*
X3250000Y-4000000D03*
X3250000Y-4500000D03*
X3250000Y-5000000D03*
X3250000Y-5500000D03*
X3250000Y-6000000D03*
X3250000Y-6500000D03*
X3250000Y-7000000D03*
X1500000Y-7000000D03*
X1000000Y-7000000D03*
X-500000Y-7000000D03*
X-1000000Y-7000000D03*
X-1500000Y-7000000D03*
X-2000000Y-7000000D03*
X1750000Y-7500000D03*
X750000Y-7500000D03*
X250000Y-7500000D03*
X-250000Y-7500000D03*
X-750000Y-7500000D03*
X-1250000Y-7500000D03*
X-1750000Y-7500000D03*
X-2250000Y-7500000D03*
X-2750000Y-7500000D03*
%TD*%
%TO.C,R9*%
G36*
G01*
X2890000Y8150000D02*
X3260000Y8150000D01*
G75*
G02*
X3395000Y8015000I0J-135000D01*
G01*
X3395000Y7745000D01*
G75*
G02*
X3260000Y7610000I-135000J0D01*
G01*
X2890000Y7610000D01*
G75*
G02*
X2755000Y7745000I0J135000D01*
G01*
X2755000Y8015000D01*
G75*
G02*
X2890000Y8150000I135000J0D01*
G01*
G37*
G36*
G01*
X2890000Y9170000D02*
X3260000Y9170000D01*
G75*
G02*
X3395000Y9035000I0J-135000D01*
G01*
X3395000Y8765000D01*
G75*
G02*
X3260000Y8630000I-135000J0D01*
G01*
X2890000Y8630000D01*
G75*
G02*
X2755000Y8765000I0J135000D01*
G01*
X2755000Y9035000D01*
G75*
G02*
X2890000Y9170000I135000J0D01*
G01*
G37*
%TD*%
%TO.C,R8*%
G36*
G01*
X-210000Y5300000D02*
X160000Y5300000D01*
G75*
G02*
X295000Y5165000I0J-135000D01*
G01*
X295000Y4895000D01*
G75*
G02*
X160000Y4760000I-135000J0D01*
G01*
X-210000Y4760000D01*
G75*
G02*
X-345000Y4895000I0J135000D01*
G01*
X-345000Y5165000D01*
G75*
G02*
X-210000Y5300000I135000J0D01*
G01*
G37*
G36*
G01*
X-210000Y6320000D02*
X160000Y6320000D01*
G75*
G02*
X295000Y6185000I0J-135000D01*
G01*
X295000Y5915000D01*
G75*
G02*
X160000Y5780000I-135000J0D01*
G01*
X-210000Y5780000D01*
G75*
G02*
X-345000Y5915000I0J135000D01*
G01*
X-345000Y6185000D01*
G75*
G02*
X-210000Y6320000I135000J0D01*
G01*
G37*
%TD*%
%TO.C,R7*%
G36*
G01*
X1085000Y1225000D02*
X715000Y1225000D01*
G75*
G02*
X580000Y1360000I0J135000D01*
G01*
X580000Y1630000D01*
G75*
G02*
X715000Y1765000I135000J0D01*
G01*
X1085000Y1765000D01*
G75*
G02*
X1220000Y1630000I0J-135000D01*
G01*
X1220000Y1360000D01*
G75*
G02*
X1085000Y1225000I-135000J0D01*
G01*
G37*
G36*
G01*
X1085000Y205000D02*
X715000Y205000D01*
G75*
G02*
X580000Y340000I0J135000D01*
G01*
X580000Y610000D01*
G75*
G02*
X715000Y745000I135000J0D01*
G01*
X1085000Y745000D01*
G75*
G02*
X1220000Y610000I0J-135000D01*
G01*
X1220000Y340000D01*
G75*
G02*
X1085000Y205000I-135000J0D01*
G01*
G37*
%TD*%
%TO.C,R6*%
G36*
G01*
X3865000Y8150000D02*
X4235000Y8150000D01*
G75*
G02*
X4370000Y8015000I0J-135000D01*
G01*
X4370000Y7745000D01*
G75*
G02*
X4235000Y7610000I-135000J0D01*
G01*
X3865000Y7610000D01*
G75*
G02*
X3730000Y7745000I0J135000D01*
G01*
X3730000Y8015000D01*
G75*
G02*
X3865000Y8150000I135000J0D01*
G01*
G37*
G36*
G01*
X3865000Y9170000D02*
X4235000Y9170000D01*
G75*
G02*
X4370000Y9035000I0J-135000D01*
G01*
X4370000Y8765000D01*
G75*
G02*
X4235000Y8630000I-135000J0D01*
G01*
X3865000Y8630000D01*
G75*
G02*
X3730000Y8765000I0J135000D01*
G01*
X3730000Y9035000D01*
G75*
G02*
X3865000Y9170000I135000J0D01*
G01*
G37*
%TD*%
%TO.C,R5*%
G36*
G01*
X-5990000Y-3510000D02*
X-5990000Y-3140000D01*
G75*
G02*
X-5855000Y-3005000I135000J0D01*
G01*
X-5585000Y-3005000D01*
G75*
G02*
X-5450000Y-3140000I0J-135000D01*
G01*
X-5450000Y-3510000D01*
G75*
G02*
X-5585000Y-3645000I-135000J0D01*
G01*
X-5855000Y-3645000D01*
G75*
G02*
X-5990000Y-3510000I0J135000D01*
G01*
G37*
G36*
G01*
X-4970000Y-3510000D02*
X-4970000Y-3140000D01*
G75*
G02*
X-4835000Y-3005000I135000J0D01*
G01*
X-4565000Y-3005000D01*
G75*
G02*
X-4430000Y-3140000I0J-135000D01*
G01*
X-4430000Y-3510000D01*
G75*
G02*
X-4565000Y-3645000I-135000J0D01*
G01*
X-4835000Y-3645000D01*
G75*
G02*
X-4970000Y-3510000I0J135000D01*
G01*
G37*
%TD*%
%TO.C,L3*%
G36*
G01*
X3787500Y1381250D02*
X3787500Y868750D01*
G75*
G02*
X3568750Y650000I-218750J0D01*
G01*
X3131250Y650000D01*
G75*
G02*
X2912500Y868750I0J218750D01*
G01*
X2912500Y1381250D01*
G75*
G02*
X3131250Y1600000I218750J0D01*
G01*
X3568750Y1600000D01*
G75*
G02*
X3787500Y1381250I0J-218750D01*
G01*
G37*
G36*
G01*
X5362500Y1381250D02*
X5362500Y868750D01*
G75*
G02*
X5143750Y650000I-218750J0D01*
G01*
X4706250Y650000D01*
G75*
G02*
X4487500Y868750I0J218750D01*
G01*
X4487500Y1381250D01*
G75*
G02*
X4706250Y1600000I218750J0D01*
G01*
X5143750Y1600000D01*
G75*
G02*
X5362500Y1381250I0J-218750D01*
G01*
G37*
%TD*%
%TO.C,L2*%
G36*
G01*
X6122500Y955000D02*
X5777500Y955000D01*
G75*
G02*
X5630000Y1102500I0J147500D01*
G01*
X5630000Y1397500D01*
G75*
G02*
X5777500Y1545000I147500J0D01*
G01*
X6122500Y1545000D01*
G75*
G02*
X6270000Y1397500I0J-147500D01*
G01*
X6270000Y1102500D01*
G75*
G02*
X6122500Y955000I-147500J0D01*
G01*
G37*
G36*
G01*
X6122500Y-15000D02*
X5777500Y-15000D01*
G75*
G02*
X5630000Y132500I0J147500D01*
G01*
X5630000Y427500D01*
G75*
G02*
X5777500Y575000I147500J0D01*
G01*
X6122500Y575000D01*
G75*
G02*
X6270000Y427500I0J-147500D01*
G01*
X6270000Y132500D01*
G75*
G02*
X6122500Y-15000I-147500J0D01*
G01*
G37*
%TD*%
%TO.C,L1*%
G36*
G01*
X942500Y-9810000D02*
X597500Y-9810000D01*
G75*
G02*
X450000Y-9662500I0J147500D01*
G01*
X450000Y-9367500D01*
G75*
G02*
X597500Y-9220000I147500J0D01*
G01*
X942500Y-9220000D01*
G75*
G02*
X1090000Y-9367500I0J-147500D01*
G01*
X1090000Y-9662500D01*
G75*
G02*
X942500Y-9810000I-147500J0D01*
G01*
G37*
G36*
G01*
X942500Y-10780000D02*
X597500Y-10780000D01*
G75*
G02*
X450000Y-10632500I0J147500D01*
G01*
X450000Y-10337500D01*
G75*
G02*
X597500Y-10190000I147500J0D01*
G01*
X942500Y-10190000D01*
G75*
G02*
X1090000Y-10337500I0J-147500D01*
G01*
X1090000Y-10632500D01*
G75*
G02*
X942500Y-10780000I-147500J0D01*
G01*
G37*
%TD*%
%TO.C,C21*%
G36*
G01*
X5125000Y5250000D02*
X4625000Y5250000D01*
G75*
G02*
X4400000Y5475000I0J225000D01*
G01*
X4400000Y5925000D01*
G75*
G02*
X4625000Y6150000I225000J0D01*
G01*
X5125000Y6150000D01*
G75*
G02*
X5350000Y5925000I0J-225000D01*
G01*
X5350000Y5475000D01*
G75*
G02*
X5125000Y5250000I-225000J0D01*
G01*
G37*
G36*
G01*
X5125000Y3700000D02*
X4625000Y3700000D01*
G75*
G02*
X4400000Y3925000I0J225000D01*
G01*
X4400000Y4375000D01*
G75*
G02*
X4625000Y4600000I225000J0D01*
G01*
X5125000Y4600000D01*
G75*
G02*
X5350000Y4375000I0J-225000D01*
G01*
X5350000Y3925000D01*
G75*
G02*
X5125000Y3700000I-225000J0D01*
G01*
G37*
%TD*%
%TO.C,C20*%
G36*
G01*
X-4625000Y1200000D02*
X-4625000Y1700000D01*
G75*
G02*
X-4400000Y1925000I225000J0D01*
G01*
X-3950000Y1925000D01*
G75*
G02*
X-3725000Y1700000I0J-225000D01*
G01*
X-3725000Y1200000D01*
G75*
G02*
X-3950000Y975000I-225000J0D01*
G01*
X-4400000Y975000D01*
G75*
G02*
X-4625000Y1200000I0J225000D01*
G01*
G37*
G36*
G01*
X-6175000Y1200000D02*
X-6175000Y1700000D01*
G75*
G02*
X-5950000Y1925000I225000J0D01*
G01*
X-5500000Y1925000D01*
G75*
G02*
X-5275000Y1700000I0J-225000D01*
G01*
X-5275000Y1200000D01*
G75*
G02*
X-5500000Y975000I-225000J0D01*
G01*
X-5950000Y975000D01*
G75*
G02*
X-6175000Y1200000I0J225000D01*
G01*
G37*
%TD*%
%TO.C,C19*%
G36*
G01*
X-2355000Y-10260000D02*
X-2695000Y-10260000D01*
G75*
G02*
X-2835000Y-10120000I0J140000D01*
G01*
X-2835000Y-9840000D01*
G75*
G02*
X-2695000Y-9700000I140000J0D01*
G01*
X-2355000Y-9700000D01*
G75*
G02*
X-2215000Y-9840000I0J-140000D01*
G01*
X-2215000Y-10120000D01*
G75*
G02*
X-2355000Y-10260000I-140000J0D01*
G01*
G37*
G36*
G01*
X-2355000Y-9300000D02*
X-2695000Y-9300000D01*
G75*
G02*
X-2835000Y-9160000I0J140000D01*
G01*
X-2835000Y-8880000D01*
G75*
G02*
X-2695000Y-8740000I140000J0D01*
G01*
X-2355000Y-8740000D01*
G75*
G02*
X-2215000Y-8880000I0J-140000D01*
G01*
X-2215000Y-9160000D01*
G75*
G02*
X-2355000Y-9300000I-140000J0D01*
G01*
G37*
%TD*%
%TO.C,C18*%
G36*
G01*
X-170000Y3865000D02*
X170000Y3865000D01*
G75*
G02*
X310000Y3725000I0J-140000D01*
G01*
X310000Y3445000D01*
G75*
G02*
X170000Y3305000I-140000J0D01*
G01*
X-170000Y3305000D01*
G75*
G02*
X-310000Y3445000I0J140000D01*
G01*
X-310000Y3725000D01*
G75*
G02*
X-170000Y3865000I140000J0D01*
G01*
G37*
G36*
G01*
X-170000Y2905000D02*
X170000Y2905000D01*
G75*
G02*
X310000Y2765000I0J-140000D01*
G01*
X310000Y2485000D01*
G75*
G02*
X170000Y2345000I-140000J0D01*
G01*
X-170000Y2345000D01*
G75*
G02*
X-310000Y2485000I0J140000D01*
G01*
X-310000Y2765000D01*
G75*
G02*
X-170000Y2905000I140000J0D01*
G01*
G37*
%TD*%
%TO.C,C17*%
G36*
G01*
X5100000Y3270000D02*
X5100000Y2930000D01*
G75*
G02*
X4960000Y2790000I-140000J0D01*
G01*
X4680000Y2790000D01*
G75*
G02*
X4540000Y2930000I0J140000D01*
G01*
X4540000Y3270000D01*
G75*
G02*
X4680000Y3410000I140000J0D01*
G01*
X4960000Y3410000D01*
G75*
G02*
X5100000Y3270000I0J-140000D01*
G01*
G37*
G36*
G01*
X6060000Y3270000D02*
X6060000Y2930000D01*
G75*
G02*
X5920000Y2790000I-140000J0D01*
G01*
X5640000Y2790000D01*
G75*
G02*
X5500000Y2930000I0J140000D01*
G01*
X5500000Y3270000D01*
G75*
G02*
X5640000Y3410000I140000J0D01*
G01*
X5920000Y3410000D01*
G75*
G02*
X6060000Y3270000I0J-140000D01*
G01*
G37*
%TD*%
%TO.C,C15*%
G36*
G01*
X4320000Y-1730000D02*
X3980000Y-1730000D01*
G75*
G02*
X3840000Y-1590000I0J140000D01*
G01*
X3840000Y-1310000D01*
G75*
G02*
X3980000Y-1170000I140000J0D01*
G01*
X4320000Y-1170000D01*
G75*
G02*
X4460000Y-1310000I0J-140000D01*
G01*
X4460000Y-1590000D01*
G75*
G02*
X4320000Y-1730000I-140000J0D01*
G01*
G37*
G36*
G01*
X4320000Y-2690000D02*
X3980000Y-2690000D01*
G75*
G02*
X3840000Y-2550000I0J140000D01*
G01*
X3840000Y-2270000D01*
G75*
G02*
X3980000Y-2130000I140000J0D01*
G01*
X4320000Y-2130000D01*
G75*
G02*
X4460000Y-2270000I0J-140000D01*
G01*
X4460000Y-2550000D01*
G75*
G02*
X4320000Y-2690000I-140000J0D01*
G01*
G37*
%TD*%
%TO.C,C14*%
G36*
G01*
X-6175000Y-1250000D02*
X-6175000Y-750000D01*
G75*
G02*
X-5950000Y-525000I225000J0D01*
G01*
X-5500000Y-525000D01*
G75*
G02*
X-5275000Y-750000I0J-225000D01*
G01*
X-5275000Y-1250000D01*
G75*
G02*
X-5500000Y-1475000I-225000J0D01*
G01*
X-5950000Y-1475000D01*
G75*
G02*
X-6175000Y-1250000I0J225000D01*
G01*
G37*
G36*
G01*
X-4625000Y-1250000D02*
X-4625000Y-750000D01*
G75*
G02*
X-4400000Y-525000I225000J0D01*
G01*
X-3950000Y-525000D01*
G75*
G02*
X-3725000Y-750000I0J-225000D01*
G01*
X-3725000Y-1250000D01*
G75*
G02*
X-3950000Y-1475000I-225000J0D01*
G01*
X-4400000Y-1475000D01*
G75*
G02*
X-4625000Y-1250000I0J225000D01*
G01*
G37*
%TD*%
%TO.C,C13*%
G36*
G01*
X-3725000Y475000D02*
X-3725000Y-25000D01*
G75*
G02*
X-3950000Y-250000I-225000J0D01*
G01*
X-4400000Y-250000D01*
G75*
G02*
X-4625000Y-25000I0J225000D01*
G01*
X-4625000Y475000D01*
G75*
G02*
X-4400000Y700000I225000J0D01*
G01*
X-3950000Y700000D01*
G75*
G02*
X-3725000Y475000I0J-225000D01*
G01*
G37*
G36*
G01*
X-5275000Y475000D02*
X-5275000Y-25000D01*
G75*
G02*
X-5500000Y-250000I-225000J0D01*
G01*
X-5950000Y-250000D01*
G75*
G02*
X-6175000Y-25000I0J225000D01*
G01*
X-6175000Y475000D01*
G75*
G02*
X-5950000Y700000I225000J0D01*
G01*
X-5500000Y700000D01*
G75*
G02*
X-5275000Y475000I0J-225000D01*
G01*
G37*
%TD*%
%TO.C,C12*%
G36*
G01*
X-420000Y-8855000D02*
X-80000Y-8855000D01*
G75*
G02*
X60000Y-8995000I0J-140000D01*
G01*
X60000Y-9275000D01*
G75*
G02*
X-80000Y-9415000I-140000J0D01*
G01*
X-420000Y-9415000D01*
G75*
G02*
X-560000Y-9275000I0J140000D01*
G01*
X-560000Y-8995000D01*
G75*
G02*
X-420000Y-8855000I140000J0D01*
G01*
G37*
G36*
G01*
X-420000Y-7895000D02*
X-80000Y-7895000D01*
G75*
G02*
X60000Y-8035000I0J-140000D01*
G01*
X60000Y-8315000D01*
G75*
G02*
X-80000Y-8455000I-140000J0D01*
G01*
X-420000Y-8455000D01*
G75*
G02*
X-560000Y-8315000I0J140000D01*
G01*
X-560000Y-8035000D01*
G75*
G02*
X-420000Y-7895000I140000J0D01*
G01*
G37*
%TD*%
%TO.C,C11*%
G36*
G01*
X3330000Y-8520000D02*
X3330000Y-8180000D01*
G75*
G02*
X3470000Y-8040000I140000J0D01*
G01*
X3750000Y-8040000D01*
G75*
G02*
X3890000Y-8180000I0J-140000D01*
G01*
X3890000Y-8520000D01*
G75*
G02*
X3750000Y-8660000I-140000J0D01*
G01*
X3470000Y-8660000D01*
G75*
G02*
X3330000Y-8520000I0J140000D01*
G01*
G37*
G36*
G01*
X2370000Y-8520000D02*
X2370000Y-8180000D01*
G75*
G02*
X2510000Y-8040000I140000J0D01*
G01*
X2790000Y-8040000D01*
G75*
G02*
X2930000Y-8180000I0J-140000D01*
G01*
X2930000Y-8520000D01*
G75*
G02*
X2790000Y-8660000I-140000J0D01*
G01*
X2510000Y-8660000D01*
G75*
G02*
X2370000Y-8520000I0J140000D01*
G01*
G37*
%TD*%
%TO.C,C10*%
G36*
G01*
X5500000Y1980000D02*
X5500000Y2320000D01*
G75*
G02*
X5640000Y2460000I140000J0D01*
G01*
X5920000Y2460000D01*
G75*
G02*
X6060000Y2320000I0J-140000D01*
G01*
X6060000Y1980000D01*
G75*
G02*
X5920000Y1840000I-140000J0D01*
G01*
X5640000Y1840000D01*
G75*
G02*
X5500000Y1980000I0J140000D01*
G01*
G37*
G36*
G01*
X4540000Y1980000D02*
X4540000Y2320000D01*
G75*
G02*
X4680000Y2460000I140000J0D01*
G01*
X4960000Y2460000D01*
G75*
G02*
X5100000Y2320000I0J-140000D01*
G01*
X5100000Y1980000D01*
G75*
G02*
X4960000Y1840000I-140000J0D01*
G01*
X4680000Y1840000D01*
G75*
G02*
X4540000Y1980000I0J140000D01*
G01*
G37*
%TD*%
%TO.C,C9*%
G36*
G01*
X1050000Y-8430000D02*
X1050000Y-8770000D01*
G75*
G02*
X910000Y-8910000I-140000J0D01*
G01*
X630000Y-8910000D01*
G75*
G02*
X490000Y-8770000I0J140000D01*
G01*
X490000Y-8430000D01*
G75*
G02*
X630000Y-8290000I140000J0D01*
G01*
X910000Y-8290000D01*
G75*
G02*
X1050000Y-8430000I0J-140000D01*
G01*
G37*
G36*
G01*
X2010000Y-8430000D02*
X2010000Y-8770000D01*
G75*
G02*
X1870000Y-8910000I-140000J0D01*
G01*
X1590000Y-8910000D01*
G75*
G02*
X1450000Y-8770000I0J140000D01*
G01*
X1450000Y-8430000D01*
G75*
G02*
X1590000Y-8290000I140000J0D01*
G01*
X1870000Y-8290000D01*
G75*
G02*
X2010000Y-8430000I0J-140000D01*
G01*
G37*
%TD*%
%TO.C,C8*%
G36*
G01*
X-430000Y-315000D02*
X-770000Y-315000D01*
G75*
G02*
X-910000Y-175000I0J140000D01*
G01*
X-910000Y105000D01*
G75*
G02*
X-770000Y245000I140000J0D01*
G01*
X-430000Y245000D01*
G75*
G02*
X-290000Y105000I0J-140000D01*
G01*
X-290000Y-175000D01*
G75*
G02*
X-430000Y-315000I-140000J0D01*
G01*
G37*
G36*
G01*
X-430000Y645000D02*
X-770000Y645000D01*
G75*
G02*
X-910000Y785000I0J140000D01*
G01*
X-910000Y1065000D01*
G75*
G02*
X-770000Y1205000I140000J0D01*
G01*
X-430000Y1205000D01*
G75*
G02*
X-290000Y1065000I0J-140000D01*
G01*
X-290000Y785000D01*
G75*
G02*
X-430000Y645000I-140000J0D01*
G01*
G37*
%TD*%
%TO.C,C7*%
G36*
G01*
X4740000Y-5195000D02*
X4740000Y-4855000D01*
G75*
G02*
X4880000Y-4715000I140000J0D01*
G01*
X5160000Y-4715000D01*
G75*
G02*
X5300000Y-4855000I0J-140000D01*
G01*
X5300000Y-5195000D01*
G75*
G02*
X5160000Y-5335000I-140000J0D01*
G01*
X4880000Y-5335000D01*
G75*
G02*
X4740000Y-5195000I0J140000D01*
G01*
G37*
G36*
G01*
X5700000Y-5195000D02*
X5700000Y-4855000D01*
G75*
G02*
X5840000Y-4715000I140000J0D01*
G01*
X6120000Y-4715000D01*
G75*
G02*
X6260000Y-4855000I0J-140000D01*
G01*
X6260000Y-5195000D01*
G75*
G02*
X6120000Y-5335000I-140000J0D01*
G01*
X5840000Y-5335000D01*
G75*
G02*
X5700000Y-5195000I0J140000D01*
G01*
G37*
%TD*%
%TO.C,C6*%
G36*
G01*
X6230000Y-8380000D02*
X6230000Y-8720000D01*
G75*
G02*
X6090000Y-8860000I-140000J0D01*
G01*
X5810000Y-8860000D01*
G75*
G02*
X5670000Y-8720000I0J140000D01*
G01*
X5670000Y-8380000D01*
G75*
G02*
X5810000Y-8240000I140000J0D01*
G01*
X6090000Y-8240000D01*
G75*
G02*
X6230000Y-8380000I0J-140000D01*
G01*
G37*
G36*
G01*
X5270000Y-8380000D02*
X5270000Y-8720000D01*
G75*
G02*
X5130000Y-8860000I-140000J0D01*
G01*
X4850000Y-8860000D01*
G75*
G02*
X4710000Y-8720000I0J140000D01*
G01*
X4710000Y-8380000D01*
G75*
G02*
X4850000Y-8240000I140000J0D01*
G01*
X5130000Y-8240000D01*
G75*
G02*
X5270000Y-8380000I0J-140000D01*
G01*
G37*
%TD*%
%TO.C,C5*%
G36*
G01*
X4870000Y-11170000D02*
X4870000Y-10830000D01*
G75*
G02*
X5010000Y-10690000I140000J0D01*
G01*
X5290000Y-10690000D01*
G75*
G02*
X5430000Y-10830000I0J-140000D01*
G01*
X5430000Y-11170000D01*
G75*
G02*
X5290000Y-11310000I-140000J0D01*
G01*
X5010000Y-11310000D01*
G75*
G02*
X4870000Y-11170000I0J140000D01*
G01*
G37*
G36*
G01*
X3910000Y-11170000D02*
X3910000Y-10830000D01*
G75*
G02*
X4050000Y-10690000I140000J0D01*
G01*
X4330000Y-10690000D01*
G75*
G02*
X4470000Y-10830000I0J-140000D01*
G01*
X4470000Y-11170000D01*
G75*
G02*
X4330000Y-11310000I-140000J0D01*
G01*
X4050000Y-11310000D01*
G75*
G02*
X3910000Y-11170000I0J140000D01*
G01*
G37*
%TD*%
%TO.C,C4*%
G36*
G01*
X-4695000Y-4220000D02*
X-4355000Y-4220000D01*
G75*
G02*
X-4215000Y-4360000I0J-140000D01*
G01*
X-4215000Y-4640000D01*
G75*
G02*
X-4355000Y-4780000I-140000J0D01*
G01*
X-4695000Y-4780000D01*
G75*
G02*
X-4835000Y-4640000I0J140000D01*
G01*
X-4835000Y-4360000D01*
G75*
G02*
X-4695000Y-4220000I140000J0D01*
G01*
G37*
G36*
G01*
X-4695000Y-5180000D02*
X-4355000Y-5180000D01*
G75*
G02*
X-4215000Y-5320000I0J-140000D01*
G01*
X-4215000Y-5600000D01*
G75*
G02*
X-4355000Y-5740000I-140000J0D01*
G01*
X-4695000Y-5740000D01*
G75*
G02*
X-4835000Y-5600000I0J140000D01*
G01*
X-4835000Y-5320000D01*
G75*
G02*
X-4695000Y-5180000I140000J0D01*
G01*
G37*
%TD*%
%TO.C,C3*%
G36*
G01*
X5300000Y-3930000D02*
X5300000Y-4270000D01*
G75*
G02*
X5160000Y-4410000I-140000J0D01*
G01*
X4880000Y-4410000D01*
G75*
G02*
X4740000Y-4270000I0J140000D01*
G01*
X4740000Y-3930000D01*
G75*
G02*
X4880000Y-3790000I140000J0D01*
G01*
X5160000Y-3790000D01*
G75*
G02*
X5300000Y-3930000I0J-140000D01*
G01*
G37*
G36*
G01*
X6260000Y-3930000D02*
X6260000Y-4270000D01*
G75*
G02*
X6120000Y-4410000I-140000J0D01*
G01*
X5840000Y-4410000D01*
G75*
G02*
X5700000Y-4270000I0J140000D01*
G01*
X5700000Y-3930000D01*
G75*
G02*
X5840000Y-3790000I140000J0D01*
G01*
X6120000Y-3790000D01*
G75*
G02*
X6260000Y-3930000I0J-140000D01*
G01*
G37*
%TD*%
%TO.C,C2*%
G36*
G01*
X-4380000Y-7170000D02*
X-4380000Y-6830000D01*
G75*
G02*
X-4240000Y-6690000I140000J0D01*
G01*
X-3960000Y-6690000D01*
G75*
G02*
X-3820000Y-6830000I0J-140000D01*
G01*
X-3820000Y-7170000D01*
G75*
G02*
X-3960000Y-7310000I-140000J0D01*
G01*
X-4240000Y-7310000D01*
G75*
G02*
X-4380000Y-7170000I0J140000D01*
G01*
G37*
G36*
G01*
X-5340000Y-7170000D02*
X-5340000Y-6830000D01*
G75*
G02*
X-5200000Y-6690000I140000J0D01*
G01*
X-4920000Y-6690000D01*
G75*
G02*
X-4780000Y-6830000I0J-140000D01*
G01*
X-4780000Y-7170000D01*
G75*
G02*
X-4920000Y-7310000I-140000J0D01*
G01*
X-5200000Y-7310000D01*
G75*
G02*
X-5340000Y-7170000I0J140000D01*
G01*
G37*
%TD*%
%TO.C,C1*%
G36*
G01*
X3325000Y150000D02*
X3325000Y-350000D01*
G75*
G02*
X3100000Y-575000I-225000J0D01*
G01*
X2650000Y-575000D01*
G75*
G02*
X2425000Y-350000I0J225000D01*
G01*
X2425000Y150000D01*
G75*
G02*
X2650000Y375000I225000J0D01*
G01*
X3100000Y375000D01*
G75*
G02*
X3325000Y150000I0J-225000D01*
G01*
G37*
G36*
G01*
X4875000Y150000D02*
X4875000Y-350000D01*
G75*
G02*
X4650000Y-575000I-225000J0D01*
G01*
X4200000Y-575000D01*
G75*
G02*
X3975000Y-350000I0J225000D01*
G01*
X3975000Y150000D01*
G75*
G02*
X4200000Y375000I225000J0D01*
G01*
X4650000Y375000D01*
G75*
G02*
X4875000Y150000I0J-225000D01*
G01*
G37*
%TD*%
M02*
